<svg width="83" height="71" viewBox="0 0 83 71" fill="none" xmlns="http://www.w3.org/2000/svg">
<g clip-path="url(#clip0_518_630)">
<path d="M0.425781 0.869019H82.2308V70.8519H0.425781V0.869019Z" stroke="#FDFDFD" stroke-width="0.170631" stroke-miterlimit="10"/>
<path d="M26.5502 7.33528C30.152 4.27094 34.7971 2.50315 39.5151 2.2322C40.6087 2.23089 41.7025 2.2305 42.7964 2.22949C48.0143 2.4994 53.126 4.64715 56.8905 8.26984C59.6708 11.0505 61.7734 14.5599 62.5494 18.4326C63.498 22.8212 62.8848 27.5234 60.8315 31.5217C60.4358 32.2695 60.0548 33.0499 59.4332 33.6424C59.3759 33.1696 59.2522 32.7089 59.1403 32.2476C56.7357 32.3561 54.3681 32.8248 51.9751 33.0551C50.0003 33.3232 48.0282 33.6094 46.0508 33.8589C45.9027 36.6335 46.067 39.4127 46.0536 42.1888C44.8733 41.7979 43.7114 41.2694 42.4495 41.2167C41.0827 41.1522 39.6713 41.1197 38.3593 41.5665C37.7158 41.78 37.0825 42.0222 36.4389 42.2347C36.4314 41.4197 36.5108 40.6054 36.4748 39.7912C36.4586 39.2155 36.1293 38.6929 36.1413 38.1179C36.288 37.2479 36.663 36.4137 36.6325 35.5163C36.6278 32.6212 34.1906 30.0364 31.3499 29.6286C29.812 29.4276 28.1548 29.5797 26.8177 30.421C26.1451 30.8088 25.5476 31.4357 24.7229 31.4595C23.6413 31.5264 22.5584 31.4301 21.4771 31.4042C20.0933 28.7035 19.4517 25.6703 19.3477 22.6544C19.4308 18.5994 20.5281 14.4578 23.0066 11.1859C23.9684 9.71522 25.3394 8.5902 26.5502 7.33528Z" stroke="#056EB0" stroke-width="0.170631" stroke-miterlimit="10"/>
<path d="M26.5502 7.33528C30.152 4.27094 34.7971 2.50315 39.5151 2.2322C40.6087 2.23089 41.7025 2.2305 42.7964 2.22949C48.0143 2.4994 53.126 4.64715 56.8905 8.26984C59.6708 11.0505 61.7734 14.5599 62.5494 18.4326C63.498 22.8212 62.8848 27.5234 60.8315 31.5217C60.4358 32.2695 60.0548 33.0499 59.4332 33.6424C59.3759 33.1696 59.2522 32.7089 59.1403 32.2476C56.7357 32.3561 54.3681 32.8248 51.9751 33.0551C50.0003 33.3232 48.0282 33.6094 46.0508 33.8589C45.9027 36.6335 46.067 39.4127 46.0536 42.1888C44.8733 41.7979 43.7114 41.2694 42.4495 41.2167C41.0827 41.1522 39.6713 41.1197 38.3593 41.5665C37.7158 41.78 37.0825 42.0222 36.4389 42.2347C36.4314 41.4197 36.5108 40.6054 36.4748 39.7912C36.4586 39.2155 36.1292 38.6929 36.1413 38.1179C36.288 37.2479 36.663 36.4137 36.6325 35.5163C36.6278 32.6212 34.1906 30.0364 31.3499 29.6286C29.812 29.4276 28.1548 29.5797 26.8177 30.421C26.1451 30.8088 25.5476 31.4357 24.7229 31.4595C23.6413 31.5264 22.5584 31.4301 21.4771 31.4042C20.0933 28.7035 19.4517 25.6703 19.3477 22.6544C19.4308 18.5994 20.5281 14.4578 23.0066 11.1859C23.9684 9.71522 25.3394 8.5902 26.5502 7.33528Z" fill="#056EB0"/>
<path d="M33.8007 11.6548C34.8364 11.5999 35.8752 11.5987 36.9101 11.6752C36.8791 12.9925 36.7267 14.3039 36.7152 15.622C37.6245 15.2132 38.5365 14.7667 39.5337 14.6178C41.2964 14.3529 43.1737 14.5216 44.7625 15.3722C46.2214 16.1556 47.3804 17.4615 48.036 18.9731C48.9119 21.0313 48.6378 23.5046 47.4069 25.3628C45.6862 27.8772 42.4139 29.2584 39.4094 28.58C36.8093 27.9962 34.462 26.0133 33.7661 23.4057C33.5443 22.6615 33.4807 21.8808 33.5048 21.1077C33.589 17.9565 33.6316 14.8027 33.8007 11.6548Z" stroke="#FDFDFD" stroke-width="0.170631" stroke-miterlimit="10"/>
<path d="M33.8007 11.6548C34.8364 11.5999 35.8752 11.5987 36.9101 11.6752C36.8791 12.9925 36.7267 14.3039 36.7152 15.622C37.6245 15.2132 38.5365 14.7667 39.5337 14.6178C41.2964 14.3529 43.1737 14.5216 44.7625 15.3722C46.2214 16.1556 47.3804 17.4615 48.036 18.9731C48.9119 21.0313 48.6378 23.5046 47.4069 25.3628C45.6862 27.8772 42.4139 29.2584 39.4094 28.58C36.8093 27.9962 34.462 26.0133 33.7661 23.4057C33.5443 22.6615 33.4807 21.8808 33.5048 21.1077C33.589 17.9565 33.6316 14.8027 33.8007 11.6548Z" fill="#FDFDFD"/>
<path d="M23.5184 16.1562C25.0607 14.7501 27.4393 14.4759 29.3244 15.3135C30.7118 15.9094 31.7325 17.1293 32.3426 18.4787C32.8072 19.5156 32.9381 20.6621 32.9343 21.7877C32.9466 23.7715 33.0946 25.7555 33.0055 27.7393C32.0733 27.7594 31.1412 27.793 30.2089 27.7729C30.1718 27.4435 30.136 27.1143 30.1018 26.7853C28.6625 27.5553 26.9384 27.7811 25.3666 27.3049C23.768 26.7842 22.4775 25.4806 21.8685 23.9317C20.8193 21.3286 21.4208 18.0745 23.5184 16.1562Z" stroke="#FDFDFD" stroke-width="0.170631" stroke-miterlimit="10"/>
<path d="M23.5184 16.1562C25.0607 14.7501 27.4393 14.4759 29.3244 15.3135C30.7118 15.9094 31.7325 17.1293 32.3426 18.4787C32.8072 19.5156 32.9381 20.6621 32.9343 21.7877C32.9466 23.7715 33.0946 25.7555 33.0055 27.7393C32.0733 27.7594 31.1412 27.793 30.2089 27.7729C30.1718 27.4435 30.136 27.1143 30.1018 26.7852C28.6625 27.5553 26.9384 27.7811 25.3666 27.3049C23.768 26.7842 22.4775 25.4806 21.8685 23.9317C20.8193 21.3286 21.4208 18.0745 23.5184 16.1562Z" fill="#FDFDFD"/>
<path d="M51.0851 16.4958C52.8932 14.6761 55.9992 14.4283 58.1529 15.7657C59.6952 16.7635 60.4858 18.5425 60.8718 20.2728C60.1936 20.3109 59.5144 20.3084 58.8367 20.2757C58.3475 19.3332 57.7953 18.2589 56.7265 17.8772C55.6641 17.5762 54.4046 17.7055 53.5475 18.4467C52.7694 19.104 52.209 20.0689 52.2215 21.1055C52.2392 22.2276 52.5982 23.4329 53.4909 24.1743C54.4575 25.0029 55.9854 25.2283 57.0901 24.5451C57.9674 24.012 58.4255 23.0546 58.8486 22.1633C59.5403 22.1393 60.2328 22.1402 60.9251 22.1671C60.6716 23.6241 60.0961 25.0758 59.0376 26.1408C57.9583 27.2497 56.4056 27.9457 54.8411 27.8405C53.449 27.7915 52.1068 27.1612 51.1296 26.1825C48.5573 23.6636 48.4761 19.0171 51.0851 16.4958Z" stroke="#FDFDFD" stroke-width="0.170631" stroke-miterlimit="10"/>
<path d="M51.0851 16.4958C52.8932 14.6761 55.9992 14.4283 58.1529 15.7657C59.6952 16.7635 60.4858 18.5425 60.8718 20.2728C60.1936 20.3109 59.5144 20.3084 58.8367 20.2757C58.3475 19.3332 57.7953 18.2589 56.7265 17.8772C55.6641 17.5762 54.4046 17.7055 53.5475 18.4467C52.7694 19.104 52.209 20.0689 52.2215 21.1055C52.2392 22.2276 52.5982 23.4329 53.4909 24.1743C54.4575 25.0029 55.9854 25.2283 57.0901 24.5451C57.9674 24.012 58.4255 23.0546 58.8486 22.1633C59.5403 22.1393 60.2328 22.1402 60.9251 22.1671C60.6716 23.6241 60.0961 25.0758 59.0376 26.1408C57.9583 27.2497 56.4056 27.9457 54.8411 27.8405C53.449 27.7915 52.1068 27.1612 51.1296 26.1825C48.5573 23.6636 48.4761 19.0171 51.0851 16.4958Z" fill="#FDFDFD"/>
<path d="M26.1507 17.7462C27.2162 17.4923 28.3885 17.9982 28.9811 18.904C29.8526 20.2613 29.9927 22.1714 29.003 23.5055C28.4437 24.1587 27.6981 24.8272 26.7783 24.7939C25.7195 24.7299 24.6443 24.1759 24.1284 23.2265C23.3262 21.8193 23.4144 19.8975 24.4762 18.646C24.9132 18.1702 25.523 17.8777 26.1507 17.7462Z" stroke="#056EB0" stroke-width="0.170631" stroke-miterlimit="10"/>
<path d="M26.1507 17.7462C27.2162 17.4923 28.3885 17.9982 28.9811 18.904C29.8526 20.2613 29.9927 22.1714 29.003 23.5055C28.4437 24.1587 27.6981 24.8272 26.7783 24.7939C25.7195 24.7299 24.6443 24.1759 24.1284 23.2265C23.3262 21.8193 23.4144 19.8975 24.4762 18.646C24.9132 18.1702 25.523 17.8777 26.1507 17.7462Z" fill="#056EB0"/>
<path d="M39.7516 17.7489C40.7711 17.5347 41.8805 17.5451 42.8498 17.9601C43.8473 18.394 44.6341 19.2565 45.0253 20.2626C45.4618 21.482 45.2681 22.9363 44.4487 23.9551C43.4913 25.1304 41.9129 25.8311 40.3922 25.5747C38.5346 25.324 36.7959 23.7419 36.8022 21.7976C36.6405 19.9713 37.988 18.1949 39.7516 17.7489Z" stroke="#056EB0" stroke-width="0.170631" stroke-miterlimit="10"/>
<path d="M39.7516 17.7489C40.7711 17.5347 41.8805 17.5451 42.8498 17.9601C43.8473 18.394 44.6341 19.2565 45.0253 20.2626C45.4618 21.482 45.2681 22.9363 44.4487 23.9551C43.4913 25.1304 41.9129 25.8311 40.3922 25.5747C38.5346 25.324 36.7959 23.7419 36.8022 21.7976C36.6405 19.9713 37.988 18.1949 39.7516 17.7489Z" fill="#056EB0"/>
<path d="M26.8173 30.4211C28.1545 29.5797 29.8116 29.4276 31.3495 29.6287C34.1902 30.0364 36.6274 32.6212 36.6321 35.5163C36.6626 36.4138 36.2876 37.2479 36.1409 38.1179C36.1289 38.693 36.4582 39.2155 36.4745 39.7912C36.5104 40.6054 36.431 41.4197 36.4385 42.2347C37.0821 42.0223 37.7154 41.78 38.3589 41.5665C39.6709 41.1197 41.0823 41.1523 42.4491 41.2167C43.7111 41.2694 44.8729 41.7979 46.0533 42.1888C46.0666 39.4127 45.9024 36.6335 46.0504 33.8589C48.0278 33.6094 49.9999 33.3233 51.9748 33.0551C54.3677 32.8248 56.7354 32.3561 59.1399 32.2476C59.2518 32.709 59.3755 33.1697 59.4328 33.6424C59.3234 34.2571 59.3295 34.8822 59.4962 35.4871C60.6798 35.1455 61.8491 34.6964 63.0909 34.6186C64.317 34.5251 65.5462 34.1834 66.7766 34.4193C69.2743 34.6225 72.0523 35.5379 73.3249 37.8644C74.3212 39.7973 74.8518 41.9288 75.3547 44.0316C74.3452 44.3218 73.3235 44.5693 72.3215 44.8838C73.1421 45.3919 74.0969 45.671 74.8306 46.3189C77.0451 48.0059 77.8429 50.8843 78.0859 53.5294C77.9492 55.0179 77.9278 56.5918 77.189 57.938C76.7422 58.9184 75.8732 59.6015 75.1134 60.3321C72.715 62.2714 69.7343 63.309 66.766 64.0225C65.1391 64.4157 63.4534 64.6528 61.7811 64.4423C61.1391 64.3449 60.4899 64.3189 59.842 64.324C60.0034 65.2299 60.0444 66.1513 60.1952 67.0593C55.8415 67.0973 51.4868 67.0744 47.1329 67.0714C47.0503 66.8017 46.9687 66.5328 46.8904 66.2636C45.0184 67.3108 42.8597 67.8183 40.7175 67.7664C38.154 67.5873 35.5938 66.7362 33.6015 65.0848C32.3901 64.2162 31.5649 62.9542 30.7077 61.764C30.417 61.7644 30.1266 61.7632 29.8367 61.763C30.2242 62.6662 30.6278 63.5642 30.9435 64.4963C26.0802 64.5053 21.2161 64.5225 16.3531 64.4877C16.2363 64.1827 16.1135 63.8811 15.9806 63.584C15.9441 63.8893 15.9138 64.1963 15.8839 64.504C11.48 64.5043 7.07606 64.5095 2.6722 64.5016C2.66 53.526 2.66369 42.5501 2.66925 31.5745C7.029 31.5714 11.3889 31.5655 15.7486 31.5782C15.7506 32.1164 15.7562 32.655 15.7861 33.1931C16.0788 32.6229 16.3128 32.0247 16.5124 31.4167C18.1669 31.3896 19.8221 31.3932 21.4767 31.4043C22.5581 31.4302 23.6409 31.5264 24.7225 31.4596C25.5472 31.4357 26.1447 30.8088 26.8173 30.4211Z" stroke="#1C1C1C" stroke-width="0.170631" stroke-miterlimit="10"/>
<path d="M26.8173 30.4211C28.1545 29.5797 29.8116 29.4276 31.3495 29.6287C34.1902 30.0364 36.6274 32.6212 36.6321 35.5163C36.6626 36.4138 36.2876 37.2479 36.1409 38.1179C36.1289 38.693 36.4582 39.2155 36.4745 39.7912C36.5104 40.6054 36.431 41.4197 36.4385 42.2347C37.0821 42.0223 37.7154 41.78 38.3589 41.5665C39.6709 41.1197 41.0823 41.1523 42.4491 41.2167C43.7111 41.2694 44.8729 41.7979 46.0533 42.1888C46.0666 39.4127 45.9024 36.6335 46.0504 33.8589C48.0278 33.6094 49.9999 33.3233 51.9748 33.0551C54.3677 32.8248 56.7354 32.3561 59.1399 32.2476C59.2518 32.709 59.3755 33.1697 59.4328 33.6424C59.3234 34.2571 59.3295 34.8822 59.4962 35.4871C60.6798 35.1455 61.8491 34.6964 63.0909 34.6186C64.317 34.5251 65.5462 34.1834 66.7766 34.4193C69.2743 34.6225 72.0523 35.5379 73.3249 37.8644C74.3212 39.7973 74.8518 41.9288 75.3547 44.0316C74.3452 44.3218 73.3235 44.5693 72.3215 44.8838C73.1421 45.3919 74.0969 45.671 74.8307 46.3189C77.0451 48.0059 77.8429 50.8843 78.0859 53.5294C77.9492 55.0179 77.9278 56.5918 77.189 57.938C76.7422 58.9184 75.8732 59.6015 75.1134 60.3321C72.715 62.2714 69.7343 63.309 66.766 64.0225C65.1391 64.4157 63.4534 64.6528 61.7811 64.4423C61.1391 64.3449 60.4899 64.3189 59.842 64.324C60.0034 65.2299 60.0444 66.1513 60.1952 67.0593C55.8415 67.0973 51.4869 67.0744 47.1329 67.0714C47.0503 66.8017 46.9687 66.5328 46.8904 66.2636C45.0184 67.3108 42.8597 67.8183 40.7175 67.7664C38.154 67.5873 35.5938 66.7362 33.6015 65.0848C32.3901 64.2162 31.5649 62.9542 30.7077 61.764C30.417 61.7644 30.1266 61.7632 29.8367 61.763C30.2242 62.6662 30.6278 63.5642 30.9435 64.4963C26.0802 64.5053 21.2162 64.5225 16.3531 64.4877C16.2363 64.1828 16.1135 63.8811 15.9806 63.584C15.9441 63.8893 15.9138 64.1963 15.8839 64.504C11.48 64.5043 7.07606 64.5095 2.6722 64.5016C2.66 53.526 2.66369 42.5501 2.66925 31.5745C7.029 31.5714 11.3889 31.5655 15.7486 31.5782C15.7506 32.1164 15.7562 32.655 15.786 33.1931C16.0788 32.6229 16.3128 32.0247 16.5124 31.4167C18.1669 31.3896 19.8221 31.3932 21.4767 31.4043C22.5581 31.4302 23.6409 31.5264 24.7225 31.4596C25.5472 31.4357 26.1447 30.8088 26.8173 30.4211Z" fill="#1C1C1C"/>
<path d="M27.0381 31.4949C28.5522 30.3635 30.6817 30.1946 32.3979 30.9549C34.5927 31.9358 36.0499 34.5258 35.3986 36.8953C35.1835 37.9849 34.4929 38.8743 33.8251 39.7288C34.3405 39.6841 34.8561 39.6389 35.3721 39.5968C35.4316 41.1612 35.291 42.7252 35.3644 44.2895C37.2054 43.0932 39.3723 42.3328 41.5905 42.4171C43.5627 42.3707 45.4494 43.0986 47.119 44.0912C47.1783 40.9766 47.1226 37.861 47.1457 34.746C50.8842 34.32 54.6121 33.8019 58.3492 33.3623C58.4053 34.6041 58.3971 35.8477 58.4445 37.0899C60.604 36.2961 62.8837 35.8221 65.1787 35.6595C67.0371 35.589 69.1072 35.5693 70.6567 36.7536C72.7674 38.3504 73.6717 41.0208 73.9916 43.5485C71.7932 44.1338 69.5719 44.6314 67.3769 45.2284C69.1695 45.6332 71.1071 45.5919 72.7511 46.5082C74.72 47.5187 76.1041 49.4662 76.5862 51.6008C77.1097 53.6567 77.1249 56.0268 75.8704 57.8331C74.3369 59.9185 71.9321 61.1414 69.5337 61.9721C67.0063 62.7611 64.4089 63.6309 61.723 63.4621C60.6007 63.4035 59.5639 62.9288 58.5744 62.4373C58.6628 63.6355 58.8128 64.8281 58.9436 66.0225C55.3421 66.0687 51.7394 66.0507 48.1377 66.0334C47.9901 65.5257 47.8456 65.0176 47.7037 64.5092C45.7056 65.989 43.2335 66.9148 40.7185 66.721C37.0405 66.5026 33.7613 64.0493 32.0809 60.852C30.8476 60.8028 29.6125 60.8045 28.3793 60.8484C28.6501 61.7173 29.0171 62.5516 29.3377 63.4029C25.2357 63.3856 21.1338 63.4046 17.0319 63.3944C16.3166 61.2834 15.7108 59.1318 14.8994 57.0556C14.7722 59.2338 14.8816 61.4187 14.8444 63.5999C11.0764 63.6056 7.30846 63.5942 3.54049 63.6057C3.51681 53.2267 3.51926 42.847 3.53881 32.468C7.22389 32.4748 10.909 32.4731 14.5942 32.4697C14.678 34.6943 14.5961 36.9216 14.6339 39.1473C15.5105 36.9352 16.3471 34.7066 17.2157 32.4909C19.2535 32.4877 21.2915 32.5452 23.3301 32.5208C24.1933 32.4905 25.0728 32.6125 25.9249 32.4408C26.3544 32.2016 26.644 31.7829 27.0381 31.4949Z" stroke="#FDFDFD" stroke-width="0.170631" stroke-miterlimit="10"/>
<path d="M27.0381 31.4949C28.5522 30.3635 30.6817 30.1946 32.3979 30.9549C34.5927 31.9358 36.0499 34.5258 35.3986 36.8953C35.1835 37.9849 34.4929 38.8743 33.8251 39.7288C34.3405 39.6841 34.8561 39.6389 35.3721 39.5968C35.4316 41.1612 35.291 42.7252 35.3644 44.2895C37.2054 43.0932 39.3723 42.3328 41.5905 42.4171C43.5627 42.3707 45.4494 43.0986 47.119 44.0912C47.1783 40.9766 47.1226 37.861 47.1457 34.746C50.8842 34.32 54.6121 33.8019 58.3492 33.3623C58.4053 34.6041 58.3971 35.8477 58.4445 37.0899C60.604 36.2961 62.8837 35.8221 65.1787 35.6595C67.0371 35.589 69.1072 35.5693 70.6567 36.7536C72.7674 38.3504 73.6717 41.0208 73.9916 43.5485C71.7932 44.1338 69.5719 44.6314 67.3769 45.2284C69.1695 45.6332 71.1071 45.5919 72.7511 46.5082C74.72 47.5187 76.1041 49.4662 76.5862 51.6008C77.1097 53.6567 77.1249 56.0268 75.8704 57.8331C74.3369 59.9185 71.9321 61.1414 69.5337 61.9721C67.0063 62.7611 64.4089 63.6309 61.723 63.4621C60.6007 63.4035 59.5639 62.9288 58.5744 62.4373C58.6628 63.6355 58.8128 64.8281 58.9436 66.0225C55.3421 66.0687 51.7394 66.0507 48.1377 66.0334C47.9901 65.5257 47.8456 65.0176 47.7037 64.5092C45.7056 65.989 43.2335 66.9148 40.7185 66.721C37.0405 66.5026 33.7613 64.0493 32.0809 60.852C30.8476 60.8028 29.6125 60.8045 28.3793 60.8484C28.6501 61.7173 29.0171 62.5516 29.3377 63.4029C25.2357 63.3856 21.1338 63.4046 17.0319 63.3944C16.3166 61.2834 15.7108 59.1318 14.8994 57.0556C14.7722 59.2338 14.8816 61.4187 14.8444 63.5999C11.0764 63.6056 7.30846 63.5942 3.54049 63.6057C3.51681 53.2267 3.51926 42.847 3.53881 32.468C7.22389 32.4748 10.909 32.4731 14.5942 32.4697C14.678 34.6943 14.5961 36.9216 14.6339 39.1473C15.5105 36.9352 16.3471 34.7066 17.2157 32.4909C19.2535 32.4877 21.2915 32.5452 23.3301 32.5208C24.1933 32.4905 25.0728 32.6125 25.9249 32.4408C26.3544 32.2016 26.644 31.7829 27.0381 31.4949Z" fill="#FDFDFD"/>
<path d="M28.906 31.8336C29.7933 31.5998 30.7492 31.6313 31.6264 31.8952C33.4325 32.4976 34.6969 34.4748 34.353 36.3654C34.0378 38.3758 32.0679 39.9254 30.0431 39.8655C27.9774 39.8372 26.0385 38.1122 25.9172 36.0311C25.7717 34.1753 27.0915 32.3012 28.906 31.8336Z" stroke="#FA0000" stroke-width="0.170631" stroke-miterlimit="10"/>
<path d="M28.906 31.8336C29.7933 31.5998 30.7492 31.6313 31.6264 31.8952C33.4325 32.4976 34.6969 34.4748 34.353 36.3654C34.0378 38.3758 32.0679 39.9254 30.0431 39.8655C27.9774 39.8372 26.0385 38.1122 25.9172 36.0311C25.7717 34.1753 27.0915 32.3012 28.906 31.8336Z" fill="#FA0000"/>
<path d="M18.1989 33.6128C20.5374 33.5422 22.8795 33.5614 25.2187 33.5972C25.0286 34.3911 24.7467 35.2012 24.8866 36.028C24.9639 36.72 25.2467 37.4526 24.8999 38.1186C23.8181 40.6297 22.7387 43.1428 21.6278 45.6413C21.3205 46.249 21.5046 46.9414 21.7655 47.5286C22.8406 49.9484 23.7148 52.4496 24.7257 54.896C25.041 55.5985 24.9754 56.3812 24.975 57.1303C24.968 58.3493 24.9487 59.5691 25.0009 60.7878C25.6931 60.8138 26.3861 60.8197 27.079 60.8067C27.2918 61.3338 27.4792 61.871 27.6356 62.4182C25.3417 62.539 23.0424 62.4438 20.7463 62.4745C19.7828 62.4825 18.8184 62.4864 17.8574 62.4093C16.7418 58.9806 15.6859 55.533 14.5965 52.0961C14.321 51.2472 14.1142 50.3724 13.7235 49.5653C13.6616 49.8474 13.6056 50.132 13.592 50.422C13.5689 54.4231 13.6405 58.4268 13.5598 62.4274C12.1105 62.5157 10.6581 62.456 9.20726 62.4725C7.72526 62.4554 6.24122 62.52 4.76122 62.4193C4.70982 61.6861 4.6912 60.9514 4.69978 60.2172C4.73955 51.3974 4.61455 42.5775 4.6964 33.7581C7.6443 33.7013 10.5956 33.7098 13.5438 33.7558C13.6297 37.5037 13.4729 41.2574 13.6253 45.0026C14.1693 44.1737 14.4231 43.2068 14.7979 42.2998C15.9419 39.4081 17.0616 36.5068 18.1989 33.6128Z" stroke="#FA0000" stroke-width="0.170631" stroke-miterlimit="10"/>
<path d="M18.1989 33.6128C20.5374 33.5422 22.8795 33.5614 25.2187 33.5972C25.0286 34.3911 24.7467 35.2012 24.8866 36.028C24.9639 36.72 25.2467 37.4526 24.8999 38.1186C23.8181 40.6297 22.7387 43.1428 21.6278 45.6413C21.3205 46.249 21.5046 46.9414 21.7655 47.5286C22.8406 49.9484 23.7148 52.4496 24.7257 54.896C25.041 55.5985 24.9754 56.3812 24.975 57.1303C24.968 58.3493 24.9487 59.5691 25.0009 60.7878C25.6931 60.8138 26.3861 60.8197 27.079 60.8067C27.2918 61.3338 27.4792 61.871 27.6356 62.4182C25.3417 62.539 23.0424 62.4438 20.7463 62.4745C19.7828 62.4825 18.8184 62.4864 17.8574 62.4093C16.7418 58.9806 15.6859 55.533 14.5965 52.0961C14.321 51.2472 14.1142 50.3724 13.7235 49.5653C13.6616 49.8474 13.6056 50.132 13.592 50.422C13.5689 54.4231 13.6405 58.4268 13.5598 62.4274C12.1105 62.5157 10.6581 62.456 9.20726 62.4725C7.72526 62.4554 6.24122 62.52 4.76122 62.4193C4.70982 61.6861 4.6912 60.9514 4.69978 60.2172C4.73955 51.3974 4.61455 42.5775 4.6964 33.7581C7.6443 33.7013 10.5956 33.7098 13.5438 33.7558C13.6297 37.5037 13.4729 41.2574 13.6253 45.0026C14.1693 44.1737 14.4231 43.2068 14.7979 42.2998C15.9419 39.4081 17.0616 36.5068 18.1989 33.6128Z" fill="#FA0000"/>
<path d="M54.7237 34.8805C55.5382 34.7581 56.3602 34.6899 57.1844 34.6799C57.179 35.7354 57.2205 36.7909 57.1914 37.8466C55.3636 38.9759 53.618 40.5967 53.166 42.778C52.6384 45.5872 53.2841 48.7273 55.3256 50.8188C55.8481 51.4058 56.5714 51.7476 57.1624 52.252C57.3869 52.801 57.2467 53.414 57.227 53.9886C55.8635 54.4194 54.4742 54.7663 53.1247 55.2407C54.0523 57.004 55.1326 58.6892 56.3532 60.2658C56.7321 60.774 57.282 61.2264 57.3425 61.8991C57.4946 62.9279 57.5925 63.9648 57.6575 65.003C56.2624 65.0693 54.8659 65.0265 53.4703 65.0358C52.1225 65.0248 50.7726 65.0821 49.4278 64.9707C49.1587 63.8425 48.8655 62.7203 48.5726 61.5984C47.9596 62.3286 47.3861 63.1093 46.6132 63.6845C45.0999 64.8699 43.152 65.412 41.242 65.3792C38.6313 65.4384 36.0181 64.2845 34.3183 62.3086C32.3512 60.12 31.5749 57.0932 31.6494 54.2067C31.6627 51.1269 32.9247 48.0645 35.1333 45.9023C36.693 44.3604 38.8703 43.4742 41.0639 43.4464C42.8371 43.3895 44.6048 43.9583 46.0718 44.9373C46.9743 45.538 47.7054 46.347 48.4109 47.1594C48.3652 44.7083 48.4027 42.2565 48.3911 39.8053C48.4087 38.4278 48.3413 37.0485 48.4401 35.6731C50.5346 35.4088 52.6295 35.1477 54.7237 34.8805Z" stroke="#FA0000" stroke-width="0.170631" stroke-miterlimit="10"/>
<path d="M54.7237 34.8805C55.5382 34.7581 56.3602 34.6899 57.1844 34.6799C57.179 35.7354 57.2205 36.7909 57.1914 37.8466C55.3636 38.9759 53.618 40.5967 53.166 42.778C52.6384 45.5872 53.2841 48.7273 55.3256 50.8188C55.8481 51.4058 56.5714 51.7476 57.1624 52.252C57.3869 52.801 57.2467 53.414 57.227 53.9886C55.8635 54.4194 54.4742 54.7663 53.1247 55.2407C54.0523 57.004 55.1326 58.6892 56.3532 60.2658C56.7321 60.774 57.282 61.2264 57.3425 61.8991C57.4946 62.9279 57.5925 63.9648 57.6575 65.003C56.2624 65.0693 54.8659 65.0265 53.4703 65.0358C52.1225 65.0248 50.7726 65.0821 49.4278 64.9707C49.1587 63.8425 48.8655 62.7203 48.5726 61.5984C47.9596 62.3286 47.3861 63.1093 46.6132 63.6845C45.0999 64.8699 43.152 65.412 41.242 65.3792C38.6313 65.4384 36.0181 64.2845 34.3183 62.3086C32.3512 60.12 31.5749 57.0932 31.6494 54.2067C31.6627 51.1269 32.9247 48.0645 35.1333 45.9023C36.693 44.3604 38.8703 43.4742 41.0639 43.4464C42.8371 43.3895 44.6048 43.9583 46.0718 44.9373C46.9743 45.538 47.7054 46.347 48.4109 47.1594C48.3652 44.7083 48.4027 42.2565 48.3911 39.8053C48.4087 38.4278 48.3413 37.0485 48.4401 35.6731C50.5346 35.4088 52.6295 35.1477 54.7237 34.8805Z" fill="#FA0000"/>
<path d="M62.2364 37.2244C64.1433 36.859 66.1166 36.675 68.0455 36.9699C69.286 37.1491 70.3005 37.9738 71.0948 38.8914C72.0242 40.0146 72.4469 41.4526 72.7041 42.8613C70.041 43.5545 67.3893 44.2994 64.7114 44.9304C64.4654 44.1756 64.2948 43.3988 64.0402 42.6474C63.9139 42.3401 63.7854 41.9551 63.4303 41.8504C62.7065 41.6518 61.7569 41.8028 61.3597 42.5052C60.9917 43.1334 61.19 43.9068 61.481 44.5238C61.8484 45.2699 62.6536 45.6784 63.4375 45.8487C65.1016 46.2021 66.8035 46.3281 68.4773 46.6285C69.8335 46.8713 71.265 46.9423 72.5019 47.6078C74.0578 48.4799 75.1814 50.0421 75.5722 51.7724C76.0241 53.6297 76.1366 55.8008 74.9308 57.4111C73.4883 59.1863 71.3708 60.2538 69.2449 60.9982C66.6487 61.798 63.9808 62.7323 61.2201 62.4675C59.6906 62.3246 58.4442 61.2849 57.4712 60.1769C56.3629 58.8693 55.3001 57.4711 54.6661 55.8681C57.187 55.1452 59.7014 54.4001 62.212 53.6425C62.6638 53.5073 63.1258 53.4093 63.589 53.3185C63.9313 54.3772 64.1284 55.4914 64.624 56.4956C65.1005 57.6727 67.131 57.5504 67.4996 56.3464C67.7439 55.518 67.3048 54.6916 67.0033 53.9381C66.6806 53.1125 65.7824 52.7415 64.963 52.6156C63.7002 52.4355 62.4316 52.2971 61.1745 52.0796C60.1819 51.9057 59.1552 51.8936 58.1935 51.5717C56.9783 51.1371 55.844 50.3463 55.2287 49.1903C54.2474 47.4128 53.8214 45.3155 54.0691 43.2997C54.2473 41.8008 55.2247 40.531 56.3792 39.6143C58.0484 38.2682 60.1526 37.6045 62.2364 37.2244Z" stroke="#FA0000" stroke-width="0.170631" stroke-miterlimit="10"/>
<path d="M62.2364 37.2244C64.1433 36.859 66.1166 36.675 68.0455 36.9699C69.286 37.1491 70.3005 37.9738 71.0948 38.8914C72.0242 40.0146 72.4469 41.4526 72.7041 42.8613C70.041 43.5545 67.3893 44.2994 64.7114 44.9304C64.4654 44.1756 64.2948 43.3988 64.0402 42.6474C63.9139 42.3401 63.7854 41.9551 63.4303 41.8504C62.7065 41.6518 61.7569 41.8028 61.3597 42.5052C60.9917 43.1334 61.19 43.9068 61.481 44.5238C61.8484 45.2699 62.6536 45.6784 63.4375 45.8487C65.1016 46.2021 66.8035 46.3281 68.4773 46.6285C69.8335 46.8713 71.265 46.9423 72.5019 47.6078C74.0578 48.4799 75.1814 50.0421 75.5722 51.7724C76.0241 53.6297 76.1366 55.8008 74.9307 57.4111C73.4883 59.1863 71.3708 60.2538 69.2449 60.9982C66.6487 61.798 63.9808 62.7323 61.2201 62.4675C59.6906 62.3246 58.4442 61.2849 57.4712 60.1769C56.3629 58.8693 55.3001 57.4711 54.6661 55.8681C57.187 55.1452 59.7014 54.4001 62.212 53.6425C62.6638 53.5073 63.1258 53.4093 63.589 53.3185C63.9313 54.3772 64.1284 55.4914 64.624 56.4956C65.1005 57.6727 67.131 57.5504 67.4996 56.3464C67.7439 55.518 67.3048 54.6916 67.0033 53.9381C66.6806 53.1125 65.7824 52.7415 64.963 52.6156C63.7002 52.4355 62.4316 52.2971 61.1745 52.0796C60.1819 51.9057 59.1552 51.8936 58.1935 51.5717C56.9783 51.1371 55.844 50.3463 55.2287 49.1903C54.2474 47.4128 53.8214 45.3155 54.0691 43.2997C54.2473 41.8008 55.2247 40.531 56.3792 39.6143C58.0484 38.2682 60.1526 37.6045 62.2364 37.2244Z" fill="#FA0000"/>
<path d="M25.7566 38.8861C26.3534 39.4658 27.0062 39.9822 27.6775 40.4734C26.8257 40.5962 25.9688 40.6858 25.1234 40.8488C25.11 44.6442 25.1195 48.4415 25.0199 52.236C24.2481 50.5902 23.6964 48.853 22.9781 47.1843C22.7965 46.6803 22.4562 46.1155 22.7657 45.5906C23.7765 43.362 24.7393 41.1118 25.7566 38.8861Z" stroke="#1C1C1C" stroke-width="0.170631" stroke-miterlimit="10"/>
<path d="M25.7566 38.8861C26.3534 39.4658 27.0062 39.9822 27.6775 40.4734C26.8257 40.5962 25.9688 40.6858 25.1234 40.8488C25.11 44.6442 25.1195 48.4415 25.0199 52.236C24.2481 50.5902 23.6964 48.853 22.9781 47.1843C22.7965 46.6803 22.4562 46.1155 22.7657 45.5906C23.7765 43.362 24.7393 41.1118 25.7566 38.8861Z" fill="#1C1C1C"/>
<path d="M26.1606 41.7724C28.8365 41.4668 31.5017 41.0554 34.1881 40.8494C34.2609 42.2193 34.2349 43.5925 34.2343 44.9638C34.2789 45.442 33.8997 45.7743 33.6173 46.1041C31.7701 48.122 30.7755 50.8153 30.5777 53.5177C30.352 55.6375 30.8503 57.7443 31.4902 59.752C29.7146 59.7899 27.9335 59.8361 26.1602 59.723C26.178 53.7395 26.1782 47.7558 26.1606 41.7724Z" stroke="#FA0000" stroke-width="0.170631" stroke-miterlimit="10"/>
<path d="M26.1606 41.7724C28.8365 41.4668 31.5017 41.0554 34.1881 40.8494C34.2609 42.2193 34.2349 43.5925 34.2343 44.9638C34.2789 45.442 33.8997 45.7743 33.6173 46.1041C31.7701 48.122 30.7755 50.8153 30.5777 53.5177C30.352 55.6375 30.8503 57.7443 31.4902 59.752C29.7146 59.7899 27.9335 59.8361 26.1602 59.723C26.178 53.7395 26.1782 47.7558 26.1606 41.7724Z" fill="#FA0000"/>
<path d="M62.221 43.5928C61.9771 43.1019 62.5141 42.6577 62.9912 42.7594C63.1758 43.3999 63.3601 44.0414 63.4894 44.6963C62.892 44.5714 62.3411 44.2308 62.221 43.5928Z" stroke="#1C1C1C" stroke-width="0.170631" stroke-miterlimit="10"/>
<path d="M62.221 43.5928C61.9771 43.1019 62.5141 42.6577 62.9912 42.7594C63.1758 43.3999 63.3601 44.0414 63.4894 44.6963C62.892 44.5714 62.3411 44.2308 62.221 43.5928Z" fill="#1C1C1C"/>
<path d="M43.8873 48.429C45.0223 48.0471 46.3327 48.5241 47.0143 49.4901C48.0524 50.9527 48.2825 52.8123 48.3528 54.5576C48.3391 56.1613 48.2106 57.9378 47.1365 59.2239C45.994 60.6354 43.52 60.7099 42.3873 59.2514C41.2467 57.7838 41.021 55.841 41.0156 54.042C41.0314 52.6347 41.1529 51.1402 41.9237 49.9191C42.3692 49.2059 43.0667 48.6474 43.8873 48.429Z" stroke="#FDFDFD" stroke-width="0.170631" stroke-miterlimit="10"/>
<path d="M43.8873 48.429C45.0223 48.0471 46.3327 48.5241 47.0143 49.4901C48.0524 50.9527 48.2825 52.8123 48.3528 54.5576C48.3391 56.1613 48.2106 57.9378 47.1365 59.2239C45.994 60.6354 43.52 60.7099 42.3873 59.2514C41.2467 57.7838 41.021 55.841 41.0156 54.042C41.0314 52.6347 41.1529 51.1402 41.9237 49.9191C42.3692 49.2059 43.0667 48.6474 43.8873 48.429Z" fill="#FDFDFD"/>
<path d="M44.2391 49.4801C45.0773 49.2879 45.9253 49.7945 46.3393 50.507C47.1344 51.8812 47.346 53.515 47.2438 55.0776C47.1698 56.1107 47.0061 57.1703 46.5055 58.0924C46.17 58.7177 45.5552 59.2248 44.8358 59.3155C44.0841 59.3934 43.3883 58.9087 42.9703 58.3227C42.3471 57.361 42.146 56.1977 42.0806 55.0737C41.9741 53.5718 42.1907 52.0284 42.8244 50.6545C43.0854 50.0767 43.6084 49.6091 44.2391 49.4801Z" stroke="#1C1C1C" stroke-width="0.170631" stroke-miterlimit="10"/>
<path d="M44.2391 49.4801C45.0773 49.2879 45.9253 49.7945 46.3393 50.507C47.1344 51.8812 47.346 53.515 47.2438 55.0776C47.1698 56.1107 47.0061 57.1703 46.5055 58.0924C46.17 58.7177 45.5552 59.2248 44.8358 59.3155C44.0841 59.3934 43.3883 58.9087 42.9703 58.3227C42.3471 57.361 42.146 56.1977 42.0806 55.0737C41.9741 53.5718 42.1907 52.0284 42.8244 50.6545C43.0854 50.0767 43.6084 49.6091 44.2391 49.4801Z" fill="#1C1C1C"/>
<path d="M44.4169 50.4781C45.0151 50.2289 45.462 50.8799 45.6563 51.3555C46.2597 53.1392 46.1692 55.0998 45.6465 56.8917C45.4882 57.387 45.046 57.703 44.6915 58.055C44.2116 57.7712 43.7521 57.4027 43.5958 56.8439C43.072 55.1804 43.0464 53.3708 43.5248 51.6937C43.6585 51.1945 43.9839 50.7598 44.4169 50.4781Z" stroke="#FDFDFD" stroke-width="0.170631" stroke-miterlimit="10"/>
<path d="M44.4169 50.4781C45.0151 50.2289 45.462 50.8799 45.6563 51.3555C46.2597 53.1392 46.1692 55.0998 45.6465 56.8917C45.4882 57.387 45.046 57.703 44.6915 58.055C44.2116 57.7712 43.7521 57.4027 43.5958 56.8439C43.072 55.1804 43.0464 53.3708 43.5248 51.6937C43.6585 51.1945 43.9839 50.7598 44.4169 50.4781Z" fill="#FDFDFD"/>
<path d="M58.5977 52.7811C59.084 52.8611 59.5689 52.9533 60.0493 53.0677C59.5889 53.2606 59.1145 53.4164 58.6376 53.5619C58.6227 53.301 58.6094 53.0408 58.5977 52.7811Z" stroke="#1C1C1C" stroke-width="0.170631" stroke-miterlimit="10"/>
<path d="M58.5977 52.7811C59.084 52.8611 59.5689 52.9533 60.0493 53.0677C59.5889 53.2606 59.1145 53.4164 58.6376 53.5619C58.6227 53.301 58.6094 53.0408 58.5977 52.7811Z" fill="#1C1C1C"/>
<path d="M64.9062 53.8301C65.2476 53.9598 65.7499 53.9239 65.9288 54.3053C66.236 54.8962 66.4344 55.5417 66.5237 56.2013C66.2221 56.2145 65.9188 56.242 65.6201 56.196C65.1719 55.4903 65.0316 54.6415 64.9062 53.8301Z" stroke="#1C1C1C" stroke-width="0.170631" stroke-miterlimit="10"/>
<path d="M64.9062 53.8301C65.2476 53.9598 65.7499 53.9239 65.9288 54.3053C66.236 54.8962 66.4344 55.5417 66.5237 56.2013C66.2221 56.2145 65.9188 56.242 65.6201 56.196C65.1719 55.4903 65.0316 54.6415 64.9062 53.8301Z" fill="#1C1C1C"/>
</g>
<defs>
<clipPath id="clip0_518_630">
<rect width="81.8222" height="70" fill="white" transform="translate(0.417969 0.859863)"/>
</clipPath>
</defs>
</svg>
