<svg width="191" height="85" viewBox="0 0 191 85" fill="none" xmlns="http://www.w3.org/2000/svg">
<g clip-path="url(#clip0_518_721)">
<path d="M17.2601 27.9725L9.89583 49.6845H24.434L17.2601 27.9725ZM23.7294 65.6935V64.7319H29.4323L24.7577 50.6413H9.51501L4.71181 64.7319H8.87712V65.6935H0.417969V64.7319H3.62169L19.6974 18.2994L35.259 64.7319H39.5481V65.6935H23.7294Z" fill="#231F20"/>
<path d="M81.7639 0.000366211H81.3164V84.6109H81.7639V0.000366211Z" fill="#231F20"/>
<path d="M42.2656 58.5624C42.2656 58.1006 42.3656 57.5532 42.3656 57.5532H50.2678C50.2678 57.5532 47.6591 59.6573 47.7305 62.0327C47.8019 64.3081 49.2824 64.9746 50.5582 64.9746C53.0859 64.9746 55.9136 63.6798 55.9136 60.1095V19.2561H52.1434V18.2946H65.1106V19.2561H61.3404V54.0924C61.3404 61.8328 58.0462 65.9695 50.3106 65.9695C46.1025 65.9695 42.2656 64.0035 42.2656 58.5672" fill="#231F20"/>
<path d="M153.94 31.8847L157.334 21.8689L160.643 31.8847H153.935M118.199 28.0145V18.7651H119.828C122.455 18.7651 124.231 20.4789 124.231 23.6112C124.231 25.3249 122.898 28.0145 120.094 28.0145H118.204H118.199ZM100.581 31.8847L103.98 21.8689L107.289 31.8847H100.581ZM190.414 18.7651V18.3224H179.841V18.7651H181.526V34.6314L171.211 18.3224H166.784V18.7651H168.469V38.8253H165.641L158.463 17.4037L151.051 38.8253H148.161V18.7651H149.846V18.3224H145.714L140.011 35.0456L134.042 18.3224H129.967V18.7651H131.652V38.8253H128.558C127.496 38.8253 126.64 37.878 126.64 36.4023V33.2985C126.64 30.7279 125.721 28.6572 122.855 28.2144C125.25 27.8907 126.992 25.7629 126.992 23.4874C126.992 20.5598 124.835 18.3177 120.518 18.3177H114.139V18.7604H115.824V38.8205H112.301L105.123 17.3989L97.7062 38.8205H96.2305V39.2632H100.129V38.8205H98.206L100.424 32.3226H107.455L109.612 38.8205H106.984V39.2632H120.822V38.8205H118.219V28.4525H120.108C122.736 28.4525 124.098 29.4569 124.098 32.0846V33.9174C124.098 38.2921 126.873 39.2632 128.349 39.2632H133.899V38.8205H132.095V20.2742L139.097 39.5108L145.776 19.6553V38.83H144.096V39.2728H153.483V38.83H151.56L153.778 32.3322H160.809L162.966 38.83H160.338V39.2728H170.587V38.83H168.931V19.4459L181.993 39.982V18.7651H186.363V38.8253H184.678V39.268H190.443V38.8253H188.757V18.7651H190.443" fill="#231F20"/>
<path d="M131.109 50.174C131.109 47.2464 130.219 45.1804 126.678 45.1804H121.746V54.901H123.25C125.554 54.901 126.649 53.7205 126.649 51.683H127.063V58.5379H126.649C126.649 56.5291 125.554 55.3199 123.25 55.3199H121.746V65.2453H125.202C130.367 65.2453 131.109 62.7651 131.109 59.6614H131.524V65.688H117.523V65.2453H119.356V45.1851H117.523V44.7424H131.524V50.1788H131.109" fill="#231F20"/>
<path d="M136.746 58.3006L140.145 48.2848L143.453 58.3006H136.746ZM163.033 44.7383V45.181H164.718V61.0473L154.407 44.7383H149.975V45.181H151.66V65.2412H148.442L141.263 43.8243L133.847 65.2412H132.371V65.6839H136.27V65.2412H134.351L136.565 58.7433H143.596L145.757 65.2412H143.125V65.6839H153.755V65.2412H152.103V45.8618L165.165 66.3979V45.1858H166.85V44.7431H163.037" fill="#231F20"/>
<path d="M173.749 66.1884C172.687 66.1884 171.826 65.8933 171.121 65.5648C170.559 65.3315 169.969 64.7984 169.022 64.7984C168.284 64.7984 167.87 65.5648 167.755 66.1265H167.398V59.4811H167.779C167.779 61.2233 168.755 63.1751 170.407 64.5318C171.326 65.2696 172.478 65.7409 173.749 65.7409C176.881 65.7409 178.561 63.613 178.561 61.7232C178.561 58.1482 176.438 57.2008 172.473 56.1393C169.55 55.3443 167.751 53.2736 167.751 50.2888C167.751 46.6852 170.407 44.2336 173.154 44.2336C175.605 44.2336 176.553 45.7665 177.409 45.7665C178.209 45.7665 178.323 44.9715 178.381 44.643H178.738V50.4935H178.381C178.381 47.6849 176.138 44.6716 173.154 44.6716C170.997 44.6716 169.079 46.1759 169.079 48.6322C169.079 51.0886 170.793 52.5881 174.334 53.5639C178 54.5969 179.923 55.7823 179.923 59.6239C179.923 62.3135 178.328 66.1836 173.749 66.1836" fill="#231F20"/>
<path d="M106.688 62.708C106.688 62.5033 106.73 62.2605 106.73 62.2605H110.253C110.253 62.2605 109.091 63.1983 109.125 64.2599C109.153 65.2738 109.815 65.5737 110.386 65.5737C111.514 65.5737 112.776 64.9977 112.776 63.403V45.1851H111.096V44.7424H116.884V45.1851H115.199V60.7182C115.199 64.1742 113.733 66.0165 110.277 66.0165C108.401 66.0165 106.688 65.1358 106.688 62.7128" fill="#231F20"/>
</g>
<defs>
<clipPath id="clip0_518_721">
<rect width="190" height="84.6105" fill="white" transform="translate(0.417969)"/>
</clipPath>
</defs>
</svg>
