<svg width="191" height="39" viewBox="0 0 191 39" fill="none" xmlns="http://www.w3.org/2000/svg">
<g clip-path="url(#clip0_518_535)">
<path d="M24.6512 26.6666C24.0533 28.0527 23.2379 29.2667 22.2051 30.2996C21.1723 31.3324 19.9583 32.1477 18.5812 32.7366C17.2041 33.3255 15.7274 33.6245 14.1601 33.6245C13.0004 33.6245 11.877 33.4523 10.808 33.1171C9.72988 32.7729 8.75143 32.3017 7.85452 31.6947C6.95761 31.0877 6.15129 30.372 5.44464 29.5385C4.73798 28.705 4.16722 27.7991 3.74141 26.8116V33.1352H2.75391V0.0220337H3.69611V17.6975C4.1491 16.71 4.72892 15.804 5.43558 14.9705C6.14223 14.137 6.94855 13.4213 7.84546 12.8143C8.74237 12.2073 9.72081 11.7362 10.7808 11.392C11.8408 11.0477 12.9551 10.8846 14.1148 10.8846C15.6821 10.8846 17.1588 11.1836 18.545 11.7725C19.9311 12.3613 21.1451 13.1767 22.187 14.2095C23.2198 15.2423 24.0351 16.4473 24.6331 17.8243C25.231 19.2014 25.5209 20.6691 25.5209 22.2364C25.5209 23.8037 25.222 25.2805 24.6331 26.6666H24.6512ZM24.5606 22.2817C24.5606 20.8412 24.2888 19.4913 23.7452 18.232C23.2016 16.9727 22.4588 15.8675 21.5165 14.9252C20.5743 13.983 19.4691 13.2311 18.2007 12.6694C16.9323 12.1077 15.5915 11.8359 14.151 11.8359C12.7105 11.8359 11.3606 12.1077 10.0832 12.6513C8.80579 13.1948 7.7005 13.9377 6.74923 14.8799C5.79797 15.8222 5.05507 16.9274 4.52055 18.1867C3.97697 19.446 3.70517 20.7959 3.70517 22.2364C3.70517 23.6769 3.97697 25.0268 4.52055 26.3042C5.06413 27.5816 5.80702 28.6869 6.74923 29.6382C7.69144 30.5804 8.79673 31.3324 10.056 31.8669C11.3153 32.4105 12.6652 32.6823 14.1057 32.6823C15.5462 32.6823 16.8961 32.4105 18.1554 31.8669C19.4147 31.3233 20.52 30.5804 21.4712 29.6382C22.4135 28.696 23.1654 27.5816 23.6999 26.3042C24.2345 25.0268 24.5153 23.6769 24.5153 22.2364L24.5515 22.2727L24.5606 22.2817Z" fill="black"/>
<path d="M25.9648 33.1353V0.0220947H26.9524V33.1353H25.9648Z" fill="black"/>
<path d="M46.7752 33.1359V28.2889C46.3947 29.068 45.9146 29.7928 45.3166 30.4451C44.7277 31.0974 44.0664 31.6591 43.3325 32.1302C42.5987 32.6013 41.8105 32.9637 40.9498 33.2264C40.0982 33.4892 39.2013 33.6251 38.2682 33.6251C36.9636 33.6251 35.7224 33.3805 34.5718 32.8912C33.4122 32.402 32.4065 31.7225 31.5549 30.8709C30.7033 30.0193 30.0238 29.0137 29.5346 27.8631C29.0454 26.7125 28.8008 25.4895 28.8008 24.1758V11.3745H29.7883V24.1305C29.7883 25.3173 30.0057 26.4226 30.4496 27.4645C30.8845 28.4973 31.5006 29.4033 32.2797 30.1914C33.0588 30.9706 33.9557 31.5866 34.9704 32.0306C35.9851 32.4745 37.0904 32.6919 38.2682 32.6919C39.4459 32.6919 40.5512 32.4745 41.584 32.0306C42.6168 31.5866 43.5137 30.9796 44.2747 30.1914C45.0448 29.4123 45.6428 28.5063 46.0867 27.4826C46.5216 26.4589 46.748 25.3536 46.748 24.1667V11.3745H47.7718V33.1359H46.7843H46.7752Z" fill="black"/>
<path d="M49.1945 22.7261C49.267 24.1123 49.5932 25.4169 50.1639 26.6218C50.7347 27.8358 51.4776 28.8867 52.4198 29.7836C53.3529 30.6805 54.431 31.3872 55.6541 31.9036C56.8772 32.42 58.1908 32.6827 59.6041 32.6827C60.6913 32.6827 61.7241 32.5287 62.7025 32.2116C63.6901 31.8945 64.596 31.4597 65.4295 30.8889C66.263 30.3182 66.9968 29.6477 67.6401 28.8686C68.2833 28.0895 68.8088 27.2197 69.2074 26.2594L70.0771 26.6399C69.6513 27.6727 69.0806 28.6149 68.3739 29.4575C67.6673 30.3 66.8609 31.0429 65.955 31.6681C65.049 32.3022 64.0524 32.7824 62.9834 33.1267C61.9144 33.4709 60.7819 33.634 59.5951 33.634C58.0277 33.634 56.551 33.335 55.1649 32.7462C53.7787 32.1573 52.5738 31.3419 51.5501 30.3091C50.5263 29.2763 49.7109 28.0714 49.113 26.6943C48.506 25.3172 48.207 23.8495 48.207 22.2822C48.207 20.7149 48.506 19.2381 49.113 17.852C49.72 16.4659 50.5354 15.2519 51.5501 14.2191C52.5738 13.1863 53.7787 12.3709 55.1649 11.782C56.551 11.1931 58.0277 10.8942 59.5951 10.8942C61.1624 10.8942 62.6391 11.1931 64.0253 11.782C65.4114 12.3709 66.6163 13.1863 67.6401 14.2191C68.6638 15.2519 69.4701 16.4568 70.059 17.8339C70.6479 19.211 70.9469 20.6786 70.9469 22.246V22.7352H49.1855L49.1945 22.7261ZM69.0443 17.8792C68.4736 16.6652 67.7216 15.6143 66.7975 14.7174C65.8644 13.8204 64.7772 13.1138 63.5451 12.5974C62.313 12.081 60.9993 11.8183 59.6132 11.8183C58.2271 11.8183 56.8862 12.081 55.6632 12.5974C54.4401 13.1138 53.362 13.8204 52.4289 14.7174C51.4957 15.6143 50.7437 16.6652 50.173 17.8792C49.6022 19.0932 49.2851 20.3887 49.2036 21.7749H70.0137C69.9412 20.3887 69.6151 19.0841 69.0443 17.8792Z" fill="black"/>
<path d="M106.415 33.1358V18.4863C106.415 17.5803 106.234 16.7196 105.89 15.9133C105.536 15.107 105.065 14.4004 104.476 13.7934C103.887 13.1864 103.19 12.7062 102.384 12.3529C101.577 11.9995 100.726 11.8274 99.8197 11.8274C98.9137 11.8274 98.0621 12.0086 97.2558 12.3529C96.4495 12.6971 95.7428 13.1773 95.1449 13.7752C94.5379 14.3641 94.0668 15.0708 93.7315 15.8771C93.3873 16.6834 93.2242 17.5441 93.2242 18.45V33.1358H92.2367V18.4863C92.2367 17.5803 92.0646 16.7196 91.7112 15.9133C91.3579 15.107 90.8868 14.4004 90.2889 13.7934C89.6909 13.1864 88.9933 12.7062 88.187 12.3529C87.3807 11.9995 86.52 11.8274 85.6141 11.8274C84.7081 11.8274 83.8474 12.0086 83.0411 12.3529C82.2348 12.7062 81.5281 13.1773 80.9211 13.7752C80.3141 14.3732 79.843 15.0708 79.4988 15.8771C79.1545 16.6834 78.9914 17.5441 78.9914 18.45V33.1358H78.0039V11.3744H78.9461V14.8171C79.5984 13.6303 80.5134 12.679 81.6731 11.9633C82.8327 11.2476 84.1373 10.8852 85.5778 10.8852C86.3841 10.8852 87.1633 11.012 87.9062 11.2657C88.6491 11.5194 89.3376 11.8636 89.9537 12.2894C90.5697 12.7153 91.1133 13.2407 91.5844 13.8568C92.0555 14.4728 92.4269 15.1342 92.6987 15.8408C92.9524 15.1342 93.3148 14.4728 93.795 13.8568C94.2751 13.2407 94.8278 12.7153 95.4438 12.2894C96.0599 11.8636 96.7394 11.5194 97.4732 11.2657C98.207 11.012 98.9771 10.8852 99.7834 10.8852C100.843 10.8852 101.831 11.0845 102.755 11.4922C103.679 11.8999 104.476 12.4344 105.165 13.1229C105.844 13.8024 106.388 14.6087 106.796 15.5238C107.203 16.4478 107.403 17.4263 107.403 18.4591V33.1449H106.415V33.1358Z" fill="black"/>
<path d="M129.661 26.6672C129.072 28.0533 128.256 29.2673 127.233 30.3001C126.209 31.3329 125.004 32.1483 123.618 32.7372C122.223 33.3261 120.746 33.625 119.188 33.625C117.629 33.625 116.144 33.3261 114.748 32.7372C113.353 32.1483 112.148 31.3329 111.124 30.3001C110.101 29.2673 109.294 28.0624 108.696 26.6853C108.108 25.3082 107.809 23.8406 107.809 22.2732C107.809 20.7059 108.108 19.2292 108.696 17.843C109.294 16.4569 110.101 15.2429 111.124 14.2101C112.148 13.1773 113.353 12.3619 114.748 11.773C116.144 11.1842 117.62 10.8852 119.188 10.8852C120.755 10.8852 122.232 11.1842 123.618 11.773C125.004 12.3619 126.218 13.1773 127.233 14.2101C128.256 15.2429 129.063 16.4478 129.661 17.8249C130.259 19.202 130.548 20.6697 130.548 22.237C130.548 23.8043 130.249 25.2811 129.661 26.6672ZM129.57 22.2823C129.57 20.8418 129.298 19.4919 128.755 18.2326C128.211 16.9733 127.468 15.868 126.526 14.9258C125.584 13.9836 124.478 13.2317 123.219 12.67C121.96 12.1173 120.61 11.8365 119.179 11.8365C117.747 11.8365 116.397 12.1083 115.138 12.6518C113.879 13.1954 112.773 13.9383 111.831 14.8805C110.889 15.8227 110.146 16.928 109.602 18.1873C109.059 19.4466 108.787 20.7965 108.787 22.237C108.787 23.6775 109.059 25.0274 109.602 26.3048C110.146 27.5822 110.889 28.6875 111.831 29.6388C112.773 30.581 113.879 31.3329 115.138 31.8675C116.397 32.411 117.747 32.6828 119.179 32.6828C120.61 32.6828 121.96 32.411 123.219 31.8675C124.478 31.3239 125.584 30.581 126.526 29.6388C127.468 28.6966 128.211 27.5822 128.755 26.3048C129.298 25.0274 129.57 23.6775 129.57 22.237V22.2732V22.2823Z" fill="black"/>
<path d="M134.336 12.3258V33.1359H133.348V12.3258H127.668V11.3836H133.348V3.80969H134.336V11.3745H140.007V12.3168H134.336V12.3258Z" fill="black"/>
<path d="M142.073 6.38163C141.883 6.56283 141.666 6.64437 141.412 6.64437C141.131 6.64437 140.905 6.55377 140.714 6.38163C140.524 6.2095 140.434 5.97395 140.434 5.70216C140.434 5.43037 140.524 5.19481 140.714 5.02268C140.905 4.85055 141.122 4.75995 141.376 4.75995C141.657 4.75995 141.883 4.85055 142.073 5.02268C142.264 5.20387 142.354 5.43037 142.354 5.70216C142.354 5.97395 142.264 6.2095 142.073 6.38163ZM140.923 33.1349V11.3735H141.91V33.1349H140.923Z" fill="black"/>
<path d="M164.668 26.6672C164.07 28.0533 163.264 29.2673 162.24 30.3001C161.217 31.3329 160.012 32.1483 158.617 32.7372C157.221 33.3261 155.754 33.625 154.186 33.625C152.619 33.625 151.142 33.3261 149.756 32.7372C148.361 32.1483 147.156 31.3329 146.132 30.3001C145.109 29.2673 144.302 28.0624 143.704 26.6853C143.106 25.3082 142.816 23.8406 142.816 22.2732C142.816 20.7059 143.115 19.2292 143.704 17.843C144.293 16.4569 145.109 15.2429 146.132 14.2101C147.156 13.1773 148.361 12.3619 149.756 11.773C151.142 11.1842 152.628 10.8852 154.186 10.8852C155.745 10.8852 157.23 11.1842 158.617 11.773C160.003 12.3619 161.217 13.1773 162.24 14.2101C163.264 15.2429 164.07 16.4478 164.668 17.8249C165.257 19.202 165.556 20.6697 165.556 22.237C165.556 23.8043 165.257 25.2811 164.668 26.6672ZM164.578 22.2823C164.578 20.8418 164.306 19.4919 163.762 18.2326C163.219 16.9733 162.476 15.868 161.534 14.9258C160.592 13.9836 159.486 13.2317 158.227 12.67C156.968 12.1083 155.618 11.8365 154.186 11.8365C152.755 11.8365 151.405 12.1083 150.146 12.6518C148.886 13.1954 147.781 13.9383 146.839 14.8805C145.897 15.8227 145.154 16.928 144.61 18.1873C144.067 19.4466 143.795 20.7965 143.795 22.237C143.795 23.6775 144.067 25.0274 144.61 26.3048C145.154 27.5822 145.897 28.6875 146.839 29.6388C147.781 30.581 148.886 31.3329 150.146 31.8675C151.405 32.411 152.755 32.6828 154.186 32.6828C155.618 32.6828 156.968 32.411 158.227 31.8675C159.486 31.3239 160.592 30.581 161.534 29.6388C162.476 28.6966 163.219 27.5822 163.762 26.3048C164.306 25.0274 164.578 23.6775 164.578 22.237V22.2732V22.2823Z" fill="black"/>
<path d="M183.947 33.1358V20.3798C183.947 19.1929 183.73 18.0877 183.286 17.0458C182.842 16.013 182.235 15.107 181.456 14.3188C180.677 13.5306 179.771 12.9236 178.738 12.4797C177.705 12.0358 176.609 11.8183 175.458 11.8183C174.308 11.8183 173.166 12.0358 172.133 12.4797C171.1 12.9236 170.204 13.5306 169.433 14.3188C168.663 15.107 168.065 16.013 167.622 17.0458C167.178 18.0786 166.96 19.1748 166.96 20.3345V33.1268H165.973V11.3744H166.915V16.2214C167.295 15.4422 167.776 14.7174 168.373 14.0651C168.962 13.4128 169.633 12.8511 170.358 12.38C171.091 11.918 171.889 11.5466 172.74 11.2838C173.601 11.0211 174.489 10.8852 175.422 10.8852C176.736 10.8852 177.968 11.1298 179.127 11.619C180.287 12.1083 181.293 12.7877 182.153 13.6393C183.014 14.5 183.684 15.4966 184.174 16.6472C184.663 17.7977 184.907 19.0208 184.907 20.3345V33.1268H183.92L183.947 33.1358Z" fill="black"/>
<path d="M0.417969 38.4809H184.937" stroke="black" stroke-width="1.9" stroke-miterlimit="10"/>
<path d="M185.797 38.4809H186.857" stroke="black" stroke-width="1.9" stroke-miterlimit="10"/>
<path d="M187.672 38.4809H188.732" stroke="black" stroke-width="1.9" stroke-miterlimit="10"/>
<path d="M189.359 38.4809H190.419" stroke="black" stroke-width="1.9" stroke-miterlimit="10"/>
</g>
<defs>
<clipPath id="clip0_518_535">
<rect width="190" height="38.9114" fill="white" transform="translate(0.417969 0.0219727)"/>
</clipPath>
</defs>
</svg>
