<svg width="146" height="71" viewBox="0 0 146 71" fill="none" xmlns="http://www.w3.org/2000/svg">
<g clip-path="url(#clip0_518_769)">
<path fill-rule="evenodd" clip-rule="evenodd" d="M45.5586 59.4896V59.2455H46.1061V56.7427H45.5586V56.439H47.6322V56.7427H47.082V59.2455H47.5103C48.6081 59.2455 48.9117 58.9391 48.9117 58.1473H49.218V59.4896C49.218 59.5519 45.5586 59.4896 45.5586 59.4896Z" fill="#344054"/>
<path fill-rule="evenodd" clip-rule="evenodd" d="M55.8043 59.5494C54.7688 59.5494 53.793 58.8172 53.793 57.9631C53.793 57.1089 54.6468 56.3171 55.8043 56.3171C57.0241 56.3171 57.8779 57.1116 57.8779 57.9631C57.8779 58.8145 57.0241 59.5494 55.8043 59.5494ZM56.4765 56.7429C56.3545 56.6208 56.1702 56.6208 55.8043 56.6208C55.6227 56.6208 55.3787 56.6208 55.1944 56.7429C54.9504 56.9869 54.8284 57.1713 54.8284 57.9631C54.8284 58.8172 54.9504 58.9393 55.1944 59.1236C55.376 59.2457 55.6199 59.2457 55.8043 59.2457C56.1702 59.2457 56.3545 59.2457 56.4765 59.1236C56.7801 58.9393 56.9021 58.8172 56.9021 57.9631C56.9021 57.1713 56.7801 56.9869 56.4765 56.7429Z" fill="#344054"/>
<path fill-rule="evenodd" clip-rule="evenodd" d="M66.5381 56.7427V59.5492H65.9905L63.307 56.7427V59.2455H63.8545V59.4896H62.4531V59.2455H62.941V56.7427H62.4531V56.439H64.2828L66.2345 58.5134V56.7427H65.5622V56.439H67.0883V56.7427H66.5381Z" fill="#344054"/>
<path fill-rule="evenodd" clip-rule="evenodd" d="M82.3354 59.5494C81.2375 59.5494 80.2617 58.8172 80.2617 57.9631C80.2617 57.1089 81.1156 56.3171 82.3354 56.3171C83.5552 56.3171 84.4686 57.1116 84.4686 57.9631C84.4686 58.8145 83.4928 59.5494 82.3354 59.5494ZM82.9453 56.7429C82.8829 56.6208 82.639 56.6208 82.3354 56.6208C82.0914 56.6208 81.9071 56.6208 81.7851 56.7429C81.4788 56.9869 81.3595 57.1713 81.3595 57.9631C81.3595 58.8172 81.4815 58.9393 81.7851 59.1236C81.9071 59.2457 82.0914 59.2457 82.3354 59.2457C82.639 59.2457 82.8829 59.2457 82.9453 59.1236C83.3112 58.9393 83.4332 58.8172 83.4332 57.9631C83.4332 57.1713 83.3112 56.9869 82.9453 56.7429Z" fill="#344054"/>
<path fill-rule="evenodd" clip-rule="evenodd" d="M93.1279 56.7427V59.5492H92.7023L89.8968 56.7427V59.2455H90.4444V59.4896H89.043V59.2455H89.5905V56.7427H89.043V56.439H90.8727L92.8243 58.5134V56.7427H92.1521V56.439H93.6782V56.7427H93.1279Z" fill="#344054"/>
<path fill-rule="evenodd" clip-rule="evenodd" d="M73.4323 59.4896H71.543V59.2455H72.0309V56.7427H71.543V56.439H73.4323C74.6521 56.439 75.5059 57.1088 75.5059 57.9629C75.5059 58.8171 74.6521 59.4896 73.4323 59.4896ZM74.1018 56.8675C73.9798 56.7454 73.7982 56.7454 73.4323 56.7454H73.0067V59.2482H73.4323C73.7982 59.2482 73.9826 59.1262 74.1018 59.0042C74.4081 58.8225 74.5301 58.8225 74.5301 57.9657C74.5301 57.2959 74.4081 57.1115 74.1018 56.8675Z" fill="#344054"/>
<path fill-rule="evenodd" clip-rule="evenodd" d="M9.08609 48.751H0V48.3253H2.37724V39.4774H0V38.9296H8.11026C10.7342 38.9296 12.6858 39.6618 12.6858 41.3077C12.6858 42.7096 11.0378 43.4417 9.02645 43.4417C11.466 43.4417 13.6617 44.4179 13.6617 46.1262C13.6617 47.4685 12.1356 48.7483 9.08609 48.7483V48.751ZM7.19677 39.4774H5.2451V43.2601H7.68468C9.08609 43.2601 10.1866 43.016 10.1866 41.3077C10.1866 39.5994 9.0888 39.4774 7.19677 39.4774ZM7.62234 43.7481H5.2451V48.3226H7.68468C9.21078 48.3226 10.9781 48.0162 10.9781 46.1262C10.9781 43.9922 9.574 43.7481 7.62234 43.7481Z" fill="#344054"/>
<path fill-rule="evenodd" clip-rule="evenodd" d="M62.2111 48.751H53.125V48.3253H55.5022V39.4774H53.125V38.9296H61.2353C63.8565 38.9296 65.8081 39.6618 65.8081 41.3077C65.8081 42.7096 64.1628 43.4417 62.0891 43.4417C64.5883 43.4417 66.7839 44.4179 66.7839 46.1262C66.7839 47.4685 65.2606 48.7483 62.2111 48.7483V48.751ZM60.2594 39.4774H58.3078V43.2601H60.8097C62.2111 43.2601 63.3116 43.016 63.3116 41.3077C63.3116 39.5994 62.2138 39.4774 60.2621 39.4774H60.2594ZM60.685 43.7481H58.3078V48.3226H60.8097C62.3358 48.3226 63.9188 48.0162 63.9188 46.1262C63.9188 43.9922 62.6367 43.7481 60.685 43.7481Z" fill="#344054"/>
<path fill-rule="evenodd" clip-rule="evenodd" d="M30.187 39.4774V45.5188C30.187 48.0189 28.1134 49.0575 24.8199 49.0575C22.44 49.0575 18.721 48.4473 18.721 45.6408V39.4774H16.3438V38.9296H24.0284V39.4774H21.5265V45.6408C21.5265 48.0189 23.4782 48.3253 25.3079 48.3253C27.6255 48.3253 29.6368 47.5932 29.6368 45.5188V39.4774H27.1972V38.9296H32.6862V39.4774H30.187Z" fill="#344054"/>
<path fill-rule="evenodd" clip-rule="evenodd" d="M49.097 49.0553C47.5112 49.0553 45.5596 48.3231 45.5596 46.2488V45.6386C45.5596 44.4184 44.4618 43.868 42.876 43.868H40.0705V48.3231H42.3285V48.7489H34.8281V48.3231H37.2054V39.4752H34.8281V38.9274H43.1823C46.1098 38.9274 47.8175 39.9633 47.8175 41.3679C47.8175 42.7725 46.2942 43.6863 44.1582 43.6863C47.2076 43.6863 48.4898 44.9689 48.4898 46.3708V47.469C48.4898 48.0791 48.7934 48.5075 49.5876 48.5075C50.0755 48.5075 50.4414 48.3258 50.6258 48.0818L50.9917 48.5075C50.5661 48.8736 50.0159 49.058 49.1024 49.058L49.097 49.0553ZM42.0845 39.4752H40.0705V43.3202H42.2038C43.8519 43.3202 45.0093 43.0138 45.0093 41.3679C45.0093 39.9036 44.1555 39.4752 42.0818 39.4752H42.0845Z" fill="#344054"/>
<path fill-rule="evenodd" clip-rule="evenodd" d="M120.393 49.0553C118.747 49.0553 116.918 48.3231 116.918 46.2488V45.6386C116.918 44.4184 115.757 43.868 114.112 43.868H111.307V48.3231H113.562V48.7489H106.121V48.3231H108.498V39.4752H106.121V38.9274H114.538C117.343 38.9274 119.173 39.9633 119.173 41.3679C119.173 42.7725 117.587 43.6863 115.392 43.6863C118.563 43.6863 119.72 44.9689 119.72 46.3708V47.469C119.72 48.0791 120.146 48.5075 120.818 48.5075C121.366 48.5075 121.672 48.3258 122.038 48.0818L122.22 48.5075C121.794 48.8736 121.244 49.058 120.39 49.058L120.393 49.0553ZM113.38 39.4752H111.307V43.3202H113.44C115.085 43.3202 116.367 43.0138 116.367 41.3679C116.367 39.9036 115.392 39.4752 113.377 39.4752H113.38Z" fill="#344054"/>
<path fill-rule="evenodd" clip-rule="evenodd" d="M102.097 49.0553C100.511 49.0553 98.5596 48.3231 98.5596 46.2488V45.6386C98.5596 44.4184 97.3398 43.868 95.7541 43.868H93.0109V48.3231H95.3285V48.7489H87.8281V48.3231H90.2054V39.4752H87.8281V38.9274H96.185C99.1125 38.9274 100.82 39.9633 100.82 41.3679C100.82 42.7725 99.1722 43.6863 97.1609 43.6863C100.148 43.6863 101.49 44.9689 101.49 46.3708V47.469C101.49 48.0791 101.796 48.5075 102.528 48.5075C103.076 48.5075 103.441 48.3258 103.626 48.0818L103.87 48.5075C103.444 48.8736 102.956 49.058 102.1 49.058L102.097 49.0553ZM95.0845 39.4752H93.0109V43.3202H95.2065C96.7922 43.3202 98.012 43.0138 98.012 41.3679C98.012 39.9036 97.0362 39.4752 95.0845 39.4752Z" fill="#344054"/>
<path fill-rule="evenodd" clip-rule="evenodd" d="M70.0156 48.751V48.3253H72.4552V39.4774H70.0156V38.9296H83.0674V42.0398H82.5171C82.5171 40.7572 81.5413 39.4774 79.1017 39.4774H75.1984V43.4444H76.7245C78.5542 43.4444 79.1017 42.4683 79.1017 41.6141H79.652V45.8225H79.1017C79.1017 44.9684 78.5515 43.9922 76.7245 43.9922H75.1984V48.3226H79.1641C82.3355 48.3226 83.493 46.9207 83.493 45.3941H84.0432V48.7483H70.0156V48.751Z" fill="#344054"/>
<path fill-rule="evenodd" clip-rule="evenodd" d="M136.921 39.4779L132.53 44.6625V48.3231H134.969V48.7516H127.285V48.3231H129.786V44.5404L125.273 39.4779H122.527V38.9274H130.762V39.4779H128.26L132.408 43.8707L136.311 39.4779H133.934V38.9274H139.116V39.4779H136.921Z" fill="#344054"/>
<path fill-rule="evenodd" clip-rule="evenodd" d="M17.0156 70.593H17.4439V67.236H17.5659L18.7233 70.593H19.1516L20.4934 67.236V70.593H20.9813V66.6259H20.2494L18.9673 69.9829L17.7475 66.6259H17.0156V70.593Z" fill="#344054"/>
<path fill-rule="evenodd" clip-rule="evenodd" d="M23.2969 70.593H25.9804V70.0425H23.7224V68.7627H25.8584V68.3342H23.7224V67.0543H25.9804V66.6259H23.2969V70.593Z" fill="#344054"/>
<path fill-rule="evenodd" clip-rule="evenodd" d="M28.0547 70.593H28.6022V67.358L30.6162 70.593H31.1638V66.6259H30.7382V69.8609L28.6022 66.6259H28.0547V70.593Z" fill="#344054"/>
<path fill-rule="evenodd" clip-rule="evenodd" d="M33.668 66.0782H34.0963C34.0963 66.3846 33.9743 66.8103 33.668 66.8103V67.1167C34.2182 67.1167 34.3998 66.6286 34.3998 66.0782V65.224H33.668V66.0782Z" fill="#344054"/>
<path fill-rule="evenodd" clip-rule="evenodd" d="M39.702 67.6646C39.702 66.8104 39.0921 66.504 38.1759 66.504C37.566 66.504 36.7745 66.8104 36.7745 67.6646C36.7745 68.3344 37.444 68.5187 38.1162 68.6408C38.7261 68.8848 39.3984 69.0068 39.3984 69.4949C39.3984 70.0454 38.8481 70.1647 38.3006 70.1647C37.753 70.1647 37.2028 69.983 37.2028 69.1885H36.7148C36.7148 70.1647 37.4467 70.7151 38.3006 70.7151C39.0948 70.7151 39.9486 70.2894 39.9486 69.4326C39.9486 68.6408 39.2764 68.4564 38.6069 68.3344C37.997 68.0903 37.3247 68.0903 37.3247 67.6022C37.3247 67.0518 37.753 66.9325 38.1786 66.9325C38.7289 66.9325 39.1544 67.1141 39.1544 67.6646H39.7047H39.702Z" fill="#344054"/>
<path fill-rule="evenodd" clip-rule="evenodd" d="M45.6816 70.593H46.2319V67.0543H47.5113V66.6259H44.3398V67.0543H45.6816V70.593Z" fill="#344054"/>
<path fill-rule="evenodd" clip-rule="evenodd" d="M48.3633 70.593H48.9135L49.3391 69.3104H51.0468L51.4724 70.593H52.0227L50.5589 66.6259H49.8894L48.3633 70.593ZM50.193 67.0543L50.8625 68.8847H49.5804L50.1903 67.0543H50.193Z" fill="#344054"/>
<path fill-rule="evenodd" clip-rule="evenodd" d="M53.9141 70.593H54.402V66.6259H53.9141V70.593Z" fill="#344054"/>
<path fill-rule="evenodd" clip-rule="evenodd" d="M56.7188 70.593H59.2803V70.0425H57.2067V66.6259H56.7188V70.593Z" fill="#344054"/>
<path fill-rule="evenodd" clip-rule="evenodd" d="M60.9258 68.5188C60.9258 69.6169 61.5357 70.7151 62.8774 70.7151C64.2192 70.7151 64.8291 69.6169 64.8291 68.5188C64.8291 67.4802 64.1596 66.504 62.8774 66.504C61.5953 66.504 60.9258 67.4802 60.9258 68.5188ZM61.476 68.5188C61.476 67.7866 61.9016 66.9325 62.8774 66.9325C63.8533 66.9325 64.2816 67.7866 64.2816 68.5188C64.2816 69.4326 63.8533 70.1647 62.8774 70.1647C61.9016 70.1647 61.476 69.4326 61.476 68.5188Z" fill="#344054"/>
<path fill-rule="evenodd" clip-rule="evenodd" d="M67.2692 68.4562V67.0543H68.6733C69.1612 67.0543 69.3428 67.236 69.3428 67.6645C69.3428 68.2122 68.9172 68.4562 68.489 68.4562H67.2692ZM66.7812 70.593H67.2692V68.8847H68.6109C69.1612 68.8847 69.2208 69.1884 69.3428 69.6168C69.3428 69.9829 69.2208 70.4086 69.4648 70.593H70.015C69.7711 70.2866 69.8931 69.8609 69.7711 69.4324C69.7711 69.0664 69.6491 68.7627 69.2208 68.6406C69.6491 68.4562 69.8931 68.0902 69.8931 67.6021C69.8931 66.9323 69.4648 66.6259 68.6733 66.6259H66.7812V70.593Z" fill="#344054"/>
<path fill-rule="evenodd" clip-rule="evenodd" d="M72.0273 70.593H74.7732V70.0425H72.5776V68.7627H74.6512V68.3342H72.5776V67.0543H74.7732V66.6259H72.0273V70.593Z" fill="#344054"/>
<path fill-rule="evenodd" clip-rule="evenodd" d="M76.7852 70.593H78.1893C79.531 70.593 80.1409 69.8609 80.1409 68.4562C80.1409 67.0516 79.4091 66.6259 78.1893 66.6259H76.7852V70.593ZM77.3354 67.0543H78.1893C79.1651 67.0543 79.653 67.6048 79.653 68.5186C79.653 70.0452 78.6772 70.0452 78.1893 70.0452H77.3354V67.0543Z" fill="#344054"/>
<path fill-rule="evenodd" clip-rule="evenodd" d="M88.2514 67.7866C88.1917 66.9325 87.5195 66.504 86.6656 66.504C85.4458 66.504 84.8359 67.3582 84.8359 68.5188C84.8359 69.739 85.3239 70.7151 86.6656 70.7151C87.6415 70.7151 88.2513 70.0454 88.3733 69.0692H87.8231C87.7011 69.739 87.3975 70.1674 86.6656 70.1674C85.6898 70.1674 85.3239 69.4353 85.3239 68.5215C85.3239 67.6673 85.6898 66.9352 86.6656 66.9352C87.2159 66.9352 87.6415 67.1169 87.7038 67.7893H88.2514V67.7866Z" fill="#344054"/>
<path fill-rule="evenodd" clip-rule="evenodd" d="M90.4453 70.593H93.0069V70.0425H90.9956V66.6259H90.4453V70.593Z" fill="#344054"/>
<path fill-rule="evenodd" clip-rule="evenodd" d="M94.6562 68.5188C94.6562 69.6169 95.3258 70.7151 96.6079 70.7151C97.89 70.7151 98.5596 69.6169 98.5596 68.5188C98.5596 67.4802 97.89 66.504 96.6079 66.504C95.3258 66.504 94.6562 67.4802 94.6562 68.5188ZM95.2065 68.5188C95.2065 67.7866 95.6321 66.9325 96.6079 66.9325C97.5837 66.9325 98.0093 67.7866 98.0093 68.5188C98.0093 69.4326 97.5837 70.1647 96.6079 70.1647C95.6321 70.1647 95.2065 69.4326 95.2065 68.5188Z" fill="#344054"/>
<path fill-rule="evenodd" clip-rule="evenodd" d="M101.486 70.593H102.034V67.0543H103.316V66.6259H100.082V67.0543H101.486V70.593Z" fill="#344054"/>
<path fill-rule="evenodd" clip-rule="evenodd" d="M105.145 70.593H105.692V68.7627H107.766V70.593H108.254V66.6259H107.766V68.3342H105.692V66.6259H105.145V70.593Z" fill="#344054"/>
<path fill-rule="evenodd" clip-rule="evenodd" d="M110.574 70.593H111.062V66.6259H110.574V70.593Z" fill="#344054"/>
<path fill-rule="evenodd" clip-rule="evenodd" d="M113.379 70.593H113.929V67.358L115.94 70.593H116.613V66.6259H116.062V69.8609L113.929 66.6259H113.379V70.593Z" fill="#344054"/>
<path fill-rule="evenodd" clip-rule="evenodd" d="M121.916 70.5931H122.222V68.4564H120.514V68.8848H121.796C121.796 69.6169 121.368 70.1647 120.514 70.1647C119.66 70.1647 119.113 69.4326 119.113 68.6408C119.113 67.7866 119.538 66.9325 120.514 66.9325C121.124 66.9325 121.552 67.1141 121.672 67.7866H122.222C122.1 66.8104 121.368 66.504 120.514 66.504C119.172 66.504 118.562 67.4802 118.562 68.6408C118.562 69.6169 119.294 70.7151 120.514 70.7151C120.94 70.7151 121.49 70.4711 121.796 70.0454L121.918 70.5958L121.916 70.5931Z" fill="#344054"/>
<path fill-rule="evenodd" clip-rule="evenodd" d="M143.204 34.7783C141.922 34.7783 140.824 35.7544 140.824 37.0967C140.824 38.4389 141.922 39.3554 143.204 39.3554C144.486 39.3554 145.459 38.3793 145.459 37.0967C145.459 35.8141 144.424 34.7783 143.204 34.7783ZM143.082 35.1443H143.204C144.18 35.1443 145.034 35.9985 145.034 37.0967C145.034 38.1352 144.18 38.927 143.204 38.927C142.106 38.927 141.374 38.1325 141.374 37.0967C141.374 35.9985 142.106 35.2067 143.082 35.1443ZM142.35 35.7544V38.3766H142.657V37.2784H143.082L143.876 38.3766H144.302L143.508 37.1563C143.996 37.1563 144.18 36.8499 144.18 36.5462C144.18 35.9985 143.876 35.7544 143.326 35.7544H142.35ZM142.657 36.8526V36.1205H143.207C143.632 36.1205 143.876 36.1829 143.876 36.5462C143.876 36.7306 143.632 36.8526 143.326 36.8526H142.657Z" fill="#344054"/>
<path fill-rule="evenodd" clip-rule="evenodd" d="M55.4805 3.10704C55.4805 3.10704 58.904 -0.0275712 66.4315 3.62496C66.174 4.69062 65.3662 5.56375 65.3662 5.56375C65.3662 5.56375 62.7504 4.3354 62.0701 5.14345C61.3599 5.91897 60.1319 5.82135 60.1319 5.82135C58.904 5.20853 55.4805 3.10704 55.4805 3.10704Z" fill="#344054"/>
<path fill-rule="evenodd" clip-rule="evenodd" d="M66.1719 5.72405C66.1719 5.72405 66.1719 4.85091 67.6898 4.85091C67.0772 4.65568 66.5595 4.65568 66.5595 4.65568C66.9471 4.07268 67.0122 3.75 68.335 3.75C69.6578 3.75 70.2406 5.04343 70.2406 5.04343C69.918 5.39865 69.983 6.23925 70.1755 6.49685C69.3027 6.30433 67.6871 5.33358 67.5597 5.72133H66.1719V5.72405Z" fill="#344054"/>
<path fill-rule="evenodd" clip-rule="evenodd" d="M70.5669 4.8504C70.5669 4.8504 74.4431 6.30382 78.9022 6.1113C83.3612 5.91606 86.042 9.34353 86.042 9.34353C86.042 9.34353 87.7551 10.702 90.1757 11.2172C88.2702 11.2172 88.075 11.2823 87.625 11.3799C87.1723 11.445 85.6544 10.8295 84.6216 10.119C83.5563 9.40861 78.3871 9.11846 78.3871 9.11846H74.3808C74.3808 9.11846 71.4723 9.05339 70.8922 6.88953C70.3094 4.72296 70.5696 4.85311 70.5696 4.85311L70.5669 4.8504Z" fill="#344054"/>
<path fill-rule="evenodd" clip-rule="evenodd" d="M88.948 11.8323C88.948 11.8323 90.5961 12.5427 90.9837 13.546C92.2767 14.0639 93.5995 14.2565 94.0522 14.5168C94.5374 14.7744 95.1175 14.872 95.6352 14.9696C95.215 14.7744 95.0849 14.2917 94.6973 14.0639C93.9546 13.6111 93.2769 13.9989 92.564 13.2884C92.0463 12.738 91.7237 11.995 90.9159 11.835C90.3332 11.7048 89.4956 11.5774 88.9453 11.835L88.948 11.8323Z" fill="#344054"/>
<path fill-rule="evenodd" clip-rule="evenodd" d="M67.4663 6.79212H66.0784C66.0784 6.79212 65.7233 6.0166 67.759 6.0166C67.469 6.33928 67.3064 6.4369 67.469 6.79212H67.4663Z" fill="#344054"/>
<path fill-rule="evenodd" clip-rule="evenodd" d="M69.4988 6.49929C69.4988 6.49929 67.9483 6.36913 67.8182 6.56437C67.6881 6.7596 67.8832 6.88705 67.8832 6.88705L69.4337 6.95212L69.4988 6.49929Z" fill="#344054"/>
<path fill-rule="evenodd" clip-rule="evenodd" d="M69.793 7.30677C69.793 7.30677 70.8908 6.95155 71.8287 8.72765C71.7636 9.47063 71.0859 10.4414 70.9558 10.4414C70.8257 10.4414 70.0505 10.9593 69.793 11.442C69.793 10.5688 69.9881 10.2461 70.3107 9.79331C70.6333 9.34047 70.5682 8.07958 70.4408 7.88705C70.3107 7.69453 69.7957 7.30406 69.7957 7.30406L69.793 7.30677Z" fill="#344054"/>
<path fill-rule="evenodd" clip-rule="evenodd" d="M68.7891 3.29952C68.7891 3.29952 70.5347 3.20191 71.2449 4.07504C71.9551 4.94818 72.6328 4.33264 72.6328 4.33264C72.6328 4.33264 72.7303 3.55713 72.115 3.10429C72.9879 3.71711 73.4405 4.43026 73.5029 4.59025C73.6005 4.78277 74.6657 5.3983 74.6657 3.81473C75.3434 4.52517 75.441 4.59025 75.5386 4.84785C75.6036 5.13799 76.4765 6.0762 77.2842 5.3983C78.0595 4.68786 78.1571 3.81473 76.4114 3.10429C76.6689 3.97742 76.574 4.68786 75.7988 3.91235C74.991 3.10429 74.2158 2.74907 73.183 3.10429C71.9551 2.68399 70.3721 2.49147 68.7891 3.29952Z" fill="#344054"/>
<path fill-rule="evenodd" clip-rule="evenodd" d="M69.3712 11.7675C69.3712 11.7675 69.8564 12.0251 70.3091 11.1547C70.8268 11.1547 71.827 10.832 71.8921 9.40845C72.1496 10.6368 72.1496 12.478 72.0845 12.7383L72.0195 12.9959C72.0195 12.9959 72.6646 13.1911 72.9248 12.6081C73.635 12.9959 84.4261 19.2326 84.4261 19.2326L84.2337 19.4902L72.3448 13.4786C72.3448 13.4786 71.4069 13.2535 70.9569 13.2535C71.4746 13.0583 71.4747 12.6081 71.4747 12.6081C71.4747 12.6081 70.3118 12.9959 70.2467 12.9959C70.3118 12.4129 70.2467 12.0251 69.9892 12.0251C69.7317 12.0251 70.1817 12.9959 69.3766 12.9959C68.5715 12.9959 69.3116 12.4129 69.3766 11.7675H69.3712Z" fill="#344054"/>
<path fill-rule="evenodd" clip-rule="evenodd" d="M72.3398 11.6378V10.0542C72.3398 9.79659 73.1801 10.7646 73.3103 11.3802C72.9226 11.5103 72.6001 11.4452 72.3398 11.6378Z" fill="#344054"/>
<path fill-rule="evenodd" clip-rule="evenodd" d="M72.6016 12.2204C72.6016 12.2204 72.9892 11.2198 73.862 12.0902C74.7023 12.9308 74.1846 12.8006 74.1846 12.8006C74.1846 12.8006 72.8591 12.2177 72.6016 12.2177V12.2204Z" fill="#344054"/>
<path fill-rule="evenodd" clip-rule="evenodd" d="M52.9906 2.29895L52.7656 2.75179L63.8142 8.66579L64.0717 8.27803L52.9906 2.29895Z" fill="#344054"/>
<path fill-rule="evenodd" clip-rule="evenodd" d="M49.8242 0.71521L51.3422 2.29879C51.3422 2.29879 52.44 2.75162 52.44 1.84595C52.44 0.940273 50.7269 1.07043 49.8242 0.71521Z" fill="#344054"/>
<path fill-rule="evenodd" clip-rule="evenodd" d="M54.9294 8.53524C54.9294 8.53524 53.5714 8.98808 53.3789 7.30688C54.2843 8.01732 54.6068 8.34001 54.9294 8.53524Z" fill="#344054"/>
<path fill-rule="evenodd" clip-rule="evenodd" d="M53.25 6.91956C53.25 6.91956 54.6379 7.76015 55.0905 7.98522C54.7354 7.24224 55.8658 7.24224 53.25 6.91956Z" fill="#344054"/>
<path fill-rule="evenodd" clip-rule="evenodd" d="M54.8013 8.92297C54.8013 8.92297 53.896 9.05313 53.8309 10.1188C54.6062 10.3764 54.9938 10.5716 54.9938 11.0245C54.411 11.217 53.896 10.8292 53.7008 10.6367C52.893 10.7018 51.4727 10.7669 51.4727 10.7669C51.4727 10.7669 53.3782 11.4448 54.2836 11.4448C54.0884 11.8976 53.7008 12.0278 53.7008 12.4155C53.7008 12.8033 53.6358 14.1943 53.6358 14.1943C53.6358 14.1943 53.9583 13.8716 53.8933 14.2594C53.8282 14.6472 53.5056 14.5821 53.5056 14.5821C53.5056 14.5821 52.893 15.5827 53.3755 15.9081C53.8282 16.2307 54.4733 15.3576 54.4733 15.3576C54.4733 15.3576 55.2161 15.2925 55.4112 15.2925C55.6064 15.2925 55.6687 14.4519 55.4763 14.0642C55.2838 13.6764 55.5413 12.9985 55.5413 12.9985C55.7365 13.8066 55.994 13.8066 56.2515 13.8066C56.509 13.8066 57.0918 11.4475 57.0918 11.4475C57.0918 11.4475 57.7695 9.6063 55.8639 9.12092C55.2811 9.12092 54.9911 9.12092 54.9911 9.47614C54.7336 9.41106 54.7959 8.92569 54.7959 8.92569L54.8013 8.92297Z" fill="#344054"/>
<path fill-rule="evenodd" clip-rule="evenodd" d="M55.2855 15.7104C55.2855 15.7104 54.6729 15.4853 54.3477 16.0331C54.8654 16.2256 55.1554 16.0982 55.2855 15.7104Z" fill="#344054"/>
<path fill-rule="evenodd" clip-rule="evenodd" d="M55.7359 15.0951C55.7359 15.0951 56.381 15.1602 56.4461 14.5121C56.8988 14.7697 57.3189 15.2225 57.0912 15.4829C56.896 15.773 55.7332 16.4211 56.5735 17.3891C57.4463 18.3897 58.2216 17.6793 58.4791 17.6793C57.7038 17.4542 56.7659 17.6793 57.1861 16.8061C57.5737 15.9655 57.8312 15.8354 57.8312 15.8354C57.5087 15.5778 57.5087 14.7697 57.5087 14.7697C57.5087 14.7697 56.6358 14.0593 55.8606 14.0593C55.9907 14.5772 56.0557 14.8999 55.7305 15.0924L55.7359 15.0951Z" fill="#344054"/>
<path fill-rule="evenodd" clip-rule="evenodd" d="M57.5151 12.0905C57.5151 12.0905 57.45 12.7358 56.9648 12.866C57.3199 13.4788 57.1898 13.8042 57.1898 13.8042C57.7076 13.8693 57.6425 13.0612 57.6425 13.0612L57.5124 12.0905H57.5151Z" fill="#344054"/>
<path fill-rule="evenodd" clip-rule="evenodd" d="M56.8386 9.24563C56.8386 9.24563 57.5814 10.3113 57.6464 11.217C57.7115 12.1552 57.969 11.7674 57.969 11.7674C57.969 11.7674 58.1614 15.1596 58.1614 15.645C58.1614 16.0979 58.484 16.0979 58.484 16.0979C60.1646 15.42 61.4874 13.5761 63.2005 13.1259C62.4253 11.7051 61.3275 9.79609 60.5197 9.47341C59.7445 9.11819 58.1614 8.66535 56.8359 9.24835L56.8386 9.24563Z" fill="#344054"/>
<path fill-rule="evenodd" clip-rule="evenodd" d="M56.6403 8.85802C56.6403 8.85802 56.3828 9.11562 55.735 8.47026C55.0898 7.8249 55.0898 7.98488 55.0898 7.98488C55.0898 7.98488 55.9301 7.69474 56.1226 7.75982C56.3151 7.8249 56.3151 8.66549 56.6403 8.85802Z" fill="#344054"/>
<path fill-rule="evenodd" clip-rule="evenodd" d="M57.258 8.66602C57.258 8.66602 57.033 8.89109 56.6128 8.21318C56.1602 7.50274 56.1602 7.69527 56.1602 7.69527C56.1602 7.69527 56.8378 7.43767 56.9679 7.50003C57.098 7.59765 57.033 8.43825 57.258 8.66331V8.66602Z" fill="#344054"/>
<path fill-rule="evenodd" clip-rule="evenodd" d="M60.0998 8.98797C59.9697 8.40498 59.9697 8.24499 59.9697 7.88977C59.9697 7.53455 59.807 7.43694 59.0643 7.37186C59.227 7.79216 59.3544 7.98468 59.2893 8.17991C59.2568 8.40498 59.1592 8.31007 58.739 7.50201C58.3839 7.24441 58.1562 7.37186 58.1562 7.37186C58.1562 7.37186 58.6089 8.14738 58.674 8.63275C59.2541 8.66529 59.9019 8.85782 60.0944 8.98797H60.0998Z" fill="#344054"/>
<path fill-rule="evenodd" clip-rule="evenodd" d="M57.1289 7.40586H57.1647C57.1289 7.37007 57.1289 7.40586 57.1289 7.40586Z" fill="#344054"/>
<path fill-rule="evenodd" clip-rule="evenodd" d="M58.323 8.37558C58.258 8.21289 58.098 8.08544 58.033 7.92274C58.0005 7.72751 58.0655 7.53499 57.9354 7.40483C57.8378 7.30721 57.3228 7.37229 57.1602 7.40483C57.1927 7.43737 57.2577 7.59735 57.3851 8.08273C57.4177 8.24542 57.4827 8.43795 57.6101 8.60064H58.3528C58.3854 8.53557 58.3854 8.47049 58.3203 8.37558H58.323Z" fill="#344054"/>
<path fill-rule="evenodd" clip-rule="evenodd" d="M58.2918 16.6788C59.2622 16.1934 60.1323 15.5155 61.0377 14.9325C61.6828 14.5122 62.6207 13.7367 63.4285 13.7367C63.9462 13.7367 63.6236 14.5122 63.0734 14.5122C63.4284 14.7698 63.5586 14.9 63.3309 14.965C63.1357 15.0301 62.7481 15.483 62.3605 15.2877C61.9728 15.0925 61.7153 15.4803 61.8427 15.7731C61.9728 16.0307 61.39 16.4835 60.7124 16.291C60.0672 16.0958 60.1946 16.8089 60.1946 17.1316C59.5495 17.4543 58.2891 17.1967 58.2891 17.1967V16.6788H58.2918Z" fill="#344054"/>
<path fill-rule="evenodd" clip-rule="evenodd" d="M58.1582 17.0041C58.1582 17.1343 58.0281 17.2617 57.8682 17.2617C57.7082 17.2617 57.5781 17.1316 57.5781 17.0041C57.5781 16.8767 57.7082 16.7791 57.8682 16.7791C58.0281 16.7791 58.1582 16.8767 58.1582 17.0041Z" fill="#344054"/>
<path fill-rule="evenodd" clip-rule="evenodd" d="M63.815 15.355C63.815 15.355 62.2971 16.2932 61.9745 16.5508C61.6519 16.8084 60.714 17.3263 60.5216 17.3263C60.3291 17.3263 61.4595 17.7466 62.4922 17.7466C62.6223 17.2612 62.3621 16.8084 63.8177 15.355H63.815Z" fill="#344054"/>
<path fill-rule="evenodd" clip-rule="evenodd" d="M63.9431 15.903C63.9431 15.903 63.0703 16.486 63.0703 17.2615L64.0082 17.4568C64.0082 17.4568 64.5259 16.8738 64.8485 16.8738C64.3308 16.5511 64.0733 16.4209 63.9431 15.903Z" fill="#344054"/>
<path fill-rule="evenodd" clip-rule="evenodd" d="M63.6199 18.0048C63.6199 18.0048 64.2 17.6821 64.5253 17.2618C64.8478 16.874 65.1704 17.3269 65.1704 17.3269C65.1704 17.3269 65.1053 18.3925 64.9752 18.6529C64.4575 18.4576 63.6172 18.0075 63.6172 18.0075L63.6199 18.0048Z" fill="#344054"/>
<path fill-rule="evenodd" clip-rule="evenodd" d="M60.3894 9.02122C60.3894 9.02122 60.5819 8.11555 60.3894 7.69525C60.8421 7.92031 61.0346 8.21317 61.0346 8.21317L60.9695 9.24629L60.3867 9.02122H60.3894Z" fill="#344054"/>
<path fill-rule="evenodd" clip-rule="evenodd" d="M60.9727 9.246C60.9727 9.246 61.7154 9.89136 61.7804 10.1191C62.2331 9.89407 62.5882 9.4087 62.5882 9.27854C62.3632 9.02094 62.1355 8.66572 62.1355 8.66572C62.0705 9.24871 61.9105 9.47377 61.7479 9.47377C61.5853 9.47377 61.7804 8.37558 61.7804 8.37558C61.5229 8.27796 61.1678 8.15051 61.1678 8.15051C61.1678 8.15051 61.2979 9.24871 60.9754 9.24871L60.9727 9.246Z" fill="#344054"/>
<path fill-rule="evenodd" clip-rule="evenodd" d="M62.1016 10.4745C62.1016 10.4745 62.3265 10.6996 62.3916 10.8623C62.9744 10.3769 63.1994 9.7966 63.1994 9.7966L62.8443 9.539C62.8443 9.539 62.4892 10.1518 62.1991 10.3471L62.1016 10.4772V10.4745Z" fill="#344054"/>
<path fill-rule="evenodd" clip-rule="evenodd" d="M62.6523 11.1522C62.6523 11.1522 63.33 10.5068 63.33 10.2791C63.7176 10.6994 63.7176 10.862 63.7176 10.862C63.7176 10.862 63.1348 11.4749 62.9424 11.4749C62.7174 11.4749 62.6523 11.1522 62.6523 11.1522Z" fill="#344054"/>
<path fill-rule="evenodd" clip-rule="evenodd" d="M68.6606 13.0942C68.6606 13.0942 68.5305 12.6088 68.3706 13.3518C68.1754 14.0947 68.048 14.0622 67.8854 13.9971C67.8854 14.3523 67.2077 15.0302 66.1722 16.2586C66.1722 16.2586 66.4298 16.2911 66.7225 16.2586C66.755 16.2261 66.7876 16.2261 66.8201 16.1935C67.5628 16.0308 67.7255 15.418 67.7255 15.1604C67.9206 14.8703 68.1131 14.5774 68.2757 14.3198C68.3733 16.1935 66.2075 16.8416 65.8199 17.0016C65.4322 17.1317 65.4322 18.0672 65.3672 18.8753C65.3672 18.8753 65.9798 18.9078 66.3051 19.0055C66.3051 18.4225 67.3053 17.7771 67.3053 17.7771C66.4325 17.7771 65.9798 18.5526 65.9798 18.5526C65.9798 18.5526 65.7223 18.7451 65.6898 18.5526C65.6572 18.3899 65.7873 17.7771 65.9798 17.2917C68.7907 16.321 68.6281 14.9326 68.7582 14.5449C68.8883 14.1571 68.6606 13.0914 68.6606 13.0914V13.0942Z" fill="#344054"/>
<path fill-rule="evenodd" clip-rule="evenodd" d="M68.0469 16.6481C68.0469 16.6481 68.4345 15.7099 68.692 15.6475C68.982 15.5499 69.2748 13.6762 69.2748 13.386C69.5648 13.2559 69.8874 13.3209 70.05 13.0959C70.2425 13.7412 70.275 15.1974 70.1151 15.1974C69.9199 15.1974 69.5648 15.4224 69.4049 15.7804C69.2423 16.1031 68.7598 16.2007 68.7598 16.2007C68.7598 16.2007 68.6622 16.7186 68.0496 16.6535L68.0469 16.6481Z" fill="#344054"/>
<path fill-rule="evenodd" clip-rule="evenodd" d="M68.9828 16.4205C68.9828 16.4205 69.5331 16.1629 69.7255 15.9352C69.8882 15.7101 70.4032 15.6776 70.4032 15.6776C70.4032 15.6776 71.0158 16.6483 71.501 16.8083C70.8559 17.2937 70.5957 17.6814 70.3707 18.1668C70.1457 18.6522 69.7879 19.0399 69.7879 19.0399L69.3027 19.105C69.3027 19.105 68.3973 19.0074 67.9148 19.5253C67.8172 18.6196 67.7847 17.2964 68.6901 17.0035C69.628 16.6808 68.9801 16.4205 68.9801 16.4205H68.9828Z" fill="#344054"/>
<path fill-rule="evenodd" clip-rule="evenodd" d="M71.1479 15.8401C71.1479 15.8401 71.2455 15.1948 70.5977 14.6768C70.5977 13.7386 70.6302 13.481 71.0178 13.481C71.4054 13.481 72.2783 13.6735 72.2783 14.1589C72.2783 14.6118 71.5355 15.8401 71.1479 15.8401Z" fill="#344054"/>
<path fill-rule="evenodd" clip-rule="evenodd" d="M70.5334 14.9677C70.5334 14.9677 70.5985 15.4856 70.8885 15.5506C70.4033 15.6808 70.1133 15.3256 70.1133 15.3256C70.1133 15.3256 70.5009 15.293 70.5334 14.9704V14.9677Z" fill="#344054"/>
<path fill-rule="evenodd" clip-rule="evenodd" d="M72.3089 15.1597C72.3089 15.1597 71.9863 16.8409 71.4036 17.2937C70.8533 17.7791 71.8237 17.5838 71.8237 17.5838C71.8237 17.5838 71.7586 18.0041 70.9834 18.617C70.2407 19.2298 70.8208 19.9429 70.8208 19.9429C70.8208 19.9429 71.0457 20.7185 70.2705 20.2656C70.4006 20.8784 70.4331 21.0086 69.9805 20.9761C70.238 21.4289 71.2084 21.9766 71.7885 21.0411C72.3387 20.1355 72.8537 18.9071 73.0164 18.617C72.4987 18.7797 72.5637 18.9071 71.8861 18.7146C71.1759 18.5193 72.9513 18.1316 73.404 17.0985C73.8242 16.5155 74.0166 16.3555 74.0166 16.3555C73.5639 16.2253 73.404 16.3229 73.5965 15.9352C73.1113 16.0003 73.0462 16.2904 72.7236 16.1928C72.4011 16.0952 73.0787 15.6098 73.0787 15.6098C73.0787 15.6098 73.4013 15.4796 73.9516 15.5447C73.4664 15.0593 72.7887 15.157 72.4011 15.157H72.3035L72.3089 15.1597Z" fill="#344054"/>
<path fill-rule="evenodd" clip-rule="evenodd" d="M67.1406 20.1062C67.1406 20.1062 68.0785 20.1062 68.6586 19.4933C69.4338 19.3632 69.854 19.4933 69.919 19.9787C69.9841 20.4316 69.4338 20.5617 69.4338 20.7542C69.4338 20.9468 70.0464 21.725 69.7239 21.725C69.3688 21.725 69.0462 22.0151 68.2059 21.2722C67.3331 20.5617 67.1406 20.8844 67.1406 20.8844V20.1089V20.1062Z" fill="#344054"/>
<path fill-rule="evenodd" clip-rule="evenodd" d="M68.9496 22.2368C68.9496 22.2368 68.4969 22.0416 68.2719 21.6538C68.0469 21.2986 67.0115 21.4288 66.9464 21.6864C66.8814 21.9765 66.4937 23.5601 66.2037 23.8828C65.9137 24.1729 65.686 25.6914 65.5586 25.9192C65.3959 26.1768 66.5588 26.5645 66.5588 26.5645C66.5588 26.5645 66.9139 25.2386 67.6566 24.4956C68.3668 23.7201 68.9496 22.4592 68.9496 22.2341V22.2368Z" fill="#344054"/>
<path fill-rule="evenodd" clip-rule="evenodd" d="M67.5604 19.2649C67.5604 19.2649 66.9152 19.0724 66.655 18.7795C66.3975 18.4894 67.1402 18.3917 67.3977 18.5219C67.6878 18.6521 67.5902 19.0073 67.5604 19.2649Z" fill="#344054"/>
<path fill-rule="evenodd" clip-rule="evenodd" d="M67.047 21.0413C67.047 21.0413 66.4018 22.0744 66.3042 22.4947C66.2067 22.9476 65.8516 22.3971 65.8516 22.3971C65.8516 22.3971 66.4642 21.1037 66.5943 21.0088C66.7244 20.9112 67.047 21.0413 67.047 21.0413Z" fill="#344054"/>
<path fill-rule="evenodd" clip-rule="evenodd" d="M65.6859 23.11C65.6859 23.11 66.3961 23.0775 66.1061 23.5954C65.8486 24.1133 65.4609 23.7581 65.4609 23.7581C65.4609 23.7581 65.6859 23.5005 65.6859 23.1127V23.11Z" fill="#344054"/>
<path fill-rule="evenodd" clip-rule="evenodd" d="M65.653 24.3708C65.653 24.3708 64.9103 26.4072 64.9103 27.02C64.9103 27.6328 64.1025 26.6973 63.8125 26.6973C64.2001 25.9218 65.0404 24.3708 65.3305 24.3708H65.653Z" fill="#344054"/>
<path fill-rule="evenodd" clip-rule="evenodd" d="M66.3039 26.9226C66.3039 26.9226 65.5286 26.665 65.366 26.5349C65.2359 26.4047 64.9133 27.6331 65.656 27.6656C66.3988 27.6981 66.4313 27.5029 66.3988 27.0528L66.3012 26.9226H66.3039Z" fill="#344054"/>
<path fill-rule="evenodd" clip-rule="evenodd" d="M70.275 21.6564C70.275 21.6564 68.2718 24.4684 67.9492 24.6934C68.5618 24.951 69.5322 25.4039 69.8548 25.0812C70.1448 24.791 71.2752 22.8197 71.3402 22.3669C71.3728 21.9466 70.7276 21.849 70.275 21.6564Z" fill="#344054"/>
<path fill-rule="evenodd" clip-rule="evenodd" d="M66.9475 26.4732C66.9475 26.4732 67.205 25.44 67.6902 25.44C68.1754 25.44 69.4033 25.2448 69.9834 25.8278C70.5337 25.958 70.8888 26.1505 71.2113 26.3132C71.5014 26.4759 71.8239 26.766 72.4393 26.766C73.0221 26.766 73.5696 26.9287 73.5696 26.9287C72.5043 27.0263 71.6315 26.9613 71.3415 27.0589C71.0189 27.1565 70.2762 27.5117 69.8885 27.5117C69.5009 27.5117 67.4002 27.2866 66.9475 27.0589L66.5273 26.8338C68.0453 26.8989 68.9181 27.189 69.3058 26.8989C69.7259 26.5762 66.9475 26.4786 66.9475 26.4786V26.4732Z" fill="#344054"/>
<path fill-rule="evenodd" clip-rule="evenodd" d="M63.9459 25.8574C63.9459 25.8574 61.0374 26.0201 60.7148 25.955C61.5226 26.3103 63.4607 26.6004 63.6234 26.6004C63.8158 26.6004 63.9459 25.8574 63.9459 25.8574Z" fill="#344054"/>
<path fill-rule="evenodd" clip-rule="evenodd" d="M57.0938 13.9967C57.0938 13.9967 57.7064 14.0618 57.9015 14.5472C58.0642 15.0325 57.4488 14.4821 57.4488 14.4821L57.0938 13.9967Z" fill="#344054"/>
<path fill-rule="evenodd" clip-rule="evenodd" d="M63.5845 11.7029C63.5845 11.7029 62.8743 11.5077 62.8418 11.6378C62.8093 11.768 63.1969 12.2506 63.1969 12.6086C63.1969 12.9665 63.1969 11.8981 63.552 11.8331L63.5845 11.7029Z" fill="#344054"/>
<path fill-rule="evenodd" clip-rule="evenodd" d="M62.3293 19.1348C62.3293 19.1348 58.2904 18.9097 57.7103 18.9097C57.16 18.9097 56.3523 20.5909 56.1923 21.0438L56.0297 21.5291C55.9321 21.4641 55.7722 21.6268 55.577 21.8844C55.4144 22.142 54.9319 22.207 54.9319 22.207C54.9319 22.207 53.2513 22.4972 52.3486 22.142C51.4108 21.8193 51.1207 23.3703 50.9608 23.3703C50.7656 23.3703 51.0909 24.7288 51.0909 24.7288C51.0909 24.7288 51.5436 28.639 51.8336 28.6715C52.0911 28.704 52.5113 28.5413 52.8339 29.3169C53.1239 30.1249 54.8045 30.1249 54.8045 30.1249L54.837 29.4145C54.837 29.4145 54.547 29.4145 54.2244 29.0593C53.9344 28.704 53.5793 27.9611 52.8366 27.6709C52.0938 27.3808 53.0941 27.3157 53.0941 27.3157C53.0941 27.3157 52.7715 26.8954 52.1237 26.4426C51.4785 26.0223 51.7686 24.2462 51.961 24.116C52.1237 23.9858 52.3812 23.5655 52.4462 23.3079C52.4788 23.0178 55.2246 23.4706 55.7749 23.1127C56.2926 22.7575 56.5176 23.1453 55.9701 22.4674C55.4523 21.7569 58.3283 22.3697 58.3283 22.3697C58.3283 22.3697 59.9439 22.4023 60.6541 22.725C61.3968 23.0476 64.3378 24.1133 64.7255 24.4387C65.1131 24.7614 65.8558 21.3366 66.3085 20.7536C66.7612 20.1706 62.8199 19.2351 62.8199 19.2351C62.8199 19.2351 61.3344 22.2721 61.1067 22.2721C60.9143 22.2721 60.8492 22.1094 62.3347 19.1375L62.3293 19.1348Z" fill="#344054"/>
<path fill-rule="evenodd" clip-rule="evenodd" d="M60.6499 24.7269C60.6499 24.7269 59.3894 24.3391 59.262 23.9188C59.1319 23.466 61.0402 24.7269 61.3303 24.7269C61.5878 24.7269 61.3303 25.4699 61.1351 25.5675C60.9724 25.6651 62.073 25.4699 62.2329 25.4373C62.3955 25.4048 64.0084 25.5349 64.0084 24.5967C63.2331 24.4991 62.4579 24.6618 61.4549 23.5961C60.162 23.466 59.4192 22.9508 58.9991 22.6905C58.5464 22.4003 57.0935 22.6254 57.0935 22.6254C57.0935 22.6254 56.9309 23.1108 58.5464 23.0782C59.0642 23.3033 59.2566 23.4985 59.0316 23.4985C58.8066 23.4985 56.7709 23.3033 55.0578 23.6287C55.0578 23.6287 54.1199 23.7263 53.67 23.5961C53.1848 23.466 52.442 24.3717 52.442 24.3717C52.442 24.3717 52.0219 25.2123 52.3445 25.6976C52.6345 26.183 54.4777 28.252 54.5726 28.9299C55.4129 29.4152 56.1556 29.7379 56.3481 29.9955C56.5731 30.2531 57.0257 30.2206 57.1884 30.3833C57.3836 30.546 59.2891 29.9304 59.2891 29.9304C59.2891 29.9304 59.159 28.2818 57.1559 28.2493C56.8333 28.5394 56.8008 29.0573 56.4131 28.8621C56.0255 28.637 56.5107 28.4418 56.5107 28.1842C56.5107 27.9266 56.0255 27.9591 55.8981 27.9266C55.768 27.894 55.2855 27.5063 55.2205 27.2161C55.1879 26.9585 54.0576 26.0203 54.0576 26.0203C54.0576 26.0203 53.5724 25.2448 55.0578 25.5675C56.5433 25.8576 56.5107 26.6657 59.4843 26.3105C60.6472 25.7925 60.6472 24.7269 60.6472 24.7269H60.6499Z" fill="#344054"/>
<path fill-rule="evenodd" clip-rule="evenodd" d="M70.5664 24.9511C70.5664 24.9511 71.6642 22.6571 71.6642 22.2042C71.6642 21.7188 73.3123 19.555 73.2472 19.1672C74.3776 19.1021 80.8072 19.8451 81.905 21.0084C83.0354 22.2042 83.6805 24.9511 83.6805 26.5997C82.9703 26.7299 81.7099 27.1827 81.0647 27.9582C80.482 27.9582 79.2893 27.6356 78.8989 27.6356C78.5086 27.6356 78.0586 27.7006 77.381 27.0526C76.2832 26.9875 75.9606 26.9875 75.6055 26.9875C75.2829 26.9875 74.5727 26.5997 74.5727 26.5997C74.5727 26.5997 73.6999 26.0167 72.4069 26.0167C71.6642 25.5964 71.2766 25.3388 70.5664 25.2087V24.9511Z" fill="#344054"/>
<path fill-rule="evenodd" clip-rule="evenodd" d="M73.4386 18.6494C73.4386 18.6494 79.7381 18.8447 81.9012 20.6858C80.9959 19.49 77.0546 18.1966 73.566 18.1966C73.2434 18.4542 73.4359 18.6494 73.4359 18.6494H73.4386Z" fill="#344054"/>
<path fill-rule="evenodd" clip-rule="evenodd" d="M75.9609 27.3106C75.9609 27.3106 76.4787 28.4413 76.6711 28.764C76.8663 29.0867 78.8369 30.2825 80.4172 30.4127C81.9677 30.5428 85.3913 30.6052 85.6515 30.7354C85.909 30.8655 86.977 33.2897 87.492 33.7398C87.5571 34.4177 87.427 34.8055 88.3323 35.0007C89.2702 35.1959 88.6874 36.0338 89.8503 36.389C91.0457 36.7117 90.1729 36.0338 90.8505 36.0338C91.5282 36.0338 90.9156 36.2264 91.7559 36.0989C92.6287 35.9688 91.1731 34.2577 90.8505 34.1276C90.528 33.9974 89.8503 34.678 89.8503 34.678C89.8503 34.678 89.2675 35.1309 89.3976 33.8049C88.8148 33.1595 88.7525 33.4822 88.6224 32.9643C88.4923 32.4464 87.1044 29.1518 86.4593 28.3112C85.7816 27.4381 85.6515 28.5688 84.1335 28.181C82.6481 27.7607 82.7132 27.373 82.7132 27.373C82.7132 27.373 82.0355 27.8909 81.7129 27.956C81.3904 28.0536 81.1952 28.764 81.1952 28.764C81.1952 28.764 80.42 28.3763 79.8073 28.2461C79.2246 28.116 78.7746 28.3763 78.7746 28.3763C78.7746 28.3763 78.387 28.6339 77.2566 27.7634C76.3513 27.3106 76.4163 27.3106 75.9636 27.3106H75.9609Z" fill="#344054"/>
<path fill-rule="evenodd" clip-rule="evenodd" d="M83.1641 27.3103C83.1641 27.3103 83.6818 27.5055 84.0694 27.7631C84.4896 28.0533 85.1347 27.8933 85.1347 27.8933C85.1347 27.8933 84.3595 26.5348 83.1641 27.3103Z" fill="#344054"/>
<path fill-rule="evenodd" clip-rule="evenodd" d="M83.9402 30.9301C83.9402 30.9301 84.4905 33.2241 84.4905 34.1948C85.0082 34.6802 85.3958 34.6151 85.5232 35.068C85.6533 35.5208 86.1684 35.8435 86.5885 35.5208C86.9761 35.1981 86.9761 36.0387 86.9761 36.0387L87.8164 36.5892C87.8164 36.5892 88.0739 35.3934 87.8164 35.2632C87.5589 35.133 86.9111 34.2626 86.6536 33.8098C86.5235 34.1325 86.2334 33.9399 86.1033 33.3569C85.9732 32.7739 85.5205 31.5808 85.5205 31.2554C85.5205 30.9301 83.9375 30.9328 83.9375 30.9328L83.9402 30.9301Z" fill="#344054"/>
<path fill-rule="evenodd" clip-rule="evenodd" d="M76.1568 28.2486C76.1568 28.2486 75.8017 27.5056 74.1211 27.248C74.1861 27.7008 74.4437 27.5056 74.6388 27.7008C74.8313 27.8933 75.5442 28.1862 75.5442 28.4438C75.5442 28.7014 76.1568 28.8966 76.1568 28.2486Z" fill="#344054"/>
<path fill-rule="evenodd" clip-rule="evenodd" d="M82.4861 20.6213C82.3885 20.6538 83.0689 21.2341 83.1313 21.2666C83.5189 21.4619 84.1315 21.5568 84.4893 21.2341C84.6519 21.4591 84.9094 21.6544 85.0721 21.8794C85.2971 22.2347 85.4597 22.655 85.5573 23.0753C85.8473 24.4338 86.9153 26.0797 89.176 26.0797C89.8862 26.2099 90.2738 26.3373 90.5015 26.4349C90.4364 26.0146 90.0488 25.692 89.4037 25.5943C90.0488 25.3367 90.3091 25.174 90.9867 25.2066C91.6318 25.2717 92.2146 25.5943 92.6023 26.0472C92.6023 26.0472 93.3775 26.0472 91.6318 24.5938C90.534 24.206 89.7913 24.1084 89.6287 23.8508C90.3714 23.7532 91.1141 23.5932 91.8894 24.206C92.6971 24.8188 92.5995 25.0791 93.3748 25.0791C92.7622 24.2385 92.8896 24.3036 92.6321 23.7532C92.3746 23.2352 91.5343 23.0753 90.3063 23.3003C89.1109 23.4956 89.1435 23.3003 89.1435 23.3003L89.2736 23.6881C89.2736 23.6881 87.9155 23.8508 87.4005 22.3296C87.078 21.9418 87.0129 21.8117 87.0129 21.8117C87.5957 22.0693 87.8207 22.5221 87.8207 22.5546C87.9508 22.7797 88.4983 22.9424 88.726 23.0075C89.5338 23.2325 90.2765 22.7499 91.0843 22.8149C91.6969 22.8475 92.2146 23.1376 92.7649 23.3329C92.4749 22.6224 92.2146 22.3621 91.602 22.1045C91.1493 22.1045 90.9894 22.2672 90.3741 22.3296C89.7615 22.3621 88.6284 22.4597 86.918 20.6158C85.045 19.5176 82.4915 20.6158 82.4915 20.6158L82.4861 20.6213Z" fill="#344054"/>
<path fill-rule="evenodd" clip-rule="evenodd" d="M58.3885 18.4251C58.3885 18.5878 58.1933 18.6827 57.9358 18.6827C57.7108 18.6827 57.5156 18.5851 57.5156 18.4251C57.5156 18.2949 57.7081 18.1675 57.9358 18.1675C58.1933 18.1675 58.3885 18.2976 58.3885 18.4251Z" fill="#344054"/>
<path fill-rule="evenodd" clip-rule="evenodd" d="M59.0658 18.1998C59.0658 18.33 58.9682 18.4249 58.8083 18.4249C58.6782 18.4249 58.5508 18.3273 58.5508 18.1998C58.5508 18.1022 58.6809 18.0046 58.8083 18.0046C58.9709 18.0046 59.0658 18.1022 59.0658 18.1998Z" fill="#344054"/>
<path fill-rule="evenodd" clip-rule="evenodd" d="M59.9695 18.2318C59.9695 18.3619 59.8394 18.4894 59.7445 18.4894C59.6144 18.4894 59.5195 18.3592 59.5195 18.2318C59.5195 18.1043 59.6171 18.0067 59.7445 18.0067C59.8421 18.0067 59.9695 18.1043 59.9695 18.2318Z" fill="#344054"/>
<path fill-rule="evenodd" clip-rule="evenodd" d="M60.9069 18.2318C60.9069 18.3619 60.7767 18.4894 60.5843 18.4894C60.4216 18.4894 60.2617 18.3592 60.2617 18.2318C60.2617 18.1043 60.4244 18.0067 60.5843 18.0067C60.7795 18.0067 60.9069 18.1043 60.9069 18.2318Z" fill="#344054"/>
<path fill-rule="evenodd" clip-rule="evenodd" d="M61.9107 18.3271C61.9107 18.4247 61.748 18.5197 61.5556 18.5197C61.3631 18.5197 61.168 18.422 61.168 18.3271C61.168 18.197 61.3631 18.1319 61.5556 18.1319C61.748 18.1319 61.9107 18.197 61.9107 18.3271Z" fill="#344054"/>
<path fill-rule="evenodd" clip-rule="evenodd" d="M62.8443 18.4251C62.8443 18.5878 62.6817 18.6827 62.5218 18.6827C62.3266 18.6827 62.1992 18.5851 62.1992 18.4251C62.1992 18.2949 62.3293 18.1675 62.5218 18.1675C62.6844 18.1675 62.8443 18.2976 62.8443 18.4251Z" fill="#344054"/>
<path fill-rule="evenodd" clip-rule="evenodd" d="M63.7493 18.9429C63.7493 19.1056 63.6192 19.233 63.4593 19.233C63.2994 19.233 63.1367 19.1029 63.1367 18.9429C63.1367 18.8127 63.2994 18.6853 63.4593 18.6853C63.6192 18.6853 63.7493 18.8155 63.7493 18.9429Z" fill="#344054"/>
<path fill-rule="evenodd" clip-rule="evenodd" d="M64.5567 19.1024C64.5567 19.2326 64.4266 19.36 64.2992 19.36C64.1718 19.36 64.0742 19.2299 64.0742 19.1024C64.0742 18.975 64.1718 18.8774 64.2992 18.8774C64.4266 18.8774 64.5567 18.975 64.5567 19.1024Z" fill="#344054"/>
<path fill-rule="evenodd" clip-rule="evenodd" d="M65.3652 19.4908C65.3652 19.5884 65.2351 19.6535 65.0752 19.6535C64.9153 19.6535 64.7852 19.5884 64.7852 19.4908C64.7852 19.4257 64.9153 19.3607 65.0752 19.3607C65.2351 19.3607 65.3652 19.4257 65.3652 19.4908Z" fill="#344054"/>
<path fill-rule="evenodd" clip-rule="evenodd" d="M65.332 19.7183C65.332 19.8484 65.5245 19.9135 65.7522 19.9135C65.9799 19.9135 66.1723 19.8484 66.1723 19.7183C66.1723 19.6207 65.9799 19.5258 65.7522 19.5258C65.5245 19.5258 65.332 19.6234 65.332 19.7183Z" fill="#344054"/>
<path fill-rule="evenodd" clip-rule="evenodd" d="M66.8836 20.1057C66.8836 20.2034 66.7535 20.2983 66.6586 20.2983C66.5285 20.2983 66.4336 20.2006 66.4336 20.1057C66.4336 19.9756 66.5312 19.8807 66.6586 19.8807C66.7562 19.8807 66.8836 19.9783 66.8836 20.1057Z" fill="#344054"/>
<path fill-rule="evenodd" clip-rule="evenodd" d="M69.9168 7.75998C69.9168 7.75998 67.461 7.24207 65.0376 7.56746C64.65 8.47314 64.3274 8.98834 64.1973 9.34356C64.9726 9.40864 65.4253 9.34356 65.4253 9.73132C65.4253 10.1191 64.2624 10.9597 63.8097 11.38C63.7447 12.3507 64.3275 15.4203 64.585 15.9056C65.6448 15.423 68.2362 14.1431 69.8843 7.87387C69.8951 7.89285 69.9087 7.91183 69.9249 7.93353C69.9656 7.98505 70.0225 8.0447 70.0903 8.10978C69.6376 9.66895 69.1063 11.3095 68.2958 12.7439C67.4826 14.1811 66.3875 15.4148 64.8099 16.1497L64.856 16.25C66.458 15.5043 67.5667 14.257 68.3907 12.7981C69.212 11.3474 69.746 9.68793 70.2041 8.10978L70.2123 8.07995L70.1906 8.05826C70.1174 7.98505 70.0523 7.91726 70.0117 7.86574C69.9846 7.83049 69.9602 7.81964 69.9629 7.81693L69.9087 7.78168C69.9087 7.78168 69.9114 7.77083 69.9141 7.7627L69.9168 7.75998Z" fill="#344054"/>
</g>
<defs>
<clipPath id="clip0_518_769">
<rect width="145.459" height="70" fill="white" transform="translate(0 0.715332)"/>
</clipPath>
</defs>
</svg>
