<svg width="136" height="70" viewBox="0 0 136 70" fill="none" xmlns="http://www.w3.org/2000/svg">
<path d="M64.7135 40.5335L59.209 32.9488C58.4059 33.4805 57.7432 34.1983 57.2771 35.0412C56.811 35.8841 56.5554 36.827 56.5321 37.7899C56.5321 40.7044 58.2414 42.4253 60.9357 42.4253C62.6102 42.4253 63.6387 41.6199 64.7222 40.5364M61.095 24.4864C61.095 26.1522 61.6745 27.2299 62.7319 28.7654C64.6353 27.7572 65.5624 26.3463 65.5624 24.4429C65.5624 23.1334 64.9134 21.8355 63.4967 21.8355C61.9555 21.8355 61.095 23.0813 61.095 24.4951M66.9878 43.0713C64.7918 44.7922 62.1699 45.2036 60.1535 45.2036C55.1878 45.2036 51.1869 42.5557 51.1 38.0622C51.0276 34.154 54.6924 31.4192 57.688 30.5095C56.7581 29.2753 55.9498 27.8673 55.9498 25.9958C55.9498 21.6501 59.6697 19.5294 63.5982 19.5294C67.4745 19.5294 70.2876 21.6762 70.2876 25.0832C70.2876 28.0527 67.3122 29.9011 64.6034 31.0831L68.332 36.634C69.5984 34.917 70.5302 32.9769 71.0785 30.9151C71.1133 30.7586 71.2436 30.4979 71.7564 30.4979H77.7302C78.0692 30.4979 78.4864 30.4515 78.1967 31.17L77.4811 32.7779C77.4272 32.9209 77.3303 33.0437 77.2037 33.1293C77.077 33.2149 76.927 33.2592 76.7742 33.2559H75.9485C75.2938 33.2559 75.0417 33.6412 74.6564 34.2323C74.6564 34.2323 73.7873 35.646 73.1905 36.5065C72.2113 37.8797 71.9708 38.323 70.4527 39.844C70.8494 40.4492 71.3886 40.9478 72.0231 41.2959C72.6576 41.6439 73.3679 41.8308 74.0915 41.8401H75.1634C75.343 41.8401 75.9225 41.7676 75.6559 42.4195L74.9287 44.1578C74.8873 44.3118 74.7912 44.4454 74.6585 44.5339C74.5258 44.6224 74.3655 44.6596 74.2074 44.6387H71.797C71.797 44.6387 68.7869 44.8531 66.982 43.0337M105.183 44.6416L97.0714 17.8201L86.2883 44.6416H105.183ZM135.151 64.6345V68.4616C135.16 68.5976 135.139 68.7339 135.091 68.8613C135.042 68.9887 134.968 69.1044 134.871 69.2006C134.775 69.2969 134.659 69.3714 134.531 69.4193C134.403 69.4672 134.267 69.4874 134.131 69.4785H105.658C105.524 69.4877 105.389 69.4683 105.263 69.4215C105.136 69.3748 105.021 69.3018 104.925 69.2073C104.829 69.1129 104.754 68.9991 104.705 68.8736C104.656 68.748 104.635 68.6136 104.642 68.479V64.6345C104.634 64.4995 104.655 64.3644 104.703 64.2381C104.752 64.1119 104.827 63.9974 104.923 63.9023C105.019 63.8072 105.135 63.7337 105.261 63.6866C105.388 63.6395 105.523 63.62 105.658 63.6292L108.011 63.5742C109.856 63.5365 110.311 62.65 110.329 61.8041C110.333 61.4595 110.288 61.1162 110.195 60.7843C110.004 60.0281 109.419 58.2145 109.419 58.2145C109.419 58.2145 107.753 52.8723 106.707 49.9549H84.1676L80.4014 59.2256C80.0623 59.9542 79.8656 60.7409 79.822 61.5433C79.822 63.4902 81.6819 63.5945 83.4434 63.6205L85.5843 63.6379C85.7186 63.6273 85.8535 63.6456 85.9801 63.6917C86.1066 63.7378 86.2217 63.8106 86.3176 63.9051C86.4136 63.9997 86.488 64.1137 86.5359 64.2396C86.5839 64.3654 86.6041 64.5001 86.5954 64.6345V68.4703C86.6057 68.606 86.5867 68.7423 86.5396 68.87C86.4925 68.9976 86.4185 69.1136 86.3226 69.2101C86.2266 69.3066 86.111 69.3813 85.9836 69.4291C85.8563 69.4769 85.7201 69.4967 85.5843 69.4872H66.3243C66.189 69.4977 66.053 69.4787 65.9257 69.4316C65.7985 69.3844 65.6829 69.3102 65.5871 69.2141C65.4913 69.118 65.4174 69.0023 65.3706 68.8748C65.3239 68.7474 65.3053 68.6114 65.3161 68.4761V64.6345C65.3056 64.4996 65.3245 64.364 65.3715 64.2371C65.4185 64.1101 65.4925 63.9949 65.5884 63.8993C65.6842 63.8038 65.7996 63.7301 65.9267 63.6835C66.0538 63.6369 66.1894 63.6184 66.3243 63.6292L66.982 63.6119C66.982 63.6119 69.0505 63.693 70.2094 63.1078C71.3682 62.5225 71.8404 61.7896 72.3561 60.5786L97.1032 1.34426C97.1978 1.07465 97.3783 0.843555 97.6169 0.686525C97.8556 0.529495 98.1393 0.455221 98.4243 0.475126H106.325C106.604 0.453617 106.883 0.527975 107.115 0.685955C107.346 0.843935 107.517 1.07612 107.599 1.34426C109.845 7.77005 128.256 60.286 128.267 60.3062C129.154 62.7862 130.026 63.6119 132.929 63.6176H134.137C134.272 63.6074 134.408 63.6263 134.535 63.673C134.662 63.7198 134.777 63.7933 134.874 63.8887C134.97 63.984 135.044 64.0989 135.092 64.2256C135.14 64.3523 135.16 64.4878 135.151 64.6229M54.1767 50.9573V68.4558C54.1867 68.5908 54.1674 68.7263 54.1203 68.8531C54.0731 68.9799 53.9992 69.0951 53.9035 69.1908C53.8078 69.2865 53.6927 69.3604 53.5658 69.4075C53.439 69.4547 53.3035 69.474 53.1686 69.464H49.1416C48.934 69.4789 48.7275 69.4239 48.5548 69.3079C48.3821 69.1919 48.2531 69.0215 48.1884 68.8238C47.9595 68.3081 47.5221 67.6823 46.5921 67.6823C44.3555 67.6823 40.3865 70 31.4982 70C11.3719 70.0232 0.417969 53.3793 0.417969 35.1506C0.417969 13.5614 13.5332 0 31.3794 0C37.0403 0 40.2098 1.13856 42.0987 1.91499C43.6081 2.61899 44.3005 3.07383 45.2855 3.07383C46.6501 3.07383 47.0701 2.3032 47.5395 1.27473C47.8292 0.677924 48.0146 0.478023 48.5158 0.478023H52.5312C52.6666 0.468305 52.8025 0.488064 52.9295 0.535937C53.0565 0.583809 53.1716 0.658658 53.2669 0.755321C53.3622 0.851984 53.4353 0.968162 53.4814 1.09585C53.5274 1.22353 53.5452 1.35968 53.5336 1.49491V19.0224C53.5455 19.1572 53.5278 19.2929 53.4816 19.4201C53.4355 19.5473 53.3621 19.6628 53.2666 19.7586C53.1711 19.8544 53.0557 19.9281 52.9287 19.9746C52.8017 20.0211 52.666 20.0392 52.5312 20.0277H48.5998C48.0552 20.0277 47.7307 19.8162 47.5887 19.1093C46.0909 10.8729 43.1532 5.90141 33.9202 5.90141C22.2825 5.90141 19.4839 23.8635 19.4839 32.7084C19.4839 46.1857 21.0077 64.2029 34.4069 64.2029C44.1064 64.2029 46.989 58.6984 48.229 50.853C48.3825 50.091 48.8605 49.9636 49.214 49.9636H53.1686C53.3037 49.955 53.4391 49.9754 53.5657 50.0234C53.6923 50.0714 53.8072 50.1459 53.9026 50.2419C53.9981 50.3379 54.0719 50.4532 54.1192 50.5801C54.1665 50.707 54.1861 50.8425 54.1767 50.9776" fill="#DB0032"/>
</svg>
