<svg width="191" height="32" viewBox="0 0 191 32" fill="none" xmlns="http://www.w3.org/2000/svg">
<g clip-path="url(#clip0_518_379)">
<path fill-rule="evenodd" clip-rule="evenodd" d="M15.7122 28.822C9.06033 28.822 3.38339 22.7932 3.38339 16.2162C3.38339 9.63927 8.94862 3.51906 15.6716 3.51906C20.0893 3.51906 23.2679 5.66063 25.8576 8.99985H29.1074C28.1324 7.24397 27.0864 5.63018 25.492 4.37163C22.7703 2.16916 19.226 0.859863 15.7122 0.859863C7.28311 0.859863 0.417969 7.81234 0.417969 16.1959C0.417969 24.5795 7.37451 31.4812 15.763 31.4812C19.1854 31.4812 22.5367 30.2227 25.2178 28.1116C26.9036 26.7617 28.0918 25.0058 29.2292 23.1991H25.9795C23.4101 26.5485 20.14 28.822 15.7224 28.822H15.7122Z" fill="#231F20"/>
<path fill-rule="evenodd" clip-rule="evenodd" d="M49.4393 12.7957C47.398 10.1568 44.6154 8.50238 41.1726 8.50238C34.9981 8.50238 29.9102 13.5163 29.9102 19.6872C29.9102 25.8582 35.0184 30.9127 41.1726 30.9127C44.7576 30.9127 47.2558 29.4207 49.4393 26.66V30.4154H52.1203V9.03016H49.4393V12.8058V12.7957ZM41.0305 28.4362C36.3081 28.4362 32.5709 24.3256 32.5709 19.6974C32.5709 15.0692 36.2777 10.9586 41.0305 10.9586C45.7833 10.9586 49.4393 15.0895 49.4393 19.6974C49.4393 24.3053 45.7325 28.4362 41.0305 28.4362Z" fill="#231F20"/>
<path fill-rule="evenodd" clip-rule="evenodd" d="M55.3789 30.416H58.2529V1.47943H55.3789V30.416Z" fill="#231F20"/>
<path fill-rule="evenodd" clip-rule="evenodd" d="M69.111 27.0156L61.8396 9.03052H58.9961L67.7095 30.4157H70.6039L79.297 9.03052H76.4941L69.111 27.0156Z" fill="#231F20"/>
<path fill-rule="evenodd" clip-rule="evenodd" d="M80.4844 30.4157H83.3584V9.03052H80.4844V30.4157Z" fill="#231F20"/>
<path fill-rule="evenodd" clip-rule="evenodd" d="M80.4844 6.27004H83.3584V1.47943H80.4844V6.27004Z" fill="#231F20"/>
<path fill-rule="evenodd" clip-rule="evenodd" d="M95.7369 8.50238C93.0253 8.50238 91.1059 9.92333 89.3287 11.8213V9.02001H86.668V30.4154H89.4912V17.3833C89.4709 13.9426 92.3145 10.9789 95.7876 10.9789C100.134 10.9789 102.318 14.7545 102.318 18.6418V30.4154H104.978V18.6418C104.978 13.09 101.729 8.50238 95.7369 8.50238Z" fill="#231F20"/>
<path fill-rule="evenodd" clip-rule="evenodd" d="M131.649 1.47943L118.589 18.074V1.47943H115.766V30.416H118.589V22.4587L122.296 17.8609L131.72 30.416H135.305L124.103 15.5772L135.305 1.47943H131.649Z" fill="#231F20"/>
<path fill-rule="evenodd" clip-rule="evenodd" d="M136.352 30.416H139.154V1.47943H136.352V30.416Z" fill="#231F20"/>
<path fill-rule="evenodd" clip-rule="evenodd" d="M162.357 14.4095C160.407 10.7759 156.518 8.50238 152.405 8.50238C146.281 8.50238 141.102 13.6076 141.102 19.7278C141.102 25.8481 146.332 30.9127 152.455 30.9127C155.38 30.9127 158.254 29.7455 160.367 27.7359C161.646 26.5281 162.408 25.0056 163.098 23.4121H160.082C158.559 26.3758 155.878 28.4464 152.415 28.4464C150.302 28.4464 148.231 27.5938 146.667 26.1424C145.052 24.6707 144.341 22.8641 144.026 20.7327H163.769C163.769 18.4997 163.464 16.3683 162.367 14.4196L162.357 14.4095ZM144.118 18.2561C144.971 14.2471 148.129 10.9687 152.455 10.9687C156.091 10.9687 159.981 13.2016 160.844 18.2561H144.118Z" fill="#231F20"/>
<path fill-rule="evenodd" clip-rule="evenodd" d="M165.852 30.4157H168.685V9.03052H165.852V30.4157Z" fill="#231F20"/>
<path fill-rule="evenodd" clip-rule="evenodd" d="M165.852 6.37154H168.685V1.47943H165.852V6.37154Z" fill="#231F20"/>
<path fill-rule="evenodd" clip-rule="evenodd" d="M181.107 8.50238C178.355 8.50238 176.425 9.92333 174.618 11.8213V9.02001H171.906V30.4154H174.76V17.3833C174.74 13.9223 177.654 10.9789 181.148 10.9789C185.474 10.9789 187.749 14.7545 187.749 18.6418V30.4154H190.41V18.6418C190.41 13.09 187.109 8.50238 181.097 8.50238H181.107Z" fill="#231F20"/>
</g>
<defs>
<clipPath id="clip0_518_379">
<rect width="190" height="30.6214" fill="white" transform="translate(0.417969 0.859863)"/>
</clipPath>
</defs>
</svg>
