<svg width="191" height="43" viewBox="0 0 191 43" fill="none" xmlns="http://www.w3.org/2000/svg">
<g clip-path="url(#clip0_518_965)">
<path d="M20.7193 21.6979C19.0709 20.0489 17.3358 18.9206 15.4271 18.9206C10.3084 18.9206 7.27185 22.913 7.27185 27.2525C7.27185 31.592 10.3084 35.5843 15.4271 35.5843C17.5961 35.5843 19.5047 34.6296 20.8061 32.9806L25.4043 37.9276C22.5413 40.7917 17.8563 41.8332 15.4271 41.8332C7.09833 41.7464 0.417969 35.9315 0.417969 27.2525C0.417969 18.5735 7.09833 12.6718 15.5139 12.6718C19.0709 12.6718 22.8883 13.9736 25.5778 16.9245L20.7193 21.6979Z" fill="#00A9E0"/>
<path d="M41.3671 12.6718C36.9424 12.6718 32.6913 13.9736 29.568 17.098L33.2118 20.7432C35.0338 19.0074 37.7233 17.8791 40.5863 17.8791C44.3169 17.8791 46.9196 19.7017 46.9196 23.0865V23.8677H45.1845C38.2438 23.8677 27.7461 24.4752 27.7461 33.5013C27.7461 38.9691 32.6913 41.8332 37.81 41.8332C41.5406 41.8332 44.7507 40.4445 46.6593 37.3201H46.8329V41.1389H53.0794V25.1695C53.1662 21.1772 53.1662 12.6718 41.3671 12.6718ZM46.5726 30.2033C46.5726 34.1089 44.3169 36.539 39.5452 36.539C37.2895 36.539 34.6867 35.4107 34.6867 32.8938C34.6867 28.9015 41.2803 28.6411 45.0977 28.6411H46.5726V30.2033Z" fill="#00A9E0"/>
<path d="M58.0243 13.3661H64.9649V17.7924H65.0517C66.5265 14.5811 69.6498 12.6718 73.2069 12.6718C74.0745 12.6718 74.8553 12.8453 75.7229 13.1057V19.7885C74.595 19.5282 73.4672 19.2678 72.3393 19.2678C65.8325 19.2678 64.8781 24.7356 64.8781 26.2978V41.1389H57.9375V13.3661H58.0243Z" fill="#00A9E0"/>
<path d="M79.1953 19.2681V13.3664H84.9213V5.29492H91.862V13.2796H99.4967V19.1813H91.862V31.3319C91.862 34.1092 92.6428 35.845 95.7661 35.845C96.9807 35.845 98.6291 35.5846 99.4967 34.9771V40.792C98.0218 41.4863 95.5926 41.7467 94.0309 41.7467C86.6565 41.7467 85.0081 38.4487 85.0081 31.9394V19.2681H79.1953Z" fill="#00A9E0"/>
<path d="M130.207 27.7732C130.207 18.1395 124.915 12.6718 117.194 12.6718C108.865 12.6718 102.098 18.4867 102.098 27.2525C102.098 35.9315 108.778 41.8332 117.194 41.8332C121.618 41.8332 125.696 40.271 128.906 36.2786L123.961 32.5466C122.226 34.7164 119.97 36.2786 116.499 36.2786C112.595 36.2786 109.472 33.7617 109.038 29.6826H130.207V27.7732ZM109.038 24.4752C109.559 20.4828 112.075 17.8791 116.239 17.8791C120.577 17.8791 123.267 20.3961 123.267 24.4752H109.038Z" fill="#00A9E0"/>
<path d="M134.113 13.3661H141.054V17.7924H141.141C142.616 14.5811 145.739 12.6718 149.383 12.6718C150.25 12.6718 151.031 12.8453 151.899 13.1057V19.7885C150.771 19.5282 149.643 19.2678 148.515 19.2678C142.008 19.2678 141.054 24.7356 141.054 26.2978V41.1389H134.113V13.3661Z" fill="#00A9E0"/>
<path d="M158.23 1.64941H165.257L160.833 15.449H154.586L158.23 1.64941Z" fill="#00A9E0"/>
<path d="M178.617 21.003C177.316 19.1804 175.581 18.1389 173.151 18.1389C171.33 18.1389 169.074 19.0068 169.074 21.0898C169.074 26.0368 183.996 22.0445 183.996 32.8064C183.996 39.4024 177.663 41.7458 172.024 41.7458C167.772 41.7458 164.042 40.6175 161.266 37.4931L165.864 33.1536C167.686 35.1497 169.508 36.5384 172.457 36.5384C174.453 36.5384 177.056 35.5837 177.056 33.3272C177.056 27.599 162.133 32.1121 162.133 21.5237C162.133 15.3616 167.686 12.5844 173.238 12.5844C176.969 12.5844 180.873 13.7126 183.129 16.8371L178.617 21.003Z" fill="#00A9E0"/>
<path d="M187.556 13.7126C186.342 13.7126 185.301 14.6673 185.301 15.9692C185.301 17.1842 186.255 18.2257 187.556 18.2257C188.771 18.2257 189.812 17.271 189.812 15.9692C189.812 14.6673 188.771 13.7126 187.556 13.7126ZM187.556 17.7918C186.515 17.7918 185.735 17.0107 185.735 15.9692C185.735 14.9277 186.515 14.1466 187.556 14.1466C188.511 14.1466 189.378 14.9277 189.378 15.9692C189.378 17.0107 188.598 17.7918 187.556 17.7918Z" fill="#00A9E0"/>
<path d="M187.989 16.056C188.336 16.056 188.596 15.7956 188.596 15.3617C188.596 14.8409 188.336 14.5806 187.729 14.5806H186.688V17.0975H187.208V16.056H187.555L188.162 17.0975H188.683L187.989 16.056ZM187.208 15.7956V15.1013H187.555C187.815 15.1013 188.162 15.1013 188.162 15.4485C188.162 15.7956 187.815 15.7956 187.555 15.7956H187.208Z" fill="#00A9E0"/>
</g>
<defs>
<clipPath id="clip0_518_965">
<rect width="190" height="42.5271" fill="white" transform="translate(0.417969)"/>
</clipPath>
</defs>
</svg>
