<svg width="191" height="48" viewBox="0 0 191 48" fill="none" xmlns="http://www.w3.org/2000/svg">
<g clip-path="url(#clip0_518_584)">
<path fill-rule="evenodd" clip-rule="evenodd" d="M6.64468 20.4856L12.3927 26.1803C13.784 27.6345 13.784 29.9123 12.3927 31.3665C10.9405 32.7597 8.6047 32.7597 7.21339 31.3665L1.46536 25.6108C0.0740478 24.2177 0.0740478 21.8788 1.46536 20.4856C2.9176 19.0315 5.25337 19.0315 6.64468 20.4856Z" fill="#231F20"/>
<path fill-rule="evenodd" clip-rule="evenodd" d="M12.4537 14.6692L18.2017 20.3638C19.593 21.818 19.593 24.0959 18.2017 25.55C16.7495 26.9432 14.4746 26.9432 13.0224 25.55L7.33528 19.7944C5.88303 18.4012 5.88303 16.0623 7.33528 14.6692C8.72658 13.215 11.0624 13.215 12.4537 14.6692Z" fill="#231F20"/>
<path fill-rule="evenodd" clip-rule="evenodd" d="M29.3908 20.618L35.1388 26.3737C36.5301 27.7669 36.5301 30.1058 35.1388 31.4989C33.6866 32.9531 31.3508 32.9531 29.9595 31.4989L24.2115 25.8043C22.8201 24.3501 22.8201 22.0722 24.2115 20.618C25.6637 19.2249 27.9995 19.2249 29.3908 20.618Z" fill="#231F20"/>
<path fill-rule="evenodd" clip-rule="evenodd" d="M18.7806 14.5984L24.4677 8.90369C25.9199 7.51054 28.1948 7.51054 29.647 8.90369C31.0383 10.2969 31.0383 12.6357 29.647 14.0899L23.899 19.7846C22.5077 21.2387 20.1719 21.2387 18.7806 19.7846C17.3283 18.3914 17.3283 16.0525 18.7806 14.5984Z" fill="#231F20"/>
<path fill-rule="evenodd" clip-rule="evenodd" d="M35.2115 14.7914L40.9595 20.4861C42.3508 21.9403 42.3508 24.2792 40.9595 25.6723C39.5073 27.1265 37.2324 27.1265 35.7802 25.6723L30.0931 19.9777C28.6408 18.5235 28.6408 16.1846 30.0931 14.7914C31.4844 13.3983 33.8202 13.3983 35.2115 14.7914Z" fill="#231F20"/>
<path fill-rule="evenodd" clip-rule="evenodd" d="M12.899 8.78126L18.647 3.0866C20.0383 1.63243 22.3741 1.63243 23.8263 3.0866C25.2176 4.47976 25.2176 6.81863 23.8263 8.21179L18.0783 13.9675C16.687 15.3606 14.3512 15.3606 12.899 13.9675C11.5076 12.5133 11.5076 10.2354 12.899 8.78126Z" fill="#231F20"/>
<path fill-rule="evenodd" clip-rule="evenodd" d="M18.7064 37.641L24.3935 31.8853C25.8457 30.4922 28.1206 30.4922 29.5728 31.8853C30.9641 33.3395 30.9641 35.6174 29.5728 37.0715L23.8248 42.7662C22.4335 44.2204 20.0977 44.2204 18.7064 42.7662C17.2541 41.373 17.2541 39.0342 18.7064 37.641Z" fill="#231F20"/>
<path fill-rule="evenodd" clip-rule="evenodd" d="M12.8978 31.8144L18.5849 26.0587C20.0371 24.6656 22.312 24.6656 23.7642 26.0587C25.1555 27.5129 25.1555 29.7908 23.7642 31.2449L18.0162 36.9396C16.6249 38.3938 14.2891 38.3938 12.8978 36.9396C11.4455 35.5464 11.4455 33.2076 12.8978 31.8144Z" fill="#231F20"/>
<path fill-rule="evenodd" clip-rule="evenodd" d="M187.694 42.695C187.633 42.573 187.501 42.5018 187.38 42.5018C187.694 42.4408 187.948 42.3798 188.141 42.1866C188.334 41.9934 188.395 41.7392 188.395 41.4951C188.395 41.3019 188.395 41.1188 188.273 40.9866C188.151 40.7934 188.019 40.6714 187.826 40.6104C187.633 40.5494 187.319 40.5494 186.882 40.5494H185.684V44.0882H186.252V42.573H186.628C186.821 42.573 186.943 42.634 187.075 42.695C187.197 42.8171 187.39 43.0713 187.644 43.5187L187.958 44.0882H188.649L188.202 43.3967C188.009 43.0815 187.826 42.8272 187.694 42.7052V42.695ZM186.933 42.0646H186.242V40.9866H186.933C187.187 40.9866 187.38 41.0477 187.501 41.0477C187.562 41.1087 187.694 41.1697 187.694 41.2409C187.755 41.3019 187.816 41.4341 187.816 41.5561C187.816 41.6781 187.755 41.8103 187.623 41.9324C187.501 41.9934 187.248 42.0544 186.933 42.0544V42.0646Z" fill="#231F20"/>
<path fill-rule="evenodd" clip-rule="evenodd" d="M189.97 40.6102C189.655 40.0407 189.279 39.6645 188.772 39.4103C188.203 39.095 187.695 38.9628 187.126 38.9628C186.558 38.9628 186.05 39.0849 185.481 39.4103C184.973 39.6645 184.598 40.0407 184.283 40.6102C183.968 41.1187 183.836 41.6881 183.836 42.2576C183.836 42.8271 183.958 43.3965 184.283 43.905C184.537 44.4134 184.973 44.8507 185.481 45.1049C185.989 45.4202 186.558 45.5524 187.126 45.5524C187.695 45.5524 188.264 45.4202 188.772 45.1049C189.279 44.8507 189.716 44.4134 189.97 43.905C190.285 43.3965 190.417 42.8271 190.417 42.2576C190.417 41.6881 190.295 41.1187 189.97 40.6102ZM189.523 43.5796C189.269 44.027 188.954 44.4033 188.507 44.6575C188.061 44.8507 187.624 44.9727 187.116 44.9727C186.669 44.9727 186.172 44.8507 185.725 44.6575C185.349 44.4033 184.963 44.027 184.709 43.5796C184.516 43.2033 184.394 42.6949 184.394 42.2474C184.394 41.739 184.516 41.3017 184.709 40.8543C184.963 40.4068 185.339 40.0916 185.786 39.8374C186.233 39.5831 186.669 39.4611 187.116 39.4611C187.563 39.4611 188 39.5831 188.447 39.8374C188.893 40.0916 189.269 40.4068 189.523 40.8543C189.777 41.3017 189.838 41.739 189.838 42.2474C189.838 42.6949 189.777 43.1931 189.523 43.5796Z" fill="#231F20"/>
<path fill-rule="evenodd" clip-rule="evenodd" d="M69.3319 10.683C69.078 8.52715 69.0171 6.44249 69.0171 4.35784C65.4829 3.78838 64.0205 2.45624 59.6638 2.45624C51.8948 2.45624 45.0703 7.38822 45.0703 15.8082C45.0703 25.2959 51.3261 29.9838 59.8568 29.9838C63.269 29.9838 66.3055 29.2211 68.4484 28.2754C68.6413 26.1908 68.8952 24.1671 69.3928 22.1333L68.3163 22.0113C67.3719 25.7433 64.7111 28.2754 60.6692 28.2754C53.5299 28.2754 50.3004 21.8893 50.3004 15.6251C50.3004 8.98475 53.5197 4.10362 59.7146 4.10362C65.4017 4.10362 67.1078 7.14416 68.1843 10.8152L69.3217 10.6932L69.3319 10.683ZM78.5633 13.2151C82.2294 13.2151 83.1739 18.8487 83.1739 21.5638C83.1739 24.9806 82.4122 28.5906 78.8781 28.5906C75.344 28.5906 74.2675 24.1569 74.2675 20.9944C74.2675 17.8318 74.5823 13.2151 78.5633 13.2151ZM69.6569 20.8723C69.6569 26.1196 73.323 29.9838 78.6953 29.9838C83.7528 29.9838 87.7337 25.8043 87.7337 20.6791C87.7337 15.5539 84.1285 11.8829 78.6953 11.8829C73.2621 11.8829 69.6569 15.8082 69.6569 20.8723ZM89.7547 27.0755V5.67982C89.7547 4.85613 89.6328 4.47987 88.7391 4.16463C88.3634 3.97142 87.9165 3.78838 87.5408 3.65618V2.77148C89.186 2.32404 91.7147 1.37832 93.5427 0.554626L93.9895 0.869866V27.0653C93.9895 28.1432 94.8731 28.2652 95.9496 28.2652H96.3253V29.4042C94.8731 29.2821 93.4818 29.211 92.0295 29.211C90.4453 29.211 88.9321 29.272 87.5408 29.4042V28.2652C88.7391 28.2652 89.7547 28.2652 89.7547 27.0653V27.0755ZM97.7166 25.5603C97.7166 28.0924 98.9759 29.994 102.327 29.994C104.48 29.994 106.623 28.3466 108.268 26.9534V29.6787L108.644 29.994C110.472 29.2313 112.686 28.9161 114.646 28.5398V27.6551H113.508C112.686 27.6551 112.493 27.3399 112.493 26.323V15.4929C112.493 14.293 112.493 13.1541 112.686 12.0761L112.31 11.8829C110.543 12.5744 107.385 12.8286 105.486 12.9608V13.8455L107.385 14.476C108.146 14.7303 108.268 14.8523 108.268 15.676V25.3569C107.385 26.0484 106.115 26.9433 104.734 26.9433C102.967 26.9433 101.951 26.0586 101.951 23.8417V15.4929C101.951 14.293 102.073 13.1541 102.144 12.0761L101.769 11.8829C99.9407 12.4524 97.5338 12.8286 95.3199 12.9608V13.8455L96.9042 14.293C97.5948 14.4862 97.7268 14.7404 97.7268 15.3099V25.5603H97.7166ZM115.479 29.4245C116.87 29.3025 118.383 29.2313 119.906 29.2313C121.43 29.2313 122.75 29.2923 124.263 29.4245V28.2856H123.816C122.933 28.2856 121.917 28.2246 121.917 27.0856V16.0624C122.74 15.3709 124.192 14.6692 125.33 14.6692C127.229 14.6692 128.234 15.615 128.234 17.7708V27.0755C128.234 28.0924 127.411 28.2754 126.406 28.2754H125.959V29.4143C127.472 29.2923 128.925 29.2211 130.448 29.2211C131.839 29.2211 133.291 29.2821 134.683 29.4143V28.2754H134.175C133.159 28.2754 132.469 28.0822 132.469 27.0755V15.8082C133.352 15.2997 134.744 14.6692 135.881 14.6692C137.78 14.6692 138.786 15.615 138.786 17.7708V27.1365C138.786 28.0822 138.024 28.2754 137.08 28.2754H136.511V29.4143C138.024 29.2923 139.476 29.2211 141 29.2211C142.391 29.2211 143.782 29.2821 145.234 29.4143V28.2754H144.727C143.711 28.2754 143.02 28.0822 143.02 27.1365V16.7539C143.02 13.4591 141 11.8829 138.278 11.8829C136.318 11.8829 134.104 13.4693 132.215 14.6692C131.453 12.7066 129.818 11.8829 127.726 11.8829C125.634 11.8829 123.491 13.5303 121.917 14.6082V12.2083L121.47 11.8931C120.648 12.2083 119.764 12.7168 118.881 13.032C117.865 13.3473 116.606 13.7947 115.469 14.1099V14.9946C115.915 15.1167 116.291 15.2489 116.799 15.3709C117.621 15.6251 117.682 15.8183 117.682 16.4488V27.1466C117.682 28.2856 116.799 28.2856 115.722 28.2856H115.469V29.4245H115.479ZM146.006 26.4551V4.7341C145.184 4.35784 144.3 4.10362 143.477 3.78838V3.1579C145.63 2.4664 147.773 1.64271 149.794 0.564795L150.241 0.819021V14.2828C152.069 12.8897 153.531 11.8829 155.928 11.8829C160.6 11.8829 163.068 15.615 163.068 20.1707C163.068 25.9874 158.772 29.9736 153.592 29.9736C151.379 29.9736 149.297 29.3432 148.159 28.5195C147.651 28.8347 146.961 29.4042 146.514 29.9736L145.884 29.5974C146.006 28.5195 146.006 27.5127 146.006 26.4348V26.4551ZM150.241 15.5031V25.8857C150.688 26.7704 152.262 28.611 154.161 28.611C157.705 28.611 158.457 24.94 158.457 22.0316C158.457 18.6758 156.873 14.4354 153.339 14.4354C152.079 14.4354 151.125 14.9438 150.241 15.5133V15.5031ZM173.122 14.6184C171.923 15.1879 171.04 16.2658 171.04 17.781C171.04 18.3504 171.354 18.6047 171.73 18.6047C172.299 18.6047 174.32 18.1572 174.452 17.1505C174.574 14.9946 175.142 14.4252 177.356 14.4252C179.002 14.4252 180.322 15.3099 180.322 17.5267V19.6114L175.65 21.2588C172.929 22.2045 170.532 23.0892 170.532 26.0687C170.532 26.9534 170.786 27.6551 171.161 28.2856H171.101C170.156 28.2856 169.273 28.2856 169.273 27.3399V12.1982L168.897 11.8829C168.074 12.1982 167.13 12.7066 166.246 13.0219C165.302 13.3371 164.032 13.7845 162.834 14.0998V14.9845C163.281 15.1065 163.717 15.2387 164.164 15.3607C164.987 15.615 165.048 15.8082 165.048 16.4387V27.1365C165.048 28.2754 164.225 28.2754 163.088 28.2754H162.834V29.4143C164.286 29.2923 165.799 29.2211 167.384 29.2211C168.775 29.2211 170.227 29.2821 171.679 29.4143V28.8449C172.441 29.6075 173.518 29.9838 174.655 29.9838C177.052 29.9838 178.758 28.5906 180.464 26.9433C180.586 28.7127 181.48 29.9838 183.308 29.9838C185.136 29.9838 186.151 28.9669 187.288 27.5839L186.781 26.8924C186.527 27.1466 186.019 27.4009 185.704 27.4009C184.628 27.4009 184.567 26.2009 184.567 24.6146V16.8963C184.567 13.6015 182.8 11.8931 179.448 11.8931C176.077 12.6354 173.132 14.6184 173.132 14.6184H173.122ZM169.455 4.307C169.455 3.04604 168.44 1.96812 167.181 1.96812C165.921 1.96812 164.845 3.04604 164.845 4.307C164.845 5.56796 165.921 6.58486 167.181 6.58486C168.44 6.58486 169.455 5.56796 169.455 4.307ZM180.322 25.3772C179.875 25.9467 178.809 27.4009 177.031 27.4009C175.579 27.4009 174.757 26.5772 174.757 24.9298C174.757 22.2757 178.23 21.574 180.322 20.8825V25.3772Z" fill="#231F20"/>
<path fill-rule="evenodd" clip-rule="evenodd" d="M82.7898 37.641C82.7898 37.0106 83.3585 36.6241 83.9272 36.6241C85.0646 36.6241 85.3794 37.3868 85.5115 38.3325L85.9583 38.2715C85.8974 37.641 85.9583 37.0716 86.0192 36.4411C85.3287 36.1869 84.7599 35.9937 83.9983 35.9937C82.414 35.9937 81.2157 36.9394 81.2157 38.4647C81.2157 41.1188 84.6889 40.8646 84.6889 42.512C84.6889 43.2747 84.0592 43.6509 83.3585 43.6509C82.3429 43.6509 81.7742 42.7662 81.7133 41.8205L81.2055 41.9425L81.2664 42.8272L81.0735 42.573C80.7587 42.8272 80.5048 42.8883 80.0579 42.8883C79.5502 42.8883 79.1135 42.695 79.1135 41.9425V37.2648H81.1954V36.2479H79.1135V34.4785L78.9205 34.3564C78.2909 35.1801 77.4073 36.0038 76.5847 36.5733C76.4629 36.197 76.016 36.0038 75.5692 36.0038C74.6856 36.0038 73.924 36.8275 73.6092 37.336H73.5482V36.136L73.3553 36.014C72.4108 36.4614 71.4562 36.8987 70.5727 37.0309V37.4783C70.7656 37.4783 70.8875 37.5394 71.0804 37.6004C71.5273 37.6614 71.6491 37.7936 71.6491 38.363V43.112C71.6491 43.4882 71.2734 43.5594 70.7047 43.5594H70.5117V44.0679C71.2734 44.0679 71.964 44.0069 72.6647 44.0069C73.4873 44.0069 74.3099 44.0679 75.1325 44.0679V43.5594H74.8786C74.056 43.5594 73.5482 43.5594 73.5482 43.112V38.6173C73.5482 37.7326 74.1169 37.4173 74.4927 37.4173C75.0614 37.4173 75.0614 38.1088 75.752 38.1088C76.1988 38.1088 76.5746 37.7936 76.6964 37.2851H77.2042V42.5425C77.2042 43.4882 77.6511 44.3119 78.9104 44.3119C79.9259 44.3119 80.6165 43.7425 81.2461 42.9188L81.3071 43.8645C81.9367 44.0577 82.5663 44.3119 83.3889 44.3119C84.7803 44.3119 86.2934 43.6204 86.2934 41.7798C86.2934 39.1257 82.7491 39.563 82.7491 37.6715L82.7898 37.641Z" fill="#231F20"/>
<path fill-rule="evenodd" clip-rule="evenodd" d="M66.613 35.9934C64.2163 35.9934 62.5 37.8238 62.5 40.1729C62.5 42.5219 64.1452 44.2812 66.613 44.2812C68.9488 44.2812 70.7869 42.3796 70.7869 40.0407C70.7869 37.7018 69.0808 35.9934 66.613 35.9934ZM66.7349 43.6507C65.0287 43.6507 64.5819 41.6271 64.5819 40.1729C64.5819 38.7187 64.7038 36.6341 66.5419 36.6341C68.248 36.6341 68.6238 39.2272 68.6238 40.4271C68.6238 42.0135 68.309 43.6507 66.7247 43.6507H66.7349Z" fill="#231F20"/>
<path fill-rule="evenodd" clip-rule="evenodd" d="M48.667 34.5395C48.667 33.1464 49.4287 32.3227 50.82 32.3227C51.9574 32.3227 52.7191 33.4006 52.841 34.5395L53.2878 34.4175C53.2269 33.5938 53.166 32.7701 53.166 31.9464C52.5972 31.8854 51.145 31.6922 50.6372 31.6922C48.4233 31.6922 46.8492 33.0243 46.8492 35.3022C46.8492 39.4817 51.9067 38.5258 51.9067 41.5663C51.9067 42.7663 50.9622 43.5289 49.8248 43.5289C48.1796 43.5289 47.357 42.268 47.1031 40.8037L46.6562 40.8647C46.7172 41.7494 46.8492 42.6341 46.9101 43.5188C47.7937 43.9662 48.7381 44.2815 49.6928 44.2815C51.9067 44.2815 53.8667 43.0205 53.8667 40.6715C53.8667 36.492 48.6874 37.3767 48.6874 34.5294L48.667 34.5395Z" fill="#231F20"/>
<path fill-rule="evenodd" clip-rule="evenodd" d="M99.1608 36.8176V36.2482C98.714 36.3092 98.2773 36.3092 97.8304 36.3092C97.3227 36.3092 96.8149 36.3092 96.3173 36.2482V36.8176H96.5102C96.9571 36.8176 97.2719 36.8176 97.2719 37.2651C97.2719 37.4583 97.211 37.7125 97.15 37.8956L95.8196 41.4344L94.3065 37.6413C94.1846 37.3871 94.1135 37.2651 94.1135 37.0108C94.1135 36.8176 94.5604 36.8176 94.8041 36.8176H94.997V36.2482C94.3674 36.3092 93.7378 36.3092 93.1691 36.3092C92.4074 36.3092 91.6559 36.3092 90.9551 36.2482V36.8176H91.1481C91.4629 36.8176 91.8387 36.8176 91.9707 37.1329L92.4785 38.2108L91.0262 41.5666L89.381 37.4481C89.3201 37.2549 89.2592 37.1329 89.2592 36.9397C89.3201 36.7465 89.706 36.8176 89.8888 36.8176H90.0818V36.2482C89.4521 36.3092 88.8225 36.3092 88.2436 36.3092C87.553 36.3092 86.9132 36.3092 86.2227 36.2482V36.8176H86.3445C87.0351 36.8176 87.1062 37.0108 87.3601 37.6413L90.0107 44.2817H90.5185L92.7933 39.0955L94.8752 44.2817H95.383L97.9117 37.9566C98.1656 37.4481 98.3585 36.8176 99.0491 36.8176H99.171H99.1608Z" fill="#231F20"/>
<path fill-rule="evenodd" clip-rule="evenodd" d="M59.2887 35.9937C58.2731 35.9937 57.3286 36.4412 56.6381 37.1327V35.9937L56.4451 35.8717C55.5616 36.3802 54.6171 36.6954 53.6625 37.0106V37.3259C53.8555 37.3869 54.0383 37.3869 54.2312 37.4479C54.4851 37.5089 54.6781 37.5699 54.6781 37.8953V47.0678C54.6781 47.4441 54.2312 47.4441 53.8555 47.4441H53.6016V47.9525C54.3632 47.9525 55.1147 47.8915 55.8764 47.8915C56.6381 47.8915 57.3896 47.9525 58.2122 47.9525V47.4441H57.8364C57.1458 47.4441 56.6381 47.4441 56.6381 46.8746V43.9052C57.0138 44.0273 57.5825 44.1595 58.1512 44.1595C60.3652 44.1595 62.3252 42.1358 62.3252 39.4817C62.3252 37.6513 61.2487 36.0039 59.2887 36.0039V35.9937ZM58.3442 43.3968C57.4607 43.3968 56.831 42.5121 56.6381 42.2579V37.6411C57.0138 37.3869 57.5216 37.1937 58.0294 37.1937C59.7355 37.1937 60.4261 39.0241 60.4261 40.4884C60.4261 41.8206 59.9792 43.3968 58.3442 43.3968Z" fill="#231F20"/>
<path fill-rule="evenodd" clip-rule="evenodd" d="M126.4 32.4447C128.989 32.4447 129.812 33.8379 130.259 35.5463L130.827 35.4852C130.705 34.4683 130.634 33.5226 130.634 32.5769C129.05 32.3227 128.36 31.6922 126.339 31.6922C122.804 31.6922 119.707 33.9701 119.707 37.8343C119.707 42.1358 122.551 44.2916 126.471 44.2916C128.055 44.2916 129.375 43.9764 130.391 43.5289C130.513 42.5832 130.645 41.6273 130.838 40.7426L130.33 40.6206C129.883 42.39 128.685 43.5289 126.857 43.5289C123.566 43.5289 122.114 40.6206 122.114 37.7123C122.114 34.8039 123.627 32.465 126.41 32.465L126.4 32.4447Z" fill="#231F20"/>
<path fill-rule="evenodd" clip-rule="evenodd" d="M183.4 36.3086C182.892 36.3086 182.323 36.3086 181.815 36.2476V36.8171H182.008C182.455 36.8171 182.831 36.8171 182.831 37.1933C182.831 37.4475 182.77 37.7628 182.638 38.139L181.247 41.6168L179.733 37.6306C179.612 37.4374 179.54 37.1831 179.54 37.0611C179.54 36.8069 179.987 36.8069 180.302 36.8069H180.424V36.2374C179.794 36.2984 179.165 36.2984 178.525 36.2984C177.834 36.2984 177.194 36.2984 176.504 36.2374V36.8069H176.758C177.134 36.8069 177.326 37.0611 177.641 37.6916L180.231 44.1489L179.347 46.3048C179.094 46.1116 178.84 46.0505 178.464 46.0505C177.895 46.0505 177.519 46.498 177.519 46.9352C177.519 47.5657 177.966 47.9521 178.535 47.9521C179.165 47.9521 179.611 47.4437 179.865 46.8132L183.339 38.3322C183.846 37.0713 184.029 36.8171 184.354 36.8171H184.669V36.2476C184.293 36.3086 183.846 36.3086 183.41 36.3086H183.4Z" fill="#231F20"/>
<path fill-rule="evenodd" clip-rule="evenodd" d="M135.06 35.9934C132.663 35.9934 130.957 37.8238 130.957 40.1729C130.957 42.5219 132.663 44.2812 135.06 44.2812C137.457 44.2812 139.234 42.3796 139.234 40.0407C139.234 37.7018 137.589 35.9934 135.06 35.9934ZM135.182 43.6507C133.476 43.6507 133.029 41.6271 133.029 40.1729C133.029 38.7187 133.222 36.6341 134.989 36.6341C136.756 36.6341 137.071 39.2272 137.071 40.4271C137.071 42.0135 136.756 43.6507 135.172 43.6507H135.182Z" fill="#231F20"/>
<path fill-rule="evenodd" clip-rule="evenodd" d="M152.692 43.5186H152.499C151.991 43.5186 151.676 43.4576 151.676 43.0102V38.2612C151.676 36.7461 150.793 35.9834 149.523 35.9834C148.64 35.9834 147.624 36.7461 146.741 37.2443C146.426 36.4206 145.664 35.9834 144.72 35.9834C143.775 35.9834 142.76 36.8071 142.069 37.2443V36.1664L141.876 35.9732C141.501 36.1664 141.054 36.3495 140.678 36.4817C140.231 36.6749 139.602 36.8579 139.094 36.9901V37.4375C139.287 37.4986 139.47 37.5596 139.723 37.6308C140.099 37.6918 140.099 37.824 140.099 38.0782V43.0102C140.099 43.5186 139.723 43.5186 139.216 43.5186H139.094V44.0271C139.723 43.9661 140.424 43.9661 141.115 43.9661C141.805 43.9661 142.445 43.9661 143.136 44.0271V43.5186H142.882C142.506 43.5186 142.059 43.4576 142.059 42.9492V37.946C142.435 37.6308 143.075 37.2545 143.572 37.2545C144.456 37.2545 144.903 37.7019 144.903 38.7087V42.9492C144.903 43.4576 144.588 43.5186 144.08 43.5186H143.887V44.0271C144.578 43.9661 145.278 43.9661 145.969 43.9661C146.599 43.9661 147.228 43.9661 147.868 44.0271V43.5186H147.675C147.167 43.5186 146.853 43.4576 146.853 42.9492V37.824C147.228 37.5697 147.929 37.2545 148.437 37.2545C149.259 37.2545 149.767 37.7019 149.767 38.7087V43.0102C149.767 43.4576 149.391 43.5186 148.945 43.5186H148.691V44.0271C149.381 43.9661 150.082 43.9661 150.773 43.9661C151.402 43.9661 152.032 43.9661 152.672 44.0271V43.5186H152.692Z" fill="#231F20"/>
<path fill-rule="evenodd" clip-rule="evenodd" d="M157.808 35.9937C156.793 35.9937 155.848 36.4412 155.158 37.1327V35.9937L154.965 35.8717C154.081 36.3802 153.137 36.6954 152.182 37.0106V37.3259C152.375 37.3869 152.558 37.3869 152.751 37.4479C153.005 37.5089 153.198 37.5699 153.198 37.8953V47.0678C153.198 47.4441 152.822 47.4441 152.375 47.4441H152.121V47.9525C152.883 47.9525 153.634 47.8915 154.396 47.8915C155.219 47.8915 155.98 47.9525 156.732 47.9525V47.4441H156.417C155.655 47.4441 155.158 47.4441 155.158 46.8746V43.9052C155.533 44.0273 156.102 44.1595 156.671 44.1595C158.885 44.1595 160.845 42.1358 160.845 39.4817C160.845 37.6513 159.768 36.0039 157.808 36.0039V35.9937ZM156.925 43.3968C155.98 43.3968 155.34 42.5121 155.158 42.2579V37.6411C155.533 37.3869 156.041 37.1937 156.549 37.1937C158.255 37.1937 158.956 39.0241 158.956 40.4884C158.956 41.8206 158.509 43.3968 156.935 43.3968H156.925Z" fill="#231F20"/>
<path fill-rule="evenodd" clip-rule="evenodd" d="M117.553 35.9934C116.67 35.9934 115.908 36.8171 115.593 37.3256H115.532V36.1256L115.339 36.0036C114.395 36.451 113.44 36.8883 112.557 37.0205V37.4679C112.749 37.4679 112.871 37.5289 113.064 37.5899C113.511 37.651 113.633 37.7832 113.633 38.3526V43.1016C113.633 43.4168 113.318 43.4778 112.871 43.549C112.993 43.427 113.064 43.2948 113.186 43.2338L112.932 42.9185C112.81 43.0405 112.617 43.1117 112.425 43.1117C111.978 43.1117 111.917 42.6033 111.917 41.8508V38.373C111.917 36.8578 111.094 36.0341 109.581 36.0341C109.266 36.0341 108.951 36.0951 108.565 36.2883C107.875 36.6646 107.235 36.9798 106.666 37.3052C106.159 37.5594 105.722 38.0679 105.722 38.7594C105.722 39.0136 105.844 39.1356 106.037 39.1356C106.352 39.1356 107.235 38.9424 107.296 38.4441C107.357 37.4984 107.611 37.2442 108.626 37.2442C109.388 37.2442 109.957 37.6205 109.957 38.6374V39.5831L107.875 40.3458C106.616 40.7932 105.539 41.2305 105.539 42.5626C105.539 43.7015 106.362 44.332 107.367 44.332C108.504 44.332 109.266 43.7015 110.018 42.9389C110.079 43.7625 110.525 44.332 111.348 44.332C111.795 44.332 112.171 44.21 112.485 43.9558V44.0778C113.176 44.0778 113.938 44.0168 114.638 44.0168C115.461 44.0168 116.284 44.0778 117.106 44.0778V43.5693H116.791C116.03 43.5693 115.532 43.5693 115.532 43.1219V38.6272C115.532 37.7425 116.101 37.4272 116.477 37.4272C117.045 37.4272 117.045 38.1187 117.675 38.1187C118.244 38.1187 118.69 37.7425 118.69 37.0408C118.69 36.3392 118.122 36.0239 117.553 36.0239V35.9934ZM109.967 42.1965C109.774 42.4507 109.276 43.0812 108.515 43.0812C107.824 43.0812 107.438 42.705 107.438 42.0033C107.438 40.8034 109.022 40.4169 109.967 40.1729V42.1965Z" fill="#231F20"/>
<path fill-rule="evenodd" clip-rule="evenodd" d="M105.296 41.8102C104.727 42.4407 104.036 42.6949 103.214 42.6949C101.376 42.6949 100.563 40.9865 100.563 39.2171H105.235L105.428 39.0239C105.428 37.3155 104.483 35.9833 102.706 35.9833C100.37 35.9833 98.918 38.1392 98.918 40.2848C98.918 42.2475 100.055 44.2711 102.269 44.2711C103.722 44.2711 104.859 43.3254 105.56 42.1153L105.306 41.8L105.296 41.8102ZM102.391 36.624C103.214 36.624 103.65 37.3867 103.65 38.0782C103.65 38.7086 103.457 38.7086 102.574 38.7086H100.614C100.807 37.6307 101.376 36.624 102.381 36.624H102.391Z" fill="#231F20"/>
<path fill-rule="evenodd" clip-rule="evenodd" d="M176.008 43.0102V38.2612C176.008 36.6139 175.125 35.9834 173.855 35.9834C172.779 35.9834 171.895 36.7461 171.134 37.2443V36.1664L170.941 35.9732C170.565 36.1664 170.179 36.3495 169.803 36.4817C169.296 36.6749 168.727 36.8579 168.219 36.9901V37.4375C168.412 37.4986 168.595 37.5596 168.788 37.6308C169.163 37.6918 169.235 37.824 169.235 38.0782V43.0102C169.235 43.4576 168.92 43.5186 168.473 43.5186C168.595 43.3966 168.666 43.3254 168.788 43.2034L168.534 42.8881C168.412 43.0102 168.219 43.0814 168.026 43.0814C167.579 43.0814 167.518 42.5729 167.518 41.8204V38.3426C167.518 36.8274 166.696 36.0037 165.183 36.0037C164.868 36.0037 164.553 36.0647 164.167 36.2579C163.476 36.6342 162.837 36.9494 162.268 37.2748C161.76 37.5291 161.323 38.0375 161.323 38.729C161.323 38.9832 161.516 39.1053 161.699 39.1053C161.953 39.1053 162.837 38.9121 162.898 38.4138C162.958 37.4681 163.212 37.2138 164.228 37.2138C164.99 37.2138 165.558 37.5901 165.558 38.607V39.5527L163.476 40.3154C162.217 40.7628 161.141 41.2001 161.141 42.5322C161.141 43.6712 161.963 44.3016 163.04 44.3016C164.116 44.3016 164.878 43.6712 165.629 42.9085C165.69 43.7322 166.137 44.3016 166.96 44.3016C167.468 44.3016 167.843 44.1084 168.219 43.7932V44.0474C168.849 43.9864 169.549 43.9864 170.24 43.9864C170.931 43.9864 171.57 43.9864 172.261 44.0474V43.539H171.946C171.57 43.539 171.124 43.539 171.124 43.0915V37.9053C171.499 37.6511 172.139 37.2748 172.708 37.2748C173.53 37.2748 174.038 37.7223 174.038 38.729V43.0915C174.038 43.539 173.53 43.539 173.216 43.539H173.023V44.0474C173.713 43.9864 174.414 43.9864 175.104 43.9864C175.734 43.9864 176.374 43.9864 177.004 44.0474V43.539H176.811C176.435 43.539 175.988 43.539 175.988 43.0305L176.008 43.0102ZM165.579 42.1865C165.386 42.4407 164.949 43.0712 164.126 43.0712C163.436 43.0712 163.05 42.6949 163.05 41.9933C163.05 40.7933 164.634 40.4069 165.579 40.1628V42.1865Z" fill="#231F20"/>
</g>
<defs>
<clipPath id="clip0_518_584">
<rect width="190" height="47.3979" fill="white" transform="translate(0.417969 0.554688)"/>
</clipPath>
</defs>
</svg>
