<svg width="136" height="71" viewBox="0 0 136 71" fill="none" xmlns="http://www.w3.org/2000/svg">
<path fill-rule="evenodd" clip-rule="evenodd" d="M132.549 14.6892V14.0264H133.236C133.513 14.0264 133.864 14.0749 133.864 14.34C133.864 14.7496 133.303 14.6892 132.982 14.6892H132.549ZM2.11198 10.2663C3.43574 10.078 3.68441 9.98018 3.68441 9.98018L9.04893 16.4445C9.04893 16.4445 10.284 14.2394 14.0258 13.1607C25.1919 9.93355 39.7587 18.6943 51.6562 17.196C55.5909 16.6968 57.4897 15.1902 57.4897 15.1902C57.4897 15.1902 56.2747 16.8349 53.2542 17.6915C44.8966 20.0574 27.7425 15.8859 20.9829 15.8859C10.945 15.8859 8.95111 20.7229 8.95111 20.7229L0.417969 10.4482C0.417969 10.4482 0.648347 10.4784 2.11198 10.2663ZM1.47478 3.43633C1.47478 3.43633 5.72124 0.96616 12.1042 0.879311C24.4523 0.713841 32.0173 6.74756 39.2431 9.79825C41.7325 10.8478 45.3326 12.2108 49.9667 12.1971C56.3314 12.1816 60.3054 9.77082 60.3054 9.77082C60.3054 9.77082 59.5192 11.8598 56.7802 13.3124C55.4611 14.0127 53.6601 14.6051 51.2704 14.8803C47.8613 15.2688 46.0137 15.1737 39.3656 13.8683C34.7535 12.9678 28.5854 11.3368 26.2121 10.8615C13.4563 8.30719 9.44935 13.0373 9.44935 13.0373L1.47478 3.43633ZM32.7267 59.7236C32.244 59.1038 31.5849 58.6979 30.7804 58.5114L30.7264 58.4986L30.6725 58.4876L30.6177 58.4767L30.5628 58.4666L30.507 58.4566L30.4513 58.4483L30.3946 58.4401L30.3379 58.4328L30.2803 58.4255L30.2227 58.4191L30.1651 58.4136L30.1066 58.409L30.0472 58.4035L29.9284 58.3981L29.868 58.3953L29.8077 58.3935L29.7464 58.3926H29.6852C29.6523 58.3926 29.6184 58.3926 29.5846 58.3935C29.5508 58.3944 29.517 58.3953 29.4831 58.3971C29.4502 58.3981 29.4164 58.3999 29.3826 58.4026C29.3488 58.4035 29.3158 58.4072 29.282 58.4099C29.2482 58.4127 29.2144 58.4145 29.1815 58.4191C29.1476 58.4227 29.1147 58.4264 29.0809 58.431C29.0471 58.4346 29.0142 58.4392 28.9812 58.4438H28.9803C28.9474 58.4493 28.9145 58.4547 28.8807 58.4602C28.8478 58.4657 28.8149 58.4712 28.781 58.4776C28.7481 58.484 28.7152 58.4904 28.6823 58.4968C28.6494 58.5032 28.6165 58.5114 28.5836 58.5187C28.5507 58.526 28.5177 58.5343 28.4848 58.5416C28.4519 58.5498 28.419 58.559 28.387 58.5672C28.3541 58.5763 28.3221 58.5855 28.2892 58.5946C28.2572 58.6038 28.2243 58.6138 28.1923 58.6239C28.1603 58.6339 28.1274 58.644 28.0954 58.6549C28.0634 58.665 28.0314 58.676 27.9994 58.6869C27.9674 58.6988 27.9354 58.7098 27.9043 58.7217C27.8723 58.7336 27.8403 58.7455 27.8092 58.7583C27.7782 58.7701 27.7462 58.7829 27.7151 58.7948C27.684 58.8094 27.6529 58.8222 27.6218 58.836C27.5907 58.8497 27.5597 58.8634 27.5286 58.8771C27.4975 58.8917 27.4673 58.9054 27.4362 58.9201C26.1829 59.5225 25.1434 60.5912 24.6735 61.8802C24.4669 62.4498 24.3956 62.9288 24.4751 63.3439H24.4761C24.4788 63.3622 24.4825 63.3805 24.487 63.3978C24.4907 63.4161 24.4953 63.4335 24.4998 63.4508C24.6808 64.1374 25.3016 64.6484 26.4462 65.1202L26.6016 65.1851L26.6391 65.2006L26.6756 65.2162L26.7113 65.2308L26.746 65.2463H26.7469C27.1638 65.4246 27.4417 65.5535 27.6273 65.6659L27.6712 65.6934L27.6849 65.7025L27.6986 65.7107L27.7242 65.7281L27.737 65.7373L27.7489 65.7464L27.7599 65.7555H27.7608L27.7718 65.7638L27.7827 65.7729L27.7928 65.7811C27.8028 65.7894 27.8129 65.7985 27.822 65.8067L27.8312 65.815L27.886 65.8698L27.9272 65.9137L27.9528 65.9448L27.9884 65.9905L28.0104 66.0234L28.0405 66.0728L28.0497 66.0892C28.195 66.3571 28.1978 66.6807 28.0652 67.0436C27.7398 67.9405 26.8182 68.6216 25.8446 68.7221L25.7962 68.7276H25.7953L25.7468 68.7313H25.7459L25.6965 68.734C25.6801 68.734 25.6636 68.7349 25.6472 68.7349H25.6462L25.5969 68.7358L25.5466 68.7349L25.4972 68.734H25.4963L25.4479 68.7313H25.4469L25.3994 68.7294H25.3985L25.3034 68.7203C24.3929 68.6234 23.8124 68.0621 23.6615 67.1314H23.6606L21.6192 68.5914C22.0735 69.9846 22.9576 70.7087 24.3654 70.8504L24.4395 70.8559H24.4404C24.4651 70.8577 24.4898 70.8614 24.5154 70.8632H24.5163C24.541 70.8641 24.5666 70.8659 24.5922 70.8668L24.669 70.8714H24.6699L24.7476 70.8742H24.7485L24.8271 70.876H24.9085C24.9469 70.876 24.9853 70.876 25.0246 70.8751C25.063 70.8742 25.1014 70.8732 25.1398 70.8714H25.1407C25.1791 70.8696 25.2175 70.8668 25.2559 70.8659C25.2943 70.8632 25.3327 70.8604 25.3702 70.8577H25.3711C25.4095 70.854 25.4469 70.8513 25.4853 70.8467C25.5237 70.8431 25.5612 70.8394 25.5996 70.8348C25.638 70.8303 25.6755 70.8248 25.713 70.8193C25.7514 70.8147 25.7889 70.8083 25.8263 70.8028C25.8638 70.7964 25.9022 70.79 25.9388 70.7836H25.9397C25.9772 70.7763 26.0147 70.7699 26.0512 70.7608C26.0887 70.7544 26.1262 70.7471 26.1628 70.7388H26.1637C27.4618 70.4509 28.6366 69.7287 29.4886 68.7084C29.5124 68.6801 29.5371 68.6499 29.5608 68.6206C29.5846 68.5914 29.6084 68.5612 29.6312 68.5311C29.6541 68.5009 29.6779 68.4707 29.6998 68.4406C30.0408 67.9807 30.3196 67.4706 30.5208 66.9184C30.9065 65.857 30.8627 64.994 30.3763 64.4007C30.3407 64.3586 30.305 64.3184 30.2684 64.2791L30.2502 64.259C30.0655 64.0652 29.8543 63.8997 29.5453 63.7242L29.5142 63.7068L29.4822 63.6885L29.4493 63.6712L29.4164 63.652L29.3826 63.6355L29.3478 63.6172L29.2765 63.5807H29.2756C29.0452 63.4636 28.7664 63.3384 28.4245 63.1949C27.2095 62.6738 26.9206 62.3319 27.1565 61.6855C27.2232 61.5009 27.3329 61.3253 27.4746 61.1653L27.5021 61.1352L27.5295 61.1059L27.5578 61.0767L27.5871 61.0483L27.6173 61.0218C27.6374 61.0026 27.6575 60.9843 27.6785 60.967C27.9628 60.7238 28.3248 60.5355 28.7125 60.434H28.7134L28.7993 60.4139L28.8871 60.3956L28.9748 60.381L29.0196 60.3736L29.0635 60.3691H29.0644L29.1083 60.3636L29.1531 60.3608L29.197 60.3581H29.1979L29.2418 60.3563L29.2866 60.3544H29.367L29.4009 60.3554H29.4018L29.4356 60.3563H29.4365L29.4694 60.3581H29.4703L29.5033 60.3599H29.5042L29.5362 60.3618H29.5371L29.5691 60.3636H29.57L29.602 60.3682C30.1715 60.4285 30.5592 60.6954 30.8691 61.2312L30.8864 61.2613L30.9038 61.2933L30.9212 61.3244L32.7267 59.7236ZM40.5925 66.1331C40.6346 66.1304 40.6766 66.1285 40.7187 66.1249L40.7808 66.1203L40.8421 66.1148H40.843L40.9033 66.1084H40.9042L40.9646 66.1029L41.0249 66.0956H41.0258L41.0853 66.0883C41.1456 66.0801 41.205 66.0728 41.2635 66.0636L41.322 66.0545L41.3796 66.0444C42.2289 65.8954 42.9493 65.5791 43.6002 65.0836C44.4541 64.419 45.1726 63.4298 45.5456 62.4041C45.6901 62.0082 45.7769 61.6252 45.8071 61.2641L45.8108 61.2156L45.8135 61.1653L45.8162 61.1178C45.8382 60.6031 45.7422 60.1378 45.5319 59.7511C45.5246 59.7392 45.5182 59.7273 45.5118 59.7154C45.4707 59.6432 45.4268 59.5737 45.3783 59.5097C45.3381 59.4567 45.2961 59.4073 45.2531 59.3607L45.2266 59.3324L45.2001 59.3049C44.9231 59.0252 44.5738 58.8378 44.0893 58.7253L43.9942 58.7052H43.9933L43.9449 58.6952L43.8443 58.6769L43.7922 58.6696L43.7392 58.6613L43.6862 58.654L43.6313 58.6467L43.5198 58.6339L43.4622 58.6284L43.4037 58.623L43.3442 58.6184L43.2217 58.6083L43.1596 58.6056L43.0956 58.6028L43.0307 58.6001L42.9648 58.5974L42.8981 58.5955L42.761 58.591H42.7601L42.6906 58.59H39.0393L34.6721 70.588H37.0107L38.627 66.1459H40.1381L40.2698 66.1441L40.3347 66.1432H40.3356L40.4005 66.1413L40.4645 66.1386H40.4654L40.5285 66.1368H40.5294L40.5925 66.1331ZM39.3675 64.1118L40.6382 60.6241H41.4454C42.1466 60.6241 42.5855 60.6945 42.8652 60.8655L42.867 60.8673C42.931 60.9066 42.9859 60.9505 43.0343 61.0008C43.0599 61.0273 43.0837 61.0566 43.1056 61.0876L43.1157 61.1032H43.1166L43.1267 61.1187V61.1196C43.1779 61.2001 43.2153 61.2915 43.24 61.3921V61.3939L43.2455 61.414L43.2492 61.4332V61.435C43.2519 61.4478 43.2547 61.4615 43.2574 61.4753V61.4771L43.2601 61.4972L43.2611 61.4981L43.2638 61.5182V61.5201L43.2665 61.5402V61.542L43.2684 61.563C43.2921 61.8071 43.2519 62.0896 43.1431 62.3849C43.1038 62.4928 43.0599 62.5961 43.0115 62.6939L42.9868 62.7423C42.5352 63.6081 41.7115 64.0615 40.5212 64.1082L40.4563 64.11H40.4545L40.3886 64.1118H40.3868C40.3649 64.1118 40.3429 64.1118 40.321 64.1118H39.3675ZM49.0242 65.495C48.4053 68.3308 49.8076 70.4618 52.5429 70.8083H52.5438C52.595 70.8147 52.6471 70.8193 52.6993 70.8257C52.7523 70.8312 52.8053 70.8358 52.8583 70.8394C52.9123 70.844 52.9662 70.8467 53.0201 70.8485C53.075 70.8522 53.1298 70.854 53.1847 70.8559C53.2405 70.8559 53.2962 70.8577 53.352 70.8577C53.4096 70.8577 53.4663 70.8559 53.5229 70.8559C53.5805 70.854 53.6372 70.8522 53.6948 70.8485C53.7524 70.8467 53.8091 70.844 53.8667 70.8394C53.9234 70.8358 53.981 70.8312 54.0376 70.8257C54.0952 70.8211 54.1528 70.8147 54.2095 70.8083C54.2671 70.8019 54.3238 70.7946 54.3814 70.7873C54.4381 70.7791 54.4957 70.7699 54.5523 70.7608C54.6099 70.7535 54.6666 70.7434 54.7242 70.7334C54.7809 70.7233 54.8376 70.7114 54.8952 70.7005C54.9518 70.6895 55.0085 70.6776 55.0652 70.6648C55.1219 70.6511 55.1786 70.6392 55.2362 70.6255C55.2928 70.6118 55.3486 70.5971 55.4053 70.5825C55.462 70.567 55.5186 70.5514 55.5753 70.535C55.6311 70.5194 55.6878 70.503 55.7435 70.4856C55.8002 70.4673 55.856 70.45 55.9118 70.4317C58.2622 69.661 60.4124 67.9085 61.5972 65.7235C61.6255 65.6723 61.6529 65.6193 61.6804 65.5672C61.8431 65.2518 61.9857 64.9291 62.1064 64.5982C63.1879 61.6243 62.0735 59.1989 59.5466 58.5142C59.5 58.5014 59.4534 58.4895 59.4058 58.4776H59.4049C59.3574 58.4666 59.3089 58.4557 59.2605 58.4447C59.212 58.4346 59.1627 58.4255 59.1133 58.4154C59.063 58.4072 59.0136 58.399 58.9634 58.3907H58.9624C58.9122 58.3834 58.861 58.3761 58.8098 58.3697C58.7586 58.3633 58.7065 58.356 58.6544 58.3514H58.6534C58.6013 58.3469 58.5483 58.3423 58.4953 58.3377C58.4423 58.3341 58.3883 58.3304 58.3344 58.3268C58.2795 58.3258 58.2256 58.3231 58.1698 58.3222C58.115 58.3204 58.0592 58.3204 58.0034 58.3204C57.9477 58.3204 57.8919 58.3213 57.8361 58.3222C57.7804 58.3231 57.7246 58.3258 57.6688 58.3268C57.6131 58.3304 57.5573 58.3341 57.5015 58.3377H57.5006C57.4449 58.3423 57.3891 58.3469 57.3333 58.3523C57.2767 58.356 57.2209 58.3633 57.1651 58.3697H57.1642C57.1084 58.3761 57.0527 58.3834 56.996 58.3917C56.9402 58.399 56.8835 58.4072 56.8278 58.4154C56.7711 58.4255 56.7153 58.4355 56.6596 58.4447H56.6587C56.6029 58.4566 56.5471 58.4666 56.4904 58.4785C56.4347 58.4904 56.378 58.5014 56.3222 58.5151C56.2665 58.5279 56.2098 58.5407 56.154 58.5553C53.1856 59.2912 50.3434 61.6791 49.3121 64.5077C49.2098 64.7892 49.1266 65.0653 49.0616 65.335H49.0607C49.0479 65.3889 49.0361 65.4429 49.0242 65.495ZM57.8755 60.5254C59.6261 60.8682 60.4416 62.5467 59.7002 64.5799C58.8829 66.8288 56.4749 68.659 54.3046 68.7157C54.2708 68.7166 54.2369 68.7176 54.204 68.7176H54.2022C54.1675 68.7176 54.1336 68.7166 54.0998 68.7157C51.9386 68.659 50.8773 66.8279 51.711 64.5424C51.7741 64.3687 51.8481 64.1959 51.9313 64.0277C51.9469 63.9948 51.9642 63.961 51.9807 63.9281L51.9816 63.9271C51.999 63.8942 52.0163 63.8604 52.0337 63.8275L52.0346 63.8257C52.052 63.7937 52.0703 63.7608 52.0895 63.7278C53.0649 62.011 54.9848 60.6662 56.7784 60.4824C56.8132 60.4788 56.847 60.476 56.8808 60.4733H56.8817C56.9155 60.4706 56.9503 60.4687 56.9841 60.4669H56.985C57.0188 60.4651 57.0527 60.4623 57.0865 60.4614H57.0874C57.1212 60.4614 57.1551 60.4614 57.1889 60.4614H57.1898C57.2236 60.4614 57.2584 60.4614 57.2922 60.4614C57.326 60.4623 57.3598 60.4651 57.3937 60.4669C57.4275 60.4687 57.4604 60.4706 57.4933 60.4733C57.5262 60.476 57.5591 60.4788 57.5911 60.4824C57.6241 60.4861 57.656 60.4897 57.688 60.4943C57.72 60.4989 57.7511 60.5035 57.7822 60.508C57.8142 60.5135 57.8453 60.519 57.8755 60.5254ZM72.8793 65.4109C73.3922 65.271 73.7935 65.0754 74.2524 64.7773C74.3347 64.7225 74.4161 64.6658 74.4956 64.6055C75.2709 64.0167 75.9382 63.1126 76.2948 62.1335C76.6815 61.073 76.6019 60.0473 76.0872 59.4348C75.6704 58.9301 74.8439 58.6467 73.7021 58.5983L73.6445 58.5955H73.6427L73.5842 58.5937H73.5832L73.5238 58.5928H73.5229L73.4635 58.59H73.4004L73.3401 58.5891H69.8661L65.4981 70.588H67.8393L69.5937 65.7665H69.8981L71.3809 70.588H74.2607L72.3226 65.5343C72.4743 65.5069 72.6142 65.4776 72.7477 65.4447H72.7486L72.7806 65.4356H72.7815L72.8135 65.4283L72.8144 65.4273L72.8455 65.4191H72.8464L72.8784 65.4109H72.8793ZM70.197 64.1118L71.519 60.4797H72.2375C73.2971 60.4797 73.8804 60.796 73.9645 61.414C73.9663 61.4268 73.9672 61.4414 73.969 61.4551C73.9699 61.4689 73.9709 61.4826 73.9718 61.4963C73.9727 61.5109 73.9736 61.5246 73.9736 61.5392C73.9745 61.553 73.9745 61.5676 73.9745 61.5822C73.9745 61.5968 73.9736 61.6115 73.9736 61.6261V61.627C73.9727 61.6416 73.9718 61.6563 73.9709 61.6718L73.9672 61.7175C73.9654 61.7331 73.9645 61.7486 73.9617 61.7641C73.9599 61.7788 73.9581 61.7961 73.9553 61.8117C73.9526 61.8281 73.9508 61.8437 73.9471 61.8601C73.9444 61.8766 73.9416 61.893 73.938 61.9095C73.9343 61.925 73.9306 61.9424 73.927 61.9598C73.9233 61.9762 73.9188 61.9936 73.9142 62.011C73.9105 62.0274 73.906 62.0448 73.9005 62.0622C73.8959 62.0795 73.8904 62.0978 73.8858 62.1152C73.8804 62.1326 73.8749 62.1508 73.8685 62.1682V62.1691C73.863 62.1865 73.8566 62.2048 73.8511 62.2231L73.831 62.277C73.8246 62.2971 73.8173 62.3154 73.81 62.3337C73.8036 62.352 73.7962 62.3703 73.7889 62.3876L73.7661 62.4407C73.7588 62.4589 73.7505 62.4772 73.7432 62.4946C73.7268 62.5284 73.7103 62.5641 73.6939 62.597H73.6929C73.6674 62.6482 73.6408 62.6985 73.6125 62.7469C73.6034 62.7625 73.5942 62.7789 73.5842 62.7944C73.565 62.8264 73.5448 62.8575 73.5247 62.8877C73.5138 62.9032 73.5037 62.9188 73.4937 62.9334H73.4927C73.4827 62.948 73.4717 62.9636 73.4607 62.9773C73.4507 62.9928 73.4397 63.0065 73.4287 63.0221C73.4169 63.0358 73.4059 63.0513 73.3949 63.0651C73.383 63.0797 73.3721 63.0934 73.3602 63.108C73.3483 63.1217 73.3364 63.1354 73.3245 63.1492C73.3126 63.1629 73.3008 63.1766 73.2889 63.1894C72.8382 63.6849 72.2001 63.9893 71.4111 64.0816L71.3471 64.089L71.2822 64.0954H71.2813L71.2164 64.0999L71.1506 64.1045H71.1496L71.0829 64.1082L70.9476 64.1118H70.197ZM82.9666 70.588L86.5941 60.6241H89.291L89.2919 60.6214H89.2929L89.7408 59.389L90.0315 58.59H82.3148L81.5743 60.6214H81.5761L81.5752 60.6241H84.2547L80.6272 70.588H82.9666ZM101.633 59.7236C101.58 59.6551 101.524 59.5883 101.465 59.5253L101.431 59.486C100.845 58.8616 100.045 58.5014 99.0721 58.4136H99.0712L99.0135 58.409H99.0126L98.9541 58.4035H98.9532L98.8947 58.4008H98.8938L98.8353 58.3981H98.8344L98.7749 58.3953H98.774L98.7146 58.3935H98.7137L98.6534 58.3926H98.5921C98.5583 58.3926 98.5245 58.3926 98.4906 58.3935C98.4568 58.3944 98.423 58.3953 98.3892 58.3971C98.3553 58.3981 98.3224 58.3999 98.2886 58.4026C98.2548 58.4035 98.2209 58.4072 98.188 58.4099C98.1542 58.4127 98.1204 58.4145 98.0875 58.4191H98.0866C98.0536 58.4227 98.0198 58.4264 97.9869 58.431C97.9531 58.4346 97.9202 58.4392 97.8863 58.4438C97.8534 58.4493 97.8196 58.4547 97.7867 58.4602C97.7529 58.4657 97.72 58.4712 97.687 58.4776C97.6541 58.484 97.6212 58.4904 97.5874 58.4968C97.5545 58.5032 97.5216 58.5114 97.4887 58.5187C97.4558 58.526 97.4228 58.5343 97.3908 58.5416C95.6868 58.9649 94.1774 60.2447 93.5814 61.8802C93.3921 62.4004 93.3153 62.8447 93.3647 63.2342C93.3675 63.2525 93.3702 63.2698 93.3729 63.289C93.3757 63.3073 93.3793 63.3256 93.3821 63.3439C93.3857 63.3622 93.3894 63.3805 93.394 63.3978C93.3976 63.4161 93.4022 63.4335 93.4068 63.4508C93.4113 63.4682 93.4159 63.4865 93.4214 63.5039C93.5722 64.0076 93.969 64.4162 94.6437 64.7856L94.7141 64.824C94.7378 64.8359 94.7625 64.8487 94.7872 64.8615L94.8622 64.898C95.013 64.9739 95.1767 65.047 95.3522 65.1202C95.5268 65.1933 95.6822 65.2582 95.8193 65.3176L95.8815 65.346L95.9117 65.3588L95.9702 65.3844L95.9985 65.3972C96.4099 65.5818 96.633 65.708 96.7546 65.8323L96.792 65.8698L96.8332 65.9137L96.8716 65.9603L96.8826 65.9759L96.8944 65.9905L96.9164 66.0234L96.9465 66.0728L96.9557 66.0892C97.101 66.3571 97.1038 66.6807 96.9721 67.0436C96.9392 67.1351 96.8999 67.2237 96.8551 67.3106L96.8323 67.3536L96.8085 67.3947C96.3715 68.1562 95.4975 68.6965 94.6035 68.734L94.555 68.7349H94.5532L94.5056 68.7358H94.5038L94.4554 68.7349H94.4535L94.4051 68.734C93.383 68.6993 92.7293 68.1261 92.5694 67.1314L92.5675 67.1323V67.1314L90.527 68.5914C90.8214 69.4955 91.2977 70.1181 91.9797 70.482C91.998 70.492 92.0172 70.5012 92.0355 70.5112C92.0547 70.5204 92.0729 70.5295 92.0921 70.5386C92.1113 70.5478 92.1305 70.5569 92.1497 70.5642C92.1699 70.5743 92.189 70.5825 92.2082 70.5908C92.2284 70.599 92.2476 70.6072 92.2677 70.6154C92.5273 70.7187 92.8134 70.79 93.1261 70.833L93.1983 70.8422L93.2715 70.8504H93.2724L93.3464 70.8559H93.3473C93.372 70.8577 93.3967 70.8614 93.4223 70.8632C93.4479 70.8641 93.4726 70.8659 93.4982 70.8668H93.4991L93.5759 70.8714H93.5768L93.6545 70.8742H93.6554L93.734 70.876H93.8154C93.8538 70.876 93.8922 70.876 93.9306 70.8751H93.9315C93.9699 70.8742 94.0083 70.8732 94.0467 70.8714H94.0476C94.086 70.8696 94.1244 70.8668 94.1619 70.8659H94.1628C94.2012 70.8632 94.2396 70.8604 94.2771 70.8577H94.278C94.3164 70.854 94.3539 70.8513 94.3923 70.8467C96.5297 70.6328 98.4349 69.2432 99.2997 67.2448C99.3152 67.2091 99.3308 67.1735 99.3454 67.1369C99.36 67.1012 99.3747 67.0647 99.3884 67.0281C99.403 66.9915 99.4167 66.955 99.4295 66.9184C99.8153 65.857 99.7696 64.994 99.2851 64.4007C99.1498 64.2398 99.0081 64.1008 98.8289 63.9674L98.7813 63.9326L98.732 63.8979C98.4714 63.7187 98.1323 63.5432 97.6368 63.3256L97.5883 63.3046L97.5389 63.2835L97.4887 63.2616L97.4375 63.2397L97.3844 63.2177L97.3314 63.1949L97.2747 63.1711L97.2199 63.1464L97.166 63.1226L97.1138 63.0998L97.0636 63.076H97.0627L97.0133 63.0532L96.9648 63.0303L96.9182 63.0065L96.8725 62.9846L96.8277 62.9617L96.7847 62.9398L96.7427 62.9179L96.7025 62.8959L96.6631 62.874L96.6247 62.852L96.5873 62.8301L96.5516 62.8091C96.0004 62.4699 95.8916 62.1591 96.0643 61.6855C96.2527 61.1653 96.7811 60.7192 97.4082 60.4989L97.4923 60.4715L97.5344 60.4587L97.5773 60.4459L97.6633 60.4239H97.6642L97.7072 60.4139L97.7949 60.3956L97.9266 60.3736H97.9275L97.9714 60.3691L98.0152 60.3636H98.0162L98.1039 60.3581H98.1048L98.1487 60.3563H98.1496L98.1935 60.3544H98.274L98.3087 60.3554L98.3425 60.3563H98.3434L98.4111 60.3599L98.444 60.3618H98.4449L98.4769 60.3636H98.4778L98.5089 60.3682C99.1114 60.4322 99.5109 60.7256 99.8281 61.3244H99.829L101.635 59.7236H101.633ZM43.2492 61.435C43.2528 61.4487 43.2547 61.4615 43.2574 61.4753L43.2492 61.435ZM40.5925 66.1331C40.6346 66.1304 40.6766 66.1285 40.7187 66.1249L40.5925 66.1331ZM106.388 64.5781H122.626V62.181H106.388V64.5781ZM0.70777 64.5781H16.9431V62.181H0.70777V64.5781ZM20.7306 32.4311C21.845 29.4316 22.4657 26.1972 19.4644 26.1972C15.5388 26.1972 13.6199 29.662 10.9642 36.8202C8.11828 44.4967 7.63467 47.6699 11.211 47.6699C13.8686 47.6699 15.9137 45.4201 17.7795 40.3984H25.3976C22.378 48.5357 17.2813 53.0966 8.85421 53.0966C0.888782 53.0966 -1.6015 49.2268 3.02253 36.7617C7.75351 24.0058 14.3339 20.4267 21.6631 20.4267C28.9931 20.4267 31.0684 25.102 28.3514 32.4311H20.7306ZM38.1059 21.2331H45.7257L44.1835 25.3909H44.2996C47.0294 22.3877 50.0069 20.4286 53.2981 20.4286C53.7606 20.4286 54.2561 20.4834 54.7014 20.5428L51.871 28.1609C51.0875 28.1024 50.2428 28.0439 49.4328 28.0439C46.6637 28.0439 43.0106 29.4865 41.4674 33.6443L34.5524 52.2885H26.587L38.1059 21.2331ZM47.5423 52.2875L59.063 21.2312H67.0257L55.5095 52.2875H47.5423ZM64.4403 18.2317C62.2015 18.2317 60.9033 16.7535 61.1986 14.8967C61.5935 12.3818 64.519 10.1411 67.3603 10.1411C69.601 10.1411 70.9056 11.5645 70.613 13.4194C70.2062 15.991 67.2277 18.2317 64.4403 18.2317ZM68.2077 52.2875L71.7064 21.2312H80.0174L76.218 43.4573H76.3341L88.7901 21.2312H96.7546L77.4439 52.2875H68.2077ZM89.9136 52.2875L101.432 21.2312H109.399L97.8818 52.2875H89.9136ZM106.243 18.2317C104.004 18.2317 102.711 16.7535 103.004 14.8967C103.402 12.3818 106.324 10.1411 109.168 10.1411C111.406 10.1411 112.715 11.5645 112.42 13.4194C112.013 15.991 109.035 18.2317 106.243 18.2317ZM119.699 12.347H127.665L124.367 21.2331H129.935L127.925 26.6598H122.357L116.127 43.4573C115.23 45.8817 115.383 46.8645 117.689 46.8645C118.324 46.8645 118.983 46.8033 119.52 46.7457L117.468 52.2885C115.672 52.4603 113.991 52.6349 112.146 52.6349C105.91 52.6349 105.463 50.7316 107.795 44.4391L119.699 12.347ZM133.411 15.0531C133.871 15.0384 134.225 14.8519 134.225 14.3464C134.225 13.7906 133.773 13.6653 133.311 13.6653H132.189V16.2397H132.549V15.0531H132.982L133.755 16.2397H134.19L133.411 15.0531ZM133.068 16.9564C131.989 16.9564 131.067 16.0761 131.067 14.9662C131.067 13.8591 131.989 12.9769 133.068 12.9769C134.148 12.9769 135.07 13.8591 135.07 14.9662C135.07 16.0761 134.148 16.9564 133.068 16.9564ZM133.068 17.3194C134.388 17.3194 135.431 16.2763 135.431 14.9662C135.431 13.6589 134.388 12.6158 133.068 12.6158C131.746 12.6158 130.704 13.6589 130.704 14.9662C130.704 16.2763 131.746 17.3194 133.068 17.3194Z" fill="#1B1C20"/>
</svg>
