<svg width="125" height="70" viewBox="0 0 125 70" fill="none" xmlns="http://www.w3.org/2000/svg">
<g clip-path="url(#clip0_599_13)">
<path d="M0 0.000976562H124.856V69.9986H0V0.000976562Z" fill="#EB2E31"/>
<path d="M7.63672 12.0357H16.5667C16.5667 12.0357 27.0454 11.7799 27.1732 26.4004V38.6906C27.1732 38.6906 27.1732 52.7924 16.0481 51.7552H7.63672V12.0357Z" fill="white"/>
<path d="M15.0117 18.2448V45.6741C15.0117 45.6741 19.7999 46.8392 19.6721 39.3371V24.1981C19.6721 24.1981 19.7999 17.4704 15.0117 18.2448Z" fill="#EB2E2E"/>
<path d="M30.7969 12.0356H38.036V51.7552H30.7969V12.0356Z" fill="white"/>
<path d="M58.6086 51.6415V45.8019H49.1671V34.6767H55.7598V28.3327H49.295V18.3726H58.3528V12.0356H41.793V51.7197L58.6086 51.6415Z" fill="white"/>
<path d="M72.0659 23.4166H78.4028C78.4028 23.4166 79.1771 11.1263 69.2171 11.1263C59.257 11.1263 59.7685 20.7028 59.7685 20.7028C59.7685 20.7028 58.4755 28.4677 66.759 34.6767C66.759 34.6767 75.4261 39.7207 72.1937 45.1554C72.1937 45.1554 67.0148 49.8158 66.8869 40.4951H60.2871C60.2871 40.4951 59.122 53.3039 69.9914 52.7853C69.9914 52.7853 78.9214 52.6574 79.5679 43.3367C79.5679 43.3367 80.6051 36.4812 73.6146 30.1372C73.6146 30.1372 63.6545 23.6652 67.2776 18.4934C67.2776 18.4934 71.4194 14.2238 72.0659 23.4095V23.4166Z" fill="white"/>
<path d="M81.8633 12.0356H98.4445V18.5005H89.4079V28.4676H96.1356V35.0603H89.273V45.8019H98.7215V52.0109H82.0338L81.8633 12.0356Z" fill="white"/>
<path d="M102.18 12.0356H109.454V45.8019H117.091V52.0109H102.18V12.0356Z" fill="white"/>
<path d="M114.312 12.6822C114.476 12.6467 114.71 12.6254 114.931 12.6254C115.272 12.6254 115.499 12.6893 115.655 12.8314C115.776 12.9379 115.854 13.1085 115.854 13.3074C115.854 13.6342 115.641 13.8544 115.385 13.9396V13.9538C115.577 14.0178 115.691 14.1954 115.755 14.4582C115.84 14.8064 115.897 15.0479 115.946 15.1402H115.613C115.57 15.0692 115.52 14.8561 115.449 14.5435C115.378 14.2025 115.236 14.0675 114.945 14.0604H114.639V15.1402H114.32V12.6822H114.312ZM114.632 13.8118H114.959C115.3 13.8118 115.52 13.6271 115.52 13.3358C115.52 13.0161 115.286 12.874 114.945 12.874C114.788 12.874 114.682 12.8882 114.625 12.9024V13.8118H114.632Z" fill="white"/>
<path d="M117.204 13.9752C117.204 14.5791 116.963 15.1261 116.565 15.5239C116.167 15.9217 115.62 16.1633 115.016 16.1633C114.412 16.1633 113.865 15.9146 113.467 15.5239C113.07 15.1261 112.828 14.5791 112.828 13.9752C112.828 13.3713 113.07 12.8243 113.467 12.4265C113.865 12.0287 114.412 11.7871 115.016 11.7871C115.62 11.7871 116.167 12.0358 116.565 12.4265C116.963 12.8243 117.204 13.3713 117.204 13.9752ZM116.707 13.9752C116.707 13.5063 116.515 13.0872 116.21 12.7817C115.904 12.4762 115.478 12.2844 115.016 12.2844C114.547 12.2844 114.128 12.4762 113.823 12.7817C113.517 13.0872 113.325 13.5134 113.325 13.9752C113.325 14.4441 113.517 14.8632 113.823 15.1687C114.128 15.4742 114.554 15.666 115.016 15.666C115.485 15.666 115.904 15.4742 116.21 15.1687C116.515 14.8632 116.707 14.437 116.707 13.9752Z" fill="white"/>
</g>
<defs>
<clipPath id="clip0_599_13">
<rect width="124.856" height="70" fill="white"/>
</clipPath>
</defs>
</svg>
