<svg width="191" height="19" viewBox="0 0 191 19" fill="none" xmlns="http://www.w3.org/2000/svg">
<g clip-path="url(#clip0_518_912)">
<path fill-rule="evenodd" clip-rule="evenodd" d="M0.417969 0.653148H6.61285C11 0.693733 14.5849 4.55944 14.5849 9.27742C14.5849 13.9954 11 17.8814 6.61285 17.922H0.417969V0.653148ZM3.1295 2.75341V15.8927H5.91212C9.9134 15.7811 11.8937 12.6764 11.8937 9.35859C11.8937 6.04078 9.87278 3.38248 6.61285 2.82444L3.11934 2.74327L3.1295 2.75341ZM25.0147 0.257446C30.2753 0.257446 34.5711 4.33622 34.5711 9.30786C34.5711 14.2795 30.2854 18.338 25.0147 18.338C19.744 18.338 15.4786 14.2795 15.4786 9.30786C15.4786 4.33622 19.7643 0.257446 25.0147 0.257446ZM25.0553 2.44903C28.8636 2.44903 31.9712 5.51318 31.9712 9.28756C31.9712 13.062 28.8636 16.1058 25.0553 16.1058C21.247 16.1058 18.1191 13.0417 18.1191 9.28756C18.1191 5.53347 21.247 2.44903 25.0553 2.44903ZM35.3124 0.693733H37.8716V15.9333H42.7564V17.9118H35.3226V0.693733H35.3124ZM51.0332 0.166131C53.0135 0.166131 54.8618 0.75461 56.3852 1.74894V4.89426C55.1056 3.37233 53.1963 2.378 51.0433 2.378C47.235 2.378 44.1274 5.48274 44.1274 9.28756C44.1274 13.0924 47.235 16.187 51.0433 16.187C53.1963 16.187 55.1056 15.1927 56.3852 13.6707V16.8465C54.8618 17.851 53.0135 18.4496 51.0332 18.4496C45.7726 18.4496 41.4768 14.3404 41.4768 9.30786C41.4768 4.27534 45.7726 0.166131 51.0332 0.166131ZM59.8787 15.8826H66.0532V17.922H57.1874V0.693733H66.0532V2.63166H59.8787V7.76564H66.0532V9.8659H59.8787V15.8826ZM75.7822 16.8363C75.5182 17.0798 75.2135 17.3132 74.8276 17.4857C74.462 17.6785 74.1066 17.8104 73.7004 17.8713C73.609 17.8915 73.5074 17.9118 73.416 17.9118C73.3246 17.9321 73.223 17.9321 73.1316 17.9321C72.8676 17.9321 72.5934 17.8915 72.3294 17.8408C72.0856 17.7596 71.8317 17.648 71.6083 17.4755C71.3646 17.2828 71.1716 17.0393 71.0193 16.7349C70.8466 16.4508 70.7552 16.1464 70.7146 15.8217V15.7101C70.6943 15.6492 70.6943 15.6188 70.6943 15.5782C70.6943 15.5376 70.6943 15.5173 70.7146 15.4869V15.3347C70.7146 15.3347 70.7349 15.3144 70.7349 15.2941V15.1622C70.8466 14.6245 71.1005 14.2085 71.4763 13.8635C71.8419 13.5185 72.238 13.2141 72.6543 12.9706C72.4207 12.7068 72.2176 12.4227 72.0247 12.1285C71.8317 11.8647 71.7403 11.54 71.7403 11.2153V11.0631C71.7403 11.0631 71.7606 10.9921 71.7606 10.9312C71.781 10.9312 71.781 10.911 71.781 10.8907V10.8704C71.781 10.8704 71.8013 10.8095 71.8013 10.7892C71.8013 10.7689 71.8216 10.7486 71.8216 10.7283C71.913 10.3123 72.1262 9.98765 72.4715 9.75429C72.7965 9.54122 73.1621 9.40932 73.5379 9.38903H73.7816C74.2386 9.42961 74.6753 9.6021 75.0612 9.90648C75.4471 10.1906 75.6299 10.6066 75.6299 11.1646C75.6299 11.6821 75.4573 12.0981 75.1526 12.4024C74.8479 12.7271 74.4823 13.0112 74.1066 13.275L75.9346 15.4869C76.1072 15.2738 76.3002 15.0709 76.4728 14.8578C76.6251 14.6448 76.7978 14.4215 76.9298 14.1882L77.5595 14.8375C77.4477 15.0506 77.3157 15.2535 77.1634 15.426C77.0314 15.5985 76.879 15.7913 76.7267 15.9638C76.6861 16.0043 76.6455 16.0348 76.615 16.0754C76.5744 16.116 76.5337 16.1565 76.5033 16.187L77.8337 17.8104H76.6556L75.8026 16.8363H75.7822ZM73.4769 17.0798C73.8019 17.0393 74.1066 16.9479 74.3706 16.7755C74.6347 16.603 74.8885 16.4102 75.1323 16.2073C75.1526 16.2073 75.1729 16.187 75.1932 16.1667C75.2135 16.1667 75.2338 16.1464 75.2542 16.1261L73.1723 13.6504C73.1723 13.6504 73.1519 13.6707 73.1316 13.691C73.1113 13.691 73.091 13.7113 73.0707 13.7316C73.0301 13.7519 73.0098 13.7722 72.9793 13.7925C72.959 13.7925 72.9387 13.8128 72.9184 13.8331C72.7457 13.9447 72.5934 14.0664 72.4411 14.178C72.2887 14.2896 72.1567 14.4418 72.045 14.594C72.0044 14.6752 71.9536 14.7462 71.913 14.8375C71.8724 14.9187 71.8317 15.01 71.8216 15.1013C71.8013 15.1825 71.781 15.2535 71.7606 15.3347C71.7403 15.4159 71.7403 15.4869 71.7403 15.5681C71.7403 15.9638 71.8927 16.329 72.1973 16.6537C72.4817 16.9581 72.8676 17.1306 73.3246 17.1306C73.3246 17.1306 73.3449 17.1306 73.3449 17.1103H73.4261C73.4261 17.1103 73.4465 17.09 73.4668 17.09H73.4871L73.4769 17.0798ZM72.7153 11.0429V11.1037C72.7153 11.1037 72.6949 11.1443 72.6949 11.1646V11.2052C72.6949 11.4183 72.7559 11.6009 72.8676 11.7734C72.9793 11.9662 73.1113 12.1386 73.2637 12.2908C73.3043 12.3517 73.3551 12.4024 73.3957 12.4633C73.4363 12.5242 73.4871 12.5546 73.5277 12.6155C73.5683 12.5952 73.5886 12.5749 73.6191 12.5546C73.6394 12.5343 73.68 12.5141 73.7105 12.5141C73.9441 12.3822 74.1269 12.23 74.3198 12.0575C74.5128 11.885 74.6245 11.6719 74.6651 11.4081V11.2965C74.6651 11.2965 74.6854 11.2559 74.6854 11.2356V11.1951C74.6854 10.9312 74.594 10.6979 74.4011 10.5457C74.2081 10.3732 74.005 10.2819 73.7714 10.2616H73.5988C73.4058 10.2616 73.2129 10.3428 73.0504 10.4544C72.8574 10.5863 72.7457 10.7791 72.7051 11.0429H72.7153ZM91.7366 0.0849609C95.1692 0.0849609 98.1955 1.84025 99.8915 4.44783L97.6573 5.59435C96.4183 3.63613 94.2247 2.33742 91.7467 2.33742C87.8978 2.31713 84.7699 5.44215 84.7699 9.28756C84.7699 13.133 87.8978 16.2377 91.7467 16.2377C94.9864 16.2377 97.5456 14.6143 97.7284 11.2458H92.1631V9.2064H97.5963C97.5963 9.2064 100.359 9.2064 100.531 9.2064C100.531 9.22669 100.531 3.91008 100.531 9.29771C100.531 14.6853 97.5963 18.5206 91.7264 18.5206C85.8565 18.5206 82.099 14.3708 82.099 9.29771C82.099 4.22461 86.4354 0.0849609 91.7366 0.0849609ZM99.0994 17.9118L106.229 0.632856H107.925L115.115 17.9118H112.312L110.331 13.0315H103.791L101.852 17.9118H99.1095H99.0994ZM104.776 10.8501L107.082 4.72177L109.428 10.8501H104.776ZM140.158 17.9118L147.287 0.632856H148.983L156.173 17.9118H153.371L151.39 13.0315H144.85L142.91 17.9118H140.168H140.158ZM145.855 10.8501L148.14 4.72177L150.486 10.8501H145.855ZM174.393 17.9118L181.532 0.632856H183.228L190.418 17.9118H187.615L185.635 13.0315H179.095L177.155 17.9118H174.413H174.393ZM180.069 10.8501L182.375 4.72177L184.721 10.8501H180.069ZM121.289 2.65195C122.985 2.84473 123.615 3.56511 123.615 5.25952C123.635 6.95394 122.467 7.8468 120.985 7.8468H118.73V2.6418H121.289V2.6621V2.65195ZM121.421 9.94707H121.553C122.813 9.94707 125.057 10.2312 125.057 13.0315C125.057 15.284 123.097 15.9232 121.228 15.9029L121.685 15.9232H118.73V9.94707H121.421ZM118.1 17.9118H122.559C125.605 17.9118 127.799 15.913 127.799 13.0315C127.799 10.8196 126.428 9.12523 124.478 8.45558C125.585 7.75549 126.215 6.49736 126.215 4.89426C126.215 2.28669 124.458 0.683587 121.868 0.632856C120.456 0.612563 119.025 0.632856 117.603 0.632856H116.039V17.9118H118.1ZM134.38 2.65195C136.076 2.84473 136.705 3.56511 136.726 5.25952C136.746 6.95394 135.578 7.8468 134.095 7.8468H131.841V2.6418H134.38V2.6621V2.65195ZM134.532 9.94707H134.664C135.903 9.94707 138.168 10.2312 138.168 13.0315C138.168 15.284 136.187 15.9232 134.339 15.9029L134.776 15.9232H131.841V9.94707H134.532ZM131.211 17.9118H135.669C138.696 17.9118 140.91 15.913 140.91 13.0315C140.91 10.8196 139.518 9.12523 137.569 8.45558C138.696 7.75549 139.305 6.49736 139.305 4.89426C139.305 2.28669 137.548 0.683587 134.979 0.632856C133.547 0.612563 132.115 0.632856 130.693 0.632856H129.15V17.9118H131.211ZM157.321 0.693733H158.956L171.062 13.4779V0.693733H173.407V17.9118H171.62L159.758 5.25952V17.9118H157.321V0.693733Z" fill="#231F20"/>
</g>
<defs>
<clipPath id="clip0_518_912">
<rect width="190" height="18.4356" fill="white" transform="translate(0.417969 0.0849609)"/>
</clipPath>
</defs>
</svg>
