<svg width="116" height="70" viewBox="0 0 116 70" fill="none" xmlns="http://www.w3.org/2000/svg">
<g clip-path="url(#clip0_518_447)">
<path fill-rule="evenodd" clip-rule="evenodd" d="M6.4358 56.9185V70.005H0.417969V38.8884H21.0092V44.4115H6.4358V51.3955H19.1983V56.9185H6.4358Z" fill="black"/>
<path fill-rule="evenodd" clip-rule="evenodd" d="M46.3442 38.8884V44.4115H30.9701V50.9393H45.0938V56.4624H30.9701V64.4819H47.034V70.005H25.0508V38.8884H46.3442Z" fill="black"/>
<path fill-rule="evenodd" clip-rule="evenodd" d="M69.6001 60.5492V38.8884H75.2237V70.005H69.1936L57.3365 47.8079H57.2564V70.005H51.6328V38.8884H57.9894L69.5262 60.5492H69.6001Z" fill="black"/>
<path fill-rule="evenodd" clip-rule="evenodd" d="M92.7499 44.3062C93.8771 44.3062 94.9181 44.522 95.879 44.9535C96.8398 45.3849 97.6652 46.3342 98.3551 47.8013C99.0449 49.2684 99.3899 51.395 99.3899 54.1873C99.3899 55.9996 99.1743 57.6947 98.7431 59.2789C98.312 60.8569 97.5975 62.1391 96.6119 63.1192C95.6203 64.0993 94.3637 64.5862 92.83 64.5862H86.96V44.3001H92.7561L92.7499 44.3062ZM93.5568 70.0045C95.8174 70.0045 97.7391 69.4991 99.316 68.4943C100.893 67.4834 102.137 66.1643 103.049 64.5246C103.96 62.8849 104.607 61.1405 104.989 59.2913C105.371 57.442 105.562 55.5866 105.562 53.7189C105.562 52.0484 105.389 50.3656 105.044 48.6704C104.699 46.9753 104.102 45.3911 103.246 43.9117C102.39 42.4323 101.182 41.2242 99.6178 40.2934C98.0533 39.3626 96.1192 38.8941 93.8094 38.8941H81.0469V70.0045H93.5691H93.5568Z" fill="black"/>
<path fill-rule="evenodd" clip-rule="evenodd" d="M115.657 38.8884V70.005H109.633V38.8884H115.657Z" fill="black"/>
<path fill-rule="evenodd" clip-rule="evenodd" d="M47.503 0.00476074L47.4414 27.0345H51.4759V12.9618H58.0234V9.41124H51.4759V3.76489H63.105L63.1543 0.0294173L47.503 0.00476074Z" fill="black"/>
<path fill-rule="evenodd" clip-rule="evenodd" d="M68.5732 27.0345L68.6348 0.00476074H64.5941V14.0775H58.0527V17.6342H64.5941V23.2744H52.9712L52.9219 27.016L68.5732 27.0345Z" fill="black"/>
</g>
<defs>
<clipPath id="clip0_518_447">
<rect width="115.238" height="70" fill="white" transform="translate(0.417969 0.00488281)"/>
</clipPath>
</defs>
</svg>
