<svg width="145" height="71" viewBox="0 0 145 71" fill="none" xmlns="http://www.w3.org/2000/svg">
<g clip-path="url(#clip0_518_702)">
<path d="M35.2386 1.10449H0.559181C-0.551729 7.08436 5.25674 9.43314 5.25674 9.43314H42.2786L35.2386 1.10449Z" fill="#231F20"/>
<path d="M45.351 13.1595H10.6779C9.56064 19.1457 15.3691 21.4881 15.3691 21.4881H52.391L45.351 13.1595Z" fill="#231F20"/>
<path d="M144.704 1.10449H110.024L102.984 9.43949H140.006C140.006 9.43949 145.815 7.09071 144.697 1.10449H144.704Z" fill="#231F20"/>
<path d="M99.9111 13.1595L92.8711 21.4881H129.893C129.893 21.4881 135.701 19.1394 134.584 13.1595H99.9047H99.9111Z" fill="#231F20"/>
<path d="M89.797 25.2211L86.6928 28.8966C85.8739 28.0967 84.3948 26.5859 83.4807 25.2211H59.7643C59.6056 26.789 59.3961 28.2618 59.1295 29.5568L55.4667 25.2211H20.7873C19.67 31.2073 25.4785 33.5497 25.4785 33.5497H119.779C119.779 33.5497 125.587 31.2009 124.47 25.2211H89.797Z" fill="#231F20"/>
<path d="M81.932 21.4947L79.1262 13.1661H60.0312C60.0757 14.4738 60.1392 15.718 60.1392 16.8924C60.1392 18.3842 60.1074 19.9521 60.0312 21.5011H81.932V21.4947Z" fill="#231F20"/>
<path d="M89.3793 7.52253C89.3793 7.52253 88.4842 2.43139 82.644 0.52063H62.6603C60.6861 3.73909 60.1274 6.9766 60.0195 10.0173H80.8602C81.1268 7.98594 81.4188 7.52253 89.3856 7.52253H89.3793Z" fill="#231F20"/>
<path d="M78.4727 46.2142H80.5167L79.4947 43.675L78.4727 46.2142Z" fill="#231F20"/>
<path d="M60.2411 40.5072C57.4035 40.5072 54.9532 42.4688 53.7852 46.2141H65.7258C65.3831 42.5577 64.2214 40.5072 60.2411 40.5072Z" fill="#231F20"/>
<path d="M31.2578 36.9522V39.9294C31.2578 43.4018 34.07 46.214 37.5424 46.214H50.3274C52.016 41.3451 56.0533 39.5613 59.7098 39.5613C60.5287 39.5613 61.2714 39.6819 61.9507 39.9041C66.4324 40.7864 66.6673 39.6501 66.6736 39.4597V39.4343C66.6736 39.4343 66.6736 39.447 66.6736 39.4597V46.214H77.1987L80.3854 38.279L83.5658 46.214H107.72C111.193 46.214 114.005 43.4018 114.005 39.9294V36.9522H31.2578Z" fill="#231F20"/>
<path d="M53.0508 51.5463C53.0508 54.5235 53.4317 56.758 54.0982 58.4149H64.5344V54.3902H62.7379V53.584H69.7081V54.3902H67.7529V58.4149H72.3108L76.0244 49.153H53.1841C53.1016 49.9085 53.0508 50.702 53.0508 51.5526V51.5463Z" fill="#231F20"/>
<path d="M74.8867 55.1517H84.0978L81.6918 49.1465H77.299L74.8867 55.1517Z" fill="#231F20"/>
<path d="M73.5781 58.4146H85.4046L84.4206 55.9643H74.5621L73.5781 58.4146Z" fill="#231F20"/>
<path d="M99.3593 49.1465H84.7461L88.4661 58.4083H99.353C101.987 57.1831 103.816 54.5106 103.816 51.4191V49.1465H99.3657H99.3593Z" fill="#231F20"/>
<path d="M49.6587 49.1468H41.457V51.4194C41.457 54.5173 43.2853 57.1835 45.9134 58.4086H51.1759C50.1602 56.6121 49.5127 54.3395 49.5127 51.54C49.5127 50.6894 49.5635 49.8895 49.6524 49.1405L49.6587 49.1468Z" fill="#231F20"/>
<path d="M63.2934 61.2589H56.082C57.2564 62.2174 58.6911 62.5856 60.2337 62.5856C61.4715 62.5856 62.4809 62.1031 63.2871 61.2589H63.2934Z" fill="#231F20"/>
<path d="M89.6025 61.2589L90.0532 62.3761H92.3131V63.1823H84.0099V62.3761H87.0061L86.5554 61.2589H72.4437L71.993 62.3761H73.9926V63.1823H68.7237V62.3761H70.717L71.1677 61.2589H67.7525V63.5315C67.7525 63.5315 66.8066 60.9478 63.3279 62.6046C62.2932 63.3029 61.087 63.6902 59.7095 63.6902C57.7289 63.6902 55.4246 62.9093 53.5075 61.2589H51.3999C51.3682 61.5699 51.3555 61.8873 51.3555 62.2047C51.3555 65.8231 53.3678 68.9654 56.3133 70.5207H88.955C91.9005 68.959 93.9128 65.8231 93.9128 62.2047C93.9128 61.8873 93.9001 61.5699 93.8684 61.2589H89.6089H89.6025Z" fill="#231F20"/>
</g>
<defs>
<clipPath id="clip0_518_702">
<rect width="144.425" height="70" fill="white" transform="translate(0.417969 0.520508)"/>
</clipPath>
</defs>
</svg>
