<svg width="94" height="70" viewBox="0 0 94 70" fill="none" xmlns="http://www.w3.org/2000/svg">
<g clip-path="url(#clip0_518_739)">
<path fill-rule="evenodd" clip-rule="evenodd" d="M26.9923 19.9161H44.9364V15.9564H30.8277V3.9598H40.8271V7.80186H36.9917V12.0164H44.8777V0.00012207H26.9531L27.0118 19.9161H26.9923ZM66.716 19.9161H48.7718V15.9564H62.8806V3.9598H52.8812V7.80186H56.7166V12.0164H48.8305V0.00012207H66.7747L66.716 19.9161ZM26.9923 23.8758H44.9364V27.8159H30.8277V39.8321H40.8271V35.99H36.9917V31.7755H44.8777V43.7918H26.9531L27.0118 23.8758H26.9923ZM66.716 23.8758H48.7718V27.8159H62.8806V39.8321H52.8812V35.99H56.7166V31.7755H48.8305V43.7918H66.7747L66.716 23.8758Z" fill="#231F20"/>
<path fill-rule="evenodd" clip-rule="evenodd" d="M80.8056 57.455H83.3886L87.1066 62.2772L90.6876 57.455H93.3097L88.2807 64.061V68.9616H85.9325V64.0414L80.8056 57.455ZM77.792 57.455H79.8663V69.2164H77.792V64.1394H71.7454V69.2164H69.6712V57.455H71.7454V62.1399H77.792V57.455ZM67.7926 68.6479V66.2564C66.4424 67.413 64.0355 68.0795 61.9417 67.8834C57.6758 67.4718 56.8344 62.8064 59.3782 60.6894C61.3742 59.0428 65.1705 59.474 67.7535 61.3166V58.9448C60.748 54.593 52.5685 60.4737 56.58 67.1778C58.5368 70.4513 63.4876 70.765 67.7926 68.6479ZM43.1952 69.4124H45.3477V61.4343L52.7054 69.4124H54.6623V57.455H52.5293L52.588 65.5312L45.2303 57.5138H43.1952V69.4124ZM17.7368 57.455H20.359L24.1552 66.4133L27.9319 57.455H30.5541L25.1728 69.2556H23.216L17.7368 57.455ZM31.689 57.455H41.3362V59.5328H33.9394V62.3556H38.6162V64.3746H33.9394V67.3346H41.3362V69.2556H31.689V57.455ZM14.782 57.455H16.7193V69.2948H14.782V57.455ZM12.9622 61.2578L12.923 58.8271C10.9466 57.7686 8.44188 57.259 6.17195 57.553C-3.31869 58.7879 -1.22488 73.7053 13.197 68.1187V63.6101H7.87439V65.5312H11.1227V66.8249C1.84735 69.3928 1.65167 61.7087 4.88044 60.0229C7.52216 58.6507 12.2186 60.2581 12.9817 61.2382L12.9622 61.2578Z" fill="#231F20"/>
</g>
<defs>
<clipPath id="clip0_518_739">
<rect width="92.8713" height="70" fill="white" transform="translate(0.417969)"/>
</clipPath>
</defs>
</svg>
