<svg width="109" height="70" viewBox="0 0 109 70" fill="none" xmlns="http://www.w3.org/2000/svg">
<g clip-path="url(#clip0_518_731)">
<path fill-rule="evenodd" clip-rule="evenodd" d="M47.2835 65.4037C46.5954 65.7847 44.2937 66.0944 43.3682 66.1182C37.1986 66.3564 31.6222 63.1172 28.7747 57.7344C23.7916 48.2788 29.5815 37.013 39.3105 35.0124C40.6394 34.7504 42.0394 34.5836 43.4869 34.6551C44.3174 34.7027 46.7852 35.0124 47.331 35.3696C46.9751 35.7507 46.6666 35.9651 46.2869 36.3223C44.6259 37.9657 43.1547 40.0855 42.1818 42.2053C41.9207 42.7769 41.1851 44.5156 41.1614 45.111H45.1716C46.3106 42.11 48.4937 38.9661 51.2701 37.275C51.8158 37.4894 52.8836 38.4659 53.287 38.8232C53.8328 39.2995 54.426 39.9664 54.9481 40.6333C56.4193 42.5149 56.5142 43.1104 57.4159 45.1349H61.4262C61.1651 43.4914 59.7651 40.8477 58.9821 39.633C58.0329 38.1801 57.3685 37.5132 56.3007 36.3223C55.9922 35.9651 55.5888 35.7507 55.2803 35.3696C55.9922 34.9885 58.2227 34.7027 59.1719 34.6551C67.8568 34.1787 75.7112 41.2049 75.6637 50.4224C75.6637 53.2328 74.9044 55.7813 73.7891 57.8296C72.7687 59.7351 71.2738 61.4976 69.6128 62.8075C66.2195 65.4751 61.5448 66.7136 57.0837 65.8562C56.443 65.7371 55.8498 65.5227 55.2566 65.4037C55.3515 65.2131 56.3956 64.2842 56.5854 64.0937C56.9651 63.7126 57.4397 63.2124 57.7956 62.7837C60.2872 59.4969 61.6872 56.5435 62.138 51.9467H52.8599L52.9074 55.7813L57.3447 55.8528C57.321 56.2339 56.5379 57.8058 56.3007 58.1631C54.9481 60.402 53.6192 61.9263 51.365 63.4744C50.7955 63.2839 49.087 61.7357 48.5175 61.1403C47.8293 60.4258 46.8801 59.0443 46.3581 58.1869C46.1208 57.7582 45.3615 56.3291 45.314 55.8528L49.7988 55.7813V51.9467H40.5207C40.758 53.5425 40.8766 54.7572 41.3275 56.2101C42.1343 58.7347 43.2496 60.8307 44.8157 62.7837C46.0022 64.2604 46.2395 64.2604 47.2124 65.2607L47.2835 65.3322V65.4037ZM45.8361 69.7385C46.5005 69.6194 47.1412 69.4765 47.7819 69.3097C48.3988 69.143 48.9683 68.9525 49.5615 68.7381C52.8362 67.4996 49.9887 68.0236 54.8057 69.3097C55.4227 69.4765 56.0634 69.6194 56.7278 69.7385C58.7922 70.0957 61.1889 70.0957 63.2533 69.7385C64.0127 69.5956 64.7957 69.4288 65.4839 69.2145C66.9314 68.7858 68.0941 68.2618 69.3517 67.5949C71.7009 66.3802 73.9552 64.3319 75.3078 62.5217C76.9214 60.402 78.1316 58.2107 78.9383 55.1144C79.7214 52.0658 79.6977 48.4217 78.8672 45.373C77.2773 39.5139 73.623 35.5364 69.1619 33.0831C64.511 30.5108 58.5312 30.0583 53.382 31.9161C50.2734 33.0355 52.2667 33.0117 49.4666 32.0113C41.3275 29.1056 32.9511 31.4874 27.5883 37.9181C21.6085 45.0872 21.8221 55.4241 27.1849 62.3788C28.6798 64.3319 30.6493 66.1182 33.0935 67.4996C34.9206 68.5476 36.9851 69.2621 39.1207 69.6908C41.2563 70.0957 43.6767 70.0957 45.8361 69.7385Z" fill="#231F20"/>
<path fill-rule="evenodd" clip-rule="evenodd" d="M21.9401 20.6975C21.9401 19.197 21.9401 17.6727 21.9401 16.1722C21.9401 15.4577 21.9876 14.8146 22.3435 14.362C23.1503 13.4093 24.4554 14.2191 23.9571 13.0521C23.3401 12.9092 18.6417 12.9806 17.3604 12.9806C17.0756 12.9806 16.5061 12.9568 16.2451 12.9806C15.8417 13.0283 15.7468 13.4332 16.0078 13.6713C16.4587 14.0762 18.0485 13.3141 18.0011 16.1722C18.0011 17.2678 18.1197 19.721 17.9536 20.6261C17.8824 20.7214 17.9536 20.6737 17.835 20.7452L16.8383 21.293C16.3875 21.4835 15.9366 21.6264 15.4383 21.7217C13.3501 22.198 11.3569 22.0313 9.45853 21.031C8.2958 20.4355 8.03478 19.9592 7.41782 19.4352C7.13307 19.197 6.84832 18.7921 6.61102 18.4587C5.82796 17.4107 5.211 16.0055 4.90252 14.6955C3.81097 10.3607 5.0449 5.40662 8.6992 2.97722C12.8755 0.238193 18.7367 1.35762 20.635 6.14496C20.8723 6.7404 20.6825 7.28821 21.4418 7.07385C21.6316 6.52605 21.5367 3.26303 21.5367 2.38178C21.4181 1.90543 18.8553 1.07181 18.5231 1.00036C14.8451 1.67489e-05 10.5738 -0.119071 7.1568 1.3338C3.0991 3.07249 0.299048 6.43078 0.417694 12.2423C0.512611 17.7441 3.76352 20.8643 7.86868 22.4362C11.3569 23.7938 15.4858 23.4842 19.0926 22.2695C19.8519 22.0313 21.6791 21.2453 21.9401 20.6737V20.6975Z" fill="#231F20"/>
<path fill-rule="evenodd" clip-rule="evenodd" d="M49.4444 1.14352V0.714803C48.7563 0.428992 45.7427 0.54808 44.5562 0.54808C43.9867 0.54808 43.3697 0.428992 43.1562 0.881526C43.0375 1.64369 45.2444 0.762439 45.4579 2.88221C45.5766 4.09691 45.6003 9.78932 45.624 11.4804C45.624 12.7427 45.7664 14.6719 45.624 15.8628C44.9833 20.2214 40.4985 24.2228 35.6577 21.5076C33.9967 20.5787 32.478 18.8162 32.217 16.2915C32.1221 15.4103 32.1458 4.73998 32.1933 3.23947C32.2645 0.810074 34.1391 1.5246 34.4476 1.09589C34.8984 0.452809 33.4272 0.54808 33.0238 0.54808C31.1255 0.54808 28.0881 0.452809 26.4508 0.54808C25.8338 0.571897 25.383 1.19116 26.5932 1.31024C27.2813 1.3817 27.6847 1.69133 27.922 2.14386C28.3017 2.83457 28.1593 5.33542 28.1593 6.31194C28.1593 8.38408 28.0644 13.2667 28.1593 15.0054C28.8475 25.7709 44.9122 26.4855 46.9529 16.0057C47.2139 14.6481 47.1427 9.28915 47.1664 7.57428C47.1664 6.1214 47.1664 4.64471 47.2139 3.19184C47.2613 1.07207 48.8512 1.45315 49.4919 1.14352H49.4444Z" fill="#231F20"/>
<path fill-rule="evenodd" clip-rule="evenodd" d="M72.4847 20.0543C72.4847 19.2207 72.6508 15.8862 72.3186 15.4575C71.8915 15.529 71.9864 16.0053 71.5593 16.7675C66.671 25.6514 55.7793 23.1268 54.8302 12.6947C54.5929 10.1224 55.2336 7.6215 56.3251 5.78754C58.8641 1.50037 65.0337 -0.30977 68.9016 3.28669C69.6609 3.9774 70.2779 4.81102 70.705 5.76373C70.7999 6.0019 70.9186 6.21626 70.9898 6.50207C71.0847 6.88315 70.9898 7.14515 71.4406 7.09751C71.7016 6.64498 71.583 5.4541 71.583 4.83484C71.583 4.31085 71.6542 2.88179 71.583 2.45307C71.5355 2.11963 71.4406 2.16726 70.9423 1.88145C70.6813 1.71473 70.4203 1.59564 70.1592 1.47655C67.4067 0.214218 62.993 -0.428858 59.9794 0.309488C54.9963 1.52419 51.3657 4.69193 50.7487 10.2414C50.0368 16.6007 53.3589 20.5068 57.7251 22.2693C61.9252 23.9604 65.271 23.4602 69.3524 21.7215L71.7016 20.5068C71.9864 20.3163 72.2237 20.1496 72.461 20.0067L72.4847 20.0543Z" fill="#231F20"/>
<path fill-rule="evenodd" clip-rule="evenodd" d="M97.5422 20.0544C97.5422 19.2446 97.7083 15.8387 97.3761 15.4338C97.0202 15.5053 96.9964 16.0054 96.6168 16.7438C96.3795 17.244 96.1184 17.6012 95.8337 18.0299C90.9217 25.1514 80.908 22.8887 79.9114 12.7186C79.4605 8.16944 81.5962 3.59645 85.9386 1.92922C89.8539 0.404893 94.0303 1.92922 95.7625 5.64477C96.2608 6.69275 96.0235 6.95474 96.4269 7.14528C96.8541 6.95474 96.688 5.93058 96.688 5.07315C96.688 4.28717 96.688 3.47737 96.688 2.69138C96.688 2.14358 96.332 2.00067 95.454 1.59577C92.6777 0.309622 88.3353 -0.404907 85.2505 0.285804C81.6199 1.11942 78.5825 3.00101 76.8978 6.3593C76.352 7.43109 76.0198 8.76488 75.83 10.1225C75.474 12.9568 76.091 16.0054 77.3961 17.9585C78.6537 19.8639 80.5758 21.4359 82.7352 22.2457C85.4166 23.246 87.7658 23.7223 90.8506 22.9602C93.0336 22.4124 94.8845 21.6502 96.7591 20.507C97.0439 20.3402 97.2812 20.1497 97.5422 20.0306V20.0544Z" fill="#231F20"/>
<path fill-rule="evenodd" clip-rule="evenodd" d="M100.247 22.412C100.2 23.2933 101.101 23.0789 101.813 23.0789C102.976 23.0789 107.983 23.1504 108.434 23.0313C108.813 22.936 109.359 22.1977 108.03 22.031C107.389 21.9595 106.939 21.6499 106.701 21.1259C106.369 20.3875 106.511 17.7676 106.511 16.7673V3.42939C106.511 0.785632 108.434 1.59543 108.766 1.11908C109.24 0.452185 107.556 0.571273 107.271 0.571273C105.871 0.571273 101.433 0.476003 100.65 0.571273C100.318 0.618908 100.01 0.857085 100.342 1.16671C100.508 1.33344 100.983 1.2858 101.267 1.35725C101.813 1.47634 102.264 1.92888 102.406 2.42905C102.644 3.19121 102.525 14.4093 102.525 15.7193C102.525 17.196 102.549 18.6965 102.525 20.1732C102.525 20.8401 102.311 21.3641 101.861 21.7213C101.244 22.2215 100.627 21.8166 100.223 22.3882L100.247 22.412Z" fill="#231F20"/>
</g>
<defs>
<clipPath id="clip0_518_731">
<rect width="108.443" height="70" fill="white" transform="translate(0.417969)"/>
</clipPath>
</defs>
</svg>
