<svg width="131" height="70" viewBox="0 0 131 70" fill="none" xmlns="http://www.w3.org/2000/svg">
<path d="M87.9829 2.2101C91.7848 0.306591 93.6857 0.552202 93.747 2.45571C93.8084 4.97325 93.4404 8.22764 93.1338 10.6224C91.6621 23.6399 89.332 34.2627 89.148 47.5873C95.464 31.3768 100.738 20.0171 107.483 6.13992C109.629 1.65746 111.04 2.51712 112.756 1.71887C119.686 -1.35131 119.931 0.552201 119.011 4.29781C115.7 18.175 107.176 61.9557 105.889 68.6487C105.521 70.6136 103.374 69.7539 102.884 69.0171C100.37 65.5785 97.6103 65.5171 97.9782 63.3066C99.5112 52.0697 105.03 23.8855 106.44 17.254C99.082 32.3592 91.5395 51.2101 87.5537 61.9557C86.6952 64.1662 85.1621 64.0434 84.2423 62.3241C82.9546 59.9908 80.3791 58.8241 79.8886 56.061C78.6008 47.2803 81.4829 30.5785 81.8508 20.0171C77.865 31.6224 71.1197 53.9732 68.1763 64.1048C67.0112 68.3417 62.9027 67.6662 63.9452 63.5522C68.4216 46.482 78.0489 16.4557 82.2187 5.64869C83.2612 3.13115 85.8367 3.25396 87.9829 2.2101Z" fill="#D6001C"/>
<path d="M63.6383 0.0613279C62.3506 -0.24569 58.5487 1.78062 56.2185 2.14904C55.4827 2.27185 54.8081 3.0701 54.5628 3.68413C50.8223 12.1578 47.511 20.2631 44.6289 27.6929C40.9496 28.3069 36.6572 29.1666 31.8742 30.2104C35.3081 21.3683 38.8034 12.649 42.176 4.23676C43.8317 0.184127 39.4166 -0.245697 37.6996 3.92974C35.4921 9.39465 31.3223 19.5876 26.7232 31.4999C23.3506 32.2982 19.7326 33.2806 15.9921 34.3245C13.294 35.1227 13.1713 35.8596 14.3364 37.4561C15.0109 38.3771 16.2987 38.2543 16.9732 38.9297C18.5676 40.649 19.4874 42.6139 22.3694 42.921C19.794 49.6754 17.2185 56.7367 15.0109 63.4297C13.5393 67.6666 17.6477 68.5876 19.2421 64.0438C21.8176 56.8596 24.5157 49.5525 27.2751 42.2455C29.4827 41.6929 35.1242 40.5262 40.2138 39.421C36.1666 50.535 33.4685 59.0087 32.4874 63.1841C32.3034 63.9824 32.61 64.4122 32.7326 64.7806C34.143 66.7455 35.4308 66.8683 37.2091 69.3245C37.6996 69.9999 39.294 70.3683 39.8459 68.7104C43.5864 57.2894 47.511 46.6052 51.1289 36.9648C52.6006 36.6578 55.36 35.9824 56.9544 33.4648C59.8977 29.1052 60.7562 29.9648 61.4308 28.6754C62.3506 26.9561 61.7374 25.421 58.61 25.7894C58.61 25.7894 57.4449 25.9122 55.2374 26.1578C58.7327 17.1315 61.7374 9.51747 63.8836 3.74554C64.7421 1.71922 64.8034 0.368345 63.6383 0.0613279Z" fill="#D6001C"/>
<path d="M55.4216 54.4036C54.3178 55.0791 53.398 54.3422 54.9311 52.2545C55.1763 51.8861 55.4829 51.5177 55.7282 51.2107C55.9735 52.0089 56.2801 52.8685 56.5254 53.6668C56.0961 53.851 55.7895 54.0966 55.4216 54.4036ZM57.4452 44.3949C57.1999 44.7019 56.8933 45.0089 56.648 45.2545C56.5867 45.0703 56.5254 44.7633 56.4641 44.6405C55.6056 41.3861 59.3461 42.1843 57.4452 44.3949ZM59.4075 50.8422C59.2235 51.0878 58.8556 51.3335 58.6103 51.6405C58.3037 50.658 57.9358 49.6756 57.6905 48.7545C58.549 47.6493 59.4075 46.6054 60.1433 45.4387C63.148 40.7107 57.2612 38.0089 54.6244 41.0791C53.3367 42.6756 53.6433 44.3335 54.0112 45.6229C54.0726 46.1142 54.2565 46.6668 54.5631 47.4036C53.766 48.1405 52.9075 49.1229 51.7424 50.4124C48.8603 53.851 49.6575 58.1493 52.7235 59.1931C54.6244 59.8071 56.4027 58.9475 57.9358 57.5352C58.0584 57.7194 58.1197 57.9036 58.1811 58.1493C58.9782 60.1756 61.5537 59.6229 60.5726 57.1054C60.3886 56.737 60.2046 56.1229 59.9594 55.4475C60.4499 54.7721 60.8792 54.2194 61.2471 53.6054C63.0867 50.8422 61.3084 49.1843 59.4075 50.8422Z" fill="#D6001C"/>
</svg>
