<svg width="190" height="69" viewBox="0 0 190 69" fill="none" xmlns="http://www.w3.org/2000/svg">
<g clip-path="url(#clip0_598_2)">
<path d="M11.2825 0H9.74911C8.32304 0.470246 7.25988 1.23695 7.39788 2.94926C7.39788 6.32788 7.98058 9.72694 7.05031 13.08C6.75385 13.7905 6.55451 14.5265 6.5085 15.2983C6.08426 22.6178 4.69908 29.7891 3.089 36.9245C1.40224 44.3871 -0.371402 51.8498 0.0732874 59.5833C0.26752 62.9977 0.686652 66.4172 4.13172 68.3902H6.17626C7.48478 67.5519 8.2157 66.3456 8.19526 64.802C8.11347 58.4485 9.83601 52.3813 11.1701 46.2579C13.7462 34.4149 16.7057 22.6383 17.4059 10.4681C17.7229 4.99892 16.1179 2.17744 11.2876 0L11.2825 0Z" fill="#232120"/>
<path d="M188.672 59.1692C186.817 58.4945 184.89 58.2389 182.922 58.2543C177.146 57.9118 171.37 57.9374 165.599 58.2747C164.72 58.2134 163.841 58.1878 163.034 58.6427C160.135 58.6427 157.237 58.6427 154.339 58.6376C154.109 58.5354 153.884 58.3565 153.649 58.336C149.483 57.9527 146.79 56.1126 145.834 51.7015C145.134 48.4558 142.603 47.2801 139.327 48.0877C138.187 48.3689 137.104 48.9107 136.035 49.432C132.958 50.9297 130.403 53.2247 127.51 55.0034C125.833 56.0359 123.972 58.0089 122.04 56.7464C120.088 55.4686 121.182 53.0151 121.509 51.0523C121.923 48.558 121.212 46.4572 119.214 44.9596C117.353 43.5693 115.314 44.014 113.423 44.9851C110.611 46.4265 108.148 48.3944 105.618 50.2601C103.435 51.8753 101.339 53.6438 98.8603 54.799C96.8004 55.7548 95.5941 55.1261 95.1341 52.918C94.7303 50.9859 94.991 49.0231 94.991 47.0706C94.991 41.5554 90.1914 38.8719 85.4532 41.6576C83.9607 42.5368 82.8362 43.8146 81.6043 44.9851C76.4521 49.8767 71.7803 55.3203 64.7726 57.922C62.3907 58.8063 60.4944 58.3463 58.7463 57.2473C56.9522 56.1177 57.5451 54.0118 57.8978 52.3046C58.2914 50.4032 59.0325 48.5733 59.559 46.6923C60.157 44.5711 60.8164 42.4601 61.2099 40.298C61.9051 36.4491 60.1417 34.0724 56.2724 33.4692C55.107 33.2903 53.8956 33.2494 52.72 33.3465C42.1139 34.2206 35.4231 40.5791 30.7513 49.4423C28.0576 54.5536 29.2945 60.7026 33.2252 64.1477C37.1405 67.5774 41.8225 67.5058 47.2508 63.933C50.7572 61.6278 50.8901 61.5051 54.1511 64.1221C59.1041 68.0988 64.3688 68.201 69.9657 65.8855C72.3527 64.899 74.3922 63.3912 76.3396 61.73C78.7982 59.6394 80.8836 57.1246 83.5824 55.305C85.8416 53.7818 86.4652 53.9403 87.5028 56.4857C88.428 58.7552 89.0209 61.1677 90.4368 63.2276C93.0589 67.0407 96.6369 67.7972 100.532 65.3335C103.343 63.5548 105.771 61.2751 108.362 59.2152C112.124 56.2199 112.365 56.2966 113.801 60.7179C115.697 66.5602 120.318 68.6968 126.043 66.4171C129.314 65.1137 132.146 63.0845 135.008 61.1013C138.591 58.6172 138.857 58.4996 141.898 61.5102C145.956 65.5277 150.654 67.5314 156.389 67.0407C157.57 66.9385 158.771 67.1072 159.962 67.1072C168.298 67.1072 176.65 67.2349 184.762 64.8275C186.571 64.2908 188.284 63.5087 189.449 61.9344C190.328 60.7486 190.231 59.7212 188.682 59.159L188.672 59.1692ZM41.2194 57.5438C40.1818 57.83 38.9959 58.106 38.081 57.2115C37.0843 56.2353 37.6312 55.0494 38.081 54.1243C40.2891 49.5905 43.5911 46.0074 47.9459 43.4466C49.2953 42.6544 50.6345 42.3886 50.5987 44.7193C50.6703 48.7318 45.0427 56.4959 41.2194 57.5438Z" fill="#232120"/>
</g>
<defs>
<clipPath id="clip0_598_2">
<rect width="190" height="68.3902" fill="white"/>
</clipPath>
</defs>
</svg>
