<svg width="191" height="23" viewBox="0 0 191 23" fill="none" xmlns="http://www.w3.org/2000/svg">
<g clip-path="url(#clip0_518_565)">
<path d="M9.06112 1.128H14.3945V15.4995C14.3945 19.0565 11.4501 21.4485 7.63374 21.4485C3.72676 21.4485 1.04297 19.2898 1.04297 15.6172V14.3005H5.79278V15.4936C5.77279 15.938 5.93674 16.3717 6.24651 16.6926C6.55528 17.0134 6.98275 17.1934 7.42849 17.1896C7.87502 17.2015 8.30661 17.0255 8.61744 16.7036C8.92722 16.3828 9.08817 15.9453 9.06112 15.4995V1.128ZM30.1328 20.9454L28.8785 17.5364H21.2999L20.0175 20.9454H14.6548L22.9034 1.128H27.8152L35.7579 20.9454H30.1328ZM25.221 7.36571H25.1515L22.7304 13.7221H27.5093L25.221 7.36571ZM55.6397 14.3005C54.2988 18.5273 50.1876 21.4424 45.4376 21.4424C39.6587 21.4424 34.9148 17.1259 34.9148 11.0644C34.9148 5.00175 39.7805 0.633314 45.5535 0.633314C50.2167 0.633314 54.2414 3.49094 55.6103 7.68966H49.5428C48.6384 6.34881 47.1377 5.53301 45.5213 5.50184C42.8686 5.50184 40.566 7.7471 40.566 11.0414C40.566 14.3348 42.8776 16.5507 45.5213 16.5507C47.175 16.5364 48.7108 15.6906 49.6072 14.3005H55.6397ZM68.7455 20.9454L63.1204 12.8551H63.0017V20.9454H57.6676V1.128H63.0017V8.73774H63.1176L68.6268 1.128H74.5738L67.3756 10.2236L75.0123 20.9454H68.7455ZM104.698 1.128H110.031V15.4995C110.031 19.0565 107.087 21.4485 103.267 21.4485C99.3604 21.4485 96.6797 19.2898 96.6797 15.6172V14.3005H101.429V15.4936C101.409 15.938 101.573 16.3717 101.883 16.6926C102.192 17.0134 102.619 17.1934 103.065 17.1896C103.512 17.2015 103.943 17.0255 104.253 16.7036C104.564 16.3828 104.725 15.9453 104.698 15.4995V1.128ZM122.68 21.4485C116.734 21.4485 111.952 17.1321 111.952 11.0695C111.952 5.00793 116.743 0.633314 122.68 0.633314C128.618 0.633314 133.501 5.00484 133.501 11.0695C133.501 17.1342 128.627 21.4485 122.68 21.4485ZM127.881 11.0463C127.881 7.6634 125.549 5.53713 122.721 5.53713C119.892 5.53713 117.609 7.7471 117.609 11.0414C117.609 14.3348 119.884 16.5306 122.712 16.5306C125.541 16.5306 127.87 14.3348 127.87 11.0414L127.881 11.0463ZM148.815 20.9454L140.609 10.0495H140.462V20.9454H135.419V1.128H140.025L148.303 12.0895H148.451V1.128H153.492V20.9454H148.815ZM156.217 20.9454V1.128H171.351V5.67592H161.527V8.68057H168.349V13.1448H161.527V16.4088H171.351V20.9454H156.217ZM184.497 7.57096C184.03 6.02486 182.894 4.9706 180.764 4.9706C179.016 4.9706 178.112 5.81652 178.112 6.75026C178.112 7.74092 179.161 8.23586 180.823 8.48435L182.281 8.68856C187.412 9.41681 189.794 10.8965 189.794 14.5459C189.794 18.8624 185.841 21.4565 181.002 21.4565C176.428 21.4565 172.972 18.8914 172.652 14.2853H177.724C178.139 16.0408 179.742 17.2539 181.545 17.1754C183.206 17.1754 184.46 16.3575 184.46 15.1032C184.46 14.1988 183.818 13.6184 181.224 13.2373L178.979 12.9043C175.015 12.3269 172.799 10.4337 172.799 6.9985C172.799 3.45077 176.006 0.642337 181.019 0.642337C186.352 0.642337 189.108 3.75951 189.472 7.57687L184.497 7.57096ZM94.6971 17.9088L91.8946 15.0973L94.3157 12.673L90.9933 9.35937L88.5719 11.7836L84.8763 8.08805C84.3129 7.5107 83.9872 7.14349 83.975 6.59112C83.972 5.8397 84.5676 5.22218 85.319 5.19901C85.9888 5.19901 86.3419 5.44443 86.8468 5.98778L87.402 6.54194L90.6462 3.29496L90.1955 2.84431C88.8928 1.40688 87.033 0.601135 85.0937 0.633314C81.2217 0.633314 78.8931 3.59264 78.8931 6.62047C78.8931 8.01852 79.407 9.37664 80.7994 10.7778L85.183 15.1665L84.7375 15.6123C83.9951 16.3807 83.5615 16.8857 82.7156 16.9006C81.6955 16.9179 80.7883 16.2329 80.7683 15.1665C80.7683 14.4705 81.0569 14.0108 81.6121 13.4335L81.7329 13.3117L78.6989 10.2697L78.3932 10.5756C77.2375 11.6742 76.0493 13.4162 76.0493 15.7359C76.0493 18.8714 78.5784 21.4455 82.5415 21.4455C84.9255 21.4455 86.6246 20.3853 88.2541 18.7264L88.4964 18.4872L91.317 21.2976L94.6971 17.9088Z" fill="#00268A"/>
</g>
<defs>
<clipPath id="clip0_518_565">
<rect width="190" height="22.0801" fill="white" transform="translate(0.417969 0.00488281)"/>
</clipPath>
</defs>
</svg>
