<svg width="76" height="70" viewBox="0 0 76 70" fill="none" xmlns="http://www.w3.org/2000/svg">
<g clip-path="url(#clip0_518_743)">
<path d="M41.2358 4.77233C41.208 4.62046 41.1865 4.46217 41.1758 4.30175C41.0216 2.08784 42.6902 0.166986 44.9093 0.0108362C47.1284 -0.143175 49.0519 1.52527 49.2061 3.74132C49.3603 5.95522 47.6917 7.87608 45.4726 8.03223C45.3334 8.04292 45.1942 8.04506 45.0571 8.03864C44.9671 8.06217 44.9136 8.07287 44.8365 8.14132C44.6094 8.4964 45.4169 8.43009 44.8665 9.98303C44.8665 9.98303 44.8622 10.1542 44.8022 10.3231C44.7594 10.9199 44.5302 12.6846 44.4959 13.6258C44.6116 13.7627 44.6458 13.829 44.633 14.1584C44.5816 14.6055 44.4788 15.7007 44.3138 16.4023C44.1746 17.0034 43.9283 17.1189 43.7291 17.2665C43.4506 18.5114 43.3778 19.5445 42.6624 21.0568C42.5981 22.2034 42.5167 22.5156 42.2768 23.0761C42.2511 24.7638 42.3668 25.0162 41.2251 27.69C40.9295 28.9413 41.2101 29.8055 41.5207 31.106C41.8377 32.4408 42.7202 32.9991 42.853 34.3681C43.1614 37.5894 43.0843 39.782 42.3925 42.306L42.9965 43.7349C43.7462 44.0771 45.6054 45.0162 44.5751 46.5028C46.0274 47.2643 48.2208 48.075 50.0308 49.6215C50.759 50.2269 51.528 50.8857 52.2177 51.6622C53.5308 51.8675 53.3915 51.9702 54.3661 52.5691C57.23 54.3231 61.8202 57.8012 64.4827 60.2632C64.9411 60.5306 65.1275 60.7231 65.498 60.9178C65.5559 61.029 65.5708 61.0547 65.558 61.0846C65.4316 61.4055 65.4359 61.4162 65.3202 61.6707C65.4638 61.829 65.7315 61.9766 65.8921 62.1157C66.0421 62.1627 66.0421 62.09 66.2991 62.028C66.6333 62.3403 67.0467 62.5927 67.1966 62.5777C67.6507 62.4622 67.5715 62.5563 67.9549 62.1285C68.092 61.9873 68.3233 62.1285 68.3233 62.1285C68.4668 61.9595 68.7753 61.6237 69.1887 61.382C69.5164 61.1873 70.144 61.1681 70.144 61.1681C70.3539 61.1681 70.3153 61.3841 70.2961 61.4547C70.0583 61.5766 69.5549 61.7114 69.2743 61.9189C68.6596 62.5542 68.1776 63.4098 68.1776 63.4098C69.4157 63.2408 70.1761 63.5488 71.2085 63.429C71.7719 63.3969 72.1874 63.4333 72.7765 63.0055C72.7765 63.0055 73.3441 62.6012 73.8539 62.3873C74.3487 62.1713 74.8178 62.2868 75.2526 62.6034C75.5589 62.9499 75.7453 62.952 75.2783 63.4397C75.1091 63.6301 74.8649 63.8419 74.5543 64.1477C74.0081 64.6868 73.2734 65.4055 72.5109 66.0001C71.7398 66.6012 70.8637 67.1424 70.3175 67.3884C68.938 68.3766 69.2636 68.1178 68.1798 69.0996C68.0427 69.2215 67.6807 69.4397 67.5051 69.5574C67.0767 69.8376 66.9439 69.6044 66.6654 69.0911C66.6654 69.0911 66.539 68.8985 66.327 68.49C66.0978 68.0429 65.9243 67.5317 65.995 67.5403C65.7379 67.5082 64.5834 66.1542 64.5791 65.8633C64.3349 65.8076 63.2918 64.8001 63.2554 64.6076L62.3322 63.8675C61.2762 64.0878 61.032 63.4312 58.2431 61.4547C57.924 61.4483 57.4335 61.2771 56.7266 60.7552C55.4671 59.7477 52.4469 57.4697 51.935 57.2087C51.3845 56.9285 50.7269 56.6654 50.3242 56.3338C49.7202 56.2226 49.3903 56.1606 49.0883 56.075C48.7799 55.9916 48.4993 55.8825 47.7174 55.7777C46.4451 55.6194 45.1256 55.0932 43.8704 54.4665C43.275 54.1841 42.7587 54.0408 42.2468 53.8226C41.0987 53.3392 40.1134 52.9028 39.3508 52.7253C39.0595 52.6975 37.6758 52.2825 36.9497 51.859C36.6991 51.7285 36.5534 51.6066 36.3863 51.5681C36.0051 51.4804 35.7609 51.6301 35.5895 51.6878C34.6578 52.1713 33.786 52.5905 32.9806 53.0226C32.2309 53.4226 31.5412 53.8397 30.8086 54.259C30.1489 54.6397 29.3864 54.9991 28.6045 55.3713C28.6045 55.3713 26.3704 56.49 25.1495 56.9242C24.0914 57.7862 21.928 59.2793 20.6064 60.0194C19.9531 60.3296 18.6807 61.1338 18.096 61.3135C17.7618 61.583 16.5709 62.4322 15.637 63.1317C14.9173 63.6707 14.3711 64.1242 14.3711 64.1242C13.9534 64.4985 13.9812 64.6761 13.1844 64.3381C12.9638 64.5199 12.7924 64.6333 12.651 64.736C12.077 65.1531 12.0277 65.0526 11.8178 65.0419C11.4173 65.3884 11.3659 65.2087 11.0167 65.6087C10.7875 65.9638 11.021 65.8804 10.5369 66.0515C10.4341 66.09 10.387 66.2141 10.3077 66.2825C9.91788 66.6034 9.91574 67.5103 8.98183 67.5745C8.43991 67.9595 8.57914 68.4258 8.16574 68.4044C8.19144 68.8044 7.43318 69.3884 7.29824 69.3862C6.10729 69.7969 6.02376 68.9221 4.59291 69.5745C4.4087 69.6579 4.13667 69.8932 3.77896 69.9595C3.14922 70.0771 2.38881 69.9531 1.92615 69.5959C1.19573 69.0333 0.52529 67.951 0.52529 67.951C0.293956 67.4034 0.428901 67.0568 1.15289 66.5392C1.45491 66.3467 1.5106 66.2034 2.01825 66.1691C2.26886 66.075 2.20246 66.2205 2.65014 66.0579C2.91146 65.9638 2.91146 66.0322 3.43624 65.9873C3.55619 65.906 3.72541 65.8782 3.95246 65.8034C4.36801 65.6665 4.77284 65.5146 4.77284 65.5146C4.77284 65.5146 4.8778 65.4076 5.27835 65.4461C5.61678 65.3071 5.96378 65.1039 6.14157 65.0397C6.09658 64.505 6.15442 64.5306 6.40289 64.3146C6.71133 64.0493 6.76702 64.0921 6.99836 64.2568C7.09475 64.2012 7.14187 64.182 7.13116 64.1007C7.09261 63.8226 6.85485 63.6921 6.92553 63.0782C6.81843 62.8322 6.66207 62.5285 6.69634 62.3467C6.7456 62.1499 6.79487 62.0536 6.91482 61.9916C7.04334 61.9231 7.08404 62.0151 7.15258 62.0921C7.27467 62.2333 7.37321 62.6547 7.37321 62.6547C7.41604 63.1296 7.56384 63.7413 8.03294 63.3969C8.30925 63.1167 8.3628 62.3702 8.92828 62.5306L9.33098 62.8793C9.67155 62.5584 9.68869 62.5584 9.89432 62.4301C9.89432 62.4301 9.57516 62.1071 9.85576 61.8547C10.0485 61.6836 10.2799 61.5616 10.6911 61.106C11.8221 59.859 12.4026 59.3071 13.6235 58.3017C16.0611 56.2996 18.8371 54.8943 20.5999 54.1948C21.174 53.4654 21.7331 52.982 23.0097 52.86C24.5262 50.3017 27.4307 48.0194 28.0969 47.6536C28.6388 46.6718 28.8744 46.7766 29.5856 46.5798C30.1468 46.1285 30.2753 46.1285 30.528 45.66C30.7722 44.6889 29.9647 42.0964 32.0274 41.9659C32.4665 41.3477 32.3573 41.4953 32.8456 40.9114C32.5158 40.0964 32.3787 39.414 32.2887 38.828C32.2716 38.7595 31.4684 38.1948 31.6975 37.4568C31.357 37.0504 30.7187 36.105 30.5195 35.6622C30.4274 35.6622 30.3524 35.6301 30.2517 35.6151C30.1468 35.598 30.0182 35.6044 29.8726 35.5916C29.5513 36.4194 29.2 36.4814 28.6281 36.6654C27.6064 38.8386 27.2487 39.7563 24.3591 41.5531C23.2132 42.8344 22.8469 44.2632 22.8512 44.2419C22.6541 44.6654 22.7226 45.2579 22.8276 45.5745C22.6777 46.0451 22.7162 46.0921 22.7162 46.0921C22.7783 46.2697 22.9433 46.505 23.1446 46.5542C23.4916 46.6461 23.8386 46.6312 23.8172 47.0162C23.7701 47.4996 23.136 47.4205 22.8362 47.367C21.6795 47.183 22.0458 46.4322 21.3068 46.6825C20.7413 47.0526 20.5293 48.1435 19.6039 48.0023C19.4818 47.921 19.5204 47.6836 19.6039 47.5103C19.7324 47.2408 19.9638 47.0183 19.8267 46.9178C19.2269 47.106 18.0231 47.506 18.0231 47.506C17.4577 47.66 16.8365 47.3777 17.3934 47.0076C17.6526 46.9071 18.0231 46.7809 18.4794 46.49C18.4794 46.49 18.715 46.1713 18.263 46.3296C17.7704 46.505 17.0443 46.614 16.5238 46.5563C16.5238 46.5563 15.4442 46.4151 15.305 46.3296C15.1657 46.244 15.0372 45.9124 15.3756 45.9124C15.804 45.9167 16.875 45.7905 17.704 45.5702C18.1045 45.414 18.8671 44.9649 19.2955 44.7509C19.2955 44.7509 19.7581 44.0771 20.0152 43.9424C20.4414 43.4525 20.8013 43.1638 21.1783 42.6632C21.5467 41.9039 21.928 40.7017 23.1489 38.8408C23.7122 37.983 24.4148 36.9841 25.2973 36.09C25.2973 36.09 25.5265 34.659 26.6746 33.6429C26.9274 33.0461 27.3129 32.3445 27.692 31.6964C27.8398 31.4461 27.9791 31.2301 28.1204 30.9927C28.476 30.4344 28.8509 29.3948 30.2367 29.2322C30.2367 29.2322 30.83 28.7937 31.0571 28.4836C31.4127 28.1798 31.3313 27.7092 31.6204 27.3755C31.1792 26.9456 30.0482 26.1349 29.939 25.0098C29.8212 23.8162 30.2474 22.8344 30.9714 22.1071C31.7725 21.3071 32.6186 20.9071 33.6446 20.967C34.9255 21.1574 35.1676 21.5809 35.5767 22.0001C35.9687 22.398 36.1143 22.1413 36.2792 22.6076C37.3545 22.8921 37.2945 22.7681 37.286 23.5574C37.4509 23.7798 37.7272 23.9873 37.7251 24.4472C38.0871 23.6985 38.1578 23.5616 39.1238 22.736C39.353 22.0665 39.5072 21.4076 39.7086 20.7381C39.8971 20.1199 40.1305 19.4825 40.3126 19.0033C40.1198 17.6493 40.5161 17.4269 41.043 16.2397C40.9488 16.0771 40.9702 16.0301 41.0087 15.7627C41.2144 14.9777 41.5335 13.9402 41.7242 13.2643C41.7242 13.2643 41.7863 12.9948 42.0647 12.9755C42.3046 12.1199 42.6666 10.5263 42.7288 10.2012C42.9772 9.30495 42.8166 9.01832 42.6259 8.51351C42.5638 8.3488 42.5938 8.11351 42.4867 7.92955C42.1868 7.40763 41.8634 6.72955 41.6449 6.24399C41.5035 5.93597 41.2786 4.77233 41.2786 4.77233C41.088 4.17768 41.2551 4.77233 41.2551 4.77233" fill="black"/>
</g>
<defs>
<clipPath id="clip0_518_743">
<rect width="75.1429" height="70" fill="white" transform="translate(0.417969)"/>
</clipPath>
</defs>
</svg>
