<svg width="90" height="70" viewBox="0 0 90 70" fill="none" xmlns="http://www.w3.org/2000/svg">
<g clip-path="url(#clip0_518_683)">
<path fill-rule="evenodd" clip-rule="evenodd" d="M84.6606 36.2825C83.6041 35.7543 81.3626 34.3028 79.9159 33.5128C78.4644 32.7228 77.1461 31.2713 77.1461 31.2713L74.3764 27.8401L71.6067 23.8806C71.6067 23.8806 70.2884 22.8241 70.4217 21.6391C70.5549 20.4541 70.6834 19.2644 70.16 18.3412C69.6317 17.4179 68.1802 17.8129 68.1802 17.8129C68.1802 17.8129 67.1237 18.3412 65.1487 18.9979C63.169 19.6594 63.169 18.3364 63.169 18.3364L60.7943 13.9819L58.8145 10.8172C58.8145 10.8172 58.5528 9.23244 58.4195 8.3092C58.2863 7.38595 59.081 6.19621 59.081 6.19621L57.1013 5.13971C57.1013 5.13971 56.3113 3.94996 55.9163 2.76497C55.5213 1.57523 55.2548 1.44673 53.9366 1.18023C52.6183 0.918485 49.9818 1.57523 49.9818 1.57523C48.2686 1.57523 45.3656 3.02672 45.3656 6.06295C45.3656 9.09919 47.2121 10.8124 47.2121 10.8124L46.2888 12.2639L45.7606 15.5619L43.7809 18.0699C43.7809 18.0699 42.8576 16.2234 41.9344 14.3769C41.0111 12.5304 40.2211 12.2639 40.0879 11.4739C39.9546 10.6839 39.2979 9.76069 39.2979 9.76069V5.14447C39.2979 0.923245 35.2099 0 33.4967 0C33.4967 0 31.6502 0.261745 30.3319 0.528248C29.0137 0.789993 26.7722 3.43123 26.7722 3.43123L27.4337 4.48773L27.567 6.72921L25.8537 8.44245L27.0387 9.10395L27.3005 10.6887L26.639 12.1402C26.639 12.1402 25.849 14.2532 25.5825 14.7767C25.3207 15.3049 25.1875 16.0949 23.0792 16.3614C20.971 16.6232 21.761 15.8332 19.9145 15.9664C18.068 16.0997 16.7498 17.6797 16.7498 18.6029C16.7498 19.5261 17.0115 20.4494 17.0115 20.4494C17.0115 20.4494 17.2733 20.9776 17.1448 22.0341C17.0115 23.0906 11.4768 30.3481 11.4768 30.3481C11.4768 30.3481 10.9486 31.1381 9.10209 32.5896C7.2556 34.0411 5.67561 34.5693 2.51088 36.1493C-0.653846 37.734 0.531143 38.129 1.05939 39.4473C1.58764 40.7655 3.69587 41.1605 5.27586 41.1605C6.85584 41.1605 8.30734 40.499 8.30734 40.499C8.30734 40.499 12.2621 40.6323 13.9753 40.6323C15.6885 40.6323 16.0835 40.2373 16.0835 38.5193V35.6163C16.0835 35.6163 18.5868 33.3748 20.1715 31.6568C21.7515 29.9436 23.3362 29.1488 23.3362 29.1488C23.3362 29.1488 28.3474 37.3295 28.8757 37.9863C29.4039 38.6478 30.3272 40.4943 31.5122 40.4943H37.8416C39.8214 40.4943 41.0064 38.781 42.3246 36.5348C43.6428 34.2933 45.0943 32.5753 45.0943 32.5753C45.0943 32.5753 45.7558 35.74 46.4126 38.1148C47.0741 40.4895 49.3108 40.6227 49.3108 40.6227H54.4505C58.9335 40.6227 62.6265 34.555 63.6782 32.5753C64.7347 30.5956 65.9197 28.2208 65.9197 29.0108C65.9197 29.8008 69.6127 32.7038 70.5359 33.232C71.4592 33.7603 73.9624 36.135 73.9624 36.135C73.9624 36.135 74.0956 36.3968 74.0956 37.9815C74.0956 39.5663 75.4139 40.0945 76.7321 40.0945H84.3798C86.488 40.0945 87.4113 39.433 87.4113 38.248C87.4113 37.063 85.6981 36.7965 84.6416 36.2683L84.6606 36.2825ZM34.3009 29.8198L29.1612 22.4339L33.3777 19.9259C33.3777 19.9259 33.3777 21.5106 33.906 23.2239C34.4342 24.9371 34.3009 29.8198 34.3009 29.8198ZM55.1311 12.4019L58.0293 17.0182L54.2078 15.1717L55.1311 12.4019ZM53.9461 29.6866L53.6843 26.2554C53.6843 26.2554 56.3208 25.4654 56.1876 24.5421C56.0543 23.6189 55.3976 21.5059 55.3976 21.5059C55.3976 21.5059 60.2755 23.0906 60.6705 23.2191C61.0655 23.3524 53.9461 29.6818 53.9461 29.6818V29.6866Z" fill="#231F20"/>
<path fill-rule="evenodd" clip-rule="evenodd" d="M37.9838 59.6686V53.8721C37.9838 48.1851 34.1528 46.5576 30.9262 46.5576C29.1558 46.5576 27.9375 46.6004 25.1678 48.1851C23.6307 49.0655 22.3695 51.7401 22.3981 53.9863H28.3611C28.3278 53.0345 28.8037 51.2166 30.2599 51.1547C31.5068 51.1072 32.5728 51.7782 32.5823 52.5396C32.5966 53.6818 32.4729 53.8055 30.4503 53.9245C25.3629 54.2195 22.1649 55.9994 22.103 59.8637C22.0412 63.1236 23.9495 66.098 27.7139 66.098C30.6882 66.098 32.2492 65.2604 32.9773 64.1182L33.0773 65.6221H38.7262C38.5025 63.7232 37.7268 63.9184 37.9838 59.6686ZM29.7698 61.3533C28.6324 61.3533 27.7139 60.6061 27.7139 59.4639C27.7139 58.3218 28.5895 58.0029 29.9173 57.784C31.1023 57.5841 31.3212 57.6841 32.5871 57.6841C32.5871 59.8066 32.3634 61.3533 29.7698 61.3533Z" fill="#231F20" stroke="#ED1C24" stroke-width="0.668124" stroke-miterlimit="2.61"/>
<path fill-rule="evenodd" clip-rule="evenodd" d="M88.7103 59.6686V53.8721C88.7103 48.1851 84.8841 46.5576 81.6527 46.5576C79.8824 46.5576 78.6641 46.6004 75.8944 48.1851C74.3572 49.0655 73.0961 51.7401 73.1246 53.9863H79.0877C79.0543 53.0345 79.5302 51.2166 80.9865 51.1547C82.2333 51.1072 83.2994 51.7782 83.3089 52.5396C83.3232 53.6818 83.1994 53.8055 81.1768 53.9245C76.0895 54.2195 72.8914 55.9994 72.8296 59.8637C72.7677 63.1236 74.6761 66.098 78.4404 66.098C81.4148 66.098 82.9757 65.2604 83.7039 64.1182L83.8038 65.6221H89.4527C89.2291 63.7232 88.4533 63.9184 88.7103 59.6686ZM80.4963 61.3533C79.3589 61.3533 78.4404 60.6061 78.4404 59.4639C78.4404 58.3218 79.3161 58.0029 80.6438 57.784C81.8288 57.5841 82.0477 57.6841 83.3136 57.6841C83.3136 59.8066 83.09 61.3533 80.4963 61.3533Z" fill="#231F20" stroke="#ED1C24" stroke-width="0.668124" stroke-miterlimit="2.61"/>
<path fill-rule="evenodd" clip-rule="evenodd" d="M49.0992 46.2098C46.7578 46.2098 44.3973 48.0896 44.3973 48.0896V46.5049H38.3867V69.605H44.8256V64.3939C45.8393 65.4029 47.1337 65.8978 48.9041 65.8978C53.9962 65.8978 55.995 60.4059 55.995 55.7516C55.995 51.5732 53.0587 46.2098 49.104 46.2098H49.0992ZM47.3051 60.9151C45.2397 60.9151 44.3926 58.0026 44.3926 55.9753C44.3926 53.948 45.3396 51.4305 47.3051 51.4305C49.3943 51.4305 50.2176 53.948 50.2176 55.9753C50.2176 58.0026 49.1991 60.9151 47.3051 60.9151Z" fill="#231F20" stroke="#ED1C24" stroke-width="0.668124" stroke-miterlimit="2.61"/>
<path fill-rule="evenodd" clip-rule="evenodd" d="M66.3766 46.2098C64.0351 46.2098 61.6747 48.0896 61.6747 48.0896V46.5049H55.6641V69.605H62.103V64.3939C63.1166 65.4029 64.4111 65.8978 66.1814 65.8978C71.2736 65.8978 73.2723 60.4059 73.2723 55.7516C73.2723 51.5732 70.336 46.2098 66.3813 46.2098H66.3766ZM64.5824 60.9151C62.517 60.9151 61.6699 58.0026 61.6699 55.9753C61.6699 53.948 62.617 51.4305 64.5824 51.4305C66.6716 51.4305 67.4949 53.948 67.4949 55.9753C67.4949 58.0026 66.4765 60.9151 64.5824 60.9151Z" fill="#231F20" stroke="#ED1C24" stroke-width="0.668124" stroke-miterlimit="2.61"/>
<path fill-rule="evenodd" clip-rule="evenodd" d="M1.14453 44.7251V65.5029H8.16404V59.0735L9.05397 58.1788L15.9735 65.5029H24.8729L13.7987 54.0242L23.488 44.7251H14.7886L8.06411 51.2544V44.7251H1.14453Z" fill="#231F20" stroke="#ED1C24" stroke-width="0.668124" stroke-miterlimit="2.61"/>
</g>
<defs>
<clipPath id="clip0_518_683">
<rect width="89.4786" height="70" fill="white" transform="translate(0.417969)"/>
</clipPath>
</defs>
</svg>
