<svg width="191" height="58" viewBox="0 0 191 58" fill="none" xmlns="http://www.w3.org/2000/svg">
<g clip-path="url(#clip0_518_422)">
<path d="M7.99494 41.1775H6.68359V54.291H7.99494V41.1775Z" fill="#000038"/>
<path d="M20.117 54.261H18.864V52.4251C18.1354 53.7947 16.6493 54.465 15.1048 54.465C13.6477 54.465 12.0741 53.8238 10.821 52.4251C10.4713 52.0171 9.85938 50.8223 9.85938 49.3361C9.85938 48.0539 10.5296 46.7134 10.8793 46.3929C12.3364 44.8193 13.706 44.3239 15.0465 44.3239C16.5618 44.3239 18.1063 44.9941 18.8348 46.3929V44.557H20.0879V54.261H20.117ZM11.1707 49.4527C11.1707 51.58 13.0066 53.2119 15.1048 53.2119C17.1155 53.2119 18.864 51.4634 18.864 49.4527C18.864 47.2962 17.2321 45.5769 15.0756 45.5769C12.9192 45.6061 11.1707 47.3254 11.1707 49.4527Z" fill="#000038"/>
<path d="M27.2557 44.5573H28.4796V45.8103C28.9459 44.8195 29.995 44.3533 31.0732 44.3533C32.3554 44.3533 33.4336 44.8778 34.2204 45.8103C34.3078 45.9269 34.3661 46.0726 34.4827 46.1892C34.541 46.0726 34.5993 45.956 34.6867 45.8103C35.3569 44.8778 36.61 44.3533 37.7465 44.3533C38.7956 44.3533 39.7864 44.8778 40.748 45.8103C41.5348 46.5971 41.6514 47.5879 41.6514 48.7244V54.2612H40.3401V48.841C40.3401 48.1416 40.2818 47.3548 39.8447 46.7428C39.3201 45.9852 38.5625 45.5772 37.6591 45.5772C36.814 45.5772 35.998 46.0143 35.5026 46.6846C35.0655 47.2965 35.0947 48.1125 35.0947 48.841V54.2612H33.7833V48.6953C33.7833 47.9668 33.7542 47.4131 33.3171 46.772C32.8217 46.0726 32.0057 45.6063 31.1315 45.6063C30.3155 45.6063 29.4996 45.956 29.0042 46.6263C28.5671 47.2674 28.5379 47.9668 28.5379 48.6953V54.2612H27.2266V44.5573H27.2557Z" fill="#000038"/>
<path d="M53.6294 49.3655C53.6294 52.1339 51.3855 54.4944 48.588 54.4944C45.8487 54.4944 43.4883 52.2505 43.4883 49.4821C43.4883 46.6554 45.7321 44.3533 48.588 44.3533C51.2981 44.3533 53.6294 46.6554 53.6294 49.3655ZM44.8288 49.4821C44.8288 51.5511 46.519 53.2413 48.6171 53.2413C50.7736 53.2413 52.3472 51.4637 52.3472 49.3655C52.3472 48.2873 51.9975 47.4422 51.2107 46.6846C50.5113 46.0143 49.5788 45.6063 48.6171 45.6063C46.4607 45.6063 44.8288 47.3839 44.8288 49.4821Z" fill="#000038"/>
<path d="M65.4019 54.2616H64.1488V52.484C63.158 53.8536 61.905 54.4947 60.2148 54.4947C58.816 54.4947 57.5046 53.941 56.1642 52.484C55.6979 52.076 55.0859 50.7938 55.0859 49.395C55.0859 46.51 57.4755 44.3536 60.3022 44.3536C61.7592 44.3536 63.2746 44.9947 64.0614 46.2478V41.1481H65.3727V54.2616H65.4019ZM60.2439 45.6067C58.1749 45.6067 56.4264 47.2677 56.4264 49.3659C56.4264 51.4932 58.1457 53.2416 60.273 53.2416C62.4004 53.2416 64.1197 51.4932 64.1197 49.3659C64.1488 47.2386 62.3421 45.6067 60.2439 45.6067Z" fill="#000038"/>
<path d="M68.577 49.8901C68.6353 51.726 70.442 53.2413 72.2196 53.2413C73.6475 53.2413 75.1046 52.4545 75.6874 51.114H77.057C76.3868 53.0665 74.4052 54.4944 72.3362 54.4944C69.5095 54.4944 67.2656 52.2505 67.2656 49.4238C67.2656 46.5971 69.5095 44.3533 72.307 44.3533C73.8224 44.3533 75.2503 45.0527 76.2119 46.2474C77.1153 47.3548 77.3193 48.4913 77.3484 49.8901H68.577ZM76.0371 48.6953C75.6874 46.976 74.1138 45.6063 72.3362 45.6063C70.5003 45.6063 68.8975 46.8885 68.577 48.6953H76.0371Z" fill="#000038"/>
<path d="M91.3961 42.372L90.8133 43.392L87.3164 41.527L87.8701 40.4487L91.3961 42.372ZM94.2811 54.2616H93.028V52.4257C92.2704 53.7954 90.7842 54.4947 89.2688 54.4947C87.8118 54.4947 86.2382 53.8536 84.9851 52.4257C84.6354 52.0469 84.0234 50.823 84.0234 49.3368C84.0234 48.0546 84.6645 46.7141 85.0434 46.3935C86.5004 44.8199 87.8701 44.3245 89.2106 44.3245C90.7259 44.3245 92.2704 44.9947 92.9989 46.3935V44.5576H94.252V54.2616H94.2811ZM85.3348 49.4533C85.3348 51.5806 87.1707 53.2417 89.2397 53.2417C91.2796 53.2417 92.9989 51.5223 92.9989 49.4825C92.9989 47.326 91.367 45.6359 89.2106 45.6359C87.0833 45.6067 85.3348 47.2969 85.3348 49.4533Z" fill="#000038"/>
<path d="M103.345 44.5867V46.2477C104.103 44.9947 105.793 44.3827 107.221 44.3827C108.649 44.3827 109.96 44.9364 111.184 46.2477C111.767 46.7723 112.35 48.0545 112.35 49.4824C112.35 52.3674 109.931 54.5238 107.104 54.5238C105.676 54.5238 104.074 53.8244 103.432 52.4839V57.671H102.121V44.5867H103.345ZM111.038 49.4532C111.038 47.3551 109.348 45.6358 107.221 45.6358C105.093 45.6358 103.345 47.2094 103.345 49.3658C103.345 50.4149 103.607 51.3183 104.365 52.0759C105.093 52.8336 106.084 53.2707 107.133 53.2707C109.29 53.2416 111.038 51.6388 111.038 49.4532Z" fill="#000038"/>
<path d="M115.145 49.8901C115.233 51.726 117.011 53.2413 118.817 53.2413C120.245 53.2413 121.702 52.4545 122.285 51.114H123.655C122.984 53.0665 121.003 54.4944 118.934 54.4944C116.107 54.4944 113.863 52.2505 113.863 49.4238C113.863 46.5971 116.078 44.3533 118.905 44.3533C120.42 44.3533 121.819 45.0527 122.81 46.2183C123.713 47.3257 123.917 48.4622 123.946 49.8609H115.145V49.8901ZM122.606 48.7244C122.256 47.0051 120.682 45.6355 118.905 45.6355C117.069 45.6355 115.466 46.9177 115.145 48.7244H122.606Z" fill="#000038"/>
<path d="M126.831 45.7818H124.82V44.587H126.831V41.1775H128.142V44.587H130.386V45.7818H128.142V54.291H126.831V45.7818Z" fill="#000038"/>
<path d="M131.727 41.1775H133.038V43.4214H131.727V41.1775ZM131.727 44.587H133.038V54.291H131.727V44.587Z" fill="#000038"/>
<path d="M136.39 45.7818H134.379V44.587H136.39V41.1775H137.701V44.587H139.945V45.7818H137.701V54.291H136.39V45.7818Z" fill="#000038"/>
<path d="M141.809 51.4057C141.78 52.3965 142.567 53.2416 143.558 53.2416C144.49 53.2416 145.248 52.6005 145.248 51.6388C145.248 50.4732 144.315 50.0361 143.383 49.7738C142.771 49.5698 142.101 49.395 141.634 48.9287C141.11 48.4624 140.848 47.7631 140.848 47.0928C140.848 45.5192 142.13 44.3827 143.645 44.3827C145.102 44.3827 146.326 45.5775 146.326 47.0054H145.015C145.015 46.1603 144.374 45.6358 143.499 45.6358C142.742 45.6358 142.159 46.2477 142.159 46.9763C142.159 48.0545 143.004 48.3167 143.849 48.579C145.306 49.0453 146.559 49.6572 146.559 51.4057C146.559 53.2416 145.219 54.4947 143.412 54.4947C141.78 54.4947 140.381 53.0667 140.469 51.4057H141.809Z" fill="#000038"/>
<path d="M154.314 44.5867V46.2477C155.071 44.9947 156.791 44.3827 158.19 44.3827C159.588 44.3827 160.9 44.9364 162.153 46.2477C162.736 46.7723 163.318 48.0545 163.318 49.4824C163.318 52.3674 160.871 54.5238 158.073 54.5238C156.645 54.5238 155.042 53.8244 154.401 52.4839V57.671H153.09V44.5867H154.314ZM162.007 49.4532C162.007 47.3551 160.317 45.6358 158.19 45.6358C156.062 45.6358 154.314 47.2094 154.314 49.3658C154.314 50.444 154.576 51.3183 155.334 52.0759C156.062 52.8336 157.053 53.2707 158.102 53.2707C160.259 53.2416 162.007 51.6388 162.007 49.4532Z" fill="#000038"/>
<path d="M165.184 44.5867H166.408V45.9855C166.903 44.8198 168.039 44.4118 169.234 44.3827V45.6649C168.535 45.7232 168.039 45.8689 167.486 46.3351C166.582 47.0928 166.495 47.7631 166.495 48.8704V54.2907H165.184V44.5867Z" fill="#000038"/>
<path d="M170.484 41.1775H171.796V43.4214H170.484V41.1775ZM170.484 44.587H171.796V54.291H170.484V44.587Z" fill="#000038"/>
<path d="M176.4 49.3373L173.078 44.5873H174.623L177.187 48.3173L179.751 44.5873H181.296L177.974 49.3373L181.296 54.2913H179.751L177.187 50.3864L174.623 54.2913H173.078L176.4 49.3373Z" fill="#000038"/>
<path d="M102.032 1.2542C101.333 -0.0571485 100.546 0.0885569 99.8465 0.0885569H90.5797C89.7929 0.0885569 89.4723 0.0302747 89.9386 0.96279C90.23 1.54561 91.6288 4.13917 91.6288 4.13917C91.9493 4.78027 91.8036 4.80941 91.5413 5.24653C91.3373 5.56708 75.5137 32.1438 74.1441 34.3585C73.0367 36.107 72.687 36.4566 74.4355 36.4566H76.5919C77.6119 36.4566 77.7576 36.4858 78.8941 34.5625C79.5061 33.5425 84.1686 25.9367 84.1686 25.9367H102.498C102.994 25.9367 103.314 26.3738 103.402 26.5487C104.538 28.676 106.258 31.9689 107.482 34.2711C108.21 35.6698 108.764 36.4566 109.755 36.4566H118.934C120.682 36.4566 120.624 36.4275 119.284 34.0088C117.535 30.8033 104.451 5.80021 102.032 1.2542ZM85.9171 22.2941L93.3189 9.58855C93.9892 8.33549 93.9018 8.59776 94.4263 9.58855C94.6886 10.084 101.187 22.2941 101.187 22.2941H85.9171Z" fill="#000038"/>
<path d="M48.0928 0.116907H41.5652C36.5238 4.02181 36.3489 4.10924 18.1066 17.9804V1.10771C18.1066 0.554026 17.6695 0.0877686 17.0867 0.0877686H7.64494C7.09126 0.0877686 6.625 0.524885 6.625 1.10771V35.4068C6.625 35.9605 7.09126 36.4267 7.64494 36.4267H17.1158C17.6695 36.4267 18.1357 35.9605 18.1357 35.4068V20.6031C20.9041 23.3424 35.9701 36.4267 35.9701 36.4267H48.3551C49.2876 36.4267 49.2876 35.9313 48.5008 35.2611C37.3689 25.8194 31.3367 20.6031 28.9762 18.5049C27.898 17.5724 27.3735 17.3102 28.1894 16.6399C29.3259 15.7365 47.7431 1.31169 48.2385 0.787153C48.7048 0.291754 48.0928 0.116907 48.0928 0.116907Z" fill="#000038"/>
<path d="M65.6942 0.0877686H56.3108C55.728 0.0877686 55.2617 0.524885 55.2617 1.10771V35.4068C55.2617 35.9605 55.728 36.4267 56.3108 36.4267H65.6942C66.2771 36.4267 66.7433 35.9605 66.7433 35.4068V1.07856C66.7433 0.524883 66.2771 0.0877686 65.6942 0.0877686Z" fill="#000038"/>
<path d="M180.421 0.0877686H171.037C170.455 0.0877686 169.988 0.524885 169.988 1.10771V35.4068C169.988 35.9605 170.455 36.4267 171.037 36.4267H180.421C181.004 36.4267 181.47 35.9605 181.47 35.4068V1.07856C181.47 0.524883 181.004 0.0877686 180.421 0.0877686Z" fill="#000038"/>
<path d="M153.991 17.1072C155.593 16.4079 162.15 15.825 162.15 8.56889C162.15 0.205397 153.029 0.26368 150.902 0.0596924H128.026C127.472 0.0596924 127.035 0.555093 127.035 1.10877V35.4661C127.035 36.0198 127.472 36.4278 128.026 36.4278H148.512C151.834 36.4278 163.345 35.2621 163.636 26.6947C163.928 18.9431 155.593 17.7192 153.991 17.1072ZM139.42 3.9646H143.966V3.99374C148.541 3.9646 150.552 6.87871 150.552 10.1134C150.552 13.3189 148.133 16.2621 143.966 16.233V16.2621H139.42V3.9646ZM144.724 33.6594L139.42 33.6885V19.4094H144.724V19.4385C150.173 19.4094 152.592 22.8189 152.592 26.549C152.563 30.279 149.678 33.6885 144.724 33.6594Z" fill="#000038"/>
</g>
<defs>
<clipPath id="clip0_518_422">
<rect width="190" height="57.408" fill="white" transform="translate(0.417969 0.146484)"/>
</clipPath>
</defs>
</svg>
