<svg width="147" height="70" viewBox="0 0 147 70" fill="none" xmlns="http://www.w3.org/2000/svg">
<g clip-path="url(#clip0_518_676)">
<path fill-rule="evenodd" clip-rule="evenodd" d="M0.425781 64.9226V69.5563H14.6783L14.6894 65.9467C14.6894 65.6954 14.6305 65.2629 14.2785 64.9226H0.425781ZM18.9438 64.9226L17.2379 69.5595H21.3075C21.6596 69.5818 21.9861 69.5277 22.2776 69.3973C23.0708 69.0347 23.4626 68.1172 23.5741 67.8056C23.5725 67.8087 24.2718 65.864 24.611 64.9226H18.9438ZM33.3699 64.9226C33.8127 66.2504 34.9181 69.5484 34.9181 69.5484H40.4245L38.9639 64.9226H33.3699ZM43.3935 64.9226C45.8862 68.5625 50.2059 70.0031 53.4234 70.0031H53.5094C54.3345 70.0111 56.0038 69.9475 57.8881 69.4402C59.9507 68.8869 60.1307 68.7581 60.1897 68.7167L60.4206 68.5513L60.3697 68.2794C60.1785 67.2522 59.7947 65.5603 59.2658 64.921H55.5434C54.8776 64.9894 54.1657 64.9974 53.382 64.9449C53.3039 64.9369 53.2259 64.929 53.1478 64.9194H43.3919L43.3935 64.9226ZM63.9535 64.9226C65.9445 67.9089 69.2974 69.7932 73.2491 69.7932C77.2009 69.7932 80.592 67.8882 82.6419 64.9226H63.9535ZM88.0272 64.9226C87.774 65.3472 87.559 65.7511 87.4156 66.0262L87.2515 66.3442L87.5367 66.57C87.5876 66.6082 88.7552 67.532 89.7475 68.1109C90.9134 68.7565 92.2307 69.2224 93.7789 69.5372C94.4017 69.6517 95.394 69.7964 96.9486 69.7964C101.326 69.7964 104.677 67.893 105.801 64.9226H88.0272ZM114.869 64.9226V69.569L120.56 69.5643V64.9242H114.869V64.9226ZM130.899 64.9226V69.5659L144.316 69.5484C145.198 69.5309 146.692 69.0109 146.692 67.2649L146.679 64.9226H130.901H130.899Z" fill="#231F20"/>
<path fill-rule="evenodd" clip-rule="evenodd" d="M0.421875 58.5618L0.425061 64.9224H14.2777C13.9847 64.6394 13.4893 64.4184 12.6547 64.4184H6.26272L6.25634 58.5618H0.421875ZM21.2829 58.5618L18.9431 64.9224H24.6103C24.7043 64.6616 24.7712 64.4772 24.7871 64.4327L33.2051 64.4279C33.2322 64.509 33.2895 64.6839 33.3692 64.9224H38.9631L36.9562 58.5618H31.4387C31.7158 59.271 31.9022 59.7433 31.907 59.7576H26.2334C26.3513 59.4412 26.501 59.0309 26.6714 58.5618H21.2829ZM41.4049 58.5618C41.5132 61.1776 42.2666 63.275 43.3943 64.9208H53.1503C49.799 64.501 47.757 62.2001 47.5181 58.5602H41.4065L41.4049 58.5618ZM62.0063 58.5618C62.0621 60.963 62.7661 63.1383 63.9544 64.9208H82.6428C83.8836 63.1272 84.6259 60.9455 84.6864 58.5618H79.1816C79.0208 62.0999 76.5933 64.7221 73.4141 64.7221C70.2348 64.7221 67.6704 62.0459 67.5 58.5634H62.0063V58.5618ZM90.9127 58.5618C91.1261 58.689 91.3475 58.8147 91.5785 58.9387C92.5549 59.4825 94.3356 59.9755 95.6338 60.3364L96.9733 60.7292C99.4231 61.4988 100.356 62.3496 100.184 63.6742C100.106 64.1162 99.2797 64.8366 97.397 64.8366C95.9699 64.8366 94.6749 64.6171 93.3306 64.148C92.6807 63.892 92.0133 63.5597 91.3045 63.1431L91.1994 63.0906C90.8076 62.9459 90.4587 62.8823 90.1561 62.9045L89.64 63.019C89.1447 63.2035 88.5171 64.1003 88.0265 64.9208H105.801C105.985 64.4343 106.11 63.9206 106.169 63.38C106.274 61.4066 105.632 59.8212 104.184 58.5587H90.9111L90.9127 58.5618ZM114.869 58.5618V64.9224H120.561V58.5618H114.869ZM130.899 58.5618V64.9224H146.68L146.677 64.4136L136.641 64.4168L136.657 60.6052H144.942L144.936 58.5618H130.897H130.899ZM59.2667 64.9224C59.2014 64.8445 59.1345 64.7825 59.0644 64.738L58.6089 64.5376C58.1549 64.4136 57.6245 64.4518 57.0272 64.6505C56.551 64.7793 56.062 64.87 55.5427 64.9224H59.2651H59.2667Z" fill="#231F20"/>
<path fill-rule="evenodd" clip-rule="evenodd" d="M6.25562 58.5621L6.24447 48.9226C6.24447 48.2786 6.04856 47.7698 5.6631 47.4104C5.04031 46.8332 4.12126 46.838 3.77562 46.8411L0.417969 46.838L0.422747 58.5637H6.25562V58.5621ZM26.6723 58.5621C27.3986 56.5713 28.4945 53.5341 29.0201 52.1507C29.4231 53.3926 30.7292 56.751 31.438 58.5621H36.9555L36.93 58.4842L33.6042 48.1641C33.2522 47.2371 32.5848 46.8396 31.3663 46.8173C31.2548 46.8141 25.6019 46.8221 25.6019 46.8221L21.2822 58.5637H26.6707L26.6723 58.5621ZM47.5174 58.5621C47.511 58.4731 47.5063 58.384 47.5031 58.295C47.6623 54.4532 49.8111 52.0266 53.3981 51.6768C54.7806 51.5862 55.9418 51.6816 57.0392 51.9773C57.6254 52.1745 58.1574 52.2127 58.6082 52.087L59.0653 51.8851C59.6992 51.4892 60.158 49.4967 60.3714 48.3454L60.4224 48.0735L60.1914 47.9097C60.1325 47.8668 59.9525 47.7364 57.8898 47.1846C56.0087 46.6789 54.3362 46.6169 53.5096 46.6217H53.4204C48.7009 46.6217 41.6001 49.7304 41.3962 58.2902C41.3978 58.3809 41.401 58.4715 41.4058 58.5621H47.5174ZM67.5008 58.5621C67.4944 58.4397 67.4913 58.3141 67.4913 58.1885C67.4913 54.5581 70.0366 51.8215 73.4149 51.8215C76.7933 51.8215 79.1921 54.4993 79.1921 58.1885C79.1921 58.3141 79.1889 58.4397 79.1841 58.5637H84.6889C84.692 58.4588 84.692 58.3538 84.692 58.2489C84.692 51.7404 79.6667 46.6392 73.2525 46.6392C66.7331 46.6503 62.004 51.5321 62.004 58.2489C62.004 58.3538 62.004 58.4588 62.0072 58.5637H67.5008V58.5621ZM104.188 58.5621C103.083 57.5985 101.509 56.8241 99.4399 56.2087L99.2264 56.1483L97.1016 55.5011L96.7831 55.385C95.0485 54.7585 93.8141 54.2337 93.8141 53.2256L93.8173 53.1509C93.9861 51.4764 97.1016 51.4558 97.1335 51.4558C98.8474 51.4558 100.169 51.7197 101.843 52.3908L101.95 52.4257C102.336 52.5068 102.67 52.5164 102.949 52.4544L103.411 52.281C104.075 51.9137 104.738 49.9833 104.991 49.1691L105.072 48.9067L104.868 48.7191C104.789 48.6444 104.298 48.2437 102.53 47.5853C100.727 46.9111 98.1752 46.803 98.1752 46.803L96.9153 46.7982C90.3433 46.7982 87.8331 50.8483 87.7534 53.5691C87.6993 56.0131 88.9528 57.3886 90.9151 58.5637H104.188V58.5621ZM120.564 58.5621V52.087H125.038C125.251 52.087 126.358 52.0616 126.999 51.4732C127.292 51.2013 127.446 50.8451 127.446 50.4349V46.8491H110.332C110.118 46.8443 109.009 46.8682 108.369 47.4581C108.075 47.73 107.92 48.0878 107.92 48.4965L107.917 52.0902H114.868V58.5605H120.561L120.564 58.5621ZM144.939 58.5621L144.929 55.35L136.67 55.3596V52.0918L144.273 52.0839C144.485 52.087 145.615 52.0886 146.233 51.4732C146.664 51.0423 146.681 50.2616 146.681 49.8529V46.8539H130.893L130.896 58.5605H144.935L144.939 58.5621Z" fill="#231F20"/>
<path fill-rule="evenodd" clip-rule="evenodd" d="M95.4713 27.1946V26.3057L93.3305 24.5756L92.8049 23.6438V22.7549L91.0257 21.8676H89.2481H86.5802L83.9122 23.6438L82.1346 22.7549H81.2458L80.3555 23.6438L81.2458 26.3057H83.0234H85.6914L88.3578 25.4184L89.2481 27.1946L91.0257 29.8565L93.6937 30.7454H96.36L106.141 31.6327L107.919 30.7454L105.253 29.8565L97.2504 27.1946H95.4713Z" fill="#ED1A3D"/>
<path d="M110.281 30.3419C109.996 29.9619 109.528 29.8092 109.204 29.6613C108.884 29.515 108.933 29.2034 108.667 29.1159C108.401 29.0316 107.925 29.5818 107.56 29.4641C107.196 29.3465 107.223 28.6548 106.912 28.5546C106.6 28.4544 106.052 28.9744 105.767 28.8821C105.482 28.7915 105.425 28.0712 105.149 27.9805C104.873 27.8931 104.29 28.4146 104.005 28.3224C103.72 28.2302 103.703 27.5242 103.387 27.4224C103.069 27.3206 102.519 27.847 102.239 27.7547C101.959 27.6657 101.93 26.9565 101.624 26.8579C101.32 26.7593 100.759 27.2761 100.474 27.1855C100.189 27.0948 100.106 26.3713 99.8417 26.2854C99.5757 26.2012 99.0437 26.6289 98.6184 26.6035C95.6367 26.322 94.4978 24.444 94.2971 24.9942C94.0964 25.5444 94.9135 26.869 95.9489 27.319C96.766 27.6752 105.641 30.14 105.874 30.2529C106.103 30.3642 106.659 30.617 106.465 30.9398C106.152 31.3532 105.286 30.943 105.069 30.7633C104.842 30.5741 104.893 30.5041 104.681 30.4532C104.208 30.3355 103.946 31.2101 103.445 31.094C102.984 30.9859 103.015 30.0652 102.553 29.9571C102.041 29.8362 101.804 30.7092 101.317 30.5947C100.914 30.5009 100.86 29.558 100.425 29.4562C99.9197 29.3401 99.6952 30.2147 99.1759 30.0938C98.7299 29.9905 98.7554 29.0682 98.2871 28.9569C97.8204 28.8472 97.4923 29.6995 97.0511 29.5961C96.6083 29.4928 96.5462 28.5546 96.1496 28.4608C95.7514 28.3669 95.4312 28.8488 94.8881 28.9171C94.8881 28.9171 93.3398 29.3401 90.8869 26.7688C88.4244 24.1976 87.4162 23.6998 86.0177 24.7446C83.7272 26.454 82.3144 25.3202 81.8955 24.8161C81.4049 24.2294 81.9226 23.6983 81.9226 23.6983C81.9226 23.6983 82.6521 24.8209 83.5632 24.8463C85.0317 24.8893 86.1435 22.8698 88.6665 22.8364C91.8585 22.7203 92.6947 23.8604 93.566 23.9463C94.3783 24.0274 94.6459 23.897 95.2066 23.5726H95.205C95.659 23.4073 96.0508 24.2882 96.5255 24.1069C97.0272 23.9193 96.6577 23.0352 97.2024 22.8316C97.7041 22.644 98.037 23.5392 98.5181 23.3596C99.031 23.1703 98.7044 22.2608 99.1902 22.0858C99.6952 21.9046 99.9882 22.8014 100.512 22.6122C101.035 22.4214 100.695 21.5245 101.176 21.3417C101.664 21.1588 102.024 22.0477 102.503 21.8728C102.962 21.7042 102.701 20.7644 103.174 20.5927C103.669 20.413 103.989 21.3003 104.52 21.1111C104.95 20.9552 104.713 20.0107 105.16 19.8437C105.612 19.672 106.028 20.5482 106.496 20.3732C106.936 20.2095 106.675 19.2729 107.146 19.0995C107.639 18.9167 108.022 19.7944 108.484 19.6275C108.943 19.4637 108.597 18.7004 109.201 18.4078C109.201 18.4078 110.036 18.1264 109.985 17.5126C109.974 17.4108 109.802 16.0926 108.425 15.8175C107.108 15.5519 96.6672 18.4508 96.5382 18.2822C95.5745 16.3788 94.3417 16.9083 94.1554 16.9481C93.9626 16.9942 92.7999 17.4998 91.5049 17.0021C88.9723 15.8493 86.9479 18.7767 85.5653 18.3903C84.2815 18.0341 83.3067 18.2361 82.7715 18.4205C82.2778 18.5907 81.4845 19.2315 79.7993 18.6527C66.7686 14.1812 56.5778 18.0898 56.5778 18.0898C50.8341 20.0139 50.0998 18.0898 50.0998 18.0898C50.0998 18.0898 48.2123 15.5106 61.5187 12.4384C80.6435 8.01937 81.2201 0.717403 80.9987 0.25944C80.6786 -0.411603 80.5623 0.375521 79.9315 1.10222C79.4043 1.70648 78.7911 1.40594 78.7911 1.40594C78.189 1.11812 77.8067 1.80825 77.8067 1.80825C77.8067 1.80825 77.0295 3.01358 76.3414 2.32823C75.6851 1.6699 74.8075 3.15828 74.4825 3.21712C74.0939 3.2855 73.9059 3.09468 73.3771 2.85616C72.5935 2.50314 71.7493 3.94541 71.3176 4.04241C70.6534 4.19347 70.1899 3.26005 69.6261 3.65123C67.9249 4.82953 67.6558 4.99968 67.2002 4.53694C66.8593 4.19188 66.8116 3.81661 65.6775 4.90586C64.7091 5.8361 64.2487 6.00624 63.8553 5.41789C63.4555 4.82158 63.5622 4.0106 61.9025 5.60871C61.1109 6.37198 60.7047 6.38629 60.2476 6.04123C59.9067 5.78521 59.9115 4.55603 58.7153 5.66913C57.6386 6.67252 56.8517 7.11299 56.5491 6.21932C56.2098 5.2223 54.9403 6.40219 54.6425 6.68206C54.3399 6.96192 53.6852 7.69816 53.2281 6.93489C52.7662 6.17639 51.6719 7.31653 51.0204 8.04004C50.5155 8.60296 50.1062 8.17044 49.5805 7.81106C48.9737 7.39603 47.1706 9.92755 47.005 10.0786C46.8409 10.2265 46.7151 10.0834 46.2993 9.73196C45.6606 9.18972 43.9452 12.1935 43.6728 12.3891C43.6728 12.3891 43.5501 12.6499 43.0835 12.2031C42.4208 11.5686 38.8832 16.2341 37.55 21.5229C35.8457 28.3001 38.5631 33.4904 38.5631 33.4904C38.5631 33.4904 39.3786 33.5158 39.729 32.9577L40.2578 31.7603C40.6863 30.7649 41.3855 31.0797 41.3855 31.0797L39.7226 36.0569C39.463 36.7152 39.6191 37.6407 40.1989 38.5216C40.7468 39.4026 41.1275 39.9973 41.5671 40.4091C42.9226 41.6892 42.784 40.1786 42.8206 39.9878C42.9783 39.1752 43.8719 39.7953 44.5695 40.1881C45.8438 40.9053 45.7036 39.3215 45.9808 38.8031C46.1719 38.4342 46.8027 38.4183 47.4812 38.9891C48.01 39.4344 48.5372 37.9317 48.5372 37.9317C49.1935 34.7291 47.6453 34.3523 46.8074 34.3109L45.1095 34.2314C45.1095 34.2314 45.2242 33.7464 45.3962 33.2869L45.4759 32.9704C47.3235 28.3367 44.2319 27.4399 43.3049 27.5194C42.2855 27.6068 42.3571 26.9533 42.3571 26.9533C42.3571 26.9533 47.9463 25.8513 46.9046 31.8032C46.9046 31.8032 46.6975 32.8384 46.5749 33.3807L48.1104 33.5588C49.4372 33.7226 49.6697 35.2952 49.6697 35.2952C49.6697 35.2952 54.5294 36.5832 57.2866 36.068C57.2866 36.068 58.5226 35.7723 58.8634 35.0058C58.8634 35.0058 60.6506 30.7776 65.8654 30.5995C65.8654 30.5995 66.0518 31.1497 65.2156 31.428C64.2121 31.7651 60.8911 32.0354 60.1966 35.874V35.8883C60.117 36.5165 60.289 37.8601 61.6509 38.4819C62.8088 39.0082 63.2166 41.1263 63.4571 41.6988C64.1372 43.3223 65.1455 41.7687 65.1455 41.7687C65.1455 41.7687 65.7874 40.4584 66.3353 41.1835C67.2671 42.4159 67.6988 41.7973 67.909 41.015C68.1384 40.1722 68.4745 39.8033 69.4477 40.8289C69.8634 41.2726 70.6757 40.9291 70.7586 40.1643C70.9274 38.493 72.0583 39.8224 72.2223 39.8892C72.4151 39.9655 73.5969 39.6936 72.9375 37.8077C72.9375 37.8077 72.0392 36.0044 68.0157 35.2253C67.068 35.0424 67.2177 34.3538 67.2177 34.3538L68.1113 34.4811C68.3725 34.5272 70.7155 34.7848 70.9688 34.8261C80.7853 35.7993 88.2333 32.4568 88.4595 32.2167C96.089 33.6812 106.461 33.1787 108.409 32.4775C110.361 31.7794 110.509 30.6393 110.279 30.3324L110.281 30.3419ZM94.5329 18.1136C94.6937 17.8545 94.8466 17.7097 94.9868 17.6398C95.5777 17.3106 95.9536 18.3665 95.8788 18.4046C95.874 18.4062 95.8644 18.411 95.8565 18.4142V18.4174C95.7657 18.4651 94.6173 18.7879 94.5058 18.71C94.2812 18.5557 94.5345 18.1136 94.5345 18.1136H94.5329ZM90.1956 18.4539C90.1956 18.4539 90.2864 18.341 90.4616 18.2472C90.726 18.093 91.2118 17.9705 91.8983 18.4142C92.5466 18.8308 92.5291 19.152 92.5291 19.152C92.5211 19.1552 92.51 19.16 92.5004 19.1631C92.1341 19.3476 90.0539 19.6084 90.0539 19.6084C89.6748 18.9087 90.1956 18.4555 90.1956 18.4555V18.4539ZM54.2411 9.08477C54.5676 9.33602 54.2554 10.7783 54.0277 10.5684L52.3632 9.68108C52.3632 9.68108 53.9098 8.84466 54.2427 9.08636L54.2411 9.08477ZM51.5365 10.0071C51.8646 10.2519 51.5556 11.699 51.3247 11.4859L49.6618 10.6002C49.6618 10.6002 51.2068 9.76059 51.5365 10.0071ZM50.5983 12.8328C50.9265 13.0808 50.6159 14.5247 50.3833 14.3164L48.722 13.4259C48.722 13.4259 50.267 12.5895 50.5983 12.8343V12.8328ZM49.0119 16.6205L47.3474 15.7332C47.3474 15.7332 48.8956 14.8936 49.2237 15.1385C49.555 15.3849 49.2397 16.832 49.0119 16.6221V16.6205ZM48.6997 19.478L47.0416 18.5907C47.0416 18.5907 48.5882 17.7495 48.9163 17.9976C49.2444 18.2409 48.9338 19.6863 48.6997 19.4796V19.478ZM48.6694 11.012C48.9992 11.2585 48.6854 12.6992 48.4576 12.4956L46.7947 11.6052C46.7947 11.6052 48.3413 10.7672 48.6694 11.012ZM47.2264 13.2112C47.5545 13.4561 47.2439 14.9 47.0129 14.6932L45.3516 13.8059C45.3516 13.8059 46.8998 12.9647 47.228 13.2112H47.2264ZM44.2605 16.665C44.2605 16.665 45.8072 15.8238 46.1353 16.0687C46.465 16.3152 46.1528 17.759 45.9218 17.5491L44.2589 16.665H44.2605ZM45.5364 20.281L43.8767 19.3937C43.8767 19.3937 45.4233 18.5525 45.7498 18.799C46.0795 19.0471 45.7689 20.4877 45.5364 20.281ZM44.3497 14.2114C44.6779 14.4563 44.3688 15.9017 44.1331 15.6934L42.4766 14.8061C42.4766 14.8061 44.0216 13.9649 44.3513 14.2114H44.3497ZM42.8557 17.1293C43.1854 17.3758 42.8716 18.8213 42.6406 18.6114L40.9809 17.7241C40.9809 17.7241 42.5276 16.8861 42.8573 17.1293H42.8557ZM40.6656 20.5784C40.6656 20.5784 42.2138 19.7404 42.5435 19.9868C42.8748 20.2317 42.5626 21.6772 42.3301 21.4689L40.6656 20.5784ZM43.6314 23.8366L41.9733 22.9493C41.9733 22.9493 43.5215 22.1097 43.8464 22.3578C44.1777 22.6011 43.8655 24.0433 43.6314 23.8382V23.8366ZM46.0158 25.7814L44.3529 24.8925C44.3529 24.8925 45.9027 24.0513 46.2308 24.2961C46.559 24.541 46.2452 25.9881 46.0158 25.7814ZM46.7597 22.7505L45.0968 21.8616C45.0968 21.8616 46.6434 21.0236 46.9763 21.2669C47.3044 21.5134 46.9922 22.9572 46.7597 22.7521V22.7505ZM48.9705 27.0805L47.3108 26.1948C47.3108 26.1948 48.8526 25.3536 49.1839 25.6001C49.512 25.8465 49.203 27.2888 48.9689 27.0821L48.9705 27.0805ZM49.7653 24.2993L48.1056 23.4088C48.1056 23.4088 49.6522 22.5708 49.9787 22.8173C50.3084 23.0622 49.9978 24.5076 49.7637 24.2993H49.7653ZM50.3164 21.6629L48.6551 20.7756C48.6551 20.7756 50.1985 19.9375 50.5314 20.1808C50.8596 20.4305 50.5458 21.8744 50.3148 21.6645L50.3164 21.6629ZM52.6515 26.7434L50.9918 25.8529C50.9918 25.8529 52.54 25.0197 52.8665 25.2598C53.1994 25.5063 52.8856 26.9533 52.6515 26.7434ZM53.3698 23.9686L51.7101 23.0813C51.7101 23.0813 53.2567 22.2417 53.588 22.4881C53.9146 22.733 53.604 24.1769 53.3714 23.9686H53.3698ZM53.9735 21.0332L52.3122 20.1427C52.3122 20.1427 53.8572 19.3094 54.1869 19.5511C54.5167 19.7976 54.2029 21.2431 53.9735 21.0332ZM56.3054 26.225L54.6425 25.3361C54.6425 25.3361 56.1859 24.4981 56.5188 24.743C56.8501 24.9895 56.5332 26.4333 56.3054 26.225ZM56.8645 23.2578L55.2032 22.3689C55.2032 22.3689 56.7498 21.5309 57.0811 21.7726C57.406 22.0175 57.097 23.4629 56.8645 23.2578ZM57.4411 20.2142L55.7829 19.3237C55.7829 19.3237 57.3264 18.4857 57.6593 18.7306C57.9874 18.9771 57.6752 20.421 57.4411 20.2142ZM59.9418 25.0547L58.2789 24.1689C58.2789 24.1689 59.8255 23.3293 60.1552 23.5742C60.4865 23.8207 60.1743 25.2661 59.9418 25.0562V25.0547ZM60.3941 22.1304L58.7312 21.2447C58.7312 21.2447 60.2779 20.4035 60.6076 20.6468C60.9389 20.8964 60.6235 22.3403 60.3941 22.1304ZM60.9723 19.2665L59.3094 18.3792C59.3094 18.3792 60.8576 17.538 61.1873 17.7829C61.5139 18.031 61.2049 19.4764 60.9723 19.2665ZM63.5192 24.4313L61.8547 23.544C61.8547 23.544 63.4014 22.7028 63.7311 22.9509C64.0624 23.1958 63.7502 24.6396 63.5176 24.4329L63.5192 24.4313ZM63.97 21.701L62.3087 20.8153C62.3087 20.8153 63.8569 19.9741 64.1866 20.2222C64.5131 20.4671 64.2041 21.9077 63.97 21.701ZM64.5163 18.791L62.8566 17.9053C62.8566 17.9053 64.4016 17.0641 64.7298 17.3106C65.0627 17.5571 64.7521 18.9994 64.5163 18.791ZM66.8211 24.4838L65.1614 23.5965C65.1614 23.5965 66.7096 22.7569 67.0377 23.0034C67.3675 23.2498 67.0537 24.6937 66.8211 24.4854V24.4838ZM67.3675 21.5547L65.7046 20.6706C65.7046 20.6706 67.2528 19.8262 67.5841 20.0743C67.909 20.3192 67.5984 21.763 67.3675 21.5547ZM67.9902 18.6368L66.3273 17.7495C66.3273 17.7495 67.874 16.9083 68.2053 17.158C68.535 17.4044 68.2228 18.8467 67.9902 18.6368ZM70.2807 24.4854L68.6162 23.5949C68.6162 23.5949 70.1644 22.7569 70.4941 23.0034C70.8239 23.2498 70.5149 24.6905 70.2807 24.487V24.4854ZM70.8127 21.7185L69.153 20.828C69.153 20.828 70.698 19.9916 71.0277 20.2365C71.3559 20.483 71.0468 21.9268 70.8127 21.7185ZM71.4403 18.8865L69.779 18.0007C69.779 18.0007 71.3288 17.1596 71.6569 17.406C71.985 17.6509 71.6728 19.0964 71.4403 18.8881V18.8865ZM73.5348 24.902L71.8735 24.0115C71.8735 24.0115 73.4217 23.1719 73.753 23.4184C74.0828 23.6633 73.7722 25.1071 73.5364 24.9004L73.5348 24.902ZM74.1258 22.2178L72.4645 21.3321C72.4645 21.3321 74.0079 20.4957 74.3408 20.7406C74.6705 20.9855 74.3567 22.4309 74.1273 22.2178H74.1258ZM74.7549 19.478L73.0904 18.5907C73.0904 18.5907 74.6402 17.7495 74.9699 17.996C75.2965 18.2409 74.9843 19.6815 74.7549 19.478ZM77.3496 22.8014L75.6867 21.9141C75.6867 21.9141 77.2349 21.0745 77.563 21.3194C77.8912 21.5675 77.579 23.0113 77.348 22.8014H77.3496Z" fill="#00663B"/>
</g>
<defs>
<clipPath id="clip0_518_676">
<rect width="146.276" height="70" fill="white" transform="translate(0.417969 0.00488281)"/>
</clipPath>
</defs>
</svg>
