<svg width="115" height="71" viewBox="0 0 115 71" fill="none" xmlns="http://www.w3.org/2000/svg">
<path d="M64.3991 36.8527C62.442 37.6925 62.5835 38.2637 56.2406 36.786C55.1718 36.5376 52.723 36.6401 51.4566 36.7937C50.9759 36.8512 50.4049 36.5547 50.8701 35.2679C51.5733 33.3277 52.5052 33.2609 53.2644 32.1728C53.6005 31.6947 53.5725 30.5864 54.6895 29.8755C55.413 29.4145 56.0711 28.9659 56.8552 28.0423C57.2254 27.558 58.4421 25.6783 60.3432 28.3295C60.7353 28.8417 62.498 27.8234 62.9771 32.1138C63.1685 33.8476 64.5983 33.8367 64.5983 35.1701C64.5983 35.6839 65.2781 36.4771 64.3991 36.8527ZM91.1833 32.6601C93.0736 29.2421 94.1175 29.9966 95.2766 29.9376C98.8346 29.7544 98.6853 31.5426 100.65 33.1026C101.378 33.6784 102.262 37.59 101.285 37.5248C99.5021 37.4053 97.9992 37.8803 97.4515 37.8803C94.7056 37.8803 92.9678 36.7565 90.7244 36.7176C89.5513 36.6959 88.9679 36.4895 88.9679 35.5659C89.3615 34.4359 90.6901 33.5526 91.1833 32.6601ZM108.034 52.1374C106.988 52.2166 103.92 53.8309 102.649 55.453C100.989 57.5749 100.107 58.663 96.8992 58.5202C94.1549 58.3976 93.1856 56.5845 91.7605 55.81C89.9963 54.8522 89.5078 52.8514 89.2495 51.9046C88.5432 49.3248 87.4433 49.7159 87.4433 47.6686C87.4433 46.2312 87.2923 47.7974 87.7809 46.464C88.4701 46.464 89.0815 46.1381 89.7691 46.1443C91.3405 46.1567 91.0651 46.6426 92.3393 46.6426C93.6135 46.6426 94.7461 45.4178 97.1373 45.8897C99.1271 46.284 99.1909 45.4241 101.523 46.95C103.192 48.08 104.616 46.6736 108.532 46.9841C110.61 47.1486 111.699 45.9053 111.612 43.4699C111.496 40.114 111.181 39.4031 111.181 38.3926C111.181 36.2381 111.729 32.955 110.724 30.2185C108.944 25.3818 107.575 25.9546 106.184 24.6507C104.219 22.8082 105.036 22.3286 103.172 21.0977C101.506 19.9692 101.08 19.3064 100.098 19.3064C98.6277 18.8951 97.6102 19.0115 96.5305 19.4275C95.5519 19.8047 94.9016 20.1275 92.8402 20.1275C91.272 20.1275 90.7788 19.696 89.6011 20.2082C88.2305 20.8245 85.6541 22.3378 84.7735 23.7752C82.9097 26.8533 84.4095 25.0854 82.9377 27.139C81.6635 28.7797 80.2882 28.8495 79.6986 30.6966C78.9145 32.8511 79.627 33.5822 79.193 34.2698C78.9378 34.6765 78.163 35.1779 78.163 36.5128C77.3774 36.9226 77.2623 37.0405 76.6648 36.9769C75.6894 36.876 74.5334 37.0592 74.4945 36.5252C74.4012 35.2509 73.9547 33.9283 73.7213 33.4192C72.5156 30.7804 73.7384 28.4707 72.5763 26.3736C71.187 23.8684 70.2846 23.9243 67.6351 21.0511C65.8693 19.1 64.8767 17.7527 63.0129 17.7527C61.2471 17.7527 58.8123 16.9859 56.9485 17.7045C53.9085 18.7306 54.1839 18.2804 53.112 19.5175C51.4566 21.4329 50.5947 20.9797 49.4544 21.2684C46.9869 21.8893 45.8294 24.0298 45.4716 24.7453C44.8742 25.939 44.6797 27.898 42.3771 29.5604C40.8556 30.6578 40.84 32.7331 40.658 34.4933C40.4402 36.637 40.56 38.1193 40.6269 38.1193C40.1291 38.1209 39.2983 38.138 38.413 38.1659C32.0359 38.3693 30.6186 40.3669 30.6186 44.1637C30.6186 47.8579 29.9496 47.7959 29.29 49.2705C26.8552 54.708 27.6549 56.1142 27.4215 57.0052C26.5269 60.4216 24.5651 58.2764 21.6962 58.3075C18.8212 58.3385 17.7212 58.9967 17.7212 54.1755C17.7212 51.813 18.3575 50.6163 17.7695 48.3578C17.1814 45.896 17.5579 42.6037 18.5085 40.4508C19.666 37.8322 19.5384 36.8419 18.9487 33.7638C18.4602 31.6094 18.2082 31.1064 18.2082 30.2853C18.2082 28.8495 17.8893 25.5417 17.7135 24.6755C17.6403 24.303 16.7224 21.0201 17.6715 19.8187C18.1802 19.1745 20.615 17.5726 21.0444 16.1057C21.7056 13.8441 19.4015 11.5639 18.885 10.555C17.7492 8.34928 16.041 8.01864 14.0776 8.30425C13.3013 8.41756 12.4207 8.63337 11.635 8.63337C10.5569 8.63337 9.86769 9.37841 8.78954 9.37841C7.51536 9.37841 6.99107 10.0133 5.74178 10.4665C5.3824 10.5984 3.84218 12.2376 3.44857 13.3676C2.96005 14.8034 2.99895 15.2567 3.49213 16.694C3.49213 17.6161 4.42093 18.0258 5.01057 18.8469C5.62821 19.623 5.91603 19.443 6.24118 20.5373C6.35942 20.9315 6.4481 21.4392 6.4481 21.953C6.84015 22.979 6.64568 23.6977 6.78259 24.9363C6.89305 25.9329 7.70672 27.3127 7.70672 28.0314C7.70672 29.2623 7.71294 28.6446 7.71294 29.8755C7.71294 30.9015 7.51847 31.4137 7.51847 32.3389C7.51847 33.0575 8.20146 33.9376 8.20146 34.6563C8.20146 35.4774 8.19835 36.0922 8.19835 36.9133C8.19835 38.3506 7.94787 39.0351 7.70983 40.1294C7.35667 41.7344 6.73281 42.7046 6.63324 44.3453C6.44188 47.5366 6.96928 48.2351 6.96928 49.3248C6.96928 51.4793 6.84015 51.231 6.84015 53.3855C6.84015 54.7204 7.56982 55.869 7.42668 58.157C7.34734 59.3848 7.12642 60.3534 6.63324 61.4819C6.24118 62.5079 5.50374 63.3088 5.35906 64.1501C5.27193 64.6561 5.45707 64.9697 5.45707 65.4835C5.45707 66.7128 6.39365 67.2762 7.27422 67.9933C7.96187 68.5056 8.78798 69.1715 9.47719 69.2662C10.6518 69.4261 11.4406 68.9107 12.7163 68.9107C13.698 68.9107 14.4028 68.352 15.3642 68.1517C16.0503 68.0074 16.4906 67.7963 17.1783 67.7963C18.454 67.7963 19.3812 68.3768 20.657 68.3768C21.7351 68.3768 22.3248 68.2542 23.4045 68.2542C24.8762 68.2542 24.7533 67.8909 26.2235 67.8909C27.4993 67.8909 29.8967 68.1098 30.7571 68.3147C31.5956 68.5165 33.4081 68.6655 34.6838 67.638C35.8585 66.7128 36.4699 65.3608 36.7312 63.7915C36.8868 62.8617 36.935 60.8175 36.935 58.9719C36.935 57.4321 36.9802 56.0102 37.4765 54.9066C37.9261 53.9039 38.0288 53.5096 38.5173 52.5876C39.5752 50.6737 39.1614 50.385 39.4445 49.2348L40.0762 48.3469C40.4682 48.3469 40.9116 48.2367 41.2103 48.3811C41.6537 48.5906 42.0738 48.8684 41.9975 49.8634C41.8155 52.3082 42.2807 52.8608 42.2807 53.9892C42.2807 54.8119 42.5327 55.5213 43.1192 56.24C43.1192 56.6513 43.7633 56.7056 44.0978 57.0689C44.3779 57.3715 44.437 57.8108 44.5895 58.2997C44.9862 59.5788 45.1246 60.5567 45.6132 61.7892C45.6132 61.9429 46.5435 63.45 46.7878 63.7465C47.4287 64.5211 47.7306 64.8237 48.3202 65.3375C48.7122 65.3375 49.0032 65.7908 49.4933 65.7908C49.9833 65.7908 50.4765 66.2424 50.965 66.2424C51.4566 66.2424 51.7476 66.9208 52.2376 66.9208C52.8273 66.9208 53.1711 67.6162 53.6627 67.6162C54.3488 67.6162 54.8404 68.5118 55.5188 68.6174C57.7855 68.962 57.7077 69.3175 59.3989 68.1517C60.7539 67.2142 63.6912 67.7341 66.1183 66.5498C68.9762 65.1543 70.4946 65.3484 71.7564 59.5307C72.0644 58.1042 71.4483 52.5301 69.4352 52.26C68.5079 52.1359 67.8763 52.2089 66.8806 53.4103C66.8137 53.491 65.1194 54.2112 64.1969 55.529C62.8605 57.4383 63.0907 57.2194 61.4587 57.9924C59.934 58.7142 56.3293 57.8714 55.7708 57.6711C54.4391 57.1915 54.1932 56.9664 53.9054 56.1452C53.669 55.4669 53.0233 54.1957 52.4352 53.2722C51.3555 51.6299 51.7413 51.7478 51.4504 49.3015C51.3524 48.4974 50.4687 46.8397 51.1548 46.4299C51.1548 46.4299 51.7507 46.2855 52.2376 46.1769C53.7872 45.8338 57.7373 48.4975 61.9488 46.8071C63.9511 46.003 65.9269 45.7283 69.3667 46.1987C71.9555 46.551 72.3336 46.9841 75.6785 46.1909C76.8235 45.9193 77.3447 45.9378 78.3249 45.9378C78.1102 45.9378 78.1817 46.3446 78.1319 47.7307C78.0713 49.4863 78.2813 50.905 78.7698 52.7521C79.263 54.1879 80.2945 55.3288 80.6772 56.392C80.9666 57.1868 81.774 59.2435 81.9498 59.5307C82.6375 60.7631 83.7903 60.9214 85.1874 63.4376C85.875 64.6794 86.5736 64.8672 88.7221 66.7128C89.2759 67.1925 90.7897 67.9826 91.8523 68.4343C95.107 69.8173 94.9934 69.0132 96.4667 68.8844C98.3259 68.7214 99.639 69.3361 101.472 67.9453C103.208 66.6306 103.091 66.9317 104.12 66.6119C105.481 66.1866 106.634 65.1358 108.326 63.7062C114.574 58.4271 109.431 52.0335 108.034 52.1374Z" fill="#24242C"/>
<path d="M107.377 6.11142C107.12 5.97016 106.708 5.89872 106.139 5.89872H105.264V7.94918H106.19C106.623 7.94918 106.948 7.90577 107.164 7.82195C107.564 7.66828 107.764 7.37334 107.764 6.93717C107.764 6.52738 107.635 6.25112 107.377 6.11142ZM106.269 5.19244C106.985 5.19244 107.508 5.26076 107.842 5.39736C108.438 5.64416 108.735 6.12536 108.735 6.84404C108.735 7.35472 108.55 7.7319 108.18 7.97249C107.982 8.09977 107.707 8.19287 107.357 8.24875C107.8 8.32015 108.127 8.50488 108.332 8.80601C108.539 9.10559 108.642 9.39899 108.642 9.68615V10.1022C108.642 10.2325 108.647 10.3737 108.654 10.5243C108.664 10.6749 108.679 10.7743 108.703 10.8209L108.735 10.8907H107.796C107.791 10.872 107.786 10.8534 107.782 10.8348C107.777 10.8162 107.772 10.7944 107.768 10.7711L107.746 10.588V10.1394C107.746 9.4828 107.564 9.04971 107.2 8.8386C106.985 8.71753 106.609 8.65547 106.067 8.65547H105.264V10.8907H104.255V5.19244H106.269ZM103.197 4.90528C102.321 5.77918 101.885 6.83318 101.885 8.06875C101.885 9.31363 102.319 10.3738 103.187 11.2508C104.062 12.1293 105.123 12.5671 106.372 12.5671C107.618 12.5671 108.679 12.1293 109.554 11.2508C110.426 10.3738 110.862 9.31363 110.862 8.06875C110.862 6.83318 110.426 5.77918 109.554 4.90528C108.675 4.02827 107.615 3.59057 106.372 3.59057C105.132 3.59057 104.073 4.02827 103.197 4.90528ZM110.065 11.7475C109.046 12.7658 107.816 13.2749 106.374 13.2749C104.93 13.2749 103.701 12.7658 102.688 11.7475C101.68 10.7324 101.176 9.50454 101.176 8.06098C101.176 6.63293 101.685 5.4113 102.702 4.39615C103.716 3.3872 104.939 2.88277 106.374 2.88277C107.816 2.88277 109.046 3.3872 110.065 4.39615C111.081 5.40664 111.592 6.62828 111.592 8.06098C111.592 9.49989 111.081 10.7277 110.065 11.7475Z" fill="#24242C"/>
</svg>
