<svg width="191" height="78" viewBox="0 0 191 78" fill="none" xmlns="http://www.w3.org/2000/svg">
<g clip-path="url(#clip0_518_340)">
<path d="M67.8076 26.3406C63.552 26.3406 61.9766 29.9386 61.9766 31.4713H74.1866C74.2342 28.6649 72.0632 26.3406 67.8076 26.3406Z" fill="#C5082B"/>
<path d="M163.773 5.52548H168.211C170.379 5.52548 171.924 4.40945 171.924 2.53452C171.937 2.15132 171.864 1.7701 171.709 1.41921C171.555 1.06832 171.323 0.756794 171.031 0.507812H163.773V5.52548Z" fill="#C5082B"/>
<path d="M179.027 0.507853C179.859 2.24747 180.291 4.15094 180.293 6.07907C180.299 8.04018 179.863 9.97753 179.017 11.7473C178.172 13.517 176.938 15.0738 175.408 16.3019C173.878 17.53 172.091 18.398 170.18 18.8415C168.268 19.2849 166.281 19.2924 164.366 18.8634C162.451 18.4344 160.658 17.5799 159.118 16.3633C157.579 15.1467 156.334 13.5993 155.475 11.836C154.616 10.0727 154.166 8.13867 154.157 6.17756C154.149 4.21645 154.582 2.2786 155.426 0.507853H0.417969L17.8366 77.9156C28.5249 70.8891 41.9589 66.6928 56.5662 66.6928C71.2272 66.6928 84.7059 70.9218 95.415 78.0019C106.136 70.9248 119.606 66.6928 134.267 66.6928C148.859 66.6928 162.305 70.8891 172.981 77.9156L190.418 0.504883L179.027 0.507853ZM50.5148 47.506H26.2526L26.2139 22.0427H36.5031V41.042H50.5148V47.506ZM69.2557 42.9556C73.2434 42.9556 74.5716 40.917 74.7711 40.1819H84.1371C83.7142 42.2652 81.9244 43.9258 80.3073 45.0835C76.412 47.8572 70.3725 48.2411 68.3951 48.2411H67.8709C58.9844 47.8245 51.1432 44.6371 51.1432 34.6107C51.1432 22.5189 64.6368 20.8374 67.6923 20.8702H67.8709C72.0402 20.9416 76.9659 21.8195 80.2984 25.3998C82.5141 27.7479 84.0239 31.6138 84.1282 36.8398L61.9684 36.8755C61.9774 40.6075 65.2681 42.9556 69.2557 42.9556ZM104.814 47.506H96.088L81.7189 22.4683L81.5194 22.1469H93.3929L102.166 38.2177L110.061 22.0665H118.078L104.814 47.506ZM129.493 47.506H119.302V22.0427H129.493V47.506ZM137.876 24.3284C137.778 25.0558 137.486 25.7436 137.031 26.3195C136.576 26.8955 135.974 27.3385 135.288 27.602C134.803 27.77 134.291 27.8427 133.778 27.8163V26.7568C135.437 26.7568 135.354 24.6736 135.223 24.2123H131.875V19.653H137.876V24.3284ZM151.837 48.1042C143.499 48.1042 139.386 44.9734 138.939 40.0272C143.243 40.0272 142.102 40.0629 146.384 40.0956C147.156 43.3485 148.993 43.9318 152.701 43.899C154.592 44.0389 157.32 43.0062 157.32 41.1938C157.32 39.4439 155.462 38.9141 151.364 38.0124C145.152 36.6404 138.415 35.4113 138.415 30.4174C138.415 24.2212 146.828 20.8374 153.407 21.0815H153.827C163.202 21.0815 166.448 26.5991 166.448 29.0931L158.86 29.1645C158.38 26.4414 156.066 26.0218 153.231 25.742C152.987 25.7123 152.741 25.7003 152.495 25.7063C149.815 25.7063 147.73 26.4295 147.754 28.349C147.778 30.2686 151.03 30.8549 153.892 31.0632C154.276 31.0989 167.076 32.1227 167.076 39.0718C167.07 45.7531 160.17 48.1012 151.837 48.1012V48.1042Z" fill="#C5082B"/>
<path d="M173.579 2.47202C173.579 4.88562 171.923 6.28735 169.654 6.70103L174.091 12.5996H172.09L167.9 6.98971H163.773V12.5996H162.141V0.507812H157.23C156.255 2.24984 155.753 4.21624 155.774 6.21191C155.795 8.20758 156.337 10.1631 157.348 11.8846C158.358 13.6061 159.802 15.0336 161.535 16.0255C163.268 17.0174 165.23 17.5392 167.227 17.5392C169.224 17.5392 171.187 17.0174 172.92 16.0255C174.653 15.0336 176.096 13.6061 177.106 11.8846C178.117 10.1631 178.659 8.20758 178.68 6.21191C178.701 4.21624 178.199 2.24984 177.224 0.507812H173.091C173.415 1.11176 173.582 1.78688 173.579 2.47202Z" fill="#C5082B"/>
<path d="M43.1421 41.0295H36.504V22.0421H26.2148L26.2536 47.5024H43.1421H46.5967H50.5158V41.0295H46.5967H43.1421Z" fill="white"/>
<path d="M80.3075 25.4C76.9751 21.8288 72.0583 20.9359 67.8801 20.8705H67.7014C64.6459 20.8377 51.1523 22.5192 51.1523 34.611C51.1523 44.6374 58.9936 47.8248 67.8801 48.2414H68.4042C70.3727 48.2414 76.4122 47.8575 80.3165 45.0838C81.9335 43.9261 83.7234 42.2536 84.1462 40.1822H74.7713C74.5718 40.9173 73.2436 42.9559 69.256 42.9559C65.2683 42.9559 61.9776 40.6078 61.9776 36.8758L84.1373 36.8401C84.0331 31.6141 82.5232 27.7482 80.3075 25.4ZM61.9776 31.4712C61.9776 29.9386 63.553 26.3405 67.8086 26.3405C72.0643 26.3405 74.2353 28.6648 74.1995 31.4712H61.9776Z" fill="white"/>
<path d="M153.887 31.0605C151.016 30.8522 147.785 30.2689 147.749 28.3463C147.714 26.4238 149.795 25.7036 152.49 25.7036C152.736 25.6976 152.982 25.7095 153.226 25.7393C156.061 26.019 158.375 26.4387 158.855 29.1618L166.443 29.0903C166.443 26.5964 163.197 21.0787 153.822 21.0787H153.402C146.823 20.8347 138.41 24.2185 138.41 30.4147C138.41 35.4086 145.147 36.6377 151.359 38.0096C155.448 38.9025 157.315 39.4411 157.315 41.1911C157.315 42.9946 154.587 44.0362 152.696 43.8963C148.988 43.9291 147.151 43.3457 146.379 40.0929C142.112 40.0602 143.252 40.0244 138.934 40.0244C139.381 44.9707 143.5 48.1015 151.832 48.1015C160.165 48.1015 167.065 45.7534 167.065 39.0691C167.071 32.114 154.271 31.0962 153.887 31.0605Z" fill="white"/>
<path d="M131.875 19.6532V24.2185H135.222C135.353 24.6917 135.437 26.763 133.778 26.763V27.8255C134.29 27.8519 134.803 27.7791 135.288 27.6112C135.973 27.3477 136.575 26.9047 137.031 26.3287C137.486 25.7528 137.778 25.065 137.876 24.3375V19.6651H131.875V19.6532Z" fill="white"/>
<path d="M102.159 38.2179L93.3852 22.1471H81.7113H81.5117L81.7113 22.4685L96.0893 47.5033H102.897H104.815L118.07 22.0668H110.053L102.159 38.2179Z" fill="white"/>
<path d="M129.492 22.0421H119.301V47.5024H129.492V22.0421Z" fill="white"/>
<path d="M163.774 12.5996V6.98971H167.901L172.091 12.5996H174.092L169.655 6.70103C171.924 6.28735 173.58 4.88562 173.58 2.47202C173.583 1.78688 173.416 1.11176 173.092 0.507812H171.034C171.326 0.756794 171.558 1.06832 171.712 1.41921C171.867 1.7701 171.941 2.15132 171.927 2.53452C171.927 4.40945 170.382 5.52548 168.214 5.52548H163.777V0.507812H162.145V12.5996H163.774Z" fill="white"/>
<path d="M167.229 19.1351C170.692 19.1304 174.013 17.7533 176.462 15.3058C178.911 12.8584 180.289 9.54025 180.293 6.07903C180.291 4.15068 179.858 2.24719 179.025 0.507812H177.238C178.212 2.24984 178.714 4.21624 178.694 6.21191C178.673 8.20758 178.13 10.1631 177.12 11.8846C176.109 13.6061 174.666 15.0336 172.933 16.0255C171.2 17.0174 169.238 17.5392 167.241 17.5392C165.243 17.5392 163.281 17.0174 161.548 16.0255C159.815 15.0336 158.372 13.6061 157.361 11.8846C156.351 10.1631 155.808 8.20758 155.788 6.21191C155.767 4.21624 156.269 2.24984 157.243 0.507812H155.427C154.479 2.49596 154.051 4.69169 154.184 6.88983C154.316 9.08797 155.003 11.2168 156.182 13.0773C157.361 14.9378 158.992 16.4693 160.924 17.5287C162.856 18.5881 165.025 19.1407 167.229 19.1351Z" fill="white"/>
</g>
<defs>
<clipPath id="clip0_518_340">
<rect width="190" height="77.5" fill="white" transform="translate(0.417969 0.504883)"/>
</clipPath>
</defs>
</svg>
