<svg width="178" height="74" viewBox="0 0 178 74" fill="none" xmlns="http://www.w3.org/2000/svg">
<path fill-rule="evenodd" clip-rule="evenodd" d="M43.5664 47.1372L64.3157 26.0483L81.9944 43.6391L91.0661 34.6477L91.2597 42.1996L61.7707 71.5932L57.9845 67.8332L62.8145 63.2884L49.0456 49.1968L43.9592 54.1016L43.5664 47.1372Z" fill="#CC2229" stroke="#CC2229" stroke-width="2.25391" stroke-miterlimit="2.613"/>
<path fill-rule="evenodd" clip-rule="evenodd" d="M133.508 20.0657H162.866V26.67H158.234V50.2104L176.342 40.3034L176.407 57.5995H133.344V50.765H138.174L138.205 26.67H133.541L133.508 20.0657Z" fill="#1E71B8" stroke="#1E71B8" stroke-width="2.25391" stroke-miterlimit="2.613"/>
<path fill-rule="evenodd" clip-rule="evenodd" d="M61.7725 24.5116C68.0354 24.5116 73.1882 19.3458 73.1882 13.0342C73.1882 6.72541 68.0354 1.59326 61.7725 1.59326C55.444 1.59326 50.3203 6.72541 50.3203 13.0342C50.3203 19.3458 55.444 24.5116 61.7725 24.5116Z" fill="#CC2229" stroke="#CC2229" stroke-width="2.25391" stroke-miterlimit="2.613"/>
<path fill-rule="evenodd" clip-rule="evenodd" d="M1.58259 20.4911H30.9117V27.0936H26.3089V50.633L44.4169 40.7279L44.4477 58.0221H1.41797V51.2213H6.21433L6.24894 27.0936H1.55172L1.58259 20.4911Z" fill="#1E71B8" stroke="#1E71B8" stroke-width="2.25391" stroke-miterlimit="2.613"/>
<path fill-rule="evenodd" clip-rule="evenodd" d="M115.959 57.5331H85.3912V50.896H90.5766L90.4784 26.8983H85.293V20.3912H116.12C125.058 20.3594 132.17 26.6037 132.269 38.8948C132.204 51.5844 124.309 57.5331 115.959 57.5331ZM109.856 45.9248C113.415 45.8939 116.383 43.8661 116.414 38.4075C116.414 33.1098 113.349 30.7893 109.924 30.7893L109.856 45.9248Z" fill="#1E71B8"/>
</svg>
