<svg width="59" height="71" viewBox="0 0 59 71" fill="none" xmlns="http://www.w3.org/2000/svg">
<g clip-path="url(#clip0_518_511)">
<path fill-rule="evenodd" clip-rule="evenodd" d="M56.889 63.8017H57.6523V70.2521L52.9903 65.3732V70.0126H52.2046V63.4987L56.889 68.4V63.8017ZM34.9712 63.8017V67.7453C34.9712 68.4412 34.7766 69.0099 34.3838 69.4439C33.9685 69.9228 33.4035 70.1398 32.6851 70.1398C32.0079 70.1398 31.4429 69.9228 31.0276 69.4439C30.6123 69.0099 30.4178 68.4412 30.4178 67.7453V63.8017H31.2035V67.4834C31.2035 68.7704 31.6824 69.4215 32.6851 69.4215C33.6879 69.4215 34.2117 68.7667 34.2117 67.4834V63.8017H34.9749H34.9712ZM37.3695 63.8017H41.0961V64.5201H39.6144V70.0089H38.8736V64.5201H37.3695V63.8017ZM36.0188 63.8017H36.8045V70.0126H36.0188V63.8017ZM29.1569 63.8017H30.0062L27.3048 70.3606L24.6035 63.8017H25.4528L27.3048 68.4L29.1569 63.8017ZM50.7679 66.9184C50.7679 67.6143 50.5284 68.2055 50.0271 68.7031C49.5706 69.182 48.9794 69.4215 48.306 69.4215C47.6325 69.4215 47.0413 69.182 46.54 68.7031C46.0386 68.2017 45.7991 67.6143 45.7991 66.9184C45.7991 66.2225 46.0161 65.6313 46.4951 65.1524C46.974 64.651 47.5838 64.4116 48.3022 64.4116C49.0206 64.4116 49.608 64.651 50.0682 65.1524C50.5247 65.6313 50.7641 66.2187 50.7641 66.9184H50.7679ZM50.592 64.6323C49.9373 64 49.174 63.6745 48.306 63.6745C47.4379 63.6745 46.6485 64 45.9974 64.6323C45.3651 65.2647 45.0396 66.0279 45.0396 66.9184C45.0396 67.8089 45.3651 68.5946 45.9974 69.2269C46.6298 69.8368 47.393 70.1436 48.306 70.1436C49.2189 70.1436 49.9822 69.8368 50.592 69.2269C51.2019 68.617 51.5498 67.8313 51.5498 66.9184C51.5498 66.0055 51.2243 65.2609 50.592 64.6323ZM44.8638 63.8055V64.5238H43.4046V70.0126H42.6188V64.5238H41.1372V63.8055H44.8638ZM8.82923 65.1561C9.28569 65.6351 9.50644 66.2225 9.50644 66.9221C9.50644 67.6218 9.26698 68.2092 8.78807 68.7068C8.30916 69.1858 7.72174 69.4252 7.04452 69.4252C6.36731 69.4252 5.77989 69.1858 5.27853 68.7068C4.82206 68.2055 4.56016 67.6181 4.56016 66.9221C4.56016 66.2262 4.79961 65.6351 5.25608 65.1561C5.73499 64.6548 6.32241 64.4153 7.04078 64.4153C7.75915 64.4153 8.36902 64.6548 8.82548 65.1561H8.82923ZM9.33059 64.6323C8.67582 64 7.9163 63.6745 7.04452 63.6745C6.17275 63.6745 5.36832 64 4.75846 64.6323C4.10369 65.2647 3.77818 66.0279 3.77818 66.9184C3.77818 67.8089 4.10369 68.5946 4.75846 69.2269C5.36832 69.8368 6.13159 70.1436 7.04452 70.1436C7.95745 70.1436 8.72072 69.8368 9.33059 69.2269C9.98535 68.5946 10.2884 67.8313 10.2884 66.9184C10.2884 66.0055 9.98161 65.2609 9.33059 64.6323ZM11.7065 67.4871C11.7065 68.7742 12.2078 69.4252 13.2105 69.4252C14.2133 69.4252 14.7146 68.7705 14.7146 67.4871V63.8055H15.4779V67.749C15.4779 68.4449 15.2833 69.0136 14.868 69.4477C14.4527 69.9266 13.8878 70.1436 13.2105 70.1436C12.5333 70.1436 11.9684 69.9266 11.553 69.4477C11.119 69.0136 10.9207 68.4449 10.9207 67.749V63.8055H11.7065V67.4871ZM1.81389 63.8055V69.3167H3.71083V70.0126H1.04688V63.8017H1.81014L1.81389 63.8055ZM20.484 66.3534C21.5279 66.7687 22.0293 67.3786 22.0293 68.2055C22.0293 68.7705 21.8347 69.2307 21.4419 69.6011C21.0715 69.9715 20.615 70.1473 20.0687 70.1473C19.5674 70.1473 19.1334 69.9939 18.7629 69.646C18.415 69.3205 18.198 68.9051 18.1306 68.4038L18.9163 68.2279C18.9163 68.5759 19.0249 68.8602 19.2643 69.0997C19.5038 69.3167 19.7657 69.4252 20.1136 69.4252C20.4391 69.4252 20.7011 69.2943 20.9405 69.0548C21.1351 68.8378 21.2473 68.5534 21.2473 68.2055C21.2473 67.7266 20.8994 67.3337 20.181 67.0306L19.747 66.8772C18.8752 66.4619 18.4187 65.9419 18.4187 65.2871C18.4187 64.8082 18.6133 64.3929 18.965 64.1123C19.3354 63.8055 19.7507 63.6782 20.2521 63.6782C20.9704 63.6782 21.4943 64.0038 21.8422 64.6361L21.2323 64.984C20.9929 64.6136 20.6674 64.4191 20.2296 64.4191C19.9677 64.4191 19.7058 64.4827 19.5113 64.6361C19.2942 64.8119 19.1857 65.0289 19.1857 65.2908C19.1857 65.6613 19.4701 65.9456 20.08 66.1626L20.4953 66.3572L20.484 66.3534ZM16.518 63.8055H17.3038V70.0164H16.518V63.8055Z" fill="#231F20"/>
<path fill-rule="evenodd" clip-rule="evenodd" d="M47.1121 7.67176L32.0862 43.1376L27.9406 34.042L35.5994 13.198C36.1756 11.5854 38.1886 10.8371 41.5859 10.8371L42.7944 7.67176H24.9473L23.795 10.8371C26.328 10.8371 27.3644 11.5854 26.9603 13.198L23.1589 23.7902L15.6759 7.67176C14.2952 5.94318 14.9837 5.08263 17.6925 5.08263V1.34112H0.417969V5.08263C3.64315 5.08263 5.65609 5.94692 6.52038 7.67176L19.1891 34.6181L13.2588 50.4522C13.1429 52.5812 9.80543 53.6176 3.35506 53.6176L2.14655 56.7829H51.4298L58.2805 42.2172H54.7111C51.3699 49.7601 47.5124 53.6176 43.1947 53.6176H20.5698L23.9109 44.694L26.7882 50.4522H33.2348L51.4298 7.67176C52.2941 5.08263 54.539 3.69827 58.0523 3.69827V0.36084H43.1985V3.70201C47.6883 3.70201 48.9566 5.08263 47.1121 7.6755V7.67176Z" fill="#231F20"/>
</g>
<defs>
<clipPath id="clip0_518_511">
<rect width="57.8625" height="70" fill="white" transform="translate(0.417969 0.36084)"/>
</clipPath>
</defs>
</svg>
