<svg width="191" height="48" viewBox="0 0 191 48" fill="none" xmlns="http://www.w3.org/2000/svg">
<g clip-path="url(#clip0_518_610)">
<path d="M37.0296 20.0583C37.0296 22.5695 37.0181 25.0808 37.0353 27.5921C37.0411 28.3498 37.1788 29.096 37.4371 29.8135C37.8877 31.062 38.7229 31.7193 39.9398 31.7767C41.2687 31.8369 42.2875 31.2227 42.8328 30.0288C43.2834 29.0386 43.4183 27.9796 43.4241 26.9119C43.4384 24.5269 43.4671 22.1419 43.3581 19.7598C43.3322 19.2116 43.2748 18.6663 43.1744 18.1238C43.0251 17.3174 42.5946 16.7175 41.8943 16.3014C41.5499 16.0976 41.1883 15.9139 40.8611 15.6872C39.957 15.0644 39.8509 13.8733 40.6143 13.0927C41.2084 12.4842 41.9718 12.1685 42.7525 11.893C44.4056 11.3132 46.1248 11.0262 47.8525 10.8167C49.5832 10.6072 51.3196 10.4551 53.0646 10.4551C54.8239 10.4551 55.7911 11.4051 55.8284 13.1673C55.8571 14.4846 55.771 15.802 55.7595 17.1193C55.7165 21.3613 55.7222 25.6061 55.7567 29.848C55.7653 30.7836 56.2273 31.4523 57.0855 31.8427C57.2319 31.9087 57.3754 31.9776 57.5217 32.0464C58.7501 32.6319 59.0974 33.9579 58.3053 35.083C57.8001 35.7976 57.0769 36.2396 56.3048 36.6098C54.7722 37.3446 53.1334 37.7349 51.4717 38.0276C49.6406 38.3519 47.798 38.5615 45.9325 38.5414C45.5766 38.5385 45.2236 38.5127 44.8763 38.4151C44.0296 38.1769 43.6336 37.6918 43.5704 36.8165C43.5532 36.5754 43.536 36.3372 43.5016 36.099C43.4097 35.4733 42.9448 35.1777 42.3306 35.347C42.0063 35.4388 41.725 35.6197 41.4523 35.8062C40.4392 36.4979 39.449 37.2183 38.3211 37.7263C36.6307 38.4926 34.857 38.6418 33.0402 38.5041C31.9381 38.4208 30.859 38.2228 29.8287 37.8124C27.7192 36.9714 26.4219 35.4015 25.736 33.2806C25.3284 32.0206 25.1447 30.7205 25.0414 29.4031C24.8836 27.3424 24.9209 25.2789 24.9381 23.2153C24.9496 21.8721 24.9467 20.5347 24.6941 19.2145C24.5018 18.2099 24.1804 17.26 23.3165 16.6027C23.0037 16.3645 22.6564 16.1751 22.2948 16.0431C21.0779 15.5982 20.7593 13.5662 21.9963 12.7597C22.8975 12.1714 23.8819 11.827 24.9065 11.5687C26.6659 11.1209 28.4596 10.8885 30.2649 10.7277C31.9668 10.5756 33.6716 10.4608 35.3822 10.4608C35.5429 10.4608 35.7036 10.4752 35.8615 10.501C36.5589 10.6244 36.8804 10.9659 36.9521 11.6691C36.9837 11.9762 37.0009 12.2862 37.0038 12.5961C37.0066 15.0845 37.0038 17.5728 37.0038 20.0611C37.0124 20.0611 37.021 20.0611 37.0296 20.0611V20.0583Z" fill="#458EC0"/>
<path d="M154.533 19.8374C154.533 22.3143 154.521 24.7911 154.538 27.268C154.544 28.1175 154.662 28.9556 154.943 29.7649C155.388 31.0392 156.235 31.7223 157.446 31.774C158.829 31.8314 159.854 31.2 160.393 29.9486C160.812 28.9728 160.947 27.9396 160.944 26.892C160.944 24.464 160.999 22.033 160.87 19.605C160.841 19.0798 160.786 18.5574 160.68 18.0379C160.525 17.2716 160.095 16.7062 159.435 16.3073C159.102 16.1064 158.749 15.9342 158.427 15.7189C157.44 15.0531 157.345 13.819 158.218 13.0096C158.961 12.3208 159.897 11.9907 160.841 11.7066C162.58 11.1814 164.371 10.9173 166.176 10.7279C167.637 10.5758 169.101 10.461 170.57 10.4553C172.364 10.4524 173.323 11.411 173.352 13.2162C173.375 14.6828 173.277 16.1494 173.274 17.616C173.263 21.5394 173.263 25.4599 173.263 29.3832C173.263 29.6817 173.271 29.9773 173.329 30.2729C173.452 30.9244 173.802 31.4066 174.382 31.7194C174.594 31.8342 174.812 31.9376 175.028 32.038C176.27 32.6235 176.621 33.9265 175.84 35.0659C175.349 35.7806 174.637 36.2168 173.88 36.587C172.456 37.2787 170.935 37.6662 169.391 37.9532C167.439 38.3177 165.47 38.5616 163.479 38.5415C163.017 38.5358 162.563 38.4928 162.13 38.3234C161.579 38.111 161.249 37.7178 161.154 37.1381C161.099 36.7879 161.082 36.4321 161.022 36.0819C160.916 35.4505 160.462 35.175 159.845 35.3501C159.486 35.4505 159.182 35.6629 158.884 35.8724C157.876 36.5727 156.877 37.2787 155.744 37.7752C154.045 38.5186 152.268 38.642 150.454 38.4928C149.41 38.4067 148.388 38.2115 147.409 37.8298C145.257 36.9917 143.939 35.3931 143.251 33.232C142.682 31.4439 142.522 29.5985 142.493 27.7387C142.461 25.7096 142.499 23.6804 142.467 21.6513C142.447 20.4143 142.344 19.1802 141.879 18.0092C141.56 17.2056 141.029 16.6058 140.24 16.2384C140.145 16.1954 140.056 16.1437 139.961 16.1006C139.032 15.6902 138.67 15.1621 138.765 13.8792C138.799 13.3971 139.132 13.0756 139.488 12.7944C140.131 12.2892 140.883 12.008 141.652 11.7755C143.403 11.2474 145.205 10.9834 147.019 10.7939C148.971 10.5902 150.925 10.4639 152.888 10.4524C153.072 10.4524 153.255 10.4639 153.433 10.4983C154.068 10.6246 154.375 10.946 154.458 11.5775C154.495 11.8731 154.518 12.1716 154.518 12.4672C154.524 14.9211 154.518 17.3749 154.518 19.8288C154.521 19.8288 154.524 19.8288 154.53 19.8288L154.533 19.8374Z" fill="#F3106B"/>
<path d="M129.827 38.5732C128.042 38.5158 126.355 38.6105 124.673 38.4584C123.218 38.3264 121.774 38.1398 120.442 37.4912C119.587 37.0751 118.91 36.4896 118.692 35.5023C118.491 34.5896 118.752 33.9984 119.576 33.5592C119.716 33.4846 119.86 33.41 120.009 33.3526C121.12 32.925 121.654 32.0898 121.829 30.9389C122.11 29.0992 122.202 27.248 122.259 25.394C122.351 22.4608 122.334 19.5247 122.325 16.5887C122.319 14.9269 122.259 13.268 121.966 11.6263C121.717 10.2401 121.048 9.15237 119.794 8.45494C119.553 8.32005 119.326 8.16794 119.088 8.02731C117.664 7.20073 117.704 5.32659 118.459 4.35939C119.025 3.63614 119.759 3.13962 120.563 2.73207C122.377 1.80792 124.326 1.30566 126.303 0.889501C128.335 0.461864 130.39 0.18634 132.459 0.0141367C132.829 -0.0174338 133.194 -0.00308358 133.553 0.0830178C134.448 0.298271 134.95 1.00717 135.051 2.10927C135.131 3.0076 135.028 3.89444 134.959 4.78415C134.795 6.91947 134.64 9.05478 134.54 11.1958C134.468 12.7399 134.422 14.2869 134.399 15.8338C134.336 20.5235 134.388 25.2132 134.376 29.9028C134.376 30.428 134.414 30.9561 134.497 31.4756C134.615 32.2161 134.982 32.7757 135.671 33.1029C135.898 33.212 136.127 33.3153 136.357 33.4157C137.605 33.9725 137.998 35.1091 137.361 36.3288C137.069 36.8885 136.604 37.2702 136.055 37.5572C134.968 38.1226 133.779 38.3092 132.58 38.4441C131.633 38.5503 130.68 38.5187 129.83 38.5675L129.827 38.5732Z" fill="#FE7F06"/>
<path d="M17.549 3.1409C17.4314 4.8084 17.2993 6.6481 17.1702 8.48493C17.0439 10.2902 16.9578 12.0954 16.9119 13.9036C16.7827 19.2218 16.8803 24.5428 16.8516 29.861C16.8516 30.4006 16.8975 30.9344 16.975 31.4683C17.087 32.2432 17.4888 32.8 18.1977 33.1329C18.4158 33.2362 18.631 33.3395 18.8578 33.4256C20.0345 33.8762 20.333 34.786 19.957 36.0345C19.736 36.7692 19.1735 37.2284 18.5134 37.57C17.3912 38.1497 16.1714 38.3449 14.9344 38.4511C13.7347 38.5573 12.5322 38.5573 11.3296 38.5515C9.93192 38.5458 8.53421 38.5716 7.13937 38.454C5.64121 38.3277 4.14878 38.1296 2.79125 37.4207C1.78099 36.8927 1.10653 36.1321 1.13236 34.9066C1.14384 34.3785 1.35335 33.9796 1.80395 33.7098C2.0106 33.5864 2.21724 33.4572 2.4411 33.374C3.61208 32.9349 4.15452 32.0566 4.32672 30.8569C4.58503 29.0632 4.67974 27.2579 4.74288 25.4498C4.84046 22.6199 4.80602 19.7872 4.80889 16.9573C4.80889 15.0889 4.77158 13.2234 4.3956 11.3837C4.13443 10.1122 3.46284 9.13643 2.33204 8.48493C2.08522 8.34143 1.847 8.18358 1.59731 8.04294C0.136455 7.21637 0.185246 5.32501 0.940068 4.36354C1.60592 3.51688 2.49276 2.98592 3.44275 2.54106C5.3542 1.64848 7.39193 1.16057 9.44976 0.761635C11.2837 0.405749 13.1378 0.173275 15.0004 0.0154227C16.246 -0.090769 17.1099 0.411489 17.3969 1.4361C17.5376 1.93835 17.5605 2.45209 17.549 3.1409Z" fill="#130378"/>
<path d="M113.633 20.4206C113.633 23.1155 113.622 25.8105 113.639 28.5055C113.645 29.4325 113.76 30.3567 114.098 31.2349C114.365 31.9208 114.799 32.4633 115.427 32.8479C115.525 32.9081 115.622 32.9684 115.72 33.0287C117.008 33.8294 117.209 35.4539 116.168 36.5789C115.51 37.285 114.664 37.6523 113.762 37.9106C112.095 38.3928 110.384 38.5248 108.66 38.5363C106.929 38.5478 105.195 38.5679 103.468 38.3871C102.202 38.255 100.942 38.0771 99.7452 37.6121C99.3807 37.4715 99.0334 37.2964 98.7177 37.064C97.5496 36.2001 97.4434 34.5527 98.5024 33.5596C98.7607 33.3186 99.0391 33.0889 99.3376 32.8995C100.342 32.2566 100.816 31.3239 100.951 30.1615C101.131 28.6117 101.229 27.059 101.249 25.5005C101.269 23.9421 101.252 22.3865 101.085 20.8367C101.051 20.5067 100.994 20.1795 100.93 19.8523C100.804 19.2037 100.428 18.733 99.8542 18.4173C99.4524 18.1963 99.0391 17.9954 98.6488 17.7572C97.4463 17.0167 97.2654 15.5817 98.2413 14.5599C98.9789 13.7879 99.9202 13.3344 100.885 12.9297C102.828 12.1204 104.868 11.6353 106.923 11.2135C108.439 10.9035 109.965 10.6681 111.501 10.4816C111.693 10.4586 111.891 10.4529 112.083 10.4558C112.89 10.4701 113.392 10.8949 113.544 11.687C113.599 11.9683 113.619 12.2553 113.619 12.5423C113.619 15.1684 113.619 17.7945 113.619 20.4206C113.622 20.4206 113.628 20.4206 113.63 20.4206H113.633Z" fill="#B3DB1B"/>
<path d="M103.128 8.73917C101.985 8.75926 100.895 8.57557 99.8786 8.01879C98.0102 6.99418 97.462 4.31929 99.3218 2.74938C100.278 1.9429 101.374 1.42055 102.542 1.02448C104.419 0.390201 106.345 -0.000125322 108.334 0.0113549C109.37 0.017095 110.383 0.197908 111.347 0.608325C113.948 1.71616 113.75 4.44558 112.343 5.86051C111.405 6.80763 110.242 7.3558 109.002 7.76622C107.097 8.4005 105.128 8.67603 103.128 8.73917Z" fill="#B3DB1B"/>
<path d="M190.359 10.878C190.017 7.62046 186.943 5.14648 183.694 5.51672C180.069 5.93 177.647 9.09853 178.215 12.689C178.66 15.5073 181.111 17.7001 183.944 17.8177C186.958 17.944 189.526 16.0412 190.221 13.1683C190.29 12.8841 190.353 12.6 190.416 12.3159V11.1449C190.396 11.0559 190.367 10.9698 190.359 10.8808V10.878ZM186.237 16.1359C184.28 17.0945 181.961 16.4889 180.638 14.7468C179.079 12.6976 179.346 9.60366 181.223 7.93617C183.821 5.62578 187.801 6.82833 188.763 10.215C188.898 10.6914 188.978 11.1736 188.981 11.6758C188.889 13.6648 188.074 15.2376 186.237 16.1359Z" fill="#F3106B"/>
<path d="M95.978 21.083C95.5762 18.5344 94.6693 16.1723 93.0391 14.1432C90.5852 11.0895 87.4109 9.82952 83.5191 10.4466C81.7225 10.7307 80.121 11.5056 78.5769 12.424C78.1636 12.6709 77.7676 12.9435 77.3227 13.1329C76.964 13.2851 76.7286 13.1817 76.5851 12.8201C76.5047 12.6135 76.4904 12.3982 76.4847 12.1801C76.476 11.896 76.4617 11.6061 76.4186 11.3248C76.3526 10.8828 76.1001 10.6016 75.6495 10.5126C75.1013 10.4035 74.5502 10.438 74.0049 10.4868C71.8983 10.6704 69.8376 11.1067 67.8085 11.6922C65.7363 12.292 63.7101 13.0067 61.8761 14.1748C61.127 14.6512 60.4325 15.1994 60.0135 16.0145C59.3533 17.2974 59.9647 18.8816 61.3078 19.3896C61.7269 19.5475 62.166 19.6451 62.608 19.7111C63.2939 19.8115 63.601 20.1961 63.7015 20.862C63.9397 22.4549 63.9741 24.0563 63.9827 25.6578C63.9971 28.2036 63.9827 30.7493 63.9655 33.2922C63.9569 34.6669 63.8966 36.0388 63.69 37.4021C63.469 38.8428 62.8433 39.9765 61.4112 40.539C61.1902 40.6251 60.9835 40.7571 60.7826 40.8863C60.4411 41.1073 60.2258 41.4287 60.1283 41.8219C59.9532 42.5222 60.0422 43.1823 60.4325 43.7994C60.774 44.3418 61.2304 44.7723 61.7441 45.1455C63.1016 46.127 64.6428 46.701 66.2415 47.1287C68.3911 47.7027 70.581 47.9552 72.8053 47.961C74.4039 47.9638 75.9881 47.8462 77.5179 47.3296C78.287 47.0684 79.0017 46.7154 79.524 46.0639C80.4195 44.9532 80.1727 43.4693 78.9701 42.7174C78.8065 42.6141 78.6401 42.5079 78.4707 42.416C77.3973 41.8305 76.8233 40.9236 76.72 39.7153C76.6712 39.1298 76.6569 38.5472 76.8491 37.9789C77.0328 37.4336 77.3715 37.2643 77.9111 37.448C78.3559 37.6001 78.795 37.7608 79.2342 37.9273C81.4613 38.7682 83.7258 38.972 86.0448 38.3492C89.3109 37.4681 91.7447 35.4734 93.5299 32.6722C95.7915 29.1248 96.6353 25.2503 95.9751 21.083H95.978ZM82.7758 25.2015C82.7815 26.4643 82.704 27.7157 82.285 28.9239C81.4929 31.2056 79.6446 31.7596 77.5724 31.1827C76.7257 30.9473 76.3383 30.2843 76.2952 29.4549C76.212 27.8764 76.2751 26.295 76.3182 24.7165C76.3498 23.5857 76.4072 22.452 76.5621 21.3298C76.6454 20.7185 76.7458 20.11 76.9726 19.5274C77.3084 18.6664 77.7934 18.3277 78.7204 18.3105C80.2014 18.2847 81.2202 18.9993 81.8689 20.288C82.5261 21.5938 82.7127 23.0088 82.7701 24.4467C82.7815 24.6992 82.7701 24.9489 82.7701 25.2015H82.7758Z" fill="#29842D"/>
<path d="M186.671 13.3346C186.574 12.6946 186.381 12.1034 185.627 11.8365C186.384 11.4978 186.714 11.2165 186.835 10.7057C187.09 9.63226 186.752 8.59905 185.334 8.31778C184.214 8.09679 183.098 8.1915 181.982 8.34361C181.758 8.37231 181.749 8.50146 181.752 8.67654C181.755 10.4761 181.752 12.2756 181.758 14.0751C181.758 14.4396 181.603 14.9189 181.815 15.137C182.048 15.3752 182.533 15.1772 182.906 15.2145C183.161 15.2403 183.242 15.1571 183.236 14.8959C183.219 14.1641 183.227 13.4293 183.233 12.6946C183.233 12.5913 183.187 12.4679 183.356 12.4191C184.283 12.155 185.047 12.6458 185.179 13.6044C185.242 14.0694 185.308 14.5343 185.451 14.982C185.486 15.0911 185.509 15.2088 185.661 15.2088C186.117 15.2088 186.571 15.2088 187.064 15.2088C186.835 14.5745 186.766 13.9517 186.671 13.3289V13.3346ZM184.74 11.1476C184.433 11.2567 184.114 11.2883 183.793 11.2797C183.41 11.2797 183.219 11.0874 183.219 10.7028C183.219 10.3354 183.227 9.96806 183.216 9.60356C183.207 9.40553 183.262 9.30795 183.474 9.30221C183.91 9.29073 184.346 9.27351 184.766 9.42849C185.176 9.5806 185.397 9.90205 185.391 10.3211C185.388 10.72 185.167 10.9984 184.74 11.1476Z" fill="#F3106B"/>
</g>
<defs>
<clipPath id="clip0_518_610">
<rect width="190" height="47.9642" fill="white" transform="translate(0.417969)"/>
</clipPath>
</defs>
</svg>
