<svg width="190" height="62" viewBox="0 0 190 62" fill="none" xmlns="http://www.w3.org/2000/svg">
<g clip-path="url(#clip0_599_24)">
<path fill-rule="evenodd" clip-rule="evenodd" d="M0 60.6582V17.7077H15.6429V24.0752C16.6483 22.6482 17.8699 21.3725 19.2537 20.205C20.9509 18.8753 22.8103 17.8699 24.7671 17.178C26.3022 16.7024 27.794 16.4321 29.221 16.4321C32.875 16.4321 35.902 17.178 38.2911 18.6591C40.5181 20.0428 42.1613 21.8914 43.2207 24.2806C45.0261 21.686 47.199 19.7185 49.6422 18.3996C52.0854 17.124 54.8962 16.4321 58.0204 16.4321C62.5825 16.4321 66.1284 17.3834 68.6797 19.2969C71.2202 21.2104 72.8634 23.913 73.6634 27.3616C74.1931 29.5886 74.4633 32.1831 74.4633 35.2641V60.669H57.4367V38.7668C57.4367 37.0155 57.3286 35.5885 57.1664 34.529C56.9502 33.4696 56.6907 32.6156 56.2691 31.9885C55.4259 30.6048 53.88 29.9237 51.7071 29.9237C49.9017 29.9237 48.5287 30.4534 47.6206 31.5669C46.8207 32.4102 46.2909 33.7939 45.9774 35.7614C45.8153 36.8749 45.7072 38.0965 45.7072 39.4154V60.6798H28.6805V38.7776C28.6805 35.4912 28.3129 33.2101 27.567 31.9885C26.7238 30.6048 25.1779 29.9237 22.9509 29.9237C21.1996 29.9237 19.8266 30.4534 18.8645 31.5669C18.0213 32.4642 17.4807 33.848 17.2753 35.7614C17.1672 36.2912 17.1132 36.8749 17.0591 37.5128C17.0051 38.0965 17.0051 38.7343 17.0051 39.4262V60.6907H0V60.6582ZM125.089 60.6582H107.49L106.69 56.0962C104.355 58.215 101.922 59.7501 99.2088 60.6582C97.9872 61.0798 96.6683 61.4042 95.2305 61.6096C93.7494 61.8258 92.2035 61.9231 90.5063 61.9231C87.2198 61.9231 84.4091 61.3393 82.074 60.1717C79.4795 58.842 77.62 57.0475 76.4525 54.7124C76.0309 53.8151 75.7606 52.853 75.5552 51.9016C75.339 51.0044 75.1877 49.9882 75.1877 48.9287C75.1877 47.599 75.3498 46.4315 75.6093 45.2748C75.9228 44.1613 76.3552 43.1018 76.939 42.0964C77.9444 40.5073 79.4362 39.1776 81.3929 38.0641C82.5605 37.3722 83.8361 36.8425 85.2091 36.4209C90.8306 35.1993 96.2899 34.302 101.49 33.6101C102.182 33.3939 102.765 33.2426 103.349 32.9723C103.879 32.7561 104.247 32.6047 104.463 32.4426C105.306 31.8048 105.738 31.0588 105.738 30.1615C105.738 29.1021 105.317 28.3021 104.463 27.7184C103.771 27.2427 102.928 26.9184 101.814 26.713H99.2737L98.3223 26.767C97.4791 26.9292 96.8953 27.1346 96.4629 27.3508C95.1332 28.0427 94.3981 29.2102 94.2359 30.8534H77.8471C77.8471 27.2967 78.8524 24.486 80.82 22.3671C82.9389 19.978 86.1712 18.3348 90.4738 17.3834C93.544 16.7456 97.2088 16.4321 101.295 16.4321C103.998 16.4321 106.441 16.5943 108.506 16.8537C110.625 17.1672 112.538 17.5996 114.29 18.1834C117.262 19.1888 119.327 20.7239 120.603 22.7995C121.349 24.0752 121.933 25.5022 122.3 27.0913C122.614 29.3183 122.776 31.7075 122.776 34.248V54.3448C122.776 55.0367 122.83 55.6205 122.884 56.1502C122.938 56.6799 123.046 57.1015 123.154 57.4259C123.468 58.2258 124.106 59.015 125.122 59.815V60.6582H125.089ZM98.2574 52.226C101.068 52.226 103.079 51.1665 104.409 49.1017C105.306 47.6207 105.738 45.1234 105.738 41.6748C103.987 42.2586 102.29 42.7883 100.755 43.2099C99.2736 43.6856 97.7277 44.0532 96.3007 44.3234C95.3494 44.745 94.6035 45.1234 94.0197 45.5991C93.2197 46.4423 92.8522 47.4585 92.8522 48.626C92.8522 49.6314 93.3278 50.5395 94.3332 51.2206C95.3386 51.9125 96.6142 52.226 98.2574 52.226ZM138.505 60.6582L123.662 17.7077H140.689L148.17 44.7991L155.597 17.7077H171.986L157.564 60.6582H138.527H138.505ZM189.996 60.6582H172.969V17.7077H189.996V60.6582ZM172.969 12.1403V0H189.996V12.1403H172.969Z" fill="#0095DA"/>
<path fill-rule="evenodd" clip-rule="evenodd" d="M122.864 1.11345H125.091V8.06466C125.091 8.96194 125.037 9.65382 124.874 10.1295C124.658 10.7673 124.237 11.297 123.707 11.6646C123.123 12.0321 122.377 12.2484 121.426 12.2484C120.366 12.2484 119.512 11.9349 118.929 11.3511C118.345 10.7133 118.031 9.87003 118.031 8.70249L120.15 8.43222C120.15 9.07005 120.258 9.49166 120.42 9.76192C120.691 10.1295 121.004 10.3457 121.534 10.3457C122.01 10.3457 122.377 10.2376 122.593 9.92408C122.755 9.65382 122.864 9.08086 122.864 8.17277V1.11345ZM127.48 12.0321V1.11345H135.696V2.97287H129.707V5.41607H135.274V7.22144H129.707V10.1943H135.858V12.0538H127.48V12.0321ZM147.739 12.0321H145.296L144.344 9.5349H139.944L139.047 12.0321H136.658L140.95 1.11345H143.339L147.739 12.0321ZM143.652 7.74035L142.117 3.65394L140.636 7.74035H143.663H143.652ZM148.96 12.0321V1.11345H151.133L155.641 8.43222V1.11345H157.706V12.0321H155.479L151.025 4.92959V12.0321H148.96ZM159.511 8.47547L161.684 8.25925C161.793 9.00518 162.052 9.5349 162.484 9.84841C162.852 10.216 163.382 10.3781 164.074 10.3781C164.819 10.3781 165.349 10.216 165.717 9.90246C166.084 9.6322 166.246 9.26464 166.246 8.84303C166.246 8.57276 166.192 8.36736 166.03 8.2052C165.868 7.98899 165.609 7.83764 165.23 7.72953C164.96 7.62143 164.333 7.45927 163.425 7.25387C162.203 6.94036 161.36 6.61604 160.884 6.19443C160.247 5.55661 159.879 4.81067 159.879 3.96745C159.879 3.43773 160.041 2.90801 160.355 2.43234C160.668 1.95668 161.155 1.58912 161.738 1.31885C162.376 1.04859 163.068 0.951294 163.911 0.951294C165.295 0.951294 166.355 1.22156 167.036 1.84857C167.728 2.43235 168.095 3.23233 168.149 4.23771L165.922 4.34582C165.814 3.76205 165.609 3.39449 165.284 3.12422C165.014 2.85396 164.538 2.75666 163.901 2.75666C163.263 2.75666 162.733 2.91882 162.365 3.17828C162.149 3.34043 161.998 3.54584 161.998 3.8161C161.998 4.08637 162.16 4.29177 162.365 4.50798C162.636 4.72419 163.317 4.98364 164.376 5.25391C165.49 5.47012 166.29 5.72958 166.819 5.99984C167.349 6.31335 167.717 6.69172 168.041 7.11333C168.311 7.589 168.463 8.17277 168.463 8.86465C168.463 9.50247 168.3 10.0862 167.933 10.616C167.565 11.1997 167.09 11.5673 166.452 11.8376C165.814 12.1078 165.025 12.2592 164.063 12.2592C162.636 12.2592 161.566 11.9457 160.83 11.3078C160.084 10.67 159.609 9.71868 159.501 8.49709L159.511 8.47547Z" fill="#0095DA"/>
</g>
<defs>
<clipPath id="clip0_599_24">
<rect width="190" height="61.9339" fill="white"/>
</clipPath>
</defs>
</svg>
