<svg width="190" height="48" viewBox="0 0 190 48" fill="none" xmlns="http://www.w3.org/2000/svg">
<g clip-path="url(#clip0_599_5)">
<path fill-rule="evenodd" clip-rule="evenodd" d="M41.4929 19.5148V35.6193C40.1493 35.8432 38.8104 35.9552 37.4668 35.9552C36.1232 35.9552 34.7842 35.8432 33.4407 35.6193V21.3063C33.4407 18.1199 31.9291 16.4404 28.9107 16.4404C26.844 16.4404 25.5563 17.2242 24.6046 17.896C24.6606 18.4558 24.7166 18.9596 24.7166 19.5195V35.624C23.373 35.8479 22.0341 35.9599 20.6905 35.9599C19.3469 35.9599 18.0079 35.8479 16.7203 35.624V21.3109C16.7203 18.1246 15.1528 16.4451 12.1344 16.4451C10.3476 16.4451 8.94799 16.9489 7.99627 17.5087V35.624C6.65267 35.8479 5.31374 35.9599 3.97014 35.9599C2.62655 35.9599 1.3436 35.8479 0 35.624V13.4173C1.6795 11.8498 6.48472 9.16724 12.8062 9.16724C16.4404 9.16724 19.2349 10.063 21.1383 11.5698C23.205 10.2822 26.1722 9.16724 29.6385 9.16724C37.6347 9.16724 41.4929 13.5293 41.4929 19.5101V19.5148Z" fill="#0072CE"/>
<path fill-rule="evenodd" clip-rule="evenodd" d="M69.9528 20.5739V33.9912C66.1506 35.5541 61.6767 36.5058 57.0394 36.5058C49.7149 36.5058 45.4648 33.7113 45.4648 28.1176C45.4648 22.524 50.1068 19.9534 56.6475 20.0094C58.7142 20.0654 60.4497 20.2893 62.0172 20.7932V19.7855C62.0172 17.5508 60.5057 15.9833 56.7035 15.9833C53.685 15.9833 51.1145 17.1589 49.7709 18.2179C48.0354 17.2662 46.6965 15.4794 46.3046 13.0721C47.7602 11.7845 51.7816 9.32593 57.4313 9.32593C64.8117 9.32593 69.9575 12.5683 69.9575 20.5646L69.9528 20.5739ZM58.0984 30.9168C59.386 30.9168 60.669 30.6929 61.9566 30.301V25.6031C60.669 25.2112 59.2181 24.9872 57.5386 24.9872C55.024 24.9872 53.4564 25.827 53.4564 27.7257C53.4564 29.6245 55.024 30.9121 58.0984 30.9121V30.9168Z" fill="#0072CE"/>
<path fill-rule="evenodd" clip-rule="evenodd" d="M99.8098 10.5668C97.5752 26.8906 91.3657 38.913 79.7958 47.1892C77.3372 46.3494 75.7137 43.9468 74.9859 41.6562C77.8364 39.3655 80.3556 37.0702 81.9745 34.8355C76.7167 26.7273 74.3701 19.7387 72.3594 10.5108C73.479 10.2309 75.9936 9.89502 78.2283 9.89502C79.18 9.89502 80.351 9.951 81.2467 10.063C82.1984 15.9879 83.9852 22.3653 86.2246 27.5064C86.5045 28.1222 86.6724 28.5701 86.7844 28.962C86.8964 28.4021 87.0643 27.8983 87.2323 27.5064C89.4669 22.3046 90.6986 16.0438 91.4263 10.063C92.434 9.951 93.605 9.89502 94.6127 9.89502C96.5115 9.951 98.3589 10.1749 99.8145 10.5668H99.8098Z" fill="#0072CE"/>
<path fill-rule="evenodd" clip-rule="evenodd" d="M151.299 10.007C151.243 12.6336 150.515 15.1528 149.008 16.9396C148.057 16.6597 147.054 16.5477 145.934 16.5477C144.254 16.5477 142.859 16.8836 142.02 17.2755V35.6147C140.732 35.8386 139.337 35.9506 137.994 35.9506C136.65 35.9506 135.367 35.8386 134.023 35.6147V13.1421C135.81 11.5232 139.78 9.22791 145.374 9.22791C147.833 9.22791 149.792 9.50782 151.299 10.0117V10.007Z" fill="#0072CE"/>
<path fill-rule="evenodd" clip-rule="evenodd" d="M176.852 20.5739V33.9912C173.05 35.5541 168.576 36.5058 163.934 36.5058C156.609 36.5058 152.359 33.7113 152.359 28.1176C152.359 22.7479 157.001 19.9534 163.542 20.0094C165.613 20.0654 167.344 20.2893 168.912 20.7932V19.7855C168.912 17.5508 167.405 15.9833 163.598 15.9833C160.58 15.9833 158.009 17.1589 156.665 18.2179C154.93 17.2662 153.591 15.4794 153.199 13.0721C154.655 11.7845 158.681 9.32593 164.326 9.32593C171.706 9.32593 176.847 12.5683 176.847 20.5646L176.852 20.5739ZM164.942 30.9168C166.229 30.9168 167.512 30.6929 168.8 30.301V25.6031C167.512 25.2112 166.061 24.9872 164.382 24.9872C161.867 24.9872 160.3 25.827 160.3 27.7257C160.3 29.6245 161.863 30.9121 164.942 30.9121V30.9168Z" fill="#0072CE"/>
<path fill-rule="evenodd" clip-rule="evenodd" d="M181.941 35.6753V0.335899C183.173 0.111966 184.512 0 185.856 0C187.199 0 188.594 0.111966 189.994 0.335899V35.6706C188.762 35.8946 187.367 36.0065 186.024 36.0065C184.685 35.9506 183.341 35.8386 181.941 35.6706V35.6753Z" fill="#0072CE"/>
<path fill-rule="evenodd" clip-rule="evenodd" d="M115.796 9.17188C107.632 9.17188 101.707 14.5976 101.707 22.8691C101.707 31.1406 107.52 36.5104 115.684 36.5104C123.848 36.5104 129.773 31.0893 129.773 22.8691C129.773 14.6489 123.904 9.17188 115.796 9.17188ZM122.785 28.4628H109.255C107.245 28.2948 105.621 26.564 105.621 24.4926C105.621 22.5939 106.965 20.9703 108.808 20.6344C108.696 20.1866 108.584 19.6827 108.584 19.1789C108.584 16.3284 110.874 14.0378 113.725 14.0378C116.239 14.0378 118.311 15.8245 118.759 18.1758C119.039 18.1199 119.318 18.0639 119.598 18.0639C121.665 18.0639 123.289 19.7434 123.289 21.7541C123.289 21.9221 123.289 22.09 123.233 22.258C124.739 22.4819 125.915 23.7695 125.915 25.3324C125.859 27.0678 124.46 28.4628 122.785 28.4628Z" fill="#0072CE"/>
</g>
<defs>
<clipPath id="clip0_599_5">
<rect width="190" height="47.1892" fill="white"/>
</clipPath>
</defs>
</svg>
