<svg width="152" height="71" viewBox="0 0 152 71" fill="none" xmlns="http://www.w3.org/2000/svg">
<g clip-path="url(#clip0_518_746)">
<path fill-rule="evenodd" clip-rule="evenodd" d="M62.98 32.9301L45.6133 33.5524L62.1 34.4657L62.98 32.9301Z" fill="#231F20"/>
<path fill-rule="evenodd" clip-rule="evenodd" d="M60.9074 36.583L43.4922 37.2053L60.0435 38.1267L60.9074 36.583Z" fill="#231F20"/>
<path fill-rule="evenodd" clip-rule="evenodd" d="M58.8243 40.2682L41.4414 40.8744L57.9685 41.7957L58.8243 40.2682Z" fill="#231F20"/>
<path fill-rule="evenodd" clip-rule="evenodd" d="M56.7899 43.9301L39.3828 44.5524L55.8937 45.4738L56.7899 43.9301Z" fill="#231F20"/>
<path fill-rule="evenodd" clip-rule="evenodd" d="M78.073 14.4949L55.9023 15.2788L78.1376 16.5154L78.073 14.4949Z" fill="#231F20"/>
<path fill-rule="evenodd" clip-rule="evenodd" d="M77.9256 10.8654L58.0156 11.5604L77.9902 12.7081L77.9256 10.8654Z" fill="#231F20"/>
<path fill-rule="evenodd" clip-rule="evenodd" d="M77.7889 7.36646L60.0508 7.95646L77.8696 8.94249L77.7889 7.36646Z" fill="#231F20"/>
<path fill-rule="evenodd" clip-rule="evenodd" d="M77.6673 3.77698L62.1172 4.29424L77.7319 5.22369L77.6673 3.77698Z" fill="#231F20"/>
<path fill-rule="evenodd" clip-rule="evenodd" d="M77.5707 0.875854H64.0391L77.5869 1.59517L77.5707 0.875854Z" fill="#231F20"/>
<path fill-rule="evenodd" clip-rule="evenodd" d="M54.6907 47.5999L37.332 48.2303H54.3354L54.6907 47.5999Z" fill="#231F20"/>
<path fill-rule="evenodd" clip-rule="evenodd" d="M113.549 0.988525H88.5201L87.8096 2.24935L100.332 2.91209C100.477 2.91209 100.477 3.12223 100.267 3.12223L87.0748 3.56675L85.7992 5.79744L98.2409 6.53292C98.4105 6.55717 98.3701 6.78347 98.2167 6.78347L85.0079 7.21991L83.7727 9.35361L96.1902 10.0406C96.4647 10.0648 96.4647 10.2911 96.1902 10.2911L82.9976 10.7518L81.7461 12.9825L94.1233 13.6938C94.3978 13.718 94.3736 13.9686 94.1233 13.9686L80.9307 14.4373L79.655 16.6438L92.0564 17.3307C92.2421 17.355 92.2663 17.5813 92.016 17.5813L54.0046 18.8583L90.0702 20.8627C90.2963 20.8627 90.2801 21.1536 90.0299 21.1536L51.9619 22.5114L88.0276 24.5158C88.1971 24.5158 88.2375 24.7906 87.9872 24.7906L49.8546 26.1727L85.9203 28.1771C86.0656 28.2013 86.2109 28.468 85.8961 28.4923L47.8281 29.8501L83.8938 31.8545C83.9987 31.8787 84.1037 32.1454 83.8534 32.1454L64.6943 32.8324L64.7589 34.562L81.8349 35.5076C81.9641 35.5319 82.0206 35.7824 81.7946 35.7824L64.8235 36.3886L64.9042 38.3202L79.7277 39.1446C79.873 39.1689 79.9376 39.4598 79.6873 39.4598L64.993 39.9771L65.0576 42.1027L77.685 42.8059C77.8303 42.8301 77.8707 43.0968 77.6204 43.0968L65.1141 43.5413L65.1949 45.8771L75.6343 46.459C75.7796 46.4833 75.7796 46.7338 75.5697 46.7338L65.2352 47.1056L65.2756 48.1078H98.9675C107.897 48.1078 115.914 41.5855 117.416 36.4048C118.918 31.2241 118.918 26.5445 111.74 24.2006C115.745 23.2793 122.721 18.7532 124.093 12.4976C125.345 6.8158 123.262 1.00469 113.533 0.988525H113.549ZM96.6019 37.2776H86.2513L92.0967 26.9162H99.7749C107.703 26.9162 103.868 37.2776 96.6019 37.2776ZM109.996 15.0435C109.665 16.2962 107.154 19.4725 103.981 19.4725H96.3032L101.228 10.7842H105.152C110.158 10.9539 110.327 13.7907 109.996 15.0435Z" fill="#231F20"/>
<path fill-rule="evenodd" clip-rule="evenodd" d="M151.472 63.1256C151.472 59.1088 148.137 55.7466 144.125 55.7466C140.112 55.7466 136.648 59.1654 136.648 63.36C136.648 67.5547 139.983 70.8684 144.149 70.8684C147.193 70.8684 150.091 68.7832 150.947 65.9382H147.144C146.385 67.1344 145.4 67.684 144.044 67.684C142.324 67.684 140.79 66.5121 140.29 64.8391H151.286C151.415 64.0308 151.472 63.6429 151.472 63.1176V63.1256ZM140.193 62.1234C140.685 60.1675 142.252 58.9148 144.181 58.9148C146.111 58.9148 147.621 60.1433 148.089 62.1234H140.193Z" fill="#231F20"/>
<path fill-rule="evenodd" clip-rule="evenodd" d="M102.081 56.4407V57.6126C100.991 56.4407 99.4007 55.7699 97.7133 55.7699C93.9589 55.7699 90.7617 58.9785 90.7617 63.149C90.7617 67.085 93.5875 70.6169 97.7859 70.6169C99.6348 70.6169 101.04 70.1886 102.372 68.6772V70.528H105.553V56.4407H102.089H102.081ZM98.1977 67.6346C95.7836 67.6346 93.8298 65.6787 93.8298 63.2621C93.8298 60.8455 95.7836 58.8896 98.1977 58.8896C100.612 58.8896 102.566 60.8455 102.566 63.2621C102.566 65.6787 100.612 67.6346 98.1977 67.6346Z" fill="#231F20"/>
<path fill-rule="evenodd" clip-rule="evenodd" d="M7.34528 55.7456C5.91622 55.7456 4.81819 56.2386 3.62327 57.4671V56.0851H0.417969V70.528H3.88163V63.7228C3.88163 61.8719 4.03503 58.9219 6.59442 58.9219C8.99234 58.9219 9.2507 61.6861 9.2507 63.4561V70.5199H12.7144V62.7772C12.7144 60.7404 12.561 59.7787 12.0119 58.631C11.2046 56.9095 9.29914 55.7375 7.34528 55.7375V55.7456Z" fill="#231F20"/>
<path fill-rule="evenodd" clip-rule="evenodd" d="M28.8782 63.1256C28.8782 59.1088 25.5437 55.7466 21.531 55.7466C17.5183 55.7466 14.0547 59.1654 14.0547 63.36C14.0547 67.5547 17.3892 70.8684 21.5552 70.8684C24.6071 70.8684 27.4976 68.7832 28.3534 65.9382H24.5506C23.7917 67.1344 22.8067 67.684 21.4503 67.684C19.7306 67.684 18.1965 66.5121 17.696 64.8391H28.6925C28.8217 64.0308 28.8782 63.6429 28.8782 63.1176V63.1256ZM17.5991 62.1234C18.0916 60.1675 19.6579 58.9148 21.5875 58.9148C23.5172 58.9148 25.027 60.1433 25.4953 62.1234H17.5991Z" fill="#231F20"/>
<path fill-rule="evenodd" clip-rule="evenodd" d="M85.8789 70.5207H89.3426V51.2527H85.8789V70.5207Z" fill="#231F20"/>
<path fill-rule="evenodd" clip-rule="evenodd" d="M114.693 55.7456C113.264 55.7456 112.166 56.2386 110.971 57.4671V56.0851H107.766V70.528H111.229V63.7228C111.229 61.8719 111.383 58.9219 113.942 58.9219C116.34 58.9219 116.598 61.6861 116.598 63.4561V70.5199H120.062V62.7772C120.062 60.7404 119.909 59.7787 119.36 58.631C118.552 56.9095 116.647 55.7375 114.693 55.7375V55.7456Z" fill="#231F20"/>
<path fill-rule="evenodd" clip-rule="evenodd" d="M128.703 58.931C130.293 58.931 131.206 59.4563 132.062 60.9111H135.969C134.904 57.8075 132.167 55.7466 128.832 55.7466C124.609 55.7466 121.227 59.1088 121.227 63.255C121.227 67.4011 124.642 70.8684 128.832 70.8684C130.972 70.8684 133.079 69.9309 134.508 68.3387C135.235 67.5304 135.501 67.0617 135.969 65.7847H132.062C131.254 67.0374 130.213 67.6921 128.913 67.6921C126.491 67.6921 124.69 65.817 124.69 63.3115C124.69 60.806 126.41 58.931 128.703 58.931Z" fill="#231F20"/>
<path fill-rule="evenodd" clip-rule="evenodd" d="M42.1197 64.9034L39.6653 56.0857H36.8798L34.4012 64.9034L31.4623 56.0857H28.4023L33.2224 70.5367H35.4427L38.2604 61.1694L40.9894 70.5367H43.3227L47.9409 56.0857H45.0747L42.1197 64.9034Z" fill="#231F20"/>
<path fill-rule="evenodd" clip-rule="evenodd" d="M60.6792 55.7626C58.9837 55.7626 57.4013 56.4334 56.3113 57.6053V51.2527H52.8477V70.5207H56.0287V68.6698C57.3609 70.1812 58.7657 70.6096 60.6146 70.6096C64.8049 70.6096 67.6388 67.0776 67.6388 63.1416C67.6388 58.9712 64.4416 55.7626 60.6873 55.7626H60.6792ZM60.1867 67.6353C57.7727 67.6353 55.8188 65.6794 55.8188 63.2628C55.8188 60.8463 57.7727 58.8904 60.1867 58.8904C62.6008 58.8904 64.5547 60.8463 64.5547 63.2628C64.5547 65.6794 62.6008 67.6353 60.1867 67.6353Z" fill="#231F20"/>
<path fill-rule="evenodd" clip-rule="evenodd" d="M80.0968 56.4407V57.6126C78.9988 56.4407 77.4163 55.7699 75.7289 55.7699C71.9746 55.7699 68.7773 58.9785 68.7773 63.149C68.7773 67.085 71.6032 70.6169 75.8015 70.6169C77.6504 70.6169 79.0553 70.1886 80.3875 68.6772V70.528H83.5685V56.4407H80.1049H80.0968ZM76.2133 67.6346C73.7992 67.6346 71.8454 65.6787 71.8454 63.2621C71.8454 60.8455 73.7992 58.8896 76.2133 58.8896C78.6274 58.8896 80.5812 60.8455 80.5812 63.2621C80.5812 65.6787 78.6274 67.6346 76.2133 67.6346Z" fill="#231F20"/>
</g>
<defs>
<clipPath id="clip0_518_746">
<rect width="151.053" height="70" fill="white" transform="translate(0.417969 0.875977)"/>
</clipPath>
</defs>
</svg>
