<svg width="190" height="55" viewBox="0 0 190 55" fill="none" xmlns="http://www.w3.org/2000/svg">
<g clip-path="url(#clip0_599_27)">
<path d="M155.496 0.00219727H160.771V4.61758C169.782 4.87399 179.269 4.65421 188.463 4.72747V9.56264C179.489 9.81905 170.039 9.59927 160.881 9.67253C160.68 14.9427 160.771 20.5425 160.771 26.0462C160.771 31.6093 160.304 37.0764 161.65 41.5407C162.964 45.8951 166.16 48.3447 170.332 49.3429C175.725 50.6295 183.244 49.5535 186.815 46.4857C188.006 47.6396 189.022 48.9674 190.002 50.3319C185.473 53.7842 178.848 55.5562 171.321 54.6176C164.558 53.7751 159.778 50.7806 157.255 45.2769C154.645 39.5901 155.386 31.6597 155.386 23.7385V0.331868C155.377 0.17619 155.368 0.0205123 155.496 0.00219727Z" fill="black"/>
<path d="M43.7363 53.8483H38.3517C38.3517 47.1999 38.3517 40.4234 38.3517 33.5186C38.3517 24.9151 39.0522 16.0598 34.5055 11.9801C29.7299 7.69443 19.8352 7.82721 13.8462 10.7714C9.21245 13.047 5.83791 17.1038 5.38462 23.7384C4.71154 33.6239 5.88828 43.7933 5.38462 53.8483H0V5.93619H5.38462V11.4307C8.99267 7.28234 14.1987 4.10468 21.6484 3.62849C33.924 2.84095 41.5797 7.77684 43.2967 18.134C44.1804 23.4682 43.7363 29.5809 43.7363 35.8263V53.8483Z" fill="black"/>
<path d="M99.9981 31.5407H56.7014C57.4294 41.0599 62.521 47.9509 71.6464 49.5626C82.5759 51.4903 90.2178 46.3758 93.5146 39.0132H99.0091C95.7536 47.4976 89.7508 52.9189 80.2178 54.5077C64.1006 57.1908 52.7728 46.9985 51.2069 32.7494C50.6162 27.3648 51.4266 22.0672 53.1849 17.8044C56.3351 10.1716 63.542 4.27418 73.6244 3.62857C82.5713 3.05623 89.2243 6.50861 93.4047 10.9912C97.8781 15.7897 100.314 22.2458 99.9981 31.5407ZM88.4596 13.4088C85.2407 10.4051 80.2453 8.18443 74.1739 8.57363C63.4184 9.26044 58.0704 16.243 56.7014 26.5956H94.3937C93.8717 20.9317 91.8616 16.5864 88.4596 13.4088Z" fill="black"/>
<path d="M102.198 4.83735C104.249 4.58094 106.776 4.80072 109.011 4.72746C113.965 10.4097 118.988 16.385 123.956 22.4198C124.331 22.8731 125.783 24.9335 126.044 24.9472C126.383 24.9656 127.852 22.9005 128.242 22.4198C133.031 16.5635 138.022 10.4463 142.857 4.72746H149.121C149.286 5.18533 148.562 5.65236 148.132 6.15603C141.918 13.4637 135.591 21.4353 129.341 28.7934C136.2 37.1725 143.649 45.5425 150.22 53.8483C148.287 53.395 145.673 54.4436 143.626 53.8483C143.036 53.6789 141.868 52.1084 141.209 51.3209C136.167 45.2998 130.678 38.6789 125.824 32.8593C119.666 39.6679 114.034 47.0031 107.912 53.8483H101.538C101.415 53.4225 102.088 52.8181 102.527 52.3099C109.038 44.7183 115.856 36.6322 122.417 29.0132C115.787 20.8447 108.983 12.8502 102.198 4.83735Z" fill="black"/>
</g>
<defs>
<clipPath id="clip0_599_27">
<rect width="190" height="54.9402" fill="white"/>
</clipPath>
</defs>
</svg>
