<svg width="110" height="71" viewBox="0 0 110 71" fill="none" xmlns="http://www.w3.org/2000/svg">
<g clip-path="url(#clip0_518_367)">
<path fill-rule="evenodd" clip-rule="evenodd" d="M16.518 1.29621C16.0334 1.62629 12.1348 6.20347 11.43 7.03969C10.1525 8.51406 9.13932 9.94443 7.99397 11.4628C3.80906 16.8982 -1.36703 27.549 3.25841 34.2167C9.24945 42.8649 22.5751 38.2877 31.1432 34.6568L57.3099 23.3899C63.1468 20.9253 68.8955 18.4826 74.7324 15.908C77.6618 14.6316 80.4812 13.4433 83.4106 12.167C89.0933 9.68036 95.2385 7.01768 100.899 4.64107C101.67 4.33299 109.203 1.01013 109.687 0.900107C109.445 0.768073 109.137 0.900107 108.806 1.01013C99.6877 3.56279 90.2166 5.9174 81.186 8.51407L66.9352 12.3871L38.4337 20.111C32.3106 21.7615 21.8483 25.5244 16.2757 21.1673C12.0688 17.8665 12.0027 12.4971 13.6546 7.61183C14.0291 6.48954 14.4255 5.38926 14.9321 4.33299L16.518 1.29621Z" fill="#ED1C24"/>
<path fill-rule="evenodd" clip-rule="evenodd" d="M74.4899 61.5917C74.4239 59.8533 74.3137 56.1343 75.1507 54.7479C75.7234 53.8237 77.0229 53.7357 77.5515 54.7479C77.97 55.5181 78.1462 56.9705 78.1903 57.9388C78.2784 59.8092 78.3445 63.2421 77.5295 64.7605C76.9568 65.7948 75.8115 65.7288 75.1727 64.7605C74.7542 64.1003 74.512 62.5159 74.4679 61.6357L74.4899 61.5917ZM75.3489 48.9825C73.5648 49.2245 72.4415 49.9947 71.3182 50.919C68.7191 53.0755 68.1905 57.5647 68.3447 60.9755C68.609 66.807 71.3182 71.4062 77.5736 70.7901C83.5866 70.1959 84.754 63.6382 84.5337 58.797C84.4677 57.4326 84.2914 55.9362 83.873 54.6819C83.4985 53.5596 83.08 52.5914 82.3752 51.6892C82.3311 51.6231 82.2651 51.5791 82.221 51.5131C81.7144 50.8969 81.6924 50.8749 81.0536 50.3468C79.5118 49.0925 77.3753 48.6964 75.3269 48.9825H75.3489Z" fill="#231F20"/>
<path fill-rule="evenodd" clip-rule="evenodd" d="M59.3163 55.0557C60.1093 55.0557 60.4176 55.0117 60.8802 55.4959C62.3559 56.9702 62.1357 62.0535 61.563 63.77C61.3868 64.3201 61.1445 64.7602 60.7921 64.9803C60.3736 65.2664 59.889 65.4424 59.2723 65.3324L59.3163 55.0557ZM53.2812 70.4157C55.3957 70.3717 57.5322 70.4157 59.6467 70.4157C61.607 70.4157 63.1929 69.8876 64.4924 68.9413L65.7479 67.797C67.532 65.3984 68.0606 63.1538 68.1267 59.941C68.2368 53.6034 65.4395 49.5103 59.5807 49.5103H53.3253V70.4377L53.2812 70.4157Z" fill="#231F20"/>
<path fill-rule="evenodd" clip-rule="evenodd" d="M10.152 62.714C10.152 65.1126 10.0859 66.785 11.6498 68.6115C11.7599 68.7435 11.7819 68.8095 11.9141 68.9196C14.0506 71.1201 18.3456 71.3182 21.0989 70.1959C22.2002 69.7338 22.9931 68.9856 23.6319 67.9953C24.2706 66.9831 24.579 65.7947 24.6671 64.4084C24.7552 62.956 24.6671 61.2616 24.6671 59.7652L24.623 49.4666H18.632C18.632 53.8897 18.7421 58.951 18.676 63.2861C18.676 64.2103 18.3897 65.2446 17.3765 65.2226C16.3413 65.2226 16.1431 64.2324 16.1431 63.2861L16.055 49.4886H10.0859L10.174 62.736L10.152 62.714Z" fill="#231F20"/>
<path fill-rule="evenodd" clip-rule="evenodd" d="M24.8658 69.1834C27.0244 70.7678 30.4824 71.428 33.3238 70.0636C36.033 68.7653 37.3325 65.9046 36.892 62.9998C36.5616 60.6892 35.1079 59.4129 33.5661 58.1366L32.1124 56.9483C30.2402 55.6059 31.0551 54.1755 32.3767 54.0875C33.3899 54.0215 34.6453 54.6157 35.3722 55.1438C35.7026 55.3858 35.7907 55.4739 36.1431 55.6499L36.077 50.3466C33.8084 49.0262 29.9318 48.4541 27.597 49.9284C24.2711 52.019 24.0068 56.5521 26.0773 58.9728C27.0023 60.051 27.6631 60.6672 28.7644 61.5914L30.1521 62.8458C30.8349 63.814 30.7688 65.0463 29.6014 65.3544C28.0155 65.7505 26.4517 64.8263 25.2403 63.9901L24.9319 63.792L24.8658 69.1834Z" fill="#231F20"/>
<path fill-rule="evenodd" clip-rule="evenodd" d="M36.3853 54.7479H39.8654L39.8874 70.3719H45.8344V54.7479H49.1823L49.1603 49.4666H36.3633L36.3853 54.7479Z" fill="#231F20"/>
<path fill-rule="evenodd" clip-rule="evenodd" d="M94.668 54.7479H98.1481L98.1701 70.3719H104.117V54.7479H107.465V49.4666H94.668V54.7479Z" fill="#231F20"/>
<path fill-rule="evenodd" clip-rule="evenodd" d="M3.87627 59.3689C3.87627 60.7553 4.03045 63.308 3.83221 64.5623C3.70006 65.3985 2.99523 65.7286 2.2023 65.5525C1.07898 65.2885 0.792641 64.8924 0.418201 64.7823V69.0734C0.418201 69.8436 0.308071 69.7996 0.90277 70.0857C3.3917 71.23 6.93786 71.054 8.63386 68.6553C10.462 66.0367 9.86731 61.5255 9.86731 58.0926L9.80123 49.4884H3.81019L3.87627 59.3689Z" fill="#231F20"/>
<path fill-rule="evenodd" clip-rule="evenodd" d="M88.2575 70.3718H94.2706L94.2926 49.4884H88.1914L88.2575 70.3718Z" fill="#231F20"/>
<path d="M107.201 66.785C107.531 66.785 107.862 66.873 108.17 67.049C108.479 67.2251 108.743 67.4672 108.919 67.7752C109.095 68.0833 109.183 68.4354 109.183 68.7655C109.183 69.0956 109.095 69.4477 108.919 69.7557C108.743 70.0638 108.501 70.3279 108.192 70.4819C107.884 70.658 107.553 70.746 107.201 70.746C106.849 70.746 106.518 70.658 106.21 70.4819C105.902 70.3059 105.637 70.0638 105.483 69.7557C105.307 69.4477 105.219 69.1176 105.219 68.7655C105.219 68.4134 105.307 68.0833 105.483 67.7752C105.659 67.4451 105.902 67.2031 106.232 67.049C106.562 66.873 106.871 66.785 107.223 66.785H107.201ZM107.201 67.1151C106.915 67.1151 106.65 67.1811 106.386 67.3351C106.122 67.4892 105.924 67.6872 105.769 67.9513C105.615 68.2153 105.549 68.5014 105.549 68.7875C105.549 69.0736 105.615 69.3376 105.769 69.6017C105.924 69.8658 106.122 70.0638 106.386 70.2179C106.65 70.3719 106.915 70.4379 107.223 70.4379C107.531 70.4379 107.774 70.3719 108.038 70.2179C108.302 70.0638 108.501 69.8658 108.655 69.6017C108.809 69.3376 108.875 69.0736 108.875 68.7875C108.875 68.5014 108.787 68.2153 108.655 67.9513C108.501 67.6872 108.302 67.4892 108.038 67.3351C107.774 67.2031 107.509 67.1151 107.223 67.1151H107.201ZM106.32 69.8658V67.7312H107.047C107.289 67.7312 107.487 67.7312 107.598 67.7972C107.708 67.8412 107.796 67.9073 107.862 67.9953C107.928 68.0833 107.972 68.1933 107.972 68.3034C107.972 68.4574 107.906 68.5894 107.796 68.6995C107.686 68.8095 107.531 68.8755 107.355 68.8975C107.421 68.9195 107.487 68.9635 107.531 69.0075C107.62 69.0956 107.73 69.2276 107.84 69.4257L108.104 69.8438H107.686L107.487 69.5137C107.333 69.2496 107.223 69.0736 107.113 69.0296C107.047 68.9855 106.959 68.9635 106.849 68.9635H106.65V69.8658H106.298H106.32ZM106.672 68.6775H107.091C107.289 68.6775 107.421 68.6335 107.509 68.5894C107.576 68.5234 107.62 68.4574 107.62 68.3474C107.62 68.2814 107.62 68.2373 107.576 68.1713C107.531 68.1273 107.487 68.0833 107.421 68.0613C107.355 68.0393 107.245 68.0173 107.069 68.0173H106.672V68.6555V68.6775Z" fill="#231F20"/>
</g>
<defs>
<clipPath id="clip0_518_367">
<rect width="109.292" height="70" fill="white" transform="translate(0.417969 0.855957)"/>
</clipPath>
</defs>
</svg>
