<svg width="191" height="20" viewBox="0 0 191 20" fill="none" xmlns="http://www.w3.org/2000/svg">
<g clip-path="url(#clip0_518_622)">
<path d="M190.418 19.1857H179.461V1.34863H189.596C189.619 1.68453 189.63 2.02042 189.654 2.35631C187.105 2.57638 184.557 2.79645 182.009 3.01652C178.87 10.6842 185.507 8.56456 188.623 10.4293C186.457 10.6842 184.291 10.9274 181.604 11.2401C181.453 13.0123 181.314 14.8423 181.106 17.3557C184.418 17.5526 187.383 17.7263 190.337 17.9001C190.372 18.3286 190.395 18.7572 190.43 19.1857H190.418Z" fill="black"/>
<path d="M132.553 1.05977C134.441 5.92444 136.34 10.7891 138.495 16.3256C140.672 10.7544 142.572 5.88969 144.471 1.02502C145.073 1.25668 145.687 1.49991 146.29 1.73156C144.008 7.69657 141.726 13.65 139.444 19.615L137.8 19.7887C135.437 13.8237 133.085 7.85872 130.723 1.88213C131.337 1.60415 131.939 1.33775 132.553 1.05977Z" fill="black"/>
<path d="M52.2734 19.8702V1.91725C52.6904 1.8825 53.1074 1.85933 53.5128 1.82458C53.7328 6.90932 53.9645 11.9941 54.1961 17.3452C57.196 17.5653 59.999 17.7622 62.8135 17.9706L62.883 19.3142C59.5473 19.488 56.2115 19.6617 52.2734 19.8702Z" fill="black"/>
<path d="M97.6432 1.74361V19.0363C97.2725 19.0363 96.9019 19.0363 96.5312 19.0479V1.70886C96.9019 1.72044 97.2725 1.74361 97.6432 1.75519V1.74361Z" fill="black"/>
<path d="M9.18671 0.52625C4.09039 0.607328 0.569297 4.39482 0.418724 9.96602C0.268151 15.8499 3.77766 19.8807 9.14038 19.9618C14.5842 20.0428 18.1053 16.2438 18.14 10.2672C18.1863 4.39482 14.5494 0.445172 9.18671 0.52625ZM8.90873 18.0506C4.20622 17.5757 2.54991 14.1357 2.6889 10.0355C2.82789 5.97004 4.56527 2.32154 9.53418 2.51845C14.4568 2.70377 15.9972 6.43334 15.9393 10.4988C15.893 14.6569 14.005 17.9464 8.89715 18.0622L8.90873 18.0506Z" fill="black"/>
</g>
<defs>
<clipPath id="clip0_518_622">
<rect width="190" height="19.4239" fill="white" transform="translate(0.417969 0.526855)"/>
</clipPath>
</defs>
</svg>
