<svg width="190" height="45" viewBox="0 0 190 45" fill="none" xmlns="http://www.w3.org/2000/svg">
<g clip-path="url(#clip0_599_32)">
<path d="M40.8976 22.1692C40.7017 31.4244 36.9906 33.4833 36.9906 33.4833C36.9906 33.4833 35.2531 35.5824 25.7518 35.5874H25.7368C16.2405 35.5874 14.508 33.4833 14.508 33.4833C14.508 33.4833 10.7919 31.4244 10.596 22.1742C10.7919 12.919 14.508 10.855 14.508 10.855C14.508 10.855 16.2455 8.76095 25.7568 8.76095C35.2581 8.76597 36.9956 10.8651 36.9956 10.8651C36.9956 10.8651 40.7068 12.924 40.9026 22.1742M51.5036 22.1742C51.1772 6.66183 44.9552 3.21185 44.9552 3.21185C44.9502 3.20683 41.681 0.00794047 25.7619 0.00794047H25.7669C9.82265 0.00291866 6.55346 3.20683 6.55346 3.20683C6.54843 3.20683 0.326417 6.65681 0 22.1692C0.326417 37.6815 6.54843 41.1315 6.54843 41.1315C6.54843 41.1315 9.81763 44.3404 25.7619 44.3404H25.7568C41.676 44.3304 44.9452 41.1315 44.9452 41.1315C44.9452 41.1315 51.1722 37.6865 51.4936 22.1742" fill="#231F20"/>
<path d="M58.668 43.4415H68.9074V15.5554L94.0064 43.4415H104.07V0.63562H94.0064V27.9392L69.1435 0.63562H58.668V43.4415Z" fill="#231F20"/>
<path d="M123.839 33.6891V0.675781H113.645V33.2824V43.4716H123.839H149.073V33.6891H123.839Z" fill="#231F20"/>
<path d="M164.976 19.3067L151.126 0.705933H150.99H139.516L159.844 29.1494V43.5369H169.933V29.1494L189.874 0.705933H178.43L164.976 19.3067Z" fill="#231F20"/>
<path d="M188.404 34.9346C188.218 34.7588 188.137 34.6835 186.756 34.6835H185.421V36.8479H186.847C187.198 36.8479 188.012 36.8629 188.248 36.7575C188.424 36.6721 188.645 36.4461 188.645 35.7632C188.645 35.3062 188.544 35.045 188.414 34.9346M188.655 41.262V39.2382C188.655 38.0531 188.655 38.0882 186.751 38.0882H185.426V41.257H184.055V33.4531H186.787C188.554 33.4531 190.006 33.5285 190.006 35.6928C190.006 36.6369 189.815 37.1944 189.242 37.4304C190.111 37.6815 190.006 38.7059 190.006 39.3487V41.257H188.655V41.262Z" fill="#231F20"/>
</g>
<defs>
<clipPath id="clip0_599_32">
<rect width="190" height="44.3433" fill="white"/>
</clipPath>
</defs>
</svg>
