<svg width="191" height="84" viewBox="0 0 191 84" fill="none" xmlns="http://www.w3.org/2000/svg">
<path d="M0.417969 15.1153C0.417969 7.61922 1.65173 0.964355 9.87684 0.964355C18.1019 0.964355 19.3357 7.61922 19.3357 15.1153C19.3357 22.6113 18.1019 29.2662 9.87684 29.2662C1.65173 29.2662 0.417969 22.6113 0.417969 15.1153ZM12.9239 15.1153C12.9239 9.43248 12.7182 6.36676 9.87684 6.36676C7.03544 6.36676 6.82981 9.43248 6.82981 15.1153C6.82981 20.7981 7.03544 23.8638 9.87684 23.8638C12.7182 23.8638 12.9239 20.7981 12.9239 15.1153Z" fill="#667085"/>
<path d="M20.0835 6.01158H35.7485V10.7223H30.9817V28.5185H24.8503V10.7223H20.0835V6.01158Z" fill="#667085"/>
<path d="M47.0394 14.5732V6.01158H53.1708V28.5185H47.0394V19.2839H43.1885V28.5185H37.0571V6.01158H43.1885V14.5732H47.0394Z" fill="#667085"/>
<path d="M61.5455 14.5732H68.5181V19.2839H61.5455V23.8077H69.3406V28.5185H55.414V6.01158H69.1911V10.7223H61.5455V14.5732Z" fill="#667085"/>
<path d="M77.3601 28.5185H71.2287V6.01158H78.1265C84.931 6.01158 87.1742 9.46986 87.1742 13.6385C87.1742 17.022 85.9591 18.9287 84.1645 20.0317L87.1929 28.5185H80.8745L78.1265 20.7794H77.3601V28.5185ZM78.1265 10.7223H77.3601V16.536H78.1265C80.5193 16.536 80.9306 15.2648 80.9306 13.6385C80.9306 11.9935 80.5193 10.7223 78.1265 10.7223Z" fill="#667085"/>
<path d="M15.1674 82.7545H1.82031V42.5449H14.7468C26.8882 42.5449 29.0193 48.5736 29.0193 53.6208C29.0193 56.565 27.6172 60.3224 23.6075 61.444C29.2155 63.2386 30.3932 67.5287 30.3932 70.7253C30.3932 76.1651 27.5892 82.7545 15.1674 82.7545ZM13.6813 73.4732H15.1674C17.8873 73.4732 18.8968 72.3236 18.8968 70.0804C18.8968 67.8372 17.8873 66.6875 15.1674 66.6875H13.6813V73.4732ZM13.6813 58.2474H14.7468C16.962 58.2474 17.635 56.9295 17.635 55.0508C17.635 53.1722 16.962 51.8543 14.7468 51.8543H13.6813V58.2474Z" fill="url(#paint0_linear_518_979)"/>
<path d="M44.8059 82.7545H32.9449V42.5449H45.9275C55.2368 42.5449 61.5739 46.4425 61.5739 56.8735C61.5739 63.4349 58.5175 66.4912 55.9939 67.9774L61.0972 82.7545H48.8997L45.0863 70.3327H44.8059V82.7545ZM45.9275 52.4431H44.8059V61.3038H45.9275C48.5071 61.3038 49.6007 60.014 49.6007 56.8735C49.6007 53.733 48.5071 52.4431 45.9275 52.4431Z" fill="url(#paint1_linear_518_979)"/>
<path d="M74.8649 82.7545H63.0039L72.5656 42.5449H87.2586L96.8203 82.7545H84.9593L83.6695 76.2492H76.1267L74.8649 82.7545ZM81.903 67.2203L79.9121 57.1539L77.9213 67.2203H81.903Z" fill="url(#paint2_linear_518_979)"/>
<path d="M98.7831 82.7545V42.5449H112.663L116.841 61.5281V42.5449H128.702V82.7545H114.822L110.644 63.7713V82.7545H98.7831Z" fill="url(#paint3_linear_518_979)"/>
<path d="M161.677 62.6497C161.677 73.9779 156.966 82.7545 145.386 82.7545H132.656V42.5449H145.386C156.966 42.5449 161.677 51.3496 161.677 62.6497ZM144.517 52.4151V72.8844H145.386C148.947 72.8844 149.76 68.6223 149.76 62.6497C149.76 56.6772 148.947 52.4151 145.386 52.4151H144.517Z" fill="url(#paint4_linear_518_979)"/>
<path d="M189.857 46.2743L181.782 52.5553C181.473 52.331 181.165 52.1347 180.801 51.9384C180.156 51.63 179.314 51.2935 178.221 51.2935C177.015 51.2935 176.146 51.9945 176.146 53.8732C176.146 55.7238 177.772 56.565 179.511 57.4062C187.025 60.9954 190.418 64.3602 190.418 70.9216C190.418 79.4177 185.119 83.8761 176.258 83.8761C171.435 83.8761 168.126 82.4741 165.939 81.0441C164.677 80.2029 163.64 79.2495 162.827 78.184L170.902 71.903C171.323 72.2955 171.772 72.6601 172.276 72.9685C173.146 73.5013 174.323 74.006 175.697 74.006C177.52 74.006 178.445 72.9685 178.445 70.9216C178.445 69.0148 177.492 68.3419 175.361 67.2764C168.154 63.8274 164.173 60.4065 164.173 54.1536C164.173 47.1435 168.351 41.4233 177.66 41.4233C181.81 41.4233 184.866 42.6571 186.885 43.8628C188.063 44.5638 189.044 45.377 189.857 46.2743Z" fill="url(#paint5_linear_518_979)"/>
<defs>
<linearGradient id="paint0_linear_518_979" x1="191.278" y1="44.4704" x2="-4.92802" y2="87.54" gradientUnits="userSpaceOnUse">
<stop stop-color="#741067"/>
<stop offset="1" stop-color="#F257A0"/>
</linearGradient>
<linearGradient id="paint1_linear_518_979" x1="191.278" y1="44.4704" x2="-4.92802" y2="87.54" gradientUnits="userSpaceOnUse">
<stop stop-color="#741067"/>
<stop offset="1" stop-color="#F257A0"/>
</linearGradient>
<linearGradient id="paint2_linear_518_979" x1="191.278" y1="44.4704" x2="-4.92802" y2="87.54" gradientUnits="userSpaceOnUse">
<stop stop-color="#741067"/>
<stop offset="1" stop-color="#F257A0"/>
</linearGradient>
<linearGradient id="paint3_linear_518_979" x1="191.278" y1="44.4704" x2="-4.92802" y2="87.54" gradientUnits="userSpaceOnUse">
<stop stop-color="#741067"/>
<stop offset="1" stop-color="#F257A0"/>
</linearGradient>
<linearGradient id="paint4_linear_518_979" x1="191.278" y1="44.4704" x2="-4.92802" y2="87.54" gradientUnits="userSpaceOnUse">
<stop stop-color="#741067"/>
<stop offset="1" stop-color="#F257A0"/>
</linearGradient>
<linearGradient id="paint5_linear_518_979" x1="191.278" y1="44.4704" x2="-4.92802" y2="87.54" gradientUnits="userSpaceOnUse">
<stop stop-color="#741067"/>
<stop offset="1" stop-color="#F257A0"/>
</linearGradient>
</defs>
</svg>
