<svg width="167" height="71" viewBox="0 0 167 71" fill="none" xmlns="http://www.w3.org/2000/svg">
<path d="M29.3267 70.6873L30.5208 70.7152H31.4095C40.102 70.4646 47.4892 66.9284 52.7658 60.4686C57.8757 54.2037 60.7084 45.4049 60.7084 35.743C60.7084 26.0533 57.8757 17.2824 52.7658 11.0175C47.4614 4.55767 40.102 1.02147 31.4095 0.770874H30.5208H30.4931H30.4098H30.2709H30.2154H29.3267V0.79872C20.6064 1.07716 13.247 4.61336 7.94264 11.0732C2.83269 17.3381 0 26.109 0 35.7709C0 45.4328 2.83269 54.2037 7.94264 60.4686C13.2192 66.8727 20.6064 70.4089 29.3267 70.6873ZM5.77647 35.6874C5.77647 18.257 15.8853 6.00556 30.3542 5.92203C44.8231 6.00556 54.932 18.257 54.932 35.6874C54.932 53.1456 44.8231 65.3691 30.3542 65.4527C15.8853 65.397 5.77647 53.1456 5.77647 35.6874Z" fill="black"/>
<path d="M139.249 37.1066L140.276 37.3015C150.857 39.4455 160.855 41.4781 160.855 51.4741C160.855 62.5282 149.496 65.4518 142.803 65.4518C134.583 65.4518 127.946 63.2243 124.141 59.1591C121.225 56.0405 119.864 51.8639 120.17 46.7685L120.225 45.8496H114.393V46.7128C114.31 53.5903 116.309 59.1312 120.308 63.1965C125.168 68.097 132.944 70.7144 142.803 70.7144C148.58 70.7144 154.301 69.1551 158.494 66.4821C163.826 63.0572 166.631 57.8782 166.631 51.5019C166.631 37.2736 153.329 34.5449 143.609 32.568L141.998 32.2339C131.75 30.1455 122.086 28.1965 122.086 18.9244C122.086 9.34602 131.278 5.94904 139.138 5.94904C151.468 5.94904 158.8 11.7128 159.216 21.7923L159.244 22.6276H165.021L164.965 21.7088C164.382 8.37147 154.939 0.714355 139.11 0.714355C127.751 0.714355 116.282 6.33886 116.282 18.9244C116.309 32.3731 129.029 34.9904 139.249 37.1066Z" fill="black"/>
<path d="M90.0901 69.1554L114.807 2.24609H108.725L86.6742 62.5007L64.7903 2.24609H58.625L83.2028 69.1554H90.0901Z" fill="black"/>
</svg>
