<svg width="139" height="70" viewBox="0 0 139 70" fill="none" xmlns="http://www.w3.org/2000/svg">
<g clip-path="url(#clip0_518_898)">
<path d="M115.119 52.2647C116.047 52.2647 116.976 52.2789 117.903 52.2572C118.222 52.2497 118.289 52.3525 118.287 52.6525C118.273 54.3344 118.275 56.0164 118.284 57.6983C118.287 58.2219 118.409 58.7162 118.947 58.9464C119.648 59.2464 120.36 58.8624 120.4 58.0512C120.471 56.6003 120.594 55.1334 120.168 53.7043C119.958 52.9958 119.531 52.4817 118.868 52.1242C117.163 51.2044 115.402 50.3847 113.829 49.231C112.694 48.398 112.139 47.2906 112.135 45.8944C112.132 44.6209 112.119 43.3474 112.133 42.0749C112.16 39.4986 113.271 37.8968 115.743 37.1648C118.466 36.3592 121.224 36.3517 123.908 37.3752C125.686 38.0534 126.581 39.4581 126.659 41.3211C126.733 43.0786 126.677 44.8417 126.693 46.6019C126.695 46.8727 126.611 46.9444 126.347 46.9434C124.507 46.933 122.667 46.9311 120.827 46.9444C120.521 46.9462 120.468 46.834 120.469 46.5604C120.481 45.0832 120.478 43.605 120.472 42.1277C120.47 41.7711 120.494 41.406 120.268 41.0863C120.033 40.7542 119.732 40.5467 119.315 40.6052C118.894 40.6655 118.607 40.9155 118.462 41.3193C118.431 41.407 118.393 41.5004 118.393 41.5909C118.386 42.689 118.293 43.7889 118.44 44.8832C118.568 45.8274 119.124 46.467 119.937 46.917C121.414 47.733 122.916 48.5046 124.38 49.3442C125.93 50.2319 126.76 51.5365 126.825 53.3015C126.883 54.8872 126.909 56.4748 126.803 58.0606C126.656 60.2736 125.427 61.6471 123.398 62.3735C121.791 62.9489 120.123 63.0574 118.435 62.9678C117.29 62.9074 116.159 62.7612 115.079 62.348C112.982 61.5462 111.986 60.0576 111.964 57.6474C111.948 55.9815 111.967 54.3146 111.953 52.6487C111.95 52.3487 112.017 52.2478 112.335 52.2553C113.263 52.278 114.191 52.2629 115.119 52.2629L115.119 52.2647Z" fill="#242122"/>
<path d="M88.274 37.6742C89.4499 36.8771 90.724 36.661 92.0301 36.629C93.4693 36.5941 94.7934 36.9374 95.8569 37.994C96.5289 38.6619 96.8422 39.4741 96.846 40.4042C96.8564 42.6352 96.8441 44.8671 96.8554 47.0981C96.8564 47.3745 96.8082 47.4754 96.5015 47.4726C94.631 47.4565 92.7596 47.4537 90.8891 47.4745C90.5418 47.4782 90.5239 47.3367 90.5258 47.066C90.5343 45.3378 90.5352 43.6087 90.5277 41.8805C90.5239 41.0079 90.1341 40.6315 89.2961 40.6561C88.6921 40.673 88.3514 40.9862 88.2835 41.6069C88.2627 41.7937 88.274 41.9833 88.274 42.172C88.274 48.8187 88.2693 55.4654 88.2844 62.1131C88.2853 62.5451 88.174 62.6499 87.7493 62.6433C85.9571 62.6178 84.165 62.6253 82.3728 62.6395C82.0689 62.6414 81.9444 62.6036 81.9453 62.248C81.9566 53.8882 81.9566 45.5284 81.9453 37.1686C81.9453 36.8365 82.0605 36.7959 82.3445 36.7969C84.1367 36.8082 85.9288 36.8186 87.721 36.7912C88.1627 36.7846 88.3665 36.8723 88.2759 37.3402C88.2599 37.4242 88.274 37.5138 88.274 37.6751V37.6742Z" fill="#242122"/>
<path d="M100.639 49.1131C100.639 46.4104 100.631 43.7068 100.647 41.0042C100.649 40.6542 100.57 40.5486 100.211 40.5655C99.5214 40.5976 98.8277 40.5618 98.1369 40.5806C97.8642 40.5882 97.7981 40.4986 97.8009 40.2373C97.8151 39.1845 97.816 38.1318 97.8009 37.079C97.7962 36.8007 97.8915 36.7403 98.1492 36.7469C98.8249 36.7639 99.5016 36.7337 100.177 36.7601C100.533 36.7743 100.657 36.6932 100.65 36.3055C100.625 34.8442 100.651 33.3821 100.631 31.9208C100.626 31.5869 100.714 31.5086 101.044 31.5114C102.883 31.5284 104.722 31.5294 106.562 31.5114C106.909 31.5077 106.966 31.6218 106.962 31.935C106.946 33.4123 106.965 34.8895 106.947 36.3668C106.943 36.6847 107.04 36.7649 107.342 36.7592C108.238 36.7422 109.134 36.763 110.031 36.7469C110.295 36.7422 110.379 36.8139 110.375 37.0847C110.36 38.1374 110.36 39.1902 110.375 40.2429C110.379 40.5118 110.301 40.5844 110.036 40.5806C109.124 40.5646 108.211 40.5835 107.3 40.5693C107.04 40.5655 106.949 40.6297 106.95 40.9061C106.958 46.1076 106.95 51.3092 106.963 56.5107C106.966 57.5993 107.654 58.2285 108.852 58.2927C109.338 58.3191 109.827 58.3144 110.314 58.3011C110.549 58.2945 110.638 58.3464 110.635 58.6068C110.621 59.8482 110.621 61.0896 110.635 62.3311C110.638 62.5924 110.545 62.6376 110.313 62.6348C108.411 62.6122 106.508 62.6914 104.609 62.5329C104.017 62.4839 103.433 62.3697 102.856 62.2216C101.795 61.95 101.245 61.2387 101.009 60.2048C100.71 58.8936 100.655 57.5635 100.645 56.2296C100.629 53.8571 100.641 51.4837 100.641 49.1103L100.639 49.1131Z" fill="#242122"/>
<path d="M131.585 25.1446C131.585 16.9405 131.588 8.73631 131.574 0.532149C131.574 0.103876 131.678 -0.00743681 132.106 0.00105318C133.537 0.0302965 134.969 0.0293532 136.399 0.00105318C136.8 -0.00649348 136.877 0.105763 136.877 0.4897C136.867 15.7981 136.868 31.1065 136.868 46.4149C136.868 47.6092 136.856 48.8044 136.875 49.9986C136.88 50.308 136.795 50.3882 136.487 50.3844C135.009 50.3684 133.531 50.3609 132.054 50.3882C131.653 50.3958 131.574 50.2835 131.575 49.8996C131.587 41.6482 131.585 33.3969 131.585 25.1456V25.1446Z" fill="#48484A"/>
<path d="M47.969 41.0418C47.969 40.0032 47.5924 39.1221 46.862 38.3835C45.6804 37.1892 44.2016 36.7242 42.5727 36.6421C41.2137 36.5732 39.9038 36.7591 38.7883 37.6128C38.4419 37.8779 38.2985 37.7968 38.1739 37.4421C38.1484 37.3685 38.0928 37.3053 38.0701 37.2317C37.9616 36.8855 37.7474 36.7827 37.3746 36.7902C36.0703 36.8195 34.7642 36.81 33.459 36.7949C33.1636 36.7912 33.0655 36.8525 33.0664 37.1732C33.0759 47.9876 33.0759 58.8019 33.0664 69.6163C33.0664 69.9361 33.1627 69.9974 33.459 69.9946C35.2521 69.9814 37.0443 69.9729 38.8374 69.9993C39.2734 70.0059 39.413 69.9286 39.4074 69.4531C39.3781 67.0344 39.3942 64.6138 39.3942 62.1545C39.5036 62.1772 39.5527 62.1762 39.5905 62.197C41.209 63.0649 42.9389 63.1998 44.7074 62.9073C46.6326 62.5894 47.9652 61.0905 47.9671 59.2896C47.9737 53.207 47.9699 47.1235 47.969 41.0409V41.0418ZM41.6459 44.8642C41.6459 46.5131 41.6459 48.1621 41.6459 49.811C41.6459 52.4024 41.6459 54.9937 41.6459 57.585C41.6459 57.8199 41.6403 58.0501 41.5733 58.2831C41.4204 58.8142 41.1259 59.0491 40.5559 59.0548C39.9651 59.0604 39.6329 58.8199 39.4716 58.2944C39.4102 58.0944 39.3961 57.8963 39.3961 57.6926C39.3961 52.4627 39.3961 47.2329 39.3979 42.0031C39.3979 41.0003 39.7726 40.5937 40.6324 40.6418C41.2967 40.6796 41.6318 41.0616 41.6422 41.8484C41.6563 42.853 41.6459 43.8586 41.6459 44.8633V44.8642Z" fill="#242021"/>
<path d="M64.1994 41.0428C64.1994 40.0041 63.8238 39.1221 63.0934 38.3844C61.9118 37.1902 60.433 36.7251 58.805 36.6421C57.446 36.5732 56.1361 36.7591 55.0197 37.6128C54.6743 37.8769 54.5299 37.7996 54.4053 37.443C54.3798 37.3694 54.3242 37.3062 54.3015 37.2326C54.193 36.8864 53.9788 36.7827 53.606 36.7912C52.3017 36.8204 50.9956 36.811 49.6904 36.7959C49.396 36.7921 49.2969 36.8515 49.2969 37.1732C49.3063 47.9876 49.3063 58.8019 49.2969 69.6163C49.2969 69.9342 49.3913 69.9984 49.6885 69.9955C51.4495 69.9823 53.2115 69.9889 54.9725 69.9889C55.4066 69.9889 55.6237 69.7795 55.6237 69.3607C55.6237 66.9721 55.6237 64.5846 55.6237 62.1564C55.7322 62.1791 55.7813 62.1781 55.819 62.1979C57.4376 63.0658 59.1674 63.2007 60.936 62.9083C62.8612 62.5904 64.1947 61.0914 64.1966 59.2915C64.2032 53.2089 64.1994 47.1254 64.1994 41.0428ZM57.8764 49.8101C57.8764 52.4014 57.8764 54.9928 57.8764 57.5841C57.8764 57.819 57.8707 58.0492 57.8037 58.2822C57.6508 58.8142 57.3564 59.0491 56.7873 59.0548C56.1965 59.0604 55.8634 58.8199 55.702 58.2954C55.6407 58.0963 55.6265 57.8973 55.6265 57.6935C55.6265 52.4637 55.6265 47.2338 55.6284 42.004C55.6284 41.0013 56.0031 40.5937 56.8619 40.6418C57.5272 40.6796 57.8622 41.0607 57.8726 41.8474C57.8868 42.8521 57.8764 43.8577 57.8764 44.8623C57.8764 46.5113 57.8764 48.1602 57.8764 49.8091V49.8101Z" fill="#242021"/>
<path d="M15.3234 41.3151C15.3243 40.2038 14.9374 39.2728 14.1418 38.4992C12.898 37.2899 11.3531 36.8673 9.68169 36.8182C8.39066 36.7805 7.14493 37.0022 6.09361 37.821C5.77745 38.0672 5.65949 37.9908 5.5368 37.6766C5.48584 37.5465 5.39241 37.4323 5.34522 37.3002C5.26217 37.0654 5.12911 36.9786 4.86392 36.9823C3.51154 36.9993 2.15916 36.9993 0.807732 36.9823C0.50668 36.9805 0.417969 37.0512 0.417969 37.3653C0.426462 48.1146 0.426462 58.8639 0.417969 69.6132C0.417969 69.9254 0.502905 69.9981 0.805845 69.9962C2.62915 69.9801 4.45339 69.9707 6.27669 69.9962C6.69477 70.0018 6.75139 69.865 6.74856 69.4953C6.73157 67.1077 6.74007 64.7192 6.74007 62.2825C8.41426 63.1636 10.1253 63.3645 11.908 63.1061C13.9917 62.8042 15.3205 61.2798 15.3205 59.1846C15.3205 53.2284 15.3177 47.2722 15.3234 41.316V41.3151ZM8.98616 57.6979C8.98616 57.8857 8.98144 58.0762 8.94935 58.2602C8.83233 58.9431 8.44445 59.2714 7.81121 59.2375C7.17041 59.2035 6.76271 58.7903 6.74667 58.1064C6.7278 57.3055 6.74101 56.5037 6.74101 55.7018C6.74101 53.8001 6.74101 51.8993 6.74101 49.9975C6.74101 47.4043 6.74101 44.812 6.74101 42.2188C6.74101 41.9839 6.74478 41.7537 6.82028 41.5226C6.99299 41 7.31197 40.7887 7.93767 40.8179C8.51052 40.8444 8.7993 41.0896 8.92293 41.6273C8.97672 41.8603 8.98805 42.0924 8.98805 42.3282C8.98805 47.4505 8.98805 52.5737 8.98616 57.696V57.6979Z" fill="#242021"/>
<path d="M31.5579 52.7938C31.5654 52.4637 31.3484 52.5495 31.1813 52.5495C29.4524 52.5457 27.7225 52.5476 25.9936 52.5476C25.4878 52.5476 25.2349 52.8011 25.2349 53.308C25.2349 54.7852 25.2452 56.2625 25.2301 57.7397C25.2198 58.7302 24.5686 59.2377 23.7022 58.967C23.2455 58.8246 22.9831 58.3661 22.9812 57.6671C22.9765 55.8446 22.9916 54.0211 22.9699 52.1986C22.9652 51.8043 23.0341 51.675 23.4691 51.6788C26.0314 51.7043 28.5946 51.6883 31.1568 51.6958C31.4295 51.6958 31.5664 51.6779 31.5645 51.3326C31.5485 48.2055 31.5721 45.0783 31.5494 41.9512C31.5315 39.4966 30.4443 37.9156 28.1803 37.2109C25.5925 36.4063 22.9567 36.3949 20.3454 37.1307C19.0439 37.4968 17.9568 38.2146 17.282 39.4438C16.7922 40.3362 16.6676 41.3125 16.6629 42.3049C16.6506 44.8038 16.6591 47.3018 16.6591 49.8006C16.6591 52.3146 16.6591 54.8296 16.6591 57.3435C16.6591 57.3596 16.6591 57.3747 16.6591 57.3907C16.6837 59.8868 17.6906 61.5725 19.831 62.3177C22.6698 63.3063 25.5718 63.2828 28.4124 62.3215C30.2782 61.6904 31.3569 60.3207 31.4994 58.3057C31.6287 56.47 31.5192 54.6305 31.5598 52.7929L31.5579 52.7938ZM22.9869 41.8823C22.9963 40.9456 23.5984 40.4683 24.4478 40.6616C24.947 40.7758 25.2188 41.1852 25.2273 41.8946C25.2386 42.8209 25.2301 43.7473 25.2301 44.6736C25.2301 45.5849 25.2198 46.4952 25.2367 47.4055C25.2424 47.7008 25.1801 47.8329 24.8526 47.8178C24.3355 47.7932 23.8155 47.8008 23.2974 47.8149C23.0482 47.8215 22.9746 47.731 22.9755 47.4876C22.984 45.6189 22.9671 43.7501 22.9869 41.8814V41.8823Z" fill="#242021"/>
<path d="M80.4362 52.7825C80.4428 52.4448 80.2087 52.5514 80.0493 52.5505C78.2411 52.5448 76.4328 52.5656 74.6256 52.5344C74.1688 52.5269 74.099 52.6797 74.1047 53.0834C74.1264 54.639 74.1245 56.1946 74.1075 57.7501C74.0971 58.7227 73.479 59.2123 72.6164 58.9698C72.1304 58.8331 71.8623 58.4038 71.8595 57.7039C71.8529 55.8493 71.868 53.9947 71.8472 52.1411C71.8435 51.7684 71.9435 51.6807 72.3097 51.6826C74.888 51.6996 77.4662 51.6873 80.0445 51.6977C80.3343 51.6986 80.4428 51.6486 80.4409 51.3232C80.4267 48.2121 80.4447 45.1 80.4286 41.9889C80.4154 39.5202 79.3716 37.9496 77.0897 37.2317C74.3472 36.3685 71.5632 36.36 68.8178 37.277C67.5702 37.6939 66.5963 38.4854 66.0272 39.7042C65.6412 40.5305 65.544 41.4191 65.5402 42.3153C65.5308 44.7982 65.5374 47.281 65.5374 49.7639C65.5374 52.2467 65.5374 54.7928 65.5374 57.3068C65.5374 57.3228 65.5374 57.3379 65.5374 57.3539C65.5544 59.8783 66.5632 61.5744 68.7178 62.3224C71.5415 63.3026 74.4274 63.279 77.2558 62.3338C79.164 61.6961 80.2531 60.3018 80.3833 58.2482C80.4994 56.4276 80.4013 54.6041 80.4362 52.7825ZM71.8642 41.8908C71.884 40.9522 72.4701 40.4692 73.3176 40.6607C73.7913 40.7682 74.0877 41.1097 74.0962 41.7436C74.1226 43.6756 74.1065 45.6075 74.1131 47.5395C74.1131 47.7442 74.0367 47.8168 73.8366 47.814C73.2713 47.8064 72.7051 47.8008 72.1398 47.8159C71.8482 47.8234 71.8576 47.6527 71.8586 47.4508C71.8623 46.5084 71.8604 45.566 71.8604 44.6236C71.8604 43.7124 71.8463 42.8011 71.8652 41.8908H71.8642Z" fill="#242122"/>
<path d="M134.32 53.783C131.818 53.783 129.706 55.8942 129.707 58.395C129.707 60.8958 131.819 63.006 134.321 63.006C136.823 63.006 138.935 60.8948 138.934 58.394C138.934 55.8933 136.822 53.7821 134.32 53.783ZM134.272 62.4909C131.96 62.4343 130.136 60.5514 130.226 58.312C130.319 55.9989 132.163 54.2245 134.392 54.3019C136.699 54.382 138.482 56.2215 138.417 58.4553C138.35 60.7533 136.509 62.5466 134.273 62.4919L134.272 62.4909Z" fill="#272425"/>
<path d="M136.773 25.2227C136.773 33.3788 136.77 41.5358 136.784 49.6918C136.784 50.1635 136.676 50.3087 136.188 50.2946C134.884 50.2578 133.578 50.2625 132.274 50.2927C131.812 50.3031 131.662 50.2022 131.664 49.7041C131.686 45.1308 131.676 40.5575 131.676 35.9842C131.676 24.2284 131.676 12.4736 131.676 0.717747C131.676 0.30897 131.879 0.104267 132.284 0.103638C133.573 0.103638 134.862 0.103638 136.152 0.103638C136.564 0.103638 136.771 0.303939 136.772 0.704541C136.772 8.01254 136.772 15.3205 136.772 22.6276V25.2208L136.773 25.2227Z" fill="#252122"/>
<path d="M135.852 59.3699C135.872 58.8265 135.751 58.4077 135.096 58.2284C135.84 57.7643 135.843 57.7596 135.844 56.9502C135.844 56.8559 135.845 56.7616 135.844 56.6672C135.834 55.9758 135.597 55.6946 134.905 55.539C134.361 55.4164 133.808 55.5173 133.262 55.4711C132.964 55.4456 132.9 55.5465 132.902 55.8333C132.918 57.4191 132.909 59.0048 132.909 60.5915C132.909 61.5254 132.909 61.515 133.84 61.5075C134.102 61.5056 134.189 61.4433 134.182 61.1697C134.163 60.4321 134.17 59.6934 134.182 58.9557C134.184 58.8274 134.072 58.6058 134.333 58.5897C134.595 58.5737 134.629 58.7756 134.63 58.9737C134.636 59.4916 134.625 60.0104 134.64 60.5283C134.669 61.5065 134.676 61.5056 135.634 61.5009C135.756 61.5009 135.879 61.5009 136.031 61.5009C135.804 60.7802 135.825 60.0717 135.852 59.3699ZM134.614 57.6341C134.597 57.8068 134.469 57.8766 134.324 57.8785C134.135 57.8803 134.174 57.719 134.171 57.6021C134.166 57.4002 134.17 57.1983 134.17 56.9955C134.17 56.8248 134.167 56.6531 134.171 56.4823C134.174 56.3635 134.143 56.2154 134.341 56.2229C134.476 56.2286 134.593 56.2738 134.611 56.4238C134.658 56.8257 134.655 57.2294 134.614 57.6322V57.6341Z" fill="#272425"/>
</g>
<defs>
<clipPath id="clip0_518_898">
<rect width="138.515" height="70" fill="white" transform="translate(0.417969)"/>
</clipPath>
</defs>
</svg>
