<svg width="37" height="71" viewBox="0 0 37 71" fill="none" xmlns="http://www.w3.org/2000/svg">
<g clip-path="url(#clip0_518_880)">
<path fill-rule="evenodd" clip-rule="evenodd" d="M31.8281 70.3637H31.9969V67.9978H31.8281V67.875H32.4722H32.4914L33.5559 69.6638V67.9978H33.362V67.875H33.8861V67.9978H33.7173V70.4865H33.5559L32.1583 68.1369V70.3637H32.3522V70.4865H31.8281V70.3637Z" fill="black"/>
<path fill-rule="evenodd" clip-rule="evenodd" d="M2.60452 70.3639H2.79552V67.9995H2.60452V67.8767H3.70458C3.78453 67.8767 3.8704 67.893 3.95479 67.9226C4.03918 67.9522 4.12209 67.9951 4.19612 68.0483C4.27459 68.1149 4.33826 68.1919 4.38267 68.2762C4.42561 68.3605 4.44782 68.4597 4.44782 68.5573C4.44782 68.655 4.42561 68.7541 4.38267 68.8385C4.33974 68.9243 4.27459 69.0012 4.19612 69.0663C4.12209 69.1196 4.03918 69.1625 3.95479 69.1921C3.88669 69.2158 3.81562 69.232 3.74899 69.2365L4.52925 70.3639H4.72764V70.4867H4.10581L3.23968 69.2379H3.21895V70.3639H3.40995V70.4867H2.60156V70.3639H2.60452ZM3.22192 67.9995V69.1151H3.43956C3.52099 69.1122 3.59354 69.1063 3.65572 69.0915C3.7179 69.0781 3.76972 69.0574 3.81266 69.0293C3.85559 69.0012 3.88965 68.9642 3.91482 68.9169C3.95775 68.8355 3.97996 68.6964 3.97996 68.5573C3.97996 68.4182 3.95775 68.2792 3.91482 68.1978C3.88965 68.1504 3.85559 68.1134 3.81266 68.0853C3.76972 68.0572 3.7179 68.0365 3.65572 68.0232C3.59354 68.0099 3.52247 68.0025 3.43956 67.9995H3.22192Z" fill="black"/>
<path fill-rule="evenodd" clip-rule="evenodd" d="M26.3272 70.3639H26.5182V67.9995H26.3272V67.8767H27.4272C27.5072 67.8767 27.5931 67.893 27.6774 67.9226C27.7618 67.9522 27.8448 67.9951 27.9188 68.0483C27.9972 68.1149 28.0624 68.1919 28.1053 68.2762C28.1483 68.3605 28.1705 68.4597 28.1705 68.5573C28.1705 68.655 28.1497 68.7541 28.1053 68.8385C28.0624 68.9243 27.9972 69.0012 27.9188 69.0663C27.8448 69.1196 27.7618 69.1625 27.6774 69.1921C27.6093 69.2158 27.5383 69.232 27.4717 69.2365L28.2519 70.3639H28.4503V70.4867H27.8285L26.9623 69.2379H26.9416V70.3639H27.1326V70.4867H26.3242V70.3639H26.3272ZM26.9446 67.9995V69.1151H27.1622C27.2451 69.1122 27.3162 69.1063 27.3784 69.0915C27.4406 69.0781 27.4924 69.0574 27.5353 69.0293C27.5782 69.0012 27.6123 68.9642 27.6375 68.9169C27.6804 68.8355 27.7026 68.6964 27.7026 68.5573C27.7026 68.4182 27.6819 68.2792 27.6375 68.1978C27.6123 68.1504 27.5782 68.1134 27.5353 68.0853C27.4924 68.0572 27.4406 68.0365 27.3784 68.0232C27.3162 68.0099 27.2451 68.0025 27.1622 67.9995H26.9446Z" fill="black"/>
<path fill-rule="evenodd" clip-rule="evenodd" d="M10.9844 70.3639H11.1754V67.9995H10.9844V67.8767H12.0844C12.1644 67.8767 12.2503 67.893 12.3346 67.9226C12.419 67.9522 12.5019 67.9951 12.576 68.0483C12.6544 68.1149 12.7181 68.1919 12.7625 68.2762C12.8055 68.3605 12.8277 68.4597 12.8277 68.5573C12.8277 68.655 12.8055 68.7541 12.7625 68.8385C12.7196 68.9243 12.6544 69.0012 12.576 69.0663C12.5019 69.1196 12.419 69.1625 12.3346 69.1921C12.2503 69.2217 12.1644 69.2379 12.0844 69.2379H11.6018V70.3639H11.7928V70.4867H10.9844V70.3639ZM11.6018 67.9995V69.1151H11.8194C11.9008 69.1122 11.9734 69.1063 12.0356 69.0915C12.0978 69.0781 12.1496 69.0574 12.1925 69.0293C12.2354 69.0012 12.2695 68.9642 12.2947 68.9169C12.3376 68.8355 12.3598 68.6964 12.3598 68.5573C12.3598 68.4182 12.3376 68.2792 12.2947 68.1978C12.2695 68.1504 12.2354 68.1134 12.1925 68.0853C12.1496 68.0572 12.0978 68.0365 12.0356 68.0232C11.9734 68.0099 11.9023 68.0025 11.8194 67.9995H11.6018Z" fill="black"/>
<path fill-rule="evenodd" clip-rule="evenodd" d="M18.582 67.875H19.3904V67.9978H19.1994V70.3622H19.6466C19.7665 70.3622 19.8583 70.3208 19.9293 70.2527C19.9989 70.1861 20.0478 70.0944 20.0804 69.9938C20.1129 69.8947 20.1322 69.7866 20.1425 69.6875C20.1529 69.5884 20.1559 69.4996 20.1588 69.436H20.3365V70.485H18.582V70.3622H18.773V67.9978H18.582V67.875Z" fill="black"/>
<path fill-rule="evenodd" clip-rule="evenodd" d="M8.48438 67.875H9.29276V67.9978H9.10177V70.3622H9.5489C9.6703 70.3622 9.76061 70.3208 9.83168 70.2527C9.90127 70.1861 9.95013 70.0944 9.9827 69.9938C10.0153 69.8947 10.0345 69.7866 10.0449 69.6875C10.0552 69.5884 10.0582 69.4996 10.0612 69.436H10.2388V70.485H8.48438V70.3622H8.67537V67.9978H8.48438V67.875Z" fill="black"/>
<path fill-rule="evenodd" clip-rule="evenodd" d="M25.4542 69.8207V67.9978H25.6126V67.875H25.1359V67.9978H25.2943V69.7881C25.2943 69.9627 25.2336 70.0988 25.1418 70.1935C25.05 70.2897 24.9271 70.3445 24.8043 70.3578C24.6814 70.3696 24.56 70.3385 24.4682 70.2616C24.3764 70.1847 24.3142 70.0619 24.3142 69.8902V67.9978H24.5274V67.875H23.6953V67.9978H23.8863V69.8207C23.8863 69.9213 23.907 70.0175 23.944 70.1048C23.9811 70.1921 24.0344 70.2705 24.101 70.3371C24.1676 70.4036 24.2461 70.4569 24.3334 70.4939C24.4297 70.5353 24.5496 70.5546 24.671 70.5546C24.7924 70.5546 24.9123 70.5338 25.0086 70.4939C25.0959 70.4569 25.1744 70.4036 25.241 70.3371C25.3076 70.2705 25.3609 70.1921 25.398 70.1048C25.435 70.0175 25.4557 69.9213 25.4557 69.8207H25.4542Z" fill="black"/>
<path fill-rule="evenodd" clip-rule="evenodd" d="M31.0622 67.8753V68.7453H30.9156C30.9097 68.6698 30.8993 68.5855 30.883 68.5011C30.8653 68.4168 30.8401 68.3325 30.8031 68.2585C30.7661 68.1845 30.7187 68.1194 30.655 68.072C30.5914 68.0262 30.5129 67.9981 30.4137 67.9981H29.8496V69.0811H30.0169C30.1146 69.0811 30.1886 69.0634 30.2434 69.0323C30.2982 69.0012 30.3337 68.9598 30.3589 68.911C30.3841 68.8622 30.3974 68.8074 30.4048 68.7527C30.4137 68.6979 30.4166 68.6432 30.4226 68.5929H30.5469V69.7174H30.4226C30.4166 69.6685 30.4122 69.6123 30.4048 69.5576C30.3974 69.5028 30.3826 69.4481 30.3589 69.3992C30.3337 69.3504 30.2982 69.3075 30.2434 69.2779C30.1886 69.2468 30.1161 69.2291 30.0169 69.2291H29.8496V70.361H30.4137C30.5232 70.361 30.6076 70.327 30.6757 70.2707C30.7424 70.2145 30.7912 70.1376 30.8268 70.0503C30.8623 69.963 30.8845 69.8668 30.8978 69.7751C30.9126 69.6819 30.9186 69.5931 30.9215 69.5191H31.1021V70.4838H29.207V70.361H29.4202V67.9966H29.207V67.8738H31.0607L31.0622 67.8753Z" fill="black"/>
<path fill-rule="evenodd" clip-rule="evenodd" d="M14.0278 67.9978V69.035H14.9961V67.9978H14.8066V67.875H15.6372V67.9978H15.424V70.3637H15.6372V70.4865H14.8066V70.3637H14.9961V69.1578H14.0278V70.3637H14.2188V70.4865H13.3867V70.3637H13.6014V67.9978H13.3867V67.875H14.2188V67.9978H14.0278Z" fill="black"/>
<path fill-rule="evenodd" clip-rule="evenodd" d="M22.1025 67.875L21.2927 70.3637H21.0898V70.4865H21.6628V70.3637H21.4378L21.7265 69.4774H22.4845L22.7732 70.3637H22.5423V70.4865H23.3507V70.3637H23.2011L22.3913 67.875H22.104H22.1025ZM21.7665 69.3546L22.1055 68.3144L22.4446 69.3546H21.7679H21.7665Z" fill="black"/>
<path fill-rule="evenodd" clip-rule="evenodd" d="M6.48145 67.875L5.67159 70.3637H5.46875V70.4865H6.04173V70.3637H5.81668L6.10539 69.4774H6.86195L7.15066 70.3637H6.9197V70.4865H7.72808V70.3637H7.57854L6.76868 67.875H6.48145ZM6.14536 69.3546L6.48441 68.3144L6.82346 69.3546H6.14685H6.14536Z" fill="black"/>
<path fill-rule="evenodd" clip-rule="evenodd" d="M15.0372 9.94301C14.9143 9.94301 14.8432 9.89714 14.7973 9.77434C14.747 9.64117 14.7751 9.57459 14.8802 9.48729C15.1438 9.27127 15.4369 9.09224 15.7197 8.89989C16.5429 8.33764 17.3824 7.79759 18.2174 7.25161C19.0702 6.6938 19.9097 6.11528 20.7388 5.52344C21.4776 4.99522 22.2208 4.46256 22.9434 3.90623C23.2957 3.63547 23.6437 3.3573 23.9842 3.07322C24.1811 2.9075 24.3617 2.72847 24.4817 2.53168C24.5498 2.41923 24.5586 2.30826 24.4594 2.08188C24.3277 1.78004 24.1456 1.37019 24.0553 1.15121C24.0316 1.09351 24.0197 1.03285 24.0138 0.972181C23.999 0.837538 24.0834 0.708812 24.1929 0.631873C24.4047 0.485392 24.5542 0.56825 24.6652 0.7532C25.142 1.54035 25.7757 3.12648 26.1058 4.01868C26.2228 4.33384 25.7475 4.5691 25.5506 4.34568C25.3641 4.13557 25.2056 3.64582 25.0487 3.35582C24.9214 3.12204 24.7333 3.22266 24.5572 3.34546C24.0908 3.67098 23.6348 4.00981 23.1817 4.35307C22.474 4.88869 21.7737 5.43318 21.0542 5.95104C20.231 6.54436 19.3959 7.12141 18.5491 7.68958C17.7392 8.23407 16.9234 8.77265 16.1121 9.3127C15.8382 9.49469 15.3718 9.95189 15.0372 9.94745V9.94301ZM18.7993 45.2197C18.7697 45.2167 18.743 45.2019 18.7193 45.1871C18.5683 45.0969 18.4558 44.9859 18.3477 44.8409C18.2604 44.724 18.17 44.6027 18.0575 44.5065C17.9583 44.4207 17.8369 44.363 17.7362 44.2801C17.7126 44.2609 17.6977 44.2313 17.6918 44.2032C17.6815 44.1559 17.6785 44.107 17.6844 44.0597C17.7007 43.9369 17.6681 43.8688 17.5704 43.8052C17.4224 43.709 17.2506 43.672 17.1618 43.5122C17.1351 43.4649 17.1322 43.4664 17.1248 43.4235C17.1055 43.3243 17.0863 43.2459 17.1662 43.1764C17.2358 43.1157 17.3276 43.1349 17.2995 43.0447C17.261 42.9189 17.1588 42.8287 17.0937 42.7177C16.9338 42.4484 16.7606 42.2117 16.6939 41.9039C16.6525 41.713 16.6391 41.5133 16.6628 41.3195C16.6791 41.1967 16.7709 41.0872 16.839 40.9806C17.0478 40.6507 17.033 40.6418 17.0759 40.5397C17.144 40.3755 17.2225 40.2172 17.258 40.044C17.2758 39.9568 17.2861 39.8635 17.3024 39.7762C17.3143 39.7171 17.2891 39.6534 17.2995 39.5942C17.3158 39.507 17.3365 39.4285 17.338 39.3398C17.3439 38.9417 17.2861 38.5467 17.2817 38.1502C17.2817 38.051 17.3365 37.9667 17.3454 37.8675C17.3602 37.7004 17.3335 37.4814 17.375 37.3142C17.3898 37.2535 17.3824 37.1869 17.3646 37.1292C17.3039 36.928 17.2299 36.7505 17.2565 36.5433C17.2832 36.3317 17.4357 36.1557 17.4786 35.9485C17.486 35.9145 17.4786 35.8775 17.486 35.8449C17.5053 35.768 17.5334 35.5742 17.5142 35.4247C17.4905 35.2501 17.4061 35.1717 17.2965 35.3034C17.261 35.3463 17.2417 35.4025 17.2254 35.4573C17.2003 35.5475 17.1544 35.6215 17.1485 35.7147C17.1292 35.9811 17.184 36.2489 17.184 36.5167C17.184 36.5507 17.1796 36.5507 17.1633 36.6276C17.1544 36.6706 17.1218 36.709 17.1174 36.7534C17.107 36.8644 17.144 36.9975 17.0833 37.0937C16.993 37.2343 16.8538 37.218 16.7191 37.1144C16.6258 37.0434 16.5296 36.9768 16.4171 36.9472C16.158 36.8777 15.9507 36.7534 15.7242 36.6084C15.4902 36.459 15.2297 36.3495 14.9765 36.2326C14.9306 36.2119 14.8862 36.1882 14.8492 36.1557C14.6937 36.0136 14.5827 35.7872 14.4598 35.6141C14.3546 35.4662 14.3102 35.4336 14.2836 35.3951C14.2184 35.2975 14.1829 35.2294 14.0807 35.009C13.9771 34.7885 13.8468 34.6672 13.6914 34.4793C13.4989 34.247 13.4989 33.9111 13.3982 33.63C13.3878 33.6033 13.3612 33.5826 13.3553 33.556C13.336 33.4613 13.3419 33.3681 13.302 33.2793C13.2516 33.1683 13.2576 33.1654 13.2279 33.1269C13.1702 33.05 13.0059 32.9331 12.9792 32.8976C12.9437 32.8502 12.9067 32.8044 12.8845 32.7496C12.8282 32.6135 12.8134 32.5351 12.806 32.501C12.7897 32.4285 12.8015 32.3516 12.7808 32.2821C12.7186 32.069 12.7497 31.8337 12.6994 31.6118C12.6757 31.5082 12.689 31.3987 12.7023 31.2922C12.7186 31.1576 12.7097 31.1561 12.7068 31.1294C12.6949 31.0155 12.6727 30.9075 12.6446 30.798C12.6283 30.7329 12.5661 30.6811 12.5573 30.6145C12.3825 29.4205 11.5505 28.3951 11.3861 27.2322C11.361 27.0591 11.3965 26.9392 11.4468 26.7794C11.4705 26.7054 11.4927 26.6329 11.5001 26.556C11.5194 26.3355 11.4957 26.3326 11.5149 26.2305C11.5386 26.1062 11.6008 25.9937 11.7281 26.0766C11.7829 26.1121 11.8288 26.1639 11.8658 26.2186C12.045 26.4938 12.0243 26.5072 12.0938 26.6093C12.1353 26.6699 12.2108 26.7572 12.2863 26.8194C12.3307 26.8563 12.3825 26.8978 12.4284 26.8785C12.5054 26.846 12.4773 26.738 12.4196 26.6329C12.3248 26.4598 12.1309 26.2645 12.0983 26.2201C12.0805 26.1964 12.0731 26.1654 12.0553 26.1432C11.9843 26.0633 11.9487 25.9834 11.9073 25.8872C11.5786 25.106 11.5594 24.2389 11.4513 23.4015C11.3669 22.7431 11.2781 22.0891 11.167 21.4824C11.1344 21.3064 11.0797 21.1244 10.9583 20.9927C10.8739 20.9009 10.8161 20.9646 10.711 21.009C10.4104 21.1377 10.1306 21.3182 9.99293 21.6156C9.96184 21.6807 9.94259 21.7532 9.93963 21.8257C9.93222 21.9559 9.97072 22.1127 9.98108 22.2429C10.0048 22.5403 10.1232 23.3393 10.3216 24.2478C10.486 24.9935 10.7169 25.8073 10.976 26.4835C11.0397 26.6507 11.0634 26.7957 11.1122 26.957C11.1626 27.1256 11.1863 27.1197 11.204 27.2307C11.2336 27.4097 11.2366 27.4112 11.2455 27.8862C11.2499 28.1614 10.8872 28.1717 10.7939 27.9424C10.7421 27.8151 10.7643 27.7486 10.7376 27.6154C10.4134 26.0056 9.98256 24.2848 9.55616 22.678C9.52951 22.5803 9.55024 22.4575 9.45993 22.4013C9.4007 22.3643 9.35185 22.3539 9.28522 22.3702C9.18899 22.3939 9.11644 22.4072 9.02464 22.3776C8.9595 22.3554 8.90176 22.314 8.85438 22.2711C8.7922 22.2163 8.73149 22.1453 8.74482 22.0521C8.75518 21.9811 8.80848 21.9322 8.87659 21.9071C9.01724 21.8523 9.11052 21.7695 9.22008 21.6703C9.25709 21.6363 9.29262 21.6067 9.33112 21.5742C9.37554 21.5372 9.42439 21.5017 9.47621 21.475C9.54284 21.4395 9.61983 21.4232 9.68645 21.3863C9.81378 21.3123 9.90409 21.2043 9.92482 21.0593C9.94555 20.9276 9.92186 20.753 9.90409 20.6598C9.88633 20.5666 9.88485 20.5503 9.87004 20.5C9.85524 20.4497 9.82414 20.46 9.81082 20.3668C9.79749 20.2736 9.79305 20.0295 9.80786 19.9377C9.82266 19.846 9.81082 19.843 9.80045 19.7972C9.79009 19.7513 9.77232 19.7898 9.74864 19.6699C9.72495 19.5501 9.58577 19.2823 9.52803 19.1802C9.47029 19.0796 9.48214 19.1343 9.46585 19.1062C9.38294 18.9612 9.2793 18.8236 9.1727 18.6949C9.12828 18.6416 9.06166 18.6016 9.00836 18.5573C8.93877 18.501 8.87067 18.4285 8.93285 18.3264C8.96986 18.2628 9.04537 18.2584 9.10607 18.2613C9.36961 18.2761 9.6672 18.7111 9.77084 18.8665C9.90557 19.0692 9.92186 19.1121 9.97368 19.2645C10.024 19.4169 10.0492 19.4953 10.0758 19.59C10.1025 19.6832 10.0906 19.8208 10.1099 20.0028C10.1291 20.1848 10.1232 19.9629 10.1321 20.0605C10.141 20.1582 10.1439 20.4186 10.1647 20.5458C10.1854 20.6731 10.2417 20.7486 10.2831 20.8003C10.3246 20.8521 10.2698 20.8566 10.3675 20.864C10.4045 20.8669 10.4563 20.8418 10.5156 20.8063C10.6118 20.7456 10.7273 20.6583 10.7939 20.5947C10.8294 20.5606 10.8931 20.5 10.8383 20.4704C10.8013 20.4497 10.7628 20.463 10.7288 20.4704C10.6725 20.4807 10.6148 20.5015 10.517 20.5074C10.3616 20.5177 10.3512 20.3476 10.3542 20.2144C10.3586 20.0812 10.366 20.1375 10.3423 20.0028C10.3305 19.9318 10.3231 19.8031 10.3187 19.6818C10.3038 19.3607 10.2639 19.2453 10.0359 18.9494C9.93222 18.8147 9.83155 18.6786 9.72939 18.5439C9.64796 18.4374 9.57837 18.3205 9.46585 18.251C9.35333 18.18 9.19787 18.1489 9.11348 18.0646C8.9595 17.9092 9.05277 17.6917 9.12976 17.5215C9.20971 17.3425 9.21267 17.3425 9.31927 17.1886C9.4318 17.0259 9.55616 16.8853 9.69978 16.7462C9.76936 16.6782 9.83599 16.6071 9.91594 16.5539C10.1558 16.3941 10.2876 16.3092 10.3112 16.2994C10.4652 16.2372 10.6355 16.1899 10.7687 16.0922C10.9212 15.9813 11.0856 15.8422 11.1137 15.6543C11.1241 15.5877 11.0723 15.5078 10.9997 15.53C10.902 15.5596 10.8472 15.6661 10.7569 15.712C10.634 15.7741 10.4593 15.7845 10.3423 15.7046C10.2876 15.6676 10.2372 15.6247 10.1972 15.5744C10.0773 15.422 9.92038 15.3021 9.78861 15.1571C9.71162 15.0728 9.61094 15.0121 9.53692 14.9248C9.4925 14.8716 9.44808 14.8139 9.41107 14.7562C9.36961 14.6911 9.36813 14.5904 9.3859 14.515C9.41403 14.3951 9.48658 14.3744 9.60354 14.3848C9.67461 14.3907 9.73679 14.4454 9.80786 14.4514C9.92482 14.4617 10.0329 14.3626 10.0596 14.2531C10.0803 14.1673 10.0596 14.1066 10.1099 14.0326C10.1395 13.9912 10.1647 14.0104 10.2106 13.9217C10.2653 13.8137 10.1025 13.6938 10.064 13.5932C10.0388 13.5266 10.0344 13.4852 10.0299 13.4393C10.0211 13.3565 10.0211 13.2766 10.0433 13.1967C10.0625 13.1242 10.0966 13.0531 10.138 12.9895C10.2357 12.8401 10.3586 12.6995 10.4874 12.5737C10.6266 12.4391 10.7584 12.3237 10.9301 12.2334C11.016 12.189 11.1048 12.1506 11.1966 12.1225C11.2277 12.1121 11.2632 12.1091 11.2958 12.1165C11.4069 12.1447 11.4898 12.2468 11.6023 12.2689C11.7104 12.2897 11.7637 12.2231 11.8229 12.1313C11.9265 11.973 12.0376 12.0944 12.1471 12.1683C12.2212 12.2186 12.2937 12.1876 12.3292 12.1106C12.3426 12.081 12.3204 12.0781 12.3337 11.9346C12.3411 11.8532 12.35 11.8532 12.3781 11.8029C12.4714 11.6401 12.6624 11.5632 12.8163 11.467C12.88 11.4271 12.8874 11.4404 12.9378 11.4078C12.9614 11.393 13.0473 11.3087 13.1347 11.2687C13.3582 11.1666 13.1835 11.0409 13.0666 11.1223C13.0355 11.1444 13.0029 11.1681 12.9659 11.18C12.9185 11.1933 12.8504 11.1681 12.8238 11.2081C12.7867 11.2628 12.8104 11.2761 12.7897 11.2939C12.7068 11.3605 12.6209 11.4256 12.5202 11.4626C12.3766 11.5173 12.2419 11.5854 12.122 11.6801C12.0065 11.7703 11.9058 11.8857 11.7814 11.9627C11.6734 12.0307 11.4365 12.0085 11.5401 11.7807C11.5668 11.7215 11.6008 11.6564 11.6304 11.615C11.7592 11.43 11.7 11.1459 11.6334 10.9506C11.5608 10.7376 11.6334 10.4949 11.7637 10.3307C12.085 9.9297 12.5498 9.59826 13.0606 9.48286C13.2472 9.44143 13.4382 9.44734 13.6233 9.46658C13.792 9.48433 13.9904 9.52133 14.1385 9.6027C14.2318 9.65449 14.365 9.68852 14.3902 9.79801C14.4124 9.89567 14.3946 9.91934 14.3162 9.99184C14.2939 10.0126 14.2392 10.0836 14.2377 10.1132C14.2347 10.2596 14.405 10.3114 14.5279 10.2878C14.5975 10.2744 14.6833 10.233 14.7603 10.2345C14.8595 10.236 14.9528 10.2892 14.9025 10.4224C14.8773 10.489 14.8092 10.5023 14.7396 10.4919C14.67 10.4801 14.6522 10.5556 14.5901 10.5718C14.5101 10.5926 14.4242 10.5733 14.3443 10.5911C14.2525 10.6118 14.2599 10.6369 14.1148 10.6813C13.9993 10.7168 13.8424 10.7494 13.7269 10.8249C13.493 10.9773 13.6529 11.1415 13.8483 11.0527C13.9756 10.995 13.9727 10.9847 14.0585 10.9639C14.2021 10.9284 14.3591 10.8722 14.4983 10.8234C14.5664 10.7997 14.5989 10.8086 14.6833 10.7745C14.7825 10.7346 14.9143 10.6562 15.0076 10.7198C15.1571 10.8204 15.0831 10.9906 14.9735 11.0971C14.9039 11.1652 14.7944 11.1874 14.71 11.2391C14.673 11.2613 14.63 11.2791 14.6049 11.3146C14.5471 11.3945 14.5279 11.4078 14.5116 11.4936C14.4938 11.5913 14.5042 11.6919 14.5264 11.7896C14.5368 11.8354 14.5827 11.8591 14.6034 11.9005C14.6833 12.0633 14.7988 12.1861 14.9484 12.2837C15.055 12.3548 15.1393 12.3562 15.2637 12.3755C15.3688 12.3918 15.4369 12.3888 15.5465 12.3474C15.6546 12.3059 15.7923 12.229 15.8796 12.232C15.967 12.2364 15.9522 12.2542 15.9995 12.2778C16.0454 12.3015 16.0973 12.3548 16.1358 12.4065C16.2053 12.4968 16.2172 12.5397 16.2246 12.6507C16.229 12.7187 16.2157 12.7898 16.2394 12.8534C16.2809 12.9644 16.38 13.025 16.4778 12.9451C16.537 12.8963 16.571 12.8312 16.5533 12.7543C16.5177 12.6033 16.5015 12.5072 16.6214 12.3962C16.685 12.337 16.7946 12.3355 16.9205 12.3622C17.104 12.4006 17.3128 12.519 17.4697 12.5663C17.8414 12.6773 18.062 12.8593 18.367 13.0709C18.4573 13.1345 18.5313 13.2159 18.6231 13.2766C18.8481 13.4245 19.088 13.5384 19.3234 13.6672C19.3989 13.7086 19.467 13.7604 19.5351 13.8137C19.5869 13.8551 19.6388 13.898 19.6787 13.9498C19.7113 13.9927 19.7454 14.0415 19.7513 14.0948C19.7824 14.3448 19.618 14.3345 19.4063 14.3567C19.3278 14.3655 19.2479 14.3729 19.1753 14.4011C19.0628 14.4454 18.9932 14.4824 18.9518 14.5194C18.8911 14.5742 18.8481 14.6452 18.7978 14.7118C18.6823 14.8671 18.5816 14.9825 18.5461 15.0047C18.3995 15.0965 18.2959 15.0269 18.1464 14.9603C17.9583 14.8775 17.7496 14.7576 17.6548 14.5623C17.6208 14.4913 17.6015 14.4795 17.5704 14.4188C17.5127 14.3078 17.3853 14.2694 17.4268 14.4454C17.4475 14.5372 17.5349 14.6437 17.5527 14.7014C17.566 14.7443 17.5527 14.7931 17.566 14.8375C17.5808 14.8878 17.5852 14.9293 17.6059 14.9781C17.64 15.0595 17.5971 15.1823 17.6755 15.2252C17.7274 15.2548 17.7362 15.2178 17.8191 15.237C17.948 15.2681 18.0249 15.2992 18.059 15.4279C18.096 15.5714 18.0768 15.5892 17.9539 15.678C17.8354 15.7623 17.828 15.7578 17.757 15.7726C17.5171 15.823 17.3705 16.0138 17.144 16.0774C17.1129 16.0863 17.0922 16.1174 17.0626 16.1278C17.0152 16.1425 16.9604 16.1322 16.9145 16.1485C16.8361 16.1766 16.7502 16.1884 16.6673 16.181C16.577 16.1721 16.5059 16.1322 16.4304 16.1855C16.4008 16.2062 16.3978 16.2535 16.3978 16.2905C16.3978 16.4799 16.4141 16.6648 16.4526 16.8498C16.4733 16.9445 16.4659 17.0495 16.5 17.1383C16.5622 17.2996 16.6969 17.4387 16.7457 17.6059C16.7916 17.7657 16.8287 17.9639 16.9486 18.0779C17.0034 18.1297 17.0596 18.0793 17.1011 18.0246C17.2699 17.8027 17.4964 17.6147 17.7762 17.5482C17.985 17.4979 18.17 17.4564 18.3832 17.4638C18.5269 17.4697 18.5964 17.6177 18.7149 17.6873C18.8585 17.7731 18.9903 17.7701 19.0421 17.594C19.0761 17.4771 19.085 17.3484 19.1265 17.233C19.1679 17.1191 19.2346 17.0436 19.3515 17.0052C19.4211 16.9815 19.4996 16.983 19.5736 16.9933C19.6299 17.0022 19.6299 17.0096 19.6684 17.0481C19.7779 17.1576 19.7468 17.2449 19.6654 17.3647C19.6239 17.4254 19.5603 17.4697 19.5203 17.5319C19.4803 17.5926 19.4537 17.6621 19.4315 17.7316C19.4226 17.7598 19.4256 17.7908 19.43 17.8204C19.4463 17.9639 19.5869 18.0764 19.6698 18.1888C19.7157 18.2525 19.7172 18.3309 19.6876 18.4049C19.6106 18.6076 19.5529 18.7807 19.6091 18.9967C19.6521 19.1639 19.7676 19.303 19.809 19.4657C19.8357 19.5663 19.8638 19.6847 19.7764 19.7498C19.7365 19.7794 19.6847 19.7868 19.6358 19.7898C19.162 19.8253 18.6838 19.8134 18.213 19.8771C18.1182 19.8904 18.0353 19.9111 17.9435 19.9303C17.8251 19.9555 17.6977 19.9362 17.5823 19.9688C17.3987 20.0206 17.1855 20.1079 17.0315 20.2248C16.8953 20.3283 16.7872 20.3727 16.6273 20.4275C16.5444 20.4556 16.4985 20.4896 16.4185 20.5222C16.2927 20.574 16.1846 20.6672 16.0736 20.7486C15.9048 20.8714 15.9063 20.8847 15.8026 20.9113C15.6916 20.9409 15.5435 20.9202 15.5065 20.7959C15.4695 20.6687 15.4695 20.531 15.4858 20.3994C15.4947 20.3269 15.5376 20.2603 15.5791 20.1996C15.662 20.0798 15.7686 19.9806 15.9122 19.9392C15.9551 19.9259 16.004 19.9377 16.0484 19.9259C16.1565 19.8978 16.3593 19.8371 16.3993 19.7291C16.4141 19.6892 16.4097 19.6403 16.3919 19.6019C16.343 19.4864 16.2246 19.5057 16.115 19.482C15.9655 19.4509 15.8145 19.4613 15.6709 19.4273C15.6413 19.4199 15.6072 19.4376 15.5791 19.4258C15.4962 19.3918 15.4295 19.3488 15.3703 19.2823C15.243 19.1373 15.2282 19.1077 15.1971 19.0648C15.089 18.9168 14.9498 18.7688 15.0209 18.5809C15.0372 18.5395 15.0712 18.5129 15.1157 18.504C15.1986 18.4862 15.2859 18.504 15.3673 18.4848C15.4384 18.467 15.4917 18.4374 15.5332 18.3753C15.6264 18.2391 15.6753 18.103 15.8293 18.032C15.8648 18.0157 15.9092 18.0172 15.9477 18.0261C16.0899 18.0601 16.2127 18.1341 16.3179 18.1356C16.3771 18.1356 16.3993 18.0719 16.3712 18.0202C16.2809 17.8544 16.1328 17.7257 16.0055 17.5866C15.9729 17.5511 15.9507 17.5053 15.9388 17.4594C15.9255 17.4091 15.9226 17.3543 15.93 17.3026C15.9462 17.1886 15.9477 17.051 15.9685 16.9371C15.9818 16.8661 16.001 16.8306 16.0173 16.7595C16.0425 16.6486 16.0321 16.5169 16.0173 16.4044C16.0144 16.3808 16.0055 16.3512 15.9833 16.3423C15.887 16.3038 15.8174 16.4 15.736 16.4577C15.6442 16.5213 15.6413 16.5198 15.5998 16.5258C15.5036 16.5406 15.4044 16.5494 15.3066 16.5406C15.2045 16.5332 15.052 16.4917 14.9632 16.5465C14.9469 16.5568 14.9395 16.5702 14.9572 16.5879C15.0209 16.6545 15.1097 16.6515 15.1986 16.6693C15.3466 16.6989 15.3481 16.7004 15.3955 16.724C15.4976 16.7729 15.5524 16.8143 15.6072 16.909C15.7049 17.0747 15.7123 17.0732 15.7301 17.1368C15.7641 17.2552 15.7937 17.3721 15.7745 17.4934C15.7538 17.6192 15.7434 17.6207 15.6812 17.7065C15.5791 17.8485 15.4828 18.0172 15.3081 18.0438C14.6463 18.1459 14.6389 18.103 14.445 18.0823C14.1992 18.0572 14.1859 17.9151 14.1163 17.6961C14.0941 17.6236 14.1163 17.5422 14.0985 17.4697C14.0659 17.3469 14.0393 17.2271 13.989 17.1117C13.9519 17.0259 13.8661 16.9504 13.7595 16.7877C13.721 16.7299 13.7254 16.653 13.7343 16.5849C13.7461 16.4888 13.7935 16.3408 13.6766 16.3393C13.5477 16.3364 13.5418 16.5435 13.5611 16.6456C13.5803 16.7492 13.6336 16.8454 13.6677 16.9445C13.6825 16.9859 13.684 17.0126 13.6988 17.0525C13.7195 17.1072 13.7683 17.1487 13.7846 17.2034C13.8172 17.3129 13.8616 17.3928 13.8912 17.5023C13.9238 17.6207 13.9046 17.7834 13.9386 17.9018C13.9697 18.0142 13.9638 18.1252 13.9949 18.2362C14.0437 18.4078 14.0245 18.5868 14.0748 18.7644C14.1 18.8561 14.1207 18.9138 14.1459 19.0071C14.1577 19.0529 14.1414 19.1047 14.1592 19.1491C14.2096 19.2675 14.1947 19.4273 14.2258 19.5604C14.251 19.664 14.2629 19.8342 14.3058 19.6241C14.3236 19.5353 14.3221 19.4361 14.3176 19.3429C14.3058 19.084 14.4346 19.1698 14.5071 19.3459C14.5205 19.3799 14.5086 19.4199 14.519 19.4554C14.556 19.5856 14.6019 19.7247 14.6241 19.8578C14.6463 19.988 14.6833 20.1034 14.7218 20.2292C14.7455 20.3047 14.75 20.3032 14.7618 20.3639C14.787 20.5015 14.7929 20.679 14.8432 20.8137C14.8625 20.8654 14.8743 20.9113 14.8832 20.9675C14.9099 21.1229 14.9025 21.2797 14.9469 21.4306C15.0017 21.6186 14.9868 21.8494 15.0372 22.0358C15.0594 22.1216 15.0742 22.2208 15.1038 22.3036C15.1423 22.4087 15.2074 22.4841 15.354 22.4575C15.4799 22.4353 15.5021 22.3658 15.5598 22.2489C15.6457 22.0772 15.7168 21.8952 15.7923 21.7177C15.8485 21.583 15.85 21.583 15.8722 21.5002C15.9196 21.3138 16.1165 21.151 16.2957 21.1051C16.4037 21.077 16.4496 20.9217 16.4926 20.8255C16.5192 20.7663 16.5622 20.713 16.6095 20.6687C16.7013 20.5828 16.7916 20.5074 16.9116 20.4704C17.0004 20.4423 17.0981 20.4482 17.1914 20.4556C17.2595 20.4615 17.2787 20.4659 17.3454 20.4482C17.452 20.4201 17.4994 20.4334 17.5823 20.3964C17.8576 20.2736 18.1197 20.315 18.4129 20.2677C18.4632 20.2603 18.5032 20.2189 18.552 20.2085C18.6468 20.1878 18.6468 20.1893 18.7134 20.1804C18.9133 20.1552 18.9133 20.136 19.427 20.136C19.5396 20.136 19.6151 20.1996 19.6832 20.2943C19.7187 20.3431 19.7483 20.3994 19.7631 20.4585C19.7809 20.5281 19.7824 20.6021 19.775 20.6746C19.7676 20.7441 19.7513 20.8151 19.7202 20.8788C19.6758 20.9734 19.5455 21.0164 19.5188 21.117C19.4848 21.2413 19.6832 21.2531 19.7779 21.2797C19.9186 21.3182 19.9719 21.3286 20.0296 21.3567C20.0726 21.3774 20.114 21.4011 20.1495 21.4336C20.1718 21.4543 20.188 21.4824 20.1954 21.512C20.2058 21.5505 20.2147 21.5934 20.2014 21.6304C20.1347 21.8213 19.9023 21.8124 19.7246 21.8583C19.5366 21.9071 19.3486 21.9589 19.162 22.018C19.0939 22.0388 19.0169 22.0195 18.9488 22.0417C18.7889 22.0935 18.595 22.3007 18.7134 22.459C18.8837 22.6868 19.0776 22.243 19.2064 22.1645C19.4182 22.0358 19.7824 21.8745 19.9867 22.1201C20.0059 22.1438 20.0252 22.1704 20.0296 22.2015C20.0459 22.3199 20.0459 22.4412 20.0296 22.5596C20.0178 22.6498 20 22.7238 19.9852 22.8156C19.9763 22.8673 19.9911 22.9191 19.9867 22.9709C19.9822 23.0183 19.8801 23.4903 20.0563 23.3571C20.154 23.2831 20.1318 23.2165 20.1495 23.0967C20.1629 23.0049 20.1762 22.9162 20.1866 22.823C20.1954 22.7475 20.1673 22.6706 20.1806 22.5966C20.194 22.5241 20.2339 22.3791 20.3065 22.3539C20.3598 22.3347 20.4264 22.3169 20.4767 22.345C20.6189 22.4235 20.6515 22.5108 20.6974 22.6735C20.727 22.7771 20.7225 22.891 20.7151 22.999C20.7092 23.0804 20.6766 23.1485 20.6618 23.2284C20.6515 23.2831 20.5908 23.3497 20.6233 23.397C20.6367 23.4148 20.6663 23.3837 20.684 23.3719C20.7906 23.3083 20.8602 23.2757 20.9565 23.3704C20.9727 23.3852 20.9905 23.4015 20.9949 23.4237C21.0097 23.5051 21.0172 23.5894 21.0083 23.6708C20.9994 23.7581 20.9949 23.7581 20.9772 23.8276C20.9609 23.8912 20.9224 23.9223 20.7936 24.2848C20.7566 24.3869 20.6618 24.5866 20.7655 24.6636C20.8469 24.7242 20.8883 24.6562 20.9135 24.5689C20.9342 24.4905 20.9579 24.4357 20.9801 24.3573C21.0127 24.2478 20.9727 24.1605 21.1001 24.1339C21.2437 24.1043 21.3325 24.2419 21.3636 24.3691C21.3947 24.5067 21.3962 24.6503 21.3858 24.7908C21.3784 24.8885 21.3399 24.9876 21.3236 25.0867C21.3088 25.1726 21.3932 25.3708 21.2481 25.5129C21.18 25.5795 21.1534 25.6653 21.1312 25.7422C21.066 25.973 21.1267 26.2038 21.0616 26.4125C20.9994 26.6093 20.8647 26.7809 20.7862 26.9718C20.7122 27.1523 20.6796 27.3431 20.6544 27.537C20.6485 27.5754 20.6218 27.6109 20.6144 27.6494C20.5226 28.1199 20.4619 28.2501 20.2073 28.6481C20.1377 28.7562 20.08 28.876 20.0489 29.0018C20.0415 29.0299 20.0355 29.0669 20.0533 29.0905C20.1451 29.2119 20.2902 29.0817 20.4027 29.1704C20.5078 29.2533 20.4738 29.345 20.416 29.4516C20.3716 29.533 20.2221 29.5847 20.2265 29.6765C20.231 29.749 20.3272 29.6942 20.385 29.6735C20.4086 29.6661 20.4383 29.6558 20.459 29.6706C20.536 29.7253 20.5034 29.8363 20.499 29.925C20.493 30.0316 20.499 30.1411 20.5167 30.2461C20.5345 30.3527 20.61 30.5923 20.7492 30.474C20.761 30.4636 20.7625 30.4429 20.761 30.4281C20.7462 30.2905 20.6426 30.073 20.7595 29.9724C20.7832 29.9517 20.8232 29.9576 20.8513 29.968C21.0009 30.0153 21.0971 30.1411 21.1489 30.2861C21.1711 30.3497 21.18 30.4059 21.1919 30.4725C21.217 30.6219 21.2378 30.7758 21.2155 30.9267C21.1904 31.0984 21.1089 31.2034 20.9698 31.3233C20.9372 31.3514 20.9017 31.3765 20.8617 31.3943C20.8232 31.412 20.7817 31.4209 20.7403 31.4268C20.6204 31.4431 20.5641 31.4476 20.459 31.5067C20.4294 31.523 20.3909 31.5245 20.3598 31.5127C20.2606 31.4742 20.1688 31.4342 20.1037 31.3499C20.0444 31.2744 20.0252 31.1738 19.9719 31.0954C19.9438 31.054 19.9038 31.0229 19.8623 30.9978C19.7335 30.9164 19.6772 30.8232 19.6388 30.6737C19.6195 30.5997 19.5766 30.5465 19.5307 30.4829C19.4389 30.3571 19.3382 30.2224 19.2701 30.0834C19.2583 30.0597 19.2627 30.0301 19.2523 30.0064C19.1827 29.8333 19.0895 29.6572 19.1013 29.459C19.1072 29.3746 19.0273 29.3554 18.974 29.2873C18.8689 29.1512 18.7178 29.0432 18.6542 28.8819C18.6142 28.7813 18.5861 28.6629 18.5728 28.5549C18.5269 28.2043 18.5372 27.8477 18.5106 27.4941C18.5091 27.4689 18.4898 27.4482 18.4869 27.4245C18.4632 27.21 18.3936 26.9984 18.2618 26.8208C18.2145 26.7557 18.1686 26.6995 18.1538 26.6241C18.1167 26.4406 18.0931 26.2897 17.9687 26.1447C17.9361 26.1062 17.9035 26.0766 17.8754 26.0352C17.6963 25.7748 17.4342 25.5721 17.2225 25.3368C17.0848 25.1844 16.9871 24.9329 16.9264 24.7509C16.9145 24.7168 16.9116 24.6799 16.9205 24.6458C16.9456 24.5526 17.0197 24.4949 17.0641 24.412C17.0952 24.3514 17.0685 24.267 16.9974 24.2966C16.8938 24.3381 16.7887 24.378 16.725 24.4698C16.6643 24.557 16.6451 24.56 16.654 24.6266C16.6658 24.7272 16.7472 24.7612 16.7961 24.8485C16.8553 24.9536 17.0655 25.1637 16.8997 25.2495C16.6821 25.3619 16.4837 25.2229 16.3149 25.0779C16.2379 25.0128 16.1772 24.9284 16.1269 24.8411C16.0899 24.7745 16.081 24.7775 16.0469 24.6769C16.0218 24.6029 16.0099 24.526 16.0158 24.449C16.0218 24.3691 16.044 24.2804 16.0158 24.2049C15.9625 24.0643 15.8426 23.9593 15.8012 23.8143C15.7627 23.6796 15.7301 23.5198 15.6946 23.3852C15.6694 23.292 15.6842 23.2239 15.6353 23.1411C15.6161 23.107 15.5435 23.0449 15.471 22.9931C15.3777 22.9265 15.2533 22.8821 15.2267 22.9946C15.2104 23.0641 15.2519 23.1351 15.28 23.2017C15.3259 23.3142 15.3748 23.4281 15.4058 23.5465C15.4236 23.6205 15.4754 23.6826 15.4947 23.7551C15.5184 23.8424 15.5213 23.9341 15.5539 24.0185C15.6013 24.1413 15.6294 24.236 15.6561 24.3632C15.662 24.3913 15.7242 24.5837 15.7641 24.6562C15.7952 24.7139 15.7952 24.7509 15.8234 24.8086C15.8737 24.9151 15.9477 25.0083 16.0203 25.1015C16.0617 25.1533 16.1106 25.2007 16.1624 25.2421C16.2542 25.3161 16.3593 25.3694 16.4748 25.3945C16.6303 25.4271 16.6998 25.43 16.8094 25.541C16.8716 25.6046 16.9249 25.6579 16.9812 25.7259C17.0552 25.8147 17.1366 25.902 17.2121 25.9893C17.3039 26.0958 17.4224 26.1461 17.5082 26.2556C17.5601 26.3222 17.6045 26.3873 17.6163 26.4702C17.64 26.6241 17.6622 26.7824 17.6415 26.9377C17.6119 27.1508 17.5378 27.3742 17.6237 27.5784C17.7081 27.7796 17.8221 27.9675 17.908 28.1658C17.9524 28.2679 18.0175 28.3611 18.0412 28.4706C18.0753 28.626 18.056 28.7902 18.0723 28.9485C18.0738 28.9663 18.0931 28.9811 18.0945 28.9988C18.1123 29.1601 18.0945 29.3258 18.133 29.4826C18.1671 29.6188 18.1241 29.7505 18.1212 29.8821C18.1212 29.9783 18.1819 30.0686 18.2322 30.1499C18.3655 30.3645 18.5091 30.579 18.6571 30.7847C18.706 30.8528 18.7549 30.9282 18.8052 30.9978C18.8333 31.0362 18.9029 31.1176 18.9562 31.196C19.0554 31.341 19.1591 31.4505 19.2849 31.5718C19.3056 31.5926 19.3175 31.6236 19.3382 31.6443C19.5203 31.8219 19.6639 31.998 19.8016 32.2096C19.8401 32.2673 19.9023 32.4478 19.9067 32.4759C19.9245 32.612 19.9393 32.7496 19.9289 32.8857C19.923 32.9479 19.8904 33.0041 19.8594 33.0588C19.8135 33.1417 19.6343 33.2704 19.698 33.3474C19.769 33.4317 19.8964 33.371 19.9645 33.2897C20.0444 33.195 20.0681 33.0692 20.0814 32.9464C20.0962 32.8073 20.0518 32.6653 20.0652 32.5262C20.0844 32.3398 20.305 32.2658 20.4383 32.3841C20.4901 32.4315 20.4856 32.4951 20.5093 32.5602C20.5271 32.612 20.5715 32.652 20.5878 32.7052C20.6041 32.7585 20.5908 32.8177 20.6026 32.8724C20.6159 32.9316 20.6367 32.9893 20.6633 33.044C20.6988 33.1195 20.687 33.1831 20.7136 33.2616C20.7684 33.4243 20.8143 33.6241 20.7803 33.7912C20.7625 33.8815 20.7314 33.9644 20.6751 34.0383C20.5774 34.1685 20.4797 34.3002 20.379 34.4275C20.3479 34.4674 20.3183 34.5163 20.3139 34.568C20.3006 34.7204 20.3213 34.8802 20.2665 35.0238C20.2206 35.1451 20.1392 35.2413 20.1347 35.37C20.1303 35.4928 20.2028 35.6052 20.2325 35.7236C20.2369 35.7414 20.2517 35.7562 20.2547 35.7739C20.2769 35.9485 20.3302 36.1335 20.2887 36.3125C20.2665 36.4116 20.2413 36.4945 20.194 36.5818C20.0504 36.8481 20.0237 36.8881 19.9363 37.0257C19.772 37.2861 19.584 37.5642 19.4537 37.8424C19.433 37.8853 19.4226 37.9105 19.4019 37.9534C19.2583 38.267 19.1146 38.5718 18.8896 38.8367C18.8467 38.887 18.8156 38.9388 18.7771 38.995C18.7371 39.0557 18.6897 39.1149 18.6734 39.1859C18.6483 39.2983 18.6497 39.4063 18.6127 39.5129C18.5402 39.7215 18.3729 39.9064 18.3137 40.1195C18.3018 40.1639 18.3196 40.2112 18.3077 40.2556C18.2752 40.3844 18.253 40.4702 18.2411 40.6033C18.2367 40.6581 18.2026 40.7069 18.1982 40.7617C18.1893 40.8637 18.1745 40.9362 18.1538 41.0369C18.1375 41.1138 18.136 41.1138 18.133 41.1478C18.1271 41.2529 18.1212 41.3609 18.1493 41.463C18.1848 41.5917 18.2707 41.6982 18.3299 41.8166C18.3536 41.864 18.3818 41.8684 18.364 42.336C18.3581 42.5091 18.1508 42.6496 18.0842 42.8109C18.0338 42.9337 18.0264 42.9885 18.1582 43.0299C18.2041 43.0447 18.253 43.0225 18.3003 43.0299C18.367 43.0388 18.4188 43.0728 18.4573 43.1275C18.592 43.3243 18.2737 43.49 18.1449 43.6054C18.1093 43.6365 18.0575 43.6942 18.0679 43.7445C18.0723 43.7667 18.0886 43.7874 18.1064 43.8037C18.1123 43.8096 18.1241 43.8082 18.1315 43.8037C18.176 43.7712 18.2159 43.7371 18.2544 43.7075C18.3462 43.6365 18.4306 43.5907 18.5624 43.6528C18.6853 43.7105 18.7652 43.8333 18.8629 43.9295C18.9799 44.0434 19.1368 44.1455 19.2331 44.2816C19.2583 44.3171 19.276 44.3586 19.2849 44.4015C19.2967 44.4592 19.3056 44.5198 19.2938 44.5775C19.2775 44.6589 19.2272 44.7299 19.202 44.8098C19.1561 44.9548 19.128 45.1531 18.9814 45.2182C18.9266 45.2434 18.86 45.236 18.7993 45.2315V45.2197ZM24.6371 36.4235C24.6001 36.4235 24.5572 36.4146 24.5172 36.4087C24.4506 36.3983 24.3677 36.3732 24.3869 36.3007C24.4106 36.2104 24.4831 36.1749 24.5438 36.1557C24.6045 36.1349 24.6756 36.1453 24.7644 36.1557C24.8059 36.1601 24.8488 36.1645 24.8873 36.1497C24.9747 36.1157 25.2042 35.8612 25.2056 36.0905C25.2056 36.132 25.1923 36.1734 25.1731 36.2089C25.1435 36.2651 25.1079 36.3095 25.0532 36.3421C24.9836 36.3835 24.9791 36.382 24.8429 36.4116C24.7748 36.4264 24.7052 36.4264 24.6356 36.4264L24.6371 36.4235ZM12.0761 19.8504C12.1101 19.8149 12.1545 19.7853 12.1708 19.7631C12.199 19.7247 12.3248 19.5797 12.3707 19.5072C12.5084 19.2911 12.6328 19.0692 12.766 18.8487C12.8001 18.7925 12.8563 18.7141 12.9067 18.6594C12.9718 18.5883 13.0606 18.5573 13.1154 18.7156C13.1376 18.7792 13.0592 18.8591 13.0207 18.9124C12.8474 19.1491 12.7764 19.2275 12.5498 19.5308C12.4521 19.6625 12.3529 19.8578 12.2049 19.9348C12.122 19.9777 11.9221 20.0087 12.0776 19.8504H12.0761ZM14.6508 17.2345C14.556 17.2182 14.5294 17.1975 14.5101 17.1058C14.4923 17.0229 14.5442 16.9312 14.6004 16.869C14.6389 16.8276 14.6907 16.7788 14.7514 16.7965C14.8121 16.8128 14.8358 16.872 14.8521 16.9149C14.8876 17.0081 14.8492 17.1176 14.747 17.1916C14.7189 17.2123 14.6848 17.2389 14.6508 17.233V17.2345ZM10.4534 42.2353C10.4164 42.2353 10.3868 42.1998 10.3527 42.191C10.1839 42.148 10.0211 42.043 9.86116 41.9764C9.79157 41.9468 9.78417 41.9616 9.73827 41.9276C9.6524 41.864 9.68941 41.7308 9.73827 41.6553C9.88781 41.4142 9.83007 41.1937 9.77825 40.9288C9.75752 40.8238 9.8049 40.7291 9.80786 40.6211C9.8123 40.4702 9.77825 40.3193 9.77677 40.1683C9.77529 39.9804 9.8049 39.794 9.83747 39.6076C9.90854 39.2096 10.1143 38.9018 10.2609 38.5349C10.332 38.3588 10.4119 38.1827 10.4934 38.0111C10.5926 37.801 10.6429 37.5716 10.6918 37.3453C10.708 37.2683 10.748 37.1988 10.785 37.1307C10.9775 36.7874 10.9982 36.237 11.0811 35.8657C11.1344 35.623 11.3402 35.4602 11.3713 35.2087C11.3965 35.0104 11.4039 34.8255 11.432 34.6287C11.438 34.5902 11.4246 34.5503 11.432 34.5118C11.4483 34.4304 11.5238 34.4201 11.5786 34.4763C11.6452 34.5458 11.6393 34.5503 11.7045 34.6272C11.7459 34.6775 11.8229 34.7915 11.9028 34.8521C11.9828 34.9128 12.1042 34.9261 12.0968 34.7722C12.0894 34.6302 11.9695 34.5044 11.9014 34.3787C11.7726 34.1464 11.66 33.9052 11.5386 33.6699C11.4927 33.5811 11.5149 33.5708 11.4779 33.5042C11.0737 32.7984 10.7791 31.7316 10.8561 30.9341C10.8753 30.7285 11.0012 30.5361 11.1241 30.3689C11.1715 30.3053 11.284 30.2461 11.2899 30.1647C11.2988 30.0316 11.2899 30.0301 11.2721 29.9472C11.2499 29.8496 11.2025 29.7579 11.1789 29.6602C11.1389 29.4886 11.0426 29.2548 11.1315 29.095C11.2218 28.9308 11.3047 28.8568 11.3417 28.6703C11.3565 28.5934 11.432 28.5002 11.512 28.5756C11.6112 28.6703 11.6275 28.8094 11.6867 28.9308C11.9339 29.4338 12.2167 29.9472 12.2967 30.5258C12.3248 30.7285 12.27 30.9386 12.3159 31.1413C12.3737 31.3958 12.3796 31.6503 12.4462 31.9003C12.4817 32.032 12.5943 32.2451 12.4062 32.2894C12.3411 32.3042 12.3366 32.2924 12.3189 32.2806C12.1279 32.1474 12.0524 31.8855 11.9354 31.6947C11.8984 31.634 11.8792 31.5837 11.8495 31.5186C11.8214 31.4579 11.7844 31.4165 11.7948 31.3514C11.8199 31.2005 11.8777 31.0347 11.7948 30.8986C11.7429 30.8113 11.6319 30.7433 11.6127 30.8705C11.5919 31.0081 11.666 31.1516 11.6408 31.2907C11.6201 31.4046 11.5001 31.415 11.395 31.3839C11.3358 31.3662 11.3062 31.2892 11.2514 31.2818C11.2233 31.2774 11.1996 31.3129 11.2011 31.341C11.2085 31.4342 11.2366 31.5275 11.2869 31.6074C11.4157 31.8145 11.6363 31.9565 11.7637 32.1652C11.8318 32.2761 11.8792 32.4049 11.9384 32.5203C11.9784 32.5987 11.9621 32.6076 11.9991 32.6667C12.0568 32.757 12.1101 32.9168 12.2389 32.8709C12.2878 32.8532 12.3411 32.7629 12.3618 32.7555C12.5202 32.6949 12.6046 32.7496 12.7009 32.8724C12.8267 33.0337 12.8193 33.0411 12.84 33.1018C12.9126 33.3207 12.9437 33.5516 13.0059 33.7735C13.0518 33.9436 13.0784 34.0117 13.1125 34.0724C13.1465 34.133 13.1643 34.1863 13.1865 34.2499C13.2102 34.3165 13.2353 34.355 13.3597 34.571C13.4115 34.6613 13.4693 34.75 13.5374 34.8284C13.7461 35.0711 13.9475 35.3241 14.103 35.6023C14.1592 35.7044 14.1577 35.7059 14.1829 35.7739C14.1947 35.8079 14.2066 35.8509 14.1873 35.8804C14.1503 35.9396 14.0896 35.9204 14.0289 35.8908C13.8216 35.7887 13.5626 35.6911 13.3908 35.5313C13.2886 35.4366 13.2694 35.2797 13.1894 35.1643C13.1154 35.0578 13.0295 34.9587 12.9274 35.0815C12.8667 35.154 12.8904 35.2694 12.9215 35.3537C13.0088 35.5904 13.2146 35.7177 13.4367 35.7976C13.6677 35.8804 13.9889 35.91 14.1488 36.1068C14.1977 36.166 14.174 36.2681 14.0911 36.2888C14.0186 36.3066 13.9416 36.2844 13.872 36.3066C13.7994 36.3288 13.7521 36.3613 13.7772 36.4368C13.8068 36.527 13.8513 36.5537 13.9401 36.5226C14.103 36.4664 14.254 36.3228 14.4316 36.3214C14.4479 36.3214 14.4672 36.3332 14.4746 36.348C14.5264 36.4545 14.4331 36.6158 14.3576 36.6927C13.7417 37.3097 13.0192 37.9282 12.3174 38.4653C11.8259 38.8411 11.3521 39.2495 11.2351 39.9005C11.167 40.2823 11.2173 40.6522 11.2055 41.0354C11.1996 41.2055 11.1833 41.3772 11.0811 41.531C11.0338 41.6021 10.9583 41.6465 10.9242 41.7249C10.8842 41.8137 10.9301 41.9217 10.8857 42.0075C10.8102 42.1525 10.6222 42.2368 10.4608 42.2368L10.4534 42.2353ZM23.4749 47.1136C23.429 47.1151 23.3831 47.1195 23.3387 47.1106C23.0944 47.0633 22.8856 46.868 22.8412 46.6224C22.8145 46.4759 22.9211 46.3679 22.9759 46.2377C22.9937 46.1948 23.0085 46.1504 23.0144 46.106C23.0203 46.0616 23.0233 46.0157 23.0144 45.9713C22.9804 45.8027 22.9063 45.6917 22.9197 45.5141C22.9256 45.4298 22.9137 45.3455 22.9197 45.2611C22.93 45.1191 22.933 44.9785 22.9552 44.838C22.9952 44.5923 23.2025 44.3822 23.3283 44.1707C23.4083 44.0345 23.4334 43.8925 23.4749 43.7401C23.5089 43.6173 23.5252 43.6217 23.5311 43.5744C23.5593 43.3391 23.6333 43.1113 23.6363 42.8745C23.6392 42.6881 23.6007 42.5919 23.6066 42.4484C23.6111 42.3537 23.6792 42.2013 23.7355 42.1273C23.7591 42.0963 23.7621 42.0933 23.7976 42.0859C23.9264 42.0578 24.0923 42.0312 24.2211 41.9572C24.2981 41.9128 24.3706 41.858 24.4017 41.7781C24.458 41.6317 24.3647 41.5814 24.2477 41.5592C24.1308 41.5384 23.9768 41.5577 23.9131 41.5059C23.8184 41.429 23.8376 41.2736 23.8435 41.1582C23.8495 41.0073 23.882 40.9762 23.882 40.9096C23.882 40.7631 23.848 40.6167 23.8524 40.4702C23.8613 40.1506 23.8643 39.7881 23.9827 39.4907C24.0553 39.3087 24.147 39.1489 24.1619 38.9565C24.1752 38.779 23.9768 38.6 24.1441 38.455C24.1722 38.4313 24.2196 38.4357 24.2462 38.4106C24.3351 38.3233 24.3469 38.2434 24.3706 38.122C24.3913 38.0111 24.4284 37.9193 24.4313 37.8069C24.4343 37.6974 24.4298 37.5879 24.4136 37.4799C24.4002 37.3882 24.3751 37.2994 24.3469 37.2106C24.3232 37.1381 24.2833 37.0922 24.2581 37.0079C24.2063 36.8303 24.0997 36.6498 24.0227 36.4826C24.0123 36.4605 24.0094 36.4309 24.0182 36.4101C24.0404 36.3628 24.0982 36.3391 24.11 36.2947C24.1619 36.092 23.8036 35.9115 23.691 35.7902C23.6422 35.7369 23.5889 35.6851 23.5622 35.6186C23.4704 35.3907 23.4808 35.1229 23.4971 34.8802C23.503 34.7989 23.5252 34.716 23.5622 34.6435C23.6244 34.5207 23.6955 34.4053 23.771 34.2884C23.7828 34.2706 23.7814 34.244 23.7947 34.2277C23.8924 34.1138 24.0064 34.0235 24.073 33.8904C24.113 33.812 24.1012 33.806 24.1041 33.7261C24.1086 33.6137 24.0789 33.4953 24.1322 33.3932C24.1841 33.2941 24.2966 33.229 24.3454 33.1284C24.3751 33.0677 24.3973 33.0026 24.4136 32.9375C24.4298 32.8665 24.4135 32.8635 24.4328 32.8265C24.4861 32.723 24.5068 32.6682 24.5098 32.5499C24.5157 32.2628 24.5468 31.9417 24.5024 31.6532C24.4713 31.455 24.4032 31.2715 24.2596 31.122C24.1974 31.0584 24.1293 30.9978 24.0938 30.9134C24.0523 30.8143 24.0242 30.7492 24.0168 30.6841C23.9975 30.4962 24.0197 30.3349 23.9812 30.1662C23.9487 30.0227 23.8583 29.8437 23.7369 30.0567C23.7162 30.0922 23.7058 30.1337 23.7044 30.1751C23.6999 30.3349 23.7251 30.4947 23.7236 30.6545C23.7221 30.7743 23.7147 30.8957 23.691 31.0126C23.6629 31.1516 23.506 31.2685 23.5297 31.4076C23.543 31.489 23.5297 31.4949 23.6081 31.6562C23.7118 31.8663 23.7858 32.0379 23.7769 32.2658C23.7725 32.3753 23.7532 32.4848 23.7295 32.5928C23.7192 32.6416 23.6807 32.683 23.6718 32.7319C23.6407 32.9005 23.5252 33.0648 23.4645 33.2231C23.4349 33.2971 23.4216 33.3636 23.3979 33.4406C23.3579 33.5693 23.275 34.0102 23.0529 33.8815C22.967 33.8312 22.9167 33.7454 22.8901 33.6492C22.8382 33.4583 22.7983 33.2675 22.7435 33.0796C22.7124 32.976 22.6843 32.8872 22.6502 32.7866C22.6295 32.7245 22.6073 32.7363 22.5791 32.6667C22.5244 32.5321 22.4592 32.396 22.3896 32.2687C22.2993 32.1045 22.1883 31.9403 22.1039 31.7716C22.0772 31.7183 22.0669 31.6591 22.0432 31.6059C21.9928 31.4964 21.9484 31.4624 21.9706 31.3484C21.9899 31.2522 22.0076 31.2537 22.0491 31.2197C22.1305 31.1516 22.2549 31.1072 22.2964 31.0747C22.3748 31.0126 22.4192 30.9312 22.4429 30.8365C22.4548 30.7862 22.4474 30.5524 22.4459 30.5258C22.4385 30.2698 22.44 30.0123 22.4118 29.7579C22.4044 29.6942 22.32 29.6572 22.2993 29.5951C22.2815 29.5403 22.3126 29.4738 22.2904 29.4205C22.2268 29.2681 22.2342 29.2222 22.3689 29.1261C22.4414 29.0743 22.5392 29.0476 22.5984 28.9811C22.6931 28.873 22.668 28.8553 22.7094 28.7946C22.7287 28.7665 22.7701 28.7576 22.7923 28.731C22.8323 28.6822 22.8678 28.6274 22.8945 28.5697C22.9641 28.4232 23.0085 28.2487 23.0514 28.0933C23.0796 27.9942 23.1521 27.8965 23.1329 27.7929C23.1107 27.6701 23.047 27.5577 23.0292 27.4349C23.0011 27.2322 23.044 27.0117 22.9774 26.8149C22.9404 26.7054 22.9004 26.6063 22.8249 26.5175C22.7805 26.4643 22.7524 26.3977 22.7124 26.3414C22.668 26.2793 22.6206 26.2157 22.5865 26.1447C22.5584 26.0899 22.5288 26.0337 22.5184 25.976C22.5066 25.9079 22.5051 25.8724 22.5569 25.828C22.5762 25.8118 22.6073 25.8132 22.631 25.8221C22.7272 25.8621 22.8101 25.9212 22.9108 25.9508C22.9537 25.9627 22.9878 25.9997 23.0307 26.01C23.2084 26.05 23.3831 26.1077 23.5622 26.1373C23.6718 26.1565 23.6748 26.1373 23.7251 26.155C23.805 26.1831 23.8569 26.1979 23.9368 26.2216C24.4698 26.3873 24.877 26.7543 25.2649 27.139C25.4011 27.2736 25.5299 27.4186 25.6528 27.568C25.6794 27.6021 25.6898 27.5932 25.9326 27.8817C26.4315 28.4736 26.852 29.0373 27.1555 29.6572C27.422 30.2047 27.5938 30.7995 27.6338 31.5053C27.6915 32.5499 27.1748 33.7898 26.7232 34.719C26.4923 35.1939 26.2761 35.697 26.1532 36.2134C26.1236 36.3376 26.1132 36.4027 26.0925 36.527C26.0155 36.9709 25.9844 37.292 25.7905 37.7033C25.7431 37.8054 25.7194 37.9119 25.7164 38.0244C25.709 38.3085 25.6187 38.3558 25.521 38.6118C25.4988 38.668 25.521 38.6725 25.5092 38.7553C25.5003 38.8086 25.4603 38.8544 25.4529 38.9077C25.4203 39.14 25.3937 39.3738 25.3063 39.5913C25.2723 39.6771 25.2649 39.6801 25.1908 39.7333C25.099 39.7984 25.0013 39.7585 24.9732 39.6594C24.9377 39.5306 24.9628 39.4004 24.9199 39.2732C24.9081 39.2362 24.874 39.2081 24.8622 39.1726C24.8207 39.0409 24.8844 38.9491 24.9021 38.8189C24.9199 38.6858 24.8888 38.5511 24.8814 38.418C24.8784 38.3736 24.8814 38.3277 24.874 38.2848C24.8607 38.2138 24.8089 38.1502 24.7496 38.2167C24.7097 38.2641 24.7171 38.3366 24.7037 38.3973C24.6904 38.4579 24.6726 38.5186 24.6682 38.5807C24.6519 38.8796 24.5438 39.1592 24.572 39.4596C24.5838 39.5809 24.646 39.686 24.68 39.8044C24.6949 39.8547 24.7348 39.8931 24.7526 39.9434C24.7718 39.9967 24.7644 40.0588 24.7881 40.1106C24.9184 40.3977 24.8755 40.4125 25.1198 40.1994C25.2027 40.1269 25.3078 40.081 25.3596 40.2556C25.3878 40.3488 25.3804 40.4509 25.3744 40.5486C25.367 40.6936 25.3715 40.698 25.3345 40.7839C25.2382 41.0117 25.0428 41.173 24.9258 41.389C24.8888 41.4556 24.9125 41.463 24.8947 41.534C24.8533 41.6923 24.8059 41.8521 24.7778 42.0134C24.7689 42.0652 24.7304 42.1081 24.72 42.1584C24.6889 42.3212 24.6297 42.4958 24.5912 42.6585C24.4772 43.132 24.2833 43.6143 24.2522 44.0967C24.2181 44.6116 24.1234 44.7536 24.0345 44.9622C24.0049 45.0318 23.9753 45.1087 23.9487 45.2093C23.8539 45.563 24.0138 45.4268 23.7665 45.776C23.6303 45.9669 23.583 46.1415 23.7132 46.4063C23.7828 46.5484 23.919 46.6549 23.9812 46.8014C24.0612 46.9893 23.9797 47.0588 23.7932 47.0944C23.6881 47.1136 23.5815 47.1106 23.4764 47.1151L23.4749 47.1136ZM22.098 38.4697C21.9854 38.4727 21.9099 38.4446 21.8315 38.3617C21.7856 38.3129 21.7663 38.2966 21.7589 38.2611C21.7145 38.0362 21.7219 37.8113 21.6908 37.5835C21.6686 37.4222 21.6553 37.2609 21.6331 37.0996C21.6271 37.0597 21.6138 37.0626 21.6079 37.0049C21.5872 36.7564 21.562 36.5093 21.5102 36.2622C21.4717 36.0758 21.4169 35.8878 21.448 35.6999C21.4732 35.5431 21.676 35.4736 21.8107 35.3996C21.8981 35.3522 21.8892 35.3374 21.9499 35.3152C22.0683 35.2708 22.1572 35.2043 22.2801 35.2649C22.3112 35.2797 22.3423 35.299 22.3659 35.3241C22.5125 35.4721 22.5821 35.7251 22.7583 35.8375C22.8412 35.8893 22.9123 35.8849 22.9315 35.7843C22.9522 35.6807 22.8767 35.6082 22.816 35.5283C22.7302 35.4129 22.5821 35.2398 22.6487 35.0859C22.665 35.0474 22.6946 35.0134 22.7287 34.9897C22.7716 34.9601 22.8323 34.9572 22.8767 34.9276C22.93 34.8921 22.9641 34.8329 23.0189 34.7974C23.0366 34.7855 23.0648 34.7826 23.0855 34.7944C23.1329 34.8196 23.1862 34.8536 23.1965 34.9083C23.2469 35.1436 23.2217 35.148 23.2484 35.2694C23.2809 35.4232 23.3031 35.5727 23.3372 35.7251C23.352 35.7931 23.4083 35.8479 23.4245 35.9145C23.4453 35.9944 23.4541 36.0654 23.463 36.1453C23.4764 36.2829 23.5015 36.4235 23.4852 36.5611C23.4719 36.6765 23.4186 36.7845 23.3727 36.891C23.1773 37.3497 22.9374 37.8084 22.6043 38.1812C22.4518 38.3529 22.326 38.4638 22.0965 38.4683L22.098 38.4697ZM22.4311 36.6691C22.4133 36.6691 22.2623 36.6217 22.2046 36.5921C22.092 36.5344 22.0521 36.4457 22.0328 36.3273C22.0076 36.1778 21.981 35.8005 22.1675 35.7576C22.283 35.731 22.3852 35.8464 22.4637 35.9293C22.591 36.0669 22.7568 36.2444 22.7331 36.4397C22.7183 36.5714 22.6576 36.5847 22.5406 36.6395C22.5066 36.6558 22.4696 36.6691 22.4311 36.6691ZM22.2445 37.2047C22.1601 37.2017 22.0772 37.1337 22.1365 37.0523C22.2031 36.962 22.3748 36.9206 22.4355 37.0464C22.4429 37.0626 22.4296 37.0863 22.4148 37.0982C22.3645 37.1411 22.3112 37.2062 22.246 37.2047H22.2445ZM23.2054 34.5148C23.0707 34.5118 22.9759 34.3698 23.0648 34.247C23.1121 34.1819 23.1965 34.1567 23.2558 34.102C23.3031 34.0591 23.3431 34.0088 23.3801 33.957C23.6155 33.6315 23.8036 33.3133 23.8554 32.902C23.8613 32.8517 23.8954 32.8073 23.8998 32.757C23.9072 32.6771 23.885 32.5972 23.8939 32.5173C23.919 32.2909 23.885 32.0394 23.8302 31.816C23.7917 31.6591 23.7814 31.4964 23.7858 31.3366C23.7917 31.165 23.9738 30.9578 24.1174 31.1235C24.2181 31.2375 24.1515 31.4091 24.1855 31.5556C24.2226 31.7094 24.264 31.6976 24.2759 31.7967C24.3069 32.0453 24.3292 32.2983 24.3158 32.5484C24.307 32.7111 24.2388 32.8576 24.1841 33.0085C24.1367 33.1387 24.0286 33.2527 23.996 33.3888C23.9457 33.5959 23.8983 33.8282 23.7947 34.0161C23.7858 34.0309 23.7947 34.0531 23.7843 34.0679C23.6629 34.278 23.4571 34.5177 23.201 34.5133L23.2054 34.5148ZM22.283 34.9853C22.092 34.9601 21.8981 35.0282 21.7115 34.9853C21.5753 34.9542 21.5383 34.7589 21.4895 34.6435C21.4524 34.5577 21.4672 34.463 21.4362 34.3742C21.3503 34.1301 21.294 33.8771 21.2022 33.6344C21.143 33.4791 21.0912 33.3267 21.0216 33.1772C20.9594 33.0426 20.9032 32.905 20.8321 32.7718C20.6677 32.467 20.3627 32.2465 20.2487 31.9136C20.2369 31.8811 20.2339 31.8426 20.2428 31.8101C20.2902 31.6532 20.4723 31.6281 20.6144 31.6443C20.7921 31.6651 20.9357 31.7893 21.0364 31.9432C21.143 32.106 21.1933 32.2909 21.2392 32.4774C21.2851 32.6608 21.3073 32.8399 21.3518 33.0219C21.3858 33.1609 21.4761 33.2971 21.5872 33.3873C21.6301 33.4228 21.6671 33.4302 21.6938 33.3814C21.7944 33.1979 21.716 32.9479 21.6508 32.76C21.6079 32.6342 21.522 32.5188 21.451 32.4078C21.3888 32.3116 21.334 32.2096 21.2733 32.1119C21.2526 32.0779 21.26 32.032 21.2407 31.9965C21.14 31.8086 21.0719 31.5955 21.1445 31.3913C21.1919 31.2596 21.2155 31.2685 21.2422 31.2478C21.297 31.2049 21.3562 31.162 21.4199 31.1339C21.5309 31.0836 21.6686 31.0629 21.7189 31.1931C21.7323 31.2271 21.7234 31.2685 21.7382 31.3026C21.7959 31.4328 21.8078 31.4268 21.8181 31.4742C21.83 31.5319 21.8241 31.5911 21.8403 31.6488C21.8774 31.7805 21.9129 31.9077 21.9514 32.0379C22.0076 32.2243 22.0861 32.3901 22.1616 32.5721C22.2519 32.791 22.3304 33.013 22.3911 33.2408C22.4089 33.3089 22.4696 33.3651 22.477 33.4051C22.5051 33.5412 22.551 33.6596 22.6013 33.7883C22.6443 33.8993 22.6606 33.9629 22.6946 34.0753C22.7716 34.3343 22.8323 34.6953 22.625 34.898C22.5777 34.9453 22.5051 34.9601 22.44 34.9749C22.3896 34.9868 22.3363 34.9927 22.2845 34.9868L22.283 34.9853ZM20.6618 34.8699C20.5345 34.861 20.4812 34.8181 20.499 34.6953C20.5138 34.6006 20.6085 34.5488 20.6559 34.4659C20.7122 34.3683 20.7225 34.2484 20.8084 34.173C20.8676 34.1212 20.9787 34.1227 21.0349 34.173C21.1697 34.2914 21.2985 34.4482 21.2215 34.6287C21.183 34.7175 21.1667 34.7071 21.1534 34.7219C21.1193 34.7559 21.0793 34.787 21.0349 34.8092C20.9135 34.8699 20.7951 34.8817 20.6618 34.8714V34.8699ZM20.5685 35.4321C20.4797 35.4277 20.3938 35.3848 20.3435 35.3078C20.3154 35.2649 20.3139 35.2161 20.3228 35.1643C20.3346 35.0977 20.379 35.0519 20.4383 35.0223C20.5597 34.9616 20.7655 34.9409 20.8913 34.9971C21.032 35.0607 21.0556 35.0874 21.0408 35.2457C21.0216 35.4573 20.7284 35.4395 20.5685 35.4321ZM28.8271 28.4987C28.5339 28.4395 28.3148 28.1392 28.0661 27.9912C27.77 27.8151 27.4206 27.6908 27.1481 27.4793C27.1022 27.4423 27.0711 27.4038 27.0504 27.3668C27.0075 27.2899 26.9631 27.2144 26.9335 27.133C26.892 27.0147 26.892 27.0147 26.8861 26.9792C26.8728 26.9022 26.8565 26.8208 26.8742 26.7439C26.895 26.6448 26.9586 26.5885 27.0563 26.5693C27.2044 26.5412 27.3584 26.556 27.5094 26.5575C27.7611 26.5604 28.0172 26.5708 28.2571 26.6477C28.3933 26.6921 28.4984 26.7572 28.5887 26.8667C28.6938 26.994 28.7605 27.173 28.9026 27.2588C29.0284 27.3343 29.1795 27.3653 29.3053 27.4423C29.4504 27.531 29.5304 27.7352 29.5259 27.9024C29.523 27.9942 29.4919 28.0829 29.4622 28.1717C29.446 28.2205 29.4238 28.2679 29.3912 28.3064C29.326 28.3833 29.2683 28.4484 29.1721 28.4736C29.061 28.5031 28.9411 28.5179 28.8286 28.4957L28.8271 28.4987ZM28.8019 28.0134C28.7619 28.0193 28.7279 27.9853 28.6909 27.972C28.5798 27.932 28.4673 27.898 28.38 27.8181C28.26 27.7086 28.1623 27.5843 28.0202 27.5C27.9254 27.4438 27.8499 27.426 27.7418 27.3846C27.5923 27.3298 27.4028 27.3121 27.5479 27.1419C27.5701 27.1153 27.5908 27.0857 27.5982 27.0517C27.6056 27.0176 27.5982 26.9836 27.5923 26.9496C27.5864 26.9244 27.5583 26.9067 27.5805 26.8919C27.6352 26.8504 27.7226 26.8711 27.7937 26.8948C27.8869 26.9244 27.9847 26.9806 28.0128 27.062C28.038 27.133 28.0128 27.173 28.0735 27.2159C28.152 27.2706 28.2586 27.2795 28.3311 27.3431C28.3829 27.389 28.3622 27.4689 28.3933 27.5296C28.4096 27.5592 28.4377 27.5799 28.4658 27.6006C28.4969 27.6228 28.7101 27.7175 28.8256 27.8166C28.9159 27.895 28.9544 27.9927 28.799 28.0149L28.8019 28.0134ZM26.7972 27.6524C26.6447 27.6524 26.59 27.5296 26.5145 27.4082C26.4449 27.2973 26.3427 27.207 26.2835 27.0901C26.2613 27.0457 26.2568 26.9851 26.2761 26.9392C26.359 26.738 26.6492 26.7025 26.7484 26.9007C26.8046 27.0161 26.8121 27.133 26.8831 27.2425C26.9216 27.3017 26.9009 27.3121 26.9438 27.4097C27.0238 27.5902 26.9823 27.6524 26.7987 27.6524H26.7972ZM18.1375 27.8432C17.9835 27.8063 17.9154 27.6376 17.8369 27.5029C17.7969 27.4349 17.7688 27.3579 17.754 27.281C17.7362 27.1819 17.7407 27.0886 17.7614 26.9969C17.7703 26.9555 17.7733 26.9022 17.8117 26.8726C17.8947 26.806 17.9687 26.8416 18.022 26.9289C18.1079 27.0665 18.213 27.2041 18.2885 27.3476C18.3507 27.4645 18.3299 27.6672 18.2796 27.787C18.2544 27.8492 18.2026 27.8595 18.1375 27.8447V27.8432ZM19.5484 31.452C19.4863 31.4416 19.4818 31.4431 19.4196 31.3958C19.1768 31.2138 18.9488 30.983 18.7919 30.7196C18.7119 30.5864 18.5861 30.4666 18.5372 30.3186C18.5076 30.2313 18.5654 30.1573 18.5061 30.0819C18.4439 30.002 18.3566 29.9561 18.3299 29.857C18.3211 29.823 18.3181 29.786 18.324 29.7519C18.3388 29.678 18.3803 29.635 18.3803 29.5936C18.3803 29.49 18.3107 29.4087 18.2944 29.3081C18.2826 29.2415 18.2604 29.169 18.284 29.1053C18.3477 28.9293 18.4913 28.9914 18.6009 29.0876C18.6734 29.1512 18.6956 29.1912 18.706 29.2193C18.7267 29.2785 18.7297 29.345 18.7549 29.4042C18.7756 29.4531 18.7978 29.4442 18.8126 29.5182C18.8467 29.6898 18.8526 29.8718 18.9044 30.039C18.9518 30.1899 19.0154 30.3423 19.1102 30.4695C19.1635 30.5406 19.162 30.5435 19.2005 30.582C19.3752 30.7536 19.6091 30.8646 19.7513 31.0658C19.8446 31.199 19.8446 31.3751 19.6713 31.4431C19.6328 31.4579 19.5884 31.4594 19.5484 31.4535V31.452ZM21.4539 30.801C21.4125 30.7891 21.4021 30.7832 21.3962 30.7462C21.3547 30.5095 21.3118 30.2787 21.2614 30.0405C21.2318 29.9014 21.146 29.7889 21.0853 29.6602C21.0142 29.5122 20.9624 29.3465 20.8676 29.2119C20.7832 29.0905 20.65 28.9959 20.6026 28.8568C20.5685 28.7591 20.613 28.657 20.6322 28.5549C20.6559 28.4277 20.647 28.2886 20.7743 28.2339C20.8291 28.2102 20.8869 28.2161 20.9402 28.2398C20.9831 28.259 21.0172 28.2975 21.0527 28.3286C21.0645 28.3389 21.0764 28.3537 21.0838 28.3685C21.1771 28.5401 21.2304 28.7236 21.294 28.9086C21.3118 28.9618 21.3518 28.9929 21.3858 29.0343C21.5102 29.1793 21.6153 29.3613 21.6642 29.5448C21.6923 29.6513 21.6982 29.7534 21.7189 29.8599C21.753 30.0301 21.7708 30.2106 21.7397 30.3793C21.713 30.5228 21.6775 30.6693 21.5768 30.7788C21.5472 30.8113 21.4969 30.8143 21.4539 30.8024V30.801ZM21.9129 30.0183C21.8729 29.9931 21.8448 29.9576 21.8226 29.9162C21.7574 29.7934 21.7619 29.6158 21.7648 29.493C21.7648 29.4634 21.7796 29.4323 21.8004 29.4116C21.8981 29.3169 22.0047 29.3421 22.0358 29.4649C22.0683 29.5966 22.092 29.7327 22.0832 29.8659C22.0787 29.931 22.0476 29.9739 21.9914 30.0094C21.9692 30.0242 21.9351 30.0316 21.9129 30.0168V30.0183ZM21.9854 30.7729C21.8241 30.7344 21.8285 30.4977 21.8359 30.3512C21.8403 30.2668 21.8537 30.1633 21.944 30.1485C22.0639 30.1278 22.1424 30.2461 22.1735 30.3793C22.1986 30.4829 22.1942 30.5938 22.1616 30.656C22.1172 30.7403 22.0728 30.7951 21.984 30.7729H21.9854ZM22.1157 28.8198C22.1009 28.8183 22.0876 28.8065 22.0772 28.7946C21.9884 28.6925 21.9514 28.6481 22.0432 28.5239C22.1039 28.4425 22.1483 28.3507 22.1853 28.2561C22.2149 28.1821 22.2475 28.1066 22.2312 28.0282C22.2223 27.9823 22.1809 27.9468 22.1735 27.901C22.1587 27.8211 22.1542 27.7397 22.1601 27.6598C22.1646 27.6109 22.2016 27.5695 22.2046 27.5207C22.2297 27.1907 22.1957 26.8475 22.1513 26.5205C22.135 26.3962 22.0698 26.2867 22.0417 26.1624C22.0358 26.1328 22.0239 26.1062 22.0121 26.0796C21.9973 26.0485 21.9662 26.013 21.941 25.973C21.8981 25.9064 21.8507 25.8221 21.907 25.7718C21.9262 25.754 21.9617 25.76 21.9869 25.7659C22.0358 25.7792 22.0758 25.8147 22.1157 25.8487C22.2623 25.9686 22.363 26.1624 22.4266 26.3222C22.4755 26.448 22.5051 26.5338 22.5362 26.667C22.5747 26.8386 22.6088 27.0028 22.6532 27.173C22.6931 27.3254 22.7198 27.318 22.7287 27.3698C22.7731 27.6361 22.7968 27.9098 22.7849 28.1791C22.7805 28.2679 22.7331 28.3507 22.6931 28.4321C22.6191 28.5816 22.477 28.6748 22.3186 28.731C22.2623 28.7517 22.2401 28.7931 22.2001 28.8079C22.1735 28.8183 22.1439 28.8198 22.1157 28.8168V28.8198ZM21.4598 28.4588C21.3399 28.4499 21.334 28.3596 21.2837 28.2605C21.2688 28.2324 21.2348 28.2146 21.2215 28.1865C21.1297 27.9986 20.9194 27.9261 20.9816 27.6982C21.0172 27.571 21.103 27.4704 21.1252 27.3402C21.1415 27.2425 21.1104 27.1404 21.1223 27.0428C21.1386 26.9081 21.1563 26.7838 21.1859 26.6507C21.2155 26.5146 21.368 26.4258 21.3932 26.2897C21.4125 26.1935 21.334 26.121 21.2955 26.0307C21.2762 25.9834 21.2644 25.9138 21.254 25.8487C21.2437 25.7822 21.2289 25.7052 21.2733 25.6712C21.334 25.6238 21.3903 25.6401 21.4287 25.7052C21.4865 25.8058 21.4954 25.9272 21.5502 26.0293C21.6005 26.1254 21.6864 26.1846 21.7189 26.2867C21.7471 26.3725 21.7411 26.4643 21.7722 26.5501C21.8048 26.6433 21.8433 26.735 21.8907 26.8223C21.9395 26.9141 21.9543 26.9081 21.9617 26.9422C22.015 27.1967 22.0165 27.46 22.0225 27.719C22.0254 27.8225 21.9914 27.8832 21.9706 27.9808C21.9307 28.1776 21.7944 28.3626 21.6168 28.4425C21.5694 28.4632 21.5131 28.4647 21.4613 28.4617L21.4598 28.4588ZM26.1621 27.7959C26.0244 27.7693 26.0244 27.7619 25.977 27.7323C25.906 27.6879 25.8171 27.6287 25.7461 27.5577C25.6424 27.4541 25.5743 27.3298 25.6483 27.1981C25.7253 27.062 25.7949 27.0591 25.9504 27.0901C26.1547 27.1301 26.3842 27.3032 26.436 27.5148C26.473 27.6701 26.4863 27.7219 26.3383 27.7826C26.2835 27.8048 26.2198 27.8063 26.1636 27.7959H26.1621ZM19.202 43.8377C19.0584 43.8289 18.9621 43.7741 18.9473 43.6188C18.9148 43.2814 18.9266 42.9603 18.9666 42.623C18.974 42.5609 18.9577 42.4957 18.9695 42.4351C18.9947 42.3078 19.0184 42.185 19.0539 42.0607C19.1368 41.7707 18.9888 41.4571 18.8792 41.1967C18.8289 41.0768 18.7786 40.9629 18.7312 40.8416C18.6749 40.6995 18.595 40.5604 18.5654 40.4095C18.5357 40.2571 18.4928 40.0766 18.5402 39.9286C18.6157 39.686 18.7608 39.4759 18.9651 39.319C19.0909 39.2229 19.2553 39.1829 19.2834 39.3827C19.3086 39.5602 19.236 39.7437 19.2982 39.9138C19.3382 40.0233 19.4315 40.1328 19.5573 40.3992C19.5914 40.4731 19.5899 40.553 19.5766 40.6329C19.547 40.8134 19.5173 40.809 19.5099 40.9599C19.5011 41.1316 19.6772 41.2055 19.7764 41.3328C19.8786 41.4645 19.849 41.6805 19.849 41.8432C19.849 41.9291 19.8549 41.9305 19.8001 42.1377C19.7838 42.2013 19.7202 42.2871 19.7039 42.3715C19.6921 42.4366 19.6891 42.5224 19.7542 42.5372C19.8446 42.5579 19.8594 42.3951 19.889 42.3315C19.9423 42.2131 20.0326 42.1155 20.0859 41.9971C20.1259 41.9054 20.1599 41.8077 20.1614 41.7071C20.1614 41.6361 20.1525 41.5636 20.1303 41.497C20.0814 41.352 19.9719 41.2795 19.8786 41.1597C19.8386 41.1079 19.8149 41.0443 19.7972 40.9821C19.7868 40.9436 19.7824 40.9022 19.7913 40.8637C19.809 40.7794 19.8283 40.7187 19.8446 40.6344C19.8549 40.5737 19.8919 40.5323 19.8756 40.4731C19.7942 40.1905 19.846 39.899 19.7468 39.6298C19.6995 39.501 19.621 39.3871 19.584 39.2554C19.5632 39.1829 19.584 39.1015 19.5662 39.029C19.5129 38.8337 19.4004 39.0601 19.2953 39.0912C19.1842 39.1223 19.1398 39.1134 19.1043 39.0083C19.0865 38.9536 19.0924 38.8944 19.0954 38.8382C19.1072 38.6488 19.1961 38.5245 19.3486 38.4194C19.4552 38.3455 19.6106 38.2626 19.6284 38.1294C19.6536 37.943 19.5958 37.7921 19.7365 37.6545C19.809 37.5835 19.9127 37.6634 19.9526 37.7492C19.9674 37.7788 20.0341 38.7627 20.0504 38.8589C20.0622 38.9299 20.0844 39.1163 20.1288 39.3664C20.1451 39.4611 20.1777 39.5528 20.1954 39.6475C20.2665 40.0352 20.3257 40.4169 20.3864 40.8046C20.4057 40.9348 20.4412 40.9274 20.4738 41.099C20.5241 41.3668 20.5715 41.6361 20.5493 41.9069C20.536 42.0696 20.3642 42.1791 20.2784 42.3167C20.2177 42.4144 20.2428 42.5105 20.2295 42.6245C20.2177 42.7384 20.188 42.8479 20.1436 42.9529C20.1051 43.0417 20.1111 43.0491 20.0237 43.1557C19.8401 43.3791 19.6491 43.5981 19.433 43.7904C19.3708 43.8466 19.2908 43.8377 19.2079 43.8318L19.202 43.8377ZM20.2177 44.6338C20 44.5776 20.0518 44.4518 20.0119 44.2432C19.9896 44.1307 19.8756 44.0715 19.8416 43.9665C19.7661 43.7312 19.8001 43.5389 20.037 43.4323C20.0637 43.4205 20.0948 43.419 20.1229 43.4279C20.2621 43.4708 20.3657 43.5892 20.4323 43.7194C20.4486 43.7505 20.4486 43.7889 20.4634 43.8215C20.5315 43.9635 20.6011 44.0937 20.5967 44.2506C20.5952 44.3112 20.5789 44.3734 20.5537 44.4296C20.5167 44.5139 20.4353 44.6012 20.342 44.6234C20.302 44.6323 20.2591 44.6441 20.2191 44.6338H20.2177ZM19.279 45.6621C19.1339 45.6221 19.051 45.5423 19.125 45.3899C19.1739 45.2863 19.2583 45.2108 19.3175 45.1146C19.3293 45.0954 19.3367 45.0717 19.3412 45.0481C19.3678 44.8779 19.3767 44.7492 19.4463 44.5879C19.4833 44.5036 19.4685 44.4473 19.4537 44.3556C19.4374 44.2594 19.4107 44.1958 19.4981 44.1603C19.6017 44.1204 19.7039 44.1573 19.8001 44.2136C19.8238 44.2269 19.8475 44.2535 19.852 44.2816C19.8756 44.4518 19.8075 44.6397 19.9319 44.761C20.0089 44.8365 20.1377 44.8113 20.1644 44.9267C20.1866 45.02 20.1259 45.0925 20.0652 45.162C19.9956 45.2434 19.8653 45.3943 19.6772 45.5452C19.6165 45.5926 19.5484 45.631 19.4744 45.6473C19.4108 45.6606 19.3426 45.6784 19.2805 45.6621H19.279ZM11.8984 47.1935C11.6156 47.0796 11.3654 46.8709 11.1463 46.6682C11.0663 46.5942 11.0871 46.5291 11.1004 46.4226C11.1063 46.3753 11.1063 46.3264 11.093 46.2821C11.0723 46.2095 11.0382 46.1459 10.9893 46.0897C10.9745 46.0719 10.9701 46.0631 10.8827 46.0616C10.7702 46.0601 10.6518 46.1045 10.5422 46.1089C10.4312 46.1134 10.3142 46.1001 10.2476 45.9965C10.218 45.9491 10.215 45.8914 10.2061 45.8367C10.1987 45.7893 10.1958 45.7405 10.1987 45.6917C10.2328 45.1294 10.1706 44.5997 10.067 44.0464C10.0285 43.8392 10.0196 43.6291 9.98256 43.422C9.9337 43.1453 9.8582 42.8819 9.79749 42.6082C9.75012 42.3996 9.73975 42.3937 9.76196 42.3034C9.78121 42.2265 9.84635 42.2205 9.9189 42.2398C9.99145 42.259 10.0684 42.3034 10.1114 42.3286C10.2446 42.4085 10.3823 42.444 10.5289 42.4943C10.6459 42.5342 10.7628 42.626 10.7776 42.7502C10.8206 43.1231 10.8398 43.4989 10.8694 43.8733C10.8798 44.0094 10.8827 44.147 10.9168 44.2787C10.9479 44.3956 10.9967 44.4962 11.0382 44.6101C11.1152 44.8217 11.3165 44.9415 11.435 45.128C11.5135 45.2523 11.4661 45.3928 11.4957 45.5334C11.5031 45.5674 11.5194 45.6 11.5416 45.6296C11.5727 45.6725 11.66 45.7316 11.7267 45.8086C11.7563 45.8426 11.7459 45.85 11.8111 45.9595C11.8436 46.0128 11.8806 46.066 11.928 46.1075C11.9887 46.1607 12.045 46.1977 12.1264 46.1992C12.273 46.2007 12.347 46.0483 12.4773 45.9921C12.5632 45.9551 12.6949 45.9447 12.8015 45.9639C12.8859 45.9787 12.9688 46.0157 12.9925 46.1045C13.0073 46.1607 13.0207 46.2317 12.9896 46.2821C12.8726 46.4714 12.7112 46.6283 12.5824 46.8088C12.4773 46.9553 12.5114 46.9775 12.4151 47.0973C12.2671 47.2837 12.1116 47.2793 11.8999 47.195L11.8984 47.1935ZM12.9851 47.9052C12.7764 47.843 12.5558 47.7617 12.4181 47.5974C12.2715 47.4243 12.3485 47.3222 12.4788 47.1506C12.5957 46.9982 12.6298 46.9523 12.6979 46.8798C12.7793 46.7925 12.8771 46.6889 12.9822 46.6194C13.1495 46.5084 13.2753 46.5203 13.3967 46.652C13.4841 46.7466 13.5196 46.8872 13.5389 47.0145C13.5537 47.1077 13.5611 47.2053 13.5537 47.3015C13.5477 47.3888 13.5107 47.4702 13.5018 47.5575C13.49 47.664 13.4841 47.7617 13.4367 47.8356C13.3301 48.0028 13.1436 47.954 12.9851 47.9067V47.9052ZM16.3919 49.9204C16.2527 49.6585 16.4333 49.3463 16.4837 49.077C16.5015 48.9853 16.5311 48.9557 16.614 48.9113C16.6821 48.8743 16.7976 48.8654 16.8642 48.9054C17.0448 49.0178 17.0937 49.1983 17.3187 49.1007C17.3868 49.0711 17.5186 48.9587 17.4179 48.9009C17.2936 48.8284 17.1263 48.8447 17.0048 48.7633C16.876 48.6775 16.7176 48.5606 16.8109 48.4038C16.8938 48.2647 17.0404 48.1922 17.1573 48.0812C17.2684 47.9762 17.3187 47.7853 17.2832 47.6344C17.2447 47.4702 17.1529 47.2068 17.2521 47.0514C17.2891 46.9923 17.3187 46.9272 17.3335 46.8591C17.3617 46.7289 17.3543 46.6016 17.4564 46.5099C17.6489 46.3383 17.7007 46.1637 17.7955 45.9269C17.8606 45.7657 17.9998 45.634 18.0634 45.4712C18.1079 45.3603 18.1019 45.2389 18.1789 45.1442C18.29 45.0081 18.4217 45.1058 18.5209 45.2123C18.5802 45.2759 18.6305 45.3558 18.6853 45.3958C18.7934 45.4757 18.937 45.5319 18.9695 45.6695C18.9784 45.708 18.9873 45.7494 18.9755 45.7879C18.9562 45.8574 18.9177 45.921 18.8807 45.9817C18.7667 46.1726 18.6142 46.3486 18.5491 46.5617C18.4928 46.7481 18.4706 46.8221 18.4647 46.9301C18.4558 47.1047 18.4884 47.2793 18.4854 47.4539C18.4839 47.6078 18.4173 47.667 18.2781 47.7454C18.1138 47.8371 17.9835 47.9303 17.8902 48.102C17.8517 48.1715 17.7851 48.2544 17.8117 48.3298C17.9035 48.5873 18.1345 48.8876 18.0235 49.1643C17.9598 49.3241 17.7214 49.3996 17.5778 49.4736C17.4757 49.5268 17.3691 49.5919 17.2684 49.6452C17.1085 49.7325 16.9486 49.8242 16.7857 49.91C16.6451 49.984 16.4837 50.095 16.3889 49.9174L16.3919 49.9204ZM17.7836 47.1609C17.7436 47.1313 17.7096 47.0958 17.7007 47.0559C17.6741 46.9494 17.7333 46.9212 17.8369 46.8946C17.9035 46.8769 17.9791 46.8635 18.0398 46.8739C18.099 46.8843 18.1449 46.9168 18.1523 46.9923C18.1567 47.0396 18.1345 47.0855 18.099 47.1239C17.9909 47.2438 17.9109 47.2527 17.7836 47.1595V47.1609ZM22.7065 48.0369C22.625 48.0309 22.5703 48.0058 22.5347 47.9303C22.5184 47.8963 22.5184 47.8534 22.5288 47.8179C22.5555 47.7173 22.6117 47.6255 22.6428 47.5264C22.6931 47.371 22.6546 47.3592 22.7272 47.1654C22.7657 47.0618 22.9152 47.0766 23.0085 47.1225C23.124 47.1787 23.2143 47.2645 23.3416 47.2793C23.5104 47.3 23.6999 47.2201 23.7532 47.4036C23.8006 47.5693 23.7325 47.7202 23.5844 47.812C23.4467 47.8978 23.2898 47.9362 23.1329 47.9777C23.0697 47.9944 23.0228 48.0058 22.9922 48.0117C22.8989 48.028 22.8027 48.0428 22.7065 48.0369ZM12.5321 33.6581C12.5099 33.6063 12.4995 33.5456 12.4877 33.4835C12.4581 33.3311 12.578 33.1491 12.7023 33.3104C12.766 33.3918 12.763 33.5175 12.7334 33.63C12.6949 33.7779 12.6224 33.8637 12.5321 33.6581ZM12.7172 37.218C12.7927 37.0508 12.8696 36.8836 12.9422 36.7149C12.954 36.6853 12.9688 36.6543 12.9703 36.6232C12.9733 36.5211 12.9437 36.4427 12.9289 36.3421C12.9067 36.1838 13.0444 36.129 13.1732 36.1897C13.3197 36.2577 13.3079 36.3125 13.3123 36.4782C13.3123 36.496 13.3109 36.5152 13.302 36.53C13.1613 36.8022 13.0503 37.0908 12.8548 37.326C12.6787 37.5361 12.6076 37.4621 12.7172 37.2195V37.218ZM10.3749 41.7411C10.3483 41.7441 10.3009 41.719 10.2579 41.6953C10.1854 41.6583 10.1188 41.5873 10.2076 41.5518C10.3098 41.5118 10.3912 41.537 10.4475 41.4438C10.5022 41.352 10.5452 41.2603 10.5511 41.2262C10.5748 41.1094 10.5822 41.1108 10.6029 40.9895C10.6251 40.8623 10.6029 40.7409 10.6207 40.6226C10.6592 40.371 10.8132 40.4347 10.788 40.6773C10.7613 40.9215 10.8457 41.1656 10.7154 41.3949C10.6266 41.5518 10.5659 41.7175 10.3749 41.7426V41.7411ZM10.7539 39.4581C10.6577 39.4537 10.5496 39.4211 10.48 39.3501C10.4623 39.3324 10.4475 39.3102 10.443 39.2865C10.4327 39.2317 10.4608 39.1829 10.4948 39.143C10.6162 38.9921 10.6518 39.0616 10.7495 39.1977C10.8072 39.2791 10.8176 39.2732 10.8576 39.2939C10.8857 39.3087 10.9938 39.3161 10.9849 39.3546C10.9627 39.4433 10.8368 39.4611 10.7539 39.4566V39.4581ZM8.30953 21.9485C8.30805 21.9145 8.31101 21.876 8.33618 21.839C8.53606 21.5239 8.7004 21.3108 8.74334 21.2294C8.76999 21.1791 8.79368 21.1303 8.80552 21.0874C8.82181 21.0326 8.81885 20.9705 8.73149 20.9557C8.6471 20.9409 8.61453 20.9838 8.57011 21.04C8.42798 21.2176 8.34803 21.4425 8.21182 21.623C8.15556 21.697 8.14963 21.694 8.11114 21.7133C8.0149 21.7606 7.89942 21.7813 7.80318 21.728C7.64476 21.6422 7.36938 21.4055 7.47746 21.2161C7.5811 21.0326 7.72768 21.2694 7.86685 21.2856C7.99121 21.3004 8.07561 21.1717 8.13631 21.0726C8.17332 21.0134 8.24587 20.8832 8.26956 20.7722C8.28585 20.6968 8.28437 20.605 8.21034 20.5932C8.10226 20.5754 8.05636 20.6775 7.96012 20.7367C7.855 20.8003 7.73212 20.7545 7.61219 20.7752C7.45229 20.8018 7.44489 20.9231 7.34421 21.0386C7.27907 21.1125 7.18431 21.1318 7.08956 21.1066C7.04366 21.0948 7.00664 21.0622 6.98444 21.0193C6.90597 20.861 7.08363 20.6376 7.15766 20.5029C7.21392 20.4008 7.21244 20.3979 7.22725 20.3239C7.25242 20.1848 7.2687 20.0591 7.32348 19.9303C7.39455 19.7631 7.56926 19.7099 7.72471 19.6211C7.86537 19.5412 7.95272 19.3903 8.06672 19.2763C8.2133 19.1284 8.39393 19.0219 8.53902 18.8754C8.60713 18.8073 8.6471 18.7097 8.72113 18.6446C8.76851 18.6031 8.84105 18.5942 8.89583 18.6268C8.96838 18.6712 8.96838 18.6712 9.00392 18.7052C9.24229 18.936 9.45549 19.371 9.50582 19.5885C9.55616 19.806 9.59614 19.7513 9.61242 19.8948C9.62871 20.0383 9.6524 20.281 9.64056 20.4334C9.62871 20.5858 9.64056 20.5976 9.54284 20.8077C9.4466 21.0178 9.20675 21.4218 8.92693 21.6215C8.89287 21.6467 8.90028 21.6555 8.68856 21.839C8.64414 21.8775 8.57603 21.9308 8.52422 21.9737C8.45167 22.0343 8.31694 22.1172 8.30805 21.95L8.30953 21.9485ZM14.1326 15.0506C14.0807 15.0476 14.026 15.0269 14.0023 14.9796C13.9223 14.8257 13.9534 14.6171 13.9682 14.4484C13.9741 14.3818 13.9919 14.3152 14.023 14.2575C14.0659 14.1776 14.1429 14.1939 14.1977 14.2531C14.2258 14.2842 14.2288 14.333 14.248 14.3744C14.3265 14.552 14.4464 14.7206 14.5619 14.8642C14.5827 14.8893 14.5827 14.9352 14.5664 14.9648C14.5412 15.0107 14.5294 15.0047 14.5086 15.0077C14.3828 15.0195 14.2614 15.058 14.134 15.0506H14.1326ZM9.80638 13.7412C9.68497 13.7145 9.58874 13.6124 9.56209 13.4881C9.52655 13.3254 9.57393 13.2914 9.73975 13.318C9.85227 13.3357 9.90261 13.4097 9.92778 13.5177C9.96184 13.6672 9.9648 13.7737 9.80638 13.7397V13.7412ZM9.70126 14.2131C9.55764 14.1939 9.38886 14.1258 9.46289 13.9587C9.51323 13.8447 9.70126 13.864 9.79749 13.9202C9.83007 13.9394 9.86116 13.9705 9.86708 14.009C9.89225 14.1421 9.84635 14.2324 9.69978 14.2131H9.70126ZM12.0983 15.7401C12.0213 15.7283 11.9769 15.6839 11.9354 15.638C11.8199 15.5122 11.8466 15.4427 11.931 15.311C12.0035 15.1986 12.1027 15.1053 12.1975 15.0121C12.2685 14.9411 12.3381 14.8671 12.4255 14.8168C12.5158 14.765 12.6209 14.7369 12.6964 14.8183C12.732 14.8553 12.729 14.8612 12.732 14.8878C12.7512 15.1483 12.6861 15.3391 12.5217 15.5477C12.461 15.6262 12.3929 15.7016 12.2937 15.7253C12.23 15.7401 12.1634 15.749 12.0998 15.7401H12.0983ZM17.067 17.5408C16.7132 17.4801 16.6584 17.0732 16.5503 16.7906C16.5399 16.764 16.5325 16.7285 16.5474 16.7033C16.5962 16.6205 16.6525 16.5302 16.7739 16.4444C17.0552 16.2491 17.372 16.1204 17.6711 15.9546C17.6844 15.9472 17.6933 15.9339 17.7081 15.928C17.9124 15.8407 18.1138 15.7357 18.324 15.6617C18.4543 15.6158 18.8096 15.641 18.7578 15.4353C18.7223 15.2962 18.5283 15.2785 18.6261 15.1142C18.6586 15.058 18.703 15.0092 18.7534 14.9663C18.8067 14.9204 18.8659 14.8775 18.9325 14.8494C19.1591 14.7562 19.4063 14.731 19.6358 14.6437C19.775 14.5904 19.9127 14.475 20.0504 14.5712C20.1022 14.6067 20.1407 14.66 20.1821 14.7088C20.2043 14.7354 20.2251 14.7636 20.2384 14.7961C20.4101 15.2163 20.536 15.6528 20.4309 16.1041C20.4086 16.1958 20.4012 16.2136 20.3494 16.2846C20.2191 16.4577 20.0193 16.4518 19.8149 16.508C19.6847 16.5435 19.5677 16.5672 19.4448 16.619C19.3249 16.6693 19.242 16.7803 19.1324 16.8498C19.1058 16.8661 19.0702 16.8661 19.0436 16.8809C18.8689 16.977 18.6764 17.0673 18.4928 17.1428C18.29 17.2271 18.0901 17.3425 17.8769 17.3899C17.7436 17.4194 17.603 17.3987 17.4697 17.4239C17.3839 17.4402 17.2743 17.5156 17.2477 17.5201C17.1899 17.5304 17.1307 17.5496 17.0729 17.5393L17.067 17.5408ZM13.5744 10.5067C13.5167 10.5053 13.4782 10.4964 13.4634 10.4416C13.4515 10.3943 13.5122 10.3588 13.5596 10.3336C13.607 10.3085 13.6647 10.3011 13.7032 10.2818C13.8054 10.2315 13.8527 10.1561 13.9549 10.199C13.9786 10.2093 13.9949 10.2375 13.9978 10.2626C14.0008 10.2907 13.989 10.3233 13.9697 10.3455C13.912 10.4135 13.8424 10.4638 13.755 10.4875C13.6958 10.5038 13.6336 10.5097 13.5744 10.5067ZM12.7305 16.2964C12.6683 16.2964 12.6135 16.2565 12.5617 16.2224C12.3263 16.0656 12.1175 15.8659 11.8836 15.7046C11.7666 15.6232 11.6186 15.53 11.5386 15.4146C11.4616 15.3036 11.4735 15.2947 11.4483 15.2163C11.4261 15.1468 11.438 15.1409 11.4172 15.1201C11.2396 14.9322 11.0352 14.7488 10.8753 14.5475C10.8132 14.4691 10.8117 14.4499 10.7791 14.4114C10.6799 14.296 10.6207 14.1199 10.5926 13.972C10.5689 13.8477 10.5718 13.7989 10.5763 13.6731C10.5881 13.3934 10.6444 13.2144 10.7939 12.9851C10.9227 12.7883 11.1433 12.6063 11.3832 12.5767C11.469 12.5663 11.5238 12.5945 11.7074 12.5663C11.774 12.556 11.8096 12.4672 11.851 12.5279C11.8792 12.5663 11.8333 12.6314 11.8584 12.6714C11.9354 12.7898 12.1131 12.6714 12.2226 12.63C12.2685 12.6122 12.31 12.63 12.3381 12.6655C12.4062 12.7513 12.4388 12.8874 12.5321 12.951C12.7423 13.0931 12.92 13.0768 13.0355 13.3239C13.0991 13.46 13.1228 13.5858 13.2265 13.6938C13.2457 13.7145 13.2783 13.7278 13.3079 13.7293C13.4086 13.7352 13.5122 13.7367 13.6099 13.713C13.7772 13.6731 13.9194 13.5458 14.0067 13.3949C14.0437 13.3313 14.1296 13.2085 14.2229 13.1434C14.2791 13.1034 14.3458 13.0753 14.3991 13.1153C14.4361 13.1434 14.4213 13.1922 14.4035 13.2322C14.3798 13.2825 14.3295 13.3298 14.3088 13.3713C14.2747 13.4423 14.2406 13.5222 14.2377 13.6006C14.2303 13.7382 14.2347 13.8773 14.2599 14.0119C14.2717 14.08 14.2806 14.08 14.4316 14.3138C14.4909 14.4055 14.5738 14.4854 14.6389 14.5742C14.7011 14.66 14.7218 14.6955 14.7677 14.7828C14.8358 14.9145 14.7959 15.0698 14.8477 15.206C14.8728 15.2696 14.9484 15.2711 14.9942 15.2548C15.0401 15.2385 15.0801 15.1941 15.0905 15.1216C15.1068 15.0047 15.1453 14.8864 15.2193 14.7946C15.2815 14.7162 15.2963 14.7236 15.2963 14.7088C15.2992 14.6496 15.277 14.6082 15.2652 14.5786C15.2223 14.481 15.2267 14.4558 15.394 14.4943C15.5184 14.5224 15.6353 14.4987 15.7434 14.4573C16.0262 14.3478 16.2024 14.1762 16.2675 13.8773C16.2883 13.7826 16.3016 13.682 16.2868 13.5651C16.2809 13.5089 16.2631 13.4423 16.2705 13.3816C16.2853 13.2514 16.3726 13.1848 16.4733 13.2914C16.5029 13.3239 16.5311 13.3624 16.5459 13.4068C16.5622 13.4541 16.5784 13.5029 16.5799 13.5547C16.5844 13.7737 16.5592 13.969 16.5192 14.1673C16.4718 14.407 16.4008 14.5756 16.2438 14.7636C16.2127 14.8005 16.1757 14.8331 16.1032 14.802C15.9551 14.7399 15.7242 14.586 15.5939 14.7399C15.4917 14.8597 15.471 14.9973 15.4443 15.1527C15.4355 15.203 15.4369 15.2518 15.4266 15.3021C15.4118 15.3658 15.3703 15.422 15.3585 15.4871C15.3259 15.6558 15.2341 15.8185 15.0535 15.817C15.0179 15.817 14.9454 15.8037 14.8817 15.7741C14.8215 15.7465 14.7751 15.7233 14.7426 15.7046C14.6389 15.6454 14.5841 15.5492 14.5086 15.4575C14.4361 15.3702 14.4183 15.3317 14.3102 15.3761C14.1725 15.4323 14.0837 15.5611 14.0378 15.7061C14.02 15.7623 14.0245 15.8259 14.0112 15.8836C14.0023 15.9176 13.9964 15.9561 13.9741 15.9842C13.9682 15.9901 13.9549 15.9916 13.9505 15.9842C13.912 15.9324 13.9282 15.8688 13.9075 15.8096C13.8764 15.7209 13.8394 15.6735 13.7521 15.638C13.721 15.6247 13.6825 15.6321 13.6499 15.6439C13.5374 15.6839 13.4382 15.7401 13.3464 15.817C13.188 15.9502 13.2057 15.9694 13.0029 16.1707C12.9096 16.2639 12.8563 16.2994 12.7305 16.2994V16.2964ZM13.1021 12.0159C13.0547 12.013 13.0014 12.0041 12.9481 12.0071C12.8741 12.0115 12.8371 12.0337 12.8163 11.9567C12.8104 11.9331 12.8312 11.9109 12.8415 11.8902C12.9866 11.609 12.9851 11.6046 13.0059 11.5913C13.0769 11.5425 13.1436 11.578 13.1702 11.649C13.2072 11.7526 13.2117 11.8576 13.1865 11.9656C13.1776 12.0056 13.1391 12.0174 13.1021 12.0159ZM15.3955 24.8589C15.3244 24.8441 15.3392 24.7657 15.3126 24.702C15.2178 24.4801 15.1408 24.2537 15.0564 24.0273C15.0061 23.8912 15.0313 23.8838 14.9913 23.7847C14.9558 23.6944 14.8862 23.5761 14.8743 23.4621C14.8699 23.4104 14.858 23.3467 14.898 23.3171C14.9513 23.2801 15.0076 23.3512 15.0416 23.4178C15.0757 23.4829 15.1038 23.5613 15.1112 23.6012C15.126 23.6782 15.1201 23.7566 15.1364 23.8335C15.1527 23.9105 15.1971 23.9696 15.2252 24.0421C15.2445 24.0954 15.24 24.1561 15.2607 24.2093C15.3274 24.3884 15.4325 24.5615 15.4962 24.742C15.5228 24.816 15.4725 24.8752 15.3955 24.8589ZM14.2865 21.4943C14.2244 21.3774 14.2229 21.2102 14.2332 21.0696C14.2362 21.0371 14.2332 21.003 14.2451 20.9749C14.2762 20.9054 14.3265 20.9424 14.365 20.9897C14.3887 21.0193 14.4198 21.0474 14.4257 21.0755C14.4479 21.1776 14.4687 21.3212 14.4538 21.441C14.4376 21.5801 14.3532 21.62 14.2851 21.4943H14.2865ZM20.1259 25.8354C20.1096 25.8325 20.0888 25.828 20.0814 25.8118C20.0696 25.7836 20.1081 25.7289 20.1421 25.6756C20.1866 25.6076 20.2443 25.5395 20.2591 25.5084C20.3154 25.393 20.3701 25.2761 20.459 25.1844C20.4812 25.1622 20.5034 25.1533 20.5315 25.1711C20.5641 25.1933 20.5656 25.2184 20.5508 25.2554C20.5167 25.3427 20.4693 25.4552 20.4175 25.5617C20.3776 25.6446 20.3302 25.723 20.2695 25.7733C20.2399 25.7984 20.2073 25.8191 20.1703 25.828C20.1555 25.831 20.1392 25.8369 20.1244 25.8339L20.1259 25.8354ZM12.4803 20.8876C12.3485 20.8151 12.3959 20.7175 12.4847 20.6109C12.7246 20.3195 12.954 20.0487 13.1347 19.7173C13.2146 19.5708 13.2931 19.4213 13.3775 19.2763C13.4693 19.1195 13.4944 19.013 13.5507 18.8517C13.601 18.7082 13.6751 18.723 13.7195 18.8325C13.7299 18.8576 13.7091 18.9641 13.6854 19.0618C13.6632 19.1506 13.6158 19.2127 13.5877 19.3C13.5078 19.5486 13.3627 19.8001 13.225 20.0176C13.1051 20.207 12.9866 20.4008 12.8578 20.5828C12.7705 20.7071 12.7053 20.8122 12.5661 20.8788C12.541 20.8906 12.5054 20.9009 12.4817 20.8876H12.4803ZM11.6541 21.3404C11.5179 21.3138 11.6127 21.2043 11.6837 21.1244C11.74 21.0607 11.8036 20.9927 11.8866 20.9749C12.0346 20.9424 12.1338 20.9616 12.119 21.1288C12.1072 21.2531 12.0243 21.2975 11.9443 21.3197C11.8644 21.3404 11.7637 21.3626 11.6541 21.3404ZM11.2114 20.8255C11.1774 20.8255 11.1344 20.8255 11.1122 20.7989C11.0589 20.7338 11.1241 20.6613 11.1729 20.6109C11.3136 20.4674 11.4439 20.3121 11.6112 20.1981C11.7888 20.0768 11.814 20.2618 11.7429 20.386C11.6423 20.5606 11.475 20.7293 11.3017 20.8048C11.2736 20.8166 11.2425 20.827 11.2114 20.827V20.8255ZM11.0945 20.0398C11.2322 19.7824 11.4942 19.6344 11.7355 19.4776C11.8969 19.3725 11.9576 19.3977 11.8466 19.5797C11.7385 19.7572 11.5712 19.9244 11.4305 20.0517C11.3891 20.0886 11.3121 20.1478 11.2855 20.1567C11.1759 20.1967 11.0027 20.2115 11.093 20.0398H11.0945ZM10.6962 19.266C10.7406 19.1358 10.7776 18.9952 10.8709 18.8976C10.9627 18.8014 11.0323 18.7496 11.1566 18.8073C11.2218 18.8384 11.2884 18.8769 11.3328 18.936C11.4231 19.0529 11.2011 19.0485 11.1122 19.0766C10.9642 19.1225 10.8872 19.226 10.7984 19.3385C10.7776 19.3651 10.7643 19.3977 10.7362 19.4199C10.5985 19.5234 10.6755 19.3237 10.6962 19.266ZM11.6793 18.3827C11.5993 18.3797 11.5223 18.3472 11.4646 18.2909C11.3165 18.1474 11.3269 18.1371 11.2188 17.9728C11.1892 17.9284 11.1877 17.8826 11.2114 17.8352C11.2647 17.7242 11.4128 17.6236 11.5327 17.5955C11.5668 17.5881 11.6038 17.5837 11.6378 17.5896C11.7222 17.6059 11.7888 17.6547 11.8703 17.6813C11.9399 17.7035 12.0716 17.6858 12.0583 17.7731C12.0391 17.9018 12.0257 18.0172 12.0065 18.1459C11.9976 18.2036 11.9991 18.2125 11.9354 18.2747C11.8569 18.3501 11.7888 18.3871 11.6793 18.3841V18.3827ZM12.1427 19.0455C12.0272 19.0411 12.122 18.8769 12.1664 18.8088C12.2226 18.7215 12.4181 18.4759 12.4699 18.6771C12.5173 18.8576 12.313 19.0529 12.1427 19.0455ZM12.6831 17.995C12.7112 17.9284 12.7749 17.8604 12.8326 17.813C12.9185 17.7435 13.0029 17.7834 12.9777 17.9048C12.9629 17.9758 12.9007 18.0542 12.8415 18.106C12.7438 18.1888 12.6224 18.1444 12.6831 17.9965V17.995ZM13.2635 17.5408C13.1613 17.5319 13.0295 17.4431 13.0799 17.3292C13.1095 17.2611 13.185 17.1783 13.259 17.1945C13.3701 17.2167 13.4249 17.267 13.4263 17.378C13.4278 17.4875 13.3656 17.5496 13.2635 17.5422V17.5408ZM13.225 18.5291C13.1643 18.5365 13.1243 18.464 13.1036 18.4063C13.0754 18.3279 13.1643 18.1548 13.2561 18.0483C13.4382 17.8367 13.3952 18.0187 13.4012 18.1149C13.4101 18.2835 13.4086 18.507 13.2235 18.5291H13.225ZM13.0962 16.8306C12.9999 16.8098 12.9748 16.7403 13.0473 16.6604C13.108 16.5938 13.2235 16.6885 13.2057 16.761C13.1909 16.8172 13.1554 16.8439 13.0962 16.8306ZM12.5987 16.8764C12.498 16.8557 12.5025 16.8365 12.4625 16.8069C12.2908 16.6796 12.1146 16.5568 11.9028 16.5065C11.8525 16.4947 11.814 16.4503 11.7622 16.4355C11.5371 16.3748 11.3032 16.3009 11.1033 16.181C11.0782 16.1662 11.0634 16.1351 11.0604 16.107C11.0367 15.8599 11.4498 16.1011 11.5135 16.1366C11.7207 16.2535 11.9428 16.3453 12.1471 16.4666C12.2759 16.542 12.4447 16.5983 12.5617 16.6974C12.6002 16.7314 12.6342 16.7684 12.6579 16.8143C12.6727 16.8424 12.6298 16.8809 12.5987 16.875V16.8764ZM9.9263 14.8183C9.68941 14.7843 9.9796 14.5475 10.0832 14.5786C10.1336 14.5934 10.1306 14.6082 10.1336 14.6245C10.1454 14.731 10.0196 14.8316 9.9263 14.8183ZM18.5417 19.2083C18.3847 19.1713 18.2559 19.0263 18.0945 19.0071C17.8029 18.973 17.4993 19.0056 17.2106 19.0529C17.0359 19.0825 16.9056 19.2231 16.7354 19.2719C16.6806 19.2867 16.6421 19.2601 16.6554 19.2068C16.6865 19.0929 16.8642 19.05 16.9649 19.0071C17.0182 18.9849 17.0892 18.9538 17.1277 18.9227C17.2106 18.8547 17.2121 18.8532 17.2713 18.7777C17.3853 18.6298 17.4061 18.5795 17.5897 18.6253C17.6874 18.6505 17.7777 18.683 17.8784 18.6815C18.0857 18.6786 18.2914 18.6712 18.4972 18.649C18.5446 18.6446 18.589 18.6253 18.632 18.6031C18.7238 18.5528 19.2346 18.3131 19.0895 18.6031C18.9977 18.7881 18.8481 18.942 18.7193 19.1032C18.6557 19.1831 18.6335 19.2305 18.5402 19.2083H18.5417ZM15.4577 13.5754C15.4325 13.5 15.4132 13.4171 15.431 13.3476C15.4606 13.2351 15.5554 13.2144 15.6427 13.284C15.6783 13.3121 15.7271 13.3461 15.7271 13.3949C15.7271 13.463 15.6827 13.5355 15.6442 13.5962C15.5406 13.7604 15.5006 13.7027 15.4577 13.574V13.5754ZM15.5717 12.8105C15.5746 12.7809 15.5835 12.7498 15.5954 12.7202C15.6102 12.6847 15.6309 12.6581 15.6531 12.6388C15.7197 12.5841 15.8012 12.6078 15.773 12.7306C15.7656 12.7631 15.7553 12.8001 15.7345 12.8371C15.6797 12.9348 15.5554 12.957 15.5702 12.809L15.5717 12.8105ZM12.5987 28.3892C12.5957 28.3433 12.6031 28.2945 12.5898 28.2516C12.5706 28.1954 12.538 28.1466 12.504 28.0992C12.3959 27.9542 12.2656 27.8033 12.2389 27.6302C12.2271 27.5518 12.2197 27.46 12.273 27.3831C12.3529 27.2677 12.4817 27.4201 12.5676 27.5621C12.6194 27.6479 12.6698 27.7278 12.6801 27.7648C12.7083 27.864 12.7586 27.9453 12.7853 28.0445C12.8089 28.1288 12.8149 28.2191 12.7986 28.3049C12.7853 28.3789 12.7556 28.4514 12.7186 28.5165C12.5839 28.7517 12.612 28.6052 12.5972 28.3892H12.5987ZM18.7119 38.3366C18.672 38.3351 18.6601 38.3011 18.672 38.2537C18.6912 38.1709 18.7563 38.1058 18.7889 38.0273C18.82 37.9548 18.8481 37.8794 18.8674 37.8025C18.8792 37.7581 18.8378 37.7551 18.8644 37.5036C18.8822 37.3453 19.011 37.2284 19.0628 37.0789C19.0969 36.9783 19.125 36.8762 19.1368 36.7697C19.1487 36.6661 19.162 36.5847 19.1798 36.4826C19.1872 36.4442 19.1724 36.4042 19.1798 36.3658C19.1946 36.2918 19.2375 36.2237 19.2464 36.1483C19.2553 36.0654 19.2523 35.9796 19.2331 35.8982C19.2153 35.8257 19.128 35.7473 19.1428 35.6748C19.1724 35.5313 19.2286 35.444 19.1753 35.3049C19.1354 35.2013 19.1324 35.2028 19.0036 34.9956C18.9059 34.8403 18.897 34.8092 19.0347 34.6923C19.1013 34.6346 19.1753 34.5873 19.2449 34.534C19.4359 34.3875 19.6343 34.2381 19.7779 34.0443C19.8934 33.8904 19.886 33.8845 19.8979 33.8637C19.96 33.7498 20.0222 33.5397 20.1599 33.5545C20.2946 33.5693 20.2132 33.7276 20.157 33.8327C20.1495 33.8475 20.1318 33.9007 20.0578 33.9703C19.9171 34.099 19.8993 34.0798 19.8386 34.1523C19.7483 34.2573 19.7705 34.389 19.7528 34.5207C19.7365 34.642 19.618 34.5991 19.5159 34.6317C19.3308 34.6923 19.3426 34.75 19.3723 34.9409C19.3841 35.0164 19.4182 35.003 19.4581 35.1051C19.5099 35.2339 19.547 35.367 19.5825 35.5002C19.6017 35.5727 19.6491 35.6363 19.6654 35.7103C19.6965 35.8494 19.6802 35.9071 19.7217 36.0447C19.775 36.2193 19.6565 36.3465 19.6091 36.5063C19.5869 36.5818 19.6195 36.5862 19.6003 36.7016C19.581 36.8126 19.5544 36.8999 19.5262 37.0109C19.4951 37.1322 19.4404 37.2432 19.3604 37.3379C19.2597 37.4607 19.1087 37.5509 19.0302 37.6915C19.0199 37.7092 19.0436 37.7122 19.0258 37.8542C19.011 37.9711 18.9266 38.0333 18.8585 38.1309C18.8185 38.1871 18.78 38.341 18.7119 38.3381V38.3366ZM18.1286 35.0149C17.9716 34.9956 17.9746 34.9128 18.0116 34.8225C18.0235 34.7944 18.0338 34.7574 18.0575 34.7175C18.1612 34.5518 18.2426 34.3727 18.3492 34.21C18.3758 34.17 18.4203 34.1434 18.4454 34.102C18.5357 33.9629 18.5224 33.8164 18.5579 33.6551C18.5994 33.4672 18.78 33.3873 18.86 33.6063C18.8896 33.6862 18.8881 33.7765 18.8733 33.8608C18.8526 33.9777 18.8319 34.0857 18.78 34.1907C18.6971 34.3579 18.6912 34.3565 18.6305 34.426C18.5505 34.5177 18.4395 34.5843 18.3714 34.6864C18.3003 34.7944 18.2678 35.0326 18.1271 35.0149H18.1286ZM16.121 36.3273C16.0617 36.2799 16.0069 36.2222 15.9507 36.1704C15.9433 36.1645 15.9418 36.1542 15.9359 36.1497C15.9329 36.1468 15.927 36.1497 15.924 36.1497C15.7153 35.9426 15.4725 35.7695 15.2918 35.5372C15.2178 35.4425 15.1586 35.3374 15.0949 35.2368C15.0505 35.1673 15.015 35.1125 14.9794 35.04C14.938 34.9572 14.8492 34.898 14.8314 34.8077C14.781 34.5488 14.8373 34.2573 14.744 34.0088C14.6981 33.8889 14.6493 33.7912 14.6152 33.6655C14.6004 33.6122 14.4864 33.3562 14.5989 33.3829C14.7337 33.4154 14.8136 33.556 14.8566 33.6832C14.8817 33.7572 14.8566 33.8401 14.8758 33.9155C14.9128 34.0724 14.9439 34.1937 14.9898 34.3446C15.0209 34.4511 15.1142 34.531 15.1616 34.6346C15.2 34.719 15.1956 34.8225 15.2282 34.9098C15.314 35.1421 15.4799 35.3463 15.6561 35.5209C15.924 35.7887 15.9078 35.8065 15.9507 35.8287C16.0736 35.8938 16.1698 35.7813 16.1387 35.6674C16.0973 35.5194 15.9907 35.4617 16.0484 35.3138C16.0854 35.2161 16.0795 35.2087 16.1461 35.1362C16.232 35.0415 16.3164 35.0149 16.4363 34.9794C16.5044 34.9587 16.5651 34.9143 16.6332 34.8906C16.7013 34.8669 16.7013 34.8654 16.7354 34.8595C16.9678 34.8181 17.1973 34.7101 17.2847 34.4837C17.3084 34.4245 17.2965 34.355 17.3143 34.2943C17.3587 34.139 17.3572 34.0679 17.4875 33.951C17.5749 33.8741 17.677 33.7883 17.677 33.6655C17.677 33.4228 17.603 33.1476 17.7022 32.9183C17.7274 32.8591 17.7584 32.8014 17.7984 32.7496C17.8932 32.6253 17.9865 32.4729 18.1419 32.4448C18.2204 32.43 18.2174 32.5587 18.1952 32.6534C18.173 32.7466 18.1375 32.8487 18.1167 32.8917C18.0161 33.0944 17.8665 33.3252 17.8458 33.556C17.8414 33.6019 17.8058 33.6418 17.8014 33.6877C17.7866 33.8327 17.7673 33.9614 17.7392 34.1064C17.6963 34.3224 17.6518 34.5192 17.4742 34.6405C17.3809 34.7042 17.3602 34.6539 17.2699 34.6908C17.1292 34.7486 17.0478 34.8965 16.9441 35.006C16.9116 35.04 16.8686 35.0681 16.8242 35.0844C16.7724 35.1022 16.7132 35.0859 16.6628 35.1066C16.5429 35.154 16.5385 35.151 16.4541 35.222C16.3889 35.2768 16.3371 35.3345 16.3312 35.4203C16.3164 35.6881 16.3667 35.9559 16.3889 36.2237C16.4082 36.4442 16.3193 36.4841 16.1298 36.3332L16.121 36.3273ZM15.3392 33.4302C15.1675 33.4006 15.1926 33.2112 15.2045 33.0529C15.2134 32.9508 15.2593 32.8547 15.2933 32.757C15.3392 32.6238 15.3925 32.4996 15.505 32.4123C15.6072 32.3324 15.7301 32.3087 15.7641 32.4463C15.8115 32.6342 15.5643 32.7452 15.5228 32.9212C15.4932 33.05 15.508 33.1935 15.4532 33.3133C15.4162 33.3932 15.4206 33.4421 15.3392 33.4287V33.4302ZM13.3982 32.6889C13.3153 32.6727 13.2502 32.6016 13.2072 32.5277C13.182 32.4833 13.151 32.433 13.1643 32.3812C13.1909 32.2761 13.2724 32.2584 13.339 32.2776C13.4056 32.2968 13.487 32.3546 13.5122 32.433C13.5344 32.504 13.5537 32.6209 13.4767 32.6653C13.453 32.6786 13.4249 32.6919 13.3997 32.686L13.3982 32.6889ZM15.9166 31.9654C15.8604 31.9536 15.8441 31.9195 15.8396 31.8944C15.8352 31.8692 15.8396 31.8308 15.8752 31.7879C15.9137 31.742 15.9729 31.7598 16.0055 31.7879C16.038 31.8175 16.0677 31.8766 16.0321 31.9195C16.004 31.9521 15.9596 31.9743 15.9181 31.9639L15.9166 31.9654ZM16.3934 31.6488C16.3342 31.6281 16.2557 31.5748 16.2586 31.5053C16.2586 31.4845 16.2705 31.4653 16.2823 31.4505C16.4052 31.2996 16.423 31.3129 16.6229 31.0377C16.7324 30.8883 16.8153 30.7669 16.9515 30.6382C16.9915 30.5997 16.9945 30.548 17.0167 30.4977C17.0833 30.3423 17.0848 30.1795 17.0744 30.002C17.0641 29.817 17.1529 29.6439 17.1958 29.4634C17.2092 29.4072 17.2388 29.3243 17.2965 29.3258C17.3809 29.3288 17.3765 29.385 17.3646 29.4708C17.3528 29.5477 17.3054 29.5981 17.3291 29.672C17.3853 29.8392 17.3765 29.894 17.3439 30.0686C17.3217 30.1855 17.3143 30.292 17.2906 30.4089C17.2669 30.5228 17.1692 30.6012 17.144 30.7152C17.1351 30.7536 17.1573 30.7951 17.144 30.832C17.0744 31.0244 16.9264 31.1383 16.7472 31.2449C16.5992 31.3336 16.5755 31.5363 16.4319 31.6369C16.42 31.6443 16.4052 31.6532 16.3934 31.6488ZM13.3316 31.1679C13.2413 31.1502 13.2146 31.1043 13.2205 31.0466C13.2265 30.9889 13.2635 30.9193 13.299 30.8557C13.3627 30.7388 13.4426 30.7314 13.5107 30.8439C13.5522 30.9134 13.5374 31.0155 13.49 31.088C13.453 31.1442 13.3967 31.1797 13.3316 31.1679ZM13.225 31.8411C13.2043 31.8411 13.1835 31.8234 13.1732 31.8056C13.1406 31.742 13.1125 31.6562 13.111 31.5807C13.111 31.5053 13.1361 31.4416 13.2161 31.4209C13.3168 31.3958 13.3553 31.4564 13.3686 31.5526C13.3804 31.6458 13.336 31.7228 13.2886 31.8041C13.2768 31.8249 13.2502 31.8397 13.225 31.8397V31.8411ZM13.7387 30.5036C13.5596 30.4769 13.5862 30.3645 13.6647 30.2535C13.7002 30.2032 13.7461 30.1544 13.7891 30.1144C13.8557 30.0508 13.9416 30.0079 14.0112 29.9443C14.0896 29.8703 14.1311 29.7652 14.2081 29.6913C14.2747 29.6262 14.2984 29.6454 14.328 29.5773C14.4035 29.4101 14.4198 29.2444 14.5664 29.129C14.7322 28.9959 14.9409 28.9189 15.1038 28.7843C15.166 28.734 15.2119 28.6659 15.2652 28.6052C15.4221 28.4247 15.5805 28.2901 15.8026 28.1865C15.9226 28.1303 16.0336 28.0667 16.1491 28.0001C16.1846 27.9794 16.2216 27.9587 16.2498 27.9291C16.3149 27.8625 16.3223 27.864 16.3667 27.7648C16.4171 27.6539 16.4378 27.5547 16.5133 27.4585C16.574 27.3816 16.654 27.3224 16.7161 27.247C16.7472 27.2085 16.7546 27.2144 16.8064 27.1256C16.9145 26.9392 16.916 26.9007 16.9589 26.812C17.0004 26.7247 17.0374 26.6388 17.0804 26.553C17.0937 26.5264 17.1085 26.4924 17.1366 26.4835C17.2032 26.4628 17.2358 26.556 17.2329 26.6107C17.2314 26.6492 17.2151 26.6847 17.2047 26.7217C17.1884 26.7824 17.184 26.8416 17.1707 26.9067C17.144 27.0339 17.0818 27.1523 17.0196 27.2662C17.0093 27.2854 16.7916 27.4526 16.7828 27.4911C16.7828 27.497 16.7694 27.4941 16.7665 27.4985C16.4911 27.9039 16.5044 27.9143 16.4126 28.0149C16.2868 28.151 16.1372 28.2723 15.9729 28.3596C15.4236 28.6481 15.3022 28.657 14.9187 29.2015C14.7825 29.3953 14.5442 29.4886 14.3739 29.6498C14.2288 29.7874 14.1696 29.9828 14.0704 30.1573C13.9904 30.2979 13.906 30.5317 13.7358 30.5051L13.7387 30.5036ZM15.8826 27.355C15.7982 27.3609 15.7553 27.2766 15.773 27.1907C15.8382 26.8697 15.8559 26.8726 15.9048 26.7365C15.9344 26.6522 15.9877 26.5767 16.0084 26.4909C16.0469 26.3296 15.9388 26.1461 15.9033 25.9863C15.8915 25.9331 15.9107 25.8739 15.8885 25.8251C15.8189 25.6667 15.81 25.6697 15.773 25.6031C15.7404 25.5454 15.6916 25.5055 15.6605 25.4596C15.6205 25.4004 15.5805 25.3309 15.6294 25.2539C15.6472 25.2258 15.6916 25.2155 15.7256 25.2184C15.7715 25.2229 15.8071 25.2599 15.8441 25.288C15.9759 25.3871 16.0528 25.5469 16.1032 25.7008C16.1432 25.8206 16.1757 25.9168 16.2053 26.0396C16.2246 26.121 16.2157 26.1846 16.2053 26.2689C16.1979 26.3252 16.1728 26.377 16.1683 26.4332C16.1624 26.5146 16.1891 26.5989 16.1743 26.6788C16.1461 26.8342 16.1224 26.8282 16.1091 26.9289C16.0884 27.0886 16.0588 27.3431 15.8826 27.355ZM17.603 41.1493C17.4653 41.133 17.2314 41.2425 17.1766 41.1079C17.1026 40.9215 17.3691 40.9895 17.5008 40.9303C17.6918 40.846 17.7081 40.6196 17.7496 40.4213C17.7644 40.3503 17.8117 40.1964 17.9021 40.2689C17.9169 40.2808 17.9332 40.3 17.9332 40.3207C17.9317 40.4361 17.8947 40.5471 17.8665 40.661C17.8399 40.7676 17.8606 40.8741 17.8251 40.9747C17.794 41.062 17.7007 41.1597 17.6045 41.1493H17.603Z" fill="black"/>
<path fill-rule="evenodd" clip-rule="evenodd" d="M13.5091 53.6309C14.1013 53.6309 14.6684 53.7862 15.1836 54.0659C15.7003 54.3455 16.1667 54.7509 16.559 55.2525C16.9514 55.7526 17.2697 56.3489 17.4903 57.0118C17.7109 57.6732 17.8323 58.4011 17.8323 59.1661C17.8323 59.931 17.7094 60.6575 17.4903 61.3189C17.2697 61.9803 16.9514 62.5766 16.559 63.0781C16.1667 63.5782 15.7003 63.9837 15.1836 64.2648C14.6669 64.5444 14.1013 64.6998 13.5091 64.6998C12.9169 64.6998 12.338 64.5444 11.8183 64.2648C11.2986 63.9851 10.8293 63.5797 10.434 63.0781C10.0401 62.578 9.72034 61.9818 9.49974 61.3189C9.27914 60.6575 9.15625 59.9295 9.15625 59.1646C9.15625 58.3996 9.27914 57.6731 9.49974 57.0103C9.72034 56.3489 10.0401 55.7526 10.434 55.251C10.8278 54.7509 11.2971 54.3455 11.8183 54.0644C12.338 53.7848 12.9109 53.6294 13.5091 53.6294V53.6309ZM14.5766 54.5763C14.852 54.8545 15.0237 55.2407 15.0237 55.6668V62.6313C15.0237 63.0574 14.852 63.451 14.5766 63.7351C14.2775 64.0458 13.8881 64.1982 13.4987 64.1982C13.1093 64.1982 12.7185 64.0428 12.4179 63.7351C12.1396 63.4495 11.9663 63.0574 11.9663 62.6313V55.6668C11.9663 55.2407 12.1381 54.8545 12.4179 54.5763C12.717 54.2775 13.1079 54.1265 13.4987 54.1265C13.8896 54.1265 14.2805 54.2745 14.5766 54.5763Z" fill="black"/>
<path fill-rule="evenodd" clip-rule="evenodd" d="M31.7474 53.6309C32.3396 53.6309 32.9066 53.7862 33.4219 54.0659C33.9386 54.3455 34.405 54.7509 34.7973 55.2525C35.1897 55.7526 35.508 56.3489 35.7286 57.0118C35.9492 57.6732 36.0706 58.4011 36.0706 59.1661C36.0706 59.931 35.9492 60.6575 35.7286 61.3189C35.508 61.9803 35.1897 62.5766 34.7973 63.0781C34.405 63.5782 33.9386 63.9837 33.4219 64.2648C32.9052 64.5444 32.3396 64.6998 31.7474 64.6998C31.1551 64.6998 30.5762 64.5444 30.0566 64.2648C29.5369 63.9851 29.0676 63.5797 28.6723 63.0781C28.2784 62.578 27.9586 61.9818 27.738 61.3189C27.5174 60.6575 27.3945 59.9295 27.3945 59.1646C27.3945 58.3996 27.5174 57.6731 27.738 57.0103C27.9586 56.3489 28.2784 55.7526 28.6723 55.251C29.0661 54.7509 29.5354 54.3455 30.0566 54.0644C30.5777 53.7848 31.1492 53.6294 31.7474 53.6294V53.6309ZM32.8148 54.5763C33.0902 54.8545 33.262 55.2407 33.262 55.6668V62.6313C33.262 63.0574 33.0902 63.451 32.8148 63.7351C32.5158 64.0458 32.1264 64.1982 31.737 64.1982C31.3476 64.1982 30.9568 64.0428 30.6562 63.7351C30.3779 63.4495 30.2046 63.0574 30.2046 62.6313V55.6668C30.2046 55.2407 30.3764 54.8545 30.6562 54.5763C30.9553 54.2775 31.3461 54.1265 31.737 54.1265C32.1279 54.1265 32.5187 54.2745 32.8148 54.5763Z" fill="black"/>
<path fill-rule="evenodd" clip-rule="evenodd" d="M18.7734 53.7687H23.0597V54.3502H21.9907V63.9794H23.9524C24.7564 63.9794 25.2361 63.3639 25.5203 62.6182C25.8224 61.8236 25.9008 60.8796 25.9127 60.3766H26.3998V64.5609H18.7749V63.9794H19.8439V54.3502H18.7749V53.7687H18.7734Z" fill="black"/>
<path fill-rule="evenodd" clip-rule="evenodd" d="M0.417969 63.9794H1.48693V54.3502H0.417969V53.7687H5.4415C5.87234 53.7687 6.30762 53.8545 6.70885 54.0217C7.06419 54.1711 7.38399 54.3798 7.65345 54.6372C7.78818 54.7659 7.90959 54.905 8.01767 55.0559C8.12427 55.2054 8.21754 55.3666 8.29305 55.5338C8.60397 56.2278 8.60693 57.0194 8.29305 57.7118C8.14203 58.0447 7.92291 58.3466 7.65345 58.6011C7.38399 58.8556 7.06419 59.0642 6.70885 59.2121C6.30762 59.3793 5.87234 59.4651 5.4415 59.4651H3.63522V63.9779H4.70418V64.5594H0.417969V63.9779V63.9794ZM6.06185 55.8505C6.00707 55.5871 5.91972 55.3326 5.79239 55.1107C5.66506 54.8887 5.49924 54.6979 5.28604 54.5632C5.07284 54.4286 4.81374 54.3487 4.50282 54.3487H3.6367V58.8851H4.50282C4.79894 58.8851 5.04767 58.8052 5.25495 58.6706C5.46223 58.536 5.62657 58.3466 5.75538 58.1261C5.88418 57.9071 5.97598 57.6556 6.03816 57.4011C6.09886 57.1496 6.13144 56.8877 6.13588 56.6273C6.14032 56.3654 6.11663 56.1035 6.06333 55.8505H6.06185Z" fill="black"/>
</g>
<defs>
<clipPath id="clip0_518_880">
<rect width="35.6562" height="70" fill="white" transform="translate(0.417969 0.554688)"/>
</clipPath>
</defs>
</svg>
