<svg width="114" height="71" viewBox="0 0 114 71" fill="none" xmlns="http://www.w3.org/2000/svg">
<g clip-path="url(#clip0_518_394)">
<path fill-rule="evenodd" clip-rule="evenodd" d="M61.3324 0.671575C60.9662 0.725875 60.6067 2.09017 59.8946 2.80287C59.3723 3.31193 58.7212 3.28478 58.3753 3.91602C58.2464 4.15359 58.2871 4.55405 58.1379 4.94094C57.8462 5.71472 56.8153 5.7826 56.8153 6.63104C56.8153 7.54736 57.6699 7.71705 58.416 8.36866C58.9993 8.8913 59.0535 9.25104 59.7589 9.50218C60.3625 9.7058 61.2578 9.03384 62.0582 9.27819C62.7161 9.47503 63.3536 9.61757 63.5028 10.2963C63.6317 10.9208 63.4961 11.8914 62.6889 11.7828C62.4176 11.7489 61.2443 11.3552 59.8064 11.5113C58.0701 11.7081 56.0896 12.2783 55.8929 14.2127C55.7844 15.292 57.1273 16.5748 58.416 16.3101C59.3113 16.1336 58.884 15.0815 59.3723 14.5657C60.0099 13.9073 63.6249 16.8599 66.9891 16.8599C68.4066 16.8599 69.4579 16.5001 70.5024 15.4073C70.5973 15.3259 70.7194 15.1426 70.8686 15.1358C71.0111 15.1494 71.262 15.2852 71.3434 15.3463C74.0496 17.5251 76.0979 21.8895 86.0411 21.9438C87.4383 21.9505 89.0322 22.6225 90.3344 23.8103C91.4942 24.8828 92.1725 26.5593 92.8304 28.2494C93.8274 30.7947 95.6112 33.2654 98.3174 36.0211C98.4666 36.1705 100.691 37.9013 100.868 38.0302C100.895 38.0506 101.058 38.4375 101.003 38.6547C100.935 40.3041 100.698 45.1097 104.272 45.3269C105.147 45.3744 104.917 44.7567 104.917 44.3359C104.917 43.501 104.761 42.6661 105.202 41.8109C105.805 40.6367 103.927 40.0937 103.981 37.5483C104.021 35.6478 102.428 35.9736 101.62 34.5279C101.152 33.6862 100.739 33.245 100.773 32.2201C100.956 26.4507 99.545 22.6632 98.8464 21.7333C98.2971 21.0274 97.8426 20.7491 98.3445 20.4301C101.329 18.455 102.007 16.6223 102.007 16.6223C103.594 12.8892 105.019 9.47503 106.992 7.97498C107.386 7.66275 108.403 6.90255 109.027 6.61068C110.865 5.74187 111.828 5.21923 112.364 4.69659C113.205 3.8753 113.876 2.15805 113.063 1.11955C112.059 -0.163294 110.316 0.854839 109.549 1.3096C104.062 4.56763 103.255 10.3167 101.356 13.6154C99.8367 16.2558 97.3746 18.1902 95.1703 18.3464C93.5222 18.4685 91.7384 18.1359 89.9614 17.3554C85.6477 15.4616 83.2874 13.0181 82.7312 12.5905C81.5714 11.6946 72.5778 2.85717 65.2866 2.49743C65.2866 2.49743 64.3846 0.68515 64.154 0.651212C63.6181 0.583337 63.0756 1.73043 62.6822 1.86618C62.3159 1.98836 61.6987 0.617274 61.3257 0.678362L61.3324 0.671575Z" fill="#231F20"/>
<path fill-rule="evenodd" clip-rule="evenodd" d="M29.2356 53.4242C28.5506 53.4039 27.9673 52.8405 27.9673 52.1482V29.3963H20.4727V54.4763C20.4727 55.7048 21.4697 56.7094 22.6905 56.7094H35.7875C37.0152 56.7094 37.9986 55.7048 37.9986 54.4763V29.3963H30.5108V52.155C30.5108 52.8541 29.9207 53.4174 29.2289 53.431L29.2356 53.4242Z" fill="#231F20"/>
<path fill-rule="evenodd" clip-rule="evenodd" d="M54.3338 29.3963H42.9935C41.6506 29.3963 40.5586 30.4891 40.5586 31.8466V56.7094H48.06V33.9032C48.06 33.2041 48.6298 32.6475 49.3284 32.6475C50.027 32.6475 50.5899 33.1906 50.6035 33.8829V56.7094H58.071V33.8829C58.0778 33.1906 58.6407 32.6475 59.3393 32.6475C60.0379 32.6475 60.6077 33.2041 60.6077 33.9032V56.7094H68.1091V31.8398C68.1091 30.4823 67.0171 29.3895 65.6742 29.3895H54.3271L54.3338 29.3963Z" fill="#231F20"/>
<path fill-rule="evenodd" clip-rule="evenodd" d="M15.4819 49.8472H7.90585V56.7094H0.417969V29.3963H15.5294C16.8791 29.3963 17.9372 30.4959 17.9372 31.8534V47.3833C17.9372 48.7476 16.8384 49.8472 15.4819 49.8472ZM10.4561 33.9507C10.4561 33.1905 9.84564 32.6475 9.18774 32.6475H7.91263V46.467H9.18774C9.84564 46.467 10.4628 45.9444 10.4561 45.1841V33.9507Z" fill="#231F20"/>
<path fill-rule="evenodd" clip-rule="evenodd" d="M97.1896 53.472C97.1896 55.325 95.7042 56.8386 93.8662 56.8386C92.0281 56.8386 90.5156 55.3385 90.5156 53.472C90.5156 51.6054 92.0078 50.1121 93.8119 50.1121C95.7042 50.1121 97.1964 51.5986 97.1964 53.472H97.1896ZM93.8187 50.6008C92.313 50.6008 91.0514 51.904 91.0514 53.4787C91.0514 55.0535 92.313 56.3499 93.8662 56.3499C95.4194 56.3499 96.6538 55.0602 96.6538 53.4787C96.6538 51.8972 95.4058 50.6008 93.8662 50.6008H93.8187Z" fill="#231F20"/>
<path fill-rule="evenodd" clip-rule="evenodd" d="M95.4332 55.4201H94.5379L93.3849 53.8861V55.4201H92.6523V51.5511H93.4188C94.4633 51.5511 95.0194 51.9448 95.0194 52.6982C95.0194 53.2005 94.6939 53.6485 94.2327 53.7843L94.1784 53.8046L95.4264 55.4268L95.4332 55.4201ZM93.5137 53.2616C94.036 53.2616 94.3073 53.0783 94.3073 52.705C94.3073 52.3724 94.0427 52.2095 93.5341 52.2095H93.3849V53.2616H93.5137Z" fill="#231F20"/>
<path fill-rule="evenodd" clip-rule="evenodd" d="M80.6876 56.7094V49.854H78.1441V56.7094H70.6562V31.8398C70.6562 30.4823 71.7482 29.3895 73.0912 29.3895H85.7405C87.0835 29.3895 88.1754 30.4823 88.1754 31.8398V56.7026H80.6876V56.7094ZM80.6876 46.467V33.8897C80.6672 33.1973 80.1111 32.6611 79.4125 32.6611C78.7139 32.6611 78.1509 33.2177 78.1441 33.91V46.467H80.6876Z" fill="#231F20"/>
<path fill-rule="evenodd" clip-rule="evenodd" d="M0.628906 70.4817V62.9815H1.46315V63.6874C1.65985 63.4091 1.88367 63.2055 2.13462 63.0697C2.37879 62.934 2.684 62.8593 3.03669 62.8593C3.4979 62.8593 3.90485 62.9815 4.26432 63.2191C4.61701 63.4566 4.88831 63.796 5.06466 64.2304C5.24779 64.6648 5.33596 65.1399 5.33596 65.6558C5.33596 66.2124 5.23422 66.7079 5.03753 67.1558C4.84084 67.6038 4.54919 67.9432 4.16937 68.1808C3.78955 68.4183 3.38938 68.5337 2.97565 68.5337C2.67044 68.5337 2.39236 68.4658 2.14819 68.3369C1.90402 68.2079 1.70732 68.045 1.55133 67.8482V70.4885H0.628906V70.4817ZM1.46315 65.7237C1.46315 66.4228 1.60559 66.9386 1.88367 67.2712C2.16853 67.6038 2.50766 67.7735 2.90783 67.7735C3.30799 67.7735 3.66746 67.6038 3.95911 67.2509C4.25076 66.9047 4.39319 66.3685 4.39319 65.6422C4.39319 64.9159 4.25076 64.434 3.96589 64.0879C3.68103 63.7417 3.34191 63.572 2.94852 63.572C2.55514 63.572 2.20923 63.7553 1.9108 64.1218C1.61237 64.4883 1.45637 65.0245 1.45637 65.7169L1.46315 65.7237Z" fill="#231F20"/>
<path fill-rule="evenodd" clip-rule="evenodd" d="M15.2228 68.4047V67.6106C14.8023 68.2214 14.2258 68.5269 13.5001 68.5269C13.1813 68.5269 12.8829 68.4658 12.6048 68.3436C12.3267 68.2214 12.1232 68.0653 11.9876 67.8821C11.8519 67.6988 11.757 67.468 11.7027 67.2033C11.6688 67.02 11.6484 66.735 11.6484 66.3413V62.9814H12.5641V65.9883C12.5641 66.4702 12.5844 66.7893 12.6183 66.959C12.6794 67.2033 12.8015 67.3866 12.9846 67.5291C13.1745 67.6649 13.4051 67.7327 13.6832 67.7327C13.9613 67.7327 14.219 67.6649 14.4564 67.5223C14.7006 67.3798 14.8701 67.1897 14.9719 66.9454C15.0736 66.701 15.1211 66.3481 15.1211 65.8865V62.9814H16.0367V68.4047H15.216H15.2228Z" fill="#231F20"/>
<path fill-rule="evenodd" clip-rule="evenodd" d="M22.707 68.4047V62.9815H23.5277V63.7417C23.6973 63.477 23.9279 63.2598 24.206 63.1037C24.4908 62.9408 24.8096 62.8593 25.1691 62.8593C25.5692 62.8593 25.9016 62.9408 26.1525 63.1104C26.4103 63.2801 26.5934 63.5109 26.6951 63.8096C27.1224 63.1783 27.6854 62.8593 28.3704 62.8593C28.9062 62.8593 29.32 63.0086 29.6116 63.3073C29.9033 63.6059 30.0457 64.0607 30.0457 64.6852V68.4115H29.1301V64.9906C29.1301 64.6241 29.1029 64.3594 29.0419 64.1965C28.9808 64.0336 28.8723 63.9046 28.7163 63.8028C28.5603 63.7078 28.3772 63.6535 28.1669 63.6535C27.7871 63.6535 27.4683 63.7824 27.2174 64.0336C26.9664 64.2847 26.8376 64.6919 26.8376 65.2485V68.398H25.9219V64.8752C25.9219 64.468 25.8473 64.1557 25.6981 63.9521C25.5489 63.7485 25.3047 63.6467 24.9656 63.6467C24.7079 63.6467 24.4705 63.7145 24.2467 63.8503C24.0296 63.986 23.8668 64.1829 23.7719 64.4476C23.6701 64.7123 23.6227 65.0924 23.6227 65.5811V68.398H22.707V68.4047Z" fill="#231F20"/>
<path fill-rule="evenodd" clip-rule="evenodd" d="M40.1767 67.7395C39.8376 68.0314 39.5052 68.235 39.1932 68.3504C38.8744 68.4658 38.5421 68.5269 38.1758 68.5269C37.579 68.5269 37.1246 68.3844 36.8058 68.0925C36.487 67.8006 36.3242 67.4273 36.3242 66.9793C36.3242 66.7146 36.3853 66.4703 36.5073 66.2531C36.6294 66.0359 36.7854 65.8594 36.9821 65.7236C37.1788 65.5879 37.3959 65.4929 37.6468 65.425C37.8232 65.3775 38.1012 65.33 38.4607 65.2892C39.2 65.201 39.7494 65.0924 40.1021 64.9702C40.1021 64.8481 40.1021 64.7666 40.1021 64.7327C40.1021 64.3593 40.0139 64.0946 39.8376 63.9385C39.6069 63.7281 39.2543 63.6263 38.7931 63.6263C38.359 63.6263 38.0402 63.701 37.8367 63.8503C37.6332 63.9996 37.4772 64.2711 37.3823 64.658L36.487 64.5358C36.5684 64.1489 36.704 63.8367 36.8872 63.6059C37.0703 63.3684 37.3484 63.1851 37.7011 63.0561C38.0538 62.9272 38.4675 62.8661 38.9287 62.8661C39.3899 62.8661 39.7697 62.9204 40.0546 63.029C40.3462 63.1376 40.5565 63.2733 40.6921 63.443C40.8278 63.6059 40.9228 63.8163 40.977 64.0675C41.0041 64.2236 41.0245 64.5087 41.0245 64.9159V66.1445C41.0245 66.9997 41.0448 67.5427 41.0855 67.7667C41.1262 67.9907 41.2008 68.2147 41.3161 68.4183H40.353C40.2581 68.2282 40.197 68.0043 40.1699 67.7463L40.1767 67.7395ZM40.1021 65.6829C39.7697 65.8187 39.2678 65.9341 38.6031 66.0291C38.2233 66.0834 37.9588 66.1445 37.8028 66.2123C37.6468 66.2802 37.5247 66.382 37.4433 66.511C37.3552 66.64 37.3145 66.7893 37.3145 66.9454C37.3145 67.1898 37.4094 67.3934 37.5925 67.5563C37.7757 67.7192 38.047 67.8006 38.4064 67.8006C38.7659 67.8006 39.0779 67.726 39.3492 67.5699C39.6273 67.4137 39.8308 67.2033 39.9596 66.9318C40.0614 66.7214 40.1089 66.416 40.1089 66.0155V65.6761L40.1021 65.6829Z" fill="#231F20"/>
<path fill-rule="evenodd" clip-rule="evenodd" d="M47.9414 68.4043V67.359H48.9859V68.4043H47.9414Z" fill="#231F20"/>
<path fill-rule="evenodd" clip-rule="evenodd" d="M59.3527 66.416L60.2547 66.5313C60.1598 67.1558 59.9021 67.6445 59.4951 67.9975C59.0882 68.3504 58.5862 68.5269 57.9962 68.5269C57.2569 68.5269 56.66 68.2825 56.2056 67.8006C55.7512 67.3187 55.5273 66.6196 55.5273 65.7101C55.5273 65.1263 55.6223 64.6105 55.819 64.1693C56.0157 63.7281 56.3073 63.4023 56.7075 63.1783C57.1009 62.9611 57.535 62.8457 58.003 62.8457C58.593 62.8457 59.0746 62.995 59.4476 63.2937C59.8207 63.5923 60.0648 64.0132 60.1666 64.563L59.2713 64.6987C59.1831 64.3322 59.0339 64.0607 58.8169 63.8774C58.5998 63.6941 58.3421 63.5991 58.0301 63.5991C57.5689 63.5991 57.1891 63.762 56.9042 64.0946C56.6125 64.4272 56.4701 64.9498 56.4701 65.6693C56.4701 66.3888 56.6125 66.925 56.8906 67.2576C57.1687 67.5902 57.535 67.7531 57.9826 67.7531C58.3421 67.7531 58.6405 67.6445 58.8847 67.4205C59.1288 67.1965 59.2781 66.8571 59.3459 66.3956L59.3527 66.416Z" fill="#231F20"/>
<path fill-rule="evenodd" clip-rule="evenodd" d="M65.9219 65.6897C65.9219 64.6852 66.2 63.9385 66.7629 63.4566C67.2309 63.0562 67.7938 62.8525 68.4653 62.8525C69.2114 62.8525 69.8218 63.0969 70.2898 63.5856C70.7646 64.0743 71.002 64.7463 71.002 65.6083C71.002 66.3074 70.9002 66.8572 70.69 67.2577C70.4797 67.6581 70.1745 67.9704 69.7743 68.1876C69.3742 68.4115 68.9401 68.5201 68.4653 68.5201C67.7057 68.5201 67.0952 68.2758 66.6273 67.7871C66.1593 67.2984 65.9219 66.5993 65.9219 65.6829V65.6897ZM66.8646 65.6897C66.8646 66.3821 67.0139 66.9047 67.3191 67.2509C67.6243 67.597 68.0041 67.7735 68.4653 67.7735C68.9265 67.7735 69.2996 67.597 69.6048 67.2509C69.9032 66.9047 70.0592 66.3753 70.0592 65.6626C70.0592 64.9906 69.91 64.4816 69.6048 64.1354C69.2996 63.7892 68.9197 63.6195 68.4721 63.6195C68.0244 63.6195 67.6311 63.7892 67.3259 64.1354C67.0206 64.4816 66.8714 64.9974 66.8714 65.6897H66.8646Z" fill="#231F20"/>
<path fill-rule="evenodd" clip-rule="evenodd" d="M77.3047 68.4047V62.9815H78.1254V63.7417C78.2949 63.477 78.5255 63.2598 78.8036 63.1037C79.0885 62.9408 79.4073 62.8593 79.7667 62.8593C80.1669 62.8593 80.4992 62.9408 80.7502 63.1104C81.0079 63.2801 81.1911 63.5109 81.2928 63.8096C81.7201 63.1783 82.283 62.8593 82.9681 62.8593C83.5039 62.8593 83.9176 63.0086 84.2093 63.3073C84.5009 63.6059 84.6433 64.0607 84.6433 64.6852V68.4115H83.7277V64.9906C83.7277 64.6241 83.7006 64.3594 83.6395 64.1965C83.5785 64.0336 83.47 63.9046 83.314 63.8028C83.158 63.7078 82.9749 63.6535 82.7646 63.6535C82.3848 63.6535 82.066 63.7824 81.815 64.0336C81.5641 64.2847 81.4352 64.6919 81.4352 65.2485V68.398H80.5196V64.8752C80.5196 64.468 80.445 64.1557 80.2958 63.9521C80.1466 63.7485 79.9024 63.6467 79.5633 63.6467C79.3055 63.6467 79.0681 63.7145 78.8443 63.8503C78.6273 63.986 78.4645 64.1829 78.3695 64.4476C78.2678 64.7123 78.2203 65.0924 78.2203 65.5811V68.398H77.3047V68.4047Z" fill="#231F20"/>
</g>
<defs>
<clipPath id="clip0_518_394">
<rect width="113.017" height="70" fill="white" transform="translate(0.417969 0.481445)"/>
</clipPath>
</defs>
</svg>
