<svg width="191" height="65" viewBox="0 0 191 65" fill="none" xmlns="http://www.w3.org/2000/svg">
<path fill-rule="evenodd" clip-rule="evenodd" d="M54.2413 64.5914C34.6075 64.8136 27.68 44.9942 28.1988 32.3619C29.0137 12.0613 41.2758 -0.978722 58.0201 0.354935C58.9831 0.428581 59.5019 0.725178 59.4278 1.35498C59.3908 2.02181 58.6129 2.02181 57.3903 2.05884C41.2758 2.4661 35.756 18.6921 35.9411 32.6951C36.0892 48.1062 42.2018 61.7386 54.2413 61.6275C64.8735 61.5168 69.4303 48.4024 70.1711 36.0293C71.0601 21.1373 66.0221 7.43048 57.909 7.68965C48.9071 7.98624 45.9065 20.5815 46.573 28.5835C47.3513 38.2523 53.8711 42.8086 55.4643 43.5865C56.2418 43.9942 56.7609 44.2533 56.5013 44.9202C56.2418 45.513 55.8345 45.587 54.5749 45.2538C52.3153 44.587 42.2758 40.8451 41.3868 28.3239C40.4234 14.8396 47.8326 4.98531 58.3163 4.83722C68.5409 4.72615 77.4688 15.8397 76.6909 35.5479C75.4683 54.8115 65.4293 64.4799 54.2413 64.5914ZM105.66 27.2868C107.809 27.3979 109.106 26.0272 109.143 23.8787C109.143 21.7671 107.513 20.1739 105.808 20.1739C103.734 20.1739 102.437 22.1373 102.549 23.9897C102.623 25.2864 103.549 27.1383 105.66 27.2868ZM183.53 60.1087C180.603 63.1093 165.637 70.6299 170.749 40.4379C171.23 37.3999 167.489 38.3263 167.489 38.3263C167.082 41.1413 165.192 63.3318 152.523 63.1837C144.41 62.9612 140.298 55.4784 139.89 48.9211C138.26 47.8837 136.408 45.2908 135.148 43.2903C134.593 47.0317 132.629 62.9245 126.184 62.8875C123.886 62.8875 119.59 60.5534 118.108 53.0702C117.552 57.6265 114.959 63.3318 110.143 62.8875C106.179 62.5539 102.771 58.1827 102.475 52.0331V51.9957C102.03 53.5889 100.548 61.4424 93.6948 62.665C87.6934 63.7391 82.6924 58.5529 81.2106 52.1812C81.2106 52.1812 77.765 52.4774 76.802 52.3293C76.0241 52.1812 75.802 50.8846 76.4688 50.7365C77.8395 50.4769 79.5063 50.1437 80.6549 49.8101C77.765 34.9552 79.5808 5.46702 90.8424 5.02234C102.289 4.54103 98.3252 45.7351 86.1006 50.9957C86.5449 53.2553 88.2121 59.9606 93.3987 59.5163C98.2512 59.1087 100.215 53.4408 101.326 48.736C102.4 44.0312 102.252 37.9927 102.512 35.2514C102.808 32.51 108.439 32.3989 108.402 35.5846C108.328 39.9562 104.586 59.1087 111.699 59.7385C115.663 60.0717 117.145 53.3668 117.478 49.8101C116.848 45.513 116.737 41.8826 116.922 36.548C117.033 32.51 123.257 32.584 123.072 36.1403C122.812 41.0307 122.405 55.5894 126.184 57.701C129.925 59.8125 132.036 42.7346 132.518 38.6225C130.777 34.1773 129.962 27.7682 131.74 25.2123C132.37 24.3229 133.296 23.8787 134.111 23.8787C134.519 23.8787 135.926 24.2119 136.556 26.1383C137.557 29.1759 136.334 35.3995 136.037 37.474C136.556 39.5485 137.742 44.0312 139.705 46.2168C139.668 41.2158 142.002 29.1018 149.04 26.9902C161.895 23.1378 164.452 56.4414 145.595 51.4404C146.04 55.5154 147.744 60.0717 152.338 60.6275C163.303 61.6645 163.933 38.6595 164.007 36.9182C164.118 34.5475 162.562 33.0658 163.081 29.6946C163.674 25.6566 168.045 26.4345 168.341 29.2873C168.527 30.9542 168.341 32.51 168.267 33.362C176.973 29.8057 178.455 34.5105 177.047 39.9562C169.749 67.629 181.604 59.7385 182.678 59.1087C183.344 58.7751 184.011 59.627 183.53 60.1087ZM85.767 48.1062C95.2136 42.5124 97.2882 8.76414 91.7684 9.50502C84.3963 10.468 84.4333 42.6235 85.767 48.1062ZM145.447 49.662C158.709 53.1813 158.005 29.7316 151.337 31.8802C146.151 33.5475 145.225 47.4024 145.447 49.662Z" fill="#C41537"/>
<path d="M6.56608 61.8444C2.41539 60.6815 0.410597 57.9751 0.417989 53.5445C0.42189 51.2067 0.833733 50.4473 1.81342 50.9716C2.39994 51.2855 2.50778 51.6122 2.76204 53.8451C3.04239 56.3072 4.11363 57.6465 6.24463 58.1993C10.251 59.2385 14.1409 56.0093 14.1409 51.6442C14.1409 48.6363 12.88 47.0811 8.59753 44.8069C5.58332 43.2061 3.67647 41.4917 2.89831 39.6828C2.40979 38.5472 2.32957 37.9786 2.42668 36.3394C2.49815 35.1332 2.75575 33.8878 3.0884 33.1402C3.8157 31.5057 5.58448 29.6316 7.20377 28.7798C8.3475 28.1781 9.19965 27.9461 10.8797 27.9457C13.1459 27.9451 14.694 28.5258 16.0217 29.955C17.4126 31.452 18.0583 32.8622 18.0738 35.2807C18.0873 37.3914 17.9185 37.5105 17.3622 37.5895C16.7308 37.6792 16.5447 37.3722 15.9996 35.3418C15.3557 32.9436 13.0887 31.4854 10.9842 32.1159C9.78758 32.4744 8.25778 34.1258 7.8877 35.4585C7.46861 36.9678 7.5608 38.9527 8.10441 40.1243C8.7816 41.5838 9.93957 42.5795 12.9742 44.3115C16.8721 46.5362 18.2421 47.6844 19.1709 49.505C20.2844 51.6876 20.2656 55.303 19.1291 57.5307C18.4063 58.9475 16.1961 60.8202 14.467 61.4808C12.4963 62.2337 8.59631 62.4132 6.56608 61.8444Z" fill="#C41537"/>
<path fill-rule="evenodd" clip-rule="evenodd" d="M29.5503 57.8992C29.5503 59.859 27.9615 61.4478 26.0017 61.4478C24.0419 61.4478 22.4531 59.859 22.4531 57.8992C22.4531 55.9394 24.0419 54.3506 26.0017 54.3506C27.9615 54.3506 29.5503 55.9394 29.5503 57.8992Z" fill="#C41537"/>
<path fill-rule="evenodd" clip-rule="evenodd" d="M186.082 28.3977C183.526 28.3977 181.711 26.5087 181.711 23.9525C181.711 21.2851 183.711 19.5438 186.082 19.5438C188.379 19.5438 190.416 21.2851 190.416 23.9525C190.416 26.6198 188.379 28.3977 186.082 28.3977ZM186.082 20.3217C184.156 20.3217 182.674 21.8039 182.674 23.9525C182.674 25.99 183.971 27.6198 186.082 27.6198C187.972 27.6198 189.453 26.1381 189.453 23.9525C189.453 21.8039 187.972 20.3217 186.082 20.3217ZM185.193 26.5087H184.378V21.5813H186.23C187.416 21.5813 188.046 22.026 188.046 23.0261C188.046 23.8784 187.49 24.2486 186.749 24.3597L188.12 26.5087H187.231L185.934 24.3967H185.193V26.5087ZM186.082 23.7299C186.712 23.7299 187.231 23.6559 187.231 22.952C187.231 22.3592 186.638 22.2852 186.156 22.2852H185.193V23.7299H186.082Z" fill="#C41537"/>
</svg>
