<svg width="183" height="70" viewBox="0 0 183 70" fill="none" xmlns="http://www.w3.org/2000/svg">
<g clip-path="url(#clip0_518_916)">
<path d="M182.89 61.0103C181.904 65.1868 179.305 67.83 175.23 69.0713C173.774 70.0315 172.109 69.9803 170.484 69.9803C155.228 70.0023 139.974 69.9913 124.718 69.9913C88.7972 69.9913 52.8767 69.9913 16.9562 69.995C14.7694 69.995 12.5789 69.995 10.3957 69.8964C6.9566 69.7467 4.26594 68.2097 2.34926 65.3438C1.70306 63.7812 1.06051 62.2114 0.417969 60.6452C0.417969 51.7664 0.417969 42.8839 0.417969 34.0051C9.40995 45.0963 22.071 49.8022 35.1191 53.6648C49.8611 58.0312 65.023 59.9296 80.3564 60.6744C93.9302 61.3352 107.46 60.8679 120.928 59.1411C137.119 57.0637 152.96 53.6283 167.651 46.1186C173.547 43.103 178.779 39.2587 182.89 34.0015V61.0066V61.0103Z" fill="#141F57"/>
<path d="M0.417713 0.0633545H22.4066C14.1229 3.99894 6.11665 8.25581 0.417713 15.7546V1.52368C1.07121 0.924949 1.88169 1.01987 2.66297 1.01622C6.54745 1.00527 10.4319 1.02352 14.3164 1.00162C14.9042 1.00162 15.5248 1.18416 16.0542 0.851933C11.3227 1.04908 6.62412 0.906695 1.92185 0.9286C1.36693 0.9286 0.841209 0.819075 0.414062 0.428437V0.0633545H0.417713Z" fill="#141F57"/>
<path d="M182.887 15.7546C177.951 9.16121 171.066 5.18911 163.881 1.61495C163.162 0.797164 163.1 0.103507 164.421 0.297001C165.396 0.439383 166.473 0.110808 167.36 0.786211C169.956 1.26082 172.566 0.921292 175.169 0.997959C177.049 1.05272 178.933 0.997959 180.817 1.01256C181.543 1.01621 182.288 0.968752 182.883 1.52003V15.7546H182.887Z" fill="#141F57"/>
<path d="M17.9346 0.793584C17.7046 1.90343 16.8102 1.50184 16.1713 1.50549C10.9214 1.5347 5.66786 1.52375 0.417969 1.52375V0.793584C2.331 0.410247 4.26594 0.614693 6.18262 0.636598C10.1 0.684059 14.0209 0.38104 17.9346 0.793584Z" fill="#141D53"/>
<path d="M182.888 1.52382C178.124 1.52382 173.356 1.53843 168.592 1.50557C167.953 1.50192 167.058 1.89986 166.832 0.793658C166.923 0.720642 167.015 0.647625 167.106 0.570958C172.089 0.267939 177.08 0.476036 182.067 0.465084C182.377 0.465084 182.647 0.607466 182.888 0.793658V1.52382Z" fill="#141D54"/>
<path d="M166.829 0.79352C166.069 0.421135 165.281 0.950505 164.397 0.537962C163.473 0.107164 163.736 1.07098 163.882 1.61861C162.856 1.20971 161.831 0.79717 160.805 0.388278C160.83 0.278753 160.852 0.172879 160.878 0.0633545H182.889V0.428437C179.219 0.833679 175.539 0.475898 171.867 0.614629C170.187 0.676693 168.497 0.384627 166.832 0.79352H166.829Z" fill="#141D54"/>
<path d="M17.9346 0.793609H0.417969V0.428526C5.6277 0.428526 10.8411 0.421225 16.0508 0.439479C16.686 0.439479 17.398 0.198524 17.9346 0.793609Z" fill="#10215E"/>
<path d="M166.828 0.793579C167.365 0.198494 168.077 0.4431 168.712 0.439449C173.436 0.421195 178.16 0.428496 182.884 0.428496V0.793579H166.828Z" fill="#10215E"/>
<path d="M91.7001 0.0597534C109.031 0.0597534 126.357 0.0707059 143.688 0.0414993C145.232 0.0414993 146.678 0.293406 148.127 0.804522C155.035 3.23597 161.69 6.15663 167.546 10.6508C169.627 12.2499 171.496 14.068 173.055 16.1928C177.29 21.972 177.232 28.3573 172.803 34.0124C168.32 39.7442 162.176 43.1833 155.688 46.0711C145.123 50.777 133.962 53.3837 122.582 55.1033C110.535 56.925 98.4067 57.6442 86.2312 57.2864C68.364 56.7607 50.7524 54.5666 33.8017 48.5464C26.6679 46.0127 19.8409 42.8474 14.0726 37.7983C10.8124 34.947 8.15096 31.643 7.37698 27.2328C6.32919 21.2601 9.13303 16.755 13.2183 12.8632C18.3696 7.94919 24.6819 4.97742 31.1621 2.26485C34.9626 0.673092 38.8252 -0.0351681 42.9944 0.00134018C59.2297 0.147373 75.4649 0.0597534 91.7001 0.0597534Z" fill="#4EA158"/>
<path d="M85.5417 62.5692H96.381C96.381 62.6313 96.381 62.6897 96.381 62.7518H85.5234C85.5307 62.6897 85.5344 62.6313 85.5417 62.5692Z" fill="#142050"/>
<path d="M66.5192 22.7971C66.4134 23.0125 66.3075 23.2316 66.2016 23.447C65.7161 23.7208 65.9972 24.1917 65.8986 24.5641C65.4605 26.1961 67.0997 27.9704 65.5481 29.5146C66.9391 30.5186 65.0041 32.0812 66.1542 33.1582C66.3075 33.3042 65.9095 33.6875 66.0665 33.9979C66.3805 35.0384 65.5737 36.2358 66.5229 37.185C64.4565 38.2036 63.1641 37.5209 63.2116 35.3268C63.2663 32.6763 62.9487 30.0221 63.511 27.3716C63.7483 26.2545 63.1203 25.1008 63.741 23.8741C64.1243 23.1184 63.2883 22.819 62.5106 23.0563C62.423 22.9797 62.3975 22.8848 62.4303 22.7716C62.58 21.1798 61.357 20.906 60.2617 20.5081H60.2654C60.3201 20.3401 60.3238 20.1174 60.437 20.0116C61.3095 19.2157 62.0835 20.3657 63.1349 20.1649C64.4638 19.9093 64.2119 21.68 64.2959 22.7278C64.3068 22.8446 64.3579 22.9578 64.3945 23.0709C65.7197 22.4759 64.347 21.1908 65.1976 20.1758C65.3181 20.9206 65.4021 21.45 65.508 22.0962C65.6686 21.7311 65.7818 21.4792 65.9643 21.0593C66.1797 21.7238 66.3513 22.2605 66.5229 22.7935L66.5192 22.7971Z" fill="#4EA157"/>
<path d="M119.447 20.1577C119.286 20.238 119.133 20.3584 118.965 20.395C116.874 20.8574 115.952 22.1997 116.198 24.4218C117.472 24.0786 118.578 23.3083 119.889 23.1294C121.849 22.8629 123.225 23.5091 123.769 25.0096C124.237 26.3056 124.113 27.0687 122.415 26.9993C119.892 26.8971 117.468 27.3279 115.405 28.9634C115.646 27.4593 113.551 26.1998 114.96 24.5423C115.143 24.3305 115.018 23.8377 115 23.4799C114.843 19.8437 115.749 19.1683 119.443 20.1577H119.447Z" fill="#4EA157"/>
<path d="M108.463 12.5347C107.334 12.6077 106.882 13.0641 106.893 14.3309C106.969 21.4938 106.999 28.6604 106.885 35.8233C106.853 37.7984 108.01 37.3786 109.105 37.4224C110.182 37.4625 111.047 37.5684 111.029 35.9146C110.938 28.6312 110.993 21.3441 110.985 14.0571C110.985 13.5241 111.109 12.9472 110.606 12.5347C111.537 12.2755 111.343 13.0239 111.343 13.4437C111.361 21.0922 111.343 28.7371 111.369 36.3855C111.369 37.3238 111.025 37.6195 110.098 37.6816C106.608 37.9152 106.637 37.9481 106.604 34.5273C106.535 27.5542 106.754 20.5775 106.506 13.6044C106.466 12.4106 107.086 11.5709 108.463 12.5347Z" fill="#51A35A"/>
<path d="M70.8529 38.3825C70.0862 38.7439 69.0275 38.4336 68.5456 39.4924C68.3484 39.9232 68.0564 39.5946 67.8957 39.3208C67.4114 38.5005 66.8772 38.43 66.293 39.109C65.8111 39.6676 61.9668 40.0363 62.0435 39.653C62.5181 37.1996 60.4882 38.7001 59.7873 38.1525C59.6193 38.0211 59.3784 37.9846 59.2031 37.7692C60.919 37.8495 62.5838 37.5939 64.3179 38.2328C65.6103 38.7074 67.1437 37.7984 68.604 38.0174C69.3561 38.1306 70.1921 37.7254 70.8566 38.3825H70.8529Z" fill="#4EA157"/>
<path d="M79.5149 36.4548C79.5149 30.953 79.5185 25.4476 79.5039 19.9458C79.5039 19.6318 79.5952 19.4712 79.8653 19.4931C80.1464 19.515 80.2195 19.7413 80.1939 20.0224C79.6718 25.506 80.183 31.0114 79.5149 36.4548Z" fill="#4DA455"/>
<path d="M74.1185 37.1923C74.3339 37.0901 74.5493 36.9842 74.7647 36.882C75.2868 36.7798 75.8089 36.6775 76.3309 36.5753C75.6665 36.7944 76.8786 39.0798 74.8268 37.9261C74.542 37.7655 73.4979 38.8461 72.6692 39.1126C72.4063 38.0064 71.1833 39.2988 70.8438 38.3825C71.9828 38.1196 73.2715 38.273 74.1149 37.1923H74.1185Z" fill="#4EA157"/>
<path d="M54.1484 36.4841V26.7255C54.2105 26.7255 54.2689 26.7255 54.331 26.7255V36.4622C54.2689 36.4695 54.2105 36.4768 54.1484 36.4841Z" fill="#48A553"/>
<path d="M94.2683 20.917C93.7901 20.5811 93.1037 20.519 92.8555 19.8619C94.9876 19.4494 97.1123 19.2486 99.5511 19.4932C97.6673 20.289 95.4768 18.8506 94.2464 20.9206H94.2683V20.917Z" fill="#4DA154"/>
<path d="M76.2086 39.0908C75.6281 39.8757 74.9162 39.9159 74.1094 39.6859C74.887 39.7407 74.9637 38.0211 76.2086 39.0908Z" fill="#4EA157"/>
<path d="M80.4019 13.2539C80.0696 13.1298 79.7338 13.0057 79.2227 12.8158C80.1536 12.1988 81.132 12.699 82.1543 11.9141C81.7162 13.2247 80.6355 12.469 80.3763 13.2539H80.4019Z" fill="#49A250"/>
<path d="M84.6875 20.5446C84.8956 19.2669 84.1289 19.6502 83.3477 19.9751C83.5996 19.0405 84.1837 18.8653 84.7313 19.1902C85.3045 19.5334 85.1621 20.1029 84.6802 20.541H84.6875V20.5446Z" fill="#4DA455"/>
<path d="M93.1287 22.3591C93.0082 22.9103 92.7052 23.2425 92.4533 22.516C92.2452 21.921 92.373 21.2127 92.3511 20.5555C93.136 20.9279 92.3364 21.9903 93.1323 22.3591H93.1287Z" fill="#C3DAC4"/>
<path d="M72.6735 39.1125C72.2682 39.5324 71.8447 39.9011 71.1328 39.7113C71.5417 39.1199 72.1076 39.1199 72.6735 39.1125Z" fill="#4EA157"/>
<path d="M79.3047 18.7884C79.7355 18.1313 80.2064 18.3321 80.7103 18.3868C80.3233 18.8834 79.8487 18.6789 79.3047 18.7884Z" fill="#4DA455"/>
<path d="M114.352 24.4291V22.8884C114.771 23.5237 114.673 24.0092 114.352 24.4291Z" fill="#4EA157"/>
<path d="M60.2578 20.5043C60.7908 20.5043 61.3092 20.4861 61.8204 20.7307C62.8097 21.198 63.4413 21.7274 62.4264 22.7715C61.8496 21.877 61.1559 21.0958 60.2578 20.508V20.5043Z" fill="#4EA158"/>
<path d="M66.0607 33.9943C65.5057 33.8154 66.2213 33.0669 65.4948 32.8661C64.3338 32.5449 64.6734 31.906 65.3415 31.3401C65.6737 31.059 66.1665 30.599 65.67 30.3909C63.8994 29.6461 65.4072 29.1496 65.7029 28.5217C66.3162 27.2037 65.3561 25.8821 65.6481 24.5167C65.7503 24.0458 65.5678 23.5931 66.1994 23.447C65.5423 26.2216 66.6521 28.1456 69.0617 29.4782C70.0693 30.0331 71.066 30.6209 72.0079 31.278C72.7271 31.7746 73.3039 32.4427 72.9753 33.4284C72.676 34.3338 71.8399 34.4689 71.0623 34.5711C69.832 34.7281 68.6637 34.3776 67.4991 34.0198C67.0391 33.8774 66.5462 33.2896 66.0607 33.9979V33.9943Z" fill="#4EA158"/>
<path d="M82.7916 22.7314V36.4439C82.7478 36.4439 82.704 36.4439 82.6602 36.4439V22.7351C82.704 22.7351 82.7478 22.7351 82.7916 22.7351V22.7314Z" fill="#F9FEF9"/>
<path d="M62.506 23.0527C63.3384 27.514 62.7652 32.0154 62.9295 36.4987C62.9551 37.2361 62.5425 37.4369 61.9 37.4187C61.294 37.4041 60.6806 37.3675 60.0782 37.4333C58.9501 37.5537 58.8004 36.955 58.8114 36.0167C58.8516 32.9793 58.8406 29.9381 58.8114 26.9006C58.7931 24.6444 58.0812 23.6185 56.5661 23.5382C54.9269 23.4506 53.7368 24.7138 53.6783 26.8276C53.598 29.803 53.5177 32.7894 53.6783 35.7612C53.7806 37.6669 52.678 37.3968 51.5134 37.4442C50.2283 37.499 49.3631 37.4661 49.4105 35.6918C49.531 31.1356 49.4324 26.5757 49.4178 22.0158C49.4178 21.2528 49.1477 20.205 50.4474 20.4898C51.4513 20.7088 53.2256 19.4091 53.3133 21.7493C53.3206 21.9793 53.3644 22.2093 53.4228 22.7314C55.2665 20.2087 57.5774 19.6939 60.2608 20.508C60.3447 20.508 60.4287 20.508 60.5163 20.5044C61.5824 20.822 62.1957 21.596 62.6046 22.5744C62.6375 22.746 62.601 22.9066 62.506 23.0563V23.0527Z" fill="#FDFDFD"/>
<path d="M150.765 15.7985C150.765 16.4885 150.827 17.0945 150.754 17.6859C150.516 19.5734 150.754 20.8695 153.218 20.4934C154.58 20.2853 153.988 21.5412 154.094 22.1984C154.215 22.9395 154.058 23.6112 153.076 23.4214C150.892 22.9979 150.6 24.1114 150.728 25.9441C150.878 28.1236 150.761 30.3178 150.765 32.5083C150.765 33.9175 151.418 34.6732 152.893 34.5856C153.36 34.5601 154.123 34.0599 154.069 35.0493C154.025 35.8597 154.631 36.8783 153.404 37.4333C150.257 38.8534 146.833 36.871 146.701 33.421C146.599 30.6902 146.617 27.9484 146.683 25.2139C146.712 23.9617 146.497 23.1877 145.018 23.425C143.733 23.6295 143.905 22.7095 143.879 21.9209C143.85 21.0703 143.835 20.3255 145.069 20.435C145.734 20.4934 146.581 20.7052 146.672 19.5296C146.741 18.6534 146.197 17.4961 147.008 16.9521C148.034 16.2621 149.337 16.0066 150.761 15.8058L150.765 15.7985Z" fill="#FDFDFD"/>
<path d="M66.5213 22.7972C68.8907 19.851 71.9902 19.7451 75.2906 20.6067C76.9152 21.0302 75.9076 22.3372 75.9295 23.2025C75.9587 24.316 75.1117 23.6442 74.6042 23.5968C73.7609 23.5164 72.9212 23.3777 72.0778 23.3558C71.271 23.3376 70.4496 23.469 70.1429 24.389C69.818 25.3528 70.2926 26.0209 71.0739 26.532C72.0888 27.1965 73.111 27.8536 74.1187 28.529C77.963 31.0919 78.1711 33.7862 74.7722 36.8821C74.6261 37.1304 74.4071 37.2289 74.126 37.1924C71.5923 37.9847 69.0586 37.7401 66.5249 37.1851C65.1851 36.4732 65.6816 35.2758 65.7364 34.1988C66.1087 33.1546 66.8791 33.3189 67.6823 33.5562C68.73 33.8665 69.7742 34.2243 70.8877 34.0783C71.4974 33.998 72.1107 33.7935 72.3005 33.1108C72.4758 32.4938 72.0632 32.0703 71.6507 31.7089C70.7343 30.9021 69.6318 30.369 68.6059 29.7302C66.3205 28.3063 65.1413 26.386 65.8021 23.615C65.9335 23.2463 66.1416 22.9433 66.5249 22.8009L66.5213 22.7972Z" fill="#FDFDFD"/>
<path d="M135.314 37.6779C134.332 37.7509 133.266 37.4917 132.193 37.28C131.353 37.1157 131.002 36.7324 131.021 35.7977C131.061 33.6036 130.995 33.6255 133.105 34.206C134.215 34.5126 135.34 34.7792 136.515 34.4834C137.191 34.3155 137.837 34.1439 137.997 33.348C138.158 32.5558 137.895 31.8877 137.223 31.446C136.157 30.745 135.062 30.0988 133.981 29.4197C131.419 27.8097 130.542 26.1121 131.119 23.896C131.634 21.921 133.934 20.3109 136.453 20.1503C137.618 20.0773 138.749 20.3292 139.888 20.4898C140.867 20.6286 141.148 21.0703 141.075 22.0889C140.976 23.4178 140.816 24.0275 139.187 23.5602C137.888 23.1878 136.019 22.6292 135.234 24.2392C134.325 26.1121 136.362 26.5904 137.435 27.4264C138.151 27.985 138.954 28.4304 139.721 28.9232C141.389 29.9966 142.36 31.4204 142.006 33.4941C141.659 35.5166 140.338 36.6411 138.497 37.3019C137.501 37.6597 136.479 37.7035 135.318 37.6706L135.314 37.6779Z" fill="#FDFDFD"/>
<path d="M23.2428 37.7364C22.4579 37.6488 21.6656 37.6196 20.8953 37.4699C18.8764 37.0793 18.3616 36.0935 19.0005 34.1623C19.289 33.2897 19.7417 33.8337 20.1213 33.9469C21.4612 34.3521 22.7901 34.7829 24.2212 34.52C24.9733 34.3813 25.6523 34.1221 25.8714 33.297C26.0941 32.461 25.6158 31.8476 25.0171 31.4278C23.9255 30.6611 22.7536 30.0149 21.6291 29.2884C19.2926 27.7806 18.4785 26.2327 18.9275 24.2247C19.4021 22.1145 21.3407 20.4899 23.8014 20.1942C25.2069 20.0263 26.587 20.2563 27.9597 20.5447C28.6825 20.698 28.9454 21.0741 28.9198 21.8188C28.8724 23.0966 29.0695 24.2357 26.9922 23.5566C25.7035 23.1368 23.7028 22.5636 22.9909 24.4511C22.3301 26.1998 24.2285 26.6635 25.2909 27.4484C26.1197 28.0617 27.0105 28.5911 27.8647 29.1716C29.3324 30.1756 30.1867 31.5191 29.891 33.3445C29.5952 35.1589 28.5438 36.4075 26.8206 37.1121C25.6669 37.5831 24.4804 37.7328 23.2501 37.7364H23.2428Z" fill="#FDFDFD"/>
<path d="M108.464 12.5347C109.18 12.5347 109.891 12.5347 110.607 12.5347C111.363 12.856 111.166 13.5351 111.166 14.1119C111.173 21.388 111.147 28.6641 111.195 35.9365C111.202 37.1084 110.91 37.5027 109.683 37.4991C106.803 37.4918 106.803 37.5611 106.803 34.6806C106.803 27.8317 106.839 20.9791 106.774 14.1302C106.763 12.7976 107.219 12.3449 108.464 12.5347Z" fill="#FDFDFD"/>
<path d="M84.6808 20.5409C84.6808 25.6411 84.5968 30.7413 84.7173 35.8342C84.7611 37.6158 83.79 37.4697 82.6619 37.4223C81.5739 37.3785 80.3582 37.8129 80.4203 35.8232C80.5626 31.3364 80.5261 26.8385 80.4349 22.3517C80.4056 20.8731 80.7671 20.205 82.326 20.435C83.1 20.5482 83.8958 20.5117 84.6844 20.5445H84.6771L84.6808 20.5409Z" fill="#FBFCFC"/>
<path d="M167.918 18.8798C167.944 21.2821 165.958 23.3083 163.567 23.3192C161.256 23.3302 159.259 21.4025 159.182 19.0879C159.105 16.6711 161.04 14.6449 163.45 14.612C165.936 14.5791 167.885 16.4447 167.915 18.8798H167.918Z" fill="#4EA158" stroke="white" stroke-width="1.11918" stroke-miterlimit="10"/>
<path d="M80.3787 13.2539C81.2877 13.2357 82.2077 13.2868 83.1058 13.1772C84.3727 13.0239 84.9458 13.4584 84.7122 14.7544C84.5661 15.5539 85.1941 16.7697 84.3325 17.0763C83.3103 17.4414 82.0617 17.2151 80.9117 17.1639C80.3056 17.1347 80.4225 16.5689 80.4152 16.1636C80.3969 15.1925 80.4042 14.2214 80.4006 13.2503H80.375L80.3787 13.2539Z" fill="#FBFCFB"/>
<path d="M103.016 26.05C102.158 21.0156 98.9457 19.1135 94.2471 20.9206H94.269C93.8893 21.3989 93.5096 21.8772 93.13 22.3591C91.9544 22.1546 92.9839 20.9937 92.3487 20.5556C91.8668 20.5227 91.3776 20.53 90.903 20.4497C89.2126 20.1613 88.665 20.687 88.7052 22.538C88.8512 29.0328 88.7672 35.5312 88.7709 42.0297C88.7709 44.6656 88.7709 44.5962 91.3958 44.6291C92.6298 44.6437 92.9292 44.2239 92.889 43.0592C92.805 40.6132 92.8635 38.1598 92.8635 35.4801C97.1532 39.7589 102.085 37.3238 102.969 32.209C103.323 30.1536 103.367 28.1201 103.013 26.0573L103.016 26.05ZM98.4565 33.1399C97.9965 34.0855 97.27 34.6806 96.1857 34.6915C95.127 34.7025 94.2544 34.2608 93.8163 33.2896C92.4984 30.3617 92.5458 27.4009 93.8711 24.5021C94.3493 23.458 95.3789 23.1111 96.4778 23.2061C97.5329 23.2973 98.2192 23.9107 98.6245 24.9183C99.1137 26.1413 98.9567 27.4337 99.183 28.7991C99.0808 30.1974 99.1429 31.7307 98.4565 33.1399Z" fill="#FDFDFD"/>
<path d="M127.975 36.6448C127.895 32.764 127.935 28.8795 127.72 25.006C127.566 22.2934 126.117 20.9353 123.437 20.3256C122.108 20.0263 120.78 20.249 119.451 20.1541C118.607 20.4607 117.684 19.9533 116.829 20.5228C115.793 21.2128 115.212 22.8922 115.825 24.0458C116.501 25.3127 117.395 24.4109 118.169 24.1773C119.33 23.8231 120.477 23.323 121.7 23.7976C122.594 24.1444 123.397 24.7943 123.28 25.7909C123.153 26.9008 122.065 26.4554 121.356 26.5649C121.061 26.6124 120.75 26.5503 120.451 26.5905C118.52 26.8387 116.57 27.0578 115.413 28.9635C115.234 29.2775 115.033 29.5805 114.876 29.9054C113.931 31.8403 113.876 33.7899 115.088 35.608C116.249 37.3458 118.016 37.8058 120.031 37.6707C121.648 37.5612 122.773 36.5864 123.93 35.5532C124.317 37.1815 126.227 38.0504 127.614 37.364C127.957 37.1961 127.983 36.9661 127.975 36.6448ZM124.003 30.756C123.737 32.4318 123.682 34.2462 121.572 34.7902C120.111 35.1662 118.903 34.8267 118.275 33.3408C117.676 31.917 118.228 30.5443 119.6 29.8032C120.542 29.2921 121.568 29.2373 122.685 29.1971C123.963 28.916 124.178 29.6645 124.003 30.7597V30.756Z" fill="#FDFDFD"/>
<path d="M37.8456 30.0038C40.2698 30.0914 42.7049 29.9965 45.1327 30.0403C46.0673 30.0586 46.447 29.7811 46.363 28.7954C46.2243 27.1598 46.0892 25.5315 45.4321 24.0018C43.8074 20.2305 39.1563 18.9272 35.8304 21.3148C32.6651 23.5893 31.4823 29.3101 33.3186 33.4794C34.7826 36.8089 38.2764 38.3496 42.5297 37.5464C45.5671 36.9696 45.6475 36.8564 45.14 33.6656C43.6687 34.2351 42.2047 34.8046 40.5947 34.7207C38.291 34.5965 36.9329 33.5122 36.5679 31.5079C36.3707 30.4273 36.6263 29.9673 37.8493 30.0111L37.8456 30.0038ZM38.3677 23.2534C39.3936 22.7058 40.5181 22.8482 41.3577 23.7938C42.0806 24.6079 42.2084 25.652 42.3325 26.6816C42.3982 27.2438 42.0989 27.4446 41.5841 27.4409C40.8539 27.4409 40.1238 27.4409 39.3936 27.4409C39.2111 27.4409 39.0103 27.492 38.8496 27.4336C38.0939 27.1598 36.7942 28.1054 36.5898 26.7874C36.3671 25.3417 37.0169 23.969 38.3641 23.2498L38.3677 23.2534Z" fill="#FDFDFD"/>
<path d="M164.94 19.2303C165.984 18.3395 165.546 17.4487 165.01 16.536C163.922 16.5433 162.83 16.5543 161.742 16.5616C161.746 18.1351 161.753 19.7086 161.757 21.2821C163.473 21.7311 162.392 20.0043 163.06 19.5991C163.721 19.7779 163.812 20.4679 164.196 20.8878C164.604 21.3405 164.97 21.7275 165.4 20.928C165.269 20.3511 163.944 20.0773 164.94 19.2267V19.2303ZM163.538 18.6024C163.097 18.7119 162.837 18.5732 162.819 18.084C162.797 17.5728 162.932 17.237 163.542 17.3757C164.104 17.2881 164.583 17.4487 164.52 18.0803C164.473 18.5622 164.024 18.7119 163.542 18.6024H163.538Z" fill="#EAF3EB"/>
</g>
<defs>
<clipPath id="clip0_518_916">
<rect width="183" height="70" fill="white"/>
</clipPath>
</defs>
</svg>
