<svg width="190" height="70" viewBox="0 0 190 70" fill="none" xmlns="http://www.w3.org/2000/svg">
<g clip-path="url(#clip0_599_81)">
<path fill-rule="evenodd" clip-rule="evenodd" d="M34.3495 40.047C34.3495 42.673 33.7055 44.952 32.415 46.886C29.652 50.894 24.8625 52.8955 18.0465 52.8955C13.3945 52.8955 9.411 51.836 6.095 49.7185C2.411 47.325 0.5455 44.1005 0.5 40.047H10.516C10.516 41.8435 11.2995 43.2485 12.8645 44.2615C14.2465 45.1365 15.951 45.574 17.977 45.574C19.773 45.574 21.3165 45.2295 22.6055 44.538C23.941 43.801 24.6095 42.858 24.6095 41.7055C24.6095 40.1855 22.652 38.988 18.737 38.113C12.934 36.7775 9.273 35.741 7.753 35.0045C3.838 33.1165 1.8805 30.2145 1.8805 26.3005C1.8805 23.997 2.434 21.9015 3.5385 20.014C4.6445 18.126 6.509 16.629 9.135 15.5235C11.76 14.3725 14.592 13.797 17.631 13.797C21.777 13.797 25.2535 14.787 28.0625 16.7675C31.287 18.978 33.0135 22.1095 33.2445 26.163H23.642C23.136 22.893 20.971 21.258 17.1485 21.258C15.582 21.258 14.2235 21.6025 13.0725 22.294C11.9215 22.9845 11.346 23.8595 11.346 24.919C11.346 26.301 13.3255 27.429 17.287 28.304C23.0435 29.594 26.751 30.6305 28.409 31.4125C32.369 33.3465 34.3495 36.225 34.3495 40.047Z" fill="#22252A"/>
<path fill-rule="evenodd" clip-rule="evenodd" d="M82.6014 51.7911H72.8604V29.5471C72.8604 26.9676 72.4694 25.1481 71.6859 24.0901C70.7184 22.8461 68.9914 22.2241 66.5049 22.2241C61.4844 22.2241 58.9744 25.0566 58.9744 30.7216V51.7911H49.2344V14.9711H58.5599V18.4256C58.5599 19.7611 58.5829 20.4281 58.6294 20.4281C58.6294 20.3816 58.6514 20.3596 58.6979 20.3596C59.8489 18.3326 61.4839 16.7671 63.6029 15.6616C65.7679 14.5106 68.0469 13.9351 70.4419 13.9351C75.3234 13.9351 78.8704 15.8461 81.0809 19.6686C82.0939 21.5111 82.6009 23.7216 82.6009 26.3011L82.6014 51.7911Z" fill="#22252A"/>
<path fill-rule="evenodd" clip-rule="evenodd" d="M118.725 40.047C118.725 42.673 118.081 44.952 116.79 46.886C114.027 50.894 109.238 52.8955 102.422 52.8955C97.7695 52.8955 93.786 51.836 90.47 49.7185C86.786 47.3245 84.92 44.1 84.875 40.047H94.891C94.891 41.8435 95.6745 43.2485 97.2395 44.2615C98.6215 45.1365 100.326 45.574 102.352 45.574C104.148 45.574 105.691 45.2295 106.98 44.538C108.316 43.801 108.984 42.858 108.984 41.7055C108.984 40.1855 107.027 38.988 103.112 38.113C97.309 36.7775 93.6485 35.741 92.128 35.0045C88.213 33.1165 86.2555 30.2145 86.2555 26.3005C86.2555 23.997 86.809 21.9015 87.9135 20.014C89.0195 18.126 90.884 16.629 93.51 15.5235C96.135 14.3725 98.967 13.797 102.006 13.797C106.152 13.797 109.628 14.787 112.438 16.7675C115.662 18.978 117.389 22.1095 117.619 26.163H108.017C107.511 22.893 105.346 21.258 101.523 21.258C99.9565 21.258 98.598 21.6025 97.4465 22.294C96.2955 22.9845 95.72 23.8595 95.72 24.919C95.72 26.301 97.6995 27.429 101.661 28.304C107.418 29.594 111.125 30.6305 112.783 31.4125C116.744 33.3465 118.725 36.225 118.725 40.047Z" fill="#22252A"/>
<path fill-rule="evenodd" clip-rule="evenodd" d="M153.899 51.791H144.85C144.573 51.285 144.273 50.2955 143.952 48.8205C141.695 51.308 138.103 52.55 133.175 52.55C129.767 52.55 126.958 51.769 124.747 50.2025C122.168 48.361 120.879 45.689 120.879 42.189C120.879 37.1695 122.835 33.715 126.75 31.827C128.546 30.951 132.207 30.169 137.734 29.4775C141.649 28.9715 143.607 27.912 143.607 26.3005C143.607 24.872 143.008 23.744 141.81 22.9145C140.659 22.0395 139.3 21.602 137.734 21.602C136.122 21.602 134.74 22.0395 133.589 22.9145C132.511 23.724 131.819 24.8075 131.514 26.164H122.101C122.388 23.5485 123.151 21.406 124.194 19.737C125.392 17.8945 127.303 16.467 129.929 15.454C132.369 14.5325 135.133 14.072 138.218 14.072C148.673 14.1635 153.9 19.1615 153.9 29.0625V51.791H153.899ZM143.606 33.83C142.638 34.6135 140.935 35.235 138.493 35.696C135.73 36.202 133.934 36.686 133.105 37.1465C131.401 38.0215 130.55 39.5415 130.55 41.7055C130.55 44.4695 132 45.8505 134.901 45.8505C136.237 45.8505 137.619 45.551 139.047 44.9525C140.475 44.3085 141.557 43.5485 142.294 42.6735C143.26 41.476 143.744 39.703 143.744 37.3535C143.744 36.939 143.721 36.3405 143.675 35.5585C143.629 34.7745 143.606 34.199 143.606 33.83Z" fill="#22252A"/>
<path d="M46.3572 0.455444H36.6172V10.1954H46.3572V0.455444Z" fill="#22252A"/>
<path d="M46.3572 33.3765H36.6172V51.787H46.3572V33.3765Z" fill="#22252A"/>
<path fill-rule="evenodd" clip-rule="evenodd" d="M189.861 53.8634C189.861 58.7449 188.111 62.6589 184.61 65.6074C181.387 68.2324 177.518 69.5444 173.004 69.5444C168.583 69.5444 164.853 68.2554 161.813 65.6759C158.451 62.7749 156.77 58.8139 156.77 53.7939H165.819C165.819 56.1424 166.511 57.9849 167.892 59.3204C169.089 60.5179 170.609 61.1169 172.452 61.1169C174.478 61.1169 176.251 60.4264 177.771 59.0444C179.383 57.4779 180.189 55.4289 180.189 52.8959V47.2319C179.498 48.8899 178.231 50.1794 176.389 51.1004C174.593 52.0204 172.566 52.4814 170.31 52.4814C166.717 52.4814 163.655 51.4234 161.122 49.3044C158.22 46.8639 156.77 43.5014 156.77 39.2184V14.9709H166.511V37.7684C166.511 42.3274 168.583 44.6074 172.728 44.6074C174.938 44.6074 176.734 43.9624 178.116 42.6729C179.498 41.3824 180.189 39.7479 180.189 37.7679V14.9709H189.86V53.8634H189.861Z" fill="#22252A"/>
</g>
<defs>
<clipPath id="clip0_599_81">
<rect width="190" height="70" fill="white"/>
</clipPath>
</defs>
</svg>
