<svg width="190" height="67" viewBox="0 0 190 67" fill="none" xmlns="http://www.w3.org/2000/svg">
<g clip-path="url(#clip0_518_691)">
<path d="M190 0.715332H0V66.3339H190V0.715332Z" fill="#ED1C24"/>
<path d="M28.4497 16.7191C27.3411 14.8033 25.7309 13.5923 23.2629 13.5923C20.7948 13.5923 18.3268 15.4067 17.9264 17.8773C16.919 24.2806 32.4268 21.6074 30.4163 34.3612C29.2064 41.9712 23.6192 47.366 15.8631 47.366C10.6279 47.366 7.25357 44.3405 5.33984 39.9542L10.8787 35.2684C11.433 38.1926 13.6459 40.813 16.8222 40.813C19.9985 40.813 22.1586 38.2411 22.6118 35.3168C23.2145 31.3841 19.7918 30.2743 16.9718 29.1161C12.4404 27.0991 9.21569 24.6285 10.1748 18.7316C11.1822 12.4296 16.6726 7.33868 23.0649 7.33868C26.4392 7.33868 30.821 9.00337 32.7347 11.5709L28.4541 16.7102L28.4497 16.7191Z" fill="white"/>
<path d="M41.1298 21.6074L39.0138 35.0129C38.5606 37.8358 38.4594 41.2137 42.0361 41.2137C45.6128 41.2137 46.6203 37.8358 47.0734 35.0129L49.1895 21.6074H56.2373L53.9188 36.1756C52.7618 43.3848 48.4284 47.1634 41.0771 47.1634C33.7257 47.1634 30.6022 43.3848 31.7636 36.1756L34.0821 21.6074H41.1298Z" fill="white"/>
<path d="M65.4959 23.8755C67.4096 21.9598 70.1768 20.8016 72.7988 20.8016C79.7982 20.8016 83.0714 27.3546 82.0155 33.8548C80.9597 40.6104 75.7728 47.1635 68.4699 47.1635C65.9534 47.1635 63.4854 46.0537 62.3767 44.0367H62.2755L59.8603 59.5606H52.8125L58.8044 21.6075H65.8522L65.5003 23.8755H65.4959ZM74.8621 33.9561C75.3637 30.6311 73.7535 27.0507 70.1284 27.0507C66.5033 27.0507 63.6833 30.6311 63.1818 33.9561C62.6803 37.2811 64.2905 40.9099 67.9155 40.9099C71.5406 40.9099 74.3606 37.2811 74.8621 33.9561Z" fill="white"/>
<path d="M92.2704 24.1794H92.3716C94.1357 22.0127 96.4014 20.8016 99.019 20.8016C100.027 20.8016 101.034 21.0526 101.839 21.4049L99.9781 27.958C99.2214 27.3546 98.2668 27.0508 97.2109 27.0508C92.3276 27.0508 91.1178 31.3842 90.5151 35.2156L88.7509 46.3532H81.7031L85.6318 21.6031H92.6796L92.2748 24.175L92.2704 24.1794Z" fill="white"/>
<path d="M106.219 35.1186C105.766 38.2454 106.369 41.773 110.047 41.773C112.361 41.773 114.076 40.3593 115.335 38.3952L121.679 39.4521C119.162 44.3933 114.376 47.1634 109.189 47.1634C101.534 47.1634 97.7592 41.7201 98.9163 34.207C100.126 26.6983 105.009 20.7971 113.016 20.7971C121.023 20.7971 123.79 26.7952 122.633 34.2555L122.484 35.1142H106.219V35.1186ZM116.54 30.7323C116.589 28.2133 115.383 25.7427 112.664 25.7427C109.945 25.7427 107.882 28.1604 107.125 30.7323H116.54Z" fill="white"/>
<path d="M132.652 23.8271H132.753C134.416 21.8629 136.981 20.8016 139.251 20.8016C142.322 20.8016 144.539 22.0611 145.744 24.6814C147.658 22.2637 150.68 20.8016 153.549 20.8016C159.844 20.8016 160.649 25.5402 159.792 30.935L157.376 46.3576H150.328L152.392 33.3528C152.744 30.935 153.65 26.4474 150.175 26.4474C146.347 26.4474 145.542 31.6396 145.137 34.2115L143.224 46.3576H136.176L138.138 33.8064C138.543 31.3886 139.647 26.4474 135.973 26.4474C132.045 26.4474 131.389 31.5868 130.989 34.2115L129.075 46.3576H122.027L125.956 21.6075H133.004L132.652 23.8271Z" fill="white"/>
<path d="M168.301 35.1186C167.848 38.2454 168.451 41.773 172.129 41.773C174.443 41.773 176.159 40.3593 177.417 38.3952L183.761 39.4521C181.244 44.3933 176.458 47.1634 171.271 47.1634C163.616 47.1634 159.841 41.7201 160.998 34.207C162.208 26.6983 167.091 20.7971 175.098 20.7971C183.105 20.7971 185.872 26.7952 184.715 34.2555L184.566 35.1142H168.301V35.1186ZM178.622 30.7323C178.671 28.2133 177.465 25.7427 174.746 25.7427C172.028 25.7427 169.964 28.1604 169.208 30.7323H178.622Z" fill="white"/>
</g>
<defs>
<clipPath id="clip0_518_691">
<rect width="190" height="65.6186" fill="white" transform="translate(0 0.715332)"/>
</clipPath>
</defs>
</svg>
