<svg width="153" height="71" viewBox="0 0 153 71" fill="none" xmlns="http://www.w3.org/2000/svg">
<g clip-path="url(#clip0_518_568)">
<path fill-rule="evenodd" clip-rule="evenodd" d="M98.976 4.49271V0.554565H83.2227V22.1525H98.976V18.5958H87.6101V12.7298H97.5617V8.86384H87.6101V4.49271H98.976Z" fill="#231F20"/>
<path fill-rule="evenodd" clip-rule="evenodd" d="M94.5874 24.3795V32.699H85.9675V24.3795H81.5078V45.9052H85.9675V36.2557H94.5874V45.9052H98.9748V24.3795H94.5874Z" fill="#231F20"/>
<path fill-rule="evenodd" clip-rule="evenodd" d="M98.976 51.9982V48.1322H83.2227V70.0291H98.976V66.1013H87.6101V60.3075H97.5617V56.7404H87.6101V51.9982H98.976Z" fill="#231F20"/>
<path fill-rule="evenodd" clip-rule="evenodd" d="M80.6916 0.554565H76.3042V8.86384H67.6843V0.554565H63.2969V22.1525H67.6843V12.503H76.3042V22.1525H80.6916V0.554565Z" fill="#231F20"/>
<path fill-rule="evenodd" clip-rule="evenodd" d="M44.4141 0.554565V4.49271H51.1035V22.1525H55.4909V4.49271H62.1804V0.554565H44.4141Z" fill="#231F20"/>
<path fill-rule="evenodd" clip-rule="evenodd" d="M30.5934 23.7919C23.6768 23.7919 20.043 27.73 20.043 35.1527C20.043 42.9465 23.6871 46.8022 30.5934 46.8022C37.4996 46.8022 41.0715 42.9465 41.0715 35.1527C41.0715 27.3589 37.4996 23.7919 30.5934 23.7919ZM24.7917 35.1527C24.7917 30.1836 26.7221 27.73 30.5934 27.73C34.7536 27.73 36.6841 30.1836 36.6841 35.1527C36.6841 40.4207 34.7536 42.9465 30.5934 42.9465C26.7325 42.9465 24.7917 40.4207 24.7917 35.1527Z" fill="#231F20"/>
<path fill-rule="evenodd" clip-rule="evenodd" d="M13.7247 24.3795V39.5959L5.10474 24.3795H0.417969V45.9052H4.57825V30.7609L13.4253 45.9052H18.1121V24.3795H13.7247Z" fill="#231F20"/>
<path fill-rule="evenodd" clip-rule="evenodd" d="M34.1647 57.0394V51.9982H45.2416V48.1322H29.7773V70.0291H34.1647V60.9054H43.8996V57.0394H34.1647Z" fill="#231F20"/>
<path fill-rule="evenodd" clip-rule="evenodd" d="M79.8777 28.2454V24.3795H62.1836V28.2454H68.8008V45.9052H73.2605V28.2454H79.8777Z" fill="#231F20"/>
<path fill-rule="evenodd" clip-rule="evenodd" d="M52.4472 37.6681C53.8615 37.6681 54.9764 37.8949 55.4926 38.4826L56.3081 45.9052H61.2839V45.3898C60.7678 45.0908 60.4684 43.7609 60.4684 41.2351C60.4684 38.1939 59.3535 36.5547 57.7224 35.7403C59.9522 34.8537 61.0671 33.2145 61.0671 30.4722C61.0671 26.6166 58.8373 24.3898 54.1505 24.3898H43.3008V45.9155H47.7604V37.6784H52.4472V37.6681ZM47.7604 34.0289V28.2351H53.2627C55.4926 28.2351 56.6075 29.0496 56.6075 30.9774C56.6075 32.9052 55.4926 34.0186 53.0356 34.0186H47.7604V34.0289Z" fill="#231F20"/>
<path fill-rule="evenodd" clip-rule="evenodd" d="M55.4917 48.1322H50.2165L42.4844 70.0291H47.1711L48.8848 65.2765H56.9163L58.2583 70.0291H63.0174L55.5124 48.1322H55.4917ZM52.7457 53.1013L55.4917 61.7095H49.9894L52.7354 53.1013H52.7457Z" fill="#231F20"/>
<path fill-rule="evenodd" clip-rule="evenodd" d="M77.1189 55.3377H81.5063C81.2792 53.4099 80.6907 51.7707 79.3487 50.3687C77.4182 48.7398 75.1884 47.6264 72.1431 47.6264C69.0977 47.6264 66.8679 48.7398 64.9374 50.6676C63.3063 52.5955 62.1914 55.3481 62.1914 58.9769C62.1914 66.6986 65.4639 70.5542 71.854 70.5542C77.4286 70.5542 80.4739 67.812 81.5166 62.5336H77.1292C76.5304 65.0594 74.6 66.3893 72.1534 66.3893C68.5093 66.3893 66.8782 63.9357 66.8782 59.1934C66.8782 53.9975 68.5093 51.4718 72.1534 51.4718C74.6103 51.4718 76.0143 52.8841 77.1292 55.3274L77.1189 55.3377Z" fill="#231F20"/>
<path fill-rule="evenodd" clip-rule="evenodd" d="M22.0434 69.7298C22.7867 69.7298 23.3854 69.4308 23.8293 69.0597C24.201 68.6164 24.5004 68.0185 24.5004 67.204C24.5004 66.3174 24.201 65.7195 23.8293 65.3484C23.3854 64.9772 22.7867 64.7504 22.0434 64.7504H21.9711C21.0833 64.7504 20.4846 64.9772 20.113 65.3484C19.7413 65.7195 19.5142 66.3174 19.5142 67.204V67.2762C19.5142 68.0185 19.7413 68.6164 20.113 69.0597C20.4846 69.4308 21.0833 69.7298 21.9711 69.7298H22.0434ZM21.9711 70.3277C20.9285 70.3277 20.1852 69.9566 19.6691 69.4411C19.1529 68.9257 18.9258 68.1834 18.9258 67.2865V67.2143C18.9258 66.1731 19.1529 65.4308 19.6691 64.9154C20.1852 64.3999 20.9285 64.1731 21.9711 64.1731H22.0434C22.9312 64.1731 23.6745 64.3999 24.201 64.9154C24.7275 65.4308 25.0888 66.1731 25.0888 67.2143C25.0888 68.1834 24.7171 68.9257 24.201 69.4411C23.6848 69.9566 22.9415 70.3277 22.0434 70.3277H21.9711ZM22.2705 66.9154H22.3428C22.6422 66.9154 22.7867 66.771 22.7867 66.3999V66.3277C22.7867 66.3277 22.7144 66.3277 22.7144 66.2556C22.6422 66.1834 22.4873 66.1834 22.2705 66.1834H21.455V66.9257H22.2705V66.9154ZM22.7867 67.4308L23.3854 68.1731C23.4577 68.3174 23.3854 68.4721 23.3132 68.5442C23.1686 68.6886 22.9415 68.6164 22.8693 68.5442L22.126 67.503H21.455V68.3174C21.455 68.4618 21.3105 68.6164 21.1556 68.6164C21.0008 68.6164 20.8562 68.4721 20.8562 68.3174V65.8638C20.8562 65.7195 21.0008 65.5649 21.1556 65.5649H22.3428C22.6422 65.5649 22.9415 65.637 23.0861 65.7917C23.1583 65.8638 23.2306 65.8638 23.2306 65.936C23.3751 66.0803 23.3751 66.235 23.3751 66.3793C23.3751 66.9772 23.2306 67.2659 22.7764 67.4205L22.7867 67.4308Z" fill="#231F20"/>
<path fill-rule="evenodd" clip-rule="evenodd" d="M102.02 0.554565C115.842 0.554565 127.807 5.60611 137.47 15.2556C147.432 25.204 152.407 37.0803 152.407 50.9566V70.0288H132.194V50.3587C132.194 42.637 129.448 35.9566 123.874 30.4618C122.532 29.0494 121.128 27.936 119.487 26.8226C115.027 23.7814 109.752 22.4412 104.249 22.4412H102.02V0.554565ZM130.264 70.0288H114.511V54.8123C114.511 52.2865 113.695 50.3587 111.982 48.7298C110.35 47.0185 108.121 46.204 105.891 46.204H102.03V24.3793H104.26C110.061 24.3793 115.037 26.0082 119.497 29.3484C120.612 29.8638 121.727 30.9772 122.542 31.802C127.817 37.07 130.274 43.1628 130.274 50.3587V70.0288H130.264ZM112.57 70.0288H102.02V48.1319H105.88C107.594 48.1319 109.225 48.7298 110.639 50.0597C111.754 51.1731 112.57 52.8845 112.57 54.8123V70.0288Z" fill="#231F20"/>
</g>
<defs>
<clipPath id="clip0_518_568">
<rect width="152" height="70" fill="white" transform="translate(0.417969 0.554688)"/>
</clipPath>
</defs>
</svg>
