<svg width="191" height="53" viewBox="0 0 191 53" fill="none" xmlns="http://www.w3.org/2000/svg">
<path fill-rule="evenodd" clip-rule="evenodd" d="M175.482 38.1429C172.926 38.1126 165.966 37.5048 162.161 37.4643C159.199 37.4339 156.794 37.7074 155.871 37.8289C156.186 38.2442 156.51 38.6392 156.855 39.0241C158.093 39.0343 161.563 39.1862 168.025 40.2801C173.392 41.1917 176.385 41.3335 177.836 41.3234C179.297 40.2902 180.586 39.014 181.62 37.5555C180.159 37.8188 177.43 38.1733 175.472 38.1531L175.482 38.1429Z" fill="#231F20"/>
<path fill-rule="evenodd" clip-rule="evenodd" d="M167.863 40.695C162.11 39.672 158.722 39.4188 157.18 39.3681C160.071 42.3764 164.15 44.24 168.654 44.24C171.769 44.24 174.671 43.3487 177.116 41.8092C175.513 41.7686 172.621 41.5458 167.863 40.695Z" fill="#231F20"/>
<path fill-rule="evenodd" clip-rule="evenodd" d="M28.7672 40.757C28.0468 40.3215 27.8947 39.815 27.8947 39.3086V24.389C27.8947 23.0824 27.3164 22.6468 26.9511 22.6468C26.0786 22.6468 22.0204 24.389 21.0769 24.8954C20.1333 25.4019 20.8638 26.0501 21.2899 26.2729C21.7262 26.4856 22.0914 26.7085 22.0914 27.8631V39.3086C22.0914 39.815 21.9494 40.3215 21.2189 40.757C21.0667 40.8482 20.9754 40.9697 20.9348 41.1014C20.8739 40.9393 20.7319 40.7773 20.5087 40.6152C19.4231 39.815 19.5652 39.4605 19.5652 38.5186V17.9471C19.5652 16.8633 19.4942 15.9923 20.0724 15.9923C21.5233 15.9923 22.3248 18.7473 23.1161 20.6312C23.9176 22.5152 26.525 21.5023 26.2308 20.1957C25.9366 18.8891 25.3583 15.2022 25.0742 13.8956C24.78 12.589 24.2727 11.7281 23.7654 11.7281C23.2581 11.7281 22.3856 12.5283 22.3856 12.5283L16.2476 12.6397L10.1095 12.5283C10.1095 12.5283 9.23702 11.7281 8.72974 11.7281C8.22246 11.7281 7.73548 12.589 7.4514 13.8855C7.15718 15.1921 6.57889 18.8891 6.28467 20.1856C5.99045 21.4922 8.60799 22.505 9.39935 20.6211C10.2008 18.7372 10.9922 15.9822 12.443 15.9822C13.0213 15.9822 12.9503 16.8532 12.9503 17.937V38.5084C12.9503 39.4504 13.0923 39.815 12.0067 40.6051C10.9212 41.4052 11.8647 42.2561 13.5996 42.2561H18.9159C19.9913 42.2561 20.7623 41.9319 20.9348 41.4863C21.0566 41.8813 21.4725 42.2561 21.9392 42.2561H28.0367C28.8382 42.2561 29.4875 41.1824 28.757 40.7469L28.7672 40.757Z" fill="#231F20"/>
<path fill-rule="evenodd" clip-rule="evenodd" d="M100.069 40.7555C99.3484 40.32 99.1962 39.8136 99.1962 39.3071V14.6234C99.1962 13.3168 98.6179 12.8813 98.2527 12.8813C97.3801 12.8813 93.3219 14.6234 92.3784 15.1299C91.4349 15.6363 92.1653 16.2845 92.5915 16.5074C93.0277 16.7201 93.393 16.9429 93.393 18.0976V23.6177C93.0176 23.091 92.3683 22.7568 91.3537 22.7568C87.9245 22.7568 88.4825 25.2383 86.5752 25.765V24.3774C86.5752 23.0708 85.9969 22.6352 85.6316 22.6352C84.7591 22.6352 80.7009 24.3774 79.7574 24.8838C78.8138 25.3903 79.5443 26.0385 79.9704 26.2613C80.4067 26.474 80.7719 26.6969 80.7719 27.8515V39.297C80.7719 39.8034 80.6299 40.3099 79.8994 40.7454C79.1791 41.1809 79.8284 42.2546 80.6197 42.2546H86.7172C87.5187 42.2546 88.168 41.1809 87.4375 40.7454C86.7172 40.3099 86.565 39.8034 86.565 39.297V31.8625C87.0216 30.3938 88.1274 27.4565 89.8217 27.4565C90.5421 27.4565 90.329 29.4114 91.9929 29.4114C92.3784 29.4114 92.9668 28.5808 93.3727 27.5072V39.297C93.3727 39.8034 93.2306 40.3099 92.5001 40.7454C91.7697 41.1809 92.4291 42.2546 93.2205 42.2546H99.3179C100.119 42.2546 100.769 41.1809 100.038 40.7454L100.069 40.7555Z" fill="#231F20"/>
<path fill-rule="evenodd" clip-rule="evenodd" d="M165.53 21.5621L164.789 23.2637L165.925 24.388L165.53 21.5621Z" fill="white"/>
<path fill-rule="evenodd" clip-rule="evenodd" d="M184.033 24.2257L175.5 26.4034L176.413 24.6713C178.432 24.3574 180.999 23.7091 183.414 22.4126C183.231 21.9569 183.018 21.5011 182.795 21.0655C180.725 22.0885 178.879 22.5646 177.418 22.757L178.747 20.2451L182.186 20.002C181.882 19.5158 181.557 19.0499 181.212 18.5941H177.235L178.797 16.1025C178.473 15.829 178.138 15.5758 177.793 15.3327L174.597 19.7792L173.664 17.9358L173.816 17.2875L176.849 14.7249C176.515 14.5224 176.18 14.3401 175.835 14.1577L172.619 15.8796L170.965 12.608C170.488 12.5371 170.011 12.4865 169.524 12.4662L171.28 16.9634L170.762 17.4293L168.165 12.446C168.013 12.446 167.861 12.4561 167.708 12.4662L165.72 16.6494L163.66 13.2259C162.991 13.4487 162.341 13.7121 161.712 14.0058L161.621 16.7608L158.679 15.9201C158.07 16.4063 157.502 16.933 156.964 17.5103L160.515 21.8657L159.531 21.9366L156.335 18.2295C155.95 18.6954 155.584 19.1917 155.26 19.6981L157.238 22.0987L153.87 22.3417C153.119 24.1852 152.703 26.2109 152.703 28.3278C152.703 31.7716 153.799 34.9621 155.676 37.5753C156.427 37.4639 158.963 37.1195 162.138 37.1195C165.943 37.1195 172.913 37.6665 175.47 37.6665C177.631 37.6665 180.735 37.2006 182.034 36.9271C183.627 34.4456 184.56 31.4981 184.56 28.3379C184.56 26.9098 184.367 25.5323 184.022 24.2156L184.033 24.2257ZM176.099 20.4274L176.961 20.3666L175.449 22.8786C175.104 22.8786 174.82 22.8482 174.587 22.8279L176.099 20.4274ZM174.222 24.9144L172.933 27.0516L171.736 27.3555L173.248 24.9651C173.491 24.9651 173.826 24.9448 174.232 24.9144H174.222ZM172.72 20.6097L173.177 21.7847L170.569 25.4006L170.458 22.1696L172.71 20.6097H172.72ZM163.924 17.4496L163.244 17.3685L163.173 16.143L163.924 17.4597V17.4496ZM164.695 19.3943L163.457 21.4909L163.315 18.9486L164.685 19.3842L164.695 19.3943ZM159.034 17.5812L161.418 18.3409L161.54 20.0527L159.034 17.5812ZM159.775 23.4255L162.078 23.3546L162.879 24.0332L160.627 25.8463L158.476 25.036L159.764 23.4356L159.775 23.4255ZM157.248 23.5065L156.64 24.327L154.682 23.5876L157.248 23.5065ZM154.925 25.1474L155.737 25.5323L154.61 27.0415C154.671 26.3932 154.773 25.7551 154.925 25.1373V25.1474ZM167.242 34.8608C163.325 34.2835 159.43 33.7366 155.564 33.6251C154.915 32.0045 154.55 30.232 154.55 28.3785C154.55 28.3379 154.55 28.2974 154.55 28.2569L155.311 28.2873H155.838L157.421 26.3325L159.247 27.2035L158.374 28.4088L160.424 28.4899L164.32 25.2487L165.304 26.3426L161.378 28.5203L164.644 28.6519L166.674 27.872L167.424 28.7127L167.232 34.8507L167.242 34.8608ZM168.023 24.6004L167.769 23.5369L168.703 23.1217L168.733 24.6511L168.013 24.6106L168.023 24.6004ZM168.824 20.8326L167.485 21.8049L166.714 18.7866L168.094 15.6163L169.301 18.1485L168.835 20.8326H168.824ZM180.847 36.3396C177.448 36.2586 174.049 35.8433 170.64 35.3572C169.92 32.3185 170.265 29.2394 170.265 29.2394L175.47 27.9429L176.21 29.0166L177.59 28.9457L177.225 27.5074L179.264 27.001C179.619 27.5074 180.542 28.7228 181.506 29.2394L182.592 28.733C182.592 28.733 181.587 27.4871 181.283 26.5046L183.028 26.0691C183.15 26.8288 183.211 27.5985 183.211 28.3886C183.211 31.3259 182.338 34.0607 180.837 36.3498L180.847 36.3396Z" fill="#231F20"/>
<path fill-rule="evenodd" clip-rule="evenodd" d="M61.5593 22.3617C59.9766 22.3617 60.2403 23.0707 59.0939 23.3745V14.1068C59.0939 12.8002 58.5156 12.3646 58.1504 12.3646C57.2779 12.3646 53.595 14.1068 52.6515 14.6132C51.708 15.1196 52.4384 16.1325 52.8645 16.3553C53.3008 16.568 53.2907 16.7909 53.2907 17.9455V39.5906C53.2907 40.1984 53.3312 40.6744 53.382 41.0289C53.3312 40.9175 53.2501 40.8263 53.1182 40.7453C52.3979 40.3098 52.2457 39.8033 52.2457 39.2969C52.2457 38.284 52.5602 22.858 46.828 22.858C44.7481 22.858 44.6467 24.4279 43.3379 24.752C42.7799 23.5872 41.7856 22.6351 40.0812 22.6351C37.2506 22.6351 37.6158 24.2861 36.165 24.6609V24.3773C36.165 23.0707 35.5867 22.6351 35.2215 22.6351C34.349 22.6351 30.2907 24.3773 29.3472 24.8837C28.4037 25.3902 29.1341 26.0384 29.5603 26.2612C29.9965 26.4739 30.3618 26.6968 30.3618 27.8514V39.2969C30.3618 39.8033 30.2197 40.3098 29.4892 40.7453C28.7689 41.1808 29.4182 42.2545 30.2197 42.2545H36.3172C37.1187 42.2545 37.768 41.1808 37.0375 40.7453C36.3172 40.3098 36.165 39.8033 36.165 39.2969V28.4693C36.165 27.345 36.9766 26.6157 37.6158 26.6157C38.255 26.6157 38.7825 27.0513 38.7825 28.3579V39.2969C38.7825 39.8033 38.6405 40.3098 37.91 40.7453C37.1897 41.1808 37.839 42.2545 38.6304 42.2545H44.109C44.9104 42.2545 45.5598 41.1808 44.8394 40.7453C44.109 40.3098 43.9669 39.8033 43.9669 39.2969C43.9669 39.2969 43.9669 27.6995 43.9669 27.659C43.9669 27.2741 44.5249 26.9196 45.0018 26.9196C46.5236 26.9196 47.041 37.7067 47.041 39.2969C47.041 39.8033 46.899 40.3098 46.1685 40.7453C45.4482 41.1808 46.0975 42.2545 46.8888 42.2545H52.3674C52.9153 42.2545 53.3921 41.748 53.4023 41.2923C53.6559 42.376 54.1733 42.2545 54.4878 42.2545C54.9241 42.2545 55.3299 42.5077 56.5169 40.5326C56.73 40.168 57.2373 40.3908 57.8967 41.1099C58.546 41.8291 58.9113 42.7001 61.6709 42.7001C64.4305 42.7001 67.4031 42.2646 67.4031 32.3486C67.4031 24.5292 63.1217 22.3515 61.5288 22.3515L61.5593 22.3617ZM60.6868 37.8586C59.2359 37.8586 59.0229 33.4425 59.0229 31.9232C59.0229 30.4039 59.5302 25.4104 60.8389 25.4104C62.1477 25.4104 62.726 29.7556 62.726 31.9232C62.726 34.0907 62.1477 37.8586 60.6969 37.8586H60.6868Z" fill="#231F20"/>
<path fill-rule="evenodd" clip-rule="evenodd" d="M77.5879 36.4817C77.5879 38.001 76.8675 37.9301 76.137 37.9301C75.5892 37.9301 73.9355 38.0314 72.7789 35.1852C72.7484 34.8408 72.7687 33.9596 73.8137 33.7267C73.8137 33.7267 78.8155 31.7718 79.3938 31.4781C79.9721 31.1843 80.0431 30.1715 80.0431 29.3814C80.0431 28.5914 78.8053 22.504 74.0978 22.504C69.3903 22.504 67.5742 27.5684 67.5742 33.0784C67.5742 38.5884 70.1816 42.7817 74.8993 42.7817C79.617 42.7817 80.3373 39.814 80.3373 37.9301C80.3373 35.7625 77.5777 35.246 77.5777 36.4817H77.5879ZM71.8556 31.3363C71.1353 25.7959 72.3629 25.178 73.0122 25.178C73.6615 25.178 75.1123 27.2038 75.1123 29.1586C75.1123 31.1134 73.4485 31.6908 72.647 31.6908C72.3223 31.6908 71.8962 31.6503 71.8455 31.3261L71.8556 31.3363Z" fill="#231F20"/>
<path fill-rule="evenodd" clip-rule="evenodd" d="M130.975 40.7555C130.244 40.32 130.102 39.8136 130.102 39.3071C130.102 38.2943 130.417 22.8682 124.684 22.8682C122.868 22.8682 122.564 24.0634 121.651 24.58V24.3875C121.651 23.0809 121.073 22.6454 120.707 22.6454C119.835 22.6454 115.777 24.3875 114.833 24.894C113.89 25.4004 114.62 26.0486 115.046 26.2715C115.482 26.4842 115.848 26.707 115.848 27.8617V39.3071C115.848 39.7933 115.716 40.2795 115.056 40.7049C114.955 40.087 114.437 39.378 113.91 39.378C113.332 39.378 113.19 38.8716 113.19 38.2234C113.19 37.5751 113.19 37.2814 112.611 30.1103C112.033 22.9391 108.989 23.162 105.793 23.162C102.598 23.162 99.8482 24.6813 99.8482 27.1425C99.8482 29.6038 101.441 29.8165 102.679 29.8165C103.917 29.8165 104.85 29.5228 104.85 27.9326C104.85 26.3424 103.835 25.8359 103.835 25.8359C103.835 25.8359 104.343 25.6941 105.499 25.6941C106.656 25.6941 107.315 27.5072 107.315 29.0974C107.315 30.404 104.992 30.4749 104.119 30.9104C101.106 32.4196 99.625 34.8201 99.625 37.7878C99.625 40.7555 101.37 42.2647 101.948 42.2647H107.021C108.178 42.2647 108.685 41.6266 109.05 41.6266C109.415 41.6266 109.628 42.2647 110.065 42.2647H113.261C114.235 42.2647 114.701 42.1128 114.914 41.8798C115.107 42.1027 115.391 42.2647 115.706 42.2647H121.803C122.605 42.2647 123.254 41.1911 122.523 40.7555C121.803 40.32 121.651 39.8136 121.651 39.3071V28.0339C121.651 27.5882 122.229 26.9197 122.868 26.9197C124.39 26.9197 124.908 37.7068 124.908 39.297C124.908 39.8034 124.766 40.3099 124.035 40.7454C123.315 41.1809 123.964 42.2546 124.755 42.2546H130.234C131.036 42.2546 131.685 41.1809 130.954 40.7454L130.975 40.7555ZM107.61 38.2943C107.61 38.9425 107.467 39.7427 106.595 39.7427C105.722 39.7427 104.85 39.4489 104.85 36.5521C104.85 33.6553 106.088 32.5006 107.61 32.5006V38.2943Z" fill="#231F20"/>
<path fill-rule="evenodd" clip-rule="evenodd" d="M145.635 40.7553C144.914 40.3198 144.762 39.8133 144.762 39.3069V15.2714C144.762 13.9648 144.184 13.5293 143.819 13.5293C143.21 13.5293 141.242 14.7144 139.679 15.4031C138.989 15.707 138.239 15.6259 137.944 15.7779C137.001 16.2843 137.731 16.9325 138.157 17.1554C138.594 17.3681 138.959 17.5909 138.959 18.7456V24.4582C138.563 24.0936 137.599 23.3643 136.189 23.3643C134.302 23.3643 130.457 26.9093 130.457 34.3742C130.457 37.4837 131.401 39.7323 131.979 41.1098C132.557 42.4873 133.217 42.2544 134.16 42.2544H144.904C145.706 42.2544 146.355 41.1807 145.625 40.7452L145.635 40.7553ZM137.579 39.0942C136.93 39.0942 135.479 37.4331 135.479 33.2297C135.479 29.0262 136.565 26.7169 137.072 26.7169C137.873 26.7169 139.243 29.0364 139.243 33.1588C139.243 37.2811 138.228 39.0942 137.579 39.0942Z" fill="#231F20"/>
<path fill-rule="evenodd" clip-rule="evenodd" d="M132.779 14.978C131.967 14.978 131.277 15.6059 131.277 16.4568C131.277 17.3076 131.967 17.9356 132.779 17.9356C133.591 17.9356 134.27 17.3076 134.27 16.4568C134.27 15.6059 133.58 14.978 132.779 14.978ZM132.779 17.6925C132.099 17.6925 131.572 17.1658 131.572 16.4568C131.572 15.7477 132.099 15.2312 132.779 15.2312C133.459 15.2312 133.976 15.7579 133.976 16.4568C133.976 17.1556 133.448 17.6925 132.779 17.6925Z" fill="#231F20"/>
<path fill-rule="evenodd" clip-rule="evenodd" d="M133.02 16.5581C133.274 16.5277 133.467 16.3961 133.467 16.0922C133.467 15.7579 133.264 15.606 132.868 15.606H132.219V17.3076H132.472V16.5682H132.767L133.213 17.3076H133.507L133.02 16.5581ZM132.472 16.3555V15.8288H132.827C133.01 15.8288 133.203 15.8694 133.203 16.0821C133.203 16.3454 133.01 16.3555 132.787 16.3555H132.483H132.472Z" fill="#231F20"/>
</svg>
