<svg width="191" height="25" viewBox="0 0 191 25" fill="none" xmlns="http://www.w3.org/2000/svg">
<g clip-path="url(#clip0_518_333)">
<mask id="mask0_518_333" style="mask-type:luminance" maskUnits="userSpaceOnUse" x="-30" y="-20" width="244" height="61">
<path d="M213.969 -19.3236H-29.6953V40.7581H213.969V-19.3236Z" fill="white"/>
</mask>
<g mask="url(#mask0_518_333)">
<path d="M22.6877 12.911V12.8458C22.6877 6.34094 27.8216 1.01123 34.8827 1.01123C41.9438 1.01123 47.0118 6.27479 47.0118 12.7812V12.8458C47.0118 19.3506 41.8793 24.6803 34.8175 24.6803C27.7558 24.6803 22.6877 19.4164 22.6877 12.911ZM41.7473 12.911V12.8458C41.7473 8.92222 38.8718 5.65303 34.8175 5.65303C30.7639 5.65303 27.9523 8.85737 27.9523 12.7812V12.8458C27.9523 16.7693 30.8294 20.0382 34.8827 20.0382C38.9363 20.0382 41.7473 16.8342 41.7473 12.911ZM51.6456 1.40455H57.0718L63.0868 11.0815L69.1022 1.40455H74.5296V24.2876H69.5277V9.34781L63.0868 19.1228H62.9564L56.5807 9.44687V24.2876H51.6456V1.40455ZM92.0711 21.2834C90.3729 23.2642 88.3921 24.3951 85.9738 24.3951C82.8091 24.3951 80.4427 22.3372 80.4427 19.4035V19.3538C80.4427 16.9355 82.1667 15.1593 85.099 14.079C83.7361 12.5612 83.0924 11.4548 83.0924 9.96248V9.91182C83.0924 7.59544 84.9703 5.82081 87.5958 5.82081C89.9364 5.82081 91.7371 7.5706 91.7371 9.73113V9.78179C91.7371 12.0204 90.0648 13.4882 87.3118 14.4388L92.0462 19.3022C92.9203 18.0664 93.6931 16.5744 94.3868 14.9273L95.5962 15.4161C94.7721 17.2695 93.898 18.8908 92.9203 20.2015L96.2392 23.6246L95.1838 24.4993L92.0711 21.2834ZM91.2222 20.4073L85.8967 14.9027C83.0411 15.8804 81.7808 17.5524 81.7808 19.3019V19.3535C81.7808 21.5399 83.5306 23.238 85.9996 23.238C88.0059 23.238 89.7299 22.1581 91.2222 20.4073ZM90.3994 9.83374V9.78147C90.3994 8.18753 89.1649 6.95303 87.5429 6.95303C85.7169 6.95303 84.4302 8.23883 84.4302 9.8602V9.9115C84.4302 11.0424 84.919 11.9181 86.5139 13.6163C89.0855 12.7929 90.3994 11.5313 90.3994 9.83374ZM122.593 12.911V12.8458C122.593 6.34094 127.726 1.01123 134.787 1.01123C141.848 1.01123 146.915 6.27479 146.915 12.7812V12.8458C146.915 19.3506 141.782 24.6803 134.721 24.6803C127.66 24.6803 122.593 19.4164 122.593 12.911ZM141.652 12.911V12.8458C141.652 8.92222 138.776 5.65303 134.721 5.65303C130.668 5.65303 127.856 8.85737 127.856 12.7812V12.8458C127.856 16.7693 130.734 20.0382 134.787 20.0382C138.84 20.0382 141.652 16.8342 141.652 12.911ZM150.109 20.9533L153.084 17.3895C155.143 19.0902 157.301 20.1689 159.916 20.1689C161.976 20.1689 163.218 19.3506 163.218 18.0109V17.9458C163.218 16.6719 162.434 16.0166 158.609 15.0357C153.999 13.8593 151.024 12.5844 151.024 8.04071V7.97457C151.024 3.8229 154.359 1.07802 159.033 1.07802C162.367 1.07802 165.212 2.12312 167.533 3.98713L164.918 7.77871C162.891 6.3732 160.896 5.52332 158.968 5.52332C157.039 5.52332 156.026 6.40612 156.026 7.51736V7.58254C156.026 9.08646 157.007 9.5769 160.963 10.5897C165.604 11.7991 168.22 13.4672 168.22 17.4556V17.5208C168.22 22.0639 164.755 24.6145 159.818 24.6145C156.353 24.6148 152.855 23.4061 150.109 20.9533ZM173.179 1.40455H190.439V5.88373H178.181V10.5249H188.969V15.0024H178.181V19.8088H190.603V24.2873H173.179V1.40455ZM12.5265 6.087V24.2876H7.44946V6.087H0.425781V1.40455H19.5502V6.087H12.5265ZM116.257 8.2256C116.257 4.45466 113.2 1.39778 109.43 1.39778H100.449V5.94891H109.43C110.686 5.94891 111.706 6.96851 111.706 8.2256C111.706 9.48269 110.686 10.5007 109.43 10.5007H100.449V15.0534H103.558L112.354 23.8472L115.514 20.6842L109.87 15.0373C113.434 14.8111 116.257 11.8481 116.257 8.2256Z" fill="#1D1D1B"/>
</g>
</g>
<defs>
<clipPath id="clip0_518_333">
<rect width="190" height="23.5542" fill="white" transform="translate(0.417969 0.950684)"/>
</clipPath>
</defs>
</svg>
