<svg width="191" height="22" viewBox="0 0 191 22" fill="none" xmlns="http://www.w3.org/2000/svg">
<g clip-path="url(#clip0_518_468)">
<path d="M9.02337 1.59808H5.45581V10.6208H3.98554V1.59808H0.417969V0.271851H9.02337V1.59808Z" fill="#00164E"/>
<path d="M19.9618 0.130249C23.3564 0.130249 25.497 2.55442 25.497 5.43516C25.497 8.3159 23.4213 10.7509 19.9294 10.7509C16.4375 10.7509 14.4375 8.25067 14.4375 5.43516C14.4375 2.61964 16.6213 0.130249 19.9618 0.130249ZM19.9618 9.3921C22.2753 9.3921 23.9726 7.70714 23.9726 5.44603C23.9726 3.18492 22.2645 1.49996 19.9618 1.49996C17.6591 1.49996 15.9618 3.17405 15.9618 5.44603C15.9618 7.71801 17.6699 9.3921 19.9618 9.3921Z" fill="#00164E"/>
<path d="M42.0414 10.6208H40.5603V2.5547H40.5279L37.3603 6.56599H37.1225L33.9549 2.5547H33.9225V10.6208H32.4414V0.271851H33.836L37.2414 4.51143L40.6684 0.271851H42.0414V10.6208Z" fill="#00164E"/>
<path d="M59.9945 10.6208H58.5135V2.5547H58.481L55.3134 6.56599H55.0756L51.8972 2.5547H51.8756V10.6208H50.3945V0.271851H51.7783L55.1945 4.51143L58.6216 0.271851H59.9945V10.6208Z" fill="#00164E"/>
<path d="M73.736 0.271851H75.5198L71.7035 5.1528V10.6208H70.2225V5.14193L66.4062 0.271851H68.19L70.9468 3.82657L73.736 0.271851Z" fill="#00164E"/>
<path d="M115.533 10.6208H114.052V6.10942H108.29V10.6208H106.809V0.271851H108.29V4.77233H114.052V0.271851H115.533V10.6208Z" fill="#00164E"/>
<path d="M123.13 0.271851H121.648V10.6208H123.13V0.271851Z" fill="#00164E"/>
<path d="M130.676 9.28367H135.325V10.6208H129.195V0.271851H130.676V9.28367Z" fill="#00164E"/>
<path d="M145.066 1.59808H141.055V4.46795H145.066V5.80504H141.055V10.6208H139.574V0.271851H145.066V1.59808Z" fill="#00164E"/>
<path d="M151.727 0.271851H150.246V10.6208H151.727V0.271851Z" fill="#00164E"/>
<path d="M165.801 9.90302C164.428 10.5118 163.314 10.7618 161.887 10.7618C158.731 10.7618 156.406 8.54418 156.406 5.51125C156.406 2.47832 158.785 0.130249 161.92 0.130249C163.131 0.130249 163.974 0.325922 165.595 1.01078V2.51094C164.385 1.84782 163.131 1.49996 161.898 1.49996C159.66 1.49996 157.931 3.21753 157.931 5.4569C157.931 7.69626 159.65 9.3921 162.093 9.3921C162.893 9.3921 163.617 9.20729 164.331 8.97901V6.85922H162.352V5.52212H165.812V9.90302H165.801Z" fill="#00164E"/>
<path d="M177.271 1.59808H172.915V4.72884H177.12V6.06594H172.915V9.28367H177.412V10.6208H171.434V0.271851H177.271V1.59808Z" fill="#00164E"/>
<path d="M185.055 0.271851C187.141 0.271851 188.438 1.38066 188.438 3.17433C188.438 4.37011 187.822 5.26151 186.709 5.70721C187.649 6.33771 188.222 7.28346 189.001 8.57707C189.444 9.29454 189.692 9.6424 190.406 10.6316H188.644L187.282 8.50098C185.919 6.38119 185.303 6.13116 184.557 6.13116H183.93V10.6208H182.449V0.271851H185.044H185.055ZM183.941 4.79407H184.892C186.482 4.79407 186.936 3.97876 186.914 3.10911C186.892 2.14161 186.319 1.54372 184.892 1.54372H183.941V4.79407Z" fill="#00164E"/>
<path d="M68.3977 19.3718C68.3977 20.5675 67.6842 21.3611 66.2356 21.3611C65.2085 21.3611 64.2031 20.7741 64.2031 19.437V16.3823H64.9058V19.2848C64.9058 19.8392 64.9815 20.0675 65.1977 20.2849C65.4788 20.5675 65.8247 20.7089 66.2572 20.7089C66.7869 20.7089 67.1761 20.5349 67.4031 20.3175C67.6518 20.0675 67.7058 19.7088 67.7058 19.2413V16.3823H68.4085V19.3609L68.3977 19.3718Z" fill="#00164E"/>
<path d="M75.2064 21.2959H74.601L71.3361 17.5238V21.2959H70.6875V16.3823H71.2497L74.547 20.1871V16.3823H75.2064V21.2959Z" fill="#00164E"/>
<path d="M77.543 16.3823H79.4457C81.2511 16.3823 82.0403 17.6868 82.0403 18.8391C82.0403 20.1001 81.0565 21.2959 79.4565 21.2959H77.5538V16.3823H77.543ZM78.2457 20.6654H79.3592C80.9484 20.6654 81.3159 19.4479 81.3159 18.8391C81.3159 17.8607 80.6889 17.0237 79.3268 17.0237H78.2457V20.6654Z" fill="#00164E"/>
<path d="M86.8496 17.0237H84.7739V18.5021H86.7739V19.1326H84.7739V20.6654H86.9037V21.2959H84.082V16.3823H86.8496V17.0237Z" fill="#00164E"/>
<path d="M90.288 16.3823C91.2826 16.3823 91.888 16.915 91.888 17.7629C91.888 18.3282 91.5961 18.7521 91.0772 18.9587C91.5205 19.2522 91.7907 19.7088 92.1583 20.3175C92.3637 20.6545 92.4934 20.8176 92.8286 21.285H91.9961L91.3583 20.2849C90.7097 19.2739 90.4178 19.1652 90.061 19.1652H89.7691V21.2959H89.0664V16.3932H90.2988L90.288 16.3823ZM89.7583 18.5239H90.2123C90.9583 18.5239 91.1745 18.1325 91.1745 17.7303C91.1745 17.2737 90.8934 16.9911 90.2123 16.9911H89.7583V18.5239Z" fill="#00164E"/>
<path d="M99.0875 21.3285H98.9469L97.3469 17.3281L95.7253 21.3285H95.5956L93.6172 16.3823H94.3199L95.6604 19.7631L97.0118 16.3823H97.6821L99.0442 19.7631L100.374 16.3823H101.066L99.0875 21.3285Z" fill="#00164E"/>
<path d="M105.541 17.0237H103.465V18.5021H105.465V19.1326H103.465V20.6654H105.606V21.2959H102.773V16.3823H105.541V17.0237Z" fill="#00164E"/>
<path d="M111.791 21.296H111.077L110.429 19.8502H108.353L107.737 21.296H107.023L109.121 16.3607H109.618L111.802 21.296H111.791ZM108.623 19.2197H110.148L109.359 17.4478L108.634 19.2197H108.623Z" fill="#00164E"/>
<path d="M114.581 16.3823C115.565 16.3823 116.192 16.915 116.192 17.7629C116.192 18.3282 115.889 18.7521 115.37 18.9587C115.813 19.2522 116.084 19.7088 116.451 20.3175C116.657 20.6545 116.776 20.8176 117.122 21.285H116.289L115.651 20.2849C115.003 19.2739 114.711 19.1652 114.354 19.1652H114.062V21.2959H113.359V16.3932H114.581V16.3823ZM114.062 18.5239H114.505C115.262 18.5239 115.478 18.1325 115.467 17.7303C115.467 17.2737 115.186 16.9911 114.505 16.9911H114.062V18.5239Z" fill="#00164E"/>
<path d="M98.6879 0.00012207H82.3203V10.8708H98.6879V0.00012207Z" fill="white"/>
<path d="M98.4291 2.83777H90.5156V8.03397H98.4291V2.83777Z" fill="#D71635"/>
<path d="M90.5151 2.84851H82.6016V8.02297H90.5151V2.84851Z" fill="white"/>
<path d="M98.4286 0.271851H82.6016V2.84821H98.4286V0.271851Z" fill="#00164E"/>
<path d="M98.4286 8.01184H82.6016V10.5991H98.4286V8.01184Z" fill="#00164E"/>
</g>
<defs>
<clipPath id="clip0_518_468">
<rect width="190" height="21.3609" fill="white" transform="translate(0.417969)"/>
</clipPath>
</defs>
</svg>
