<svg width="86" height="71" viewBox="0 0 86 71" fill="none" xmlns="http://www.w3.org/2000/svg">
<g clip-path="url(#clip0_518_363)">
<path d="M29.3242 0.892139C38.4808 0.892139 47.6345 0.915648 56.7882 0.859814C57.9665 0.853937 58.234 1.20069 58.2104 2.3056C58.1429 5.58506 58.1429 8.86452 58.2075 12.144C58.2251 13.0902 57.9254 13.2518 57.0615 13.2459C50.5995 13.2107 44.1376 13.2548 37.6756 13.1989C36.5002 13.1901 36.1123 13.434 36.1152 14.6976C36.1622 32.7611 36.1329 50.8245 36.1828 68.888C36.1858 70.2163 35.8772 70.5953 34.5284 70.5542C31.005 70.4513 27.4787 70.4631 23.9554 70.5542C22.7652 70.5836 22.5331 70.2221 22.5331 69.0967C22.5684 50.9832 22.5419 32.8698 22.5948 14.7593C22.5977 13.4252 22.2334 13.1813 20.9874 13.196C14.5754 13.2636 8.16048 13.2048 1.74849 13.2489C0.767004 13.2548 0.396742 13.0784 0.42319 11.997C0.499593 8.72053 0.490777 5.44107 0.429067 2.16161C0.411435 1.15367 0.664153 0.859814 1.71029 0.865692C10.9139 0.90977 20.1176 0.892139 29.3212 0.892139H29.3242Z" fill="#221F20"/>
<path d="M84.8334 27.6507C84.8334 36.0991 85.3036 44.4476 84.71 52.7198C84.0283 62.2261 77.8132 69.6166 67.5428 70.7333C56.9521 71.8852 48.4508 65.3057 46.3439 55.1059C45.9266 53.0959 45.7414 51.0683 45.7532 49.0113C45.7855 43.5778 45.7914 38.1444 45.7385 32.7139C45.7297 31.6942 45.9736 31.3945 47.0197 31.418C50.4461 31.4885 53.8725 31.4797 57.2989 31.4209C58.2069 31.4062 58.442 31.6442 58.4361 32.5523C58.3921 38.3765 58.4214 44.2008 58.4097 50.0251C58.4097 51.3533 58.6536 52.6404 59.0973 53.8717C60.1934 56.919 62.5208 58.3207 66.1029 58.1738C68.7476 58.068 71.1631 55.9875 71.8919 53.184C72.1241 52.2848 72.221 51.3768 72.2181 50.4423C72.1916 45.9404 72.2063 41.4356 72.2063 36.9337C72.2063 33.2987 73.37 31.944 76.9433 31.4121C79.7732 30.9919 81.7597 30.0545 84.8364 27.6507H84.8334Z" fill="#231F20"/>
</g>
<defs>
<clipPath id="clip0_518_363">
<rect width="84.596" height="70" fill="white" transform="translate(0.417969 0.859863)"/>
</clipPath>
</defs>
</svg>
