<svg width="191" height="21" viewBox="0 0 191 21" fill="none" xmlns="http://www.w3.org/2000/svg">
<g clip-path="url(#clip0_518_456)">
<path d="M122.015 20.3778C120.714 20.3778 119.541 20.3526 118.369 20.3895C117.825 20.4063 117.817 20.0201 117.713 19.6926C116.453 15.7342 115.198 11.7758 113.942 7.81736C113.883 7.63263 113.815 7.45125 113.695 7.11201C112.965 8.96105 112.281 10.6757 111.61 12.3955C110.647 14.8625 109.682 17.3296 108.746 19.8085C108.582 20.2434 108.372 20.4164 107.901 20.3879C106.983 20.3324 105.851 20.6515 105.204 20.2199C104.611 19.8236 104.526 18.648 104.244 17.8066C103.076 14.3184 101.921 10.8269 100.598 7.32361C100.285 8.44547 99.9711 9.56732 99.6638 10.6909C98.8392 13.7021 98.0012 16.7099 97.2102 19.7312C97.0758 20.2468 96.8692 20.408 96.3621 20.3879C95.4955 20.3526 94.6255 20.3442 93.7606 20.3879C93.1443 20.4181 93.0066 20.2737 93.1863 19.6472C94.1116 16.4328 94.99 13.2033 95.8868 9.98046C96.4695 7.88622 97.0825 5.7987 97.625 3.6927C97.7677 3.14185 97.9995 3.00749 98.5336 3.01925C100.072 3.05619 101.612 3.05116 103.15 3.02093C103.668 3.01085 103.916 3.12505 104.086 3.67926C104.979 6.61154 105.935 9.52366 106.869 12.4442C106.949 12.6944 107.031 12.9446 107.174 13.3813C107.958 11.2568 108.681 9.3003 109.404 7.34545C109.868 6.08924 110.348 4.83974 110.79 3.57682C110.931 3.17208 111.136 3.031 111.573 3.04108C113.056 3.07131 114.538 3.06291 116.021 3.04444C116.398 3.0394 116.639 3.11162 116.764 3.513C118.497 9.10044 120.24 14.6845 122.014 20.3761L122.015 20.3778Z" fill="#221E20"/>
<path d="M23.3986 11.6207C23.3986 9.01931 23.417 6.41956 23.3834 3.81814C23.3767 3.22698 23.4624 3.00865 24.1341 3.01369C28.4956 3.05064 32.8588 3.05232 37.2219 3.01369C37.9004 3.00697 37.9827 3.23706 37.976 3.8131C37.9575 5.46565 37.9793 5.46565 36.3083 5.46565C33.7908 5.46565 31.2751 5.48413 28.7576 5.45222C28.158 5.44382 27.9918 5.63359 28.017 6.21132C28.0573 7.18874 28.0556 8.16953 28.0035 9.14695C27.9699 9.78345 28.1295 10.0186 28.8231 10.0018C30.835 9.95307 32.8504 10.0051 34.8623 9.97155C35.4249 9.96315 35.5929 10.1378 35.5509 10.6819C35.4921 11.4293 35.781 12.4101 35.4048 12.8686C35.0067 13.3539 33.989 13.0029 33.2433 13.0147C31.705 13.0399 30.1666 13.0365 28.63 13.0147C28.1564 13.0079 27.9935 13.1557 28.0052 13.6361C28.0338 14.8385 28.0438 16.041 28.0052 17.2435C27.9867 17.7893 28.1967 17.8917 28.6887 17.8867C31.485 17.8665 34.2812 17.8951 37.0775 17.8632C37.7056 17.8564 37.9491 17.9774 37.9306 18.6743C37.8869 20.3789 37.9256 20.3806 36.2327 20.3806C32.2626 20.3806 28.2907 20.3554 24.3206 20.4008C23.5195 20.4108 23.3717 20.1573 23.3834 19.4233C23.4254 16.8236 23.4002 14.2222 23.3986 11.6207Z" fill="#221E20"/>
<path d="M19.5869 3.03385C17.7832 6.8579 16.0366 10.5627 14.29 14.2675C13.4218 16.1099 12.53 17.9404 11.6953 19.7979C11.4887 20.258 11.2368 20.4142 10.7565 20.3873C9.89328 20.3386 8.8386 20.6342 8.21722 20.2362C7.60423 19.8432 7.41445 18.7751 7.06345 17.9925C4.93058 13.2313 2.80611 8.46847 0.681638 3.7073C0.602705 3.53264 0.537208 3.35127 0.417969 3.05569C2.01678 3.05569 3.53498 3.05569 5.05318 3.05569C5.48815 3.05569 5.48983 3.44028 5.60235 3.69555C7.08025 7.03592 8.5447 10.3813 10.0159 13.7251C10.1351 13.9971 10.2712 14.2608 10.4425 14.6185C11.6651 11.9516 12.8491 9.36696 14.0331 6.78233C14.5335 5.69238 15.0474 4.60748 15.5227 3.50577C15.6806 3.14134 15.8838 3.01538 16.2768 3.02546C17.3382 3.05233 18.4012 3.03385 19.5852 3.03385H19.5869Z" fill="#221E20"/>
<path d="M56.5065 13.2435C55.9321 12.4206 55.9372 12.4374 56.8373 12.0125C58.4042 11.2702 59.7595 10.3045 60.0484 8.43367C60.4934 5.56521 58.7737 3.30974 55.7742 3.05951C51.5068 2.70347 47.2209 2.99401 42.9434 2.91004C42.4631 2.89997 42.485 3.19051 42.485 3.51128C42.485 8.9375 42.4934 14.3637 42.4766 19.7899C42.4766 20.2954 42.668 20.3962 43.1164 20.3861C44.1509 20.3609 45.1888 20.3324 46.22 20.3962C46.8884 20.4382 46.9925 20.1896 46.9808 19.5951C46.9438 17.6655 46.9976 15.7341 46.9505 13.8061C46.9338 13.1344 47.0648 12.8673 47.7987 12.9177C48.8281 12.9883 49.8677 12.9597 50.9022 12.9261C51.3658 12.911 51.6513 13.0454 51.9267 13.4384C53.4314 15.5897 54.9782 17.7142 56.493 19.8588C56.7164 20.1745 56.9163 20.3962 57.3512 20.3878C58.6645 20.3609 59.9778 20.3777 61.4876 20.3777C59.7578 17.9006 58.1305 15.5712 56.5031 13.2419L56.5065 13.2435ZM53.2064 10.2055C51.668 10.2407 50.1297 10.2189 48.5913 10.2189C47.5109 10.2189 46.9707 9.68316 46.9707 8.61169C46.9707 7.82908 47.0127 7.04143 46.9573 6.26217C46.9153 5.65086 47.0748 5.41406 47.7264 5.45269C48.6468 5.50811 49.5721 5.46613 50.4958 5.46613V5.47788C51.4195 5.47788 52.3432 5.45269 53.2652 5.48292C54.99 5.53834 55.8515 6.32599 55.8414 7.79381C55.833 9.24987 54.859 10.1685 53.2064 10.2055Z" fill="#221E20"/>
<path d="M166.822 11.0416C166.533 6.39298 163.716 3.31964 159.086 3.0207C155.523 2.79062 151.932 2.95184 148.355 2.92665C147.802 2.92329 147.903 3.28941 147.901 3.61018C147.9 6.26703 147.901 8.9222 147.901 11.579C147.901 14.2913 147.91 17.0036 147.895 19.7159C147.893 20.1525 147.957 20.3641 148.476 20.3608C151.999 20.3339 155.523 20.3994 159.044 20.3171C162.621 20.2348 165.466 18.1322 166.437 15.0235C166.844 13.7237 166.907 12.3869 166.823 11.0433L166.822 11.0416ZM160.628 16.483C159.924 17.8366 158.818 18.6108 157.167 18.5C155.832 18.4109 154.483 18.4513 153.143 18.4949C152.57 18.5134 152.459 18.3219 152.468 17.7879C152.501 15.7759 152.481 13.764 152.481 11.7503C152.481 9.6813 152.496 7.61393 152.471 5.54488C152.464 5.02929 152.615 4.87311 153.133 4.88654C154.473 4.92181 155.816 4.88654 157.157 4.90334C158.886 4.92517 160.203 5.72457 160.893 7.28308C162.26 10.3682 162.188 13.4768 160.626 16.4813L160.628 16.483Z" fill="#221E20"/>
<path d="M137.659 3.00231C136.156 2.51191 134.616 2.25328 133.041 2.37084C127.727 2.76551 123.765 5.70282 123.829 11.6396C123.837 16.3168 126.19 19.3851 130.605 20.4549C132.307 20.8663 134.025 20.9537 135.761 20.6648C139.681 20.0115 143.315 17.8719 143.75 12.6825C144.123 8.2186 142.316 4.52051 137.661 3.00231H137.659ZM137.293 16.9533C135.494 19.5765 132.577 19.7008 130.557 17.2354C128.158 14.3082 128.048 9.03648 130.323 6.02191C132.068 3.70934 134.762 3.59682 136.7 5.75488C137.981 7.18239 138.762 9.41939 138.782 12.0359C138.737 13.5911 138.376 15.3729 137.293 16.9516V16.9533Z" fill="#221E20"/>
<path d="M76.8277 2.92825C75.15 2.43618 73.4353 2.27495 71.6887 2.53191C67.569 3.13482 63.9247 5.38021 63.4729 10.5831C63.1152 14.6993 64.4739 18.2009 68.4306 19.9257C69.9824 20.6025 71.6215 20.935 73.2942 20.841C74.1406 20.8695 74.9451 20.8091 75.7478 20.6714C80.064 19.9257 82.7645 17.3814 83.2935 13.2046C83.9031 8.39982 82.0457 4.4582 76.8277 2.92825ZM76.6195 17.3965C74.9216 19.5411 72.3369 19.6352 70.4644 17.6518C67.7303 14.7548 67.5355 9.00273 70.068 5.92938C71.8297 3.78979 74.4463 3.72094 76.2802 5.80342C77.7917 7.52148 78.3509 9.59053 78.3694 11.5672C78.3728 13.8764 77.9042 15.7742 76.6195 17.3982V17.3965Z" fill="#221E20"/>
<path d="M186.619 19.5429C184.738 14.508 182.887 9.46134 181.032 4.41802C180.493 2.95357 180.498 2.95189 178.901 2.95189C178.565 2.95189 178.23 2.95189 177.895 2.95189C177.251 2.95189 176.606 2.98044 175.967 2.94349C175.449 2.91326 175.182 3.06105 174.996 3.59343C174.353 5.4324 173.637 7.2445 172.955 9.06835C171.63 12.6153 170.322 16.169 168.978 19.7092C168.777 20.2416 168.842 20.3927 169.42 20.3642C170.173 20.3255 170.93 20.3289 171.684 20.3642C172.127 20.386 172.317 20.2214 172.452 19.8049C172.761 18.851 173.15 17.924 173.464 16.9717C173.59 16.5905 173.77 16.4561 174.173 16.4595C176.297 16.478 178.422 16.4763 180.546 16.4578C180.917 16.4545 181.085 16.5787 181.203 16.9247C181.529 17.8719 181.937 18.7939 182.229 19.7528C182.385 20.2651 182.649 20.3793 183.131 20.3642C184.108 20.3339 185.091 20.3104 186.065 20.3692C186.826 20.4145 186.859 20.1878 186.617 19.5429H186.619ZM179.384 13.7271C177.989 13.6968 176.591 13.7086 175.194 13.722C174.791 13.7254 174.618 13.633 174.772 13.193C175.572 10.909 176.358 8.61994 177.152 6.33425C177.177 6.26035 177.251 6.20493 177.33 6.10585C178.178 8.45872 178.995 10.7646 179.846 13.057C180.043 13.586 179.954 13.7405 179.383 13.7288L179.384 13.7271Z" fill="#221E20"/>
<path d="M188.448 0.876255C187.301 0.879614 186.444 1.7378 186.438 2.88988C186.431 4.04701 187.277 4.89848 188.438 4.90183C189.613 4.90687 190.424 4.08731 190.418 2.90164C190.409 1.69581 189.608 0.872896 188.448 0.874575V0.876255ZM188.453 4.59618C187.467 4.59618 186.775 3.89586 186.78 2.90164C186.785 1.90406 187.474 1.19535 188.443 1.18695C189.383 1.18023 190.126 1.92422 190.139 2.88821C190.152 3.8438 189.408 4.59618 188.453 4.59618Z" fill="#313031"/>
<path d="M189.313 2.55522C189.521 2.34697 189.357 1.85322 188.956 1.76421C188.544 1.67184 187.867 1.47703 187.751 1.89185C187.563 2.56194 187.701 3.3244 187.701 4.10701C188.04 3.96594 187.97 3.80807 188.005 3.68715C188.065 3.47386 187.827 3.14806 188.2 3.05569C188.524 2.97508 188.599 3.29081 188.752 3.47386C188.922 3.6754 188.947 4.01632 189.491 4.0667C189.078 3.52761 188.759 3.10943 189.315 2.55354L189.313 2.55522ZM188.566 2.7366C188.158 2.79034 187.983 2.71812 187.993 2.35873C188.002 2.04132 188.161 1.98422 188.416 2.00605C188.688 2.02956 189.024 1.98589 189.014 2.40407C189.006 2.77019 188.688 2.71141 188.568 2.7366H188.566Z" fill="#403E3F"/>
</g>
<defs>
<clipPath id="clip0_518_456">
<rect width="190" height="19.9801" fill="white" transform="translate(0.417969 0.875977)"/>
</clipPath>
</defs>
</svg>
