<svg width="190" height="25" viewBox="0 0 190 25" fill="none" xmlns="http://www.w3.org/2000/svg">
<g clip-path="url(#clip0_599_58)">
<path d="M60.8245 13.5714V23.747H56.2227V0.521058C56.2871 0.497639 56.3866 0.444946 56.4861 0.444946C60.2683 0.491785 64.0622 0.444946 67.8385 0.638154C69.2964 0.708411 70.7893 1.13581 72.1535 1.68616C76.486 3.43088 76.246 8.86411 73.5586 11.0772C72.5282 11.9262 71.2928 12.5351 70.0809 13.302C72.1594 16.6802 74.3022 20.1638 76.5329 23.7879C74.9404 23.7879 73.5118 23.8172 72.0832 23.7587C71.8549 23.7528 71.5797 23.4132 71.4275 23.1615C69.6008 20.2165 67.78 17.2716 65.9884 14.3032C65.6606 13.7646 65.3151 13.5245 64.6594 13.5538C63.4182 13.6123 62.1653 13.5714 60.8304 13.5714H60.8245ZM60.8655 12.377C62.177 12.6522 65.3327 12.5702 66.4509 12.1077C67.2999 11.7564 68.1664 11.329 68.8573 10.7318C71.8491 8.13227 71.1289 3.70606 67.5107 2.17211C65.362 1.26462 63.1196 1.68616 60.8655 1.58663V12.377Z" fill="black"/>
<path d="M102.878 2.62882C102.006 3.31968 101.239 3.92858 100.425 4.5726C100.016 4.18033 99.6349 3.78806 99.2193 3.42507C96.8656 1.37004 93.3235 1.10657 90.9055 2.7986C89.0144 4.12178 88.8153 6.40515 90.4781 8.02106C91.8832 9.39108 93.7216 9.78335 95.5425 10.2283C97.2462 10.6499 98.9851 11.0187 100.624 11.6276C102.761 12.4239 104.383 13.8173 104.535 16.3114C104.729 19.473 103.148 22.0198 100.25 23.3489C98.2357 24.2739 96.0987 24.4847 93.9207 24.3969C91.005 24.2798 88.183 23.829 85.7474 22.0491C85.5132 21.8793 85.279 21.6978 84.9453 21.4402C85.8645 20.7376 86.7369 20.076 87.6619 19.3676C88.6865 20.7142 89.9043 21.7271 91.4792 22.2365C93.5635 22.9156 95.6537 23.1264 97.7204 22.1779C100.66 20.8196 101.023 17.5117 98.464 15.5269C97.2345 14.5726 95.7708 14.1627 94.2954 13.7587C92.3984 13.2377 90.4488 12.822 88.6572 12.0374C86.409 11.0538 85.4371 9.12176 85.6011 6.63934C85.7708 4.16277 87.0413 2.37121 89.2252 1.37589C93.9265 -0.761099 98.4816 -0.450796 102.89 2.62882H102.878Z" fill="black"/>
<path d="M111.018 23.7939C111.58 22.5761 112.066 21.5163 112.557 20.4625C115.537 14.0281 118.529 7.59369 121.492 1.14758C121.738 0.614799 122.013 0.386463 122.616 0.421592C123.576 0.474285 124.536 0.450866 125.496 0.421592C125.947 0.409882 126.211 0.526978 126.404 0.98365C129.548 8.41336 132.715 15.8372 135.877 23.2669C135.936 23.4074 135.965 23.5597 136.029 23.7939C134.688 23.7939 133.412 23.8231 132.142 23.7646C131.902 23.7529 131.574 23.4192 131.462 23.1615C130.508 20.9075 129.577 18.6358 128.676 16.3583C128.459 15.8079 128.178 15.6089 127.563 15.6147C124.255 15.6499 120.947 15.644 117.639 15.6147C117.118 15.6147 116.837 15.7494 116.609 16.2471C115.59 18.4777 114.489 20.6733 113.5 22.9156C113.184 23.6241 112.786 23.8875 112.054 23.788C111.767 23.747 111.474 23.7821 111.012 23.7821L111.018 23.7939ZM122.991 2.59957C121.117 6.61009 119.355 10.3864 117.546 14.2506H127.809C126.211 10.3864 124.647 6.61009 122.991 2.59957Z" fill="black"/>
<path d="M161.121 18.6826H164.183C164.113 20.7084 163.071 22.1311 161.384 22.9566C160.184 23.5421 158.838 23.9168 157.514 24.1393C155.055 24.5491 152.573 24.514 150.131 23.9285C146.42 23.0444 144.043 20.7377 143.065 17.0609C142.222 13.8817 142.216 10.6674 143.03 7.48245C143.972 3.78808 146.338 1.46374 150.061 0.603086C153.393 -0.169744 156.736 -0.187308 160.009 0.907535C162.737 1.82673 164.206 3.81736 164.212 6.45786H160.319C160.219 5.93679 160.161 5.43328 160.032 4.95319C159.201 1.87943 156.291 0.245945 152.936 0.954373C150.787 1.41105 149.423 2.77521 148.58 4.71899C147.479 7.27753 147.239 9.99415 147.362 12.7225C147.45 14.6253 147.637 16.5749 148.158 18.3958C149.452 22.9332 153.428 24.0222 157.058 23.2259C159.382 22.7166 160.74 21.0948 161.115 18.6826H161.121Z" fill="black"/>
<path d="M189.921 0.50354V1.89112C189.635 1.89112 189.354 1.89112 189.078 1.89112C185.981 1.89112 182.884 1.89112 179.793 1.89112C179.43 1.89112 179.032 1.79745 179.037 2.40634C179.055 5.31031 179.043 8.22013 179.043 11.2236H187.79V12.5761H179.102V22.3184H189.91C189.933 22.617 189.933 22.8278 189.962 23.0327C190.05 23.6358 189.798 23.8055 189.201 23.7997C186.561 23.7704 183.914 23.788 181.274 23.788C179.301 23.788 177.322 23.788 175.349 23.788C175.062 23.788 174.781 23.7646 174.453 23.747V0.50354H189.927H189.921Z" fill="black"/>
<path d="M46.3433 22.3067C46.3433 22.6814 46.3257 22.9156 46.3433 23.1498C46.3901 23.624 46.2203 23.8055 45.7168 23.8055C40.9686 23.7821 36.2204 23.7763 31.4663 23.7938C30.9803 23.7938 30.8047 23.6826 30.8047 23.1849C30.8164 15.7377 30.8164 8.29624 30.8223 0.848963C30.8223 0.749431 30.8574 0.644045 30.8867 0.491821H46.2847V1.86184H35.4944V11.2236H44.1536V12.5761H35.5061V22.3067H46.3374H46.3433Z" fill="black"/>
<path d="M21.3304 0.439162C20.4112 2.90402 19.5447 5.22251 18.6782 7.53515C16.7579 12.6815 14.8199 17.822 12.9347 22.98C12.6946 23.6299 12.3668 23.829 11.7227 23.8056C10.7626 23.7646 9.80238 23.8231 8.84219 23.7704C8.59629 23.7587 8.2333 23.5245 8.15133 23.3138C5.42886 15.7611 2.72981 8.2026 0.0249012 0.638225C0.0190464 0.614805 0.030756 0.585532 0.0600299 0.439162C1.48274 0.439162 2.93473 0.415743 4.38086 0.468436C4.55064 0.468436 4.77898 0.848996 4.85509 1.08904C6.65836 6.56326 8.44407 12.0433 10.2298 17.5234C10.6338 18.7529 11.0436 19.9824 11.6408 21.2119C12.0213 20.1405 12.4019 19.0632 12.7883 17.9918C14.7672 12.4415 16.752 6.89113 18.7016 1.32909C18.9417 0.644079 19.2403 0.310357 19.9897 0.427453C20.3761 0.486 20.7859 0.439162 21.3304 0.439162Z" fill="black"/>
</g>
<defs>
<clipPath id="clip0_599_58">
<rect width="190" height="24.4203" fill="white"/>
</clipPath>
</defs>
</svg>
