<svg width="60" height="70" viewBox="0 0 60 70" fill="none" xmlns="http://www.w3.org/2000/svg">
<g clip-path="url(#clip0_599_38)">
<path d="M0 28.1277C0.0237589 28.0445 0.0610944 27.9614 0.0661856 27.8765C0.222316 25.5363 0.634702 23.2435 1.34917 21.0085C3.24139 15.0959 6.62874 10.2101 11.4874 6.34754C14.9698 3.58133 18.8832 1.70098 23.2243 0.72177C25.8276 0.136283 28.4649 -0.0928209 31.1293 0.034459C38.3113 0.375569 44.5666 2.97547 49.8326 7.86302C54.727 12.4044 57.7494 17.9979 58.9051 24.5791C59.102 25.7043 59.2225 26.8464 59.3056 27.9851C59.3803 29.0051 59.4363 30.0386 59.3633 31.0568C59.1801 33.5956 58.7677 36.0988 57.9752 38.5307C56.8704 41.9265 55.2327 45.044 53.0316 47.8476C50.3163 51.3062 47.0104 54.0775 43.097 56.1038C40.0949 57.6583 36.9129 58.663 33.5595 59.0838C27.0376 59.9018 20.8535 58.8293 15.1141 55.5726C9.79207 52.5535 5.77681 48.2668 3.05981 42.7835C1.34917 39.3351 0.395416 35.6728 0.0899445 31.8375C0.0712767 31.605 0.0305472 31.3759 0 31.1451V28.1277ZM29.5968 58.8106C29.775 58.8106 29.9515 58.8157 30.1297 58.8106C31.9099 58.7614 33.6817 58.6104 35.4262 58.2421C41.4746 56.9642 46.6354 54.0639 50.8543 49.5735C55.9387 44.1615 58.5691 37.6957 58.7982 30.2643C58.8593 28.3093 58.6828 26.3695 58.3231 24.4484C57.5594 20.3721 56.0083 16.6165 53.6578 13.1986C50.447 8.53166 46.2552 5.0425 41.0283 2.83292C35.9727 0.696315 30.7135 0.0276708 25.288 0.874506C18.7814 1.89105 13.288 4.88976 8.69746 9.57366C6.5914 11.7221 4.90961 14.1744 3.57911 16.8761C1.69367 20.7115 0.680523 24.7539 0.575305 29.0254C0.520999 31.2231 0.719556 33.3988 1.18116 35.5473C2.46244 41.5107 5.29824 46.6172 9.69873 50.8344C13.6478 54.6206 18.3334 57.044 23.6792 58.1912C25.6291 58.6104 27.6011 58.8174 29.5951 58.8123L29.5968 58.8106Z" fill="black"/>
<path d="M19.7792 66.8547V69.8043H18.4453V63.072C18.464 63.0652 18.4928 63.0499 18.5217 63.0499C19.618 63.0635 20.7177 63.0499 21.8123 63.1059C22.2349 63.1263 22.6676 63.2502 23.063 63.4097C24.3189 63.9154 24.2493 65.4903 23.4703 66.1318C23.1716 66.3779 22.8136 66.5544 22.4623 66.7767C23.0647 67.7559 23.6859 68.7656 24.3324 69.8161C23.8708 69.8161 23.4567 69.8246 23.0427 69.8076C22.9765 69.8059 22.8967 69.7075 22.8526 69.6345C22.3231 68.7809 21.7953 67.9273 21.276 67.0669C21.181 66.9108 21.0809 66.8412 20.8908 66.8497C20.531 66.8666 20.1678 66.8547 19.7809 66.8547H19.7792ZM19.7911 66.5085C20.1712 66.5883 21.0859 66.5646 21.4101 66.4305C21.6562 66.3287 21.9073 66.2048 22.1076 66.0317C22.9748 65.2782 22.766 63.9952 21.7173 63.5506C21.0944 63.2875 20.4445 63.4097 19.7911 63.3809V66.5102V66.5085Z" fill="black"/>
<path d="M31.9715 63.6829C31.7187 63.8832 31.4964 64.0596 31.2605 64.2463C31.1417 64.1326 31.0314 64.0189 30.9109 63.9137C30.2287 63.318 29.2019 63.2417 28.501 63.7321C27.9529 64.1157 27.8952 64.7775 28.3772 65.2459C28.7845 65.643 29.3173 65.7567 29.8451 65.8857C30.339 66.0079 30.843 66.1148 31.3182 66.2913C31.9376 66.5221 32.4077 66.926 32.4518 67.6489C32.5078 68.5654 32.0496 69.3036 31.2096 69.6888C30.6258 69.957 30.0063 70.018 29.375 69.9926C28.5299 69.9586 27.7119 69.828 27.0059 69.3121C26.9381 69.2629 26.8702 69.2102 26.7734 69.1356C27.0399 68.9319 27.2927 68.7402 27.5609 68.5348C27.8579 68.9251 28.2108 69.2187 28.6674 69.3664C29.2715 69.5632 29.8774 69.6243 30.4764 69.3494C31.3284 68.9557 31.4336 67.9968 30.692 67.4215C30.3356 67.1449 29.9113 67.0261 29.4837 66.909C28.9338 66.758 28.3687 66.6375 27.8494 66.4101C27.1977 66.125 26.916 65.5649 26.9635 64.8454C27.0127 64.1275 27.381 63.6082 28.014 63.3197C29.3767 62.7003 30.6971 62.7902 31.9749 63.6829H31.9715Z" fill="black"/>
<path d="M34.3298 69.8195C34.4927 69.4665 34.6336 69.1594 34.7762 68.8539C35.64 66.9888 36.5072 65.1237 37.3659 63.2553C37.4372 63.1008 37.5169 63.0347 37.6917 63.0448C37.97 63.0601 38.2483 63.0533 38.5267 63.0448C38.6573 63.0414 38.7337 63.0754 38.7897 63.2078C39.701 65.3613 40.6191 67.5132 41.5356 69.6668C41.5525 69.7075 41.561 69.7516 41.5797 69.8195C41.1911 69.8195 40.8211 69.828 40.4528 69.811C40.3833 69.8076 40.2882 69.7109 40.256 69.6362C39.9794 68.9829 39.7095 68.3244 39.4482 67.6643C39.3854 67.5047 39.3039 67.447 39.1257 67.4487C38.1669 67.4589 37.208 67.4572 36.2492 67.4487C36.0982 67.4487 36.0167 67.4878 35.9505 67.632C35.6552 68.2786 35.3362 68.915 35.0494 69.565C34.9577 69.7703 34.8423 69.8467 34.6302 69.8178C34.547 69.8059 34.4622 69.8161 34.3281 69.8161L34.3298 69.8195ZM37.8003 63.6745C37.2573 64.8369 36.7464 65.9315 36.2221 67.0516H39.197C38.7337 65.9315 38.2806 64.8369 37.8003 63.6745Z" fill="black"/>
<path d="M48.8565 68.3363H49.744C49.7237 68.9235 49.4216 69.3359 48.9328 69.5752C48.5849 69.7449 48.1946 69.8535 47.8111 69.918C47.0983 70.0368 46.3788 70.0266 45.6711 69.8569C44.5951 69.6006 43.9061 68.932 43.6227 67.8662C43.3783 66.9447 43.3766 66.013 43.6125 65.0898C43.8858 64.019 44.5714 63.3452 45.6507 63.0958C46.6163 62.8717 47.5854 62.8667 48.534 63.184C49.3249 63.4504 49.7508 64.0274 49.7525 64.7928H48.624C48.5951 64.6418 48.5781 64.4958 48.5408 64.3567C48.2998 63.4657 47.4564 62.9922 46.484 63.1976C45.8611 63.33 45.4657 63.7254 45.2214 64.2888C44.9023 65.0304 44.8327 65.8179 44.8684 66.6087C44.8938 67.1602 44.9481 67.7254 45.0992 68.2531C45.4742 69.5684 46.6265 69.884 47.6787 69.6532C48.3524 69.5056 48.7462 69.0355 48.8548 68.3363H48.8565Z" fill="black"/>
<path d="M57.2024 63.0686V63.4691C57.1192 63.4691 57.0378 63.4691 56.958 63.4691C56.0603 63.4691 55.1625 63.4691 54.2665 63.4691C54.1613 63.4691 54.0459 63.4419 54.0476 63.6184C54.0526 64.4602 54.0492 65.3036 54.0492 66.1742H56.5847V66.5662H54.0662V69.3902H57.199C57.2058 69.4767 57.2058 69.5378 57.2143 69.5972C57.2397 69.772 57.1668 69.8212 56.9937 69.8195C56.2283 69.811 55.4612 69.8161 54.6958 69.8161C54.1239 69.8161 53.5503 69.8161 52.9784 69.8161C52.8952 69.8161 52.8138 69.8093 52.7188 69.8042V63.0652H57.2041L57.2024 63.0686Z" fill="black"/>
<path d="M15.586 69.3867C15.586 69.4954 15.581 69.5632 15.586 69.6311C15.5996 69.7686 15.5504 69.8212 15.4045 69.8212C14.0281 69.8144 12.6518 69.8127 11.2738 69.8178C11.1329 69.8178 11.082 69.7855 11.082 69.6413C11.0854 67.4826 11.0854 65.3257 11.0871 63.167C11.0871 63.1381 11.0973 63.1076 11.1058 63.0635H15.5691V63.4623H12.4414V66.1759H14.9513V66.5679H12.4448V69.3884H15.5843L15.586 69.3867Z" fill="black"/>
<path d="M8.3362 63.0483C8.06976 63.7628 7.8186 64.4348 7.56743 65.1051C7.01079 66.5969 6.44907 68.0869 5.90261 69.582C5.83303 69.7704 5.73799 69.8281 5.55132 69.8213C5.273 69.8094 4.99468 69.8264 4.71636 69.8111C4.64508 69.8077 4.53987 69.7398 4.51611 69.6787C3.72527 67.4895 2.94293 65.2986 2.16058 63.1077C2.15888 63.1009 2.16228 63.0924 2.17076 63.05C2.58315 63.05 3.00402 63.0432 3.4232 63.0585C3.47241 63.0585 3.5386 63.1688 3.56066 63.2384C4.08336 64.8251 4.60096 66.4136 5.11857 68.002C5.23566 68.3584 5.35446 68.7148 5.52756 69.0712C5.63787 68.7606 5.74818 68.4484 5.86018 68.1378C6.43379 66.529 7.0091 64.9202 7.57422 63.3079C7.6438 63.1094 7.73035 63.0127 7.94757 63.0466C8.05958 63.0636 8.17838 63.05 8.3362 63.05V63.0483Z" fill="black"/>
<path d="M42.6171 8.37387C43.1771 7.46763 43.749 6.54443 44.3447 5.58219C45.0422 6.06077 45.7278 6.5054 46.3862 6.98906C47.0328 7.46594 47.6472 7.98693 48.2836 8.48078C48.4567 8.61485 48.4584 8.70988 48.3107 8.86771C47.9408 9.26313 47.5844 9.67042 47.2314 10.0811C47.099 10.2355 47.0006 10.2355 46.8478 10.1066C46.371 9.70097 45.8788 9.31234 45.4002 8.91014C45.2594 8.79304 45.1694 8.80322 45.0659 8.95596C44.9098 9.18676 44.7367 9.40398 44.5534 9.65006C45.4223 10.4053 46.2878 11.1588 47.1957 11.9479C47.9289 11.1723 48.6722 10.3883 49.441 9.57709C49.9212 10.0879 50.3557 10.5071 50.7375 10.9687C51.4486 11.8257 52.1274 12.7082 52.8249 13.5754C52.9471 13.7281 52.925 13.8248 52.7655 13.9284C52.3905 14.1727 52.0205 14.429 51.6488 14.6802C51.5606 14.7396 51.4757 14.8023 51.3824 14.8668C51.8338 15.1452 52.2649 15.415 52.7027 15.6729C52.7485 15.7001 52.8487 15.6729 52.9064 15.6407C53.1966 15.4778 53.48 15.3064 53.7956 15.1197C54.0213 15.4998 54.2623 15.8681 54.466 16.255C54.7918 16.8779 55.0854 17.5177 55.4095 18.1422C55.6624 18.6275 55.9288 19.1061 56.2106 19.5762C56.4312 19.9462 56.4363 20.3551 56.4923 20.759C56.5058 20.8609 56.5313 20.9712 56.5839 21.0577C57.093 21.8944 57.5071 22.7718 57.7243 23.7306C57.838 24.2329 57.8991 24.7472 57.9942 25.2529C58.057 25.5872 58.1452 25.9164 58.2097 26.2491C58.2267 26.3356 58.2267 26.4782 58.1775 26.5104C58.1147 26.5528 57.9908 26.5257 57.8991 26.5019C57.8296 26.4833 57.7685 26.4256 57.6632 26.3611C57.6989 26.7344 57.7311 27.0789 57.7685 27.4794C57.0981 27.5134 56.4465 27.549 55.7931 27.5694C55.749 27.5694 55.6709 27.4692 55.6624 27.4082C55.6183 27.0959 55.5928 26.7802 55.5572 26.4374C55.1414 26.5206 54.7477 26.524 54.3455 26.2796C54.393 26.6852 54.4473 27.0416 54.4762 27.3997C54.5288 28.0768 54.5746 28.7556 54.6051 29.4345C54.6153 29.6483 54.6747 29.723 54.9021 29.7213C55.7914 29.7162 56.6806 29.7331 57.5699 29.7416C57.8754 29.745 57.9008 29.7654 57.8923 30.0759C57.8465 31.8205 57.6174 33.543 57.2865 35.2537C57.2797 35.2893 57.2627 35.325 57.2441 35.3759C56.7383 35.2774 56.2411 35.1807 55.7422 35.084C55.62 35.0602 55.5012 35.0263 55.3773 35.0127C55.1465 34.9889 55.1448 34.8685 55.1804 34.6733C55.3094 33.9588 55.4146 33.241 55.5283 32.5248C55.5351 32.4807 55.5283 32.4349 55.5283 32.3449C55.211 32.311 54.9004 32.2685 54.5882 32.2533C54.5423 32.2516 54.4592 32.3602 54.4456 32.4281C54.2318 33.4972 54.0332 34.5681 53.816 35.6355C53.7538 35.9433 53.8737 36.1367 54.1758 36.2159C55.0124 36.4348 55.844 36.6758 56.6806 36.8981C56.8385 36.9406 56.852 37.0135 56.8079 37.1493C56.2852 38.7768 55.7218 40.389 54.9564 41.9232C54.8563 42.1251 54.7697 42.1489 54.5746 42.042C54.1266 41.7976 53.665 41.5803 53.2085 41.3512C53.1338 41.3139 53.0608 41.2732 52.9641 41.2206C53.2916 40.4569 53.6124 39.7068 53.9484 38.921C53.6191 38.7955 53.3272 38.6767 53.0303 38.5799C52.976 38.563 52.8538 38.6224 52.8266 38.6767C52.3209 39.7204 51.8253 40.7675 51.3281 41.8145C51.3179 41.8349 51.3145 41.8587 51.2976 41.9113C52.2208 42.4289 53.1474 42.9499 54.1215 43.4963C53.7617 44.0852 53.4494 44.6741 53.0625 45.2087C52.3956 46.1285 51.6811 47.0127 50.9904 47.9155C50.8784 48.0614 50.7969 48.0665 50.6578 47.9393C50.2148 47.5303 49.7583 47.1365 49.278 46.7089C49.816 45.9978 50.3489 45.2918 50.9038 44.557C50.6035 44.3432 50.3234 44.1446 50.0332 43.9393C49.2102 44.9287 48.3973 45.9062 47.5725 46.899C48.3362 47.6389 49.1066 48.3839 49.8992 49.1527C49.7193 49.3444 49.592 49.4836 49.4596 49.6193C48.3328 50.7767 47.0481 51.7458 45.7634 52.7165C45.6429 52.8081 45.5683 52.7963 45.4817 52.669C45.1678 52.1989 44.8487 51.7339 44.5263 51.2706C44.4227 51.1212 44.438 51.0194 44.5891 50.9023C45.1711 50.456 45.7431 49.9927 46.3235 49.543C46.4694 49.4293 46.4711 49.3325 46.3506 49.2036C46.1571 48.9948 45.9705 48.7793 45.7787 48.5638C44.7893 49.3088 43.8169 50.0402 42.8326 50.7801C43.3875 51.6898 43.9476 52.6062 44.5229 53.5464C43.0295 54.4085 41.5326 55.2349 39.9102 55.8917C39.7456 55.4912 39.5844 55.1009 39.4283 54.7088C39.3536 54.5222 39.301 54.327 39.2161 54.1454C39.1262 53.952 39.1618 53.8552 39.3706 53.767C39.9662 53.5107 40.5483 53.2222 41.1423 52.9592C41.3494 52.8675 41.3816 52.7555 41.2679 52.5705C41.1287 52.3414 41.0015 52.1039 40.8691 51.8697C39.822 52.3194 38.7936 52.7589 37.7414 53.2103C38.0808 54.232 38.4219 55.257 38.7698 56.3024C37.2187 56.7844 35.6829 57.2171 34.0605 57.4598C33.9451 56.7742 33.8314 56.1021 33.7109 55.3911C33.9111 55.3469 34.1266 55.3011 34.3405 55.2536C34.7851 55.1569 35.2314 55.0618 35.6761 54.9634C35.8882 54.9176 35.9646 54.809 35.8899 54.5816C35.8084 54.3338 35.7677 54.0741 35.7049 53.7992C35.559 53.8196 35.43 53.8315 35.301 53.8552C34.4202 54.0181 33.5395 54.1878 32.657 54.344C32.4822 54.3745 32.4041 54.417 32.4279 54.6189C32.5348 55.5642 32.6214 56.5094 32.7232 57.4547C32.7401 57.6091 32.73 57.6991 32.5365 57.711C31.1228 57.7975 29.7109 57.8841 28.2955 57.7907C28.1581 57.7822 28.0206 57.7653 27.839 57.75C27.8848 57.0508 27.929 56.3686 27.9748 55.6643C28.2276 55.6643 28.4873 55.6643 28.7453 55.6643C29.1933 55.6643 29.6413 55.6643 30.0893 55.6694C30.2353 55.6694 30.2998 55.6083 30.2947 55.4623C30.2879 55.1993 30.2947 54.9363 30.2743 54.6749C30.2709 54.6206 30.1827 54.529 30.1301 54.5273C29.1729 54.4831 28.2141 54.4526 27.2569 54.4119C27.0872 54.4051 27.0906 54.5154 27.0804 54.6206C26.999 55.3741 26.9209 56.1276 26.8378 56.8811C26.8157 57.0881 26.7817 57.2952 26.758 57.5022C26.7444 57.6227 26.6918 57.6838 26.5628 57.6685C24.9812 57.4717 23.4148 57.1934 21.8569 56.7267C22.0503 56.0631 22.2421 55.4063 22.4424 54.7224C22.6511 54.7682 22.853 54.8124 23.0533 54.8565C23.5658 54.9685 24.08 55.0788 24.5925 55.1942C24.7741 55.2349 24.8658 55.1755 24.8912 54.9872C24.9235 54.7496 24.9795 54.5154 25.0015 54.2778C25.0066 54.2167 24.937 54.1013 24.881 54.086C23.8509 53.8162 22.8174 53.5599 21.7398 53.2884C21.4105 54.2948 21.0779 55.3198 20.7385 56.3618C19.0635 55.8679 17.5277 55.1382 16.0054 54.3287C16.3516 53.694 16.6842 53.0848 17.0304 52.4501C17.3596 52.6181 17.677 52.7878 18.0011 52.9456C18.3541 53.1187 18.7139 53.2799 19.0703 53.4496C19.206 53.5141 19.279 53.4836 19.335 53.341C19.4453 53.0627 19.5709 52.7895 19.6982 52.4993C18.7258 51.9969 17.7669 51.5014 16.7589 50.9804C16.2022 51.8781 15.632 52.7996 15.0398 53.7551C14.5595 53.4394 14.0792 53.1577 13.6363 52.8268C12.7691 52.1802 11.9222 51.5048 11.0635 50.8446C10.9295 50.7411 10.9108 50.6563 11.0296 50.5256C11.4148 50.1013 11.7933 49.6737 12.17 49.2409C12.2973 49.095 12.3991 49.1408 12.523 49.2443C13.0033 49.6465 13.492 50.0385 13.9723 50.4407C14.1081 50.5544 14.1997 50.5595 14.3066 50.4C14.4644 50.1624 14.6443 49.9401 14.8208 49.7025C13.9451 48.9405 13.083 48.1921 12.1955 47.42C11.4352 48.1718 10.6698 48.9303 9.87389 49.7178C9.38174 49.1883 8.8828 48.6927 8.43308 48.1548C7.78989 47.3826 7.18573 46.5782 6.55782 45.7942C6.41696 45.6194 6.4526 45.5243 6.6291 45.4106C7.13313 45.0814 7.62867 44.7386 8.15646 44.3822C8.36859 44.6622 8.56884 44.9354 8.77758 45.2019C9.04402 45.5413 9.31895 45.8756 9.59048 46.2116C9.70248 46.3491 9.8077 46.3423 9.93838 46.2184C10.1437 46.0216 10.3643 45.8417 10.5884 45.6448C10.2965 45.2698 10.0046 44.9202 9.74321 44.5485C9.32913 43.9613 8.92862 43.364 8.5383 42.7598C8.43647 42.6037 8.36859 42.5918 8.21416 42.6834C7.38599 43.1807 6.54934 43.666 5.71608 44.1548C5.67704 44.1786 5.63631 44.1972 5.58371 44.2244C4.59092 42.6834 3.81367 41.0509 3.22988 39.2639C3.87646 39.0314 4.51286 38.8039 5.17302 38.5681C5.29181 38.8701 5.39363 39.1518 5.51243 39.4251C5.70589 39.8714 5.91633 40.3109 6.1098 40.7573C6.17768 40.9134 6.2812 40.9541 6.42206 40.8913C6.69359 40.7691 6.96002 40.6317 7.21798 40.5061C6.74959 39.3012 6.29478 38.1285 5.82299 36.9185C4.81833 37.2189 3.795 37.5244 2.74961 37.8349C2.10302 35.9104 1.79416 33.9317 1.60409 31.8816C2.26594 31.8426 2.91083 31.8053 3.55571 31.7696C3.69317 31.7611 3.70845 31.8562 3.72033 31.9682C3.79839 32.6283 3.88155 33.2885 3.9664 33.9469C3.98168 34.0623 4.00713 34.176 4.03428 34.2881C4.11744 34.6393 4.11914 34.6461 4.48061 34.5816C4.7216 34.5392 4.95919 34.4713 5.22223 34.4102C5.15944 33.9503 5.09156 33.5176 5.04574 33.0797C4.96258 32.2889 4.88961 31.4964 4.81663 30.7039C4.79118 30.4204 4.77251 30.1353 4.76402 29.8502C4.75893 29.6839 4.69614 29.6296 4.52474 29.6296C3.67451 29.6347 2.82258 29.6262 1.97235 29.6228C1.89428 29.6228 1.81792 29.6228 1.73985 29.6194C1.55657 29.6109 1.46153 29.538 1.4802 29.3309C1.57693 28.2533 1.66348 27.1757 1.75513 26.0963C1.75852 26.0505 1.76191 26.0047 1.767 25.9538C1.67367 25.9147 1.57015 25.8944 1.49887 25.8367C1.24431 25.6347 1.22734 25.4548 1.41571 25.185C1.47341 25.1018 1.52432 25.0136 1.58881 24.9372C1.75343 24.7421 1.83149 24.5622 1.68724 24.2957C1.58712 24.1108 1.58881 23.8766 1.70421 23.6509C1.78228 23.4998 1.76191 23.3013 1.81452 23.1332C2.02835 22.4544 2.2914 21.7977 2.71397 21.2156C3.12296 20.6521 3.30794 19.9818 3.57268 19.3505C3.851 18.6886 4.15987 18.0387 4.44837 17.3802C4.52134 17.2122 4.6045 17.2105 4.75214 17.2886C5.11362 17.482 5.48528 17.6551 5.84505 17.8486C5.96554 17.9131 6.0487 17.8978 6.16071 17.8316C6.46618 17.6517 6.78692 17.4956 7.0924 17.3157C7.19083 17.258 7.2621 17.1579 7.37241 17.0527C6.65455 16.6488 5.97573 16.2669 5.25617 15.863C5.57861 15.3267 5.85354 14.7871 6.20483 14.3034C6.90742 13.3344 7.65412 12.3959 8.37877 11.4422C8.48569 11.3013 8.56545 11.2826 8.708 11.415C9.07457 11.7578 9.4598 12.082 9.83825 12.4146C9.91801 12.4859 9.99608 12.5605 10.0928 12.6488C9.54975 13.3666 9.01687 14.0726 8.48738 14.7735C8.60618 14.9449 8.70461 14.9721 8.84546 14.8465C9.46659 14.2915 10.1556 13.8401 10.8955 13.4617C11.0058 13.4057 11.0907 13.2903 11.1789 13.1935C11.3911 12.9593 11.5981 12.72 11.8306 12.4553C11.0466 11.6967 10.271 10.9466 9.4598 10.1609C10.0758 9.58557 10.6189 9.03402 11.2095 8.53848C11.985 7.88681 12.7979 7.28265 13.5922 6.65134C13.7279 6.54273 13.8043 6.55291 13.9027 6.70056C14.2048 7.15877 14.5154 7.61188 14.831 8.05991C14.9583 8.2398 14.9244 8.34502 14.7496 8.47739C14.1827 8.90674 13.6312 9.35647 13.0695 9.79261C12.915 9.9131 12.8862 10.0166 13.0304 10.166C13.2222 10.3645 13.4038 10.5767 13.5939 10.7905C14.5798 10.0489 15.5523 9.31574 16.5383 8.57412C15.9816 7.66449 15.4233 6.74808 14.865 5.83506C15.2281 5.48376 18.6969 3.70524 19.4708 3.47953C19.6609 3.95301 19.8594 4.42819 20.041 4.90846C20.2531 5.46849 20.2447 5.4651 19.6982 5.71117C19.184 5.94367 18.68 6.19653 18.1674 6.43242C18.0164 6.502 17.9977 6.58686 18.0741 6.71923C18.2014 6.93985 18.3287 7.16216 18.4458 7.38787C18.5238 7.53721 18.6138 7.44727 18.6969 7.41163C19.5506 7.04676 20.4008 6.6785 21.2527 6.31193C21.3715 6.26102 21.492 6.2118 21.6312 6.1541C21.285 5.1155 20.9455 4.09217 20.5993 3.05017C22.1555 2.5716 23.6914 2.13545 25.3087 1.89447C25.4241 2.58008 25.5378 3.25212 25.6566 3.9615C25.4784 4.00222 25.2866 4.04465 25.0932 4.08878C24.6112 4.19569 24.1275 4.30091 23.6456 4.40952C23.4708 4.44855 23.4131 4.54359 23.4674 4.73027C23.5454 4.99501 23.5964 5.26824 23.6625 5.55334C23.8034 5.53468 23.9256 5.52619 24.0444 5.50413C24.9252 5.34121 25.8059 5.1715 26.6884 5.01707C26.8802 4.98313 26.9616 4.92882 26.9362 4.7116C26.831 3.79009 26.7529 2.86519 26.6443 1.94368C26.6154 1.70609 26.6952 1.65179 26.9073 1.63821C28.3583 1.54657 29.811 1.48039 31.2654 1.57033C31.4555 1.58221 31.525 1.645 31.5115 1.83337C31.4673 2.44771 31.4317 3.06375 31.3927 3.69675H29.0864C29.0864 4.05823 29.0779 4.38746 29.0965 4.71669C29.0982 4.76081 29.2408 4.827 29.3206 4.83039C29.9926 4.86094 30.6646 4.87961 31.3367 4.90167C31.3672 4.90167 31.3995 4.90506 31.43 4.90846C31.5624 4.92882 31.632 4.87791 31.6421 4.73875C31.6506 4.60808 31.6676 4.4774 31.6914 4.34843C31.7491 4.0192 31.9697 3.93265 32.2361 4.1295C32.265 4.15157 32.2955 4.17363 32.3532 4.21605C32.4126 3.62038 32.4686 3.05357 32.528 2.48844C32.5501 2.27291 32.5721 2.05739 32.6197 1.84695C32.6332 1.78416 32.7401 1.68912 32.7945 1.69591C34.3829 1.89617 35.9612 2.14733 37.5072 2.64457C37.3171 3.29455 37.1271 3.94622 36.9285 4.63014C36.7435 4.5928 36.5653 4.55717 36.3871 4.51813C35.8356 4.40104 35.2823 4.28563 34.7325 4.16005C34.5815 4.12611 34.5153 4.17533 34.4915 4.31788C34.4423 4.61317 34.3897 4.91015 34.3354 5.21732C35.4368 5.50582 36.5161 5.78754 37.626 6.07774C37.9586 5.0561 38.2895 4.03786 38.629 2.99586C40.3023 3.48801 41.8381 4.21775 43.3621 5.02895C43.0159 5.66535 42.6799 6.27969 42.3404 6.90251C41.7584 6.61231 41.2 6.31533 40.6247 6.05058C40.0053 5.76548 40.1546 5.77905 39.9001 6.3289C39.822 6.49691 39.7524 6.66831 39.671 6.85669C40.6417 7.35902 41.6039 7.85796 42.6103 8.37896L42.6171 8.37387ZM22.4118 27.9546C22.551 27.9241 22.6341 27.9139 22.7139 27.8884C23.1449 27.7459 23.5777 27.7628 24.0206 27.8273C25.1526 27.9919 26.2879 28.1973 27.3961 27.7C27.4402 27.6797 27.5285 27.695 27.5624 27.7272C27.5929 27.7561 27.5929 27.8392 27.5777 27.8901C27.503 28.1311 27.279 28.1956 27.0787 28.2584C26.5747 28.4196 26.0571 28.4807 25.5242 28.4315C24.7792 28.3619 24.0325 28.2838 23.2841 28.2567C22.2693 28.2194 21.5361 28.7251 21.0015 29.5549C20.8929 29.7229 20.8115 29.9062 20.7164 30.0827C20.7334 30.1048 20.7521 30.1269 20.769 30.1489C20.9557 30.0708 21.1577 30.0148 21.324 29.9079C21.7262 29.65 22.1012 29.3445 22.5102 29.0984C23.2383 28.6606 24.0189 28.518 24.8454 28.798C24.9353 28.8286 25.0304 28.8965 25.0796 28.9745C25.1322 29.056 25.1322 29.1714 25.156 29.2715C25.066 29.2715 24.9659 29.2953 24.8878 29.2647C24.2633 29.0119 23.6439 29.0085 23.0533 29.336C22.5951 29.5889 22.1606 29.8876 21.716 30.1676C21.6227 30.227 21.5344 30.2932 21.4445 30.3577C21.4547 30.3763 21.4648 30.3933 21.475 30.412C21.5531 30.3865 21.6329 30.3661 21.7075 30.3339C22.069 30.1778 22.4237 30.003 22.7903 29.8604C24.2565 29.2851 25.6108 29.4837 26.8293 30.4866C26.9735 30.6054 27.1517 30.7972 27.15 30.9533C27.1483 31.196 26.8734 31.2809 26.6646 31.3538C26.198 31.5184 25.7262 31.6678 25.2544 31.8154C24.7011 31.9868 24.1445 32.1209 23.5505 32.0361C22.8395 31.9359 22.2048 31.6915 21.6838 31.1909C21.5565 31.0687 21.4581 30.916 21.3257 30.7514C21.2391 30.7548 21.083 30.8006 21.0575 30.5851C21.0559 30.5681 20.9795 30.5562 20.9371 30.5511C20.8064 30.5341 20.674 30.5325 20.545 30.5053C20.2939 30.4527 20.1836 30.2847 20.2718 30.0454C20.3482 29.8384 20.467 29.6449 20.5756 29.4497C20.6927 29.241 20.8217 29.039 20.9591 28.8116C20.6893 28.7896 20.5298 28.8948 20.3838 29.0441C20.0529 29.3835 19.7084 29.7009 19.2451 29.8604C19.1823 29.8825 19.1127 29.9894 19.1076 30.0607C19.0873 30.3695 19.0584 30.6818 19.089 30.9873C19.1772 31.902 19.2502 32.8201 19.4046 33.7246C19.7287 35.6135 20.411 37.3852 21.2934 39.0789C21.6261 39.7187 21.9078 40.3924 22.4797 40.8812C22.9311 41.2664 23.3367 41.7093 23.8051 42.0742C24.6774 42.753 25.5616 43.4132 26.3015 44.2447C26.5068 44.4738 26.7291 44.6979 26.9786 44.8744C27.1738 45.0118 27.4181 45.1476 27.6473 45.1578C28.394 45.1934 29.1475 45.2172 29.8925 45.1578C30.9582 45.0746 31.9086 44.7114 32.6841 43.9104C33.2747 43.3012 33.9468 42.7734 34.5798 42.2032C35.1177 41.7178 35.6744 41.2477 36.1801 40.7301C37.0439 39.8426 37.6498 38.7683 38.2505 37.6975C38.483 37.2834 38.6867 36.837 38.8105 36.3805C39.1873 34.9872 39.5674 33.5923 39.6727 32.1396C39.7575 30.9822 39.8424 29.8265 39.7626 28.6674C39.7388 28.3212 39.7083 27.9767 39.6794 27.6305C39.6625 27.6423 39.6455 27.6542 39.6285 27.6644C39.5284 27.5609 39.3994 27.4726 39.3315 27.3505C39.1635 27.0433 39.0532 26.7005 38.8649 26.4052C38.1928 25.353 37.2696 24.5825 36.1173 24.1057C34.9005 23.6033 33.6107 23.3691 32.3142 23.2079C31.357 23.0891 30.388 23.0501 29.4258 22.9669C28.8352 22.916 28.2344 22.8974 27.7508 22.4714C27.7151 22.4408 27.5828 22.4595 27.5454 22.5002C27.0889 23.0145 26.5425 23.415 25.9621 23.7713C25.7788 23.8833 25.643 23.9988 25.6617 24.238C25.6668 24.3093 25.6345 24.3942 25.5938 24.4553C25.2188 25.0136 24.7826 25.5074 24.1496 25.7858C23.3384 26.1438 22.8327 26.7836 22.4933 27.5762C22.4491 27.678 22.444 27.7951 22.4118 27.9563V27.9546ZM3.02623 37.0729C3.09241 37.0662 3.13145 37.0679 3.16708 37.0577C4.09368 36.8133 5.02028 36.574 5.94348 36.3211C6.2218 36.2448 6.25405 36.2516 6.33381 36.5248C6.47127 37 6.58328 37.487 6.76826 37.9418C7.12634 38.8209 7.52515 39.6847 7.91887 40.5502C7.99014 40.7064 7.97148 40.7793 7.81535 40.854C7.28586 41.1086 6.76147 41.3733 6.23877 41.6431C6.09622 41.7161 6.01815 41.7025 5.95197 41.5515C5.8179 41.2477 5.66516 40.9507 5.5277 40.6487C5.31727 40.1871 5.11192 39.7221 4.89809 39.2435C4.55698 39.3708 4.23284 39.4896 3.90361 39.6118C3.92567 39.7119 3.93755 39.7882 3.96131 39.8612C4.36861 41.095 4.97785 42.2303 5.65498 43.3334C5.73474 43.4641 5.82639 43.4624 5.94518 43.3945C6.29987 43.1909 6.65795 42.9906 7.01433 42.7887C7.53872 42.4934 8.06312 42.1981 8.55187 41.9232C9.46489 43.2078 10.3626 44.4721 11.274 45.7568C10.7886 46.1879 10.2625 46.6529 9.69569 47.1552C9.15263 46.4645 8.61975 45.7874 8.06142 45.078C7.76443 45.2816 7.47593 45.4785 7.19252 45.672C7.21628 45.7314 7.22137 45.7551 7.23495 45.7738C7.94772 46.8854 8.78267 47.8968 9.71606 48.8302C9.82467 48.9388 9.90952 48.9286 10.0113 48.8285C10.3032 48.5417 10.6002 48.2583 10.8938 47.9715C11.3368 47.5421 11.778 47.1128 12.1938 46.7089C13.3223 47.6711 14.4203 48.6062 15.5353 49.5549C15.1467 50.1132 14.7377 50.7021 14.3185 51.3028C13.6549 50.8039 13.0152 50.3236 12.3465 49.8196C12.1497 50.0572 11.9681 50.2846 11.778 50.5052C11.6796 50.6206 11.6931 50.7055 11.8102 50.7937C12.7538 51.4946 13.694 52.1955 14.6375 52.8964C14.758 52.9863 14.8548 52.9795 14.943 52.8387C15.4454 52.0326 15.9613 51.2316 16.4551 50.4204C16.5637 50.2422 16.6418 50.2133 16.8081 50.3338C16.9557 50.4424 17.1237 50.5239 17.2816 50.6172C17.307 50.5324 17.3036 50.5018 17.2867 50.4764C16.9914 50.0232 16.691 49.5735 16.5943 49.0237C16.5824 48.9609 16.5094 48.8981 16.45 48.8557C15.2213 47.9868 14.0775 47.0177 13.0253 45.9435C11.1755 44.053 9.65157 41.9316 8.56036 39.5167C7.19761 36.4993 6.43393 33.3411 6.37284 30.0216C6.36605 29.6228 6.37284 29.2223 6.37284 28.8184H6.87857C6.82426 36.888 10.0572 43.3147 16.4093 48.2583C16.4415 48.1768 16.4568 48.1565 16.4568 48.1361C16.45 47.0924 16.6842 46.081 16.842 45.0576C16.8845 44.7878 16.8675 44.5044 16.842 44.2295C16.82 43.9817 16.6944 43.795 16.4534 43.6677C15.8594 43.3538 15.4454 42.8769 15.296 42.2083C15.1704 41.6414 15.2672 41.1052 15.537 40.591C15.576 40.5163 15.5726 40.372 15.5251 40.3059C15.1755 39.8239 15.0007 39.274 14.8972 38.7004C14.87 38.5528 14.8039 38.5019 14.6817 38.4442C14.5103 38.3644 14.327 38.2728 14.2031 38.137C13.9316 37.8366 13.6957 37.5057 13.4462 37.1866C13.4225 37.1561 13.4106 37.1188 13.3919 37.0848C13.0101 36.3704 12.915 35.644 13.3172 34.8769C13.2239 34.826 13.139 34.7768 13.0508 34.7361C12.6978 34.5732 12.4551 34.3084 12.2786 33.9656C12.2023 33.8197 12.1004 33.6703 11.9732 33.5685C11.3232 33.0509 10.904 32.3823 10.6376 31.6067C10.6053 31.5151 10.5765 31.4217 10.5527 31.347C10.3236 31.3793 10.12 31.4217 9.91462 31.4353C9.26634 31.4811 8.76401 31.1434 8.26846 30.7887C7.68807 30.3729 7.33847 29.8027 7.27228 29.1052C7.24004 28.7573 7.10767 28.5622 6.82256 28.4145C6.28459 28.1362 5.97573 27.6865 5.8773 27.0925C5.85014 26.9296 5.85354 26.7616 5.84336 26.5834C5.62783 26.6275 5.49037 26.709 5.48697 26.9449C5.48528 27.1146 5.43945 27.2826 5.43606 27.4523C5.43267 27.5931 5.36987 27.6559 5.2409 27.6474C4.59601 27.605 3.95113 27.5575 3.24685 27.5083C3.34358 26.7633 3.43352 26.0624 3.52347 25.3632C3.14842 25.5023 2.78015 25.6347 2.41698 25.7824C2.36437 25.8027 2.32364 25.8961 2.31176 25.9623C2.26764 26.2287 2.22352 26.4968 2.20315 26.7667C2.15394 27.4523 2.1166 28.1379 2.07417 28.8235C2.06399 28.9898 2.13018 29.0509 2.30328 29.0526C2.82088 29.0577 3.33849 29.0832 3.85609 29.0984C4.33127 29.1137 4.80815 29.1256 5.28672 29.1392C5.29181 29.2087 5.2986 29.2478 5.2986 29.2851C5.27484 31.1112 5.46321 32.9151 5.86202 34.6954C5.89936 34.86 5.8196 34.8752 5.7008 34.899C5.10853 35.0144 4.51795 35.1349 3.92737 35.252C3.86967 35.2639 3.81197 35.2673 3.72542 35.2774C3.5608 34.2881 3.40128 33.3139 3.23497 32.3093C2.92271 32.3517 2.63421 32.3958 2.3457 32.4281C2.18109 32.4467 2.14375 32.5248 2.16921 32.6775C2.33043 33.6296 2.47298 34.585 2.65118 35.5337C2.74791 36.0479 2.89895 36.5502 3.02792 37.0645L3.02623 37.0729ZM44.8215 36.1871C44.8148 36.2142 44.8046 36.2312 44.808 36.2448C44.8216 36.3042 44.8385 36.3636 44.8538 36.423C44.998 36.9406 45.0014 37.487 44.7639 37.9418C44.5874 38.283 44.5551 38.6173 44.4855 38.9635C44.4737 39.0246 44.4533 39.0823 44.4346 39.1417C44.3498 39.4047 44.253 40.2991 44.2972 40.5791C44.4363 41.4565 44.2717 42.2643 43.788 43.0127C43.6166 43.2774 43.4486 43.5523 43.3298 43.8425C43.189 44.1887 43.0379 44.5519 43.0091 44.9168C42.9514 45.638 42.9887 46.3644 42.9599 47.089C42.9446 47.4522 42.8733 47.8137 42.8173 48.2498C46.1724 45.7942 48.7299 42.7615 50.4185 39.0246C52.2632 34.9448 52.8775 30.6818 52.214 26.2168C51.844 26.3271 51.6132 26.1421 51.4011 25.9079C51.3332 25.8333 51.2687 25.7552 51.194 25.689C51.0464 25.5584 50.8987 25.5295 50.7138 25.6517C50.5695 25.7467 50.5678 25.8604 50.561 26.0047C50.5305 26.5715 50.4813 27.1332 49.984 27.5286C49.9348 27.5677 49.9077 27.6423 49.8839 27.7068C49.8126 27.8986 49.7821 28.1141 49.6735 28.2821C49.3612 28.7675 48.9861 29.1867 48.3345 29.1765C48.2954 29.1765 48.2547 29.207 48.2089 29.2274C48.2513 29.3241 48.2904 29.4073 48.3243 29.4938C48.6688 30.3712 48.5602 31.2435 48.2513 32.0988C47.9577 32.91 47.6387 33.7127 47.3044 34.5087C47.0651 35.0755 47.3349 35.4947 47.654 35.902C47.732 36.0021 47.8237 36.0869 47.7337 36.1922C47.6777 36.2584 47.5487 36.2991 47.4588 36.2906C47.2008 36.2651 46.9446 36.2074 46.6883 36.1667C46.6306 36.1582 46.5678 36.1718 46.5084 36.1786C46.281 36.2074 46.0536 36.2651 45.8262 36.2634C45.497 36.2617 45.1661 36.2176 44.8215 36.1905V36.1871ZM53.2678 25.3021C53.0846 25.5499 52.9132 25.7705 52.757 26.0013C52.7214 26.0539 52.7282 26.1455 52.7367 26.2168C52.8368 27.1587 53.0065 28.0989 53.0303 29.0441C53.0964 31.7425 52.6722 34.3763 51.8016 36.9338C50.914 39.5422 49.6361 41.9452 47.9323 44.1056C46.4626 45.969 44.7214 47.5574 42.7664 48.9049C42.6849 48.9609 42.5848 49.0186 42.5458 49.1C42.3914 49.4259 42.2658 49.767 42.113 50.0928C42.0197 50.2931 41.9111 50.4916 41.7804 50.6698C41.6124 50.9006 41.4172 51.1094 41.2119 51.3521C41.4732 51.8612 41.7736 52.4501 42.0791 53.0491C41.9773 53.1034 41.9043 53.1458 41.8279 53.1815C41.234 53.4615 40.64 53.7432 40.0409 54.0147C39.8916 54.0826 39.8305 54.1607 39.8967 54.3134C39.9934 54.5391 40.0918 54.7665 40.1903 54.9923C40.2514 55.1297 40.3362 55.1637 40.4822 55.0941C41.1101 54.7954 41.7499 54.5205 42.371 54.2082C42.8445 53.9689 43.2942 53.6855 43.7931 53.4004C43.2127 52.4416 42.6544 51.5184 42.0893 50.5833C43.374 49.6991 44.6926 48.8896 45.8194 47.7899C46.3082 48.3364 46.7698 48.854 47.2619 49.4055C47.0023 49.6414 46.7681 49.8739 46.5135 50.0809C46.1062 50.4136 45.6854 50.7275 45.2713 51.0517C45.1915 51.1145 45.105 51.1772 45.1966 51.2977C45.3816 51.5421 45.5649 51.7882 45.7566 52.0462C47.0176 51.2383 48.1105 50.2829 49.1525 49.1645C48.3616 48.4026 47.5895 47.6575 46.8156 46.9125C46.8597 46.8514 46.875 46.826 46.8954 46.8039C47.9119 45.6974 48.8996 44.5706 49.7532 43.33C49.8466 43.1926 49.9399 43.2299 50.0468 43.2995C50.41 43.5354 50.7732 43.7696 51.1346 44.0089C51.4989 44.2498 51.5493 44.5485 51.2857 44.9049C50.8716 45.4632 50.4558 46.0199 50.0383 46.5816C50.0774 46.6325 50.1028 46.6817 50.1436 46.7157C50.3268 46.8684 50.5186 47.0144 50.7002 47.1705C50.8241 47.2774 50.9106 47.2519 51.0091 47.1331C51.8559 46.1047 52.662 45.0491 53.2865 43.8646C53.3137 43.812 53.334 43.7577 53.3612 43.6932C53.2628 43.6338 53.1779 43.5795 53.0931 43.5286C52.3328 43.0822 51.5725 42.6359 50.8122 42.1896C50.5916 42.0606 50.5848 42.0114 50.7104 41.7874C50.9887 41.2885 51.2857 40.7963 51.5284 40.2804C51.878 39.5405 52.1936 38.7819 52.5093 38.0267C52.5805 37.857 52.6501 37.8213 52.8181 37.896C53.0438 37.9961 53.2797 38.0725 53.5139 38.154C53.8839 38.2846 54.2555 38.4119 54.634 38.5426C54.6 38.6478 54.578 38.7293 54.5457 38.8073C54.2793 39.442 54.0163 40.0767 53.7379 40.7064C53.6701 40.8608 53.6887 40.9592 53.8296 41.0271C54.0383 41.1272 54.2505 41.2206 54.4626 41.3122C54.5916 41.3682 54.6747 41.3258 54.7324 41.19C55.0209 40.5146 55.3383 39.851 55.6047 39.1671C55.8338 38.5799 56.0086 37.9707 56.2156 37.3479C55.1431 37.0203 54.113 36.7047 53.0846 36.389C53.0998 36.3194 53.1049 36.2804 53.1151 36.2448C53.502 34.8091 53.8024 33.3564 53.9399 31.8748C53.9552 31.7068 54.0451 31.6831 54.1673 31.6898C54.5983 31.717 55.0311 31.7509 55.4622 31.7849C55.6658 31.8019 55.8694 31.8256 56.1308 31.8528C56.0086 32.7454 55.8898 33.6075 55.7659 34.4968C56.1121 34.5664 56.4346 34.6292 56.7706 34.6954C56.8113 34.5596 56.8554 34.4527 56.8758 34.3407C56.9641 33.8621 57.0761 33.3852 57.1236 32.9016C57.2033 32.1022 57.2407 31.2995 57.2967 30.4985C57.3086 30.339 57.2373 30.283 57.0795 30.2813C56.6162 30.2762 56.1529 30.2524 55.6879 30.2456C55.1567 30.2389 54.6255 30.2456 54.0723 30.2456C54.0723 30.0929 54.0723 30.0098 54.0723 29.9266C54.0858 28.6708 53.9704 27.4268 53.8126 26.1812C53.7583 25.7535 53.4715 25.555 53.2628 25.2987L53.2678 25.3021ZM2.24218 23.902C2.27782 23.8579 2.31346 23.8121 2.3508 23.7696C2.79543 23.2351 3.21969 22.6818 3.69148 22.171C4.372 21.4345 5.17132 20.8371 6.03003 20.3178C6.99397 19.7357 7.92396 19.084 9.08136 18.9279C9.14245 18.9194 9.20015 18.8838 9.25955 18.8787C9.70418 18.8448 10.1539 18.7548 10.59 18.8006C11.1161 18.8566 11.632 19.0196 12.1463 19.1587C12.411 19.23 12.6469 19.2096 12.8794 19.0722C13.1119 18.9364 13.3342 18.7565 13.5871 18.6852C14.0334 18.5597 14.4186 18.3255 14.8191 18.1116C15.1908 17.9131 15.5947 17.8537 16.0071 17.8469C16.1276 17.8452 16.2311 17.8944 16.226 18.0556C16.2209 18.1982 16.2158 18.283 16.0241 18.3085C15.0007 18.4476 14.1522 18.9619 13.4649 19.6967C12.8098 20.3976 12.3838 21.2563 12.114 22.1812C12.0936 22.2508 12.1412 22.3899 12.1972 22.4205C12.4331 22.5461 12.6791 22.6649 12.9337 22.7446C13.8145 23.0229 14.663 22.9601 15.4403 22.4307C16.0342 22.0268 16.6197 21.6076 17.2001 21.185C17.7669 20.7726 18.3592 20.423 19.0533 20.2601C20.1785 19.9971 21.2425 20.1243 22.2608 20.6793C22.87 21.0119 23.4877 21.3377 24.1208 21.6229C24.7792 21.9198 25.4716 22.0064 26.1776 21.7705C26.4118 21.6924 26.646 21.611 26.8768 21.5227C27.6931 21.2071 28.248 20.6148 28.5908 19.8291C28.7809 19.3929 28.9014 18.9279 29.0694 18.4833C29.122 18.3441 29.0728 18.2847 28.9693 18.2219C28.6689 18.042 28.3498 18.0437 28.063 18.2084C27.7847 18.3662 27.52 18.5647 27.2858 18.7837C26.8208 19.2215 26.3931 19.6967 25.9315 20.1362C25.2832 20.754 24.4873 20.7624 23.7118 20.5164C22.9209 20.2669 22.1691 19.8935 21.397 19.583C21.0677 19.4506 20.7368 19.3115 20.3957 19.2249C20.1513 19.1638 20.0223 19.045 19.9595 18.8108C19.9409 18.7395 19.8696 18.6581 19.8 18.6275C19.4979 18.4901 19.1806 18.3849 18.8819 18.2406C18.1844 17.9012 17.4869 17.6891 16.7266 18.0522C16.6604 18.0845 16.506 18.0302 16.4517 17.9674C16.3991 17.9046 16.4008 17.7722 16.4195 17.6789C16.4347 17.6025 16.4992 17.5295 16.5586 17.4701C16.9456 17.073 17.3087 16.6471 17.733 16.2941C18.1997 15.9054 18.7563 15.5949 19.3775 15.6492C20.209 15.7205 20.9693 15.3692 21.8195 15.3726C21.7466 15.1978 21.6804 15.062 21.6295 14.9194C21.3647 14.1727 20.9252 13.5567 20.3108 13.0527C19.8272 12.6556 19.2841 12.5062 18.6698 12.5588C18.4678 12.5758 18.3253 12.6556 18.1997 12.8134C18.0656 12.9831 17.9061 13.1341 17.733 13.3191C17.7568 13.3649 17.806 13.4515 17.8433 13.5414C17.9146 13.7179 18.0079 13.8927 18.0402 14.0777C18.1148 14.5088 18.0436 14.9313 17.8806 15.3352C17.5684 16.1108 17.0813 16.7506 16.3159 17.1222C15.0533 17.7366 13.716 17.9233 12.3194 17.7977C11.2434 17.7009 10.1624 17.628 9.08305 17.5821C8.44326 17.555 7.7865 17.5669 7.2044 17.891C6.73432 18.1524 6.2795 18.4459 5.83148 18.7463C4.49758 19.6424 3.45389 20.8049 2.71227 22.2321C2.44413 22.748 2.25067 23.2928 2.24049 23.902H2.24218ZM17.6447 24.3925C16.2786 24.9253 14.9617 25.0051 13.7211 24.3161C12.4365 24.7336 11.5404 24.3331 10.9396 23.1027C10.865 23.2724 10.8073 23.3691 10.7784 23.4727C10.6461 23.941 10.8769 24.2991 11.1246 24.6674C11.4471 25.146 11.7593 25.6364 12.0156 26.1523C12.2294 26.5783 12.3601 27.0467 12.3584 27.5371C12.355 28.6368 12.0699 29.6449 11.3826 30.5155C11.1789 30.7734 11.0958 31.0348 11.184 31.3521C11.4114 32.1599 11.8645 32.815 12.5094 33.3462C12.6079 33.4276 12.7114 33.521 12.7674 33.6313C13.0118 34.115 13.3902 34.3627 13.9299 34.4306C14.5832 34.5121 15.0618 34.1319 14.9939 33.5295C14.9719 33.5261 14.9498 33.5193 14.9277 33.521C14.0979 33.5974 13.4309 33.1459 13.1832 32.35C13.0915 32.0513 13.1068 31.7849 13.3444 31.5609C13.5888 31.3301 13.8518 31.2079 14.2048 31.3301C14.5459 31.4472 14.7071 31.6949 14.814 32.0055C14.8904 32.2244 14.9515 32.4484 15.0448 32.6606C15.2485 33.1256 15.5981 33.2851 16.0071 33.1086C16.1174 33.0611 16.2413 32.9932 16.3075 32.8999C16.5145 32.6063 16.73 32.3093 16.8845 31.9868C17.0762 31.5863 17.2103 31.157 17.3732 30.7412C17.4123 30.6394 17.4632 30.5409 17.5158 30.4238C17.4207 30.4035 17.3613 30.3916 17.3019 30.3763C16.8777 30.2643 16.5111 30.0776 16.2633 29.6839C16.0818 29.392 16.1327 29.0899 16.1361 28.7845C16.1479 28.0004 16.6876 27.2367 17.4258 27.0009C17.6176 26.9398 17.6414 26.8651 17.5904 26.6903C17.4241 26.1184 17.3732 25.538 17.5209 24.9508C17.5633 24.7811 17.5955 24.6097 17.6414 24.3925H17.6447ZM16.7368 54.0792C16.8828 54.1777 16.9999 54.2846 17.1373 54.3457C18.1114 54.7784 19.089 55.201 20.0631 55.632C20.2531 55.7152 20.3312 55.666 20.3974 55.4708C20.7046 54.5799 21.0338 53.6957 21.341 52.8047C21.4021 52.6282 21.475 52.5994 21.643 52.6554C22.8751 53.0678 24.1191 53.4411 25.4139 53.6041C25.57 53.6244 25.6057 53.6889 25.5819 53.8315C25.5056 54.2727 25.436 54.7156 25.3647 55.1586C25.3274 55.3843 25.29 55.6083 25.251 55.8408C24.4279 55.6677 23.6371 55.5031 22.8276 55.3334C22.7309 55.688 22.6392 56.0275 22.5425 56.3855C23.783 56.7538 25.01 56.9982 26.2726 57.1051C26.4186 56.0003 26.5594 54.9244 26.6952 53.8875C28.0834 53.9282 29.4241 53.9655 30.8021 54.0063C30.8309 54.6987 30.8598 55.4063 30.8903 56.1344C30.7495 56.148 30.6358 56.1683 30.5221 56.1683C30.0808 56.1683 29.6413 56.1564 29.2001 56.1581C28.9557 56.1581 28.7113 56.1751 28.4652 56.1853C28.4381 56.4602 28.4126 56.7368 28.3855 57.0118C28.3855 57.027 28.3906 57.0423 28.3906 57.0576C28.3906 57.2256 28.4568 57.2969 28.6417 57.3054C29.7092 57.3546 30.7749 57.3546 31.839 57.2341C32.1377 57.2001 32.153 57.19 32.1258 56.893C32.041 55.985 31.9544 55.0771 31.8662 54.1692C31.8424 53.9282 31.8933 53.879 32.1377 53.845C32.8335 53.7466 33.531 53.6533 34.2217 53.5311C34.8055 53.4276 35.3825 53.2867 35.9731 53.1611C36.007 53.2494 36.0392 53.3189 36.0596 53.3919C36.2174 53.9418 36.3651 54.4933 36.5314 55.0398C36.5891 55.2315 36.5314 55.296 36.3447 55.3351C35.7389 55.4606 35.1381 55.6066 34.5339 55.7356C34.371 55.7695 34.3354 55.8476 34.371 55.9952C34.4219 56.2057 34.4745 56.4161 34.5102 56.6282C34.5407 56.8081 34.612 56.8794 34.8038 56.8302C35.783 56.5807 36.7673 56.3482 37.7465 56.092C38.1029 55.9986 38.1046 55.9681 37.9892 55.5998C37.7295 54.775 37.4614 53.952 37.2136 53.1221C37.1101 52.7776 37.0694 52.8336 37.419 52.7029C37.7889 52.5654 38.1572 52.4263 38.5254 52.2854C38.5848 52.2634 38.6408 52.2311 38.7376 52.1853C38.6341 52.1666 38.5814 52.1548 38.5288 52.1497C38.0078 52.0954 37.4851 52.0597 36.9675 51.9834C36.6824 51.9409 36.4228 51.9766 36.1512 52.0563C34.0689 52.6724 31.9408 52.9744 29.7703 52.9812C27.4198 52.9897 25.1169 52.6622 22.8581 52.0122C22.7682 51.9868 22.6528 51.98 22.5679 52.0122C21.9112 52.2532 21.2357 52.3465 20.5399 52.2786C20.377 52.2634 20.2922 52.3075 20.2345 52.4721C20.0936 52.8811 19.9324 53.2833 19.7729 53.6855C19.7033 53.8603 19.6167 54.0283 19.5302 54.2184C18.7461 53.8467 17.996 53.4904 17.2375 53.1306C17.0644 53.4581 16.9099 53.7517 16.7368 54.0775V54.0792ZM17.4666 12.8456C17.4852 12.8168 17.5158 12.7744 17.5412 12.7285C17.7856 12.2805 18.1725 12.0378 18.6681 11.9784C19.4691 11.8834 20.17 12.104 20.7928 12.6284C21.6227 13.3259 22.1097 14.2135 22.332 15.2555C22.3677 15.4269 22.4271 15.5185 22.5781 15.6017C23.0635 15.8698 23.5404 16.1532 24.0138 16.44C24.1801 16.5418 24.3159 16.7014 24.489 16.7811C24.7402 16.8948 25.0151 16.9576 25.2781 17.0442C25.4122 17.0883 25.531 17.0985 25.6311 16.9695C26.1606 16.2788 26.8904 16.0293 27.727 16.031C28.7537 16.031 29.4207 16.569 29.5683 17.5889C29.6379 18.0641 29.7279 18.4578 30.0944 18.8312C30.7376 19.4846 31.4029 20.0514 32.3244 20.2381C32.5874 20.2924 32.6519 20.2262 32.5704 19.9699C32.5535 19.9173 32.4669 19.8698 32.4041 19.8511C31.8712 19.695 31.3435 19.51 31.0108 19.0348C30.7834 18.709 30.6069 18.3458 30.4355 17.986C30.0452 17.1698 29.9705 16.2941 30.0062 15.4065C30.0214 15.0331 30.0859 14.6615 30.1267 14.2847C29.9145 14.2746 29.716 14.2593 29.5157 14.2559C28.954 14.2457 28.6163 13.8842 28.3906 13.4481C28.2752 13.2241 28.1428 13.0832 27.9459 12.9525C27.8034 12.8575 27.7389 12.8982 27.615 12.9916C27.3027 13.2258 26.9905 13.5041 26.6307 13.6229C25.957 13.8435 25.3291 13.5991 24.8471 13.1223C24.601 12.8796 24.3821 12.6844 24.0563 12.5317C23.3673 12.2109 22.8666 11.6764 22.7665 10.8652C22.758 10.7922 22.7105 10.6904 22.6511 10.6632C22.1148 10.4086 21.5718 10.1694 21.0321 9.92159C20.3295 9.59915 19.6049 9.31065 19.2094 8.57072C19.1908 8.53678 19.0601 8.51642 19.0262 8.54357C18.8123 8.71837 18.5764 8.88299 18.4152 9.10021C18.0453 9.59745 17.9451 10.1626 18.1131 10.7684C18.1895 11.045 18.1182 11.2029 17.8857 11.2555C17.3868 11.3692 16.9761 11.6322 16.5994 11.9615C16.4873 12.0599 16.3804 12.1651 16.2701 12.2669C16.6791 12.4655 17.0559 12.6488 17.4615 12.8473L17.4666 12.8456ZM33.1118 2.18806C32.993 3.10787 32.9065 3.95471 32.7639 4.79136C32.7045 5.14096 32.8437 5.33782 33.0914 5.50752C33.217 5.59238 33.363 5.65686 33.5072 5.70438C33.9094 5.84015 34.3201 5.95046 34.7206 6.09131C35.1432 6.23896 35.5284 6.45618 35.783 6.83972C35.8814 6.98736 35.9951 7.01791 36.1529 6.99755C36.3362 6.97379 36.5229 6.93645 36.7045 6.94833C37.8161 7.01621 38.7206 7.52873 39.5216 8.26865C39.7711 8.49775 40.0358 8.71837 40.3226 8.89656C40.8861 9.24785 41.4682 9.5703 42.0452 9.89953C42.1283 9.94705 42.2284 9.98268 42.3235 9.99117C43.1465 10.0641 43.8916 10.3017 44.4838 10.9195C45.049 11.51 45.5937 12.1244 46.2929 12.5741C46.6561 12.8066 46.9836 13.0968 47.3451 13.3327C47.5487 13.4668 47.7863 13.6093 48.0154 13.6229C48.1546 13.6314 48.309 13.4006 48.455 13.2767C48.589 13.1613 48.7214 13.0425 48.8555 12.9237C49.1185 12.6912 49.3833 12.457 49.6633 12.2092C49.7142 12.272 49.7498 12.3128 49.7821 12.3552C50.242 12.9373 50.7019 13.5211 51.1652 14.0998C51.2093 14.1558 51.323 14.2304 51.3536 14.2118C51.6421 14.0421 51.9187 13.8554 52.2021 13.6687C51.4486 12.4909 50.6035 11.4676 49.6667 10.519C49.5615 10.412 49.4749 10.412 49.3714 10.5122C49.127 10.7498 48.8792 10.9823 48.6366 11.2198C48.1444 11.6984 47.6523 12.1787 47.1839 12.6369C46.0553 11.6764 44.9539 10.7379 43.8423 9.79091C44.2344 9.22749 44.64 8.6454 45.0591 8.04803C45.7227 8.54697 46.3625 9.02724 47.0311 9.52957C47.2263 9.29368 47.4113 9.06627 47.5997 8.84565C47.6964 8.73364 47.6913 8.6437 47.5708 8.55545C46.6289 7.85456 45.6871 7.15368 44.7452 6.45279C44.6111 6.35266 44.5127 6.37981 44.4227 6.52406C43.9238 7.32508 43.413 8.11761 42.9225 8.92202C42.8139 9.10191 42.741 9.11209 42.5662 9.01196C41.755 8.54866 40.937 8.09215 40.1139 7.64922C39.7694 7.46424 39.4045 7.31659 39.0295 7.14349C39.2942 6.47146 39.5556 5.81299 39.8254 5.12738C40.6179 5.50243 41.368 5.85881 42.1385 6.22368C42.2861 5.94536 42.4134 5.69081 42.556 5.44473C42.6289 5.31745 42.6137 5.2309 42.4915 5.15453C42.4253 5.1138 42.3676 5.0595 42.298 5.02895C41.3018 4.58941 40.304 4.15326 39.3078 3.71203C39.1177 3.62717 39.038 3.68996 38.9735 3.88004C38.6714 4.75742 38.3506 5.62801 38.0503 6.5054C37.9824 6.70226 37.9077 6.74638 37.7024 6.6785C36.5127 6.28647 35.3163 5.91482 34.0672 5.75529C33.9722 5.74341 33.8789 5.71626 33.7618 5.6908C33.884 4.95088 34.0028 4.23812 34.1233 3.50838C34.9446 3.67978 35.7355 3.8444 36.5484 4.01241C36.6349 3.69675 36.7249 3.39298 36.7944 3.08581C36.8046 3.03829 36.7316 2.93477 36.6773 2.9178C36.36 2.82276 36.0392 2.72773 35.7134 2.66494C34.8581 2.50032 33.9994 2.35098 33.1101 2.18976L33.1118 2.18806ZM57.4375 25.3072C57.4511 25.2342 57.4715 25.1918 57.4681 25.1494C57.4291 24.7455 57.4189 24.3331 57.3374 23.9377C57.1219 22.8906 56.7536 21.9097 55.9882 21.1222C55.9407 21.073 55.8864 21.017 55.8678 20.9542C55.7507 20.5673 55.435 20.3314 55.1635 20.0802C54.3811 19.3573 53.5869 18.6428 52.7638 17.9674C52.1325 17.4481 51.4435 16.9984 50.6798 16.6861C49.704 16.2873 48.7095 15.9954 47.6421 15.919C46.4185 15.8308 45.2017 15.6356 43.9815 15.4914C42.8971 15.3641 41.8822 15.0501 40.993 14.3934C40.7096 14.1829 40.4245 13.9725 40.1478 13.7536C40.046 13.6721 39.9679 13.6738 39.8593 13.7366C39.0787 14.1795 38.2658 14.2627 37.4003 13.9962C37.0609 13.891 36.679 13.8265 36.3311 13.8656C35.8763 13.9182 35.4232 14.059 34.9938 14.2236C34.4847 14.4188 33.9977 14.6785 33.5038 14.9161C32.976 15.1689 32.4313 15.3522 31.8339 15.32C31.6863 15.3115 31.5403 15.3047 31.3316 15.2945C31.4453 15.3997 31.5115 15.4727 31.5895 15.5287C32.0987 15.9071 32.6943 16.009 33.3019 16.0022C34.0588 15.9937 34.814 15.9241 35.5709 15.9054C36.0443 15.8936 36.5348 15.9207 36.9438 16.1719C37.2594 16.367 37.5479 16.3263 37.8466 16.233C38.354 16.0768 38.8513 15.8868 39.3553 15.7137C40.3141 15.3844 41.2934 15.3013 42.2776 15.5592C43.2009 15.8002 44.1393 15.8477 45.0812 15.8477C45.9773 15.8477 46.8309 16.0174 47.6641 16.328C47.9221 16.4247 48.1648 16.5978 48.4278 16.6386C48.9963 16.7234 49.5122 16.9118 50.0129 17.1884C50.914 17.6857 51.5114 18.4867 52.1597 19.2402C52.309 19.4133 52.4974 19.5558 52.6247 19.7408C52.8351 20.048 53.0082 20.3823 53.2017 20.7013C53.4409 21.0951 53.6785 21.4888 53.9297 21.8757C54.0417 22.0505 54.2046 22.1931 54.3064 22.373C54.7358 23.1383 55.3909 23.6882 56.0544 24.2312C56.1529 24.311 56.2784 24.3585 56.3786 24.4383C56.5109 24.5435 56.6246 24.6691 56.7536 24.7777C56.9233 24.922 57.0998 25.0577 57.2746 25.1952C57.3204 25.2308 57.3697 25.2597 57.4392 25.3072H57.4375ZM38.6137 38.5545C38.556 38.5952 38.5153 38.6105 38.4983 38.641C38.4117 38.787 38.332 38.9363 38.2471 39.0823C37.5327 40.2974 36.6468 41.3597 35.5692 42.2795C34.702 43.0195 33.9145 43.851 33.083 44.6334C32.8776 44.8268 32.6621 45.0373 32.4109 45.151C31.9561 45.3563 31.4775 45.5141 30.999 45.6601C30.1199 45.9299 29.2119 45.8637 28.3074 45.8671C27.4181 45.8722 26.7325 45.4972 26.1437 44.8794C25.3902 44.0886 24.5603 43.3894 23.6812 42.7377C23.0906 42.2999 22.5153 41.8145 22.0334 41.2647C21.2323 40.3534 20.7232 39.2503 20.2294 38.1489C20.2124 38.1098 20.2039 38.0657 20.1903 38.0233C20.1666 38.0437 20.1428 38.0623 20.1174 38.0827C20.1174 38.288 20.114 38.4934 20.1174 38.6987C20.1225 38.9278 20.0902 39.1705 20.1513 39.3843C20.4534 40.4348 20.8522 41.4565 21.4445 42.3729C21.9706 43.1875 22.5764 43.9579 23.2077 44.6962C23.8204 45.4123 24.4907 46.0827 25.3036 46.5816C25.6566 46.7988 26.013 46.9974 26.4457 46.792C26.4932 46.77 26.5492 46.7632 26.6036 46.753C27.3689 46.5969 28.1224 46.5358 28.8165 47.0076C28.8556 47.0347 28.9285 47.05 28.9676 47.0313C29.4835 46.7988 29.9773 46.9108 30.4763 47.0975C30.5645 47.1297 30.6969 47.123 30.7783 47.0788C31.2908 46.8073 31.8339 46.6121 32.4075 46.5765C32.9625 46.5426 33.3935 46.2812 33.7974 45.9622C34.4202 45.4683 35.0397 44.9694 35.5573 44.3534C35.9798 43.8527 36.4737 43.4115 36.9132 42.9244C37.7125 42.0386 38.4151 41.0797 39.0719 40.0835C39.1839 39.9138 39.1975 39.7933 39.1126 39.6236C38.9429 39.2808 38.7868 38.9295 38.612 38.5545H38.6137ZM12.669 19.8952C12.2396 19.7832 11.7899 19.656 11.3334 19.5507C11.055 19.4862 10.7716 19.4218 10.4882 19.4116C9.74661 19.3827 9.01347 19.493 8.33804 19.7917C7.69655 20.0751 7.07712 20.4162 6.47806 20.7811C4.79287 21.8078 3.41655 23.1519 2.41189 24.8626C2.36267 24.9457 2.31855 25.0323 2.25406 25.146C2.33382 25.1409 2.37286 25.146 2.4051 25.1358C2.94816 24.927 3.49971 24.7115 3.89682 24.2737C4.38218 23.7374 4.81833 23.1553 5.28332 22.597C5.66516 22.1388 6.08095 21.7196 6.60025 21.4107C6.97021 21.1901 7.31301 20.9271 7.68467 20.7098C7.99523 20.5282 8.32107 20.3687 8.6537 20.233C8.77758 20.182 8.96087 20.1854 9.07796 20.2431C9.17639 20.2907 9.25615 20.4468 9.27143 20.5639C9.27991 20.6318 9.15942 20.7523 9.07117 20.7896C8.86074 20.8795 8.62824 20.9169 8.41611 21.0034C7.87814 21.2223 7.28926 21.8418 7.53194 22.5393C7.65243 22.8855 7.87135 23.2164 8.11064 23.4998C8.47381 23.9309 9.03044 24.0836 9.50902 24.3466C9.89595 24.5605 10.1505 24.8727 10.2948 25.2834C10.5646 26.0556 10.4577 26.8006 10.1522 27.5422C9.85522 28.2669 8.8234 29.017 7.94772 28.8473C7.92226 28.8422 7.89171 28.8558 7.84589 28.8625C7.88153 29.2885 7.96299 29.689 8.28204 29.986C8.51284 30.2015 8.75722 30.4103 9.02196 30.5817C9.63969 30.9822 10.4424 30.826 10.8599 30.2219C11.0856 29.8944 11.3028 29.5532 11.4691 29.1935C12.2124 27.5779 11.7118 26.3424 10.7071 25.056C10.2286 24.4434 10.0368 23.7985 10.2625 23.0501C10.3219 22.8515 10.4475 22.6649 10.6715 22.6564C11.0381 22.6428 11.3809 22.709 11.5404 23.1197C11.7627 23.6865 12.2549 23.824 12.7928 23.8715C12.8692 23.8783 12.9473 23.8562 13.0729 23.8426C12.7351 23.5388 12.5247 23.1875 12.1089 23.0637C11.9477 23.0161 11.7882 22.8974 11.6745 22.7701C11.5964 22.6818 11.5455 22.5104 11.5726 22.3967C11.6422 22.098 11.739 21.801 11.8662 21.5227C12.1242 20.9644 12.4093 20.4179 12.6707 19.8952H12.669ZM38.0061 16.8982C38.1334 17.0561 38.2488 17.2258 38.388 17.37C38.9633 17.9691 39.3536 18.6615 39.542 19.4744C39.6319 19.863 39.7083 20.2737 39.895 20.6182C40.1699 21.1256 40.2955 21.6517 40.3108 22.2117C40.3158 22.4086 40.3922 22.5223 40.567 22.6055C41.1304 22.8736 41.7244 22.8668 42.3167 22.7921C42.5 22.7684 42.7121 22.6716 42.8377 22.5393C43.1499 22.2083 43.4605 22.2881 43.7117 22.4595C44.0307 22.6767 44.3209 22.9347 44.6315 23.1638C44.7146 23.2249 44.8334 23.2775 44.9302 23.269C45.5089 23.2181 45.9518 23.4455 46.2997 23.8901C46.4287 24.0548 46.5475 24.2262 46.6764 24.3891C46.9259 24.7064 47.6183 24.9304 48.0019 24.8167C48.085 24.7913 48.1614 24.7438 48.2445 24.703C47.6166 23.7696 47.7643 22.1252 48.5398 21.1409C48.3531 20.5707 47.8406 20.3365 47.3892 20.0616C46.9242 19.7781 46.3778 19.734 45.8449 19.7255C45.5649 19.7204 45.2645 19.7493 45.0048 19.846C44.6977 19.9597 44.3973 20.0242 44.0782 19.9988C43.7711 19.975 43.4622 19.9394 43.1567 19.8969C42.1775 19.7612 41.2475 19.4642 40.4754 18.8329C39.8729 18.339 39.3231 17.779 38.763 17.2376C38.5543 17.0357 38.3116 16.9339 38.0078 16.8982H38.0061ZM23.5811 9.11039C23.7084 9.31234 23.9052 9.38023 24.1123 9.40398C25.1492 9.52278 25.8789 10.0115 26.2387 11.0332C26.3982 11.488 26.7308 11.7561 27.2841 11.7782C27.761 11.7985 28.2073 12.0107 28.4618 12.4842C28.5891 12.7217 28.7469 12.9441 28.898 13.1664C29.2679 13.7111 30.2998 13.706 30.539 13.073C30.6697 12.7268 30.8191 12.3891 30.9345 12.0378C31.245 11.0892 31.2773 10.1286 31.0142 9.163C30.9871 9.06457 30.9582 9.00348 30.8174 8.9916C29.8229 8.91523 29.2289 7.78838 29.7109 6.91439C29.7567 6.83123 29.7889 6.74129 29.8314 6.64456C28.9913 6.41885 28.1835 6.43073 27.4165 6.76335C26.831 7.01621 26.2607 7.31999 25.7194 7.6577C24.993 8.11082 24.3023 8.61655 23.5828 9.10869L23.5811 9.11039ZM50.0519 19.079C49.687 18.6768 49.3341 18.2915 48.9845 17.9046C48.8809 17.7909 48.8012 17.6534 48.6892 17.5499C48.0426 16.9559 47.2874 16.5503 46.4185 16.4332C45.7481 16.3433 45.0642 16.3382 44.3871 16.3076C43.6845 16.2754 42.9921 16.2126 42.3048 16.0361C41.6718 15.8732 41.0184 15.7476 40.3583 15.9173C39.7813 16.065 39.2043 16.2211 38.5628 16.3925C38.763 16.5232 38.9141 16.5911 39.0244 16.698C39.43 17.09 39.8339 17.4837 40.2157 17.8978C40.6858 18.4052 41.2323 18.8142 41.8687 19.0586C42.3472 19.2436 42.8648 19.3386 43.374 19.4252C43.8423 19.5049 44.3175 19.5677 44.7978 19.4353C45.3833 19.2741 45.9823 19.2249 46.5831 19.3675C47.3145 19.5406 48.0443 19.7086 48.8029 19.6288C49.2882 19.5779 49.7295 19.4184 50.0485 19.0807L50.0519 19.079ZM32.063 48.2922C32.0511 48.3126 32.0393 48.3313 32.0274 48.3516C32.0868 48.3924 32.1428 48.4382 32.2056 48.4704C32.9166 48.8336 33.5938 49.246 34.1623 49.8128C34.707 50.3542 35.3214 50.7717 36.0426 51.0551C36.6264 51.2859 37.2323 51.3979 37.8415 51.4759C38.5017 51.5608 39.1652 51.5795 39.8101 51.3317C41.0795 50.8446 41.6837 49.8145 42.0655 48.5977C42.337 47.7322 42.3914 46.8362 42.4219 45.9401C42.4355 45.5566 42.3472 45.1645 42.3931 44.7861C42.4592 44.2159 42.651 43.6728 42.9718 43.1858C43.323 42.6529 43.6489 42.1064 43.7083 41.4548C43.7354 41.1629 43.6998 40.8659 43.6913 40.5706C43.6642 40.5655 43.637 40.5621 43.6115 40.557C43.3824 40.7624 43.1669 40.9847 42.9225 41.168C42.5797 41.4225 42.3659 41.7433 42.2556 42.1573C42.169 42.4849 42.0638 42.8141 41.9128 43.1145C41.5988 43.7356 41.3595 44.3703 41.3477 45.0763C41.3443 45.3224 41.3426 45.5701 41.3205 45.8145C41.2475 46.6037 41.2781 47.4132 40.9404 48.1565C40.7656 48.54 40.5653 48.9134 40.3735 49.2901C40.3566 49.3224 40.3192 49.3563 40.287 49.3631C39.951 49.4344 39.6065 49.5786 39.2772 49.5515C38.651 49.5006 38.0791 49.229 37.5157 48.9456C36.5365 48.4518 35.5522 47.9664 34.5526 47.5133C33.4665 47.0211 32.3651 47.0483 31.2739 47.5269C31.2213 47.5506 31.1738 47.5829 31.1144 47.6151C31.2331 47.7916 31.3452 47.8985 31.5624 47.8069C31.6642 47.7645 31.7898 47.7712 31.9052 47.7645C32.8674 47.7085 33.6786 48.0631 34.4236 48.6503C35.1941 49.2596 35.9917 49.8366 36.9285 50.1726C37.8958 50.5188 38.8835 50.6834 39.9068 50.4255C39.9781 50.4068 40.0613 50.4322 40.1444 50.4373C40.0664 50.7615 39.654 51.1128 39.318 51.1162C38.8716 51.1229 38.4185 51.1246 37.9756 51.0652C36.4211 50.8599 35.1754 49.9961 33.9824 49.0729C33.3969 48.6198 32.7843 48.3465 32.063 48.2922ZM19.4131 7.64752C19.5506 7.91226 19.671 8.13119 19.7763 8.35689C19.8509 8.51642 19.9239 8.54187 20.0936 8.46381C21.8925 7.63564 23.7661 7.03828 25.7211 6.71414C26.203 6.63437 26.6494 6.48503 27.0991 6.28138C28.1173 5.81808 29.178 5.71287 30.2505 6.14392C30.3049 6.16598 30.3744 6.18635 30.427 6.17107C30.8326 6.06077 31.1296 5.81469 31.357 5.39042H28.5823C28.5518 4.63862 28.5212 3.92586 28.4907 3.18424H30.9803C30.9803 2.84483 30.9905 2.53087 30.9718 2.21691C30.9684 2.15412 30.8564 2.0506 30.7902 2.04721C29.7007 1.98102 28.6112 1.9912 27.5251 2.1066C27.2892 2.13206 27.2281 2.21691 27.2518 2.44432C27.3486 3.35055 27.4249 4.26018 27.52 5.16811C27.5437 5.38873 27.4691 5.48885 27.2535 5.50073C27.1076 5.50922 26.9582 5.51601 26.8157 5.54146C25.7448 5.74002 24.674 5.94027 23.6048 6.15071C23.4521 6.18126 23.3791 6.1558 23.3367 6.00137C23.206 5.51601 23.0635 5.03404 22.9277 4.55207C22.8383 4.23416 22.952 4.04182 23.2688 3.97507C23.3214 3.96319 23.374 3.95301 23.4266 3.94113C23.9595 3.81894 24.4924 3.69675 25.0592 3.56778C24.9744 3.19103 24.898 2.84822 24.8165 2.49014C24.7079 2.50372 24.6231 2.50541 24.5416 2.52578C23.5471 2.77694 22.5544 3.03829 21.5565 3.27927C21.3172 3.33697 21.3036 3.46595 21.363 3.65093C21.4903 4.04805 21.6244 4.44346 21.75 4.84227C21.9247 5.40061 22.0945 5.95894 22.2642 6.51218C21.3087 6.89402 20.3923 7.26059 19.4165 7.65092L19.4131 7.64752ZM28.7249 48.1429C28.7028 47.8985 28.6892 47.7017 28.6655 47.5031C28.6621 47.4726 28.6299 47.4284 28.601 47.42C28.3108 47.3215 28.0223 47.1807 27.7236 47.1467C27.1958 47.0873 26.6646 47.1976 26.1827 47.403C25.3172 47.7729 24.45 48.1514 23.6286 48.6096C22.6969 49.1306 21.7601 49.6346 20.7792 50.0589C20.2718 50.2778 19.7525 50.4204 19.2077 50.2133C19.0465 50.1522 18.8836 50.0538 18.7614 49.9316C18.3711 49.5413 18.2778 49.0135 18.2472 48.5061C18.2031 47.7865 18.2014 47.0534 18.2795 46.3389C18.3507 45.6923 18.3168 45.0593 18.237 44.4246C18.1454 43.7017 17.806 43.1332 17.1441 42.7768C16.6078 42.4883 16.1106 42.1506 15.89 41.5379C15.8866 41.5277 15.8645 41.526 15.8255 41.5074C15.8119 41.5871 15.7933 41.6584 15.7882 41.7297C15.7406 42.4051 16.0716 42.8548 16.635 43.1807C16.9557 43.3657 17.2697 43.5642 17.5667 43.7848C17.8416 43.9885 17.9672 44.294 17.9926 44.6283C17.9994 44.7165 17.9299 44.837 17.8569 44.8947C17.8145 44.927 17.6923 44.8676 17.6125 44.837C17.5599 44.8167 17.5158 44.7742 17.4326 44.7165C17.3495 45.173 17.2629 45.5939 17.195 46.0165C17.0644 46.8362 16.8946 47.6389 16.9676 48.4942C17.0474 49.4259 17.4869 50.1251 18.0962 50.7292C18.6189 51.2485 19.2773 51.5896 20.0274 51.7186C21.2001 51.9223 22.2862 51.6932 23.3028 51.0958C23.9561 50.7123 24.5908 50.2982 25.2629 49.9503C25.7397 49.7025 26.2624 49.543 26.7614 49.3376C26.8242 49.3122 26.9073 49.2562 26.9175 49.2019C26.9532 48.9965 26.9616 48.7878 26.982 48.5485C26.8055 48.6198 26.6307 48.6758 26.4695 48.7606C25.7873 49.1187 25.1118 49.4938 24.4262 49.8468C23.8832 50.1251 23.318 50.361 22.7801 50.6495C22.3083 50.9023 21.7975 50.9685 21.285 51.0296C21.1492 51.0449 21.0015 50.9753 20.8641 50.9278C20.8149 50.9108 20.7402 50.8327 20.7487 50.8124C20.7724 50.7564 20.825 50.6919 20.8794 50.6732C21.1136 50.5986 21.3562 50.5425 21.5921 50.4713C21.9587 50.361 22.3439 50.2863 22.6833 50.12C23.8255 49.5583 24.9506 48.9626 26.0826 48.3788C26.7173 48.0513 27.3655 47.851 28.0885 48.075C28.2803 48.1344 28.4941 48.1191 28.7249 48.1395V48.1429ZM43.9747 29.1222C44.1495 28.8558 44.3311 28.6199 44.4686 28.3585C44.6705 27.9716 45.4342 27.5965 45.9026 27.6814C46.3302 27.7594 46.7138 27.919 47.0719 28.1617C47.4249 28.4009 47.8186 28.5333 48.2411 28.5706C48.6875 28.6097 49.0489 28.384 49.1813 27.9987C49.0269 28.0072 48.8741 28.0293 48.7214 28.0242C48.1614 28.0055 47.6472 27.8392 47.3061 27.3776C47.0515 27.0348 46.8801 26.6309 46.651 26.2694C46.3812 25.8452 46.3557 25.3666 46.2929 24.8931C46.2776 24.7794 46.2352 24.6623 46.1792 24.5639C46.1164 24.4519 46.018 24.3585 45.9416 24.2533C45.7346 23.9614 45.4427 23.8206 45.1559 23.8867C45.2068 24.104 45.2492 24.3246 45.3103 24.5384C45.4749 25.1086 45.3001 25.6042 44.976 26.0624C44.92 26.1404 44.808 26.1778 44.7214 26.2338C44.6739 26.154 44.6213 26.0777 44.5823 25.9945C44.5449 25.9181 44.5161 25.8367 44.4957 25.7552C44.36 25.2138 44.0647 24.7743 43.6387 24.4213C43.5199 24.3229 43.4079 24.2889 43.2738 24.457C42.9582 24.8524 42.539 25.0798 42.0231 25.1188C41.3544 25.1697 40.7147 25.0866 40.1003 24.703C39.8984 25.1595 40.0833 25.594 40.1105 26.0064C40.1716 26.9635 40.3362 27.9139 40.4669 28.9304C40.6247 28.7896 40.7164 28.6843 40.8301 28.6097C41.0914 28.44 41.3545 28.165 41.6294 28.1481C42.3642 28.104 43.0447 28.3449 43.6149 28.8388C43.7303 28.9389 43.8559 29.0272 43.9764 29.1222H43.9747ZM30.4695 15.1655C30.461 15.2334 30.4491 15.2996 30.4423 15.3675C30.3609 16.3348 30.59 17.2427 31.0159 18.0981C31.3604 18.7888 31.9222 19.2079 32.696 19.3522C33.2747 19.4591 33.85 19.4557 34.427 19.3759C34.9701 19.3013 35.5115 19.1689 36.0562 19.1587C36.9624 19.14 37.8364 19.3403 38.6476 19.768C38.8122 19.8545 38.987 19.9207 39.2043 20.0174C39.0346 19.2249 38.7868 18.5444 38.2912 17.9742C38.1097 17.7637 37.9332 17.5499 37.7482 17.3412C37.2391 16.7676 36.6111 16.3908 35.839 16.3806C34.9599 16.3687 34.0791 16.4315 33.2001 16.4672C32.5178 16.496 31.8695 16.3823 31.3214 15.9496C31.0227 15.7137 30.7597 15.4337 30.4678 15.1621L30.4695 15.1655ZM39.3044 26.0539C39.3434 26.0352 39.3808 26.0166 39.4198 25.9979C39.43 25.9215 39.4571 25.8435 39.4486 25.7688C39.413 25.4633 39.3587 25.1595 39.3231 24.8524C39.2212 23.9648 38.7104 23.3013 38.0706 22.7565C37.6277 22.3797 37.0761 22.1405 36.4822 22.0369C35.7372 21.9063 34.9905 21.779 34.2522 21.6127C33.7957 21.5108 33.3087 21.3971 32.9845 21.0357C32.7537 20.7777 32.4907 20.7574 32.1971 20.7047C31.1805 20.5232 30.3693 19.9988 29.7431 19.1791C29.6854 19.1044 29.5921 19.0569 29.5021 18.9856C29.4665 19.0688 29.4377 19.1231 29.4207 19.1808C29.1593 20.1176 28.7198 20.9746 28.2412 21.8129C28.1122 22.0386 28.1394 22.1337 28.3719 22.2508C28.4601 22.2949 28.5586 22.3356 28.6553 22.3492C29.2069 22.4222 29.7567 22.507 30.3116 22.5478C31.9714 22.6699 33.6209 22.8583 35.2297 23.303C36.7978 23.7357 38.1623 24.4858 39.1517 25.8197C39.206 25.8944 39.2535 25.9741 39.3027 26.0522L39.3044 26.0539ZM13.6193 7.29793C12.3516 8.11252 11.2638 9.06627 10.2184 10.1812C11.0058 10.9381 11.7831 11.6865 12.5603 12.4349C12.4483 12.5724 12.3686 12.6708 12.2905 12.7676C12.3923 12.7913 12.4636 12.7693 12.5349 12.7506C13.0915 12.5945 13.6465 12.4383 14.2014 12.2788C14.271 12.2584 14.3423 12.2177 14.3966 12.1685C15.3469 11.3369 16.3584 10.5868 17.4241 9.90801C17.4903 9.86559 17.5616 9.7994 17.587 9.72812C17.7771 9.19694 17.9502 8.65897 18.3439 8.30938C17.9825 7.62037 17.6397 6.9653 17.285 6.28648C17.8569 6.01834 18.3898 5.77057 18.9209 5.5211C19.615 5.19526 19.6337 5.13417 19.2434 4.44686C19.2247 4.41291 19.201 4.38237 19.184 4.34673C19.1178 4.20757 19.0279 4.18551 18.8853 4.25339C18.2302 4.56565 17.5633 4.85755 16.915 5.18508C16.4687 5.41079 16.0461 5.68062 15.5811 5.94876C16.1598 6.90421 16.7165 7.82571 17.285 8.76249C16.0003 9.64666 14.6851 10.4579 13.5548 11.5508C13.0644 11.0026 12.6011 10.485 12.1174 9.94365C12.3397 9.73661 12.5366 9.52957 12.7572 9.35138C13.195 8.99499 13.6465 8.65728 14.0894 8.30598C14.1675 8.24489 14.288 8.18549 14.1827 8.04803C13.9961 7.80365 13.8162 7.55588 13.6227 7.29623L13.6193 7.29793ZM42.1453 40.6639C42.1317 40.6639 42.1181 40.6639 42.1062 40.6639C41.6871 41.2223 41.2713 41.784 40.8487 42.3389C40.5059 42.7887 40.1563 43.2299 39.8067 43.6745C39.6828 43.8324 39.5522 43.9851 39.4181 44.1361C39.3027 44.2651 39.1584 44.2447 39.0464 44.1531C38.9429 44.0682 38.9667 43.9528 39.0532 43.8459C39.5182 43.2774 39.9578 42.6868 40.4499 42.1438C41.0252 41.5108 41.3969 40.759 41.7872 40.0157C41.8364 39.9223 41.85 39.8103 41.8788 39.7068C41.8568 39.6966 41.8364 39.6864 41.8144 39.6762C41.7414 39.7696 41.6667 39.8612 41.5954 39.9563C41.4189 40.1905 41.2543 40.4348 41.0626 40.6554C41.0133 40.7114 40.8759 40.6928 40.7791 40.7081C40.7842 40.6266 40.7639 40.5299 40.8012 40.4637C41.0286 40.0513 41.2679 39.644 41.5038 39.2367C41.57 39.1247 41.6141 39.0178 41.5089 38.899C41.2543 38.6105 41.0032 38.3203 40.7316 38.008C40.2853 38.8345 39.8916 39.661 39.4096 40.4331C38.9243 41.2121 38.3846 41.9639 37.8076 42.6767C37.2255 43.3945 36.584 44.0699 35.934 44.7301C35.2908 45.3835 34.6069 45.9944 33.906 46.658C34.2081 46.7462 34.5255 46.8497 34.8496 46.9261C34.9209 46.9431 35.0278 46.8769 35.094 46.8209C35.6116 46.383 36.1275 45.9401 36.6366 45.4921C36.8114 45.3393 36.9641 45.1629 37.1372 45.0101C37.1797 44.9728 37.2934 44.9609 37.3324 44.9898C37.3748 45.022 37.3986 45.1306 37.3782 45.1832C37.3341 45.2952 37.2713 45.4123 37.1848 45.4938C36.6536 45.9995 36.1156 46.4967 35.5742 46.9923C35.4113 47.1416 35.4045 47.1891 35.5929 47.291C35.7287 47.3639 35.8661 47.4505 36.0121 47.4827C36.1122 47.5048 36.2599 47.4827 36.3379 47.42C36.696 47.1399 37.0575 46.8565 37.3816 46.5392C38.1249 45.8094 38.8682 45.0763 39.5725 44.3092C40.0104 43.8324 40.3854 43.2995 40.7724 42.7785C41.1983 42.2015 41.609 41.6126 42.0163 41.022C42.0842 40.9219 42.1029 40.7878 42.1453 40.669V40.6639ZM23.481 51.5862C27.5709 52.6859 31.6472 52.7233 35.7389 51.6287C34.7529 51.2994 34.0978 50.5205 33.3171 49.8926C33.2238 50.0249 33.1559 50.137 33.0728 50.2371C32.8318 50.529 32.5586 50.8141 32.1564 50.8005C31.7355 50.7852 31.3078 50.7207 30.9022 50.6087C30.6443 50.5375 30.4983 50.4916 30.2353 50.6868C29.5768 51.1739 27.9442 51.2282 27.3638 50.0979C27.2298 49.8383 27.0686 49.8298 26.8411 49.8807C26.2319 50.0165 25.6617 50.249 25.1305 50.5731C24.6757 50.8514 24.2226 51.1331 23.7678 51.4131C23.6727 51.4725 23.576 51.5285 23.4793 51.5845L23.481 51.5862ZM41.2815 10.2237C41.2068 10.1371 41.1949 10.1168 41.178 10.1049C41.1135 10.0624 41.0507 10.0166 40.9828 9.98099C40.1326 9.54993 39.4164 8.93899 38.7104 8.31277C38.2811 7.93263 37.7889 7.6628 37.2492 7.4863C36.438 7.22156 35.4266 7.64073 35.1075 8.38744C34.9294 8.80322 34.7647 9.23937 34.685 9.6823C34.5407 10.4867 34.4644 11.3013 34.3608 12.1125C34.3388 12.289 34.3269 12.4672 34.3099 12.6454C34.3303 12.6539 34.3507 12.664 34.371 12.6725C34.4881 12.5775 34.6052 12.4808 34.7223 12.3874C35.1975 12.009 35.6506 11.5949 36.158 11.264C36.6213 10.9619 37.1712 10.7973 37.7278 10.9008C38.4219 11.0298 39.0957 11.0264 39.7592 10.8007C40.2598 10.631 40.7469 10.4256 41.2815 10.222V10.2237ZM8.15136 16.9084C8.16664 16.939 8.18361 16.9678 8.19888 16.9984C8.28204 16.9984 8.36519 16.995 8.44835 16.9984C9.53617 17.0391 10.6257 17.0442 11.7101 17.1307C13.0627 17.2376 14.3813 17.241 15.6829 16.7387C16.4975 16.4247 17.0457 15.8936 17.4598 15.1672C17.526 15.0501 17.5005 14.9839 17.3698 14.9449C16.8013 14.7769 16.243 14.5393 15.6626 14.4494C14.2897 14.2372 12.9252 14.3798 11.6236 14.8567C10.8735 15.1316 10.1471 15.4914 9.45471 15.8902C8.98123 16.1617 8.58242 16.5639 8.15136 16.9084ZM18.3847 41.1612C18.1063 41.414 18.086 41.4887 18.1963 41.8061C18.2353 41.9147 18.2778 42.0233 18.3066 42.1353C18.568 43.1332 19.0414 44.0343 19.6116 44.8828C20.2209 45.7891 20.954 46.5969 21.733 47.3572C22.0554 47.6728 22.4424 47.9223 22.8072 48.1904C22.943 48.2905 23.1008 48.3228 23.2349 48.1429C22.8581 47.7848 22.4882 47.4369 22.125 47.0805C21.9994 46.9567 21.8857 46.8175 21.7856 46.6732C21.7483 46.6206 21.733 46.5137 21.7618 46.4645C21.789 46.4187 21.8942 46.3881 21.957 46.4C22.0758 46.4238 22.2048 46.456 22.2964 46.529C22.6952 46.8446 23.0855 47.1739 23.4725 47.5031C23.7559 47.7441 24.0291 47.9019 24.3957 47.6287C24.6078 47.4709 24.8675 47.3758 25.1237 47.2435C22.59 45.3003 20.6672 42.9414 19.6693 39.868C19.4419 40.0734 19.2451 40.2685 19.0279 40.4399C18.8836 40.5536 18.8412 40.669 18.904 40.837C19.145 41.47 19.3825 42.1047 19.6218 42.7377C19.7152 42.9838 19.8238 43.2231 19.8934 43.4743C19.9154 43.5523 19.8492 43.6813 19.7831 43.7441C19.7525 43.773 19.6049 43.7169 19.5421 43.6609C19.4589 43.5863 19.3927 43.4828 19.3469 43.3809C19.0245 42.6478 18.7071 41.9113 18.3813 41.1595L18.3847 41.1612ZM40.6603 13.4583C40.6417 13.4752 40.6247 13.4905 40.606 13.5075C40.679 13.6059 40.7401 13.7196 40.8284 13.8011C41.4138 14.3374 42.0893 14.7497 42.8682 14.8821C44.0545 15.0824 45.256 15.1927 46.449 15.359C47.3434 15.4846 48.2377 15.6135 49.1219 15.7866C50.4796 16.0531 51.6641 16.7251 52.8181 17.4515C52.9098 17.5092 53.0014 17.5686 53.0812 17.6415C53.9569 18.4358 54.8274 19.2334 55.7014 20.0276C55.7982 20.1159 55.9 20.1956 55.9984 20.2805L56.0731 20.2279C55.9679 20.0022 55.8576 19.7781 55.7591 19.549C55.4571 18.8515 54.9734 18.2762 54.4711 17.7281C54.0926 17.3157 53.6582 16.9491 53.2169 16.6012C52.679 16.1753 52.141 15.7289 51.5419 15.4065C50.7986 15.006 49.9976 14.709 49.2119 14.39C48.5178 14.1082 47.7626 14.1388 47.0345 14.0302C46.7749 13.9912 46.5 14.059 46.2301 14.0641C45.0727 14.0913 43.917 14.1116 42.7596 14.1388C42.0502 14.1558 41.3918 14.0166 40.8267 13.5601C40.7774 13.5194 40.7147 13.4939 40.6587 13.4617L40.6603 13.4583ZM49.7006 19.8206C49.7244 19.8732 49.7261 19.8834 49.7312 19.8851C49.7719 19.9054 49.8143 19.9258 49.8567 19.9445C50.6018 20.2873 51.1822 20.8218 51.5996 21.5193C52.1512 22.4408 52.6603 23.3861 53.2135 24.3059C53.6056 24.9576 54.1334 25.4854 54.7901 25.8808C55.0209 26.02 55.2415 26.0369 55.4944 25.9521C55.5962 25.9181 55.7303 25.9453 55.8389 25.9792C56.1189 26.0658 56.3888 26.1829 56.6688 26.2643C56.8911 26.3288 57.0862 26.2168 57.183 26.0132C57.2916 25.7875 57.1253 25.6907 56.9861 25.5821C56.5551 25.2427 56.1121 24.9169 55.693 24.5639C54.6136 23.6593 53.8194 22.5223 53.0846 21.3361C52.511 20.4112 51.9526 19.4761 51.1957 18.6768C50.6696 18.1218 50.1249 17.6042 49.4308 17.2699C49.278 17.1969 49.1185 17.1392 48.9607 17.0747C48.9471 17.0951 48.9335 17.1171 48.92 17.1375C49.2662 17.5397 49.5903 17.9606 49.9654 18.3339C50.1605 18.5274 50.4422 18.6343 50.6815 18.7854C50.7358 18.8193 50.8207 18.8787 50.8156 18.9177C50.8088 18.9907 50.763 19.084 50.7036 19.1265C50.3743 19.3658 50.0383 19.5915 49.7023 19.8223L49.7006 19.8206ZM44.4838 11.5881C44.0511 10.821 43.0922 10.5037 42.3914 10.5037C42.3846 10.5037 42.3761 10.5054 42.3693 10.5088C41.8466 10.6649 41.3103 10.7854 40.8046 10.984C39.9221 11.3285 39.0413 11.6237 38.0774 11.4167C37.3613 11.264 36.7113 11.4201 36.1241 11.8308C35.8033 12.0548 35.4962 12.3094 35.2145 12.5826C34.6612 13.1189 34.1317 13.6772 33.5479 14.2712C33.7007 14.2203 33.8076 14.1914 33.9094 14.1524C34.3558 13.9759 34.7902 13.7688 35.2467 13.6263C35.9493 13.4074 36.6638 13.2241 37.4071 13.4651C38.3048 13.7553 39.1415 13.6195 39.9323 13.1121C40.3125 12.8677 40.3311 12.8304 40.1156 12.4197C40.029 12.2551 40.0918 12.1329 40.2734 12.1006C40.7367 12.0209 41.2 11.9513 41.6599 11.8545C42.5017 11.6797 43.34 11.5066 44.2089 11.6068C44.2887 11.6153 44.3735 11.5949 44.4872 11.5864L44.4838 11.5881ZM44.029 31.0619C44.1478 31.101 44.2259 31.1315 44.3056 31.1502C45.1219 31.3487 45.7685 31.9546 45.9009 32.7675C45.9552 33.1018 45.9874 33.4412 46.0146 33.7789C46.0604 34.3508 46.0859 34.9279 46.505 35.3827C46.5509 35.4336 46.6069 35.4743 46.6663 35.5286C46.6544 35.2825 46.6035 35.0636 46.6442 34.8634C46.8054 34.0674 47.0905 33.3072 47.4469 32.5825C47.7083 32.053 47.8695 31.5015 47.9425 30.9296C47.9985 30.4781 47.9781 30.0081 47.7694 29.5889C47.6574 29.3632 47.4775 29.1612 47.2925 28.983C47.1516 28.8473 46.9599 28.7607 46.7834 28.6674C46.5322 28.535 46.2827 28.3857 46.0146 28.2974C45.3578 28.0819 44.6026 28.6504 44.623 29.3343C44.6383 29.8451 44.55 30.3169 44.2174 30.7242C44.1461 30.8108 44.1037 30.9228 44.0273 31.0602L44.029 31.0619ZM23.3452 22.059C23.3486 22.0335 23.352 22.0064 23.3537 21.9809C23.3045 21.947 23.2586 21.9097 23.206 21.8825C22.8225 21.6704 22.4288 21.4718 22.0537 21.2444C21.6091 20.9746 21.122 20.81 20.6214 20.7523C19.5947 20.6335 18.6409 20.8829 17.7975 21.4939C17.3529 21.8146 16.915 22.1456 16.4789 22.4782C15.6677 23.0959 14.7903 23.5338 13.7381 23.5083C13.6821 23.5083 13.6261 23.527 13.5022 23.549C13.6787 23.6797 13.7958 23.7934 13.9333 23.8647C14.3932 24.1006 14.887 24.2109 15.4029 24.2279C16.3261 24.2567 17.1645 23.9529 17.9672 23.5388C18.2795 23.3776 18.5781 23.1825 18.8632 22.9737C19.2638 22.6818 19.688 22.4408 20.1785 22.3713C20.8963 22.2694 21.6193 22.21 22.3422 22.1371C22.6748 22.1031 23.0109 22.0862 23.3452 22.0607V22.059ZM42.7359 40.4637C42.7562 40.4637 42.7749 40.4654 42.7868 40.4586C42.819 40.4382 42.8479 40.4094 42.8801 40.3907C43.2433 40.1871 43.3892 39.8001 43.6387 39.4997C44.0545 38.9974 44.1156 38.4476 43.9 37.8485C43.732 37.3818 43.4537 36.9847 43.1143 36.63C42.5271 36.0157 41.9365 35.4064 41.3392 34.8023C40.881 34.339 40.662 33.762 40.5297 33.1425C40.4805 32.9117 40.4312 32.6809 40.3702 32.3975C40.192 33.3139 40.0223 34.1608 39.8661 35.0093C39.8356 35.1722 39.8288 35.3487 39.8576 35.5099C39.9679 36.1175 40.2734 36.6402 40.6536 37.1137C41.0507 37.6058 41.4817 38.0725 41.8992 38.5494C42.2233 38.921 42.4813 39.3283 42.5848 39.8205C42.6306 40.036 42.6849 40.2498 42.7359 40.4654V40.4637ZM16.3804 41.1934C16.4042 41.1951 16.4263 41.1968 16.45 41.1985C16.4806 41.1272 16.5128 41.056 16.5434 40.9864C16.7114 40.6079 16.8403 40.204 17.0559 39.8544C17.4852 39.1552 18.0707 38.5935 18.7495 38.1302C18.8836 38.0386 19.0279 37.9605 19.1534 37.8604C19.5777 37.5193 19.6897 37.0526 19.5913 36.5502C19.4979 36.0751 19.3384 35.6118 19.201 35.1468C19.1789 35.0704 19.128 35.0025 19.0856 34.9194C18.9362 35.05 18.8242 35.1858 18.6817 35.2673C18.3405 35.4624 17.9977 35.6627 17.6346 35.8086C17.0151 36.0581 16.5094 36.4467 16.0784 36.944C15.5591 37.5447 15.3249 38.2337 15.498 39.0212C15.5777 39.3877 15.6778 39.7747 15.9952 40.0173C16.1717 40.1514 16.2294 40.3042 16.2549 40.5027C16.2854 40.7352 16.338 40.9643 16.3804 41.1951V41.1934ZM28.8454 17.3921C28.7894 17.0408 28.5297 16.7625 28.2039 16.7048C27.2433 16.5317 26.4525 16.8168 25.8518 17.5974C25.7856 17.6823 25.7211 17.7688 25.6532 17.852C25.5327 17.9996 25.4037 17.9827 25.2748 17.8622C25.1797 17.7722 25.1017 17.6432 24.9879 17.5974C24.1937 17.2716 23.3706 17.1341 22.607 17.6195C22.0995 17.9436 21.6651 18.3815 21.1441 18.8125C21.3902 18.9347 21.5718 19.0246 21.755 19.1146C22.5204 19.4879 23.2977 19.8291 24.1411 19.9852C24.6367 20.0768 25.1254 20.0327 25.5225 19.6916C25.8484 19.4116 26.142 19.0908 26.4423 18.7837C26.5934 18.6292 26.7274 18.4578 26.8768 18.3017C27.408 17.7451 28.0325 17.3802 28.8454 17.3921ZM31.5692 8.95256C31.5997 9.07475 31.6167 9.14773 31.6371 9.2207C31.8118 9.85371 31.8763 10.5071 31.7813 11.1503C31.6303 12.1498 31.2993 13.0968 30.7257 13.9453C30.6069 14.1218 30.6561 14.4188 30.814 14.5393C31.3961 14.9839 32.1937 14.9313 32.7045 14.4188C32.7911 14.3306 32.8912 14.2559 32.9726 14.1643C33.0592 14.0675 33.1407 13.964 33.2068 13.852C33.2917 13.706 33.363 13.5516 33.4325 13.3972C33.5089 13.2292 33.6107 13.0629 33.6396 12.8864C33.7448 12.2635 33.8398 11.6373 33.9026 11.0077C33.923 10.8058 33.884 10.5614 33.7804 10.3917C33.3562 9.69249 32.7351 9.22409 31.951 8.98141C31.8424 8.94747 31.7202 8.96275 31.5709 8.95256H31.5692ZM33.032 20.0276C33.066 20.5147 33.3562 20.7998 33.8195 20.9152C34.5085 21.0849 35.2009 21.2478 35.8933 21.3988C36.6943 21.5753 37.4953 21.7552 38.1996 22.2049C38.3744 22.3153 38.5458 22.4442 38.6816 22.597C38.9853 22.9432 39.2654 23.308 39.5539 23.6644C39.581 23.6509 39.598 23.6458 39.6048 23.6356C39.6251 23.6033 39.6438 23.5694 39.6608 23.5354C39.8882 23.062 39.8576 22.5579 39.8356 22.0573C39.7999 21.2614 39.3791 20.72 38.6782 20.3789C38.3456 20.216 38.0095 20.0599 37.6718 19.9071C37.5819 19.8664 37.4834 19.8358 37.385 19.8155C36.6502 19.6594 35.9204 19.6644 35.1754 19.7934C34.4712 19.9139 33.7533 19.9529 33.032 20.0293V20.0276ZM32.0936 5.31575C32.0274 5.44982 31.9782 5.56183 31.9188 5.66874C31.6642 6.13713 31.2484 6.42563 30.7885 6.66322C30.422 6.85329 30.1928 7.14689 30.1436 7.56606C30.1114 7.84778 30.2336 8.11252 30.4983 8.20586C30.7546 8.2958 31.0312 8.33144 31.3027 8.37047C31.5386 8.40441 31.7847 8.38065 32.0138 8.43496C32.6264 8.57751 33.161 8.88468 33.643 9.28519C33.7601 9.38192 33.8772 9.48035 34.0299 9.60933C34.0893 9.46847 34.1419 9.36156 34.1793 9.24955C34.4118 8.54697 34.6154 7.8308 35.2382 7.34035C35.2823 7.30641 35.2959 7.15198 35.2603 7.11295C35.0923 6.93645 34.9243 6.7345 34.7121 6.63098C34.3965 6.47655 34.0503 6.37303 33.7075 6.28987C33.1067 6.14392 32.5586 5.9233 32.1903 5.39042C32.1733 5.36667 32.1445 5.35309 32.0936 5.31406V5.31575ZM46.7749 25.2003C46.802 25.4124 46.7851 25.5974 46.8529 25.7399C47.0498 26.1489 47.2704 26.5477 47.5029 26.9364C47.7049 27.2758 48.0562 27.4183 48.4142 27.5286C49.0082 27.7119 50.074 27.0993 50.0909 26.2491C50.0943 26.0794 50.1028 25.9096 50.1096 25.7399C50.1232 25.3954 50.3455 25.1154 50.7019 24.9949C51.0294 24.8829 51.2738 24.9661 51.5182 25.2597C51.6115 25.3717 51.7116 25.482 51.8219 25.577C51.8813 25.6279 51.9696 25.6738 52.046 25.6754C52.3429 25.6822 52.7401 25.314 52.7621 25.0153C52.8028 24.4722 52.4855 24.07 52.2089 23.6542C52.2004 23.6424 52.1851 23.6356 52.1715 23.6288C51.7982 23.4523 51.4045 23.3725 51.0396 23.605C50.4813 23.9614 49.9569 24.3721 49.3985 24.7302C49.0371 24.961 48.645 25.146 48.2581 25.3326C47.9747 25.4684 47.6726 25.4514 47.3739 25.3649C47.1974 25.314 47.0176 25.2682 46.7749 25.202V25.2003ZM41.127 43.3741C41.1084 43.364 41.088 43.3555 41.0693 43.3453C39.8152 44.9948 38.4117 46.5018 36.7571 47.8289C37.1627 48.0597 37.5106 48.2719 37.8721 48.4603C38.4049 48.7369 38.9616 48.9219 39.5793 48.8811C39.8848 48.8608 40.102 48.7369 40.2293 48.4755C40.3396 48.2498 40.4363 48.0139 40.4991 47.7712C40.679 47.072 40.7299 46.3593 40.7435 45.638C40.7571 44.9371 40.808 44.2329 41.0795 43.5693C41.105 43.5082 41.1118 43.4386 41.127 43.3741ZM18.8225 44.7759C18.8157 44.8998 18.8072 44.9898 18.8072 45.0797C18.8004 45.9673 18.7903 46.8548 18.792 47.7407C18.792 48.148 18.8106 48.557 18.8378 48.9643C18.8768 49.5633 19.4929 49.8484 19.9307 49.7823C20.1309 49.7517 20.3261 49.6686 20.5145 49.5871C21.0881 49.3393 21.6566 49.0814 22.2234 48.82C22.3134 48.7793 22.3863 48.6995 22.5017 48.6096C21.6804 48.1548 21.0949 47.498 20.5111 46.8548C19.9222 46.2048 19.4012 45.4938 18.8225 44.7742V44.7759ZM42.0061 31.196C42.2777 31.398 42.4932 31.5897 42.7359 31.7306C42.9514 31.8562 43.1941 31.9376 43.4334 32.0157C43.5742 32.0615 43.6608 31.9834 43.6285 31.8273C43.5929 31.6542 43.542 31.4845 43.5012 31.3131C43.4469 31.0823 43.4283 30.8736 43.6336 30.6784C43.7728 30.5443 43.8525 30.3441 43.951 30.1693C43.9696 30.1353 43.973 30.0742 43.9561 30.042C43.5929 29.3666 43.0447 28.927 42.2946 28.742C41.9722 28.6623 41.6616 28.6487 41.3629 28.8303C41.0405 29.0255 40.8708 29.3309 40.7384 29.6653C40.7299 29.689 40.7418 29.7263 40.7554 29.7518C41.0626 30.3339 41.0116 30.9635 41.0015 31.5863C40.993 32.126 40.9505 32.6674 41.1033 33.1968C41.1389 33.3207 41.2 33.4395 41.2492 33.56C41.3918 32.7352 41.4393 31.9122 42.0095 31.196H42.0061ZM42.0927 32.0327C42.1504 32.182 42.22 32.2702 42.2081 32.3449C42.1198 32.888 42.3574 33.3105 42.7104 33.6754C42.9785 33.952 43.2891 34.1862 43.5742 34.4476C43.8865 34.7344 44.2174 35.0059 44.3752 35.4217C44.4024 35.4913 44.4838 35.5659 44.5551 35.5897C45.0184 35.7475 45.497 35.7832 46.0027 35.7441C45.9857 35.6915 45.984 35.6576 45.9654 35.6372C45.5343 35.1111 45.4461 34.4849 45.4104 33.8332C45.3901 33.465 45.3459 33.0933 45.2679 32.7335C45.1508 32.1888 44.7367 31.902 44.2479 31.6508C44.2293 31.9122 44.2174 32.1328 44.1953 32.3534C44.1784 32.5112 44.0884 32.6198 43.9238 32.6147C43.4198 32.6012 42.9225 32.5621 42.5034 32.2227C42.4032 32.1413 42.2641 32.109 42.0927 32.0327ZM17.9265 25.5448C17.9519 25.5499 17.9774 25.555 18.0045 25.56C18.0673 25.465 18.1318 25.37 18.1929 25.2732C18.3915 24.9525 18.5798 24.6233 18.7903 24.311C19.0194 23.9716 19.3707 23.7459 19.7423 23.6424C20.6961 23.3742 21.66 23.4676 22.5985 23.7544C23.1331 23.9173 23.6693 23.9886 24.2192 23.9156C25.3121 23.7679 26.1521 23.1502 26.9226 22.4171C26.982 22.3611 27.0176 22.2779 27.0753 22.1863C27.0092 22.1863 26.9837 22.1795 26.965 22.1863C26.2981 22.4595 25.6159 22.6292 24.8878 22.507C24.8369 22.4985 24.7809 22.5206 24.7283 22.5291C24.4754 22.5647 24.2243 22.6139 23.9714 22.6309C23.1381 22.6869 22.3032 22.7107 21.4716 22.782C20.5433 22.8617 19.6405 22.9992 18.8819 23.6509C18.4475 24.0242 18.1844 24.4671 18.0181 24.9881C17.9604 25.1646 17.957 25.3581 17.9282 25.5448H17.9265ZM51.7642 22.8787C51.5385 22.4408 51.3756 22.0369 51.138 21.6823C50.7104 21.0459 50.4914 20.888 49.7329 21.112C49.6514 21.1358 49.5665 21.1511 49.4885 21.1799C48.9912 21.3615 48.6043 21.6721 48.4584 22.1948C48.236 22.9873 48.3124 23.7612 48.7112 24.5469C49.0031 24.3382 49.2865 24.1413 49.5632 23.9377C50.2114 23.4608 50.7969 22.8583 51.7626 22.8787H51.7642ZM23.2926 16.6963C22.7309 16.367 22.2099 15.9394 21.5022 16.0005C21.2408 16.0225 20.9846 16.0802 20.7249 16.1193C20.3974 16.1668 20.0614 16.2788 19.7423 16.2415C19.15 16.1702 18.663 16.3653 18.2031 16.6861C18.0096 16.8219 17.8433 17 17.6346 17.1867C17.7669 17.2173 17.8382 17.2258 17.901 17.2495C18.5578 17.4939 19.2213 17.723 19.8662 17.9928C20.2514 18.1541 20.6316 18.149 21.0236 18.0913C21.0983 18.0794 21.1797 18.0251 21.234 17.9674C21.8093 17.3785 22.4407 16.8846 23.2892 16.6963H23.2926ZM8.16155 24.3551L8.10385 24.3908C8.43987 24.9847 8.48229 25.5617 8.06142 26.1269C7.65412 26.6699 7.11615 26.9245 6.43563 26.8838C6.37284 27.1757 6.48315 27.3878 6.68001 27.5558C6.81917 27.6763 6.98039 27.773 7.12634 27.8867C7.6117 28.2567 8.4755 28.2669 8.98462 27.9308C9.6346 27.5015 9.87558 26.8651 9.91462 26.1337C9.93668 25.7111 9.82807 25.3055 9.43265 25.0662C9.01857 24.815 8.58751 24.591 8.16494 24.3534L8.16155 24.3551ZM40.6756 12.5622C40.7248 12.6691 40.7469 12.7353 40.7825 12.7913C41.1287 13.3174 41.6616 13.5295 42.2505 13.6008C42.6086 13.6449 42.9751 13.6161 43.3383 13.6127C44.3124 13.6008 45.2865 13.5872 46.2607 13.5703C46.3795 13.5686 46.4983 13.5465 46.617 13.5346C46.6374 13.5024 46.6578 13.4702 46.6781 13.4362C46.5899 13.3768 46.5 13.3191 46.4117 13.2597C46.0536 13.0153 45.7108 12.7455 45.3358 12.5334C45.0439 12.3688 44.7231 12.2296 44.399 12.1566C43.5742 11.9683 42.7528 12.1295 41.9399 12.2771C41.5309 12.3518 41.1287 12.4587 40.6773 12.5622H40.6756ZM25.027 24.3619C24.3923 24.5299 23.7695 24.4892 23.1449 24.4553C23.1144 24.4553 23.0804 24.4519 23.0533 24.4637C22.4305 24.7472 21.7601 24.9729 21.4309 25.6517C21.3036 25.9147 21.1916 26.188 21.0932 26.4629C20.9167 26.9618 20.8284 27.4777 20.8556 28.0106C20.8675 28.2312 20.9642 28.3212 21.1424 28.2499C21.3613 28.1617 21.5684 28.0649 21.6956 27.8256C21.9298 27.3827 22.1742 26.9398 22.4661 26.5342C22.663 26.2592 22.9209 26.0098 23.1958 25.8112C23.52 25.5787 23.8984 25.426 24.2412 25.2189C24.5807 25.0136 24.8098 24.6979 25.0287 24.3619H25.027ZM8.26677 15.3607C8.13439 15.269 8.03936 15.1876 7.93075 15.1316C7.72201 15.023 7.73558 14.9093 7.86796 14.7362C8.32447 14.1405 8.76231 13.5312 9.21882 12.9373C9.33592 12.7845 9.33083 12.6878 9.18318 12.5775C9.00499 12.4417 8.83189 12.2992 8.65539 12.16C8.5383 12.0684 8.44665 12.1074 8.3601 12.2143C7.59303 13.146 6.8565 14.1015 6.26253 15.157C6.17259 15.3149 6.09113 15.4778 5.99779 15.6492C6.5714 15.9852 7.11785 16.3059 7.71013 16.6538C7.57945 16.0531 7.8985 15.7069 8.26677 15.359V15.3607ZM9.19506 15.2487C9.21543 15.269 9.23749 15.2894 9.25785 15.3098C9.27143 15.3132 9.2884 15.3233 9.30028 15.32C9.3427 15.303 9.38343 15.2809 9.42586 15.2606C10.2472 14.8533 11.0533 14.4137 11.9511 14.171C13.139 13.8503 14.3423 13.7383 15.5574 13.8774C16.1123 13.9419 16.652 14.1388 17.2001 14.2712C17.2816 14.2915 17.3698 14.2898 17.4801 14.3017C17.4445 14.1965 17.4292 14.1303 17.3987 14.0692C17.1865 13.6331 16.9557 13.2054 16.45 13.0476C15.7152 12.8185 14.9617 12.7981 14.2014 12.8881C13.2239 13.0052 12.3465 13.4108 11.4708 13.8197C10.7631 14.1507 10.0843 14.5325 9.48186 15.0365C9.39022 15.1129 9.29179 15.1774 9.19506 15.2487ZM14.3389 37.0695C14.4339 37.3377 14.4933 37.5617 14.5951 37.7653C14.6342 37.8434 14.7614 37.8926 14.8599 37.9164C14.887 37.9232 14.96 37.8044 14.9922 37.7348C15.1484 37.3852 15.2298 36.9762 15.4623 36.6911C15.8968 36.1599 16.4212 35.7068 17.0728 35.4353C17.3579 35.3165 17.6498 35.2028 17.9146 35.0483C18.1895 34.8871 18.4661 34.7038 18.6884 34.4798C19.0058 34.1591 18.9108 33.3428 18.5595 33.0594C18.4509 32.9728 18.3677 32.9643 18.2778 33.1035C18.1386 33.3156 17.9825 33.5176 17.8195 33.7111C17.2035 34.451 16.3652 34.9279 15.6371 35.5337C15.3062 35.8103 14.9871 36.109 14.702 36.4298C14.5408 36.6113 14.456 36.8591 14.3406 37.0729L14.3389 37.0695ZM27.2926 12.4299C27.1551 12.4231 27.0261 12.4248 26.9005 12.4095C26.7716 12.3925 26.6086 12.3976 26.5255 12.3229C26.2217 12.0463 25.8823 11.8053 25.7347 11.3794C25.5191 10.7599 25.1441 10.2882 24.4415 10.1524C24.1072 10.0879 23.7389 10.1286 23.4453 9.88935C23.4368 9.88256 23.3079 9.96911 23.3028 10.02C23.2535 10.4528 23.3163 10.8686 23.5471 11.2453C23.7813 11.6288 24.1581 11.8138 24.562 11.9699C24.7419 12.0395 24.9778 12.1244 25.0541 12.272C25.2985 12.7421 25.7313 12.8881 26.1759 13.0153C26.5119 13.1121 27.1178 12.7828 27.2926 12.4299ZM22.0249 24.2143C21.5073 24.0666 21.0134 24.104 20.523 24.1175C19.9154 24.1345 19.4131 24.3925 19.094 24.8931C18.7954 25.3632 18.5764 25.8859 18.3338 26.3899C18.2811 26.4985 18.2693 26.6292 18.2574 26.7514C18.2319 27.0076 18.3643 27.1112 18.6104 27.0348C18.7428 26.9941 18.8717 26.9449 18.999 26.8922C19.0906 26.8532 19.1959 26.8193 19.2604 26.7514C19.61 26.3865 19.9443 26.0064 20.2956 25.6432C20.4551 25.4786 20.6418 25.3377 20.82 25.1918C21.2086 24.8727 21.6023 24.5571 22.0249 24.2143ZM32.7758 49.4598C32.3821 49.2426 31.9799 49.0695 31.6337 48.8183C31.2807 48.5621 30.9871 48.2261 30.6595 47.9359C30.3405 47.6524 29.9654 47.5048 29.5344 47.5337C29.2306 47.554 29.1661 47.6524 29.2425 47.9562C29.5344 49.1119 30.4847 49.9723 31.6727 50.1573C32.2853 50.2523 32.5942 50.0572 32.7741 49.4598H32.7758ZM40.3175 23.0891C40.2429 23.3403 40.1682 23.5728 40.1088 23.8104C40.0986 23.8511 40.1478 23.919 40.1869 23.9563C40.5755 24.3433 41.0473 24.5265 41.5937 24.5758C42.3031 24.6385 42.8071 24.3636 43.0872 23.717C43.1092 23.6678 43.1279 23.6152 43.1584 23.5728C43.2721 23.4167 43.4181 23.4217 43.5352 23.5728C43.5963 23.6508 43.6557 23.7374 43.7354 23.7917C44.102 24.048 44.4109 24.3534 44.6468 24.7353C44.679 24.7879 44.7282 24.8286 44.7706 24.8744C44.7961 24.8643 44.8199 24.8541 44.8453 24.8439C44.8046 24.6301 44.8012 24.3976 44.7129 24.2058C44.455 23.6458 44.0222 23.2334 43.5012 22.9109C43.4554 22.8821 43.379 22.8617 43.3366 22.8804C43.211 22.9347 43.077 22.9941 42.9751 23.0823C42.7002 23.3233 42.3778 23.3878 42.0282 23.3946C41.4427 23.4048 40.8742 23.3233 40.3175 23.0874V23.0891ZM25.5548 30.2915C24.7215 29.9639 23.8662 29.9504 23.016 30.3746C22.5611 30.602 22.5578 30.5935 22.6426 31.1044C22.6477 31.1349 22.6579 31.1689 22.6494 31.196C22.59 31.3623 22.702 31.4132 22.8208 31.4624C23.6031 31.7832 24.394 31.8205 25.195 31.5303C25.5497 31.4013 25.6719 31.1807 25.6074 30.8125C25.5785 30.6512 25.5734 30.4849 25.5565 30.2915H25.5548ZM7.23665 23.3318C7.04827 23.3793 6.82426 23.4065 6.6274 23.4947C6.3966 23.5982 6.17089 23.7306 5.98082 23.8952C5.85184 24.0072 5.73644 24.1871 5.70929 24.35C5.66516 24.6199 5.69571 24.9033 5.7008 25.1816C5.71099 25.6517 6.09622 26.098 6.55273 26.1778C6.98888 26.2525 7.50987 25.9266 7.7288 25.4413C7.83401 25.2088 7.77801 24.944 7.61 24.8676C7.44708 24.793 7.19083 24.9236 7.05845 25.1035C6.99736 25.1867 6.8599 25.2783 6.77165 25.2648C6.6834 25.2512 6.5714 25.1256 6.54424 25.0289C6.44072 24.6504 6.77674 24.2329 7.24174 24.1651C7.43351 24.1362 7.63206 24.16 7.83571 24.16C7.64225 23.8918 7.45726 23.6373 7.23665 23.3335V23.3318ZM13.8484 36.6283C13.9044 36.5621 13.9265 36.5418 13.9418 36.5163C14.2506 35.958 14.7122 35.5371 15.1976 35.1417C15.9375 34.5392 16.7691 34.0556 17.4224 33.3411C17.7788 32.9525 17.9316 32.5214 17.8925 32.0123C17.8823 31.8867 17.8179 31.7645 17.7788 31.6423C17.6397 31.8494 17.5667 32.0496 17.4818 32.2465C17.1577 32.9932 16.7402 33.6313 15.8102 33.672C15.7593 33.6737 15.6897 33.7365 15.6677 33.7874C15.5794 33.9877 15.5234 34.2015 15.4233 34.395C15.2383 34.7514 14.9447 34.9533 14.5289 34.9448C14.383 34.9414 14.2336 34.9262 14.0894 34.9414C14.0164 34.9482 13.9129 34.9923 13.8857 35.0483C13.6855 35.4692 13.5888 35.9104 13.7279 36.3738C13.7517 36.4501 13.7958 36.5214 13.8484 36.63V36.6283ZM18.7326 27.6814C18.4678 27.644 18.2404 27.5948 18.0113 27.5846C17.8314 27.5762 17.6261 27.5694 17.4716 27.644C17.0728 27.8392 16.764 28.1464 16.6435 28.5876C16.5994 28.7505 16.579 28.9474 16.6265 29.1052C16.7402 29.4803 17.677 29.7518 17.9825 29.5023C18.237 29.2953 18.478 29.0764 18.4712 28.6894C18.4678 28.496 18.5561 28.3008 18.607 28.109C18.6443 27.9699 18.6867 27.8324 18.7309 27.6797L18.7326 27.6814ZM20.4347 8.88638C20.4296 8.91523 20.4228 8.94578 20.4178 8.97463C20.6163 9.0476 20.8081 9.1613 21.0134 9.18846C21.6668 9.26992 22.3083 9.17488 22.8768 8.84226C23.649 8.39084 24.3923 7.8885 25.1475 7.40654C25.1543 7.40314 25.1475 7.37938 25.1475 7.34035C23.5064 7.65431 21.9332 8.15664 20.4364 8.88808L20.4347 8.88638ZM29.9943 50.1251C29.9739 50.0843 29.9671 50.0606 29.9519 50.0453C29.6023 49.7059 29.2629 49.3597 29.0626 48.9032C29.0439 48.8608 28.9879 48.8098 28.9455 48.8065C28.5145 48.7623 28.0851 48.7216 27.671 48.9066C27.5064 48.9796 27.4538 49.0848 27.5132 49.2545C27.705 49.8077 28.0274 50.2133 28.6502 50.3016C29.1152 50.3678 29.5649 50.3525 29.996 50.1251H29.9943ZM44.2802 37.3869C44.3006 37.3835 44.3209 37.3801 44.343 37.3767C44.3549 37.28 44.3735 37.1833 44.3769 37.0865C44.4024 36.4213 44.1173 35.846 43.7083 35.3776C43.1771 34.77 42.5509 34.2456 41.9654 33.6856C41.9467 33.8383 41.9552 33.9826 42.0044 34.1116C42.1385 34.4612 42.22 34.8617 42.4491 35.1383C43.0651 35.8833 43.8373 36.4976 44.2802 37.3869ZM20.5586 26.2932C20.5382 26.2796 20.5179 26.266 20.4975 26.2508C20.3685 26.3645 20.2277 26.4663 20.1123 26.5919C19.6626 27.0806 19.3741 27.6678 19.0991 28.2669C18.9108 28.6776 19.1823 28.9949 19.2196 29.3818C19.7203 29.202 20.0274 28.8625 20.299 28.4858C20.3414 28.4264 20.3465 28.3212 20.3346 28.2431C20.2447 27.6967 20.3295 27.1672 20.4839 26.6445C20.5179 26.5308 20.5332 26.4103 20.5569 26.2932H20.5586ZM19.4929 38.3542C19.3944 38.4034 19.3113 38.434 19.24 38.4815C18.5934 38.9126 18.0741 39.4709 17.6278 40.1005C17.2663 40.6113 17.0779 41.1866 17.0966 41.8179C17.0983 41.8977 17.1662 41.9741 17.2035 42.0538C17.2476 41.991 17.3155 41.935 17.3308 41.8671C17.4835 41.1697 17.9027 40.647 18.4203 40.1871C18.68 39.9563 18.9413 39.7255 19.1908 39.4828C19.4979 39.1824 19.5607 38.8056 19.4929 38.3576V38.3542ZM39.5522 36.3992C38.8886 37.4344 38.9853 38.6207 39.6234 39.1451C39.8525 38.6342 40.0783 38.1404 40.2955 37.6432C40.3108 37.6092 40.2955 37.5481 40.2734 37.5125C40.0392 37.1442 39.7999 36.7794 39.5522 36.3975V36.3992ZM48.774 13.7179C49.0625 14.0675 49.4885 14.0743 49.8313 14.2389C50.1792 14.4052 50.5458 14.5342 50.9038 14.6785C50.8343 14.485 50.7409 14.3357 50.6306 14.1982C50.3438 13.8367 50.0519 13.4769 49.7583 13.1206C49.6803 13.0238 49.592 12.9967 49.4834 13.0968C49.2611 13.2987 49.032 13.4939 48.774 13.7196V13.7179ZM5.18659 26.0573C4.8913 25.3564 4.92015 24.6402 5.1255 23.8596C4.79966 24.2279 4.52134 24.5418 4.24642 24.8575C4.22436 24.8829 4.21757 24.9304 4.22266 24.9644C4.25999 25.1918 4.27527 25.4277 4.34994 25.6415C4.49249 26.0488 4.70632 26.1472 5.18659 26.0556V26.0573ZM4.11744 19.3233C4.13781 19.3369 4.15817 19.3488 4.17853 19.3624C4.59941 19.0094 5.01858 18.6564 5.45812 18.2881C5.28842 18.2067 5.13568 18.1371 4.98634 18.0624C4.80136 17.9708 4.68765 18.0149 4.61298 18.2151C4.5434 18.4035 4.44158 18.5783 4.35842 18.7616C4.27527 18.9483 4.1972 19.1367 4.11574 19.325L4.11744 19.3233ZM3.97319 26.1235C3.95452 26.1303 3.93755 26.1371 3.91888 26.1421C3.89343 26.3899 3.86458 26.6377 3.851 26.8855C3.8493 26.9245 3.91549 26.9958 3.95792 27.0026C4.26509 27.0518 4.57565 27.0891 4.89809 27.1298C4.92355 26.989 4.94221 26.8855 4.96428 26.7582C4.49928 26.7429 4.17514 26.5274 3.97319 26.1235ZM18.5595 32.4671C18.5798 32.4688 18.6019 32.4722 18.6223 32.4739C18.6358 32.4501 18.6613 32.4264 18.6596 32.4026C18.6257 31.8341 18.59 31.2673 18.5493 30.6988C18.5476 30.6631 18.4899 30.6003 18.4729 30.6037C18.3643 30.6309 18.2421 30.6512 18.1556 30.7157C18.0503 30.7955 18.0368 30.9109 18.1148 31.0416C18.3372 31.4149 18.5103 31.8053 18.5035 32.2533C18.5035 32.3229 18.5374 32.3941 18.5578 32.4637L18.5595 32.4671ZM49.9229 20.4807C49.4393 20.2228 48.9658 20.0717 48.3718 20.1294C48.5483 20.2516 48.6756 20.3229 48.7825 20.4179C48.8877 20.5113 48.9709 20.6301 49.0744 20.7489C49.3324 20.6674 49.6124 20.5792 49.9229 20.4807ZM17.5124 10.5817C17.4988 10.5631 17.4852 10.5427 17.47 10.524C16.652 11.0094 15.8832 11.5643 15.1178 12.2228C15.3164 12.2228 15.4487 12.233 15.576 12.2177C15.632 12.2109 15.7033 12.1651 15.7339 12.1159C15.9952 11.6848 16.3686 11.3624 16.7657 11.0705C17.005 10.894 17.2629 10.7447 17.5107 10.5817H17.5124ZM6.95833 22.5766C6.94645 22.3831 6.93457 22.1727 6.9193 21.8978C6.54255 22.2626 6.20653 22.5868 5.87221 22.9109C5.88748 22.9262 5.90106 22.9432 5.91633 22.9584C6.25914 22.8329 6.60194 22.7073 6.96002 22.5766H6.95833ZM14.4441 32.888C14.4034 32.7285 14.3677 32.5944 14.3338 32.462C14.2981 32.3195 14.2812 32.1701 14.2218 32.0377C14.181 31.9461 14.0826 31.8799 14.0113 31.8036C13.9231 31.9037 13.7805 31.9919 13.7568 32.1039C13.7059 32.3398 14.1471 32.8354 14.4441 32.888ZM54.1894 16.883C54.2029 16.8711 54.2165 16.8592 54.2301 16.8456C54.0909 16.6097 53.9552 16.3704 53.8109 16.1362C53.6174 15.8223 53.5801 15.8189 53.2628 16.0735C53.5733 16.345 53.8805 16.6131 54.1894 16.883ZM56.1444 27.028C56.4753 26.9822 56.7791 26.9432 57.0812 26.8922C57.1304 26.8838 57.1677 26.8142 57.2101 26.7734C57.1575 26.7582 57.0981 26.7191 57.054 26.7344C56.7621 26.8278 56.4787 26.8074 56.1987 26.6903C56.1698 26.6784 56.1291 26.6954 56.0833 26.6988C56.1019 26.804 56.1189 26.8939 56.1427 27.028H56.1444ZM26.7156 31.0059C26.4559 30.8108 26.254 30.6563 26.0266 30.4849C26.0554 30.7463 26.0775 30.9635 26.1046 31.2062C26.293 31.1451 26.4644 31.0874 26.7156 31.0059ZM22.2149 9.73152C22.2115 9.76206 22.2082 9.79092 22.2048 9.82146C22.366 9.86559 22.5272 9.90971 22.6884 9.95214C22.7122 9.82655 22.7342 9.70267 22.7648 9.53636C22.5408 9.61612 22.3779 9.67212 22.2149 9.72982V9.73152ZM21.828 30.7955C21.8229 30.8142 21.8178 30.8328 21.8144 30.8515L22.0605 31.0331C22.0894 30.9228 22.0962 30.8159 22.0486 30.7785C22.0062 30.7446 21.9044 30.7853 21.828 30.7938V30.7955Z" fill="black"/>
<path d="M36.0115 29.5804C35.8978 29.4972 35.8129 29.4208 35.7179 29.3665C34.6674 28.7624 33.6237 28.8218 32.5919 29.4073C32.4171 29.5057 32.2627 29.6364 32.0896 29.7365C32.0353 29.7687 31.925 29.7772 31.8859 29.7433C31.8435 29.7076 31.8299 29.6007 31.8503 29.5396C31.874 29.4633 31.9334 29.392 31.9945 29.336C32.5495 28.8269 33.2266 28.6283 33.9597 28.5536C34.6878 28.479 35.3751 28.5418 35.9962 28.983C36.2593 29.1697 36.5444 29.3292 36.8346 29.4718C37.4591 29.7806 38.0565 29.5838 38.4128 28.9762C38.4621 28.8914 38.5248 28.8048 38.6012 28.7454C38.6521 28.7047 38.759 28.6758 38.8049 28.703C38.8575 28.7318 38.8948 28.8303 38.8965 28.8998C38.8999 28.9711 38.8643 29.0509 38.8269 29.1171C38.4773 29.728 37.9869 30.1149 37.247 30.098C37.2011 30.098 37.1536 30.0997 37.1078 30.1048C37.0959 30.1048 37.084 30.1217 37.0722 30.1302C37.4319 30.4645 37.4387 30.5104 37.0212 30.8073C36.2762 31.3351 35.4871 31.7713 34.5452 31.8171C34.3144 31.829 34.0751 31.8307 33.8528 31.7781C33.23 31.6287 32.6123 31.4573 31.9979 31.2774C31.7485 31.2045 31.6789 30.9635 31.7569 30.7174C32.0811 29.7009 32.9415 29.4751 33.8308 29.3411C34.4621 29.2443 35.0934 29.3733 35.706 29.56C35.7722 29.5804 35.8401 29.5956 35.908 29.6092C35.9266 29.6126 35.947 29.599 36.0115 29.5804ZM32.8566 30.064C32.8872 30.2337 32.933 30.3593 32.9279 30.4815C32.911 30.8956 33.1129 31.1688 33.5202 31.2571C34.3008 31.4268 35.0611 31.442 35.7943 31.0432C36.1082 30.8735 36.1337 30.8599 36.1031 30.4934C36.0896 30.3288 36.0302 30.2202 35.874 30.1574C35.6806 30.0793 35.5007 29.9656 35.3038 29.9062C34.4604 29.6516 33.6322 29.6686 32.8583 30.064H32.8566ZM31.9979 30.6784C32.0183 30.7174 32.037 30.7564 32.0573 30.7938C32.1965 30.8464 32.3356 30.899 32.5054 30.9618C32.4816 30.7378 32.4646 30.563 32.446 30.3882C32.4205 30.3695 32.3933 30.3525 32.3679 30.3339C32.244 30.4493 32.1201 30.563 31.9979 30.6784Z" fill="black"/>
<path d="M32.7701 40.1429C32.7446 40.0835 32.7191 40.036 32.7039 39.9868C32.6462 39.795 32.7531 39.6711 32.9466 39.7305C33.3216 39.8442 33.5219 40.1514 33.6967 40.4705C33.7187 40.5095 33.6814 40.6249 33.6407 40.6453C33.5762 40.6775 33.4659 40.6945 33.4099 40.6605C33.2673 40.574 33.1451 40.6011 32.9958 40.6351C32.5155 40.7437 32.0318 40.8693 31.5448 40.9015C31.2614 40.9202 30.9559 40.8031 30.681 40.6928C30.328 40.5519 30.014 40.484 29.6882 40.7539C29.4065 40.9881 29.0874 41.0186 28.7633 40.8133C28.356 40.5536 27.9215 40.5417 27.4735 40.686C27.1867 40.7776 26.9016 40.8744 26.6097 40.9524C26.233 41.0543 25.8579 41.0543 25.5083 40.8506C25.3607 40.7641 25.2419 40.7861 25.1417 40.9134C25.0365 41.0492 24.9228 41.0424 24.8023 40.949C24.6717 40.8489 24.6734 40.7182 24.7616 40.5994C24.8855 40.4331 25.0162 40.2668 25.1672 40.1277C25.398 39.9155 25.5626 39.9766 25.6644 40.2685C25.6848 40.3262 25.7883 40.3907 25.8528 40.389C26.2143 40.3788 26.5758 40.3585 26.9355 40.3211C27.0951 40.3042 27.2512 40.2482 27.4073 40.2006C27.9266 40.0445 28.4341 40.0767 28.9194 40.3092C29.0993 40.3958 29.2622 40.3992 29.4201 40.294C29.8324 40.0224 30.2652 40.0445 30.7115 40.1871C31.3343 40.3856 31.9606 40.4874 32.5936 40.221C32.6496 40.1972 32.7039 40.1718 32.7701 40.1429Z" fill="black"/>
<path d="M27.9551 29.28C28.3013 29.0543 28.3759 29.078 28.4404 29.4735C28.4778 29.6992 28.471 29.9334 28.4625 30.1625C28.4387 30.8634 28.3895 31.5659 28.3776 32.2668C28.3708 32.6979 28.4506 33.1306 28.4302 33.56C28.4133 33.9266 28.3182 34.2914 28.2419 34.6529C28.1366 35.1467 28.028 35.6355 28.1672 36.1412C28.3131 36.6707 28.5864 36.8896 29.1328 36.893C29.3025 36.893 29.4739 36.8862 29.6436 36.8761C29.7709 36.8676 29.8507 36.9049 29.871 37.0424C29.8914 37.1697 29.8439 37.2392 29.7268 37.2935C29.1091 37.582 28.0959 37.3495 27.8057 36.5163C27.5953 35.9121 27.6072 35.3063 27.7752 34.7123C27.9958 33.93 28.0569 33.1578 27.9211 32.3534C27.8634 32.0123 27.95 31.6491 27.9534 31.2961C27.9601 30.619 27.9551 29.9435 27.9551 29.2766V29.28Z" fill="black"/>
<path d="M31.1853 28.9169C31.2396 28.8694 31.2718 28.8185 31.3177 28.8015C31.7657 28.642 32.0542 28.2839 32.3885 27.975C32.6685 27.7171 32.9468 27.4455 33.3406 27.3454C33.5934 27.2792 33.8361 27.1604 34.0907 27.1112C34.4878 27.0365 34.8798 27.0365 35.2735 27.1944C35.8946 27.4438 36.5277 27.6729 37.1641 27.88C37.6409 28.0344 38.1331 28.0446 38.6286 27.9309C38.7372 27.9054 38.8628 27.9546 38.9799 27.9682C38.89 28.048 38.8136 28.1549 38.7084 28.2007C38.1433 28.4451 37.5595 28.3297 36.9994 28.2024C36.5378 28.0972 36.1 27.8919 35.6537 27.7238C35.1564 27.5372 34.6286 27.3742 34.1212 27.5134C33.568 27.6644 33.0012 27.8545 32.5939 28.3314C32.3919 28.569 32.1424 28.7743 31.8896 28.9627C31.691 29.112 31.3822 29.0747 31.1836 28.9152L31.1853 28.9169Z" fill="black"/>
<path d="M29.9909 42.0793C29.5582 42.0334 29.1288 41.9723 28.6978 41.9469C28.4636 41.9333 28.2209 41.9605 27.9884 42.008C27.4843 42.1115 26.9905 42.1319 26.5119 41.918C26.4016 41.8688 26.2828 41.8026 26.2099 41.7127C26.1505 41.6363 26.1505 41.5124 26.125 41.4089C26.2234 41.4021 26.3269 41.3716 26.4203 41.3936C26.5679 41.4276 26.7071 41.5362 26.8513 41.543C27.2417 41.56 27.6354 41.5345 28.0274 41.5345C28.4347 41.5345 28.8522 41.4904 29.2459 41.565C30.1318 41.7297 30.9684 41.5752 31.7932 41.2833C31.9527 41.2273 32.0936 41.2256 32.1377 41.3767C32.1581 41.4496 32.041 41.6244 31.951 41.6567C31.3163 41.8824 30.668 42.0538 29.9909 42.0827V42.0793Z" fill="black"/>
<path d="M31.1632 39.6508C30.9613 39.5796 30.7169 39.5049 30.4844 39.4099C30.1433 39.2707 29.8259 39.1977 29.4696 39.4099C29.3491 39.4811 29.1081 39.4031 28.9452 39.3369C28.6821 39.2283 28.4547 39.2792 28.2137 39.3878C27.9761 39.4947 27.7318 39.6033 27.4789 39.6559C27.299 39.6933 27.0988 39.6474 26.9121 39.6135C26.8578 39.6033 26.8154 39.5134 26.7695 39.4608C26.8272 39.4082 26.8968 39.3046 26.9443 39.3131C27.4534 39.4116 27.8455 39.1078 28.2799 38.95C28.5786 38.8413 28.8705 38.7989 29.1811 38.9347C29.2642 38.9703 29.4085 38.9313 29.4984 38.8787C29.8769 38.6564 30.2383 38.709 30.5947 38.9177C30.8747 39.0789 31.1361 39.2775 31.4823 39.2826C31.5281 39.2826 31.6045 39.3827 31.6096 39.4387C31.613 39.4862 31.54 39.5609 31.484 39.5864C31.4025 39.6237 31.3058 39.6271 31.1666 39.6542L31.1632 39.6508Z" fill="black"/>
<path d="M25.7383 37.0425C25.7417 37.0238 25.7332 36.9729 25.7553 36.9508C25.813 36.8931 25.8791 36.8286 25.9538 36.8066C25.9793 36.7998 26.0709 36.9067 26.0777 36.9678C26.1184 37.3123 26.2321 37.3921 26.5665 37.3174C26.8889 37.2461 27.2113 37.1681 27.5389 37.1324C27.9037 37.0917 28.2194 37.2461 28.4824 37.4922C28.5317 37.538 28.5333 37.6331 28.5571 37.706C28.4841 37.7162 28.3976 37.7586 28.3416 37.7332C27.9224 37.5363 27.5049 37.577 27.0756 37.6908C26.877 37.7451 26.6683 37.7841 26.4629 37.7875C26.0777 37.7943 25.7417 37.443 25.7383 37.0408V37.0425Z" fill="black"/>
<path d="M32.3161 36.6096C32.3127 37.0288 32.0989 37.2935 31.6152 37.4005C31.3233 37.4649 31.0195 37.47 30.7191 37.4972C30.5274 37.5142 30.3356 37.5345 30.1421 37.5294C30.0624 37.5294 29.986 37.4683 29.9062 37.4361C29.9623 37.3699 30.0064 37.263 30.0743 37.246C30.3034 37.1849 30.541 37.1527 30.7768 37.117C31.011 37.0814 31.2554 37.0763 31.4811 37.0135C31.7136 36.949 31.8935 36.8014 31.9071 36.5248C31.9088 36.479 31.919 36.4196 31.9478 36.3941C32.0191 36.3364 32.1006 36.2736 32.1871 36.2583C32.216 36.2532 32.2787 36.3771 32.3076 36.4501C32.3263 36.4959 32.311 36.557 32.311 36.6113L32.3161 36.6096Z" fill="black"/>
<path d="M31.9178 32.5163C31.821 32.4383 31.7022 32.3772 31.631 32.2821C31.261 31.7866 31.0149 31.235 30.9538 30.6122C30.947 30.546 30.9912 30.4765 31.0115 30.4086C31.0811 30.4476 31.1711 30.4697 31.2135 30.5274C31.2695 30.6054 31.2831 30.7123 31.3221 30.804C31.502 31.2198 31.6887 31.6322 31.8635 32.0496C31.9178 32.1803 31.95 32.3212 31.9907 32.4569C31.9653 32.4773 31.9398 32.4977 31.9144 32.518L31.9178 32.5163Z" fill="black"/>
<path d="M29.9807 38.2422C30.0113 38.473 29.8925 38.6206 29.7194 38.6257C29.492 38.6325 29.2595 38.5595 29.0321 38.5086C29.0083 38.5035 28.9761 38.4017 28.993 38.3813C29.0236 38.3423 29.0881 38.3084 29.139 38.3084C29.2764 38.3084 29.4156 38.3423 29.5531 38.3338C29.6888 38.3253 29.8212 38.2795 29.9824 38.2439L29.9807 38.2422Z" fill="black"/>
</g>
<defs>
<clipPath id="clip0_599_38">
<rect width="59.3973" height="70" fill="white"/>
</clipPath>
</defs>
</svg>
