<svg width="191" height="71" viewBox="0 0 191 71" fill="none" xmlns="http://www.w3.org/2000/svg">
<path d="M33.6441 9.56982H41.9704L29.2255 40.2213H21.5935L6.17578 9.56982H14.7684L25.4903 32.7928H25.5959L33.6441 9.56982Z" fill="black"/>
<path d="M73.865 40.2213H65.8711V9.56982H73.865V40.2213Z" fill="black"/>
<path d="M112.766 34.6646H131.266V40.2166H104.773V9.56982H112.766V34.6646Z" fill="black"/>
<path d="M166.701 15.9325H166.807L171.996 29.17H161.754L166.701 15.9325ZM159.619 34.4522H174.238L176.494 40.2213H185.196L171.452 9.56982H162.216L148.789 40.2213H157.224L159.619 34.4522Z" fill="black"/>
<path d="M45.3832 56.2285C45.1681 55.9654 44.898 55.7527 44.5918 55.6053C44.2856 55.458 43.9508 55.3797 43.6111 55.3758C42.1053 55.3758 41.2402 56.7595 41.2402 58.1458C41.2402 59.4962 42.1379 60.8495 43.6002 60.8495C43.9402 60.8387 44.2743 60.7574 44.5812 60.6107C44.8882 60.464 45.1612 60.255 45.3832 59.9972V61.8625C44.8187 62.1585 44.1945 62.3228 43.5575 62.3432C41.2946 62.3432 39.625 60.3924 39.625 58.1761C39.625 55.8985 41.2294 53.8818 43.5885 53.8818C44.2166 53.8859 44.8336 54.0475 45.3832 54.3516V56.2285Z" fill="black"/>
<path d="M58.9843 60.7642H61.7613V62.134H57.4219V54.0912H58.9844L58.9843 60.7642Z" fill="black"/>
<path d="M93.4884 62.134H91.9229V55.4619H90.0234V54.0919H95.3879V55.4618H93.4884V62.134Z" fill="black"/>
<path d="M111.682 57.2545V54.0912H113.244V62.134H111.682V58.5371H108.762V62.1341H107.199V54.0912H108.762V57.2545H111.682Z" fill="black"/>
<path d="M127.687 55.4619V57.22H130.182V58.5883H127.687V60.7642H130.28V62.134H126.121V54.0919H130.28V55.4618L127.687 55.4619Z" fill="black"/>
<path d="M147.407 55.8632C147.277 55.6612 147.098 55.4949 146.887 55.3796C146.676 55.2642 146.439 55.2034 146.199 55.2028C145.949 55.1954 145.706 55.2858 145.521 55.4547C145.337 55.6236 145.226 55.8578 145.211 56.1075C145.211 57.4602 148.407 56.8969 148.407 59.5923C148.407 61.2001 147.407 62.3417 145.758 62.3417C144.646 62.3417 143.838 61.7022 143.285 60.7734L144.296 59.7829C144.391 60.102 144.581 60.3848 144.84 60.594C145.099 60.8032 145.415 60.929 145.747 60.9547C145.893 60.951 146.037 60.9175 146.17 60.8563C146.302 60.7951 146.421 60.7075 146.519 60.5989C146.617 60.4903 146.692 60.3629 146.739 60.2244C146.785 60.086 146.804 59.9395 146.792 59.7937C146.792 58.9628 146.017 58.7282 145.382 58.4822C144.349 58.0578 143.594 57.5347 143.594 56.2899C143.585 55.9763 143.639 55.664 143.753 55.3716C143.866 55.0792 144.038 54.8127 144.257 54.588C144.476 54.3633 144.738 54.185 145.027 54.0636C145.316 53.9423 145.627 53.8805 145.941 53.8818C146.76 53.8968 147.544 54.2157 148.14 54.7764L147.407 55.8632Z" fill="black"/>
<path d="M75.7525 62.3431C78.1039 62.3431 79.7316 60.4025 79.7316 58.1016C79.7316 55.8552 78.1039 53.8818 75.7525 53.8818C73.3995 53.8818 71.7734 55.855 71.7734 58.1016C71.7734 60.4025 73.3995 62.3431 75.7525 62.3431ZM78.1723 58.1127C78.1738 58.138 78.1753 58.164 78.1753 58.1892C78.1858 58.7957 77.9885 59.3875 77.6161 59.8663C77.2437 60.3451 76.7187 60.6821 76.1284 60.8213C76.0052 60.8505 75.8791 60.8657 75.7525 60.8668C75.6259 60.866 75.4998 60.8508 75.3767 60.8213C74.7858 60.6826 74.2602 60.3458 73.8873 59.8669C73.5143 59.3881 73.3164 58.7961 73.3265 58.1892C73.3265 58.164 73.3296 58.138 73.3312 58.1127C73.3296 58.0879 73.3265 58.0603 73.3265 58.0372C73.3164 57.4301 73.5143 56.8378 73.8872 56.3587C74.2601 55.8795 74.7857 55.5424 75.3767 55.4031C75.5001 55.3754 75.626 55.3606 75.7525 55.3588C75.879 55.3608 76.0049 55.3757 76.1284 55.4031C76.7188 55.5428 77.2438 55.8802 77.6162 56.3593C77.9885 56.8384 78.1858 57.4305 78.1753 58.0372C78.1753 58.0604 78.1738 58.0879 78.1723 58.1127Z" fill="black"/>
</svg>
