<svg width="190" height="34" viewBox="0 0 190 34" fill="none" xmlns="http://www.w3.org/2000/svg">
<g clip-path="url(#clip0_599_66)">
<path d="M113.262 17.0837H117.323L115.811 11.444L113.262 17.0837ZM106.954 26.6285C107.158 26.425 107.594 25.7951 107.807 25.4269L117.216 6.93812L121.509 25.1265C121.509 25.1265 122.022 26.4541 122.265 26.6285H120.016C119.861 26.1052 117.584 18.0527 117.584 18.0527H112.788C112.788 18.0527 108.989 26.3959 108.882 26.6285H106.944H106.954ZM125.627 21.357C125.656 27.8301 133.35 28.0432 133.369 20.9888V8.01372H135.521C134.988 8.44009 134.794 10.3878 134.687 11.977C134.648 12.5196 134.271 20.6206 134.222 21.4152C133.641 30.0975 124.009 28.8475 123.563 22.1613C123.515 21.4346 123.35 10.2812 123.301 9.89361C123.253 8.98274 123.04 8.22691 122.652 8.01372H125.598L125.627 21.357ZM137.459 8.06217C153.699 5.68809 149.668 16.8317 144.038 17.9074C144.038 17.9074 150.85 26.2603 151.112 26.6285C151.112 26.5703 150.918 9.92268 150.918 9.92268C150.879 8.57575 150.298 8.02341 150.298 8.02341H160.027V9.92268C160.027 9.92268 157.963 8.90522 153.409 8.87614L153.225 17.0062H160.027V18.1302H153.225V25.5335C153.225 26.1246 153.719 26.0761 154.087 26.0761C158.525 26.0761 161.296 25.0877 161.296 25.0877L160.511 26.8513C160.511 26.8513 151.974 26.861 151.393 26.8513C151.664 27.3068 153.942 29.739 155.424 30.6499C154.697 30.3592 151.635 29.2642 150.521 28.0432C150.162 27.6459 141.974 19.012 141.373 18.3046C149.717 16.7736 146.897 6.99626 140.608 8.64358L139.716 26.6285H137.187C137.381 26.3572 137.536 25.7564 137.604 25.1362L138.05 10.0583C138.04 8.99243 137.778 8.44978 137.478 8.07186M72.3215 26.6575L72.0212 9.58353C72.0212 8.97305 71.6626 8.29474 71.3138 7.9362H74.3565L74.1627 25.5723C74.1336 25.8145 74.4631 26.5897 74.6084 26.6575C74.5697 26.6575 72.3215 26.6575 72.3215 26.6575ZM76.6433 7.9362H79.8895L91.7406 24.2835V7.9362H106.13L107.332 2.47096C107.458 1.73451 107.458 1.28877 107.119 0.862402H110.491L103.34 30.8534C103.165 31.5414 103.214 32.1422 104.367 32.1615C107.913 32.21 115.229 31.5704 118.146 30.5724L116.79 32.9464H100.394C100.656 32.6073 100.888 31.9774 101.121 31.1247L105.762 9.60291C104.008 8.95367 101.857 8.91491 99.8706 8.91491L99.2989 25.2137C99.2989 25.8242 99.3958 26.2699 99.5024 26.6672H97.0023C97.1864 26.1924 97.2349 25.8048 97.264 25.1362L97.138 8.91491H94.0371C93.0197 8.94398 93.2329 9.85485 93.2038 10.2425L92.3995 28.1789L78.843 10.8239V26.6575C78.843 26.6575 77.031 26.6575 77.06 26.6575C77.2248 26.3959 77.4864 25.5819 77.5155 24.9327L78.0193 9.68043L76.6627 7.9362M189.999 8.12031V9.45755C188.196 8.91491 186.936 8.91491 184.911 8.91491L184.31 25.5723C184.291 26.1633 184.349 26.3959 184.465 26.832H182.072C182.208 26.3862 182.285 26.2118 182.324 25.5626L182.217 8.91491H178.836C177.779 8.91491 177.779 10.0002 177.779 10.3975C177.779 10.3975 177.13 27.7041 177.111 28.3533C176.878 28.0142 163.554 10.9983 163.554 10.9983V26.832C163.554 26.832 162.324 26.832 161.946 26.832C162.178 26.3184 162.198 25.7951 162.227 25.1071C162.227 25.1071 162.74 10.3297 162.74 9.86454C162.595 9.66105 161.558 8.32381 161.384 8.12031H164.63L176.481 24.4676V8.12031H189.999ZM62.1663 16.9965H66.0326L64.647 11.6669L62.1663 16.9965ZM61.6818 18.169L56.7979 28.5471C53.5033 35.3011 45.6737 34.8845 40.4022 30.0879L41.2356 27.4231C48.2319 38.7411 59.9569 29.8456 53.7456 21.9675L44.6368 11.1824C38.4254 4.0117 34.6851 11.6088 38.1347 14.3705L43.2511 18.2368C47.0109 20.9016 45.7512 26.58 40.8867 27.0839C38.6386 27.3165 36.0707 26.3281 34.53 25.2719L34.1133 26.706H24.1422C24.3166 26.3862 24.5104 25.7854 24.5104 25.3203L24.4813 8.78893C24.4813 8.48854 24.2972 8.46916 24.1809 8.7211L15.4017 27.5297L11.5256 10.475C11.3997 10.0583 11.138 10.4459 11.138 10.4459C10.4888 11.3471 7.6205 15.3685 7.10693 16.0565C6.72901 16.5701 6.57397 16.9093 6.28327 17.7426C6.13791 18.1593 2.98862 30.8146 2.85296 31.3088C2.72699 31.7546 2.90141 32.6751 3.13397 32.898H0.0234375C0.130029 32.8108 0.633916 32.2197 0.759888 31.7546L3.23087 18.983C3.78321 16.4635 3.07583 13.915 3.07583 13.915C1.54479 4.9904 1.21532 1.14342 0.411043 0.532937H2.99831C3.07583 1.00775 6.0507 15.0778 6.23481 15.7561C6.0507 16.0468 16.1284 0.658909 16.1284 0.658909H18.7351C18.7351 0.658909 17.4269 1.88956 17.1944 2.20933C16.9909 2.48065 13.8513 6.7637 13.4637 7.29665L16.4676 23.4598L22.9697 7.89744H33.7742V9.66105C32.592 9.06995 28.4834 8.35288 26.8554 8.56606L26.7004 16.4151C26.7004 16.8414 26.7004 16.8802 27.088 16.8802H33.7839V17.9558H26.6132L26.3903 25.5432C26.3903 26.0665 26.7682 26.1149 27.0977 26.1343C29.8981 26.2409 32.5435 25.8726 34.4913 25.0199L34.9564 23.3241C37.1076 25.9599 38.8518 26.8998 41.129 26.2312C43.319 25.5916 45.412 22.6071 41.3906 19.8066L37.4758 17.0449C32.059 12.9557 36.6425 4.1086 44.3171 8.53699C44.288 0.833332 54.1041 -3.01365 61.0228 2.86826L60.3445 5.39739C54.2301 -4.535 43.0283 3.63378 48.2028 10.7173L55.5382 20.3008C57.1856 22.3648 57.4666 23.8571 57.4666 23.8571L66.1005 7.3451L70.3932 25.3009C70.5483 25.863 70.8583 26.4444 71.0812 26.6672H68.6102L66.3233 18.1787H61.6624L61.6818 18.169Z" fill="black"/>
</g>
<defs>
<clipPath id="clip0_599_66">
<rect width="190" height="33.6538" fill="white"/>
</clipPath>
</defs>
</svg>
