<svg width="191" height="45" viewBox="0 0 191 45" fill="none" xmlns="http://www.w3.org/2000/svg">
<path fill-rule="evenodd" clip-rule="evenodd" d="M37.8879 37.1971C37.8879 40.1772 35.3985 42.5998 33.5207 42.5998H12.2856L38.9824 0H3.28294V7.05352H5.1178C5.1178 4.07346 7.04924 1.65082 8.92703 1.65082H27.2757L0.417969 44.2614H39.1433V37.2078H37.8879V37.1971Z" fill="black"/>
<path fill-rule="evenodd" clip-rule="evenodd" d="M68.9958 42.8785C71.5818 42.8785 74.1034 41.8066 73.5347 40.8096L68.5666 30.969H51.0978L46.5482 40.8311C46.0654 41.9352 48.0719 42.8678 49.939 42.8678V44.2506H39.8633V42.8678C42.4493 42.8678 44.2734 41.7315 44.606 40.8418L63.5556 0L84.2113 40.8096C84.8658 41.8816 86.808 42.8785 89.9841 42.8785V44.2614H69.0066V42.8785H68.9958ZM51.8704 29.3825L59.4245 12.8207L67.8584 29.3825H51.8704Z" fill="black"/>
<path fill-rule="evenodd" clip-rule="evenodd" d="M92.3867 1.70442C95.4556 1.70442 97.9986 2.49767 97.9986 3.45172C97.9986 11.0412 97.9772 40.7668 97.9986 40.7668C97.9986 41.7851 95.4985 42.9107 92.4189 42.9107V44.2506H112.946V43.0072C109.898 43.0072 107.42 41.7851 107.42 40.7775V1.32923H113.343C119.051 1.32923 123.665 6.05659 123.665 11.4271C123.665 16.7977 119.041 21.1498 113.343 21.1498H109.244C109.244 21.1498 123.129 42.1389 123.14 42.1389C123.687 42.9321 123.955 44.2506 123.955 44.2506H138.924V43.0072C136.048 43.0072 134.535 41.8066 133.698 40.7668L120.339 23.3474C126.756 22.9293 131.724 17.741 131.724 11.5986C131.724 5.45629 126.198 0 119.373 0H92.3867V1.70442Z" fill="black"/>
<path fill-rule="evenodd" clip-rule="evenodd" d="M169.441 42.9214C172.038 42.9214 174.549 41.8066 173.98 40.8096L169.012 30.969H151.543L146.994 40.8311C146.511 41.9352 148.517 43.0072 150.384 43.0072V44.2506H140.309V42.9107C142.895 42.9107 144.719 41.7315 145.051 40.8311L163.99 0L184.646 40.8096C185.3 41.8816 187.243 42.9643 190.419 42.9643V44.2614H169.441V42.9214ZM152.316 29.3825L159.87 12.8207L168.304 29.3825H152.316Z" fill="black"/>
</svg>
