<svg width="189" height="70" viewBox="0 0 189 70" fill="none" xmlns="http://www.w3.org/2000/svg">
<path fill-rule="evenodd" clip-rule="evenodd" d="M174.241 38.6263C176.846 32.8868 181.888 30.3164 187.554 28.207C187.123 30.2115 186.307 31.8228 185.031 33.1646C182.296 36.0402 178.682 37.2011 175.061 38.3639L175.061 38.3641C174.787 38.4519 174.514 38.5398 174.241 38.6284V38.6263ZM144.64 34.5583C145.52 37.4065 146.029 40.2752 144.667 43.1399C143.697 45.1813 141.92 46.3976 140.109 47.5932C139.887 47.7392 139.665 47.8845 139.442 48.0299L139.442 48.03C138.149 48.875 136.848 49.7247 135.696 50.7377C133.3 52.8451 132.855 55.6068 133.815 58.5311C134.791 61.5089 136.919 63.3858 140.045 63.7932C145.014 64.4415 148.991 60.9307 149.045 55.9011C149.057 54.7322 149.393 53.8946 150.393 53.3739C151.43 52.8337 152.481 52.3212 153.551 51.7993L153.551 51.7993L153.551 51.7993L153.551 51.7993C154.022 51.5697 154.497 51.3384 154.975 51.102C156.717 59.0744 152.778 66.6599 145.812 69.1706C137.686 72.097 128.949 66.9913 127.544 58.4344C126.848 54.193 127.464 50.2171 130.512 46.9347C132.194 45.1239 134.369 44.0729 136.542 43.0231C136.833 42.8822 137.125 42.7413 137.415 42.5986C138.517 42.0574 139.608 41.4853 140.654 40.8453C142.987 39.4191 144.376 37.3653 144.638 34.5583H144.64ZM182.77 42.6151C188.438 39.343 189.974 34.4863 188.259 28.9504H188.257C187.623 33.2618 184.715 35.6264 181.063 37.1142C178.041 38.3449 174.882 39.2771 171.731 40.1517C169.526 40.7643 167.305 41.317 165.083 41.8696C162.7 42.4626 160.316 43.0555 157.954 43.7223C154.916 44.5804 152.038 45.881 149.738 48.1694C147.473 50.4249 146.839 53.1579 147.434 56.2509C147.844 54.2856 149.157 53.0364 150.819 52.2236C152.466 51.4169 154.187 50.6636 155.96 50.2274C159.333 49.3973 162.723 48.6386 166.113 47.8799L166.113 47.8799L166.113 47.8798L166.113 47.8798C168.186 47.4158 170.259 46.9519 172.328 46.4716C175.967 45.6258 179.508 44.4981 182.77 42.6151ZM149.853 68.1435L149.855 68.1409C149.881 68.1586 149.91 68.1793 149.941 68.2017C150.022 68.2603 150.119 68.3302 150.224 68.3863C153.145 69.9421 156.235 70.3331 159.466 69.7198C168.586 67.9891 173.454 57.4875 168.931 49.369C168.41 48.4326 167.837 48.1589 166.803 48.4635C166.032 48.6923 165.238 48.8409 164.443 48.9897L164.443 48.9897L164.443 48.9897C164.029 49.067 163.616 49.1444 163.205 49.2332C162.827 49.3154 162.452 49.4158 162.041 49.526L162.041 49.5261L162.041 49.5261C161.835 49.5814 161.619 49.6391 161.39 49.6982L161.52 49.8212C161.78 50.0659 161.95 50.226 162.12 50.3877C165.79 53.8676 165.392 59.7101 161.297 62.6611C159.228 64.1552 156.955 64.3034 154.55 63.8012C154.251 63.7395 153.783 63.7827 153.603 63.9741C152.647 64.9888 151.723 66.0332 150.769 67.1109C150.468 67.4509 150.164 67.7942 149.855 68.1409L149.853 68.1394V68.1435ZM149.143 47.3184C149.143 47.3188 149.143 47.3192 149.143 47.3196H149.141C149.142 47.3192 149.142 47.3188 149.143 47.3184ZM149.128 47.0878C149.134 47.1713 149.139 47.249 149.143 47.3184C149.63 47.0314 150.112 46.7413 150.594 46.4519C151.833 45.7062 153.064 44.9661 154.333 44.3006C154.994 43.9549 155.197 43.5948 155.193 42.8971C155.173 39.3343 155.174 35.7714 155.176 32.2086C155.176 31.318 155.176 30.4275 155.176 29.537V28.434C154.648 28.6068 154.13 28.7808 153.619 28.9527C152.413 29.3581 151.244 29.7512 150.058 30.0865C149.352 30.2861 149.071 30.5331 149.078 31.3192C149.106 34.97 149.103 38.6208 149.1 42.2717C149.099 43.6566 149.097 45.0415 149.098 46.4265C149.098 46.6579 149.114 46.8892 149.128 47.0878Z" fill="#F257A0"/>
<path fill-rule="evenodd" clip-rule="evenodd" d="M127.344 5.58974C127.345 6.07876 127.346 6.57673 127.346 7.08634H127.348C129.668 5.90303 131.888 5.90097 134.224 6.69122C134.224 6.21879 134.225 5.75509 134.226 5.29811C134.229 3.7844 134.232 2.34436 134.202 0.904322C134.198 0.690297 133.919 0.340449 133.716 0.295175C131.794 -0.132875 129.863 -0.0978897 127.961 0.416593C127.717 0.482446 127.379 0.82612 127.373 1.04838C127.337 2.52957 127.34 4.01316 127.344 5.58974ZM138.94 23.3951C139.32 19.8493 136.442 16.178 132.852 15.6038C129.998 15.147 127.258 15.3651 125.452 18.0672C124.989 18.7604 124.631 19.5236 124.272 20.2874L124.272 20.2874C124.091 20.6731 123.91 21.059 123.715 21.436C121.142 26.408 117.647 28.1016 112.159 27.0397C111.87 26.9842 111.583 26.9142 111.281 26.7064C111.351 26.6896 111.42 26.6726 111.49 26.6555L111.49 26.6555C111.66 26.6138 111.829 26.5721 112.001 26.5355C114.272 26.0499 115.889 24.7534 116.765 22.5884C117.175 21.5759 117.563 20.547 117.877 19.4995C119.766 13.1775 125.68 8.90321 131.992 9.3292C138.76 9.78606 144.073 14.7025 145.056 21.4154C145.355 23.461 145.39 23.5145 147.353 23.496C150.638 23.4631 153.071 21.9628 154.455 18.9891C155.842 16.0113 155.372 13.1878 153.348 10.6175C153.263 10.5104 153.179 10.4034 153.101 10.2944C153.083 10.2676 153.083 10.2285 153.085 10.2367C154.072 9.26348 155.054 8.29722 156.051 7.31492L156.052 7.31464L157.36 6.02622C159.311 7.96479 160.603 10.3849 161.067 13.1775C161.888 18.1268 160.478 22.4094 156.835 25.8708C154.722 27.8794 152.041 28.8631 149.239 29.1429C145.848 29.4801 142.427 29.5564 139.014 29.6325L139.014 29.6326C138.677 29.6401 138.34 29.6476 138.003 29.6554C136.859 29.6812 135.714 29.632 134.569 29.5829C133.527 29.5381 132.485 29.4934 131.445 29.5051C125.752 29.5669 121.994 34.8702 123.996 40.1055C125.21 43.2871 127.693 44.9108 130.922 45.1454C129.699 46.8432 128.423 48.6151 126.956 50.6524C126.657 50.4975 126.329 50.3415 125.984 50.1778L125.984 50.1778L125.984 50.1778C125.176 49.7938 124.28 49.368 123.469 48.8167C118.631 45.5302 116.455 39.7639 117.79 34.0367C119.058 28.5976 123.647 24.3685 129.274 23.5413C130.199 23.4053 131.147 23.4056 132.09 23.4058H132.09C132.346 23.4059 132.601 23.406 132.856 23.4034C134.277 23.3888 135.699 23.3918 137.138 23.3947H137.139C137.735 23.396 138.335 23.3972 138.938 23.3972L138.94 23.3951ZM159.465 32.4731C159.362 31.9874 159.264 31.5195 159.168 31.064L159.167 31.0636C158.949 30.0275 158.744 29.0555 158.536 28.0836C158.433 27.6 158.519 27.2974 159.028 27.0299C162.616 25.1346 164.415 21.0948 163.478 17.1539C163.463 17.0926 163.461 17.0281 163.456 16.9283L163.456 16.9281C163.454 16.8704 163.451 16.8009 163.445 16.7135C163.792 16.641 164.14 16.5673 164.488 16.4936C165.788 16.2181 167.093 15.9415 168.407 15.7175C168.58 15.6887 168.994 16.1414 169.035 16.411C170.091 23.1631 168.36 28.5425 160.971 31.8619C160.67 31.9971 160.363 32.118 160.023 32.2516L160.023 32.2517C159.846 32.3215 159.659 32.3947 159.461 32.4752L159.465 32.4731Z" fill="#475467"/>
<path d="M17.9067 58.0086C17.3421 57.6778 16.7277 57.5124 16.0606 57.5124H11.1442L13.8576 56.0314L12.3819 53.8391L5.75186 57.5124V60.4519H16.0606C16.2624 60.4519 16.4356 60.5241 16.5831 60.667C16.7292 60.8113 16.803 60.9812 16.803 61.1767C16.803 61.3827 16.7292 61.5571 16.5831 61.7014C16.4371 61.8458 16.2624 61.9164 16.0606 61.9164H5.02456C4.81826 61.9164 4.64359 61.8443 4.49903 61.7014C4.35447 61.5586 4.2837 61.3827 4.2837 61.1767V57.5109L1.33984 58.2371V61.1767C1.33984 61.8428 1.50548 62.4577 1.83676 63.0201C2.16804 63.5839 2.61526 64.0305 3.17994 64.3613C3.74311 64.6921 4.35899 64.8575 5.02606 64.8575H16.0606C16.7277 64.8575 17.3436 64.6921 17.9067 64.3613C18.4699 64.0305 18.9187 63.5839 19.2529 63.0201C19.5857 62.4562 19.7529 61.8428 19.7529 61.1767C19.7529 60.5106 19.5857 59.9046 19.2529 59.3438C18.9187 58.7829 18.4699 58.3379 17.9067 58.0071V58.0086Z" fill="#475467"/>
<path d="M32.5245 53.8333H28.0898V56.033H32.5245V53.8333Z" fill="#475467"/>
<path d="M43.7564 61.1797C43.7564 61.3857 43.6827 61.5601 43.5366 61.7044C43.3905 61.8488 43.2143 61.9195 43.0081 61.9195C42.8018 61.9195 42.6346 61.8473 42.4931 61.7044C42.3515 61.5601 42.2808 61.3857 42.2808 61.1797V58.2402H39.3369V61.1797C39.3369 61.3857 39.2646 61.5601 39.1216 61.7044C38.977 61.8488 38.8023 61.9195 38.596 61.9195C38.3897 61.9195 38.2226 61.8473 38.0811 61.7044C37.9395 61.5601 37.8687 61.3857 37.8687 61.1797V58.2402H34.9249V61.1797C34.9249 61.3857 34.8541 61.5601 34.7126 61.7044C34.571 61.8488 34.3948 61.9195 34.184 61.9195H33.2339C33.0321 61.9195 32.8604 61.8473 32.7189 61.7044C32.5773 61.5601 32.5065 61.3857 32.5065 61.1797V57.5139L29.5627 58.2402V61.1797C29.5627 61.3857 29.4889 61.5601 29.3398 61.7044C29.1908 61.8488 29.0161 61.9195 28.8143 61.9195H28.0795V57.5274H24.3857C23.7232 57.5274 23.1103 57.6928 22.5471 58.0236C21.9825 58.3544 21.5352 58.8025 21.2039 59.3679C20.8727 59.9332 20.707 60.5467 20.707 61.2083C20.707 61.9074 20.8832 62.5359 21.2356 63.0923C21.5879 63.6486 22.0216 64.0801 22.5351 64.3899C23.0486 64.6996 23.5259 64.856 23.9671 64.8605H23.9957L21.3606 66.5926L22.9944 69.0435L28.0765 65.6724V64.8605H28.8113C29.2239 64.8605 29.6169 64.7973 29.9918 64.6695C30.3668 64.5432 30.7116 64.3643 31.0278 64.1343C31.3395 64.3643 31.6844 64.5432 32.0608 64.6695C32.4373 64.7958 32.8273 64.8605 33.2308 64.8605H34.181C34.5891 64.8605 34.9806 64.7973 35.354 64.6695C35.729 64.5432 36.0738 64.3643 36.39 64.1343C36.6972 64.3643 37.0405 64.5432 37.42 64.6695C37.7995 64.7958 38.191 64.8605 38.593 64.8605C38.9951 64.8605 39.3926 64.7973 39.7706 64.6695C40.147 64.5432 40.4934 64.3643 40.8111 64.1343C41.1273 64.3643 41.4721 64.5432 41.8441 64.6695C42.216 64.7958 42.603 64.8605 43.0066 64.8605C43.6736 64.8605 44.2895 64.6951 44.8527 64.3643C45.4158 64.0335 45.8646 63.5869 46.1959 63.0231C46.5271 62.4592 46.6928 61.8458 46.6928 61.1797V57.5139L43.7549 58.2402V61.1797H43.7564ZM25.1326 61.9195H24.3842C24.1779 61.9195 24.0032 61.8473 23.8617 61.7044C23.7202 61.5601 23.6494 61.3857 23.6494 61.1797C23.6494 60.9737 23.7217 60.8053 23.8647 60.6625C24.0093 60.5181 24.1809 60.4474 24.3827 60.4474H25.1311V61.921L25.1326 61.9195Z" fill="#475467"/>
<path d="M47.9961 64.859H50.9415V53.8391L47.9961 54.5729V64.859Z" fill="#475467"/>
<path d="M70.3887 58.0086C69.824 57.6778 69.2097 57.5124 68.5426 57.5124H63.6261L66.3396 56.0314L64.8639 53.8391L58.2338 57.5124V60.4519H68.5426C68.7444 60.4519 68.9175 60.5241 69.0651 60.667C69.2127 60.8098 69.285 60.9812 69.285 61.1767C69.285 61.3827 69.2112 61.5571 69.0651 61.7014C68.9191 61.8458 68.7444 61.9164 68.5426 61.9164H57.5065C57.3002 61.9164 57.1256 61.8443 56.981 61.7014C56.8364 61.5571 56.7642 61.3827 56.7642 61.1767V57.5109L53.8203 58.2371V61.1767C53.8203 61.8428 53.9859 62.4577 54.3172 63.0201C54.6485 63.5824 55.0957 64.0305 55.6604 64.3613C56.2236 64.6921 56.8395 64.8575 57.5065 64.8575H68.5426C69.2097 64.8575 69.8256 64.6921 70.3887 64.3613C70.9519 64.0305 71.4006 63.5839 71.7349 63.0201C72.0692 62.4562 72.2348 61.8428 72.2348 61.1767C72.2348 60.5106 72.0677 59.9046 71.7349 59.3438C71.4021 58.7829 70.9519 58.3379 70.3887 58.0071V58.0086Z" fill="#475467"/>
<path d="M86.0253 53.8385L83.8223 53.1138V54.5798H81.6133V56.7795H86.0253V53.8385Z" fill="#475467"/>
<path d="M86.7992 61.1796C86.7992 61.3856 86.7254 61.5601 86.5794 61.7044C86.4333 61.8487 86.2571 61.9194 86.0508 61.9194C85.8445 61.9194 85.6759 61.8472 85.5328 61.7044C85.3898 61.5616 85.3175 61.3856 85.3175 61.1796V58.2401H82.3736V61.1796C82.3736 61.3856 82.3029 61.5601 82.1613 61.7044C82.0198 61.8487 81.8451 61.9194 81.6388 61.9194C81.4325 61.9194 81.2654 61.8472 81.1238 61.7044C80.9823 61.5601 80.9115 61.3856 80.9115 61.1796V58.2401H77.9526V61.1796C77.9526 61.3856 77.8818 61.5601 77.7403 61.7044C77.5987 61.8487 77.4271 61.9194 77.2253 61.9194C77.019 61.9194 76.8428 61.8472 76.6967 61.7044C76.5507 61.5601 76.4769 61.3856 76.4769 61.1796V53.8406L73.5391 54.5743V61.1811C73.5391 61.8472 73.7047 62.4622 74.036 63.0246C74.3673 63.5869 74.8145 64.035 75.3792 64.3658C75.9303 64.689 76.5326 64.8529 77.1816 64.8605H77.2253C77.6288 64.8605 78.0158 64.7973 78.3878 64.6695C78.7597 64.5417 79.1045 64.3643 79.4208 64.1342C79.737 64.3643 80.0848 64.5432 80.4643 64.6695C80.8437 64.7958 81.2353 64.8605 81.6373 64.8605C82.0394 64.8605 82.4324 64.7973 82.8103 64.6695C83.1883 64.5417 83.5376 64.3643 83.8539 64.1342C84.1656 64.3643 84.5089 64.5432 84.8838 64.6695C85.2588 64.7958 85.6473 64.8605 86.0508 64.8605C86.7134 64.8605 87.3262 64.6951 87.8894 64.3643C88.4526 64.0335 88.9013 63.5869 89.2326 63.0231C89.5639 62.4592 89.7295 61.8457 89.7295 61.1796V57.5139L86.7992 58.2401V61.1796Z" fill="#475467"/>
<path d="M100.456 58.2384V61.178C100.456 61.384 100.385 61.5584 100.243 61.7027C100.102 61.8471 99.9271 61.9177 99.7208 61.9177H98.0584V57.5257H94.3662C93.7036 57.5257 93.0908 57.6911 92.5276 58.0219C91.9629 58.3527 91.5157 58.8008 91.1844 59.3661C90.8531 59.9315 90.6875 60.545 90.6875 61.2066C90.6875 61.9057 90.8637 62.5342 91.216 63.0906C91.5684 63.6469 92.0021 64.0784 92.5156 64.3882C93.029 64.6979 93.5064 64.8543 93.9476 64.8588H93.9762L91.341 66.5909L92.9748 69.0418L98.0569 65.6707V64.8588H99.7193C100.386 64.8588 101.002 64.6934 101.565 64.3626C102.129 64.0318 102.576 63.5852 102.904 63.0214C103.232 62.4575 103.397 61.8441 103.397 61.178V57.5122L100.453 58.2384H100.456ZM95.1146 61.9193H94.3662C94.1599 61.9193 93.9852 61.8471 93.8437 61.7042C93.7021 61.5614 93.6314 61.3855 93.6314 61.1795C93.6314 60.9735 93.7036 60.8051 93.8467 60.6622C93.9897 60.5194 94.1629 60.4472 94.3647 60.4472H95.1131V61.9208L95.1146 61.9193Z" fill="#475467"/>
<path d="M98.9727 68.5264H101.176V70L103.379 69.2662V66.3267H98.9727V68.5264Z" fill="#475467"/>
<path d="M83.3684 2.62979L81.9258 0L73.3984 4.71529L74.8425 7.32553L83.3684 2.62979Z" fill="#F257A0"/>
<path d="M103.271 19.279C102.374 17.7528 101.16 16.5454 99.6319 15.6553C98.1035 14.7652 96.4351 14.3201 94.6266 14.3201H81.3393L88.6365 10.307L84.6566 4.36478L66.6863 14.3201V22.2892H94.6281C95.1747 22.2892 95.643 22.4846 96.033 22.8741C96.423 23.2635 96.6188 23.7251 96.6188 24.2574C96.6188 24.8152 96.423 25.2904 96.033 25.6798C95.643 26.0692 95.1747 26.2647 94.6281 26.2647H64.7167C64.1701 26.2647 63.7018 26.0692 63.3118 25.6798C62.9218 25.2904 62.726 24.8167 62.726 24.2574V4.32568L54.7257 6.31344V36.199C54.7257 36.7568 54.5329 37.2319 54.1505 37.6214C53.7665 38.0108 53.3012 38.2063 52.7561 38.2063H48.7567C48.198 38.2063 47.7222 38.0108 47.3322 37.6214C46.9422 37.2319 46.7464 36.7568 46.7464 36.199V22.2681L38.7656 24.2363V36.199C38.7656 38.0048 39.2144 39.6708 40.1118 41.1969C41.0093 42.7231 42.2215 43.935 43.7514 44.8311C45.2797 45.7273 46.9482 46.1754 48.7567 46.1754H52.7561C54.5646 46.1754 56.2285 45.7273 57.7509 44.8311C59.2732 43.935 60.4824 42.7231 61.3799 41.1969C62.2773 39.6708 62.726 38.0048 62.726 36.199V34.0308C63.372 34.1631 64.0361 34.2308 64.7167 34.2308H94.6281C96.4366 34.2308 98.1035 33.7827 99.6334 32.8865C101.162 31.9904 102.375 30.78 103.273 29.2523C104.17 27.7262 104.619 26.0602 104.619 24.2544C104.619 22.4486 104.17 20.8021 103.273 19.276L103.271 19.279Z" fill="#F257A0"/>
<path d="M13.9902 1.4165H7.98047V7.35873H13.9902V1.4165Z" fill="#F257A0"/>
<path d="M35.3748 35.1814H23.3555V41.1432H35.3748V35.1814Z" fill="#F257A0"/>
<path d="M28.4673 13.2814V21.2505C28.4673 21.8084 28.2746 22.2835 27.8921 22.6729C27.5081 23.0624 27.0368 23.2578 26.4781 23.2578H21.9713V21.2505C21.9713 19.4582 21.5255 17.7983 20.6341 16.2721C19.7427 14.7459 18.5335 13.5386 17.0051 12.6484C15.4767 11.7583 13.8143 11.3132 12.0194 11.3132H3.99943L2.00875 19.2823H12.0194C12.5524 19.2823 13.0147 19.4778 13.4047 19.8672C13.7947 20.2566 13.9905 20.7182 13.9905 21.2505V23.2578H9.99104C8.18256 23.2578 6.51413 23.7089 4.98573 24.6126C3.45734 25.5147 2.24365 26.7296 1.34619 28.2558C0.448731 29.7804 0 31.4464 0 33.2522C0 35.0581 0.448731 36.721 1.34619 38.2397C2.24365 39.7598 3.45583 40.9642 4.98573 41.8543C6.51413 42.7445 8.18256 43.1895 9.99104 43.1895H20.0002L21.9713 35.2204H9.98953C9.43088 35.2204 8.95504 35.028 8.56504 34.6461C8.17503 34.2627 7.97928 33.798 7.97928 33.2522C7.97928 32.7064 8.17503 32.2163 8.56504 31.8208C8.95504 31.4239 9.42937 31.2269 9.98953 31.2269H26.4766C28.2851 31.2269 29.9535 30.7788 31.4819 29.8827C33.0103 28.9865 34.2195 27.7761 35.1109 26.2485C36.0024 24.7223 36.4481 23.0563 36.4481 21.2505V11.3132L28.4673 13.2814Z" fill="#F257A0"/>
</svg>
