<svg width="991" height="669" viewBox="0 0 991 669" fill="none" xmlns="http://www.w3.org/2000/svg">
<g opacity="0.08">
<g filter="url(#filter0_b_562_1661)">
<mask id="path-1-inside-1_562_1661" fill="white">
<path d="M733 12C733 5.37258 738.373 0 745 0H991V114H745C738.373 114 733 108.627 733 102V12Z"/>
</mask>
<path d="M733 12C733 5.37258 738.373 0 745 0H991V114H745C738.373 114 733 108.627 733 102V12Z" fill="white" style="mix-blend-mode:soft-light"/>
<path d="M731 12C731 4.26801 737.268 -2 745 -2H991V2H745C739.477 2 735 6.47715 735 12H731ZM991 116H745C737.268 116 731 109.732 731 102H735C735 107.523 739.477 112 745 112H991V116ZM745 116C737.268 116 731 109.732 731 102V12C731 4.26801 737.268 -2 745 -2V2C739.477 2 735 6.47715 735 12V102C735 107.523 739.477 112 745 112V116ZM991 0V114V0Z" fill="#F8F8F8" fill-opacity="0.15" mask="url(#path-1-inside-1_562_1661)"/>
</g>
<path fill-rule="evenodd" clip-rule="evenodd" d="M906.039 505.857C919.587 476.012 945.807 462.646 975.27 451.677C973.03 462.1 968.784 470.479 962.149 477.456C947.928 492.41 929.132 498.446 910.307 504.493L910.307 504.493C908.884 504.95 907.46 505.407 906.039 505.868V505.857ZM752.118 484.704C756.694 499.514 759.34 514.432 752.257 529.328C747.211 539.943 737.973 546.268 728.554 552.485C727.402 553.244 726.245 554 725.087 554.757C718.361 559.15 711.597 563.569 705.608 568.837C693.149 579.795 690.834 594.156 695.826 609.362C700.904 624.847 711.966 634.606 728.223 636.725C754.06 640.096 774.744 621.84 775.021 595.686C775.085 589.608 776.834 585.252 782.029 582.545C787.423 579.736 792.889 577.071 798.455 574.357C800.903 573.163 803.371 571.96 805.86 570.731C814.917 612.187 794.436 651.632 758.209 664.688C715.956 679.905 670.523 653.355 663.216 608.859C659.6 586.804 662.8 566.129 678.652 549.061C687.399 539.645 698.708 534.18 710.006 528.72L710.007 528.72C711.523 527.988 713.038 527.255 714.548 526.513C720.276 523.699 725.951 520.724 731.391 517.396C743.52 509.98 750.742 499.3 752.107 484.704H752.118ZM950.391 526.599C979.865 509.584 987.855 484.329 978.937 455.543H978.927C975.63 477.962 960.504 490.258 941.516 497.995C925.803 504.394 909.375 509.241 892.99 513.79C881.525 516.975 869.972 519.849 858.42 522.723C846.026 525.806 833.633 528.889 821.348 532.356C805.55 536.819 790.583 543.582 778.625 555.482C766.849 567.21 763.552 581.421 766.646 597.505C768.779 587.286 775.607 580.79 784.247 576.563C792.813 572.368 801.763 568.451 810.98 566.183C828.521 561.866 846.149 557.921 863.776 553.976L863.777 553.976L863.778 553.975C874.557 551.563 885.336 549.15 896.094 546.653C915.018 542.255 933.43 536.391 950.391 526.599ZM779.222 659.346L779.234 659.333C779.369 659.425 779.519 659.533 779.681 659.649C780.104 659.954 780.609 660.317 781.153 660.609C796.343 668.699 812.408 670.733 829.209 667.544C876.636 658.544 901.95 603.936 878.429 561.719C875.719 556.85 872.743 555.427 867.366 557.011C863.353 558.2 859.223 558.973 855.091 559.747C852.941 560.149 850.791 560.551 848.656 561.013C846.688 561.44 844.739 561.963 842.602 562.536C841.529 562.824 840.409 563.124 839.215 563.431L839.887 564.064C841.242 565.34 842.127 566.174 843.013 567.016C862.097 585.112 860.027 615.493 838.735 630.838C827.972 638.607 816.152 639.378 803.65 636.767C802.093 636.446 799.661 636.671 798.722 637.666C793.754 642.942 788.946 648.373 783.985 653.977L783.984 653.978L783.981 653.981C782.417 655.748 780.838 657.531 779.234 659.333L779.222 659.325V659.346ZM775.533 551.056C775.533 551.058 775.533 551.06 775.533 551.062H775.522C775.526 551.06 775.529 551.058 775.533 551.056ZM775.455 549.857C775.485 550.291 775.513 550.695 775.533 551.056C778.063 549.564 780.573 548.055 783.075 546.55C789.522 542.673 795.922 538.824 802.521 535.364C805.956 533.566 807.012 531.693 806.991 528.065C806.888 509.538 806.895 491.011 806.902 472.484C806.904 467.853 806.906 463.223 806.906 458.593V452.857C804.158 453.756 801.466 454.661 798.808 455.554C792.537 457.662 786.456 459.707 780.29 461.45C776.621 462.488 775.159 463.772 775.191 467.86C775.338 486.845 775.323 505.829 775.307 524.813C775.301 532.015 775.295 539.216 775.298 546.418C775.298 547.621 775.382 548.825 775.455 549.857Z" fill="#98A2B3"/>
<path fill-rule="evenodd" clip-rule="evenodd" d="M662.181 334.067C662.187 336.609 662.193 339.199 662.193 341.849H662.204C674.269 335.696 685.811 335.685 697.961 339.794C697.961 337.338 697.965 334.927 697.97 332.55C697.985 324.679 697.999 317.191 697.844 309.702C697.822 308.59 696.371 306.77 695.315 306.535C685.32 304.309 675.282 304.491 665.393 307.166C664.124 307.509 662.364 309.296 662.332 310.452C662.145 318.154 662.162 325.868 662.181 334.067ZM722.484 426.655C724.458 408.217 709.492 389.126 690.824 386.14C675.985 383.764 661.734 384.899 652.346 398.949C649.937 402.554 648.073 406.523 646.208 410.494L646.208 410.495C645.266 412.5 644.324 414.507 643.311 416.467C629.934 442.321 611.757 451.128 583.222 445.607C581.718 445.318 580.224 444.954 578.656 443.873C579.018 443.786 579.379 443.697 579.74 443.609L579.741 443.609C580.624 443.392 581.507 443.175 582.4 442.985C594.209 440.459 602.615 433.718 607.17 422.46C609.304 417.195 611.32 411.844 612.952 406.397C622.776 373.523 653.531 351.297 686.354 353.512C721.546 355.888 749.174 381.453 754.284 416.36C755.841 426.997 756.023 427.275 766.231 427.179C783.31 427.008 795.961 419.207 803.162 403.743C810.373 388.259 807.93 373.577 797.401 360.211C796.964 359.654 796.527 359.098 796.121 358.531C796.025 358.392 796.025 358.188 796.036 358.231C801.169 353.171 806.27 348.148 811.457 343.042C813.708 340.826 815.974 338.594 818.267 336.336C828.411 346.417 835.132 359.002 837.543 373.523C841.81 399.26 834.481 421.529 815.536 439.528C804.548 449.973 790.606 455.088 776.035 456.543C758.405 458.296 740.616 458.693 722.869 459.089H722.868L722.844 459.09C721.098 459.129 719.354 459.168 717.609 459.208C711.66 459.342 705.706 459.087 699.751 458.831H699.751C694.334 458.598 688.918 458.366 683.506 458.427C653.904 458.748 634.361 486.325 644.773 513.549C651.088 530.093 663.995 538.536 680.786 539.756C674.428 548.585 667.793 557.798 660.166 568.393C658.61 567.587 656.903 566.775 655.112 565.925C650.909 563.928 646.25 561.714 642.031 558.847C616.877 541.757 605.559 511.772 612.504 481.991C619.096 453.707 642.959 431.716 672.22 427.415C677.029 426.707 681.957 426.709 686.863 426.71H686.863H686.864C688.193 426.711 689.521 426.711 690.845 426.698C698.235 426.622 705.629 426.637 713.112 426.653H713.114L713.124 426.653C716.223 426.659 719.338 426.665 722.474 426.665L722.484 426.655ZM827.674 466.578L827.666 466.537L827.665 466.534C826.528 461.145 825.462 456.09 824.38 451.035C823.846 448.52 824.294 446.947 826.94 445.556C845.597 435.7 854.952 414.693 850.077 394.2C850.003 393.882 849.989 393.546 849.966 393.027V393.027V393.027C849.954 392.726 849.938 392.365 849.907 391.91C851.711 391.533 853.516 391.151 855.323 390.768L855.33 390.767L855.331 390.766C862.092 389.334 868.878 387.896 875.711 386.731C876.607 386.581 878.762 388.935 878.975 390.337C884.469 425.448 875.466 453.421 837.042 470.682C835.48 471.385 833.881 472.014 832.115 472.708C831.192 473.071 830.223 473.452 829.191 473.871L829.212 473.86C828.681 471.351 828.171 468.933 827.674 466.578Z" fill="#98A2B3"/>
<path d="M93.1206 606.645C90.1842 604.925 86.9895 604.065 83.5207 604.065H57.9551L72.0651 596.363L64.3915 584.964L29.9152 604.065V619.35H83.5207C84.57 619.35 85.4705 619.726 86.2378 620.468C86.9973 621.219 87.381 622.102 87.381 623.119C87.381 624.19 86.9973 625.097 86.2378 625.848C85.4783 626.598 84.57 626.966 83.5207 626.966H26.1332C25.0604 626.966 24.1521 626.59 23.4004 625.848C22.6487 625.105 22.2807 624.19 22.2807 623.119V604.057L6.97266 607.833V623.119C6.97266 626.583 7.83398 629.78 9.55662 632.705C11.2793 635.637 13.6048 637.959 16.5412 639.679C19.4697 641.399 22.6722 642.259 26.141 642.259H83.5207C86.9895 642.259 90.1921 641.399 93.1206 639.679C96.0491 637.959 98.3825 635.637 100.121 632.705C101.851 629.773 102.72 626.583 102.72 623.119C102.72 619.655 101.851 616.504 100.121 613.588C98.3825 610.672 96.0491 608.357 93.1206 606.637V606.645Z" fill="#98A2B3"/>
<path d="M169.134 584.933H146.074V596.372H169.134V584.933Z" fill="#98A2B3"/>
<path d="M227.533 623.134C227.533 624.205 227.149 625.112 226.39 625.863C225.63 626.613 224.714 626.981 223.641 626.981C222.568 626.981 221.699 626.605 220.963 625.863C220.227 625.112 219.859 624.205 219.859 623.134V607.848H204.551V623.134C204.551 624.205 204.175 625.112 203.431 625.863C202.68 626.613 201.771 626.981 200.699 626.981C199.626 626.981 198.757 626.605 198.021 625.863C197.285 625.112 196.917 624.205 196.917 623.134V607.848H181.609V623.134C181.609 624.205 181.241 625.112 180.505 625.863C179.768 626.613 178.852 626.981 177.756 626.981H172.815C171.766 626.981 170.873 626.605 170.137 625.863C169.401 625.112 169.033 624.205 169.033 623.134V604.072L153.725 607.848V623.134C153.725 624.205 153.342 625.112 152.566 625.863C151.791 626.613 150.883 626.981 149.834 626.981H146.012V604.142H126.805C123.36 604.142 120.173 605.002 117.244 606.722C114.308 608.443 111.982 610.773 110.26 613.712C108.537 616.652 107.676 619.842 107.676 623.282C107.676 626.918 108.592 630.186 110.424 633.079C112.256 635.972 114.512 638.216 117.182 639.827C119.852 641.438 122.334 642.251 124.628 642.274H124.777L111.074 651.281L119.57 664.026L145.997 646.496V642.274H149.818C151.963 642.274 154.007 641.946 155.957 641.281C157.907 640.624 159.7 639.694 161.344 638.498C162.965 639.694 164.758 640.624 166.716 641.281C168.673 641.938 170.701 642.274 172.8 642.274H177.74C179.862 642.274 181.898 641.946 183.84 641.281C185.79 640.624 187.583 639.694 189.227 638.498C190.825 639.694 192.61 640.624 194.583 641.281C196.556 641.938 198.592 642.274 200.683 642.274C202.774 642.274 204.841 641.946 206.806 641.281C208.764 640.624 210.565 639.694 212.217 638.498C213.861 639.694 215.654 640.624 217.588 641.281C219.522 641.938 221.535 642.274 223.633 642.274C227.102 642.274 230.305 641.414 233.233 639.694C236.162 637.974 238.495 635.652 240.218 632.72C241.94 629.788 242.802 626.598 242.802 623.134V604.072L227.525 607.848V623.134H227.533ZM130.689 626.981H126.797C125.724 626.981 124.816 626.605 124.08 625.863C123.344 625.112 122.976 624.205 122.976 623.134C122.976 622.063 123.352 621.187 124.096 620.444C124.847 619.694 125.74 619.326 126.789 619.326H130.681V626.989L130.689 626.981Z" fill="#98A2B3"/>
<path d="M249.578 642.267H264.894V584.964L249.578 588.779V642.267Z" fill="#98A2B3"/>
<path d="M366.019 606.645C363.083 604.925 359.888 604.065 356.419 604.065H330.854L344.964 596.363L337.29 584.964L302.814 604.065V619.35H356.419C357.468 619.35 358.369 619.726 359.136 620.468C359.904 621.211 360.279 622.102 360.279 623.119C360.279 624.19 359.896 625.097 359.136 625.848C358.377 626.598 357.468 626.966 356.419 626.966H299.032C297.959 626.966 297.051 626.59 296.299 625.848C295.547 625.097 295.171 624.19 295.171 623.119V604.057L279.863 607.833V623.119C279.863 626.583 280.725 629.78 282.447 632.705C284.17 635.629 286.495 637.959 289.432 639.679C292.36 641.399 295.563 642.259 299.032 642.259H356.419C359.888 642.259 363.091 641.399 366.019 639.679C368.948 637.959 371.281 635.637 373.019 632.705C374.758 629.773 375.619 626.583 375.619 623.119C375.619 619.655 374.75 616.504 373.019 613.588C371.289 610.672 368.948 608.357 366.019 606.637V606.645Z" fill="#98A2B3"/>
<path d="M447.341 584.961L435.885 581.192V588.815H424.398V600.254H447.341V584.961Z" fill="#98A2B3"/>
<path d="M451.355 623.134C451.355 624.205 450.971 625.112 450.212 625.863C449.452 626.613 448.536 626.981 447.464 626.981C446.391 626.981 445.514 626.605 444.77 625.863C444.026 625.12 443.65 624.205 443.65 623.134V607.848H428.342V623.134C428.342 624.205 427.974 625.112 427.238 625.863C426.502 626.613 425.594 626.981 424.521 626.981C423.448 626.981 422.579 626.605 421.843 625.863C421.107 625.112 420.739 624.205 420.739 623.134V607.848H405.353V623.134C405.353 624.205 404.985 625.112 404.249 625.863C403.513 626.613 402.62 626.981 401.571 626.981C400.498 626.981 399.582 626.605 398.822 625.863C398.063 625.112 397.679 624.205 397.679 623.134V584.971L382.402 588.786V623.142C382.402 626.605 383.264 629.803 384.986 632.727C386.709 635.652 389.035 637.982 391.971 639.702C394.837 641.383 397.969 642.235 401.344 642.274H401.571C403.669 642.274 405.682 641.946 407.616 641.281C409.55 640.616 411.343 639.694 412.987 638.498C414.631 639.694 416.44 640.624 418.413 641.281C420.387 641.938 422.423 642.274 424.513 642.274C426.604 642.274 428.648 641.946 430.613 641.281C432.578 640.616 434.395 639.694 436.039 638.498C437.66 639.694 439.445 640.624 441.395 641.281C443.345 641.938 445.365 642.274 447.464 642.274C450.909 642.274 454.096 641.414 457.024 639.694C459.953 637.974 462.286 635.652 464.009 632.72C465.731 629.788 466.593 626.598 466.593 623.134V604.072L451.355 607.848V623.134Z" fill="#98A2B3"/>
<path d="M522.365 607.839V623.125C522.365 624.196 521.997 625.103 521.261 625.854C520.525 626.604 519.616 626.972 518.544 626.972H509.899V604.133H490.699C487.254 604.133 484.067 604.993 481.139 606.714C478.203 608.434 475.877 610.764 474.154 613.703C472.432 616.643 471.57 619.833 471.57 623.274C471.57 626.909 472.486 630.177 474.319 633.07C476.151 635.963 478.406 638.207 481.076 639.818C483.746 641.429 486.228 642.242 488.523 642.265H488.671L474.969 651.272L483.464 664.017L509.891 646.487V642.265H518.536C522.005 642.265 525.207 641.405 528.136 639.685C531.064 637.965 533.39 635.643 535.097 632.711C536.804 629.779 537.657 626.589 537.657 623.125V604.063L522.349 607.839H522.365ZM494.591 626.98H490.699C489.627 626.98 488.718 626.604 487.982 625.862C487.246 625.119 486.878 624.204 486.878 623.133C486.878 622.062 487.254 621.186 487.998 620.443C488.742 619.7 489.642 619.325 490.692 619.325H494.583V626.987L494.591 626.98Z" fill="#98A2B3"/>
<path d="M514.652 661.338H526.108V669L537.564 665.185V649.899H514.652V661.338Z" fill="#98A2B3"/>
<path d="M433.527 318.675L426.026 305L381.684 329.519L389.193 343.093L433.527 318.675Z" fill="#98A2B3"/>
<path d="M537.02 405.251C532.353 397.315 526.042 391.037 518.094 386.408C510.147 381.779 501.471 379.465 492.067 379.465H422.973L460.918 358.597L440.223 327.697L346.777 379.465V420.904H492.075C494.917 420.904 497.352 421.921 499.38 423.946C501.408 425.971 502.426 428.371 502.426 431.139C502.426 434.04 501.408 436.51 499.38 438.536C497.352 440.561 494.917 441.577 492.075 441.577H336.536C333.693 441.577 331.258 440.561 329.23 438.536C327.202 436.51 326.184 434.048 326.184 431.139V327.494L284.582 337.83V493.235C284.582 496.136 283.58 498.607 281.591 500.632C279.594 502.657 277.175 503.673 274.34 503.673H253.543C250.638 503.673 248.164 502.657 246.136 500.632C244.108 498.607 243.09 496.136 243.09 493.235V420.795L201.59 431.03V493.235C201.59 502.626 203.923 511.289 208.59 519.225C213.257 527.161 219.56 533.463 227.516 538.122C235.463 542.782 244.139 545.112 253.543 545.112H274.34C283.744 545.112 292.397 542.782 300.313 538.122C308.229 533.463 314.517 527.161 319.184 519.225C323.851 511.289 326.184 502.626 326.184 493.235V481.961C329.543 482.649 332.996 483.001 336.536 483.001H492.075C501.479 483.001 510.147 480.671 518.102 476.011C526.05 471.351 532.361 465.057 537.028 457.113C541.695 449.177 544.028 440.514 544.028 431.123C544.028 421.733 541.695 413.172 537.028 405.236L537.02 405.251Z" fill="#98A2B3"/>
<path d="M72.7503 312.365H41.5V343.265H72.7503V312.365Z" fill="#98A2B3"/>
<path d="M183.946 487.944H121.445V518.945H183.946V487.944Z" fill="#98A2B3"/>
<path d="M148.03 374.063V415.502C148.03 418.403 147.028 420.874 145.039 422.899C143.042 424.924 140.591 425.94 137.686 425.94H114.251V415.502C114.251 406.182 111.933 397.55 107.297 389.614C102.662 381.678 96.3742 375.4 88.4265 370.771C80.4788 366.143 71.8343 363.828 62.5007 363.828H20.797L10.4455 405.267H62.5007C65.2726 405.267 67.6765 406.284 69.7045 408.309C71.7325 410.334 72.7504 412.734 72.7504 415.502V425.94H51.9534C42.5493 425.94 33.8735 428.286 25.9258 432.985C17.9781 437.676 11.667 443.993 7.0002 451.929C2.3334 459.858 0 468.521 0 477.911C0 487.301 2.3334 495.949 7.0002 503.846C11.667 511.75 17.9703 518.013 25.9258 522.642C33.8735 527.271 42.5493 529.585 51.9534 529.585H104.001L114.251 488.146H51.9456C49.0406 488.146 46.5662 487.145 44.5382 485.159C42.5102 483.165 41.4923 480.749 41.4923 477.911C41.4923 475.073 42.5102 472.524 44.5382 470.468C46.5662 468.404 49.0327 467.379 51.9456 467.379H137.678C147.083 467.379 155.758 465.049 163.706 460.389C171.654 455.729 177.941 449.435 182.577 441.492C187.212 433.556 189.53 424.892 189.53 415.502V363.828L148.03 374.063Z" fill="#98A2B3"/>
</g>
<defs>
<filter id="filter0_b_562_1661" x="728" y="-5" width="268" height="124" filterUnits="userSpaceOnUse" color-interpolation-filters="sRGB">
<feFlood flood-opacity="0" result="BackgroundImageFix"/>
<feGaussianBlur in="BackgroundImageFix" stdDeviation="2.5"/>
<feComposite in2="SourceAlpha" operator="in" result="effect1_backgroundBlur_562_1661"/>
<feBlend mode="normal" in="SourceGraphic" in2="effect1_backgroundBlur_562_1661" result="shape"/>
</filter>
</defs>
</svg>
