<svg width="983" height="364" viewBox="0 0 983 364" fill="none" xmlns="http://www.w3.org/2000/svg">
<path fill-rule="evenodd" clip-rule="evenodd" d="M906.041 200.857C919.589 171.012 945.809 157.646 975.272 146.677C973.032 157.1 968.786 165.479 962.151 172.456C947.93 187.41 929.134 193.446 910.309 199.493L910.309 199.493C908.886 199.95 907.462 200.407 906.041 200.868V200.857ZM752.12 179.704C756.696 194.514 759.342 209.432 752.259 224.328C747.213 234.943 737.975 241.268 728.556 247.485C727.404 248.244 726.247 249 725.089 249.757C718.363 254.15 711.598 258.569 705.61 263.837C693.151 274.795 690.836 289.156 695.828 304.362C700.906 319.847 711.968 329.607 728.225 331.725C754.062 335.096 774.746 316.84 775.023 290.686C775.087 284.608 776.836 280.252 782.031 277.545C787.425 274.736 792.891 272.071 798.457 269.357C800.905 268.163 803.373 266.96 805.862 265.731C814.919 307.187 794.437 346.632 758.211 359.688C715.958 374.905 670.525 348.355 663.218 303.859C659.602 281.804 662.802 261.129 678.654 244.061C687.401 234.645 698.71 229.18 710.008 223.72L710.009 223.72C711.525 222.988 713.04 222.255 714.55 221.513C720.278 218.699 725.953 215.724 731.393 212.396C743.522 204.98 750.744 194.3 752.109 179.704H752.12ZM950.393 221.599C979.867 204.584 987.857 179.329 978.939 150.543H978.929C975.632 172.962 960.506 185.258 941.518 192.995C925.805 199.394 909.377 204.242 892.992 208.79C881.527 211.975 869.974 214.849 858.422 217.723C846.028 220.806 833.635 223.889 821.35 227.356C805.552 231.819 790.585 238.582 778.627 250.482C766.851 262.21 763.554 276.421 766.648 292.505C768.781 282.286 775.608 275.79 784.249 271.563C792.815 267.368 801.765 263.451 810.981 261.183C828.523 256.867 846.151 252.921 863.778 248.976L863.779 248.976L863.78 248.975C874.559 246.563 885.338 244.15 896.096 241.653C915.02 237.255 933.432 231.391 950.393 221.599ZM779.224 354.347L779.236 354.333C779.371 354.425 779.521 354.533 779.683 354.649C780.106 354.954 780.611 355.317 781.155 355.609C796.345 363.699 812.41 365.733 829.211 362.544C876.638 353.544 901.952 298.936 878.43 256.719C875.721 251.85 872.745 250.427 867.368 252.011C863.354 253.2 859.225 253.973 855.093 254.747C852.943 255.149 850.793 255.552 848.658 256.013C846.69 256.44 844.741 256.963 842.604 257.536C841.531 257.824 840.411 258.124 839.217 258.431L839.889 259.065C841.244 260.34 842.129 261.174 843.015 262.016C862.099 280.112 860.029 310.493 838.737 325.838C827.974 333.608 816.154 334.378 803.652 331.767C802.095 331.446 799.663 331.671 798.724 332.666C793.756 337.942 788.948 343.373 783.987 348.977L783.986 348.978L783.983 348.981C782.419 350.748 780.84 352.532 779.236 354.333L779.224 354.325V354.347ZM775.534 246.056C775.535 246.058 775.535 246.06 775.535 246.062H775.524C775.528 246.06 775.531 246.058 775.534 246.056ZM775.457 244.857C775.487 245.291 775.515 245.695 775.534 246.056C778.065 244.564 780.575 243.055 783.077 241.55C789.524 237.673 795.924 233.824 802.523 230.364C805.958 228.566 807.014 226.693 806.993 223.065C806.89 204.538 806.897 186.011 806.904 167.484C806.906 162.853 806.908 158.223 806.908 153.593V147.857C804.16 148.756 801.468 149.661 798.81 150.554C792.539 152.662 786.458 154.707 780.292 156.45C776.623 157.488 775.161 158.772 775.193 162.86C775.34 181.845 775.325 200.829 775.309 219.813C775.303 227.015 775.297 234.216 775.3 241.418C775.3 242.621 775.384 243.825 775.457 244.857Z" fill="#B7D1D1"/>
<path fill-rule="evenodd" clip-rule="evenodd" d="M662.182 29.0666C662.188 31.6095 662.194 34.1989 662.194 36.849H662.205C674.27 30.6958 685.812 30.6851 697.962 34.7943C697.962 32.3377 697.966 29.9265 697.971 27.5503C697.986 19.6789 698 12.1907 697.844 4.70247C697.823 3.58954 696.372 1.77034 695.316 1.53491C685.321 -0.690948 675.283 -0.509027 665.394 2.16628C664.125 2.50872 662.365 4.29583 662.333 5.45156C662.146 13.1537 662.163 20.8684 662.182 29.0666ZM722.485 121.655C724.459 103.217 709.492 84.1255 690.825 81.1399C675.986 78.7642 661.735 79.8985 652.347 93.9493C649.938 97.5542 648.074 101.523 646.209 105.494L646.209 105.495C645.267 107.5 644.325 109.507 643.312 111.467C629.935 137.321 611.758 146.128 583.223 140.607C581.719 140.318 580.225 139.954 578.657 138.873C579.019 138.786 579.38 138.697 579.741 138.609L579.742 138.609C580.625 138.392 581.508 138.175 582.401 137.985C594.21 135.459 602.616 128.718 607.171 117.46C609.305 112.195 611.321 106.844 612.953 101.397C622.777 68.5231 653.531 46.2967 686.355 48.5118C721.547 50.8875 749.175 76.4528 754.285 111.36C755.842 121.997 756.024 122.275 766.232 122.179C783.311 122.008 795.962 114.207 803.163 98.7434C810.374 83.2587 807.931 68.5766 797.402 55.2108C796.965 54.6543 796.528 54.0979 796.122 53.5307C796.026 53.3916 796.026 53.1883 796.037 53.2311C801.17 48.1714 806.271 43.1482 811.458 38.0417C813.709 35.8255 815.975 33.5937 818.268 31.3363C828.412 41.4169 835.133 54.0016 837.544 68.5231C841.81 94.2596 834.482 116.529 815.537 134.528C804.549 144.973 790.607 150.088 776.036 151.543C758.406 153.296 740.617 153.693 722.87 154.089H722.869L722.845 154.09C721.099 154.129 719.355 154.168 717.61 154.208C711.661 154.342 705.707 154.087 699.752 153.831H699.752C694.335 153.598 688.919 153.366 683.507 153.427C653.905 153.748 634.362 181.325 644.774 208.549C651.089 225.093 663.996 233.536 680.787 234.756C674.429 243.585 667.794 252.798 660.167 263.393C658.611 262.587 656.903 261.775 655.113 260.925C650.91 258.928 646.251 256.714 642.032 253.847C616.878 236.757 605.56 206.772 612.505 176.991C619.097 148.707 642.96 126.716 672.221 122.415C677.03 121.707 681.958 121.709 686.864 121.71H686.864H686.865C688.194 121.711 689.522 121.711 690.846 121.698C698.235 121.622 705.63 121.637 713.113 121.653H713.115L713.125 121.653C716.224 121.659 719.339 121.665 722.475 121.665L722.485 121.655ZM827.675 161.578L827.667 161.537L827.666 161.534C826.529 156.145 825.463 151.09 824.381 146.035C823.847 143.52 824.295 141.947 826.941 140.556C845.598 130.7 854.953 109.693 850.078 89.2003C850.004 88.8818 849.99 88.5461 849.967 88.0273V88.027V88.0266C849.955 87.7265 849.939 87.3651 849.908 86.9103C851.712 86.5334 853.517 86.1509 855.324 85.768L855.331 85.7666L855.332 85.7664C862.093 84.3338 868.879 82.8958 875.712 81.7309C876.608 81.581 878.763 83.9353 878.976 85.3372C884.47 120.448 875.467 148.421 837.043 165.682C835.481 166.385 833.882 167.014 832.116 167.708C831.193 168.071 830.224 168.452 829.192 168.871L829.213 168.86C828.682 166.351 828.172 163.933 827.675 161.578Z" fill="#B7D1D1"/>
<path d="M93.1225 301.645C90.1862 299.925 86.9915 299.065 83.5227 299.065H57.9571L72.0671 291.363L64.3935 279.964L29.9171 299.065V314.35H83.5227C84.5719 314.35 85.4724 314.726 86.2398 315.468C86.9993 316.219 87.383 317.102 87.383 318.119C87.383 319.19 86.9993 320.097 86.2398 320.848C85.4802 321.598 84.5719 321.966 83.5227 321.966H26.1351C25.0624 321.966 24.1541 321.59 23.4024 320.848C22.6507 320.105 22.2827 319.19 22.2827 318.119V299.057L6.97461 302.833V318.119C6.97461 321.583 7.83593 324.78 9.55858 327.705C11.2812 330.637 13.6068 332.959 16.5431 334.679C19.4716 336.399 22.6742 337.259 26.1429 337.259H83.5227C86.9915 337.259 90.194 336.399 93.1225 334.679C96.051 332.959 98.3844 330.637 100.123 327.705C101.853 324.773 102.722 321.583 102.722 318.119C102.722 314.655 101.853 311.504 100.123 308.588C98.3844 305.672 96.051 303.357 93.1225 301.637V301.645Z" fill="#B7D1D1"/>
<path d="M169.137 279.933H146.077V291.372H169.137V279.933Z" fill="#B7D1D1"/>
<path d="M227.536 318.134C227.536 319.205 227.152 320.112 226.392 320.863C225.633 321.613 224.717 321.981 223.644 321.981C222.571 321.981 221.702 321.605 220.966 320.863C220.23 320.112 219.862 319.205 219.862 318.134V302.848H204.554V318.134C204.554 319.205 204.178 320.112 203.434 320.863C202.683 321.613 201.774 321.981 200.702 321.981C199.629 321.981 198.76 321.605 198.024 320.863C197.288 320.112 196.92 319.205 196.92 318.134V302.848H181.612V318.134C181.612 319.205 181.243 320.112 180.507 320.863C179.771 321.613 178.855 321.981 177.759 321.981H172.818C171.769 321.981 170.876 321.605 170.14 320.863C169.404 320.112 169.036 319.205 169.036 318.134V299.072L153.728 302.848V318.134C153.728 319.205 153.344 320.112 152.569 320.863C151.794 321.613 150.886 321.981 149.837 321.981H146.015V299.142H126.808C123.363 299.142 120.176 300.002 117.247 301.722C114.311 303.442 111.985 305.772 110.263 308.712C108.54 311.652 107.679 314.842 107.679 318.282C107.679 321.918 108.595 325.186 110.427 328.079C112.259 330.972 114.514 333.216 117.185 334.827C119.855 336.437 122.337 337.251 124.631 337.274H124.78L111.077 346.281L119.573 359.026L146 341.496V337.274H149.821C151.966 337.274 154.01 336.946 155.96 336.281C157.909 335.624 159.703 334.694 161.347 333.498C162.968 334.694 164.761 335.624 166.718 336.281C168.676 336.938 170.704 337.274 172.803 337.274H177.743C179.865 337.274 181.901 336.946 183.843 336.281C185.793 335.624 187.586 334.694 189.23 333.498C190.828 334.694 192.613 335.624 194.586 336.281C196.559 336.938 198.595 337.274 200.686 337.274C202.777 337.274 204.844 336.946 206.809 336.281C208.767 335.624 210.568 334.694 212.22 333.498C213.864 334.694 215.657 335.624 217.591 336.281C219.525 336.938 221.538 337.274 223.636 337.274C227.105 337.274 230.308 336.414 233.236 334.694C236.165 332.974 238.498 330.652 240.221 327.72C241.943 324.788 242.805 321.598 242.805 318.134V299.072L227.528 302.848V318.134H227.536ZM130.692 321.981H126.8C125.727 321.981 124.819 321.605 124.083 320.863C123.347 320.112 122.979 319.205 122.979 318.134C122.979 317.063 123.355 316.187 124.099 315.444C124.85 314.694 125.743 314.326 126.792 314.326H130.684V321.988L130.692 321.981Z" fill="#B7D1D1"/>
<path d="M249.579 337.267H264.895V279.964L249.579 283.779V337.267Z" fill="#B7D1D1"/>
<path d="M366.02 301.645C363.084 299.925 359.889 299.065 356.42 299.065H330.855L344.965 291.363L337.291 279.964L302.815 299.065V314.35H356.42C357.469 314.35 358.37 314.726 359.137 315.468C359.905 316.211 360.28 317.102 360.28 318.119C360.28 319.19 359.897 320.097 359.137 320.848C358.378 321.598 357.469 321.966 356.42 321.966H299.033C297.96 321.966 297.052 321.59 296.3 320.848C295.548 320.097 295.172 319.19 295.172 318.119V299.057L279.864 302.833V318.119C279.864 321.583 280.726 324.78 282.448 327.705C284.171 330.629 286.496 332.959 289.433 334.679C292.361 336.399 295.564 337.259 299.033 337.259H356.42C359.889 337.259 363.091 336.399 366.02 334.679C368.948 332.959 371.282 330.637 373.02 327.705C374.759 324.773 375.62 321.583 375.62 318.119C375.62 314.655 374.751 311.504 373.02 308.588C371.29 305.672 368.948 303.357 366.02 301.637V301.645Z" fill="#B7D1D1"/>
<path d="M447.344 279.961L435.888 276.192V283.815H424.401V295.254H447.344V279.961Z" fill="#B7D1D1"/>
<path d="M451.356 318.134C451.356 319.205 450.972 320.112 450.213 320.863C449.453 321.613 448.537 321.981 447.465 321.981C446.392 321.981 445.515 321.605 444.771 320.863C444.027 320.12 443.651 319.205 443.651 318.134V302.848H428.343V318.134C428.343 319.205 427.975 320.112 427.239 320.863C426.503 321.613 425.595 321.981 424.522 321.981C423.449 321.981 422.58 321.605 421.844 320.863C421.108 320.112 420.74 319.205 420.74 318.134V302.848H405.354V318.134C405.354 319.205 404.986 320.112 404.25 320.863C403.514 321.613 402.621 321.981 401.572 321.981C400.499 321.981 399.583 321.605 398.823 320.863C398.064 320.112 397.68 319.205 397.68 318.134V279.971L382.403 283.786V318.142C382.403 321.605 383.265 324.803 384.987 327.727C386.71 330.652 389.036 332.982 391.972 334.702C394.838 336.383 397.97 337.235 401.345 337.274H401.572C403.67 337.274 405.683 336.946 407.617 336.281C409.551 335.617 411.344 334.694 412.988 333.498C414.632 334.694 416.441 335.624 418.414 336.281C420.388 336.938 422.424 337.274 424.514 337.274C426.605 337.274 428.649 336.946 430.614 336.281C432.579 335.617 434.396 334.694 436.04 333.498C437.661 334.694 439.446 335.624 441.396 336.281C443.346 336.938 445.366 337.274 447.465 337.274C450.91 337.274 454.097 336.414 457.025 334.694C459.954 332.974 462.287 330.652 464.01 327.72C465.732 324.788 466.594 321.598 466.594 318.134V299.072L451.356 302.848V318.134Z" fill="#B7D1D1"/>
<path d="M522.367 302.839V318.125C522.367 319.196 521.999 320.103 521.263 320.854C520.527 321.604 519.618 321.972 518.546 321.972H509.901V299.133H490.701C487.256 299.133 484.069 299.993 481.141 301.714C478.204 303.434 475.879 305.764 474.156 308.703C472.434 311.643 471.572 314.833 471.572 318.274C471.572 321.909 472.488 325.177 474.321 328.07C476.153 330.963 478.408 333.207 481.078 334.818C483.748 336.429 486.23 337.242 488.525 337.265H488.673L474.971 346.272L483.466 359.017L509.893 341.487V337.265H518.538C522.007 337.265 525.209 336.405 528.138 334.685C531.066 332.965 533.392 330.643 535.099 327.711C536.806 324.779 537.659 321.589 537.659 318.125V299.063L522.351 302.839H522.367ZM494.593 321.98H490.701C489.629 321.98 488.72 321.604 487.984 320.862C487.248 320.119 486.88 319.204 486.88 318.133C486.88 317.062 487.256 316.186 488 315.443C488.744 314.7 489.644 314.325 490.694 314.325H494.585V321.987L494.593 321.98Z" fill="#B7D1D1"/>
<path d="M514.655 356.338H526.111V364L537.566 360.184V344.899H514.655V356.338Z" fill="#B7D1D1"/>
<path d="M433.528 13.6749L426.027 0L381.685 24.5195L389.194 38.0928L433.528 13.6749Z" fill="#B7D1D1"/>
<path d="M537.02 100.251C532.353 92.3151 526.042 86.0367 518.094 81.408C510.147 76.7794 501.471 74.465 492.067 74.465H422.973L460.918 53.5969L440.223 22.6973L346.777 74.465V115.904H492.075C494.917 115.904 497.352 116.921 499.38 118.946C501.408 120.971 502.426 123.371 502.426 126.139C502.426 129.04 501.408 131.51 499.38 133.535C497.352 135.56 494.917 136.577 492.075 136.577H336.536C333.693 136.577 331.258 135.56 329.23 133.535C327.202 131.51 326.184 129.047 326.184 126.139V22.494L284.582 32.8304V188.235C284.582 191.136 283.58 193.607 281.591 195.632C279.594 197.657 277.175 198.673 274.34 198.673H253.543C250.638 198.673 248.164 197.657 246.136 195.632C244.108 193.607 243.09 191.136 243.09 188.235V115.795L201.59 126.029V188.235C201.59 197.625 203.923 206.289 208.59 214.225C213.257 222.161 219.56 228.462 227.516 233.122C235.463 237.782 244.139 240.112 253.543 240.112H274.34C283.744 240.112 292.397 237.782 300.313 233.122C308.229 228.462 314.517 222.161 319.184 214.225C323.851 206.289 326.184 197.625 326.184 188.235V176.961C329.543 177.649 332.996 178 336.536 178H492.075C501.479 178 510.147 175.67 518.102 171.01C526.05 166.351 532.361 160.056 537.028 152.113C541.695 144.177 544.028 135.514 544.028 126.123C544.028 116.733 541.695 108.171 537.028 100.235L537.02 100.251Z" fill="#B7D1D1"/>
<path d="M72.7513 7.36548H41.501V38.265H72.7513V7.36548Z" fill="#B7D1D1"/>
<path d="M183.947 182.944H121.446V213.945H183.947V182.944Z" fill="#B7D1D1"/>
<path d="M148.03 69.0631V110.502C148.03 113.403 147.028 115.874 145.039 117.899C143.042 119.924 140.591 120.94 137.686 120.94H114.251V110.502C114.251 101.182 111.933 92.5505 107.297 84.6145C102.662 76.6786 96.3742 70.4001 88.4265 65.7715C80.4788 61.1428 71.8343 58.8284 62.5007 58.8284H20.797L10.4455 100.268H62.5007C65.2726 100.268 67.6765 101.284 69.7045 103.309C71.7325 105.334 72.7504 107.734 72.7504 110.502V120.94H51.9534C42.5493 120.94 33.8735 123.286 25.9258 127.985C17.9782 132.676 11.667 138.994 7.0002 146.93C2.3334 154.858 0 163.521 0 172.911C0 182.302 2.3334 190.949 7.0002 198.846C11.667 206.751 17.9703 213.013 25.9258 217.642C33.8735 222.271 42.5493 224.585 51.9534 224.585H104.001L114.251 183.146H51.9456C49.0406 183.146 46.5662 182.145 44.5382 180.159C42.5102 178.165 41.4923 175.749 41.4923 172.911C41.4923 170.073 42.5102 167.524 44.5382 165.468C46.5662 163.404 49.0327 162.379 51.9456 162.379H137.678C147.083 162.379 155.758 160.049 163.706 155.39C171.654 150.73 177.941 144.436 182.577 136.492C187.212 128.556 189.53 119.893 189.53 110.502V58.8284L148.03 69.0631Z" fill="#B7D1D1"/>
</svg>
